<?xml version="1.0" encoding="utf-8"?>
<!-- Generator: Adobe Illustrator 23.0.3, SVG Export Plug-In . SVG Version: 6.00 Build 0)  -->
<svg version="1.1" id="Слой_1" xmlns="http://www.w3.org/2000/svg" xmlns:xlink="http://www.w3.org/1999/xlink" x="0px" y="0px"
	 viewBox="0 0 150 150" style="enable-background:new 0 0 150 150;" xml:space="preserve">
<style type="text/css">
	.st0{fill:url(#SVGID_1_);}
	.st1{fill:#B5C8D7;}
	.st2{fill:#FFFFFF;}
	.st3{fill:#E5EEF6;}
	.st4{fill:#FFF19F;}
	.st5{fill:#FDD1B3;}
	.st6{fill:#A7A7A7;}
	.st7{fill:url(#SVGID_2_);}
</style>
<g>
	
		<linearGradient id="SVGID_1_" gradientUnits="userSpaceOnUse" x1="-4640.5093" y1="541.2468" x2="-4640.5093" y2="401.7408" gradientTransform="matrix(-0.9909 0.1346 0.1346 0.9909 -4587.2886 229.7313)">
		<stop  offset="0" style="stop-color:#FFF19F"/>
		<stop  offset="0.5839" style="stop-color:#FFFFAD"/>
	</linearGradient>
	<path class="st0" d="M84.03,36.55C60.71,24.56,54.88,1.28,25.01,8.91c-24.06,6.14-35.3,55.55-12.91,98.52
		c12.7,24.38,39.42,38.2,66.68,34.61c38.25-5.04,78.56-29.52,70.08-61.4C139.14,44.07,107.35,48.53,84.03,36.55z"/>
	<g>
		<g>
			<g>
				<path class="st1" d="M122.55,115.05H10.59V34.19c0-0.3,0.25-0.55,0.55-0.55H122c0.3,0,0.55,0.25,0.55,0.55V115.05z"/>
			</g>
		</g>
		<g>
			<polygon class="st2" points="117.25,109.72 15.89,109.72 16.03,38.98 117.25,38.98 			"/>
		</g>
		<g>
			<rect x="30.44" y="47.43" class="st3" width="71.3" height="53.58"/>
			<g>
				<path class="st4" d="M64.05,71.72h-1.82c-4.73,0-8.56-3.83-8.56-8.56v-2.51c0-5.23,4.24-9.46,9.46-9.46h0
					c5.23,0,9.46,4.24,9.46,9.46v2.53C72.59,67.89,68.77,71.72,64.05,71.72z"/>
				<path class="st5" d="M63.15,67.69L63.15,67.69c-3.47,0-6.28-2.81-6.28-6.28v-2.22c0-3.47,2.81-6.28,6.28-6.28h0
					c3.47,0,6.28,2.81,6.28,6.28v2.22C69.44,64.88,66.62,67.69,63.15,67.69z"/>
				<circle class="st5" cx="56.69" cy="60.64" r="1.34"/>
				<circle class="st5" cx="69.57" cy="60.64" r="1.34"/>
				<path class="st4" d="M63.13,52.71c0,0,0.24,1.48,0.02,3.31c-0.22,1.84-6.28,3.17-6.28,3.17l-0.56-0.9l1.19-2.72l2.38-2.23
					L63.13,52.71z"/>
				<path class="st4" d="M63.12,52.71c0,0-0.24,1.48-0.02,3.31s6.28,3.17,6.28,3.17l0.56-0.9l-1.19-2.72l-2.38-2.23L63.12,52.71z"/>
				<path class="st6" d="M55.63,88.89h14.8l1.03-14.85c0.17-2.5-1.81-4.63-4.32-4.63h-8.2c-2.5,0-4.49,2.12-4.32,4.62L55.63,88.89z"
					/>
				<path class="st5" d="M63.03,71.54L63.03,71.54c1.19,0,2.15-0.96,2.15-2.15v-2.32c0-1.19-0.96-2.15-2.15-2.15h0
					c-1.19,0-2.15,0.96-2.15,2.15v2.32C60.88,70.57,61.84,71.54,63.03,71.54z"/>
				<path class="st6" d="M48.14,84.13l-0.7-3l8.9-10.87l4.86,3.83l-9.46,8.35C50.76,83.64,49.34,85.12,48.14,84.13z"/>
				<path class="st6" d="M78.77,85.22L78.77,85.22c1.04-0.85,1.2-2.39,0.34-3.44l-8.54-10.43l-4.86,3.83l9.1,9.64
					C75.8,86.03,77.57,86.21,78.77,85.22z"/>
				<path class="st5" d="M80.78,70.27l-1.09-3.43c-0.07-0.21,0.02-0.43,0.21-0.54l0,0c0.2-0.12,0.45-0.07,0.6,0.12l1.1,1.41
					c0.02,0.02,0.05,0.02,0.07,0l2.02-3.44c0.13-0.22,0.42-0.3,0.64-0.16l0.61,0.38c0.31,0.19,0.49,0.53,0.47,0.89l-0.16,3.08
					c-0.01,0.1-0.05,0.2-0.12,0.28l-1.88,2.11c-0.12,0.14-0.31,0.19-0.49,0.13l-1.68-0.54C80.94,70.52,80.83,70.41,80.78,70.27z"/>
				<path class="st6" d="M76.62,85.36L76.62,85.36c1.42,0.46,2.94-0.32,3.4-1.74l4.07-12.58l-4.01-1.29l-4.95,12.45
					C74.62,83.48,75.31,84.93,76.62,85.36z"/>
				<path class="st5" d="M61.4,81.99l2.74-1.95c0.17-0.12,0.39-0.1,0.54,0.03l0,0c0.16,0.14,0.19,0.38,0.07,0.56l-0.94,1.39
					c-0.01,0.02,0,0.05,0.02,0.06l3.64,0.81c0.24,0.05,0.38,0.29,0.32,0.53l-0.17,0.66c-0.08,0.33-0.34,0.58-0.66,0.67l-2.79,0.74
					c-0.09,0.03-0.2,0.02-0.29-0.02l-2.42-1.07c-0.16-0.07-0.26-0.22-0.26-0.4l0-1.65C61.21,82.2,61.28,82.07,61.4,81.99z"/>
				<path class="st6" d="M46.78,82.6L46.78,82.6c0,1.39,1.12,2.52,2.52,2.53l12.36,0.02l0.01-3.94l-12.5-0.84
					C47.88,80.28,46.78,81.3,46.78,82.6z"/>
			</g>
			<linearGradient id="SVGID_2_" gradientUnits="userSpaceOnUse" x1="30.4405" y1="94.9262" x2="101.7412" y2="94.9262">
				<stop  offset="0" style="stop-color:#FFD176"/>
				<stop  offset="0.5839" style="stop-color:#FFDC82"/>
			</linearGradient>
			<rect x="30.44" y="88.75" class="st7" width="71.3" height="12.36"/>
			<path class="st2" d="M62.46,98.47v-6.7c0-0.57,0.62-0.93,1.12-0.64l5.77,3.35c0.49,0.29,0.49,1,0,1.29l-5.77,3.35
				C63.08,99.4,62.46,99.05,62.46,98.47z"/>
		</g>
		<rect x="4.71" y="109.37" class="st1" width="123.72" height="7.08"/>
	</g>
</g>
</svg>
