<?xml version="1.0" encoding="utf-8"?>
<!-- Generator: Adobe Illustrator 23.0.3, SVG Export Plug-In . SVG Version: 6.00 Build 0)  -->
<svg version="1.1" id="Слой_1" xmlns="http://www.w3.org/2000/svg" xmlns:xlink="http://www.w3.org/1999/xlink" x="0px" y="0px"
	 viewBox="0 0 150 150" style="enable-background:new 0 0 150 150;" xml:space="preserve">
<style type="text/css">
	.st0{fill:url(#SVGID_1_);}
	.st1{fill:#B5C8D7;}
	.st2{fill:#FFFFFF;}
	.st3{fill:#E5EEF6;}
	.st4{fill:url(#SVGID_2_);}
	.st5{fill:#D4D4D4;}
	.st6{opacity:0.31;fill:#D4D4D4;enable-background:new    ;}
</style>
<g>
	
		<linearGradient id="SVGID_1_" gradientUnits="userSpaceOnUse" x1="786.9413" y1="346.0847" x2="786.9413" y2="485.5952" gradientTransform="matrix(0.9909 0.1346 0.1346 -0.9909 -760.2058 378.3663)">
		<stop  offset="0.0542" style="stop-color:#FFFFCF;stop-opacity:0.5"/>
		<stop  offset="0.5125" style="stop-color:#FFCDD1;stop-opacity:0.6"/>
	</linearGradient>
	<path class="st0" d="M65.97,36.55C89.29,24.56,95.12,1.28,124.99,8.91c24.06,6.14,35.3,55.55,12.91,98.52
		c-12.7,24.38-39.42,38.2-66.68,34.61C32.97,137-7.34,112.52,1.14,80.64C10.86,44.07,42.65,48.53,65.97,36.55z"/>
	<g>
		<g>
			<g>
				<path class="st1" d="M133.04,116.37H21.09V35.5c0-0.3,0.25-0.55,0.55-0.55H132.5c0.3,0,0.55,0.25,0.55,0.55v80.87H133.04z"/>
			</g>
		</g>
		<g>
			<polygon class="st2" points="127.74,111.03 26.39,111.03 26.52,40.29 127.74,40.29 			"/>
		</g>
		<rect x="15.21" y="110.68" class="st1" width="123.72" height="7.08"/>
		<rect x="30.9" y="46.52" class="st3" width="49.32" height="38.99"/>
		
			<linearGradient id="SVGID_2_" gradientUnits="userSpaceOnUse" x1="30.9" y1="68.92" x2="80.22" y2="68.92" gradientTransform="matrix(1 0 0 -1 0 150)">
			<stop  offset="0" style="stop-color:#FFD176"/>
			<stop  offset="0.5839" style="stop-color:#FFDC82"/>
		</linearGradient>
		<rect x="30.9" y="76.58" class="st4" width="49.32" height="9"/>
		<path class="st2" d="M54.2,83.66v-4.88c0-0.42,0.45-0.68,0.81-0.47l4.2,2.44c0.36,0.21,0.36,0.73,0,0.94l-4.2,2.44
			C54.65,84.33,54.2,84.07,54.2,83.66z"/>
		<circle class="st5" cx="90.97" cy="51.45" r="4.95"/>
		<rect x="99.15" y="47.66" class="st6" width="23.99" height="3.82"/>
		<rect x="99.15" y="53.23" class="st6" width="17.99" height="3.82"/>
		<circle class="st3" cx="90.97" cy="66.16" r="4.95"/>
		<rect x="99.15" y="62.37" class="st6" width="23.99" height="3.82"/>
		<rect x="99.15" y="67.94" class="st6" width="17.99" height="3.82"/>
		<circle class="st3" cx="35.85" cy="96.67" r="4.95"/>
		<rect x="44.03" y="92.88" class="st6" width="36.07" height="3.82"/>
		<rect x="44.03" y="98.45" class="st6" width="27.05" height="3.82"/>
		<circle class="st5" cx="90.97" cy="80.6" r="4.95"/>
		<rect x="99.15" y="76.81" class="st6" width="23.99" height="3.82"/>
		<circle class="st5" cx="90.97" cy="94.73" r="4.95"/>
		<rect x="99.15" y="90.94" class="st6" width="23.99" height="3.82"/>
	</g>
</g>
</svg>
