<?xml version="1.0" encoding="utf-8"?>
<!-- Generator: Adobe Illustrator 23.0.3, SVG Export Plug-In . SVG Version: 6.00 Build 0)  -->
<svg version="1.1" id="Слой_1" xmlns="http://www.w3.org/2000/svg" xmlns:xlink="http://www.w3.org/1999/xlink" x="0px" y="0px"
	 viewBox="0 0 150 150" style="enable-background:new 0 0 150 150;" xml:space="preserve">
<style type="text/css">
	.st0{fill:url(#SVGID_1_);}
	.st1{fill:#B5C8D7;}
	.st2{fill:#FFFFFF;}
	.st3{fill:#A7A7A7;}
	.st4{fill:#D4D4D4;}
	.st5{fill:#E5EEF6;}
	.st6{opacity:0.31;fill:#D4D4D4;enable-background:new    ;}
	.st7{fill:url(#SVGID_2_);}
	.st8{fill:url(#SVGID_3_);}
	.st9{fill:url(#SVGID_4_);}
	.st10{fill:none;}
</style>
<g>
	
		<linearGradient id="SVGID_1_" gradientUnits="userSpaceOnUse" x1="509.837" y1="9024.0068" x2="509.837" y2="9160.6074" gradientTransform="matrix(0.9701 -0.2427 0.2427 0.9701 -2625.7615 -8616.6152)">
		<stop  offset="4.166280e-03" style="stop-color:#FFFFFF"/>
		<stop  offset="0.6028" style="stop-color:#E5EEF6"/>
	</linearGradient>
	<path class="st0" d="M70.05,115.85c23.99,9.16,32.17,31.18,60.42,20.55c22.75-8.56,28.38-57.86,1.97-97.27
		C117.45,16.77,89.96,6.19,63.82,12.62C27.13,21.64-9.47,49.8,2.21,79.92C15.61,114.46,46.06,106.69,70.05,115.85z"/>
	<g>
		<g>
			<g>
				<path class="st1" d="M132.78,107.11H23.16V27.94c0-0.3,0.25-0.55,0.55-0.55h108.53c0.3,0,0.55,0.25,0.55,0.55L132.78,107.11
					L132.78,107.11z"/>
			</g>
		</g>
		<g>
			<polygon class="st2" points="127.6,101.88 28.35,101.88 28.48,32.62 127.6,32.62 			"/>
		</g>
		<path class="st3" d="M60.83,101.54v-9.07c0-1.49-1.21-2.69-2.69-2.69H36.08c-1.49,0-2.69,1.21-2.69,2.69v9.07H60.83z"/>
		<path class="st4" d="M91.81,101.54v-9.07c0-1.49-1.21-2.69-2.69-2.69H67.05c-1.49,0-2.69,1.21-2.69,2.69v9.07H91.81z"/>
		<path class="st5" d="M122.38,101.54v-9.27c0-1.49-1.21-2.69-2.69-2.69H97.62c-1.49,0-2.69,1.21-2.69,2.69v9.27
			C94.93,101.54,122.38,101.54,122.38,101.54z"/>
		<rect x="17.4" y="101.54" class="st1" width="121.15" height="6.93"/>
		<g>
			<path class="st4" d="M57.74,85.21H36.7c-1.77,0-3.21-1.44-3.21-3.21V66.72c0-1.77,1.44-3.21,3.21-3.21h21.03
				c1.77,0,3.21,1.44,3.21,3.21V82C60.94,83.77,59.51,85.21,57.74,85.21z"/>
			<path class="st2" d="M42.14,79.05v-9.38c0-0.8,0.87-1.31,1.57-0.9l8.08,4.69c0.69,0.4,0.69,1.4,0,1.8l-8.08,4.69
				C43.01,80.36,42.14,79.85,42.14,79.05z"/>
		</g>
		<g>
			<path class="st5" d="M88.71,85.21H67.67c-1.77,0-3.21-1.44-3.21-3.21V66.72c0-1.77,1.44-3.21,3.21-3.21H88.7
				c1.77,0,3.21,1.44,3.21,3.21V82C91.92,83.77,90.48,85.21,88.71,85.21z"/>
			<path class="st2" d="M73.11,79.05v-9.38c0-0.8,0.87-1.31,1.57-0.9l8.08,4.69c0.69,0.4,0.69,1.4,0,1.8l-8.08,4.69
				C73.98,80.36,73.11,79.85,73.11,79.05z"/>
		</g>
		<g>
			<path class="st3" d="M119.28,85.01H98.25c-1.77,0-3.21-1.44-3.21-3.21V66.52c0-1.77,1.44-3.21,3.21-3.21h21.03
				c1.77,0,3.21,1.44,3.21,3.21V81.8C122.49,83.57,121.05,85.01,119.28,85.01z"/>
			<path class="st2" d="M103.68,78.85v-9.38c0-0.8,0.87-1.31,1.57-0.9l8.08,4.69c0.69,0.4,0.69,1.4,0,1.8l-8.08,4.69
				C104.55,80.16,103.68,79.66,103.68,78.85z"/>
		</g>
		<rect x="28.43" y="32.3" class="st6" width="99.32" height="10.71"/>
		
			<linearGradient id="SVGID_2_" gradientUnits="userSpaceOnUse" x1="33.89" y1="94.045" x2="49.98" y2="94.045" gradientTransform="matrix(1 0 0 -1 0 150)">
			<stop  offset="0" style="stop-color:#FFD176"/>
			<stop  offset="0.5839" style="stop-color:#FFDC82"/>
		</linearGradient>
		<rect x="33.89" y="53.47" class="st7" width="16.09" height="4.97"/>
		
			<linearGradient id="SVGID_3_" gradientUnits="userSpaceOnUse" x1="56.19" y1="94.045" x2="72.28" y2="94.045" gradientTransform="matrix(1 0 0 -1 0 150)">
			<stop  offset="0" style="stop-color:#FFD176"/>
			<stop  offset="0.5839" style="stop-color:#FFDC82"/>
		</linearGradient>
		<rect x="56.19" y="53.47" class="st8" width="16.09" height="4.97"/>
		
			<linearGradient id="SVGID_4_" gradientUnits="userSpaceOnUse" x1="100.97" y1="100.79" x2="122.49" y2="100.79" gradientTransform="matrix(1 0 0 -1 0 150)">
			<stop  offset="0" style="stop-color:#FFD176"/>
			<stop  offset="0.5839" style="stop-color:#FFDC82"/>
		</linearGradient>
		<path class="st9" d="M121.97,52.54h-20.48c-0.28,0-0.52-0.23-0.52-0.52V46.4c0-0.28,0.23-0.52,0.52-0.52h20.48
			c0.28,0,0.52,0.23,0.52,0.52v5.62C122.49,52.31,122.26,52.54,121.97,52.54z"/>
		<rect x="30.52" y="58.6" class="st10" width="94.44" height="42.88"/>
		<path class="st2" d="M51.66,101.54l0.02-0.01c0.69-0.4,0.69-1.4,0-1.8l-8.08-4.69c-0.7-0.4-1.57,0.1-1.57,0.9v5.61L51.66,101.54
			L51.66,101.54z"/>
		<path class="st2" d="M82.63,101.54l0.02-0.01c0.69-0.4,0.69-1.4,0-1.8l-8.08-4.69c-0.7-0.4-1.57,0.1-1.57,0.9v5.61L82.63,101.54
			L82.63,101.54z"/>
		<path class="st2" d="M112.86,101.54l0.36-0.21c0.69-0.4,0.69-1.4,0-1.8l-8.08-4.69c-0.7-0.4-1.57,0.1-1.57,0.9v5.8H112.86z"/>
	</g>
</g>
</svg>
