<?xml version="1.0" encoding="utf-8"?>
<!-- Generator: Adobe Illustrator 23.0.3, SVG Export Plug-In . SVG Version: 6.00 Build 0)  -->
<svg version="1.1" id="Слой_1" xmlns="http://www.w3.org/2000/svg" xmlns:xlink="http://www.w3.org/1999/xlink" x="0px" y="0px"
	 viewBox="0 0 150 150" style="enable-background:new 0 0 150 150;" xml:space="preserve">
<style type="text/css">
	.st0{fill:url(#SVGID_1_);}
	.st1{fill:#B5C8D7;}
	.st2{fill:#FFFFFF;}
	.st3{fill:#E5EEF6;}
	.st4{fill:url(#SVGID_2_);}
	.st5{fill:#D4D4D4;}
	.st6{fill:#A7A7A7;}
	.st7{opacity:0.31;fill:#D4D4D4;enable-background:new    ;}
	.st8{opacity:0.31;}
</style>
<g>
	
		<linearGradient id="SVGID_1_" gradientUnits="userSpaceOnUse" x1="-4803.7056" y1="7694.6611" x2="-4803.7056" y2="7831.2617" gradientTransform="matrix(-0.9701 -0.2427 -0.2427 0.9701 -2701.5427 -8616.6152)">
		<stop  offset="0" style="stop-color:#ECFFE6"/>
		<stop  offset="0.6028" style="stop-color:#B2E3A8"/>
	</linearGradient>
	<path class="st0" d="M79.95,115.85c-23.99,9.16-32.17,31.18-60.42,20.55c-22.75-8.56-28.38-57.86-1.97-97.27
		C32.55,16.77,60.04,6.19,86.18,12.62c36.69,9.02,73.28,37.18,61.6,67.3C134.39,114.46,103.94,106.69,79.95,115.85z"/>
	<g>
		<g>
			<g>
				<path class="st1" d="M120.2,107.69H10.58V28.53c0-0.3,0.25-0.55,0.55-0.55h108.53c0.3,0,0.55,0.25,0.55,0.55v79.16H120.2z"/>
			</g>
		</g>
		<g>
			<polygon class="st2" points="115.02,102.47 15.77,102.47 15.9,33.21 115.02,33.21 			"/>
		</g>
		<rect x="4.82" y="102.13" class="st1" width="121.15" height="6.93"/>
		<g>
			<rect x="20.49" y="38.66" class="st3" width="49.29" height="38.96"/>
			<g>
				
					<linearGradient id="SVGID_2_" gradientUnits="userSpaceOnUse" x1="38.937" y1="91.86" x2="51.32" y2="91.86" gradientTransform="matrix(1 0 0 -1 0 150)">
					<stop  offset="0" style="stop-color:#FFD176"/>
					<stop  offset="0.5839" style="stop-color:#FFDC82"/>
				</linearGradient>
				<path class="st4" d="M43.18,61.56c-0.58,0-1.04-0.47-1.04-1.04l0,0c0-0.9,0.19-1.69,0.58-2.36c0.39-0.67,1.09-1.38,2.12-2.13
					c0.99-0.7,1.64-1.28,1.95-1.72c0.31-0.44,0.47-0.94,0.47-1.48c0-0.61-0.23-1.08-0.68-1.39s-1.08-0.48-1.89-0.48
					c-1.02,0-2.14,0.24-3.37,0.73c-0.84,0.33-1.8-0.03-2.2-0.84l0,0c-0.45-0.91-0.04-2.02,0.9-2.4c1.59-0.63,3.25-0.95,4.97-0.95
					c1.94,0,3.48,0.46,4.62,1.39s1.71,2.17,1.71,3.72c0,1.03-0.24,1.93-0.71,2.68c-0.47,0.75-1.36,1.6-2.68,2.54
					c-0.9,0.67-1.47,1.18-1.71,1.52c-0.24,0.35-0.36,0.8-0.36,1.37l0,0c0,0.47-0.38,0.85-0.85,0.85L43.18,61.56L43.18,61.56z
					 M41.69,66.39c0-0.79,0.21-1.39,0.63-1.79c0.42-0.4,1.04-0.61,1.85-0.61c0.78,0,1.38,0.21,1.81,0.62
					c0.43,0.42,0.64,1.01,0.64,1.78c0,0.74-0.22,1.33-0.65,1.75c-0.43,0.43-1.03,0.64-1.8,0.64c-0.79,0-1.4-0.21-1.83-0.63
					C41.91,67.74,41.69,67.15,41.69,66.39z"/>
			</g>
			<path class="st3" d="M27.44,93.65h-5.83c-1.13,0-2.04-0.91-2.04-2.04v-6.53c0-1.13,0.91-2.04,2.04-2.04h5.83
				c1.13,0,2.04,0.91,2.04,2.04v6.53C29.48,92.74,28.57,93.65,27.44,93.65z"/>
			<path class="st5" d="M40.53,93.65H34.7c-1.13,0-2.04-0.91-2.04-2.04v-6.53c0-1.13,0.91-2.04,2.04-2.04h5.83
				c1.13,0,2.04,0.91,2.04,2.04v6.53C42.57,92.74,41.66,93.65,40.53,93.65z"/>
			<path class="st6" d="M53.62,93.65h-5.83c-1.13,0-2.04-0.91-2.04-2.04v-6.53c0-1.13,0.91-2.04,2.04-2.04h5.83
				c1.13,0,2.04,0.91,2.04,2.04v6.53C55.66,92.74,54.74,93.65,53.62,93.65z"/>
			<path class="st5" d="M66.7,93.65h-5.83c-1.13,0-2.04-0.91-2.04-2.04v-6.53c0-1.13,0.91-2.04,2.04-2.04h5.83
				c1.13,0,2.04,0.91,2.04,2.04v6.53C68.75,92.74,67.83,93.65,66.7,93.65z"/>
			<g>
				<rect x="74.52" y="38.66" class="st7" width="35.6" height="5.79"/>
				<rect x="74.52" y="48.37" class="st7" width="35.6" height="5.79"/>
			</g>
			<g class="st8">
				<rect x="74.52" y="58.4" class="st5" width="35.6" height="5.79"/>
				<rect x="74.52" y="68.12" class="st5" width="35.6" height="5.79"/>
			</g>
			<g class="st8">
				<rect x="74.52" y="78.15" class="st5" width="35.6" height="5.79"/>
				<rect x="74.52" y="87.87" class="st5" width="35.6" height="5.79"/>
			</g>
		</g>
	</g>
</g>
</svg>
