<?xml version="1.0" encoding="utf-8"?>
<!-- Generator: Adobe Illustrator 23.0.3, SVG Export Plug-In . SVG Version: 6.00 Build 0)  -->
<svg version="1.1" id="Слой_1" xmlns="http://www.w3.org/2000/svg" xmlns:xlink="http://www.w3.org/1999/xlink" x="0px" y="0px"
	 viewBox="0 0 150 136" style="enable-background:new 0 0 150 136;" xml:space="preserve">
<style type="text/css">
	.st0{fill:url(#SVGID_1_);}
	.st1{fill:#CED9E8;}
	.st2{fill:#91C680;}
	.st3{opacity:0.35;fill:#FFFFFF;enable-background:new    ;}
	.st4{opacity:0.22;fill:#FFFFFF;enable-background:new    ;}
	.st5{fill:#E8EDF5;}
	.st6{fill:#F7C1C0;}
	.st7{opacity:0.51;fill:#CED9E8;enable-background:new    ;}
	.st8{opacity:0.31;fill:#CED9E8;enable-background:new    ;}
	.st9{opacity:0.35;fill:#CED9E8;enable-background:new    ;}
	.st10{fill:#FFFFFF;}
	.st11{fill:#98DBEB;}
</style>
<g>
	
		<linearGradient id="SVGID_1_" gradientUnits="userSpaceOnUse" x1="786.942" y1="339.0893" x2="786.942" y2="478.5998" gradientTransform="matrix(0.9909 0.1346 0.1346 -0.9909 -759.2636 364.43)">
		<stop  offset="0.0542" style="stop-color:#FFFFCF;stop-opacity:0.5"/>
		<stop  offset="0.5125" style="stop-color:#FFCDD1;stop-opacity:0.6"/>
	</linearGradient>
	<path class="st0" d="M65.97,29.55C89.29,17.56,95.12-5.72,124.99,1.91c24.06,6.14,35.3,55.55,12.91,98.52
		c-12.7,24.38-39.42,38.2-66.68,34.61C32.97,130-7.34,105.52,1.14,73.64C10.86,37.07,42.65,41.53,65.97,29.55z"/>
	<path class="st1" d="M50.17,65.08h56.27c5.08,0,9.19-4.12,9.19-9.19V26.11c0-5.08-4.12-9.19-9.19-9.19H50.17
		c-5.08,0-9.19,4.12-9.19,9.19v29.78C40.97,60.97,45.09,65.08,50.17,65.08z"/>
	<path class="st2" d="M66.74,46.96H52.39c-2.12,0-3.83-1.71-3.83-3.83V27.52c0-2.12,1.71-3.83,3.83-3.83h14.35
		c2.12,0,3.83,1.71,3.83,3.83v15.62C70.57,45.25,68.86,46.96,66.74,46.96z"/>
	<path class="st3" d="M78.64,31.35h26.05c2.12,0,3.83-1.71,3.83-3.83l0,0c0-2.12-1.71-3.83-3.83-3.83H78.64
		c-2.12,0-3.83,1.71-3.83,3.83l0,0C74.81,29.63,76.53,31.35,78.64,31.35z"/>
	<path class="st4" d="M79.65,44.85h25.04c2.12,0,3.83-1.71,3.83-3.83l0,0c0-2.12-1.71-3.83-3.83-3.83H79.65
		c-2.12,0-3.83,1.71-3.83,3.83l0,0C75.82,43.14,77.54,44.85,79.65,44.85z"/>
	<path class="st4" d="M79.65,60.79h25.04c2.12,0,3.83-1.71,3.83-3.83l0,0c0-2.12-1.71-3.83-3.83-3.83H79.65
		c-2.12,0-3.83,1.71-3.83,3.83l0,0C75.82,59.08,77.54,60.79,79.65,60.79z"/>
	<g>
		<path class="st5" d="M64.59,106.26h56.27c5.08,0,9.19-4.12,9.19-9.19V67.29c0-5.08-4.12-9.19-9.19-9.19H64.59
			c-5.08,0-9.19,4.12-9.19,9.19v29.78C55.39,102.14,59.51,106.26,64.59,106.26z"/>
		<path class="st5" d="M120.41,103.25l3.13,14.76c0.36,1.7-1.62,2.91-2.96,1.81l-19.73-16.05L120.41,103.25z"/>
		<path class="st6" d="M119.11,88.2h-14.35c-2.12,0-3.83-1.71-3.83-3.83V68.76c0-2.12,1.71-3.83,3.83-3.83h14.35
			c2.12,0,3.83,1.71,3.83,3.83v15.62C122.94,86.49,121.23,88.2,119.11,88.2z"/>
		<path class="st7" d="M65.74,73.73h26.05c2.12,0,3.83-1.71,3.83-3.83l0,0c0-2.12-1.71-3.83-3.83-3.83H65.74
			c-2.12,0-3.83,1.71-3.83,3.83l0,0C61.91,72.01,63.62,73.73,65.74,73.73z"/>
		<path class="st8" d="M67.03,101.05h50.53c2.12,0,3.83-1.71,3.83-3.83l0,0c0-2.12-1.71-3.83-3.83-3.83H67.03
			c-2.12,0-3.83,1.71-3.83,3.83l0,0C63.19,99.33,64.91,101.05,67.03,101.05z"/>
		<path class="st9" d="M66.75,85.8h25.04c2.12,0,3.83-1.71,3.83-3.83l0,0c0-2.12-1.71-3.83-3.83-3.83H66.75
			c-2.12,0-3.83,1.71-3.83,3.83l0,0C62.92,84.08,64.64,85.8,66.75,85.8z"/>
	</g>
	<g>
		<path class="st10" d="M73.04,90.82H16.77c-5.08,0-9.19-4.12-9.19-9.19V51.85c0-5.08,4.12-9.19,9.19-9.19h56.27
			c5.08,0,9.19,4.12,9.19,9.19v29.78C82.23,86.71,78.11,90.82,73.04,90.82z"/>
		<path class="st10" d="M17.97,87.31l-3.18,15.01c-0.34,1.62,1.54,2.77,2.82,1.72l19.93-16.21L17.97,87.31z"/>
		<path class="st11" d="M32.84,72.52H18.49c-2.12,0-3.83-1.71-3.83-3.83V53.07c0-2.12,1.71-3.83,3.83-3.83h14.35
			c2.12,0,3.83,1.71,3.83,3.83v15.62C36.67,70.8,34.96,72.52,32.84,72.52z"/>
		<path class="st7" d="M44.49,57.79h26.05c2.12,0,3.83-1.71,3.83-3.83l0,0c0-2.12-1.71-3.83-3.83-3.83H44.49
			c-2.12,0-3.83,1.71-3.83,3.83l0,0C40.66,56.07,42.37,57.79,44.49,57.79z"/>
		<path class="st8" d="M20.01,85.11h50.53c2.12,0,3.83-1.71,3.83-3.83l0,0c0-2.12-1.71-3.83-3.83-3.83H20.01
			c-2.12,0-3.83,1.71-3.83,3.83l0,0C16.18,83.39,17.9,85.11,20.01,85.11z"/>
		<path class="st9" d="M45.5,69.86h25.04c2.12,0,3.83-1.71,3.83-3.83l0,0c0-2.12-1.71-3.83-3.83-3.83H45.5
			c-2.12,0-3.83,1.71-3.83,3.83l0,0C41.67,68.14,43.38,69.86,45.5,69.86z"/>
	</g>
</g>
</svg>
