<?xml version="1.0" encoding="utf-8"?>
<!-- Generator: Adobe Illustrator 23.1.0, SVG Export Plug-In . SVG Version: 6.00 Build 0)  -->
<svg version="1.1" id="Слой_1" xmlns="http://www.w3.org/2000/svg" xmlns:xlink="http://www.w3.org/1999/xlink" x="0px" y="0px"
	 viewBox="0 0 150 128.48" style="enable-background:new 0 0 150 128.48;" xml:space="preserve">
<style type="text/css">
	.st0{fill:url(#SVGID_1_);}
	.st1{fill:#E5EEF6;}
	.st2{fill:#B7E3EF;}
	.st3{opacity:0.63;fill:#FFFFFF;}
	.st4{fill:#FFFFFF;}
	.st5{fill:#C6E6F2;}
	.st6{opacity:0.67;fill:#FFFFFF;}
	.st7{fill:#D6EAF4;}
	.st8{opacity:0.69;fill:#FFFFFF;}
	.st9{opacity:0.6;fill:#FFFFFF;}
	.st10{fill:#98DBEB;}
	.st11{fill:none;stroke:#FDD960;stroke-width:3;stroke-linecap:round;stroke-miterlimit:10;}
	.st12{fill:none;stroke:#FDD960;stroke-width:3;stroke-linecap:round;stroke-miterlimit:10;stroke-dasharray:5.3048,5.3048;}
	.st13{fill:none;stroke:#FDD960;stroke-width:3;stroke-linecap:round;stroke-miterlimit:10;stroke-dasharray:2.5887,2.5887;}
	.st14{fill:none;stroke:#FDD960;stroke-width:3;stroke-linecap:round;stroke-miterlimit:10;stroke-dasharray:5.2681,5.2681;}
	.st15{fill:none;stroke:#FDD960;stroke-width:3;stroke-linecap:round;stroke-miterlimit:10;stroke-dasharray:4.7299,4.7299;}
	.st16{fill:none;stroke:#FDD960;stroke-width:3;stroke-linecap:round;stroke-miterlimit:10;stroke-dasharray:5.4,5.4;}
	.st17{fill:none;stroke:#FDD960;stroke-width:3;stroke-linecap:round;stroke-miterlimit:10;stroke-dasharray:3.7479,3.7479;}
	.st18{fill:none;stroke:#FDD960;stroke-width:3;stroke-linecap:round;stroke-miterlimit:10;stroke-dasharray:4.9916,4.9916;}
</style>
<g>
	<linearGradient id="SVGID_1_" gradientUnits="userSpaceOnUse" x1="0" y1="64.2387" x2="150" y2="64.2387">
		<stop  offset="0" style="stop-color:#FFF19F"/>
		<stop  offset="0.5839" style="stop-color:#FFFFAD"/>
	</linearGradient>
	<path class="st0" d="M79.95,105.09c-23.99,9.16-32.17,31.18-60.42,20.55c-22.75-8.56-28.38-57.86-1.97-97.27
		C32.55,6,60.04-4.57,86.18,1.86c36.69,9.02,73.28,37.18,61.6,67.3C134.39,103.7,103.94,95.93,79.95,105.09z"/>
	<rect x="16.94" y="60.67" class="st1" width="20.91" height="35.97"/>
	<g>
		<rect x="111.4" y="16.67" class="st2" width="20.91" height="78.29"/>
		<path class="st3" d="M122.46,21.93l1.17,2.37c0.1,0.2,0.28,0.33,0.5,0.36l2.61,0.38c0.54,0.08,0.76,0.75,0.37,1.13l-1.89,1.84
			c-0.16,0.15-0.23,0.37-0.19,0.59l0.45,2.6c0.09,0.54-0.48,0.95-0.96,0.7l-2.34-1.23c-0.19-0.1-0.42-0.1-0.62,0l-2.34,1.23
			c-0.49,0.26-1.05-0.16-0.96-0.7l0.45-2.6c0.04-0.21-0.03-0.43-0.19-0.59l-1.89-1.84c-0.39-0.38-0.18-1.05,0.37-1.13l2.61-0.38
			c0.22-0.03,0.4-0.17,0.5-0.36l1.17-2.37C121.51,21.44,122.21,21.44,122.46,21.93z"/>
		<path class="st3" d="M122.46,37.25l1.17,2.37c0.1,0.2,0.28,0.33,0.5,0.36l2.61,0.38c0.54,0.08,0.76,0.75,0.37,1.13l-1.89,1.84
			c-0.16,0.15-0.23,0.37-0.19,0.59l0.45,2.6c0.09,0.54-0.48,0.95-0.96,0.7l-2.34-1.23c-0.19-0.1-0.42-0.1-0.62,0l-2.34,1.23
			c-0.49,0.26-1.05-0.16-0.96-0.7l0.45-2.6c0.04-0.21-0.03-0.43-0.19-0.59l-1.89-1.84c-0.39-0.38-0.18-1.05,0.37-1.13l2.61-0.38
			c0.22-0.03,0.4-0.17,0.5-0.36l1.17-2.37C121.51,36.76,122.21,36.76,122.46,37.25z"/>
		<path class="st4" d="M122.46,52.71l1.17,2.37c0.1,0.2,0.28,0.33,0.5,0.36l2.61,0.38c0.54,0.08,0.76,0.75,0.37,1.13l-1.89,1.84
			c-0.16,0.15-0.23,0.37-0.19,0.59l0.45,2.6c0.09,0.54-0.48,0.95-0.96,0.7l-2.34-1.23c-0.19-0.1-0.42-0.1-0.62,0l-2.34,1.23
			c-0.49,0.26-1.05-0.16-0.96-0.7l0.45-2.6c0.04-0.21-0.03-0.43-0.19-0.59l-1.89-1.84c-0.39-0.38-0.18-1.05,0.37-1.13l2.61-0.38
			c0.22-0.03,0.4-0.17,0.5-0.36l1.17-2.37C121.51,52.22,122.21,52.22,122.46,52.71z"/>
		<path class="st4" d="M122.46,80.92l1.17,2.37c0.1,0.2,0.28,0.33,0.5,0.36l2.61,0.38c0.54,0.08,0.76,0.75,0.37,1.13L125.21,87
			c-0.16,0.15-0.23,0.37-0.19,0.59l0.45,2.6c0.09,0.54-0.48,0.95-0.96,0.7l-2.34-1.23c-0.19-0.1-0.42-0.1-0.62,0l-2.34,1.23
			c-0.49,0.26-1.05-0.16-0.96-0.7l0.45-2.6c0.04-0.21-0.03-0.43-0.19-0.59l-1.89-1.84c-0.39-0.38-0.18-1.05,0.37-1.13l2.61-0.38
			c0.22-0.03,0.4-0.17,0.5-0.36l1.17-2.37C121.51,80.43,122.21,80.43,122.46,80.92z"/>
		<path class="st4" d="M122.46,67.03l1.17,2.37c0.1,0.2,0.28,0.33,0.5,0.36l2.61,0.38c0.54,0.08,0.76,0.75,0.37,1.13l-1.89,1.84
			c-0.16,0.15-0.23,0.37-0.19,0.59l0.45,2.6c0.09,0.54-0.48,0.95-0.96,0.7l-2.34-1.23c-0.19-0.1-0.42-0.1-0.62,0L119.22,77
			c-0.49,0.26-1.05-0.16-0.96-0.7l0.45-2.6c0.04-0.21-0.03-0.43-0.19-0.59l-1.89-1.84c-0.39-0.38-0.18-1.05,0.37-1.13l2.61-0.38
			c0.22-0.03,0.4-0.17,0.5-0.36l1.17-2.37C121.51,66.54,122.21,66.54,122.46,67.03z"/>
	</g>
	<g>
		<rect x="80.28" y="33.09" class="st5" width="20.91" height="61.86"/>
		<path class="st6" d="M91.33,37.25l1.17,2.37c0.1,0.2,0.28,0.33,0.5,0.36l2.61,0.38c0.54,0.08,0.76,0.75,0.37,1.13l-1.89,1.84
			c-0.16,0.15-0.23,0.37-0.19,0.59l0.45,2.6c0.09,0.54-0.48,0.95-0.96,0.7l-2.34-1.23c-0.19-0.1-0.42-0.1-0.62,0l-2.34,1.23
			c-0.49,0.26-1.05-0.16-0.96-0.7l0.45-2.6c0.04-0.21-0.03-0.43-0.19-0.59l-1.89-1.84c-0.39-0.38-0.18-1.05,0.37-1.13l2.61-0.38
			c0.22-0.03,0.4-0.17,0.5-0.36l1.17-2.37C90.38,36.76,91.08,36.76,91.33,37.25z"/>
		<path class="st6" d="M91.33,52.71l1.17,2.37c0.1,0.2,0.28,0.33,0.5,0.36l2.61,0.38c0.54,0.08,0.76,0.75,0.37,1.13l-1.89,1.84
			c-0.16,0.15-0.23,0.37-0.19,0.59l0.45,2.6c0.09,0.54-0.48,0.95-0.96,0.7l-2.34-1.23c-0.19-0.1-0.42-0.1-0.62,0l-2.34,1.23
			c-0.49,0.26-1.05-0.16-0.96-0.7l0.45-2.6c0.04-0.21-0.03-0.43-0.19-0.59l-1.89-1.84c-0.39-0.38-0.18-1.05,0.37-1.13l2.61-0.38
			c0.22-0.03,0.4-0.17,0.5-0.36l1.17-2.37C90.38,52.22,91.08,52.22,91.33,52.71z"/>
		<path class="st4" d="M91.33,80.92l1.17,2.37c0.1,0.2,0.28,0.33,0.5,0.36l2.61,0.38c0.54,0.08,0.76,0.75,0.37,1.13L94.08,87
			c-0.16,0.15-0.23,0.37-0.19,0.59l0.45,2.6c0.09,0.54-0.48,0.95-0.96,0.7l-2.34-1.23c-0.19-0.1-0.42-0.1-0.62,0l-2.34,1.23
			c-0.49,0.26-1.05-0.16-0.96-0.7l0.45-2.6c0.04-0.21-0.03-0.43-0.19-0.59l-1.89-1.84c-0.39-0.38-0.18-1.05,0.37-1.13l2.61-0.38
			c0.22-0.03,0.4-0.17,0.5-0.36l1.17-2.37C90.38,80.43,91.08,80.43,91.33,80.92z"/>
		<path class="st6" d="M91.33,67.03l1.17,2.37c0.1,0.2,0.28,0.33,0.5,0.36l2.61,0.38c0.54,0.08,0.76,0.75,0.37,1.13l-1.89,1.84
			c-0.16,0.15-0.23,0.37-0.19,0.59l0.45,2.6c0.09,0.54-0.48,0.95-0.96,0.7l-2.34-1.23c-0.19-0.1-0.42-0.1-0.62,0L88.09,77
			c-0.49,0.26-1.05-0.16-0.96-0.7l0.45-2.6c0.04-0.21-0.03-0.43-0.19-0.59l-1.89-1.84c-0.39-0.38-0.18-1.05,0.37-1.13l2.61-0.38
			c0.22-0.03,0.4-0.17,0.5-0.36l1.17-2.37C90.38,66.54,91.08,66.54,91.33,67.03z"/>
	</g>
	<g>
		<rect x="48.28" y="48.24" class="st7" width="20.91" height="46.71"/>
		<path class="st8" d="M59.33,52.71l1.17,2.37c0.1,0.2,0.28,0.33,0.5,0.36l2.61,0.38c0.54,0.08,0.76,0.75,0.37,1.13l-1.89,1.84
			c-0.16,0.15-0.23,0.37-0.19,0.59l0.45,2.6c0.09,0.54-0.48,0.95-0.96,0.7l-2.34-1.23c-0.19-0.1-0.42-0.1-0.62,0l-2.34,1.23
			c-0.49,0.26-1.05-0.16-0.96-0.7l0.45-2.6c0.04-0.21-0.03-0.43-0.19-0.59l-1.89-1.84c-0.39-0.38-0.18-1.05,0.37-1.13l2.61-0.38
			c0.22-0.03,0.4-0.17,0.5-0.36l1.17-2.37C58.38,52.22,59.08,52.22,59.33,52.71z"/>
		<path class="st4" d="M59.33,80.92l1.17,2.37c0.1,0.2,0.28,0.33,0.5,0.36l2.61,0.38c0.54,0.08,0.76,0.75,0.37,1.13L62.08,87
			c-0.16,0.15-0.23,0.37-0.19,0.59l0.45,2.6c0.09,0.54-0.48,0.95-0.96,0.7l-2.34-1.23c-0.19-0.1-0.42-0.1-0.62,0l-2.34,1.23
			c-0.49,0.26-1.05-0.16-0.96-0.7l0.45-2.6c0.04-0.21-0.03-0.43-0.19-0.59l-1.89-1.84c-0.39-0.38-0.18-1.05,0.37-1.13l2.61-0.38
			c0.22-0.03,0.4-0.17,0.5-0.36l1.17-2.37C58.38,80.43,59.08,80.43,59.33,80.92z"/>
		<path class="st8" d="M59.33,67.03l1.17,2.37c0.1,0.2,0.28,0.33,0.5,0.36l2.61,0.38c0.54,0.08,0.76,0.75,0.37,1.13l-1.89,1.84
			c-0.16,0.15-0.23,0.37-0.19,0.59l0.45,2.6c0.09,0.54-0.48,0.95-0.96,0.7l-2.34-1.23c-0.19-0.1-0.42-0.1-0.62,0L56.09,77
			c-0.49,0.26-1.05-0.16-0.96-0.7l0.45-2.6c0.04-0.21-0.03-0.43-0.19-0.59l-1.89-1.84c-0.39-0.38-0.18-1.05,0.37-1.13l2.61-0.38
			c0.22-0.03,0.4-0.17,0.5-0.36l1.17-2.37C58.38,66.54,59.08,66.54,59.33,67.03z"/>
	</g>
	<path class="st9" d="M27.99,67.03l1.17,2.37c0.1,0.2,0.28,0.33,0.5,0.36l2.61,0.38c0.54,0.08,0.76,0.75,0.37,1.13l-1.89,1.84
		c-0.16,0.15-0.23,0.37-0.19,0.59L31,76.3c0.09,0.54-0.48,0.95-0.96,0.7l-2.34-1.23c-0.19-0.1-0.42-0.1-0.62,0L24.75,77
		c-0.49,0.26-1.05-0.16-0.96-0.7l0.45-2.6c0.04-0.21-0.03-0.43-0.19-0.59l-1.89-1.84c-0.39-0.38-0.18-1.05,0.37-1.13l2.61-0.38
		c0.22-0.03,0.4-0.17,0.5-0.36l1.17-2.37C27.04,66.54,27.74,66.54,27.99,67.03z"/>
	<path class="st4" d="M27.99,80.92l1.17,2.37c0.1,0.2,0.28,0.33,0.5,0.36l2.61,0.38c0.54,0.08,0.76,0.75,0.37,1.13L30.74,87
		c-0.16,0.15-0.23,0.37-0.19,0.59l0.45,2.6c0.09,0.54-0.48,0.95-0.96,0.7l-2.34-1.23c-0.19-0.1-0.42-0.1-0.62,0l-2.34,1.23
		c-0.49,0.26-1.05-0.16-0.96-0.7l0.45-2.6c0.04-0.21-0.03-0.43-0.19-0.59l-1.89-1.84c-0.39-0.38-0.18-1.05,0.37-1.13l2.61-0.38
		c0.22-0.03,0.4-0.17,0.5-0.36l1.17-2.37C27.04,80.43,27.74,80.43,27.99,80.92z"/>
	<path class="st10" d="M134.8,98.94H14.26c-1.54,0-2.79-1.25-2.79-2.79v0c0-1.54,1.25-2.79,2.79-2.79H134.8
		c1.54,0,2.79,1.25,2.79,2.79v0C137.6,97.69,136.35,98.94,134.8,98.94z"/>
	<g>
		<g>
			<line class="st11" x1="16.94" y1="53.52" x2="19.44" y2="53.52"/>
			<line class="st12" x1="24.74" y1="53.52" x2="32.7" y2="53.52"/>
			<polyline class="st11" points="35.35,53.52 37.85,53.52 37.85,51.02 			"/>
			<line class="st13" x1="37.85" y1="48.43" x2="37.85" y2="44.55"/>
			<polyline class="st11" points="37.85,43.25 37.85,40.75 40.35,40.75 			"/>
			<line class="st14" x1="45.62" y1="40.75" x2="64.06" y2="40.75"/>
			<polyline class="st11" points="66.69,40.75 69.19,40.75 69.19,38.25 			"/>
			<line class="st15" x1="69.19" y1="33.52" x2="69.19" y2="26.43"/>
			<polyline class="st11" points="69.19,24.06 69.19,21.56 71.69,21.56 			"/>
			<line class="st16" x1="77.09" y1="21.56" x2="95.99" y2="21.56"/>
			<polyline class="st11" points="98.69,21.56 101.19,21.56 101.19,19.06 			"/>
			<line class="st17" x1="101.19" y1="15.31" x2="101.19" y2="9.69"/>
			<polyline class="st11" points="101.19,7.82 101.19,5.32 103.69,5.32 			"/>
			<line class="st18" x1="108.68" y1="5.32" x2="126.15" y2="5.32"/>
			<line class="st11" x1="128.65" y1="5.32" x2="131.15" y2="5.32"/>
		</g>
	</g>
</g>
</svg>
