<?xml version="1.0" encoding="utf-8"?>
<!-- Generator: Adobe Illustrator 23.0.3, SVG Export Plug-In . SVG Version: 6.00 Build 0)  -->
<svg version="1.1" id="Слой_1" xmlns="http://www.w3.org/2000/svg" xmlns:xlink="http://www.w3.org/1999/xlink" x="0px" y="0px"
	 viewBox="0 0 150 142" style="enable-background:new 0 0 150 142;" xml:space="preserve">
<style type="text/css">
	.st0{fill:url(#SVGID_1_);}
	.st1{fill:#F1F1F1;}
	.st2{fill:#FFFFFF;}
	.st3{fill:#FFEC9B;}
	.st4{fill:#61CCDC;}
	.st5{fill:#B2E3A8;}
	.st6{fill:#F7C1C0;}
	.st7{fill:#FDD960;}
	.st8{fill:#A8D895;}
	.st9{fill:#FCC100;}
	.st10{fill:#9ED38F;}
	.st11{fill:#80D6E5;}
	.st12{fill:#98DBEB;}
	.st13{opacity:0.31;}
	.st14{opacity:0.14;}
	.st15{fill:#EEBA6E;}
	.st16{fill:#EAAE5E;}
</style>
<g>
	
		<linearGradient id="SVGID_1_" gradientUnits="userSpaceOnUse" x1="-10968.7871" y1="-6062.9067" x2="-10968.7871" y2="-5920.3857" gradientTransform="matrix(-0.2219 0.9751 -0.9751 -0.2219 -8197.5566 9434.9111)">
		<stop  offset="4.166280e-03" style="stop-color:#FFFFFF"/>
		<stop  offset="0.6028" style="stop-color:#E5EEF6"/>
	</linearGradient>
	<path class="st0" d="M47.75,46.74C27.92,64.75,3.56,61.98,0.13,93.29c-2.76,25.22,40.48,53.69,89.61,47.69
		c27.88-3.41,50.69-24.01,57.03-51.38c8.9-38.4-0.05-85.74-33.6-89.07C74.71-3.28,67.58,28.73,47.75,46.74z"/>
	<g>
		<g>
			<polygon class="st1" points="131.37,96.35 23.01,96.35 23.16,24.65 131.37,24.65 			"/>
		</g>
		<path class="st2" d="M60.48,31.51H40.3c-0.78,0-1.4-0.63-1.4-1.4v-3.82c0-0.78,0.63-1.4,1.4-1.4h20.18c0.78,0,1.4,0.63,1.4,1.4
			v3.82C61.88,30.88,61.25,31.51,60.48,31.51z"/>
		<g>
			<polygon class="st2" points="131.37,101.46 23.01,101.46 23.16,29.75 131.37,29.75 			"/>
		</g>
		<g>
			<polygon class="st3" points="131.37,113.56 23.01,113.56 23.16,37.94 131.37,37.94 			"/>
		</g>
		<path class="st1" d="M117.24,34.68H40.13c-0.78,0-1.4-0.63-1.4-1.4v-0.17c0-0.78,0.63-1.4,1.4-1.4h77.11c0.78,0,1.4,0.63,1.4,1.4
			v0.17C118.65,34.06,118.02,34.68,117.24,34.68z"/>
		<circle class="st1" cx="124.29" cy="33.34" r="2.23"/>
		<circle class="st4" cx="26.65" cy="27.25" r="1.32"/>
		<circle class="st5" cx="31.17" cy="27.2" r="1.32"/>
		<circle class="st6" cx="35.63" cy="27.15" r="1.32"/>
	</g>
	<g>
		<g>
			<path class="st7" d="M66.26,79.23H45.13c-3.48,0-6.3-2.82-6.3-6.3v-0.08h33.73v0.08C72.56,76.41,69.74,79.23,66.26,79.23z"/>
			<path class="st8" d="M69.41,69.92H41.98c-1.74,0-3.15,1.41-3.15,3.15v0.04h33.73v-0.04C72.56,71.33,71.15,69.92,69.41,69.92z"/>
		</g>
		<path class="st8" d="M43.74,72.29h0.03c0.63,0,1.14-0.51,1.14-1.14v-3.41c0-0.63-0.51-1.14-1.14-1.14h-0.03
			c-0.63,0-1.14,0.51-1.14,1.14v3.41C42.6,71.78,43.11,72.29,43.74,72.29z"/>
		<path class="st8" d="M46.39,72.53h0.03c0.63,0,1.14-0.51,1.14-1.14v-2.14c0-0.63-0.51-1.14-1.14-1.14h-0.03
			c-0.63,0-1.14,0.51-1.14,1.14v2.14C45.25,72.02,45.76,72.53,46.39,72.53z"/>
	</g>
	<g>
		<g>
			<path class="st9" d="M105.2,65.38H84.07c-3.48,0-6.3-2.82-6.3-6.3v-0.07h33.73v0.08C111.5,62.56,108.68,65.38,105.2,65.38z"/>
			<path class="st10" d="M108.35,56.07H80.92c-1.74,0-3.15,1.41-3.15,3.15v0.04h33.73v-0.04C111.5,57.48,110.09,56.07,108.35,56.07z
				"/>
		</g>
		<path class="st10" d="M104.16,57.58h0.03c0.63,0,1.14-0.51,1.14-1.14v-3.41c0-0.63-0.51-1.14-1.14-1.14h-0.03
			c-0.63,0-1.14,0.51-1.14,1.14v3.41C103.01,57.06,103.53,57.58,104.16,57.58z"/>
		<path class="st10" d="M106.81,57.81h0.03c0.63,0,1.14-0.51,1.14-1.14v-2.14c0-0.63-0.51-1.14-1.14-1.14h-0.03
			c-0.63,0-1.14,0.51-1.14,1.14v2.14C105.66,57.3,106.17,57.81,106.81,57.81z"/>
	</g>
	<rect x="22.94" y="102.21" class="st11" width="108.43" height="11.36"/>
	<path class="st12" d="M122.38,93.3H31.99c-4.91,0-8.89,3.98-8.89,8.89v0.11h108.17v-0.11C131.27,97.28,127.29,93.3,122.38,93.3z"/>
	<g class="st13">
		<path class="st2" d="M40.38,100.65h-3.24c-1.69,0-3.06-1.37-3.06-3.06v-0.08c0-1.69,1.37-3.06,3.06-3.06h3.24
			c1.69,0,3.06,1.37,3.06,3.06v0.08C43.44,99.28,42.07,100.65,40.38,100.65z"/>
	</g>
	<g class="st14">
		<path class="st2" d="M59.1,100.65h-3.24c-1.69,0-3.06-1.37-3.06-3.06v-0.08c0-1.69,1.37-3.06,3.06-3.06h3.24
			c1.69,0,3.06,1.37,3.06,3.06v0.08C62.16,99.28,60.79,100.65,59.1,100.65z"/>
	</g>
	<g class="st14">
		<path class="st2" d="M66.66,100.65h-0.53c-0.71,0-1.29-0.58-1.29-1.29v-3.62c0-0.71,0.58-1.29,1.29-1.29h0.53
			c0.71,0,1.29,0.58,1.29,1.29v3.62C67.94,100.07,67.37,100.65,66.66,100.65z"/>
	</g>
	<g class="st14">
		<path class="st2" d="M103.67,100.65h-0.53c-0.71,0-1.29-0.58-1.29-1.29v-3.62c0-0.71,0.58-1.29,1.29-1.29h0.53
			c0.71,0,1.29,0.58,1.29,1.29v3.62C104.96,100.07,104.38,100.65,103.67,100.65z"/>
	</g>
	<g class="st14">
		<path class="st2" d="M96.28,100.65h-0.53c-0.71,0-1.29-0.58-1.29-1.29v-3.62c0-0.71,0.58-1.29,1.29-1.29h0.53
			c0.71,0,1.29,0.58,1.29,1.29v3.62C97.57,100.07,96.99,100.65,96.28,100.65z"/>
	</g>
	<path class="st15" d="M56.8,92.06h-0.03c-0.61,0-1.1-0.49-1.1-1.1V70.32c0-0.61,0.49-1.1,1.1-1.1h0.03c0.61,0,1.1,0.49,1.1,1.1
		v20.63C57.91,91.57,57.41,92.06,56.8,92.06z"/>
	<path class="st15" d="M64.54,92.06h-0.03c-0.61,0-1.1-0.49-1.1-1.1V70.32c0-0.61,0.49-1.1,1.1-1.1h0.03c0.61,0,1.1,0.49,1.1,1.1
		v20.63C65.65,91.57,65.15,92.06,64.54,92.06z"/>
	<path class="st16" d="M64.3,73.27h-7.1c-0.46,0-0.83-0.37-0.83-0.83v-0.02c0-0.46,0.37-0.83,0.83-0.83h7.1
		c0.46,0,0.83,0.37,0.83,0.83v0.02C65.13,72.9,64.76,73.27,64.3,73.27z"/>
	<path class="st16" d="M64.3,77.43h-7.1c-0.46,0-0.83-0.37-0.83-0.83v-0.02c0-0.46,0.37-0.83,0.83-0.83h7.1
		c0.46,0,0.83,0.37,0.83,0.83v0.02C65.13,77.06,64.76,77.43,64.3,77.43z"/>
	<path class="st16" d="M64.3,81.9h-7.1c-0.46,0-0.83-0.37-0.83-0.83v-0.02c0-0.46,0.37-0.83,0.83-0.83h7.1
		c0.46,0,0.83,0.37,0.83,0.83v0.02C65.13,81.53,64.76,81.9,64.3,81.9z"/>
	<path class="st16" d="M64.3,86.06h-7.1c-0.46,0-0.83-0.37-0.83-0.83v-0.02c0-0.46,0.37-0.83,0.83-0.83h7.1
		c0.46,0,0.83,0.37,0.83,0.83v0.02C65.13,85.69,64.76,86.06,64.3,86.06z"/>
	<path class="st16" d="M64.3,90.34h-7.1c-0.46,0-0.83-0.37-0.83-0.83v-0.02c0-0.46,0.37-0.83,0.83-0.83h7.1
		c0.46,0,0.83,0.37,0.83,0.83v0.02C65.13,89.97,64.76,90.34,64.3,90.34z"/>
	<path class="st2" d="M84.87,73.1l1.17,2.37c0.1,0.2,0.28,0.33,0.5,0.36l2.61,0.38c0.54,0.08,0.76,0.75,0.37,1.13l-1.89,1.84
		c-0.16,0.15-0.23,0.37-0.19,0.59l0.45,2.6c0.09,0.54-0.48,0.95-0.96,0.7l-2.34-1.23c-0.19-0.1-0.42-0.1-0.62,0l-2.34,1.23
		c-0.49,0.26-1.05-0.16-0.96-0.7l0.45-2.6c0.04-0.21-0.03-0.43-0.19-0.59l-1.89-1.84c-0.39-0.38-0.18-1.05,0.37-1.13l2.6-0.38
		c0.22-0.03,0.4-0.17,0.5-0.36l1.17-2.37C83.92,72.6,84.62,72.6,84.87,73.1z"/>
	<path class="st2" d="M99.43,73.1l1.17,2.37c0.1,0.2,0.28,0.33,0.5,0.36l2.61,0.38c0.54,0.08,0.76,0.75,0.37,1.13l-1.89,1.84
		c-0.16,0.15-0.23,0.37-0.19,0.59l0.45,2.6c0.09,0.54-0.48,0.95-0.96,0.7l-2.34-1.23c-0.19-0.1-0.42-0.1-0.62,0l-2.34,1.23
		c-0.49,0.26-1.05-0.16-0.96-0.7l0.45-2.6c0.04-0.21-0.03-0.43-0.19-0.59l-1.89-1.84c-0.39-0.38-0.18-1.05,0.37-1.13l2.61-0.38
		c0.22-0.03,0.4-0.17,0.5-0.36l1.17-2.37C98.49,72.6,99.19,72.6,99.43,73.1z"/>
	<path class="st7" d="M94.61,42.73l0.86,1.74c0.07,0.14,0.21,0.24,0.37,0.27l1.92,0.28c0.4,0.06,0.56,0.55,0.27,0.83l-1.39,1.35
		c-0.11,0.11-0.17,0.27-0.14,0.43l0.33,1.91c0.07,0.4-0.35,0.7-0.71,0.51l-1.72-0.9c-0.14-0.07-0.31-0.07-0.45,0l-1.72,0.9
		c-0.36,0.19-0.78-0.12-0.71-0.51l0.33-1.91c0.03-0.16-0.03-0.32-0.14-0.43l-1.39-1.35c-0.29-0.28-0.13-0.77,0.27-0.83l1.92-0.28
		c0.16-0.02,0.3-0.12,0.37-0.27l0.86-1.74C93.91,42.37,94.43,42.37,94.61,42.73z"/>
	<path class="st7" d="M85.27,42.73l0.86,1.74c0.07,0.14,0.21,0.24,0.37,0.27l1.92,0.28c0.4,0.06,0.56,0.55,0.27,0.83L87.3,47.2
		c-0.11,0.11-0.17,0.27-0.14,0.43l0.33,1.91c0.07,0.4-0.35,0.7-0.71,0.51l-1.72-0.9c-0.14-0.07-0.31-0.07-0.45,0l-1.72,0.9
		c-0.36,0.19-0.78-0.12-0.71-0.51l0.33-1.91c0.03-0.16-0.03-0.32-0.14-0.43l-1.39-1.35c-0.29-0.28-0.13-0.77,0.27-0.83l1.92-0.28
		c0.16-0.02,0.3-0.12,0.37-0.27l0.86-1.74C84.57,42.37,85.09,42.37,85.27,42.73z"/>
	<path class="st7" d="M75.99,42.73l0.86,1.74c0.07,0.14,0.21,0.24,0.37,0.27l1.92,0.28c0.4,0.06,0.56,0.55,0.27,0.83l-1.4,1.35
		c-0.11,0.11-0.17,0.27-0.14,0.43l0.33,1.91c0.07,0.4-0.35,0.7-0.71,0.51l-1.72-0.9c-0.14-0.07-0.31-0.07-0.45,0l-1.72,0.9
		c-0.36,0.19-0.78-0.12-0.71-0.51l0.33-1.91c0.03-0.16-0.03-0.32-0.14-0.43l-1.39-1.35c-0.29-0.28-0.13-0.77,0.27-0.83l1.92-0.28
		c0.16-0.02,0.3-0.12,0.37-0.27l0.86-1.74C75.29,42.37,75.81,42.37,75.99,42.73z"/>
	<path class="st9" d="M61.53,53.56l1.17,2.37c0.1,0.2,0.28,0.33,0.5,0.36l2.61,0.38c0.54,0.08,0.76,0.75,0.37,1.13l-1.89,1.84
		c-0.16,0.15-0.23,0.37-0.19,0.59l0.45,2.6c0.09,0.54-0.48,0.95-0.96,0.7l-2.34-1.23c-0.19-0.1-0.42-0.1-0.62,0l-2.34,1.23
		c-0.49,0.26-1.05-0.16-0.96-0.7l0.45-2.6c0.04-0.21-0.03-0.43-0.19-0.59L55.7,57.8c-0.39-0.38-0.18-1.05,0.37-1.13l2.61-0.38
		c0.22-0.03,0.4-0.17,0.5-0.36l1.17-2.37C60.58,53.07,61.29,53.07,61.53,53.56z"/>
</g>
</svg>
