<?xml version="1.0" encoding="utf-8"?>
<!-- Generator: Adobe Illustrator 23.0.3, SVG Export Plug-In . SVG Version: 6.00 Build 0)  -->
<svg version="1.1" id="Слой_1" xmlns="http://www.w3.org/2000/svg" xmlns:xlink="http://www.w3.org/1999/xlink" x="0px" y="0px"
	 viewBox="0 0 150 129" style="enable-background:new 0 0 150 129;" xml:space="preserve">
<style type="text/css">
	.st0{fill:url(#SVGID_1_);}
	.st1{fill:#98DBEB;}
	.st2{fill:#E8EDF5;}
	.st3{fill:#F6F9FF;}
	.st4{fill:#FFFFFF;}
	.st5{fill:#F1F3F8;}
	.st6{fill:#FFEECB;}
	.st7{opacity:0.39;fill:#98DBEB;enable-background:new    ;}
	.st8{opacity:0.18;fill:#98DBEB;enable-background:new    ;}
	.st9{opacity:0.11;fill:#98DBEB;enable-background:new    ;}
	.st10{opacity:0.31;fill:#98DBEB;enable-background:new    ;}
	.st11{opacity:0.25;fill:#98DBEB;enable-background:new    ;}
	.st12{opacity:0.65;fill:#98DBEB;enable-background:new    ;}
	.st13{fill:#FFE376;}
	.st14{fill:#91C680;}
</style>
<g>
	
		<linearGradient id="SVGID_1_" gradientUnits="userSpaceOnUse" x1="-4803.7085" y1="7684.1626" x2="-4803.7085" y2="7820.7632" gradientTransform="matrix(-0.9701 -0.2427 -0.2427 0.9701 -2704.0911 -8616.9297)">
		<stop  offset="0" style="stop-color:#ECFFE6"/>
		<stop  offset="0.6028" style="stop-color:#B2E3A8"/>
	</linearGradient>
	<path class="st0" d="M79.95,105.35c-23.99,9.16-32.17,31.18-60.42,20.55c-22.75-8.56-28.38-57.86-1.97-97.27
		C32.55,6.27,60.04-4.31,86.18,2.12c36.69,9.02,73.28,37.18,61.6,67.3C134.39,103.96,103.94,96.19,79.95,105.35z"/>
	<g>
		<path class="st1" d="M13.02,94.49l103.75-2.05c1.49-0.03,2.68-1.26,2.65-2.75l-1.24-62.89c-0.03-1.49-1.26-2.68-2.75-2.65
			L11.67,26.2c-1.49,0.03-2.68,1.26-2.65,2.75l1.24,62.89C10.3,93.34,11.53,94.52,13.02,94.49z"/>
		<path class="st2" d="M16.32,91.06l96.04-1.9c1.31-0.03,2.35-1.11,2.33-2.42l-1.12-56.72c-0.03-1.31-1.11-2.35-2.42-2.33
			l-96.04,1.9c-1.31,0.03-2.35,1.11-2.33,2.42l1.12,56.72C13.92,90.04,15.01,91.08,16.32,91.06z"/>
		<path class="st3" d="M107.07,27.78L65.29,28.6l1.21,61.47l41.78-0.82c1.23-0.02,2.21-1.14,2.18-2.49l-1.12-56.58
			C109.32,28.82,108.3,27.75,107.07,27.78z"/>
		<path class="st4" d="M102.77,27.86L65.29,28.6l1.21,61.47l37.48-0.74c1.1-0.02,1.98-1.13,1.95-2.48l-1.12-56.58
			C104.79,28.91,103.87,27.84,102.77,27.86z"/>
		<path class="st5" d="M19.51,29.54l41.78-0.82l1.21,61.47l-41.78,0.82c-1.23,0.02-2.25-1.05-2.28-2.4l-1.12-56.58
			C17.31,30.67,18.28,29.56,19.51,29.54z"/>
		<path class="st3" d="M23.82,29.45l37.48-0.74l1.21,61.47l-37.48,0.74c-1.1,0.02-2.02-1.05-2.05-2.4l-1.12-56.58
			C21.84,30.58,22.71,29.47,23.82,29.45z"/>
		<path class="st4" d="M29.18,29.35l32.27-0.64l1.21,61.47l-32.27,0.64c-0.95,0.02-1.74-1.06-1.77-2.41L27.5,31.82
			C27.48,30.47,28.23,29.36,29.18,29.35z"/>
		<path class="st6" d="M85.92,39.53l-15.74,0.31c-1.08,0.02-1.98-0.84-2-1.92l-0.01-0.41c-0.02-1.08,0.84-1.98,1.92-2l15.74-0.31
			c1.08-0.02,1.98,0.84,2,1.92l0.01,0.41C87.87,38.62,87,39.51,85.92,39.53z"/>
		<path class="st7" d="M87.2,46.25L69.69,46.6c-0.74,0.01-1.35-0.57-1.37-1.31v-0.08c-0.01-0.74,0.57-1.35,1.31-1.37l17.51-0.35
			c0.74-0.01,1.35,0.57,1.37,1.31v0.08C88.53,45.63,87.94,46.24,87.2,46.25z"/>
		<path class="st8" d="M87.31,51.81L69.8,52.16c-0.74,0.01-1.35-0.57-1.37-1.31v-0.08c-0.01-0.74,0.57-1.35,1.31-1.37l17.51-0.35
			c0.74-0.01,1.35,0.57,1.37,1.31v0.08C88.64,51.19,88.05,51.8,87.31,51.81z"/>
		<path class="st7" d="M93.67,57.68l-23.75,0.47c-0.74,0.01-1.35-0.57-1.37-1.31v-0.08c-0.01-0.74,0.57-1.35,1.31-1.37l23.75-0.47
			c0.74-0.01,1.35,0.57,1.37,1.31v0.08C95,57.05,94.41,57.66,93.67,57.68z"/>
		<path class="st8" d="M100.64,63.1l-30.61,0.6c-0.74,0.01-1.35-0.57-1.37-1.31v-0.08c-0.01-0.74,0.57-1.35,1.31-1.37l30.61-0.6
			c0.74-0.01,1.35,0.57,1.37,1.31v0.08C101.97,62.47,101.38,63.09,100.64,63.1z"/>
		<path class="st9" d="M100.76,69.02l-30.61,0.6c-0.74,0.01-1.35-0.57-1.37-1.31v-0.08c-0.01-0.74,0.57-1.35,1.31-1.37l30.61-0.6
			c0.74-0.01,1.35,0.57,1.37,1.31v0.08C102.08,68.4,101.5,69.01,100.76,69.02z"/>
		<path class="st10" d="M100.87,74.58l-30.61,0.6c-0.74,0.01-1.35-0.57-1.37-1.31v-0.08c-0.01-0.74,0.57-1.35,1.31-1.37l30.61-0.6
			c0.74-0.01,1.35,0.57,1.37,1.31v0.08C102.19,73.96,101.61,74.57,100.87,74.58z"/>
		<path class="st11" d="M100.98,80.57l-30.61,0.6c-0.74,0.01-1.35-0.57-1.37-1.31v-0.08c-0.01-0.74,0.57-1.35,1.31-1.37l30.61-0.6
			c0.74-0.01,1.35,0.57,1.37,1.31v0.08C102.31,79.94,101.72,80.55,100.98,80.57z"/>
		<g>
			<path class="st12" d="M56.73,40.11l-22.97,0.45c-1.08,0.02-1.98-0.84-2-1.92l-0.01-0.41c-0.02-1.08,0.84-1.98,1.92-2l22.97-0.45
				c1.08-0.02,1.98,0.84,2,1.92l0.01,0.41C58.68,39.19,57.81,40.09,56.73,40.11z"/>
			<path class="st7" d="M57.49,46.84l-24.21,0.48c-0.74,0.01-1.35-0.57-1.37-1.31v-0.08c-0.01-0.74,0.57-1.35,1.31-1.37l24.21-0.48
				c0.74-0.01,1.35,0.57,1.37,1.31v0.08C58.81,46.21,58.23,46.82,57.49,46.84z"/>
			<path class="st8" d="M57.6,52.4l-24.21,0.48c-0.74,0.01-1.35-0.57-1.37-1.31v-0.08c-0.01-0.74,0.57-1.35,1.31-1.37l24.21-0.48
				c0.74-0.01,1.35,0.57,1.37,1.31v0.08C58.92,51.77,58.34,52.38,57.6,52.4z"/>
			<path class="st7" d="M57.71,58.39L33.5,58.86c-0.74,0.01-1.35-0.57-1.37-1.31v-0.08c-0.01-0.74,0.57-1.35,1.31-1.37l24.21-0.48
				c0.74-0.01,1.35,0.57,1.37,1.31v0.08C59.04,57.76,58.45,58.37,57.71,58.39z"/>
			<path class="st8" d="M57.82,63.95l-24.21,0.48c-0.74,0.01-1.35-0.57-1.37-1.31v-0.08c-0.01-0.74,0.57-1.35,1.31-1.37l24.21-0.48
				c0.74-0.01,1.35,0.57,1.37,1.31v0.08C59.15,63.32,58.56,63.93,57.82,63.95z"/>
			<path class="st9" d="M57.94,69.87l-24.21,0.48c-0.74,0.01-1.35-0.57-1.37-1.31v-0.08c-0.01-0.74,0.57-1.35,1.31-1.37l24.21-0.48
				c0.74-0.01,1.35,0.57,1.37,1.31v0.08C59.27,69.24,58.68,69.85,57.94,69.87z"/>
			<path class="st10" d="M58.05,75.43L33.84,75.9c-0.74,0.01-1.35-0.57-1.37-1.31v-0.08c-0.01-0.74,0.57-1.35,1.31-1.37L58,72.67
				c0.74-0.01,1.35,0.57,1.37,1.31v0.08C59.38,74.8,58.79,75.41,58.05,75.43z"/>
			<path class="st11" d="M58.17,81.41l-24.21,0.48c-0.74,0.01-1.35-0.57-1.37-1.31V80.5c-0.01-0.74,0.57-1.35,1.31-1.37l24.21-0.48
				c0.74-0.01,1.35,0.57,1.37,1.31v0.08C59.5,80.79,58.91,81.4,58.17,81.41z"/>
		</g>
		<path class="st8" d="M100.89,51.59l-9.97,0.2c-0.48,0.01-0.87-0.37-0.88-0.84l-0.3-14.96c-0.01-0.48,0.37-0.87,0.84-0.88l9.97-0.2
			c0.48-0.01,0.87,0.37,0.88,0.84l0.3,14.96C101.75,51.19,101.37,51.58,100.89,51.59z"/>
		<g>
			<path class="st13" d="M80.83,39.86l3.24-4.19c0.42-0.54,1.25-0.51,1.63,0.06l2.85,4.28c0.31,0.46,0.18,1.09-0.28,1.4l-4.18,2.78
				c-0.46,0.31-1.09,0.18-1.4-0.28l-1.91-2.87C80.55,40.67,80.57,40.2,80.83,39.86z"/>
			<path class="st14" d="M82.56,42.67l4.91-3.27c0.63-0.42,1.48-0.25,1.9,0.38l1.59,2.39c0.42,0.63,0.25,1.48-0.38,1.9l-4.91,3.27
				c-0.63,0.42-1.48,0.25-1.9-0.38l-1.59-2.39C81.76,43.94,81.93,43.09,82.56,42.67z"/>
			<path class="st13" d="M84.03,45.8l5.77-3.83c1.21-0.81,2.85-0.48,3.66,0.74l16.9,25.41c0.81,1.21,0.48,2.85-0.74,3.66l-5.77,3.83
				c-1.21,0.81-2.85,0.48-3.66-0.74L83.3,49.46C82.49,48.25,82.82,46.61,84.03,45.8z"/>
			<path class="st14" d="M97.26,70.46l3.31,4.98c0.6,0.9,1.81,1.14,2.71,0.55l6.9-4.59c0.9-0.6,1.14-1.81,0.55-2.71l-3.31-4.98
				L97.26,70.46z"/>
		</g>
	</g>
</g>
</svg>
