<?xml version="1.0" encoding="utf-8"?>
<!-- Generator: Adobe Illustrator 23.0.3, SVG Export Plug-In . SVG Version: 6.00 Build 0)  -->
<svg version="1.1" id="Слой_1" xmlns="http://www.w3.org/2000/svg" xmlns:xlink="http://www.w3.org/1999/xlink" x="0px" y="0px"
	 viewBox="0 0 150 122" style="enable-background:new 0 0 150 122;" xml:space="preserve">
<style type="text/css">
	.st0{opacity:0.51;fill:url(#SVGID_1_);enable-background:new    ;}
	.st1{fill:#F7C1C0;}
	.st2{opacity:0.1;}
	.st3{opacity:0.03;}
	.st4{fill:#A898DB;}
	.st5{fill:#98DBEB;}
	.st6{fill:#EFF8F7;}
	.st7{fill:#FFE376;}
	.st8{fill:#9ED38F;}
	.st9{fill:#FCC100;}
	.st10{fill:#FFEECB;}
	.st11{fill:#EEBA6E;}
	.st12{fill:#FFFFFF;}
	.st13{fill:#91C680;}
</style>
<g>
	
		<linearGradient id="SVGID_1_" gradientUnits="userSpaceOnUse" x1="11443.7021" y1="7766.2344" x2="11443.7021" y2="7900.2729" gradientTransform="matrix(0.9348 0.3551 0.3551 -0.9348 -13404.1279 3312.5603)">
		<stop  offset="1.241763e-07" style="stop-color:#E3E0FF"/>
		<stop  offset="0.6028" style="stop-color:#CCC2FC"/>
	</linearGradient>
	<path class="st0" d="M73.95,17.87C98.38,11.72,108.9-8.8,135.2,4.82c21.18,10.97,20.97,59.66-9.31,95.01
		c-17.18,20.06-45.19,27.19-69.92,17.91C21.25,104.72-11.16,73.06,3.7,45.06C20.74,12.94,49.52,24.03,73.95,17.87z"/>
	<g>
		<g>
			<g>
				<path class="st1" d="M106.2,89.9H28.87c-1.34,0-2.43-1.09-2.43-2.43V75c0-1.34,1.09-2.43,2.43-2.43h77.33
					c1.34,0,2.43,1.09,2.43,2.43v12.47C108.62,88.81,107.54,89.9,106.2,89.9z"/>
				<g class="st2">
					<rect x="81.23" y="72.58" width="12.53" height="17.29"/>
				</g>
			</g>
			<g>
				<g class="st3">
					<path d="M68.24,80.13H36.61c-0.83,0-1.51-0.67-1.51-1.51v-0.67c0-0.83,0.67-1.51,1.51-1.51h31.63c0.83,0,1.51,0.67,1.51,1.51
						v0.67C69.74,79.46,69.07,80.13,68.24,80.13z"/>
				</g>
				<g class="st3">
					<path d="M54.48,86.03H36.61c-0.83,0-1.51-0.67-1.51-1.51v-0.67c0-0.83,0.67-1.51,1.51-1.51h17.87c0.83,0,1.51,0.67,1.51,1.51
						v0.67C55.98,85.36,55.31,86.03,54.48,86.03z"/>
				</g>
			</g>
		</g>
		<g>
			<g>
				<path class="st4" d="M32.38,52.87h77.33c1.34,0,2.43-1.09,2.43-2.43V37.97c0-1.34-1.09-2.43-2.43-2.43H32.38
					c-1.34,0-2.43,1.09-2.43,2.43v12.47C29.96,51.78,31.04,52.87,32.38,52.87z"/>
				<g class="st2">
					<rect x="44.82" y="35.55" width="12.53" height="17.29"/>
				</g>
			</g>
			<g>
				<g class="st3">
					<path d="M70.34,43.1h31.63c0.83,0,1.51-0.67,1.51-1.51v-0.67c0-0.83-0.67-1.51-1.51-1.51H70.34c-0.83,0-1.51,0.67-1.51,1.51
						v0.67C68.84,42.43,69.51,43.1,70.34,43.1z"/>
				</g>
				<g class="st3">
					<path d="M84.1,49h17.87c0.83,0,1.51-0.67,1.51-1.51v-0.67c0-0.83-0.67-1.51-1.51-1.51H84.1c-0.83,0-1.51,0.67-1.51,1.51v0.67
						C82.59,48.32,83.27,49,84.1,49z"/>
				</g>
			</g>
		</g>
		<g>
			<path class="st5" d="M45.2,72.58h67c2,0,3.62-1.62,3.62-3.62V56.53c0-2-1.62-3.62-3.62-3.62h-67c-2,0-3.62,1.62-3.62,3.62v12.43
				C41.58,70.95,43.2,72.58,45.2,72.58z"/>
			<rect x="41.57" y="57.47" class="st6" width="74.43" height="10.54"/>
			<path class="st7" d="M48.38,66.32l2.8-1.11c0.35-0.14,0.71-0.14,1.06,0l2.82,1.11c0.65,0.26,1.3-0.44,1.3-1.41v-3.2
				c0-0.81-0.46-1.46-1.02-1.46h-7.22c-0.56,0-1.02,0.65-1.02,1.46v3.2C47.09,65.87,47.73,66.57,48.38,66.32z"/>
			<path class="st8" d="M65.59,72.16l2.8-1.11c0.35-0.14,0.71-0.14,1.06,0l2.82,1.11c0.65,0.26,1.3-0.44,1.3-1.41v-3.2
				c0-0.81-0.46-1.46-1.02-1.46h-7.22c-0.56,0-1.02,0.65-1.02,1.46v3.2C64.29,71.71,64.94,72.42,65.59,72.16z"/>
		</g>
		<g>
			<path class="st9" d="M122.07,35.54h-67c-2,0-3.62-1.62-3.62-3.62V19.49c0-2,1.62-3.62,3.62-3.62h67c2,0,3.62,1.62,3.62,3.62
				v12.43C125.69,33.92,124.07,35.54,122.07,35.54z"/>
			<rect x="51.26" y="20.44" class="st6" width="74.43" height="10.54"/>
			<path class="st10" d="M118.89,29.28l-2.8-1.11c-0.35-0.14-0.71-0.14-1.06,0l-2.82,1.11c-0.65,0.26-1.3-0.44-1.3-1.41v-3.2
				c0-0.81,0.46-1.46,1.02-1.46h7.22c0.56,0,1.02,0.65,1.02,1.46v3.2C120.18,28.84,119.54,29.54,118.89,29.28z"/>
			<path class="st1" d="M85.6,29.75l-2.8-1.11c-0.35-0.14-0.71-0.14-1.06,0l-2.82,1.11c-0.65,0.26-1.3-0.44-1.3-1.41v-3.2
				c0-0.81,0.46-1.46,1.02-1.46h7.22c0.56,0,1.02,0.65,1.02,1.46v3.2C86.9,29.31,86.26,30.01,85.6,29.75z"/>
			<path class="st11" d="M101.68,35.12l-2.8-1.11c-0.35-0.14-0.71-0.14-1.06,0L95,35.12c-0.65,0.26-1.3-0.44-1.3-1.41v-3.2
				c0-0.81,0.46-1.46,1.02-1.46h7.22c0.56,0,1.02,0.65,1.02,1.46v3.2C102.98,34.68,102.33,35.38,101.68,35.12z"/>
		</g>
		<g>
			<circle class="st12" cx="53.47" cy="23.33" r="17.19"/>
			<g>
				<path class="st13" d="M50.69,26.17h-4.93c-1.53,0-2.78-1.24-2.78-2.78l0,0c0-1.53,1.24-2.78,2.78-2.78h4.93v-4.83
					c0-1.53,1.24-2.78,2.78-2.78h0.02c1.53,0,2.78,1.24,2.78,2.78v4.83h4.93c1.53,0,2.78,1.24,2.78,2.78l0,0
					c0,1.53-1.24,2.78-2.78,2.78h-4.93v4.7c0,1.53-1.24,2.78-2.78,2.78h-0.02c-1.53,0-2.78-1.24-2.78-2.78V26.17z"/>
			</g>
		</g>
	</g>
</g>
</svg>
