<?xml version="1.0" encoding="utf-8"?>
<!-- Generator: Adobe Illustrator 23.0.3, SVG Export Plug-In . SVG Version: 6.00 Build 0)  -->
<svg version="1.1" id="Слой_1" xmlns="http://www.w3.org/2000/svg" xmlns:xlink="http://www.w3.org/1999/xlink" x="0px" y="0px"
	 viewBox="0 0 150 136" style="enable-background:new 0 0 150 136;" xml:space="preserve">
<style type="text/css">
	.st0{fill:url(#SVGID_1_);}
	.st1{fill:#F1F1F1;}
	.st2{fill:#FFFFFF;}
	.st3{fill:#E5EEF6;}
	.st4{fill:#FFF19F;}
	.st5{fill:#FDD1B3;}
	.st6{fill:#98DBEB;}
	.st7{fill:#EEBA6E;}
	.st8{fill:#61CCDC;}
	.st9{fill:#B2E3A8;}
	.st10{fill:#F7C1C0;}
</style>
<g>
	
		<linearGradient id="SVGID_1_" gradientUnits="userSpaceOnUse" x1="-4640.519" y1="-398.1559" x2="-4640.519" y2="-258.6454" gradientTransform="matrix(-0.9909 0.1346 -0.1346 -0.9909 -4568.041 364.43)">
		<stop  offset="0" style="stop-color:#FFF19F"/>
		<stop  offset="0.5839" style="stop-color:#FFFFAD"/>
	</linearGradient>
	<path class="st0" d="M84.03,29.55C60.71,17.56,54.88-5.72,25.01,1.91C0.95,8.05-10.29,57.46,12.1,100.43
		c12.7,24.38,39.42,38.2,66.68,34.61c38.25-5.04,78.56-29.52,70.08-61.4C139.14,37.07,107.35,41.53,84.03,29.55z"/>
	<g>
		<g>
			<polygon class="st1" points="126.87,92.29 20.81,92.29 20.96,22.11 126.87,22.11 			"/>
		</g>
		<path class="st2" d="M57.45,28.82H37.76c-0.78,0-1.4-0.63-1.4-1.4v-3.68c0-0.78,0.63-1.4,1.4-1.4h19.69c0.78,0,1.4,0.63,1.4,1.4
			v3.68C58.86,28.2,58.23,28.82,57.45,28.82z"/>
		<g>
			<polygon class="st2" points="126.87,97.29 20.81,97.29 20.96,27.1 126.87,27.1 			"/>
		</g>
		<g>
			<g>
				<polygon class="st3" points="126.87,109.13 20.81,109.13 20.96,35.12 126.87,35.12 				"/>
			</g>
		</g>
		<g>
			<rect x="36.19" y="43.96" class="st2" width="74.61" height="56.06"/>
			<g>
				<path class="st4" d="M71.68,69.37h-2.54c-4.77,0-8.64-3.87-8.64-8.64v-3.29c0-5.27,4.28-9.55,9.55-9.55h0.7
					c5.27,0,9.55,4.28,9.55,9.55v3.31C80.3,65.51,76.44,69.37,71.68,69.37z"/>
				<path class="st5" d="M70.65,65.16h-0.47c-3.5,0-6.34-2.84-6.34-6.34v-2.79c0-3.5,2.84-6.34,6.34-6.34h0.47
					c3.5,0,6.34,2.84,6.34,6.34v2.79C77,62.32,74.16,65.16,70.65,65.16z"/>
				<circle class="st5" cx="63.66" cy="57.78" r="1.4"/>
				<circle class="st5" cx="77.13" cy="57.78" r="1.4"/>
				<path class="st4" d="M70.4,49.48c0,0,0.25,1.55,0.02,3.47c-0.23,1.92-6.58,3.32-6.58,3.32l-0.58-0.94l1.24-2.85l2.49-2.33
					L70.4,49.48z"/>
				<path class="st4" d="M70.39,49.48c0,0-0.25,1.55-0.02,3.47c0.23,1.92,6.58,3.32,6.58,3.32l0.58-0.94l-1.24-2.85l-2.49-2.33
					L70.39,49.48z"/>
				<path class="st6" d="M62.55,87.34h15.49l1.07-15.54c0.18-2.62-1.89-4.84-4.52-4.84h-8.58c-2.62,0-4.69,2.22-4.52,4.83
					L62.55,87.34z"/>
				<path class="st5" d="M70.21,69.18h0.16c1.2,0,2.17-0.97,2.17-2.17v-2.59c0-1.2-0.97-2.17-2.17-2.17h-0.16
					c-1.2,0-2.17,0.97-2.17,2.17v2.59C68.05,68.21,69.02,69.18,70.21,69.18z"/>
				<path class="st6" d="M54.71,82.36l-0.73-3.14l9.31-11.37l5.08,4l-9.9,8.73C57.45,81.85,55.97,83.39,54.71,82.36z"/>
				<path class="st6" d="M86.76,83.5L86.76,83.5c1.09-0.89,1.25-2.5,0.36-3.59L78.18,69l-5.08,4l9.52,10.09
					C83.65,84.35,85.5,84.53,86.76,83.5z"/>
				<path class="st5" d="M88.87,67.85l-1.14-3.59c-0.07-0.22,0.02-0.45,0.22-0.57l0,0c0.21-0.12,0.47-0.07,0.62,0.12l1.15,1.48
					c0.02,0.02,0.05,0.02,0.07,0l2.11-3.6c0.14-0.23,0.44-0.31,0.67-0.17l0.64,0.4c0.32,0.2,0.51,0.56,0.49,0.94l-0.17,3.22
					c-0.01,0.11-0.05,0.21-0.12,0.3l-1.97,2.21c-0.13,0.14-0.33,0.2-0.51,0.14l-1.75-0.57C89.03,68.12,88.91,68,88.87,67.85z"/>
				<path class="st6" d="M84.52,83.64L84.52,83.64c1.48,0.48,3.07-0.33,3.55-1.82l4.26-13.17l-4.19-1.35l-5.18,13.03
					C82.42,81.68,83.14,83.2,84.52,83.64z"/>
				<path class="st5" d="M68.58,80.12l2.87-2.04c0.17-0.12,0.41-0.11,0.57,0.03l0,0c0.17,0.15,0.2,0.4,0.07,0.59l-0.99,1.45
					c-0.02,0.02,0,0.05,0.02,0.06l3.81,0.85c0.25,0.06,0.4,0.31,0.34,0.55L75.1,82.3c-0.09,0.34-0.35,0.61-0.69,0.7l-2.92,0.77
					c-0.1,0.03-0.2,0.02-0.3-0.02l-2.53-1.12c-0.16-0.07-0.27-0.24-0.27-0.41V80.5C68.39,80.34,68.46,80.2,68.58,80.12z"/>
				<path class="st6" d="M53.29,80.76L53.29,80.76c0,1.46,1.18,2.64,2.63,2.64l12.94,0.03l0.01-4.12l-13.08-0.88
					C54.44,78.33,53.29,79.4,53.29,80.76z"/>
			</g>
			<rect x="36.19" y="87.19" class="st7" width="74.61" height="12.94"/>
			<path class="st2" d="M69.7,97.37v-7.01c0-0.6,0.65-0.98,1.17-0.67l6.04,3.51c0.52,0.3,0.52,1.05,0,1.35l-6.04,3.51
				C70.35,98.34,69.7,97.97,69.7,97.37z"/>
		</g>
		<path class="st1" d="M113.01,31.93H37.6c-0.78,0-1.4-0.63-1.4-1.4v-0.1c0-0.78,0.63-1.4,1.4-1.4h75.42c0.78,0,1.4,0.63,1.4,1.4
			v0.1C114.42,31.3,113.79,31.93,113.01,31.93z"/>
		<circle class="st1" cx="119.94" cy="30.61" r="2.18"/>
		<circle class="st8" cx="24.38" cy="24.65" r="1.29"/>
		<circle class="st9" cx="28.8" cy="24.6" r="1.29"/>
		<circle class="st10" cx="33.16" cy="24.56" r="1.29"/>
	</g>
</g>
</svg>
