<?xml version="1.0" encoding="utf-8"?>
<!-- Generator: Adobe Illustrator 23.1.0, SVG Export Plug-In . SVG Version: 6.00 Build 0)  -->
<svg version="1.1" id="Слой_1" xmlns="http://www.w3.org/2000/svg" xmlns:xlink="http://www.w3.org/1999/xlink" x="0px" y="0px"
	 viewBox="0 0 150 141.57" style="enable-background:new 0 0 150 141.57;" xml:space="preserve">
<style type="text/css">
	.st0{fill:url(#SVGID_1_);}
	.st1{fill:url(#SVGID_2_);}
	.st2{fill:#F7C1C0;}
	.st3{fill:#FFD4CA;}
	.st4{fill:#EAAE5E;}
	.st5{fill:#FFE1D7;}
	.st6{fill:#FFFFFF;}
	.st7{fill:#FDD960;}
	.st8{fill:url(#SVGID_3_);}
	.st9{fill:#FFEC9B;}
	.st10{fill:#9ED38F;}
	.st11{fill:#FFF2EE;}
	.st12{fill:url(#SVGID_4_);}
	.st13{fill:#70DBEB;}
	.st14{fill:#FFC100;}
</style>
<g>
	<linearGradient id="SVGID_1_" gradientUnits="userSpaceOnUse" x1="-9.094947e-13" y1="70.7844" x2="150" y2="70.7844">
		<stop  offset="4.166280e-03" style="stop-color:#FFFFFF"/>
		<stop  offset="0.6028" style="stop-color:#E5EEF6"/>
	</linearGradient>
	<path class="st0" d="M47.74,46.51C27.91,64.52,3.55,61.76,0.12,93.07c-2.76,25.22,40.48,53.69,89.61,47.69
		c27.88-3.41,50.69-24.01,57.03-51.38c8.9-38.4-0.05-85.74-33.6-89.07C74.7-3.5,67.57,28.5,47.74,46.51z"/>
	<g>
		<linearGradient id="SVGID_2_" gradientUnits="userSpaceOnUse" x1="42.93" y1="33.2351" x2="42.93" y2="93.3601">
			<stop  offset="4.166278e-03" style="stop-color:#FFFFFF;stop-opacity:0.1"/>
			<stop  offset="0.6028" style="stop-color:#FFFFFF"/>
		</linearGradient>
		<rect x="17.55" y="33.24" class="st1" width="50.77" height="60.12"/>
		<g>
			<g>
				<path class="st2" d="M53.68,97.58H33.51c-5.82,0-10.55-4.72-10.55-10.55l0,0c0-6.71,5.44-12.15,12.15-12.15h16.97
					c6.71,0,12.15,5.44,12.15,12.15l0,0C64.22,92.86,59.5,97.58,53.68,97.58z"/>
				<path class="st3" d="M43.59,80.34L43.59,80.34c-2.24,0-4.07-1.82-4.07-4.07v-5.76c0-2.24,1.82-4.07,4.07-4.07l0,0
					c2.24,0,4.07,1.82,4.07,4.07v5.76C47.66,78.52,45.84,80.34,43.59,80.34z"/>
				<path class="st4" d="M57.92,56.68c0,4.07,3.59,11.4-1.66,14.52c-4.84,2.88-18.38,1.71-22.13,1.71c-7.81,0-4.49-8.41-4.49-16.22
					s7.78-18.72,21.09-10.62C56.1,46.6,57.92,51.54,57.92,56.68z"/>
				<ellipse class="st5" cx="43.92" cy="60.19" rx="12.39" ry="14.02"/>
				
					<ellipse transform="matrix(0.2782 -0.9605 0.9605 0.2782 -19.9506 97.2791)" class="st5" cx="54.75" cy="61.91" rx="3.73" ry="3.17"/>
				
					<ellipse transform="matrix(0.9928 -0.1195 0.1195 0.9928 -7.211 4.3706)" class="st5" cx="32.84" cy="62.31" rx="3.17" ry="3.73"/>
				<path class="st4" d="M31.41,58.72c0,0,9.33-1.83,13-8.09c2.58,5.34,11.84,7.81,11.84,7.81s-0.32-12.92-12.37-13.17
					C31.82,45.02,31.41,58.72,31.41,58.72z"/>
			</g>
			<path class="st6" d="M63.3,99.02H22.56c-2.77,0-5.01-2.24-5.01-5.01v-1.3c0-2.77,2.24-5.01,5.01-5.01H63.3
				c2.77,0,5.01,2.24,5.01,5.01v1.3C68.31,96.78,66.07,99.02,63.3,99.02z"/>
			<path class="st7" d="M27.36,89.34l0.97,1.97c0.08,0.16,0.24,0.28,0.41,0.3l2.17,0.32c0.45,0.07,0.63,0.62,0.31,0.94l-1.57,1.53
				c-0.13,0.13-0.19,0.31-0.16,0.49l0.37,2.16c0.08,0.45-0.39,0.79-0.8,0.58l-1.94-1.02c-0.16-0.08-0.35-0.08-0.51,0l-1.94,1.02
				c-0.4,0.21-0.88-0.13-0.8-0.58l0.37-2.16c0.03-0.18-0.03-0.36-0.16-0.49l-1.57-1.53c-0.33-0.32-0.15-0.87,0.31-0.94l2.17-0.32
				c0.18-0.03,0.33-0.14,0.41-0.3l0.97-1.97C26.58,88.93,27.16,88.93,27.36,89.34z"/>
			<path class="st7" d="M40.02,89.34l0.97,1.97c0.08,0.16,0.24,0.28,0.41,0.3l2.17,0.32c0.45,0.07,0.63,0.62,0.31,0.94l-1.57,1.53
				c-0.13,0.13-0.19,0.31-0.16,0.49l0.37,2.16c0.08,0.45-0.39,0.79-0.8,0.58l-1.94-1.02c-0.16-0.08-0.35-0.08-0.51,0l-1.94,1.02
				c-0.4,0.21-0.88-0.13-0.8-0.58l0.37-2.16c0.03-0.18-0.03-0.36-0.16-0.49l-1.57-1.53c-0.33-0.32-0.15-0.87,0.31-0.94l2.17-0.32
				c0.18-0.03,0.33-0.14,0.41-0.3l0.97-1.97C39.23,88.93,39.82,88.93,40.02,89.34z"/>
			<path class="st7" d="M52.03,89.34L53,91.31c0.08,0.16,0.24,0.28,0.41,0.3l2.17,0.32c0.45,0.07,0.63,0.62,0.31,0.94l-1.57,1.53
				c-0.13,0.13-0.19,0.31-0.16,0.49l0.37,2.16c0.08,0.45-0.39,0.79-0.8,0.58l-1.94-1.02c-0.16-0.08-0.35-0.08-0.51,0l-1.94,1.02
				c-0.4,0.21-0.88-0.13-0.8-0.58l0.37-2.16c0.03-0.18-0.03-0.36-0.16-0.49l-1.57-1.53c-0.33-0.32-0.15-0.87,0.31-0.94l2.17-0.32
				c0.18-0.03,0.33-0.14,0.41-0.3l0.97-1.97C51.24,88.93,51.83,88.93,52.03,89.34z"/>
		</g>
	</g>
	<g>
		<linearGradient id="SVGID_3_" gradientUnits="userSpaceOnUse" x1="117.0073" y1="13.6535" x2="117.0073" y2="73.7784">
			<stop  offset="4.166278e-03" style="stop-color:#FFFFFF;stop-opacity:0.1"/>
			<stop  offset="0.6028" style="stop-color:#FFFFFF"/>
		</linearGradient>
		<rect x="91.62" y="13.65" class="st8" width="50.77" height="60.12"/>
		<g>
			<g>
				<path class="st9" d="M133.06,64.31c-6.01,7.36-25.22,2.5-29.42,2.5c-7.81,0-8.04-46.63,12.92-43.17
					C134.89,20.56,138.21,57.99,133.06,64.31z"/>
				<path class="st10" d="M126.32,76.94h-20.17c-5.82,0-10.55-4.72-10.55-10.55l0,0c0-6.71,5.44-12.15,12.15-12.15h16.97
					c6.71,0,12.15,5.44,12.15,12.15l0,0C136.86,72.22,132.14,76.94,126.32,76.94z"/>
				<path class="st5" d="M116.23,59.69L116.23,59.69c-2.24,0-4.07-1.82-4.07-4.07v-5.76c0-2.24,1.82-4.07,4.07-4.07l0,0
					c2.24,0,4.07,1.82,4.07,4.07v5.76C120.3,57.87,118.47,59.69,116.23,59.69z"/>
				<ellipse class="st11" cx="116.56" cy="39.55" rx="12.39" ry="14.02"/>
				
					<ellipse transform="matrix(0.2782 -0.9605 0.9605 0.2782 52.3065 152.1466)" class="st11" cx="127.39" cy="41.27" rx="3.73" ry="3.17"/>
				
					<ellipse transform="matrix(0.9928 -0.1195 0.1195 0.9928 -4.2234 12.903)" class="st11" cx="105.47" cy="41.67" rx="3.17" ry="3.73"/>
				<path class="st9" d="M104.04,38.07l24.84-0.29c0,0-0.32-12.92-12.37-13.17C104.46,24.37,104.04,38.07,104.04,38.07z"/>
			</g>
			<g>
				<path class="st6" d="M137.38,78.38H96.64c-2.77,0-5.01-2.24-5.01-5.01v-1.3c0-2.77,2.24-5.01,5.01-5.01h40.74
					c2.77,0,5.01,2.24,5.01,5.01v1.3C142.39,76.14,140.15,78.38,137.38,78.38z"/>
				<path class="st7" d="M100.61,68.7l0.97,1.97c0.08,0.16,0.24,0.28,0.41,0.3l2.17,0.32c0.45,0.07,0.63,0.62,0.31,0.94l-1.57,1.53
					c-0.13,0.13-0.19,0.31-0.16,0.49l0.37,2.16c0.08,0.45-0.39,0.79-0.8,0.58l-1.94-1.02c-0.16-0.08-0.35-0.08-0.51,0l-1.94,1.02
					c-0.4,0.21-0.88-0.13-0.8-0.58l0.37-2.16c0.03-0.18-0.03-0.36-0.16-0.49l-1.57-1.53c-0.33-0.32-0.15-0.87,0.31-0.94l2.17-0.32
					c0.18-0.03,0.33-0.14,0.41-0.3l0.97-1.97C99.82,68.29,100.41,68.29,100.61,68.7z"/>
				<path class="st7" d="M113.27,68.7l0.97,1.97c0.08,0.16,0.24,0.28,0.41,0.3l2.17,0.32c0.45,0.07,0.63,0.62,0.31,0.94l-1.57,1.53
					c-0.13,0.13-0.19,0.31-0.16,0.49l0.37,2.16c0.08,0.45-0.39,0.79-0.8,0.58l-1.94-1.02c-0.16-0.08-0.35-0.08-0.51,0l-1.94,1.02
					c-0.4,0.21-0.88-0.13-0.8-0.58l0.37-2.16c0.03-0.18-0.03-0.36-0.16-0.49l-1.57-1.53c-0.33-0.32-0.15-0.87,0.31-0.94l2.17-0.32
					c0.18-0.03,0.33-0.14,0.41-0.3l0.97-1.97C112.48,68.29,113.07,68.29,113.27,68.7z"/>
			</g>
		</g>
	</g>
	<g>
		<linearGradient id="SVGID_4_" gradientUnits="userSpaceOnUse" x1="81.8439" y1="63.5552" x2="81.8439" y2="123.6802">
			<stop  offset="4.166278e-03" style="stop-color:#FFFFFF;stop-opacity:0.1"/>
			<stop  offset="0.6028" style="stop-color:#FFFFFF"/>
		</linearGradient>
		<rect x="56.46" y="63.56" class="st12" width="50.77" height="60.12"/>
		<g>
			<g>
				<path class="st13" d="M91.93,127.03H71.76c-5.82,0-10.55-4.72-10.55-10.55l0,0c0-6.71,5.44-12.15,12.15-12.15h16.97
					c6.71,0,12.15,5.44,12.15,12.15l0,0C102.48,122.3,97.76,127.03,91.93,127.03z"/>
				<g>
					<path class="st3" d="M81.84,109.78L81.84,109.78c-2.24,0-4.07-1.82-4.07-4.07v-5.76c0-2.24,1.82-4.07,4.07-4.07l0,0
						c2.24,0,4.07,1.82,4.07,4.07v5.76C85.91,107.96,84.09,109.78,81.84,109.78z"/>
					<g>
						<path class="st14" d="M96.17,86.13c0,7.81-6.33,14.14-14.14,14.14s-14.14-6.33-14.14-14.14s7.78-18.72,21.09-10.62
							C94.35,76.05,96.17,80.99,96.17,86.13z"/>
						<ellipse class="st5" cx="82.17" cy="89.63" rx="12.39" ry="14.02"/>
						
							<ellipse transform="matrix(0.2782 -0.9605 0.9605 0.2782 -20.6232 155.2728)" class="st5" cx="93" cy="91.36" rx="3.73" ry="3.17"/>
						
							<ellipse transform="matrix(0.9928 -0.1195 0.1195 0.9928 -10.4556 9.1528)" class="st5" cx="71.09" cy="91.75" rx="3.17" ry="3.73"/>
						<path class="st14" d="M69.66,88.16c0,0,14.43-0.56,18.1-6.82c2.58,5.34,6.74,6.53,6.74,6.53s-0.32-12.92-12.37-13.17
							C70.07,74.46,69.66,88.16,69.66,88.16z"/>
					</g>
				</g>
			</g>
			<g>
				<path class="st6" d="M102.22,130.09H61.48c-2.77,0-5.01-2.24-5.01-5.01v-1.3c0-2.77,2.24-5.01,5.01-5.01h40.74
					c2.77,0,5.01,2.24,5.01,5.01v1.3C107.23,127.84,104.99,130.09,102.22,130.09z"/>
				<path class="st7" d="M65.45,120.4l0.97,1.97c0.08,0.16,0.24,0.28,0.41,0.3l2.17,0.32c0.45,0.07,0.63,0.62,0.31,0.94l-1.57,1.53
					c-0.13,0.13-0.19,0.31-0.16,0.49l0.37,2.16c0.08,0.45-0.39,0.79-0.8,0.58l-1.94-1.02c-0.16-0.08-0.35-0.08-0.51,0l-1.94,1.02
					c-0.4,0.21-0.88-0.13-0.8-0.58l0.37-2.16c0.03-0.18-0.03-0.36-0.16-0.49l-1.57-1.53c-0.33-0.32-0.15-0.87,0.31-0.94l2.17-0.32
					c0.18-0.03,0.33-0.14,0.41-0.3l0.97-1.97C64.67,120,65.25,120,65.45,120.4z"/>
			</g>
		</g>
	</g>
</g>
</svg>
