<?xml version="1.0" encoding="utf-8"?>
<!-- Generator: Adobe Illustrator 23.0.3, SVG Export Plug-In . SVG Version: 6.00 Build 0)  -->
<svg version="1.1" id="Слой_1" xmlns="http://www.w3.org/2000/svg" xmlns:xlink="http://www.w3.org/1999/xlink" x="0px" y="0px"
	 viewBox="0 0 150 129" style="enable-background:new 0 0 150 129;" xml:space="preserve">
<style type="text/css">
	.st0{fill:url(#SVGID_1_);}
	.st1{fill:#B5C8D7;}
	.st2{fill:#FFFFFF;}
	.st3{fill:#D4D4D4;}
	.st4{fill:#E5EEF6;}
	.st5{fill:#A7A7A7;}
	.st6{opacity:0.31;fill:#D4D4D4;enable-background:new    ;}
	.st7{fill:#EEBA6E;}
	.st8{clip-path:url(#SVGID_3_);}
	.st9{clip-path:url(#SVGID_5_);}
	.st10{clip-path:url(#SVGID_7_);}
</style>
<g>
	
		<linearGradient id="SVGID_1_" gradientUnits="userSpaceOnUse" x1="509.8384" y1="9013.5088" x2="509.8384" y2="9150.1094" gradientTransform="matrix(0.9701 -0.2427 0.2427 0.9701 -2623.2131 -8616.9297)">
		<stop  offset="4.166280e-03" style="stop-color:#FFFFFF"/>
		<stop  offset="0.6028" style="stop-color:#E5EEF6"/>
	</linearGradient>
	<path class="st0" d="M70.05,105.35c23.99,9.16,32.17,31.18,60.42,20.55c22.75-8.56,28.38-57.86,1.97-97.27
		C117.45,6.27,89.96-4.31,63.82,2.12C27.13,11.14-9.47,39.3,2.21,69.42C15.61,103.96,46.06,96.19,70.05,105.35z"/>
	<g>
		<g>
			<g>
				<path class="st1" d="M134.27,95.91H24.65V16.74c0-0.3,0.25-0.55,0.55-0.55h108.53c0.3,0,0.55,0.25,0.55,0.55L134.27,95.91
					L134.27,95.91z"/>
			</g>
		</g>
		<g>
			<polygon class="st2" points="129.08,90.68 29.84,90.68 29.97,21.42 129.08,21.42 			"/>
		</g>
		<rect x="18.89" y="90.34" class="st1" width="121.15" height="6.93"/>
		<g>
			<path class="st3" d="M59.22,74.01H38.19c-1.77,0-3.21-1.44-3.21-3.21V55.52c0-1.77,1.44-3.21,3.21-3.21h21.03
				c1.77,0,3.21,1.44,3.21,3.21V70.8C62.43,72.57,61,74.01,59.22,74.01z"/>
			<path class="st2" d="M43.62,67.85v-9.38c0-0.8,0.87-1.31,1.57-0.9l8.08,4.69c0.69,0.4,0.69,1.4,0,1.8l-8.08,4.69
				C44.5,69.16,43.62,68.66,43.62,67.85z"/>
		</g>
		<g>
			<path class="st4" d="M90.2,74.01H69.16c-1.77,0-3.21-1.44-3.21-3.21V55.52c0-1.77,1.44-3.21,3.21-3.21H90.2
				c1.77,0,3.21,1.44,3.21,3.21V70.8C93.4,72.57,91.97,74.01,90.2,74.01z"/>
			<path class="st2" d="M74.6,67.85v-9.38c0-0.8,0.87-1.31,1.57-0.9l8.08,4.69c0.69,0.4,0.69,1.4,0,1.8l-8.08,4.69
				C75.47,69.16,74.6,68.66,74.6,67.85z"/>
		</g>
		<g>
			<path class="st5" d="M120.77,73.81H99.74c-1.77,0-3.21-1.44-3.21-3.21V55.32c0-1.77,1.44-3.21,3.21-3.21h21.03
				c1.77,0,3.21,1.44,3.21,3.21V70.6C123.98,72.38,122.54,73.81,120.77,73.81z"/>
			<path class="st2" d="M105.17,67.65v-9.38c0-0.8,0.87-1.31,1.57-0.9l8.08,4.69c0.69,0.4,0.69,1.4,0,1.8l-8.08,4.69
				C106.04,68.96,105.17,68.46,105.17,67.65z"/>
		</g>
		<rect x="29.92" y="21.11" class="st6" width="99.32" height="10.71"/>
		<rect x="35.38" y="42.28" class="st7" width="16.09" height="4.97"/>
		<rect x="57.68" y="42.28" class="st7" width="16.09" height="4.97"/>
		<path class="st7" d="M123.46,41.35h-20.48c-0.28,0-0.52-0.23-0.52-0.52v-5.62c0-0.28,0.23-0.52,0.52-0.52h20.48
			c0.28,0,0.52,0.23,0.52,0.52v5.62C123.98,41.12,123.75,41.35,123.46,41.35z"/>
		<g>
			<g>
				<defs>
					<rect id="SVGID_2_" x="32" y="47.4" width="94.44" height="42.88"/>
				</defs>
				<clipPath id="SVGID_3_">
					<use xlink:href="#SVGID_2_"  style="overflow:visible;"/>
				</clipPath>
				<g class="st8">
					<path class="st5" d="M59.12,100.28H38.08c-1.77,0-3.21-1.44-3.21-3.21V81.79c0-1.77,1.44-3.21,3.21-3.21h21.03
						c1.77,0,3.21,1.44,3.21,3.21v15.28C62.32,98.85,60.89,100.28,59.12,100.28z"/>
					<path class="st2" d="M43.52,94.13v-9.38c0-0.8,0.87-1.31,1.57-0.9l8.08,4.69c0.69,0.4,0.69,1.4,0,1.8l-8.08,4.69
						C44.39,95.43,43.52,94.93,43.52,94.13z"/>
				</g>
			</g>
			<g>
				<defs>
					<rect id="SVGID_4_" x="32" y="47.4" width="94.44" height="42.88"/>
				</defs>
				<clipPath id="SVGID_5_">
					<use xlink:href="#SVGID_4_"  style="overflow:visible;"/>
				</clipPath>
				<g class="st9">
					<path class="st3" d="M90.09,100.28H69.05c-1.77,0-3.21-1.44-3.21-3.21V81.79c0-1.77,1.44-3.21,3.21-3.21h21.03
						c1.77,0,3.21,1.44,3.21,3.21v15.28C93.3,98.85,91.86,100.28,90.09,100.28z"/>
					<path class="st2" d="M74.49,94.13v-9.38c0-0.8,0.87-1.31,1.57-0.9l8.08,4.69c0.69,0.4,0.69,1.4,0,1.8l-8.08,4.69
						C75.36,95.43,74.49,94.93,74.49,94.13z"/>
				</g>
			</g>
			<g>
				<defs>
					<rect id="SVGID_6_" x="32" y="47.4" width="94.44" height="42.88"/>
				</defs>
				<clipPath id="SVGID_7_">
					<use xlink:href="#SVGID_6_"  style="overflow:visible;"/>
				</clipPath>
				<g class="st10">
					<path class="st4" d="M120.66,100.09H99.63c-1.77,0-3.21-1.44-3.21-3.21V81.6c0-1.77,1.44-3.21,3.21-3.21h21.03
						c1.77,0,3.21,1.44,3.21,3.21v15.28C123.87,98.65,122.43,100.09,120.66,100.09z"/>
					<path class="st2" d="M105.06,93.93v-9.38c0-0.8,0.87-1.31,1.57-0.9l8.08,4.69c0.69,0.4,0.69,1.4,0,1.8l-8.08,4.69
						C105.93,95.24,105.06,94.73,105.06,93.93z"/>
				</g>
			</g>
		</g>
	</g>
</g>
</svg>
