<?xml version="1.0" encoding="utf-8"?>
<!-- Generator: Adobe Illustrator 23.0.3, SVG Export Plug-In . SVG Version: 6.00 Build 0)  -->
<svg version="1.1" id="Слой_1" xmlns="http://www.w3.org/2000/svg" xmlns:xlink="http://www.w3.org/1999/xlink" x="0px" y="0px"
	 viewBox="0 0 69.79 150" style="enable-background:new 0 0 69.79 150;" xml:space="preserve">
<style type="text/css">
	.st0{opacity:0.53;fill:url(#SVGID_1_);enable-background:new    ;}
	.st1{opacity:0.26;fill:url(#SVGID_2_);enable-background:new    ;}
	.st2{opacity:0.36;fill:url(#SVGID_3_);enable-background:new    ;}
</style>
<g>
	
		<linearGradient id="SVGID_1_" gradientUnits="userSpaceOnUse" x1="1138.5096" y1="-388.6966" x2="1138.5096" y2="-447.6706" gradientTransform="matrix(0.9569 -0.2903 0.2903 0.9569 -940.5581 770.4006)">
		<stop  offset="0.0542" style="stop-color:#FFFFCF;stop-opacity:0.5"/>
		<stop  offset="0.5125" style="stop-color:#FFCDD1;stop-opacity:0.6"/>
	</linearGradient>
	<path class="st0" d="M17.52,27.71c6.85-8.71,5-18.69,17.82-21.02c10.33-1.88,23.35,15.14,22.31,35.59
		c-0.59,11.61-8.43,21.62-19.54,25.04c-15.59,4.8-35.39,2.49-37.75-11.26C-2.34,40.3,10.66,36.42,17.52,27.71z"/>
	
		<linearGradient id="SVGID_2_" gradientUnits="userSpaceOnUse" x1="-4732.8008" y1="-7641.3315" x2="-4732.8008" y2="-7700.3174" gradientTransform="matrix(-0.9701 -0.2427 0.2427 -0.9701 -2692.6355 -8465.5195)">
		<stop  offset="0" style="stop-color:#ECFFE6"/>
		<stop  offset="0.6028" style="stop-color:#B2E3A8"/>
	</linearGradient>
	<path class="st1" d="M39.35,139.9c-10.36,3.95-13.89,13.46-26.09,8.87c-9.82-3.7-12.25-24.98-0.85-42
		c6.47-9.66,18.34-14.22,29.63-11.45c15.84,3.89,31.64,16.05,26.6,29.06C62.85,139.3,49.7,135.95,39.35,139.9z"/>
	
		<linearGradient id="SVGID_3_" gradientUnits="userSpaceOnUse" x1="-5547.3467" y1="7799.8403" x2="-5547.3467" y2="7783.6221" gradientTransform="matrix(-0.2131 -0.977 -0.977 0.2131 6445.3315 -7071.3901)">
		<stop  offset="0" style="stop-color:#FFF19F"/>
		<stop  offset="0.5839" style="stop-color:#FFFFAD"/>
	</linearGradient>
	<path class="st2" d="M19.17,9.56c1.17-2.81,3.82-3.7,2.66-7.09C20.9-0.26,15.07-1.1,10.3,1.89C7.58,3.58,6.23,6.81,6.9,9.93
		c0.94,4.38,4.15,8.83,7.76,7.55C18.81,16.02,17.99,12.38,19.17,9.56z"/>
</g>
</svg>
