<?xml version="1.0" encoding="utf-8"?>
<!-- Generator: Adobe Illustrator 23.0.6, SVG Export Plug-In . SVG Version: 6.00 Build 0)  -->
<svg version="1.1" id="Layer_1" xmlns:xodm="http://www.corel.com/coreldraw/odm/2003"
	 xmlns="http://www.w3.org/2000/svg" xmlns:xlink="http://www.w3.org/1999/xlink" x="0px" y="0px" viewBox="0 0 150 170"
	 style="enable-background:new 0 0 150 170;" xml:space="preserve">
<style type="text/css">
	.st0{fill-rule:evenodd;clip-rule:evenodd;fill:#C9BDF0;}
	.st1{fill:#D4A002;}
	.st2{fill:#FDBF00;}
	.st3{fill:#FECE00;}
	.st4{fill:#FFD61F;}
	.st5{fill:#EDC205;}
	.st6{fill:#FCA800;}
	.st7{fill:#FFB92E;}
	.st8{fill:#FEF3CA;}
	.st9{fill:#FCB400;}
	.st10{fill-rule:evenodd;clip-rule:evenodd;fill:#4B4366;}
	.st11{fill:#5E557A;}
	.st12{fill:#4B4366;}
	.st13{fill-rule:evenodd;clip-rule:evenodd;fill:#87671D;}
	.st14{fill-rule:evenodd;clip-rule:evenodd;fill:#7A5C17;}
</style>
<g id="Слой_x0020_1">
	<circle class="st0" cx="75" cy="85" r="72.5"/>
	<path class="st1" d="M45.5,53.7l3-2.4c1.2-1,2.4-1.8,3.7-2.6c-1.3-0.8-2.3-1.4-2.3-1.4c-1.9-1.3-17.3-11.6-24.9-7.1
		c-7.5,4.4-0.2,25.7,7,33.4c0.7,0.9,1.3,1.7,2,2.3C34.6,67.2,38.8,59.2,45.5,53.7z"/>
	<path class="st2" d="M45.5,53.6l3-2.4c0.6-0.5,1.2-1,1.9-1.4l0.9-1.8c-0.8-0.5-1.4-0.8-1.4-0.8c-1.9-1.3-17.3-11.6-24.9-7.1
		c-0.6,0.4-1.2,0.9-1.6,1.5c9.8,3.4,18.5,19,17,35.6C41.9,74.9,43.2,55.5,45.5,53.6z"/>
	<path class="st1" d="M104.5,53.7l-3-2.4c-1.2-1-2.4-1.8-3.7-2.6c1.3-0.8,2.3-1.4,2.3-1.4c1.9-1.3,17.3-11.6,24.9-7.1
		c7.5,4.4,0.2,25.7-7,33.4c-0.7,0.9-1.3,1.7-2,2.3C115.4,67.2,111.2,59.2,104.5,53.7L104.5,53.7z"/>
	<path class="st2" d="M104.5,53.7l-3-2.4c-0.6-0.5-1.2-1-1.9-1.4l-0.9-1.8c0.8-0.5,1.4-0.8,1.4-0.8c1.9-1.3,17.3-11.6,24.9-7.1
		c0.6,0.4,1.2,0.9,1.6,1.5c-9.8,3.4-18.5,19-17,35.6C108.1,75,106.7,55.5,104.5,53.7z"/>
	<path class="st3" d="M106.1,51.8l-3.1-2.6C97,44.4,89.6,41.8,82,41.8h-7l0,0l0,0h-7c-7.6,0-15,2.6-20.9,7.4l-3.1,2.6
		c-7.7,6.3-12.2,15.7-12.2,25.7v8.4c0,5.7,2.3,11.1,6.4,15c2.8,2.6,4.7,6.1,5.4,9.8c1.7,8.5,7.3,15.6,15,19.5l5.9,2.9
		c3.3,1.6,6.9,2.5,10.5,2.5c3.6,0,7.2-0.8,10.5-2.5l5.9-2.9c7.7-3.8,13.3-11,15-19.5c0.8-3.8,2.7-7.2,5.4-9.8
		c4.1-3.9,6.4-9.3,6.4-15v-8.4C118.3,67.5,113.8,58.1,106.1,51.8z"/>
	<path class="st4" d="M75,41.8L75,41.8L75,41.8L75,41.8h-7c-7.6,0-15,2.6-20.9,7.4l-3.1,2.6c-7.7,6.3-12.2,15.7-12.2,25.7v8.4
		c0,5.7,2.3,11.1,6.4,15c2.8,2.6,4.7,6.1,5.4,9.8c1.7,8.5,7.3,15.6,15,19.5l5.9,2.9c3.3,1.6,6.9,2.5,10.5,2.5
		C75,135.5,75,41.8,75,41.8z"/>
	<path class="st5" d="M106.1,51.8l-3.1-2.6C97,44.4,89.6,41.8,82,41.8h-6.4c7.6,0,15,2.6,20.9,7.4l3.1,2.6
		c7.7,6.3,12.2,15.7,12.2,25.7v8.4c0,5.7-2.3,11.1-6.4,15c-2.8,2.6-4.7,6.1-5.4,9.8c-1.1,5.3-7.5,12.5-13.8,17.9
		c-4.2,3.5-8,6.5-11.2,6.9c1.1,0.1-1.1,0,0,0c3.6,0,7.2-0.8,10.5-2.5l5.9-2.9c7.7-3.8,13.3-11,15-19.5c0.8-3.8,2.7-7.2,5.4-9.8
		c4.1-3.9,6.4-9.3,6.4-15v-8.4C118.3,67.5,113.8,58.1,106.1,51.8L106.1,51.8z"/>
	<path class="st6" d="M95.9,114c0.3-2,0.2-4.1-0.4-6.2c-1-3.4-2.4-6.6-4.6-8.9c-3.4-3.6-7.1-10.2-10.1-16.3c-2.4-5-9-5-11.5,0
		c-3,6.1-6.7,12.8-10.1,16.3c-2.1,2.2-3.6,5.4-4.6,8.9c-0.6,2.1-0.7,4.2-0.4,6.2c-0.7,2.8,0.1,5.7,1.4,8.3c1.4,2.7,3.9,4.6,6.7,5.3
		c2.6,2.8,7.3,4.7,12.8,4.7c5.4,0,10.2-1.9,12.8-4.7c2.8-0.7,5.3-2.5,6.7-5.3C95.7,119.7,96.6,116.8,95.9,114z"/>
	<path class="st7" d="M75,78.9c-2.3,0-4.5,1.2-5.7,3.7c-3,6.1-6.7,12.8-10.1,16.3c-2.1,2.2-3.6,5.4-4.6,8.9
		c-0.6,2.1-0.7,4.2-0.4,6.2c-0.7,2.8,0.1,5.7,1.4,8.3c1.4,2.7,3.9,4.6,6.7,5.3c2.6,2.8,7.3,4.7,12.8,4.7h0V78.9z"/>
	<path class="st8" d="M94,110.4c-7.1-8.2-19,0.9-19,0.9s-11.9-9.1-19-0.9c-3.2,3.7-2.4,8.1-0.4,11.9c1.4,2.7,3.9,4.6,6.7,5.3h0
		c2.6,2.8,7.3,4.7,12.8,4.7c5.4,0,10.2-1.9,12.8-4.7l0,0c2.8-0.7,5.3-2.5,6.7-5.3C96.3,118.6,97.2,114.1,94,110.4z"/>
	<circle class="st9" cx="65" cy="48.6" r="2.5"/>
	<circle class="st9" cx="75.8" cy="48.6" r="2.5"/>
	<circle class="st9" cx="86.7" cy="48.6" r="2.5"/>
	<circle class="st9" cx="65" cy="63.1" r="2.5"/>
	<circle class="st9" cx="75.8" cy="63.1" r="2.5"/>
	<circle class="st9" cx="86.7" cy="63.1" r="2.5"/>
	<circle class="st9" cx="58.9" cy="55.4" r="2.5"/>
	<circle class="st9" cx="92.8" cy="55.4" r="2.5"/>
	<circle class="st9" cx="70.2" cy="55.4" r="2.5"/>
	<circle class="st9" cx="81.5" cy="55.4" r="2.5"/>
	<circle class="st9" cx="49.6" cy="100.1" r="2.5"/>
	<circle class="st9" cx="43.8" cy="91.5" r="2.5"/>
	<circle class="st9" cx="55.1" cy="91.5" r="2.5"/>
	<circle class="st9" cx="98.9" cy="100.2" r="2.5"/>
	<circle class="st9" cx="104.7" cy="91.6" r="2.5"/>
	<circle class="st9" cx="93.4" cy="91.6" r="2.5"/>
	<path class="st10" d="M97.1,78.2c2.2,0,3.9,1.7,3.9,3.8c0,2.1-1.8,3.8-3.9,3.8s-3.9-1.7-3.9-3.8C93.2,79.9,94.9,78.2,97.1,78.2z"/>
	<path class="st10" d="M53.6,78c-2.2,0-3.9,1.7-3.9,3.8c0,2.1,1.8,3.8,3.9,3.8s3.9-1.7,3.9-3.8C57.5,79.7,55.8,78,53.6,78z"/>
	<path class="st11" d="M72.9,111c0-1.2,1-2.2,2.2-2.2c1.2,0,2.2,1,2.2,2.2l-0.1,5.8c0,0.6-0.3,1.1-0.7,1.5c0,0-10,10-17.6,0.1
		c-0.7-1-0.6-2.3,0.4-3.1c1-0.7,2.3-0.6,3.1,0.4c3.7,4.8,8.6,1.5,10.4,0L72.9,111L72.9,111z"/>
	<path class="st12" d="M75,113.4c1,0,1.9,0,2.2,0.9c0.1,0.2,0,1.1,0,1.3v0.3c1.8,1.4,6.7,4.7,10.4,0c0.7-1,2.1-1.2,3.1-0.4
		c1,0.7,1.2,2.1,0.4,3.1c-5.8,7.6-13,3.6-16.1,1.2C75,119.7,75,113.4,75,113.4z"/>
	<path class="st13" d="M73.2,115l-0.4-0.1c0,0-0.6-2.5-2.1-2.5c-1.2,0-1.8,0.5-2.3,1.3c-2.1-1.6-3.7-3.5-3.9-5.1
		c-0.2-1.7,0.4-3,1.7-4c2.5-1.9,6.2-1.5,9.5-1.5l-0.1,11.7C75.6,114.8,73.2,115,73.2,115z"/>
	<path class="st14" d="M77.1,114.8L77.1,114.8C77.1,114.9,77.2,114.9,77.1,114.8c0.3-0.3,1.1-2.5,2.4-2.5c1.2,0,1.8,0.5,2.3,1.3
		c2.1-1.6,3.7-3.5,3.9-5.1c0.2-1.7-0.4-3-1.7-4c-2.5-1.9-5.6-1.5-8.9-1.5L75,114.8C75,114.8,77.1,114.8,77.1,114.8z"/>
</g>
</svg>
