<?xml version="1.0" encoding="utf-8"?>
<!-- Generator: Adobe Illustrator 23.0.6, SVG Export Plug-In . SVG Version: 6.00 Build 0)  -->
<svg version="1.1" id="Layer_1" xmlns:xodm="http://www.corel.com/coreldraw/odm/2003"
	 xmlns="http://www.w3.org/2000/svg" xmlns:xlink="http://www.w3.org/1999/xlink" x="0px" y="0px" viewBox="0 0 144.9 144.9"
	 style="enable-background:new 0 0 144.9 144.9;" xml:space="preserve">
<style type="text/css">
	.st0{fill-rule:evenodd;clip-rule:evenodd;fill:#FFE376;}
	.st1{fill:#71698C;}
	.st2{fill:#776D96;}
	.st3{fill:#FFFFFF;}
	.st4{fill-rule:evenodd;clip-rule:evenodd;fill:#4B4366;}
	.st5{fill-rule:evenodd;clip-rule:evenodd;fill:#776D96;}
	.st6{fill-rule:evenodd;clip-rule:evenodd;fill:#B2A7D4;}
	.st7{fill-rule:evenodd;clip-rule:evenodd;fill:#716791;}
	.st8{fill:#9186B3;}
	.st9{fill-rule:evenodd;clip-rule:evenodd;fill:#9186B3;}
	.st10{fill:#F2F2F2;}
	.st11{fill:#F5F5F5;}
	.st12{fill:#968370;}
	.st13{fill:#7D6B59;}
	.st14{fill-rule:evenodd;clip-rule:evenodd;fill:#5E557A;}
	.st15{fill-rule:evenodd;clip-rule:evenodd;fill:#51486B;}
</style>
<g id="Слой_x0020_1">
	<g id="_1948688795872">
		<circle class="st0" cx="72.4" cy="72.4" r="72.4"/>
		<path class="st1" d="M33.4,71.5v7.9c0,1.6,1.3,2.9,3,2.9h36V33.6C50.9,33.7,33.4,50.7,33.4,71.5z"/>
		<path class="st2" d="M33.4,71.5v7.9c0,1.6,1.3,2.9,3,2.9h36V33.6C50.9,33.7,33.4,50.7,33.4,71.5z"/>
		<path class="st3" d="M27.3,94.7v5.8c0,1,0.5,1.9,1.4,2.5c0.8,0.5,2,0.5,2.9,0.1l7.7-3.7v6.9c0,1,0.5,1.9,1.4,2.5
			c0.8,0.5,2,0.6,2.9,0.1l8.3-4c1.9,8.2,8.9,14.5,17.5,15.7c0.9,0.2,1.9,0.2,2.9,0.2V51.8c-9.9-0.5-26.9-6.9-28.5,14.2
			C34,69.8,27.3,83.9,27.3,94.7L27.3,94.7z"/>
		<path class="st4" d="M52.3,76c-2.2,0-3.9,1.7-3.9,3.8c0,2.1,1.8,3.8,3.9,3.8c2.2,0,3.9-1.7,3.9-3.8C56.2,77.6,54.4,76,52.3,76z"/>
		<rect x="67.7" y="49" class="st5" width="4.7" height="40.9"/>
		<path class="st6" d="M80.7,40.3c0,0,12.8-17.6,28.4-22.2c5.8-1.7-2.6,35.3-2.6,35.3L80.7,40.3z"/>
		<path class="st7" d="M80.7,40.3c0,0,12.8-17.6,28.4-22.2c-13.7,9.6-17.9,27.6-17.9,27.6L80.7,40.3z"/>
		<path class="st1" d="M111.5,71.5v7.9c0,1.6-1.3,2.9-3,2.9h-36V33.6C94,33.7,111.5,50.7,111.5,71.5z"/>
		<path class="st2" d="M111.5,71.5v7.9c0,1.6-1.3,2.9-3,2.9h-36V33.6C94,33.7,111.5,50.7,111.5,71.5z"/>
		<path class="st3" d="M117.5,94.7v5.8c0,1-0.5,1.9-1.4,2.5c-0.8,0.5-2,0.5-2.9,0.1l-7.7-3.7v6.9c0,1-0.5,1.9-1.4,2.5
			c-0.8,0.5-2,0.6-2.9,0.1l-8.3-4c-1.9,8.2-8.9,14.5-17.5,15.7c-0.9,0.2-1.9,0.2-2.9,0.2V51.8c9.9-0.5,26.9-6.9,28.5,14.2
			C110.8,69.8,117.5,83.9,117.5,94.7L117.5,94.7z"/>
		<path class="st4" d="M95.4,78.7c2.2,0,3.9,1.7,3.9,3.8c0,2.1-1.8,3.8-3.9,3.8c-2.2,0-3.9-1.7-3.9-3.8
			C91.4,80.3,93.2,78.7,95.4,78.7z"/>
		<rect x="72.4" y="49" class="st5" width="4.7" height="40.9"/>
		<path class="st5" d="M102.9,66.8c-8.8-3.9-21.6-0.1-21.6,9.8c0,9.3,0,8.1,0,19.4l-9-1.9l-9,1.9c0-11.2,0-10,0-19.4
			c0-9.9-12.8-13.7-21.6-9.8c0.6-2.3-6.1-12.5,15.2-20.5l15.3,1.1l15.3-1.1C109,54.3,102.3,64.5,102.9,66.8z"/>
		<path class="st1" d="M33.4,71.5v7.9c0,1.6,1.3,2.9,3,2.9h36V33.6C50.9,33.7,33.4,50.7,33.4,71.5z"/>
		<path class="st6" d="M64.5,40.1c0,0-12.8-17.6-28.4-22.2c-5.8-1.7,2.6,35.3,2.6,35.3L64.5,40.1z"/>
		<path class="st7" d="M64.5,40.1c0,0-12.8-17.6-28.4-22.2c13.7,9.6,17.9,27.6,17.9,27.6L64.5,40.1z"/>
		<path class="st8" d="M33.4,71.5v7.9c0,1.6,1.3,2.9,3,2.9h36V33.6C50.9,33.7,33.4,50.7,33.4,71.5z"/>
		<path class="st3" d="M27.3,94.7v5.8c0,1,0.5,1.9,1.4,2.5c0.8,0.5,2,0.5,2.9,0.1l7.7-3.7v6.9c0,1,0.5,1.9,1.4,2.5
			c0.8,0.5,2,0.6,2.9,0.1l8.3-4c1.9,8.2,8.9,14.5,17.5,15.7c0.9,0.2,1.9,0.2,2.9,0.2V51.8c-9.9-0.5-26.9-6.9-28.5,14.2
			C34,69.8,27.3,83.9,27.3,94.7L27.3,94.7z"/>
		<path class="st4" d="M51.9,78.4c-2.2,0-3.9,1.7-3.9,3.8c0,2.1,1.8,3.8,3.9,3.8c2.2,0,3.9-1.7,3.9-3.8S54.1,78.4,51.9,78.4z"/>
		<polygon class="st5" points="67.7,49 72.4,49 72.4,89.9 67.7,89.9 		"/>
		<rect x="66.1" y="49.2" class="st5" width="13.9" height="42.8"/>
		<path class="st9" d="M72.4,94.1l-9,1.9c0-11.2,0-10,0-19.4c0-9.9-12.8-13.7-21.6-9.8c0.6-2.3-6.1-12.5,15.2-20.5l15.3,1.1v43.3
			V94.1z"/>
		<path class="st10" d="M117.5,94.7v5.8c0,1-0.5,1.9-1.4,2.5c-0.8,0.5-2,0.5-2.9,0.1l-7.7-3.7v6.9c0,1-0.5,1.9-1.4,2.5
			c-0.8,0.5-2,0.6-2.9,0.1l-8.3-4c-1.9,8.2-8.9,14.5-17.5,15.7c-0.9,0.2-1.9,0.2-2.9,0.2v0c0.1,0,0.2,0,0.4,0
			c9.3,0,16.9-9.5,16.9-21.1c0-0.3,0-0.5,0-0.8l6.4,3.1c0.9,0.5,2.1,0.4,2.9-0.1c0.9-0.6,1.4-1.5,1.4-2.5v-6.9l7.7,3.7
			c0.9,0.4,2.1,0.4,2.9-0.1c0.9-0.6,1.4-1.5,1.4-2.5v-5.8c0-5.5-1.7-11.7-4.6-17.1C113.8,76.8,117.5,86.7,117.5,94.7L117.5,94.7z"/>
		<path class="st11" d="M27.3,94.7v5.8c0,1,0.5,1.9,1.4,2.5c0.8,0.5,2,0.5,2.9,0.1l7.7-3.7v6.9c0,1,0.5,1.9,1.4,2.5
			c0.8,0.5,2,0.6,2.9,0.1l8.3-4c1.9,8.2,8.9,14.5,17.5,15.7c0.9,0.2,1.9,0.2,2.9,0.2v0c-9.2-0.2-16.5-9.6-16.5-21.1
			c0-0.4,0-0.8,0-1.2l-7.2,3.5c-0.9,0.5-2.1,0.4-2.9-0.1c-0.9-0.6-1.4-1.5-1.4-2.5v-6.9l-7.7,3.7c-0.9,0.4-2.1,0.4-2.9-0.1
			c-0.9-0.6-1.4-1.5-1.4-2.5v-5.8c0-5.5,1.7-11.7,4.6-17.1C31,76.8,27.3,86.7,27.3,94.7z"/>
		<path class="st12" d="M72.4,102.1c-1.1,0.1-2,1-2,2.1v3.4c-0.5,0.1-1,0.2-1.6,0.2h0c-1.1,0-2.3-0.3-3.4-0.8
			c-1.1-0.5-2.4,0-2.9,1.1c-0.5,1.1,0,2.3,1.1,2.8c1.7,0.7,3.5,1.1,5.2,1.1h0c1.3,0,2.5-0.2,3.6-0.6
			C72.4,111.4,72.4,102.1,72.4,102.1z"/>
		<path class="st12" d="M72.4,102.1c-1.1,0.1-2,1-2,2.1v4.8c0,0.8,0.5,1.6,1.3,1.9c0.3,0.1,0.5,0.3,0.8,0.4V102.1z"/>
		<path class="st13" d="M72.4,102.1c0.9,0.1,1.7,0.7,1.7,1c0,0,0.2,0.2,0.3,0.4c0.1,0.1,0,0.2,0,0.2c0,0.5,0,0.2,0,0.5v3.4
			c0.5,0.1,0.3,0.2,0.8,0.2h0c1.1,0,2.3-0.3,3.4-0.8c1.1-0.5,2.4,0,2.9,1.1c0.5,1.1,0,2.3-1.1,2.8c-1.7,0.7-3.5,1.1-5.2,1.1h0
			c-1.3,0-1.8-0.2-2.9-0.6L72.4,102.1L72.4,102.1z"/>
		<path class="st12" d="M72.4,102.1c-1.1,0.1-2,1-2,2.1v3.4c-0.5,0.1-1,0.2-1.6,0.2h0c-1.1,0-1.6-0.3-2.7-0.8
			c-1.1-0.5-2.4,0-2.9,1.1c-0.5,1.1,0,2.3,1.1,2.8c1.7,0.7,2.7,1.1,4.5,1.1h0c1.3,0,2.5-0.2,3.6-0.6
			C72.4,111.4,72.4,102.1,72.4,102.1z"/>
		<path class="st12" d="M72.4,102.1c-0.9,0.1-2.3,0.6-2.1,1.3c0,0.1,0.1,0.1,0.1,0.3c0,0.5,0,0.4,0,0.5v4.8c0,0.8,0.5,1.6,1.3,1.9
			c0.3,0.1,0.5,0.3,0.8,0.4V102.1z"/>
		<path class="st14" d="M70.6,103.7L70.6,103.7c0,0.1-0.3-0.3-0.3-0.3c-0.3-0.8-1-2.1-2.1-2.1c-1.2,0-1.9,0.5-2.3,1.3
			c-2.2-1.6-3.8-3.5-4-5.1c-0.2-1.7,0.4-3,1.7-4c2.6-1.9,5.7-1.5,9.1-1.5v11.7L70.6,103.7z"/>
		<path class="st15" d="M74.5,103.7L74.5,103.7c0,0.1,0.3-0.3,0.3-0.3c0.3-0.8,1-2.1,2.1-2.1c1.2,0,1.8,0.5,2.3,1.3
			c2.1-1.6,3.7-3.5,3.9-5.1c0.2-1.7-0.4-3-1.7-4c-2.5-1.9-5.6-1.5-8.9-1.5v11.7L74.5,103.7z"/>
	</g>
</g>
</svg>
