<?xml version="1.0" encoding="utf-8"?>
<!-- Generator: Adobe Illustrator 23.0.6, SVG Export Plug-In . SVG Version: 6.00 Build 0)  -->
<svg version="1.1" id="Layer_1" xmlns:xodm="http://www.corel.com/coreldraw/odm/2003"
	 xmlns="http://www.w3.org/2000/svg" xmlns:xlink="http://www.w3.org/1999/xlink" x="0px" y="0px" viewBox="0 0 144.9 144.9"
	 style="enable-background:new 0 0 144.9 144.9;" xml:space="preserve">
<style type="text/css">
	.st0{fill-rule:evenodd;clip-rule:evenodd;fill:#99CC99;}
	.st1{fill:#FFD51C;}
	.st2{fill:#FFDE4C;}
	.st3{fill:#EFB025;}
	.st4{fill:#AD871F;}
	.st5{fill:#EDC515;}
	.st6{fill:#F2CC24;}
	.st7{fill:#A7D134;}
	.st8{fill:#C6F052;}
	.st9{fill:#99AA52;}
	.st10{fill:#A8BA5F;}
</style>
<g id="Слой_x0020_1">
	<circle class="st0" cx="72.5" cy="72.5" r="72.5"/>
	<path class="st1" d="M106.8,89.4c0,18.9-15.4,34.2-34.3,34.1c-18.9-0.1-34.1-15.8-33.8-34.7c0.1-6.4,2-12.3,5.1-17.4
		c3.8-6.1,6.8-12.6,8.6-19.5c2.1-7.7,6-14,10.8-17.6c2.3-1.7,4.8-2.8,7.4-3.2l32,42c0.3,0.6,0.6,1.2,0.9,1.9
		C105.6,79.4,106.8,84.3,106.8,89.4z"/>
	<path class="st2" d="M72.7,123.5c-0.1,0-0.2,0-0.2,0c-18.9-0.1-34.1-15.8-33.8-34.7c0.1-6.4,2-12.3,5.1-17.4
		c3.8-6.1,6.8-12.6,8.6-19.5c2.1-7.7,6-14,10.8-17.6c2.3-1.7,4.8-2.8,7.4-3.2l2,2.7V123.5z"/>
	<path class="st3" d="M72.7,33.8l-1.8-2.3c0.3-0.2,0.5-0.3,0.8-0.4C71.8,31.2,72.7,33.8,72.7,33.8z"/>
	<path class="st4" d="M72.9,38.4c-1.3,0-2.4-1.1-2.4-2.4c0-9.4-3.6-16.1-10.8-19.7c-1.2-0.6-1.7-2.1-1.1-3.3s2.1-1.7,3.3-1.1
		c8.8,4.5,13.5,12.8,13.5,24.1C75.4,37.3,74.3,38.4,72.9,38.4L72.9,38.4L72.9,38.4z"/>
	<path class="st5" d="M106.8,89.4c0,18.9-15.4,34.2-34.3,34.1c-13.3-0.1-24.9-7.9-30.4-19.2c6.1,5.8,14.2,9.4,23.2,9.4
		c18.9,0.1,34.3-15.2,34.3-34.1c0-5.1-1.1-10-3.2-14.4c-0.1-0.2-0.2-0.5-0.4-0.7l6.5,8.6c0.3,0.6,0.6,1.2,0.9,1.9
		C105.6,79.4,106.8,84.3,106.8,89.4z"/>
	<path class="st6" d="M72.7,123.5L72.7,123.5L72.7,123.5L72.7,123.5L72.7,123.5L72.7,123.5L72.7,123.5L72.7,123.5L72.7,123.5
		L72.7,123.5L72.7,123.5L72.7,123.5L72.7,123.5L72.7,123.5L72.7,123.5L72.7,123.5L72.7,123.5L72.7,123.5L72.7,123.5L72.7,123.5
		L72.7,123.5L72.7,123.5L72.7,123.5L72.7,123.5L72.7,123.5L72.7,123.5L72.7,123.5L72.7,123.5l-0.1,0h0h0l0,0h0h0h0h0h0h0h0l0,0h0h0
		h0h0h0h0h0h0h0h0h0h0h0h0h0h0c-0.3,0-0.5,0-0.8,0l-0.2,0c-0.2,0-0.4,0-0.7,0l-0.2,0c-0.3,0-0.5,0-0.8-0.1l-0.2,0
		c-0.2,0-0.4,0-0.6-0.1l-0.2,0c-0.3,0-0.5-0.1-0.8-0.1l0,0c-0.2,0-0.5-0.1-0.7-0.1l-0.2,0c-0.2,0-0.5-0.1-0.7-0.1l-0.1,0
		c-0.3,0-0.5-0.1-0.8-0.2l-0.2,0c-0.2,0-0.4-0.1-0.6-0.1l-0.2,0c-0.2-0.1-0.5-0.1-0.7-0.2l-0.2,0c-0.2-0.1-0.4-0.1-0.6-0.2l-0.2-0.1
		c-0.2-0.1-0.4-0.1-0.7-0.2l0,0l0,0l0,0c-0.2-0.1-0.5-0.1-0.7-0.2l-0.2-0.1c-0.2-0.1-0.3-0.1-0.5-0.2l-0.2-0.1
		c-0.2-0.1-0.4-0.2-0.7-0.3l-0.2-0.1c-0.2-0.1-0.3-0.1-0.5-0.2l-0.2-0.1c-0.2-0.1-0.4-0.2-0.6-0.3l-0.2-0.1
		c-0.1-0.1-0.3-0.1-0.4-0.2l-0.3-0.1c-0.1-0.1-0.3-0.1-0.4-0.2l-0.2-0.1c-0.2-0.1-0.4-0.2-0.6-0.3l-0.2-0.1l-0.4-0.2l-0.2-0.1
		c-0.2-0.1-0.4-0.2-0.6-0.3l-0.2-0.1l-0.4-0.2l-0.3-0.2l-0.4-0.2c-0.1-0.1-0.3-0.2-0.4-0.3l-0.3-0.2l-0.3-0.2l-0.3-0.2l-0.3-0.2l0,0
		c-0.2-0.1-0.3-0.2-0.5-0.4l0,0l-0.3-0.2l-0.2-0.2l-0.3-0.3l-0.3-0.2c-0.2-0.1-0.3-0.3-0.5-0.4l-0.2-0.2l-0.3-0.3l-0.2-0.2
		c-0.2-0.2-0.4-0.3-0.5-0.5l-0.2-0.2l-0.3-0.3l-0.2-0.2l-0.3-0.3l-0.1-0.1c-0.2-0.2-0.4-0.5-0.6-0.7l-0.1-0.2l-0.3-0.3l-0.1-0.2
		c-0.2-0.2-0.4-0.5-0.6-0.7l-0.1-0.1c-0.1-0.1-0.2-0.2-0.3-0.4l-0.2-0.2c-0.3-0.4-0.6-0.8-0.9-1.2l-0.1-0.2
		c-0.1-0.1-0.2-0.3-0.3-0.4l0-0.1c-0.2-0.3-0.3-0.5-0.5-0.8l-0.1-0.2c-0.1-0.1-0.2-0.3-0.2-0.4l-0.1-0.2c-0.2-0.3-0.3-0.6-0.5-0.9
		l0,0c-0.1-0.1-0.2-0.3-0.2-0.4l-0.1-0.1c-0.1-0.1-0.2-0.3-0.2-0.4c6.1,5.8,14.2,9.4,23.2,9.4c2.5,0,5-0.2,7.4-0.7L72.7,123.5
		L72.7,123.5z"/>
	<path class="st7" d="M101.2,44.3C95,33.8,83.9,28.1,72.6,28.2C67.1,38,66.8,50.5,73,61c6.2,10.4,17.2,16.2,28.6,16.1
		C107.1,67.2,107.3,54.7,101.2,44.3z"/>
	<path class="st8" d="M101.2,44.3c-6.1-10.3-16.9-16-28-16.1l28.3,48.9C107.1,67.2,107.3,54.7,101.2,44.3z"/>
	<path class="st9" d="M94.5,66.9c-0.6,0-1.1-0.3-1.4-0.8L85,52.4L71.7,29.9c-0.1-0.2,0.4-1.3,1.1-1.9c0.6-0.5,1.8,0.2,1.8,0.2
		L96,64.4c0.5,0.8,0.2,1.8-0.6,2.3C95.1,66.8,94.8,66.9,94.5,66.9C94.5,66.9,94.5,66.9,94.5,66.9z"/>
	<path class="st9" d="M84.3,59.9c-0.2,0-0.3,0-0.5-0.1c-0.9-0.3-1.3-1.2-1.1-2.1l2.1-6.7c0.3-0.9,1.2-1.3,2.1-1.1l6.7,2.1
		c0.9,0.3,1.3,1.2,1.1,2.1c-0.3,0.9-1.2,1.3-2.1,1.1l-5.1-1.6l-1.6,5.1C85.6,59.5,85,59.9,84.3,59.9z"/>
	<path class="st9" d="M76.3,50c-0.2,0-0.3,0-0.5-0.1c-0.9-0.3-1.3-1.2-1.1-2.1l2.9-9c0.1-0.4,0.4-0.8,0.8-1c0.4-0.2,0.8-0.2,1.3-0.1
		l9,2.9c0.9,0.3,1.3,1.2,1.1,2.1c-0.3,0.9-1.2,1.3-2.1,1.1l-7.5-2.4l-2.4,7.5C77.6,49.5,77,50,76.3,50C76.3,50,76.3,50,76.3,50z"/>
	<path class="st10" d="M73,27.8c0.6-0.2,1.5,0.4,1.5,0.4L96,64.4c0.4,0.7,0.2,1.7-0.5,2.2C95.5,66.6,73,27.8,73,27.8z"/>
	<path class="st10" d="M85.9,50c0.3-0.1,0.7-0.1,1.1,0l6.7,2.1c0.9,0.3,1.3,1.2,1.1,2.1c-0.3,0.9-1.2,1.3-2.1,1.1l-4.6-1.5
		C88.1,53.8,85.9,50,85.9,50z"/>
	<path class="st10" d="M78.7,37.7c0.3-0.1,0.6-0.1,0.9,0l9,2.9c0.9,0.3,1.3,1.2,1.1,2.1c-0.3,0.9-1.2,1.3-2.1,1.1L81,41.6
		C81,41.6,78.7,37.7,78.7,37.7z"/>
</g>
</svg>
