<?xml version="1.0" encoding="utf-8"?>
<!-- Generator: Adobe Illustrator 23.0.6, SVG Export Plug-In . SVG Version: 6.00 Build 0)  -->
<svg version="1.1" id="Layer_1" xmlns:xodm="http://www.corel.com/coreldraw/odm/2003"
	 xmlns="http://www.w3.org/2000/svg" xmlns:xlink="http://www.w3.org/1999/xlink" x="0px" y="0px" viewBox="0 0 144.9 151.8"
	 style="enable-background:new 0 0 144.9 151.8;" xml:space="preserve">
<style type="text/css">
	.st0{fill-rule:evenodd;clip-rule:evenodd;fill:#BBEFFC;}
	.st1{fill-rule:evenodd;clip-rule:evenodd;fill:#AD9562;}
	.st2{fill-rule:evenodd;clip-rule:evenodd;fill:#CFB680;}
	.st3{fill-rule:evenodd;clip-rule:evenodd;fill:#C4AB76;}
	.st4{fill-rule:evenodd;clip-rule:evenodd;fill:#FAD482;}
	.st5{fill-rule:evenodd;clip-rule:evenodd;fill:#B8A06C;}
	.st6{fill-rule:evenodd;clip-rule:evenodd;fill:#E3BC68;}
	.st7{fill-rule:evenodd;clip-rule:evenodd;fill:#CCA758;}
	.st8{fill-rule:evenodd;clip-rule:evenodd;fill:#4B4366;}
	.st9{fill-rule:evenodd;clip-rule:evenodd;fill:#D9B76C;}
	.st10{fill-rule:evenodd;clip-rule:evenodd;fill:#FFE3A8;}
	.st11{fill-rule:evenodd;clip-rule:evenodd;fill:#FFF5DE;}
	.st12{fill:#9E8756;}
</style>
<g id="Слой_x0020_1">
	<g id="_1948538716096">
		<circle class="st0" cx="72.5" cy="79.4" r="72.5"/>
		<path class="st1" d="M57.3,64.9c1.7-40-41.1-40.6-14.6-63.3c2.1-1.8,3.7-1,2.2,2c-2.4,4.7-8.3,7.6-7,11.4c0.7,2.2,3,4.9,7.9,9
			c13.6,11.4,20.9,19,23.5,39.2C66.5,69.5,60.6,71.7,57.3,64.9z"/>
		<path class="st2" d="M60.5,63.5c1.7-40-43.7-39.9-17.2-62.6c2.1-1.8,3.7-1,2.2,2c-2.4,4.7-5.7,6.9-4.4,10.7c0.7,2.2,3,4.9,7.9,9
			c13.6,11.4,20.9,19,23.5,39.2C69.7,68.1,63.8,70.3,60.5,63.5z"/>
		<path class="st3" d="M59.1,50.3c-0.4-1.4-0.8-2.7-1.3-4c2.2,0.2,5.9-0.2,9.5-2.9c0.6,1.2,1.1,2.4,1.6,3.7
			C65.4,49.6,61.8,50.2,59.1,50.3z"/>
		<path class="st3" d="M57.5,45.3c-0.6-1.4-1.2-2.7-1.9-3.9c2.3,0.1,5.6-0.4,9-2.9c0.7,1.1,1.4,2.2,2.1,3.4
			C63.4,44.3,60.1,45.1,57.5,45.3L57.5,45.3z"/>
		<path class="st3" d="M54.6,39.8c-0.9-1.4-1.8-2.7-2.7-4c1.9,0.2,5.4,0.2,9-2.1c0.9,1,1.7,2,2.5,3.1C60.2,38.9,57.1,39.7,54.6,39.8
			L54.6,39.8z"/>
		<path class="st3" d="M51.2,35c-1.1-1.3-2.2-2.6-3.3-3.8c1.8,0.1,5-0.1,8.2-2.2c1,0.9,2,1.9,2.9,2.8C56.3,33.7,53.5,34.6,51.2,35
			L51.2,35z"/>
		<path class="st3" d="M46.9,30.1c-1.2-1.3-2.4-2.5-3.6-3.6c1.8,0,4.7-0.4,7.5-2.2c1.1,0.9,2.1,1.8,3.1,2.7
			C51.5,28.7,49,29.6,46.9,30.1L46.9,30.1z"/>
		<path class="st3" d="M41.6,24.8c-1.3-1.3-2.5-2.6-3.5-3.8c1.5,0.1,4.3,0,7.2-1.5c0.9,0.9,1.9,1.8,3.1,2.8
			C46.1,23.8,43.7,24.5,41.6,24.8L41.6,24.8z"/>
		<path class="st3" d="M36.9,19.2c-0.8-1.3-1.4-2.6-1.7-3.9c1.6,0,3.8-0.3,6-1.3c0.4,1,1.1,2.1,2.2,3.3C41.1,18.5,38.8,19,36.9,19.2
			L36.9,19.2z"/>
		<path class="st3" d="M35,13c0.1-1.2,0.4-2.5,1.1-3.8c1.7,0.1,3.7,0,5.9-0.8c-0.9,1.5-1.5,2.8-1.2,4.5C38.7,13.3,36.7,13.3,35,13
			L35,13z"/>
		<path class="st3" d="M37.4,7.2C38.1,6.1,39,5,40.2,3.8c1.4,0.3,3,0.4,4.8,0.1c-0.9,1.6-1.9,2.9-2.7,4.1C40.4,8,38.8,7.6,37.4,7.2
			L37.4,7.2z"/>
		<path class="st4" d="M63.6,63.4c-6.4-14.8-19.9-25.7-38.2-32.9c-6.7-2.6,3.2,25,18.9,33.9C51,68.1,53.9,66.5,63.6,63.4z"/>
		<path class="st1" d="M87.5,64.9c-1.7-40,41.1-40.6,14.6-63.3c-2.1-1.8-3.7-1-2.2,2c2.4,4.7,8.3,7.6,7,11.4c-0.7,2.2-3,4.9-7.9,9
			C85.4,35.4,78.1,43,75.5,63.2C78.2,69.5,84.2,71.7,87.5,64.9z"/>
		<path class="st5" d="M23.3,31.9c-0.7,5.7,8.2,25.3,20.9,32.5c2.9,1.7,5.1,2.3,7.5,2.2C47.6,53.7,35.1,38.8,23.3,31.9L23.3,31.9z"
			/>
		<path class="st2" d="M84.4,63.5c-1.7-40,43.7-39.9,17.2-62.6c-2.1-1.8-3.7-1-2.2,2c2.4,4.7,5.7,6.9,4.4,10.7c-0.7,2.2-3,4.9-7.9,9
			C82.4,34,75.1,41.6,72.5,61.8C75.2,68.1,81.1,70.3,84.4,63.5z"/>
		<path class="st5" d="M85.8,50.3c0.4-1.4,0.8-2.7,1.3-4c-2.2,0.2-5.9-0.2-9.5-2.9c-0.6,1.2-1.1,2.4-1.6,3.7
			C79.5,49.6,83.1,50.2,85.8,50.3z"/>
		<path class="st5" d="M87.4,45.3c0.6-1.4,1.2-2.7,1.9-3.9c-2.3,0.1-5.6-0.4-9-2.9c-0.7,1.1-1.4,2.2-2.1,3.4
			C81.5,44.3,84.8,45.1,87.4,45.3L87.4,45.3z"/>
		<path class="st5" d="M90.3,39.8c0.9-1.4,1.8-2.7,2.7-4c-1.9,0.2-5.4,0.2-9-2.1c-0.9,1-1.7,2-2.5,3.1
			C84.7,38.9,87.8,39.7,90.3,39.8L90.3,39.8z"/>
		<path class="st5" d="M93.7,35c1.1-1.3,2.2-2.6,3.3-3.8c-1.8,0.1-5-0.1-8.2-2.2c-1,0.9-2,1.9-2.9,2.8C88.6,33.7,91.4,34.6,93.7,35
			L93.7,35z"/>
		<path class="st5" d="M98,30.1c1.2-1.3,2.4-2.5,3.6-3.6c-1.8,0-4.7-0.4-7.5-2.2c-1.1,0.9-2.1,1.8-3.1,2.7
			C93.4,28.7,95.9,29.6,98,30.1L98,30.1z"/>
		<path class="st5" d="M103.3,24.8c1.3-1.3,2.5-2.6,3.5-3.8c-1.5,0.1-4.3,0-7.2-1.5c-0.9,0.9-1.9,1.8-3.1,2.8
			C98.8,23.8,101.2,24.5,103.3,24.8L103.3,24.8z"/>
		<path class="st5" d="M108,19.2c0.8-1.3,1.4-2.6,1.7-3.9c-1.6,0-3.8-0.3-6-1.3c-0.4,1-1.1,2.1-2.2,3.3
			C103.8,18.5,106.1,19,108,19.2L108,19.2z"/>
		<path class="st5" d="M109.9,13c-0.1-1.2-0.4-2.5-1.1-3.8c-1.7,0.1-3.7,0-5.9-0.8c0.9,1.5,1.5,2.8,1.2,4.5
			C106.2,13.3,108.2,13.3,109.9,13L109.9,13z"/>
		<path class="st5" d="M107.5,7.2c-0.7-1.1-1.7-2.2-2.8-3.4c-1.4,0.3-3,0.4-4.8,0.1c0.9,1.6,1.9,2.9,2.7,4.1
			C104.5,8,106.1,7.6,107.5,7.2L107.5,7.2z"/>
		<path class="st6" d="M81.3,63.4c6.4-14.8,19.9-25.7,38.2-32.9c6.7-2.6-3.2,25-18.9,33.9C93.9,68.1,91,66.5,81.3,63.4z"/>
		<path class="st5" d="M121.6,31.9c0.7,5.7-8.2,25.3-20.9,32.5c-2.9,1.7-5.1,2.3-7.5,2.2C97.3,53.7,109.8,38.8,121.6,31.9
			L121.6,31.9z"/>
		<path class="st4" d="M72.5,141.3c1.3-0.1,3-0.1,4.2-0.4c6.3-1.4,10.9-5.8,13.7-12.3c4.3-10.2,0.2-10.4-0.3-19
			c-0.1-2.3,0.4-5.1,2.2-9.4c14.2-33.3-2.8-50-19.8-50c-17,0-34,16.7-19.8,50c1.8,4.3,2.3,7.2,2.2,9.4c-0.5,8.6-4.6,8.8-0.3,19
			c2.8,6.5,7.4,10.9,13.7,12.3C69.5,141.2,71.1,141.2,72.5,141.3L72.5,141.3z"/>
		<path class="st6" d="M72.5,141.3c1.3-0.1,3-0.1,4.2-0.4c6.3-1.4,10.9-5.8,13.7-12.3c4.3-10.2,0.2-10.4-0.3-19
			c-0.1-2.3,0.4-5.1,2.2-9.4c14.2-33.3-2.8-50-19.8-50L72.5,141.3L72.5,141.3z"/>
		<path class="st7" d="M90,109.6c-6.6-12.6-12.3-29.4,7.5-31.3c0.2-4.8-1.3-14.5-3.2-15c-9.9-2.8-15.8,1.6-19.5,8.6
			C68.6,83.9,72,103.2,90,109.6z"/>
		<path class="st8" d="M91.1,82.5c2,0,3.6,1.6,3.6,3.6c0,2-1.6,3.6-3.6,3.6c-2,0-3.6-1.6-3.6-3.6C87.5,84.1,89.1,82.5,91.1,82.5z"/>
		<path class="st9" d="M55,109.6c6.6-12.6,12.3-29.4-7.5-31.3c-0.2-4.8,1.3-14.5,3.2-15c9.9-2.8,15.8,1.6,19.5,8.6
			C76.4,83.9,73,103.2,55,109.6z"/>
		<path class="st8" d="M54.5,82.5c-2,0-3.6,1.6-3.6,3.6c0,2,1.6,3.6,3.6,3.6c2,0,3.6-1.6,3.6-3.6C58.1,84.1,56.5,82.5,54.5,82.5z"/>
		<path class="st10" d="M72.5,141.3c1.3-0.1,3-0.1,4.2-0.4c6.3-1.4,10.9-5.8,13.7-12.3c4.3-10.2,0.2-10.4-0.3-19
			C73.6,96.5,78.1,81.8,73.6,68.6c-0.2-0.5-0.2-1.2-1.2-1.2c-0.9,0-1,0.7-1.3,1.3c-2.5,13.5-4.7,32.3-16.3,41
			c-0.5,8.6-4.6,8.8-0.3,19c2.8,6.5,7.4,10.9,13.7,12.3C69.5,141.2,71.1,141.2,72.5,141.3z"/>
		<path class="st11" d="M72.5,67.3c-0.9,0-1,0.7-1.3,1.3c-2.5,13.5-4.7,32.3-16.3,41c-0.5,8.6-4.6,8.8-0.3,19
			c2.8,6.5,7.4,10.9,13.7,12.3c1.2,0.3,2.8,0.3,4.2,0.4V67.3L72.5,67.3z"/>
		<path class="st12" d="M80.8,129c-0.1,1.1-1,1.9-2.1,1.9s-1.9-1-1.9-2.1c0,0,0.2-5.2,5.8-7.4c1-0.4,2.2,0.1,2.6,1.1
			c0.4,1-0.1,2.2-1.1,2.6C80.9,126.4,80.8,129,80.8,129z"/>
		<path class="st12" d="M68,128.8c0.1,1.1-0.8,2-1.9,2.1c-1.1,0.1-2-0.8-2.1-1.9c0,0-0.1-2.6-3.3-3.9c-1-0.4-1.5-1.6-1.1-2.6
			c0.4-1,1.6-1.5,2.6-1.1C67.8,123.6,68,128.8,68,128.8z"/>
	</g>
</g>
</svg>
