<?xml version="1.0" encoding="utf-8"?>
<!-- Generator: Adobe Illustrator 23.0.6, SVG Export Plug-In . SVG Version: 6.00 Build 0)  -->
<svg version="1.1" id="Layer_1" xmlns:xodm="http://www.corel.com/coreldraw/odm/2003"
	 xmlns="http://www.w3.org/2000/svg" xmlns:xlink="http://www.w3.org/1999/xlink" x="0px" y="0px" viewBox="0 0 144.9 144.9"
	 style="enable-background:new 0 0 144.9 144.9;" xml:space="preserve">
<style type="text/css">
	.st0{fill-rule:evenodd;clip-rule:evenodd;fill:#FFE9DB;}
	.st1{fill:#FF8585;}
	.st2{fill:#F57070;}
	.st3{fill:#D19A6E;}
	.st4{fill:#8A9FA6;}
	.st5{fill:#96ADB5;}
	.st6{fill:#DBEAFF;}
	.st7{fill:#FFFFFF;}
	.st8{fill-rule:evenodd;clip-rule:evenodd;fill:#FFFFFF;}
	.st9{fill:#B3CAD1;}
	.st10{fill:#C3D8E0;}
</style>
<g id="Слой_x0020_1">
	<circle class="st0" cx="72.4" cy="72.4" r="72.4"/>
	<path class="st1" d="M92.8,16.8H71.6v14.3h21.2c1.1,0,1.8-1.3,1.2-2.2L90.7,24l3.3-4.9C94.6,18.1,93.9,16.8,92.8,16.8z"/>
	<path class="st2" d="M70.4,16.8h7.2v14.3h-7.2V16.8z"/>
	<path class="st3" d="M70.9,15.4c-0.9,0-1.6,0.7-1.6,1.6v30.5h3.2V17C72.5,16.1,71.8,15.4,70.9,15.4z"/>
	<path class="st4" d="M91.1,62.3l-27.7-4.9L51.3,83.6v24.1h63.1L93.5,66.8l-0.7-0.5C92.8,66.4,91.1,62.3,91.1,62.3z"/>
	<path class="st5" d="M63.4,57.3L51.3,83.6v24.1h7.9c2.8-11.4,7.8-32.9,11.5-49L63.4,57.3z"/>
	<path class="st6" d="M68.7,64.9c1.2,1.2,3.1,1.2,4.3,0l2.7-2.7c0.6-0.6,1.7-0.6,2.2,0.1l8,10.1c1.4,1.7,4.1,1.4,5-0.5l2.5-5
		l-7.8-15.2c-0.8-1.5-2.5-2.1-4-1.3l-2.2,1.1c-0.7,0.3-1.5,0.1-1.9-0.5l-3.8-5.3c-1.3-1.9-4.2-1.6-5.2,0.5l-5.9,12.8
		C62.7,58.9,68.7,64.9,68.7,64.9z"/>
	<path class="st7" d="M73.7,45.6c-1.4-1.7-4.1-1.4-5.1,0.6l-5.9,12.8l6,6c0.1,0.1,0.3,0.3,0.5,0.4C70.9,57.5,72.6,50.5,73.7,45.6
		C73.7,45.6,73.7,45.6,73.7,45.6z"/>
	<path class="st8" d="M25.1,103.4H115c2,0,3.7,1.6,3.7,3.7v0c0,2-1.6,3.7-3.7,3.7H25.1c-2,0-3.7-1.6-3.7-3.7v0
		C21.4,105,23.1,103.4,25.1,103.4z"/>
	<path class="st7" d="M49.4,56.8H22.6c-2.9,0-5.3-2.4-5.3-5.3v-0.3c0-2.9,2.4-5.3,5.3-5.3h1.6c-0.1-0.5-0.2-1.1-0.2-1.7
		c0-4,3.2-7.2,7.2-7.2c2.3,0,4.3,1,5.6,2.7c1.2-1,2.9-1.7,4.6-1.7c4,0,7.2,3.2,7.2,7.2c0,0.2,0,0.5,0,0.7h0.9c2.9,0,5.3,2.4,5.3,5.3
		v0.3C54.7,54.4,52.3,56.8,49.4,56.8z"/>
	<path class="st9" d="M60.5,87c-1.1-1.2-3-1.1-3.9,0.1l-0.9,1.2c-0.5,0.7-1.5,0.7-2,0l-8-10.7c-1.1-1.5-3.3-1.3-4.2,0.3L27,103.5
		h47.9C74.8,103.5,60.5,87,60.5,87z"/>
	<path class="st10" d="M46.8,79.1l-1.1-1.5c-1.1-1.5-3.3-1.3-4.2,0.3L27,103.5h12.9C39.9,103.5,46.8,79.1,46.8,79.1z"/>
</g>
</svg>
