<?xml version="1.0" encoding="utf-8"?>
<!-- Generator: Adobe Illustrator 23.0.6, SVG Export Plug-In . SVG Version: 6.00 Build 0)  -->
<svg version="1.1" id="Layer_1" xmlns:xodm="http://www.corel.com/coreldraw/odm/2003"
	 xmlns="http://www.w3.org/2000/svg" xmlns:xlink="http://www.w3.org/1999/xlink" x="0px" y="0px" viewBox="0 0 144.9 144.9"
	 style="enable-background:new 0 0 144.9 144.9;" xml:space="preserve">
<style type="text/css">
	.st0{fill-rule:evenodd;clip-rule:evenodd;fill:#BBEFFC;}
	.st1{fill:#CEC2F2;}
	.st2{fill:#BDAFE6;}
	.st3{fill:#D19A6E;}
	.st4{fill:#8A9FA6;}
	.st5{fill:#96ADB5;}
	.st6{fill:#DEECFF;}
	.st7{fill:#B3CAD1;}
	.st8{fill:#F2F7FF;}
	.st9{fill:#C3D8E0;}
	.st10{fill-rule:evenodd;clip-rule:evenodd;fill:#FFFFFF;}
	.st11{fill:#FFFFFF;}
	.st12{fill-rule:evenodd;clip-rule:evenodd;fill:#66BB6A;}
	.st13{fill-rule:evenodd;clip-rule:evenodd;fill:#8AD48E;}
</style>
<g id="Слой_x0020_1">
	<circle class="st0" cx="72.5" cy="72.5" r="72.5"/>
	<path class="st1" d="M92.8,16.8H71.6v14.3h21.2c1.1,0,1.8-1.3,1.2-2.2L90.7,24l3.3-4.9C94.7,18.1,94,16.8,92.8,16.8z"/>
	<path class="st2" d="M70.4,16.8h7.2v14.3h-7.2V16.8z"/>
	<path class="st3" d="M70.9,15.4c-0.9,0-1.6,0.7-1.6,1.6v30.5h3.2V17C72.5,16.1,71.8,15.4,70.9,15.4z"/>
	<path class="st4" d="M91.2,62.3l-27.7-4.9L51.3,83.6v24.1h63.1C114.4,107.6,91.2,62.3,91.2,62.3z"/>
	<path class="st5" d="M63.5,57.4L51.3,83.6v24.1h7.9c2.8-11.4,7.8-32.9,11.5-49C70.7,58.6,63.5,57.4,63.5,57.4z"/>
	<path class="st6" d="M68.7,64.9c1.2,1.2,3.1,1.2,4.3,0l2.7-2.7c0.6-0.6,1.7-0.6,2.2,0.1l8,10.1c1.4,1.7,4.1,1.4,5-0.5l2.5-5
		l-7.8-15.2c-0.8-1.5-2.5-2.1-4-1.3l-2.2,1.1c-0.7,0.3-1.5,0.1-1.9-0.5l-3.8-5.3c-1.3-1.9-4.2-1.6-5.2,0.5l-5.9,12.8L68.7,64.9
		L68.7,64.9z"/>
	<path class="st7" d="M72.2,82.4c-1.5-1.7-4.2-1.6-5.6,0.2l-1.3,1.7c-0.7,1-2.1,1-2.9,0L51.1,69.1c-1.5-2.1-4.7-1.9-6,0.4
		l-20.6,36.4l68,0L72.2,82.4z"/>
	<path class="st8" d="M73.7,45.6c-1.4-1.7-4.1-1.4-5.1,0.6l-5.9,12.8l6,6c0.1,0.1,0.3,0.3,0.5,0.4C70.9,57.5,72.6,50.5,73.7,45.6z"
		/>
	<path class="st9" d="M52.7,71.2l-1.6-2.1c-1.5-2.1-4.7-1.9-6,0.4l-20.6,36.4l18.4,0C43,105.9,52.7,71.2,52.7,71.2z"/>
	<path class="st10" d="M25.1,103.4H115c2,0,3.7,1.6,3.7,3.7v0c0,2-1.6,3.7-3.7,3.7H25.1c-2,0-3.7-1.6-3.7-3.7v0
		C21.5,105.1,23.1,103.4,25.1,103.4z"/>
	<path class="st11" d="M49.4,56.8H22.6c-2.9,0-5.3-2.4-5.3-5.3v-0.3c0-2.9,2.4-5.3,5.3-5.3h1.6c-0.1-0.5-0.2-1.1-0.2-1.7
		c0-4,3.2-7.2,7.2-7.2c2.3,0,4.3,1,5.6,2.7c1.2-1,2.9-1.7,4.6-1.7c4,0,7.2,3.2,7.2,7.2c0,0.2,0,0.5,0,0.7h0.9c2.9,0,5.3,2.4,5.3,5.3
		v0.3C54.7,54.4,52.3,56.8,49.4,56.8z"/>
	<path class="st11" d="M122.3,87.2H97.4c-2.7,0-5-2.2-5-5v-0.3c0-2.7,2.2-5,5-5h1.5c-0.1-0.5-0.2-1-0.2-1.6c0-3.7,3-6.7,6.7-6.7
		c2.1,0,4,1,5.2,2.5c1.2-1,2.7-1.6,4.3-1.6c3.7,0,6.7,3,6.7,6.7c0,0.2,0,0.4,0,0.6h0.8c2.7,0,5,2.2,5,5v0.3
		C127.2,85,125,87.2,122.3,87.2z"/>
	<path class="st12" d="M79.9,95.5c3.4,0,6.3,3.4,7,7.9H41.4c0-5.6,3.2-10.2,7.2-10.2c2.5,0,4.6,1.8,5.9,4.5c2.8-4.3,6.9-7,11.4-7
		c4.1,0,7.9,2.3,10.7,6C77.6,95.9,78.7,95.5,79.9,95.5z"/>
	<path class="st13" d="M112.4,98.7c2.8,0,5.1,2.1,5.7,4.9H81.1c0-3.5,2.6-6.3,5.8-6.3c2,0,3.8,1.1,4.8,2.8c2.3-2.7,5.6-4.4,9.2-4.4
		c3.3,0,6.4,1.4,8.7,3.7C110.5,99,111.4,98.7,112.4,98.7z"/>
</g>
</svg>
