<?xml version="1.0" encoding="utf-8"?>
<!-- Generator: Adobe Illustrator 23.0.6, SVG Export Plug-In . SVG Version: 6.00 Build 0)  -->
<svg version="1.1" id="Layer_1" xmlns:xodm="http://www.corel.com/coreldraw/odm/2003"
	 xmlns="http://www.w3.org/2000/svg" xmlns:xlink="http://www.w3.org/1999/xlink" x="0px" y="0px" viewBox="0 0 150 170"
	 style="enable-background:new 0 0 150 170;" xml:space="preserve">
<style type="text/css">
	.st0{fill-rule:evenodd;clip-rule:evenodd;fill:#FFE376;}
	.st1{fill:#FF8585;}
	.st2{fill:#F57070;}
	.st3{fill:#D19A6E;}
	.st4{fill:#8A9FA6;}
	.st5{fill:#96ADB5;}
	.st6{fill:#DBEAFF;}
	.st7{fill:#BDD8E3;}
	.st8{fill:#F2F7FF;}
	.st9{fill:#CEE4ED;}
	.st10{fill-rule:evenodd;clip-rule:evenodd;fill:#FFFFFF;}
	.st11{fill:#FFFFFF;}
	.st12{fill:#607D8B;}
	.st13{fill:#43A047;}
	.st14{fill:#5BB360;}
	.st15{fill:#546D79;}
	.st16{fill:#66BB6A;}
</style>
<g id="Слой_x0020_1">
	<circle class="st0" cx="75" cy="85" r="72.5"/>
	<path class="st1" d="M95.4,29.4H74.1v14.3h21.2c1.1,0,1.8-1.3,1.2-2.2l-3.3-4.9l3.3-4.9C97.2,30.7,96.5,29.4,95.4,29.4z"/>
	<path class="st2" d="M73,29.4h7.2v14.3H73V29.4z"/>
	<path class="st3" d="M73.5,27.9c-0.9,0-1.6,0.7-1.6,1.6V60h3.2V29.6C75.1,28.7,74.4,27.9,73.5,27.9z"/>
	<path class="st4" d="M93.7,74.9L66,69.9L53.8,96.1v24.1H117C117,120.2,93.7,74.9,93.7,74.9z"/>
	<path class="st5" d="M66,69.9L53.8,96.1v24.1h7.9c2.8-11.4,7.8-32.9,11.5-49C73.2,71.2,66,69.9,66,69.9z"/>
	<path class="st6" d="M71.2,77.5c1.2,1.2,3.1,1.2,4.3,0l2.7-2.7c0.6-0.6,1.7-0.6,2.2,0.1l8,10.1c1.4,1.7,4.1,1.4,5-0.5l2.5-5
		l-7.8-15.2c-0.8-1.5-2.5-2.1-4-1.3L82,64c-0.7,0.3-1.5,0.1-1.9-0.5l-3.8-5.3c-1.3-1.9-4.2-1.6-5.2,0.5l-5.9,12.8L71.2,77.5
		L71.2,77.5z"/>
	<path class="st7" d="M74.8,94.9c-1.5-1.7-4.2-1.6-5.6,0.2l-1.3,1.7c-0.7,1-2.1,1-2.9,0L53.7,81.7c-1.5-2.1-4.7-1.9-6,0.4
		l-20.6,36.4l68,0L74.8,94.9z"/>
	<path class="st8" d="M76.2,58.1c-1.4-1.7-4.1-1.4-5.1,0.6l-5.9,12.8l6,6c0.1,0.1,0.3,0.3,0.5,0.4C73.5,70.1,75.1,63,76.2,58.1z"/>
	<path class="st9" d="M55.3,83.8l-1.6-2.1c-1.5-2.1-4.7-1.9-6,0.4l-20.6,36.4l18.4,0L55.3,83.8z"/>
	<path class="st10" d="M27.7,116h89.9c2,0,3.7,1.6,3.7,3.7l0,0c0,2-1.6,3.7-3.7,3.7H27.7c-2,0-3.7-1.6-3.7-3.7l0,0
		C24,117.6,25.6,116,27.7,116z"/>
	<path class="st11" d="M51.9,69.3H25.1c-2.9,0-5.3-2.4-5.3-5.3v-0.3c0-2.9,2.4-5.3,5.3-5.3h1.6c-0.1-0.5-0.2-1.1-0.2-1.7
		c0-4,3.2-7.2,7.2-7.2c2.3,0,4.3,1,5.6,2.7c1.2-1,2.9-1.7,4.6-1.7c4,0,7.2,3.2,7.2,7.2c0,0.2,0,0.5,0,0.7h0.9c2.9,0,5.3,2.4,5.3,5.3
		V64C57.2,66.9,54.9,69.3,51.9,69.3z"/>
	<path class="st11" d="M126.3,106.3h-24.9c-2.7,0-5-2.2-5-5v-0.3c0-2.7,2.2-5,5-5h1.5c-0.1-0.5-0.2-1-0.2-1.6c0-3.7,3-6.7,6.7-6.7
		c2.1,0,4,1,5.2,2.5c1.2-1,2.7-1.6,4.3-1.6c3.7,0,6.7,3,6.7,6.7c0,0.2,0,0.4,0,0.6h0.8c2.7,0,5,2.2,5,5v0.3
		C131.2,104.1,129,106.3,126.3,106.3L126.3,106.3z"/>
	<path class="st12" d="M32.9,110.2h-3.1c-0.4,0-0.8,0.4-0.8,0.8v3.7c0,0.7,0.6,1.3,1.3,1.3h2.1c0.7,0,1.3-0.6,1.3-1.3V111
		C33.7,110.6,33.4,110.2,32.9,110.2L32.9,110.2z"/>
	<path class="st13" d="M41.7,110.6l-5.5-8.2c-0.1-0.2-0.4-0.3-0.7-0.3h-8.3c-0.3,0-0.5,0.1-0.7,0.3l-5.5,8.2c-0.2,0.2-0.2,0.6,0,0.8
		c0.1,0.3,0.4,0.4,0.7,0.4h19.4c0.3,0,0.6-0.2,0.7-0.4C41.9,111.2,41.9,110.9,41.7,110.6z"/>
	<path class="st14" d="M39.6,102.2l-7.6-11c-0.3-0.4-1-0.4-1.3,0l-7.6,11c-0.2,0.2-0.2,0.6,0,0.8c0.1,0.3,0.4,0.4,0.7,0.4H39
		c0.3,0,0.6-0.2,0.7-0.4C39.8,102.8,39.8,102.5,39.6,102.2C39.6,102.2,39.6,102.2,39.6,102.2z"/>
	<path class="st15" d="M31.4,111.9H29v2.8c0,0.7,0.6,1.3,1.3,1.3h1V111.9z"/>
	<path class="st12" d="M48.9,112.3h-2c-0.3,0-0.5,0.2-0.5,0.5v2.3c0,0.5,0.4,0.8,0.8,0.8h1.3c0.5,0,0.8-0.4,0.8-0.8v-2.3
		C49.3,112.6,49.1,112.3,48.9,112.3C48.9,112.3,48.9,112.3,48.9,112.3z"/>
	<path class="st16" d="M54.4,112.6l-3.5-5.1c-0.1-0.1-0.2-0.2-0.4-0.2h-5.2c-0.2,0-0.3,0.1-0.4,0.2l-3.5,5.1c-0.1,0.2-0.1,0.3,0,0.5
		c0.1,0.2,0.3,0.3,0.4,0.3H54c0.2,0,0.4-0.1,0.4-0.3C54.5,112.9,54.5,112.7,54.4,112.6z"/>
	<path class="st16" d="M53.1,107.3l-4.8-6.9c-0.2-0.3-0.6-0.3-0.8,0l-4.8,6.9c-0.1,0.2-0.1,0.3,0,0.5c0.1,0.2,0.3,0.3,0.4,0.3h9.6
		c0.2,0,0.4-0.1,0.4-0.3C53.2,107.7,53.2,107.5,53.1,107.3L53.1,107.3z"/>
	<path class="st15" d="M47.9,113.4h-1.5v1.8c0,0.5,0.4,0.8,0.8,0.8h0.7C47.9,116,47.9,113.4,47.9,113.4z"/>
	<path class="st12" d="M96.9,110.8h-2.8c-0.4,0-0.7,0.3-0.7,0.7v3.3c0,0.7,0.5,1.2,1.2,1.2h1.9c0.7,0,1.2-0.5,1.2-1.2v-3.3
		C97.6,111.1,97.3,110.8,96.9,110.8L96.9,110.8z"/>
	<path class="st13" d="M104.9,111.2l-5-7.4c-0.1-0.2-0.4-0.3-0.6-0.3h-7.5c-0.2,0-0.5,0.1-0.6,0.3l-5,7.4c-0.1,0.2-0.2,0.5,0,0.7
		c0.1,0.2,0.4,0.4,0.6,0.4h17.5c0.3,0,0.5-0.1,0.6-0.4C105,111.7,105,111.4,104.9,111.2z"/>
	<path class="st16" d="M103,103.6l-6.9-10c-0.3-0.4-0.9-0.4-1.2,0l-6.9,10c-0.1,0.2-0.2,0.5,0,0.7c0.1,0.2,0.4,0.4,0.6,0.4h13.7
		c0.3,0,0.5-0.1,0.6-0.4C103.1,104.1,103.1,103.8,103,103.6L103,103.6L103,103.6z"/>
	<path class="st15" d="M95.5,112.3h-2.1v2.6c0,0.7,0.5,1.2,1.2,1.2h0.9V112.3z"/>
	<path class="st12" d="M111.3,112.7h-1.8c-0.2,0-0.4,0.2-0.4,0.4v2.1c0,0.4,0.3,0.7,0.7,0.7h1.2c0.4,0,0.7-0.3,0.7-0.7v-2.1
		C111.8,112.9,111.6,112.7,111.3,112.7L111.3,112.7z"/>
	<path class="st16" d="M116.3,113l-3.2-4.6c-0.1-0.1-0.2-0.2-0.4-0.2h-4.7c-0.1,0-0.3,0.1-0.4,0.2l-3.2,4.6c-0.1,0.1-0.1,0.3,0,0.5
		c0.1,0.1,0.2,0.2,0.4,0.2h11c0.2,0,0.3-0.1,0.4-0.2C116.4,113.3,116.4,113.1,116.3,113L116.3,113z"/>
	<path class="st16" d="M115.1,108.2l-4.3-6.3c-0.2-0.2-0.6-0.2-0.7,0l-4.3,6.3c-0.1,0.1-0.1,0.3,0,0.5c0.1,0.1,0.2,0.2,0.4,0.2h8.6
		c0.2,0,0.3-0.1,0.4-0.2C115.2,108.5,115.2,108.3,115.1,108.2L115.1,108.2z"/>
	<path class="st15" d="M110.4,113.7h-1.3v1.6c0,0.4,0.3,0.7,0.7,0.7h0.6V113.7z"/>
	<path class="st12" d="M79.7,113.3h-1.5c-0.2,0-0.4,0.2-0.4,0.4v1.8c0,0.4,0.3,0.6,0.6,0.6h1c0.4,0,0.6-0.3,0.6-0.6v-1.8
		C80.1,113.4,79.9,113.3,79.7,113.3C79.7,113.3,79.7,113.3,79.7,113.3z"/>
	<path class="st13" d="M84,113.5l-2.7-4c-0.1-0.1-0.2-0.2-0.3-0.2h-4.1c-0.1,0-0.2,0.1-0.3,0.2l-2.7,4c-0.1,0.1-0.1,0.3,0,0.4
		c0.1,0.1,0.2,0.2,0.3,0.2h9.5c0.1,0,0.3-0.1,0.3-0.2C84.1,113.7,84.1,113.6,84,113.5z"/>
	<path class="st16" d="M83,109.3l-3.7-5.4c-0.1-0.2-0.5-0.2-0.6,0l-3.7,5.4c-0.1,0.1-0.1,0.3,0,0.4c0.1,0.1,0.2,0.2,0.3,0.2h7.5
		c0.1,0,0.3-0.1,0.3-0.2C83.1,109.6,83.1,109.5,83,109.3L83,109.3z"/>
	<path class="st15" d="M78.9,114.1h-1.2v1.4c0,0.4,0.3,0.6,0.6,0.6h0.5C78.9,116.1,78.9,114.1,78.9,114.1z"/>
</g>
</svg>
