<?xml version="1.0" encoding="utf-8"?>
<!-- Generator: Adobe Illustrator 23.0.6, SVG Export Plug-In . SVG Version: 6.00 Build 0)  -->
<svg version="1.1" id="Layer_1" xmlns:xodm="http://www.corel.com/coreldraw/odm/2003"
	 xmlns="http://www.w3.org/2000/svg" xmlns:xlink="http://www.w3.org/1999/xlink" x="0px" y="0px" viewBox="0 0 144.9 159.7"
	 style="enable-background:new 0 0 144.9 159.7;" xml:space="preserve">
<style type="text/css">
	.st0{fill-rule:evenodd;clip-rule:evenodd;fill:#FFD6D6;}
	.st1{fill:#EDAF80;}
	.st2{fill:#FFF8DE;}
	.st3{fill:#BD8052;}
	.st4{fill:#DE9964;}
	.st5{fill:#CC8A58;}
	.st6{fill:#FEF3CA;}
	.st7{fill-rule:evenodd;clip-rule:evenodd;fill:#7D6B59;}
	.st8{fill:#80624D;}
	.st9{fill:#FAE9C8;}
	.st10{fill:#D4F1FF;}
	.st11{fill:#F0E4B7;}
	.st12{fill:#E6F7FF;}
	.st13{fill:#997B65;}
	.st14{fill:#FFFFFF;}
	.st15{fill:#7D6B59;}
	.st16{fill:#968370;}
	.st17{fill:#513622;}
	.st18{fill:#66462D;}
	.st19{fill-rule:evenodd;clip-rule:evenodd;fill:#4B4366;}
	.st20{fill:#B57F55;}
	.st21{fill:#C48B60;}
</style>
<g id="Слой_x0020_1">
	<g id="_1948688787488">
		<circle class="st0" cx="72.4" cy="87.3" r="72.4"/>
		<path class="st1" d="M29.8,43.3c11.5-0.9,18.3,5.5,21.8,10.5h20.8l0,89.1h0c-7.5-1.6-22.2,1-23-25.6c-0.5-18.6-20.1-28-9-50.2
			C30.1,59.5,29.8,43.3,29.8,43.3L29.8,43.3z"/>
		<path class="st2" d="M72.4,134.3c0,2.9,0,5.8,0,8.6c0,0,0,0,0,0c-7.5-1.6-22.2,1-23-25.6c-0.2-6.2-2.5-11.4-5.1-16.5h0
			c6.3,13.6,10.4,18,16.2,20.2C67.5,123.6,68.1,130.8,72.4,134.3C72.4,134.3,72.4,134.3,72.4,134.3L72.4,134.3z"/>
		<path class="st3" d="M40.4,67.2c3.3-15.6-10.6-23.9-10.6-23.9C27.9,61.6,40.4,67.2,40.4,67.2z"/>
		<path class="st4" d="M115,43.3c-11.5-0.9-18.3,5.5-21.8,10.5H72.4v89.1h0c7.5-1.6,22.2,1,23-25.6c0.5-18.6,20.1-28,9-50.2
			C114.7,59.5,115,43.3,115,43.3L115,43.3z"/>
		<path class="st5" d="M99.9,63.6c-0.1,0.2-0.2,0.3-0.3,0.3l0,0c11.1,22.1-8.5,31.6-9,50.2c0,1.1-0.1,2.1-0.2,3.1
			c2.5-2.4,4.9-6,7.8-11.6c-8.4,19.1-8.9,19.2-7.4,17c0.8-1.2-2.2,12,3.9-9.2c0.3-1,1.5-1.7,1.8-2.9c4-14.4,17.5-24,8.2-43
			C103.1,66,101.5,64.8,99.9,63.6z M98.3,105.3c0.7-1.5,1.4-2.9,2.1-4.4h0l-0.3,0.7C99.5,102.8,98.9,104,98.3,105.3z"/>
		<path class="st3" d="M104.4,67.2C101.1,51.6,115,43.3,115,43.3C116.9,61.6,104.4,67.2,104.4,67.2z"/>
		<path class="st6" d="M72.4,134.3c0,2.9,0,5.8,0,8.6c0,0,0,0,0,0c7.5-1.6,22.2,1,23-25.6c0.2-6.2,2.5-11.4,5.1-16.5h0
			c-6.3,13.6-10.4,18-16.2,20.2C77.3,123.6,76.8,130.8,72.4,134.3C72.4,134.3,72.4,134.3,72.4,134.3L72.4,134.3z"/>
		<path class="st7" d="M73.6,56.2c10.9-9.8,19.8-24,20.7-39.3c0.2-3.2,0-19-6.8-10.5c-1,1.2-1.8-6,3.5-6.3c2.1-0.1,3.8,1.2,5.1,3.1
			c2.3,3.4,3.7,7.4,4.4,11.7c2.5,15.5-4.4,35-14.3,45.6C82,59,77.8,57.6,73.6,56.2z"/>
		<path class="st8" d="M77.4,135.8c5.9-3.6,12.8-6.2,12.8-15.7c-0.1-16.5-8.7-53.4,1.7-64.8h0l0.2-0.2l0.2-0.2l0.2-0.2l0.2-0.2
			l0.1-0.1l0.1-0.1l0.1-0.1l0.1-0.1l0.1-0.1l0.1-0.1l0,0l0,0l0,0c0,0,0.1-0.1,0,0c-0.1-0.1-0.2-0.1-0.3-0.2h0l-0.3-0.2h0l-0.3-0.2
			l0,0L92.1,53l0,0l-0.3-0.2h0l-0.3-0.2l0,0l-0.3-0.2l0,0L91,52.3h0c-0.1-0.1-0.2-0.1-0.3-0.2l0,0l-0.3-0.2h0l-0.3-0.2h0l-0.3-0.2
			l0,0c-0.1-0.1-0.2-0.1-0.3-0.2l0,0l-0.3-0.2h0l-0.3-0.2l0,0c-0.1-0.1-0.2-0.1-0.3-0.2h0c-0.1-0.1-0.2-0.1-0.3-0.2l0,0L88,50.6l0,0
			l-0.3-0.2l0,0l-0.3-0.2h0l-0.3-0.1h0L86.7,50h0l-0.3-0.1l0,0l-0.3-0.1h0l-0.3-0.1l0,0l-0.3-0.1h0l-0.3-0.1l0,0
			c-0.1,0-0.2-0.1-0.3-0.1l0,0c-0.1,0-0.2-0.1-0.3-0.1l0,0l-0.3-0.1h0c-0.1,0-0.2-0.1-0.3-0.1h0c-0.1,0-0.2-0.1-0.3-0.1l0,0
			l-0.3-0.1h0l-0.3-0.1l0,0l-0.3-0.1l0,0c-0.1,0-0.2-0.1-0.3-0.1l0,0l-0.3-0.1l0,0l-0.3-0.1h0L81.2,48h0l-0.3-0.1h0l-0.3-0.1h0
			c-0.1,0-0.2-0.1-0.3-0.1h0l-0.3-0.1h0l-0.3-0.1l0,0l-0.3-0.1l0,0l-0.3-0.1l0,0l-0.3-0.1h0c-0.1,0-0.2,0-0.3-0.1h0l-0.3-0.1l0,0
			l-0.3-0.1h0l-0.4,0l0,0c-0.1,0-0.2,0-0.4,0l0,0c-0.1,0-0.2,0-0.4,0h0L76,47l0,0l-0.4,0h0c-0.1,0-0.2,0-0.4,0h0l-0.4,0l0,0l-0.4,0
			h0c-0.1,0-0.2,0-0.4,0h0l-0.4,0h0l-0.4,0h0l-0.4,0h0l-0.4,0h0l-0.4,0h0h0v81.6C72.4,133.1,73.7,138,77.4,135.8L77.4,135.8z
			 M93.3,53.9L93.3,53.9L93.3,53.9z"/>
		<path class="st9" d="M93.3,53.8C93.3,53.8,93.3,53.8,93.3,53.8z"/>
		<path class="st9" d="M93.3,53.9C93.3,53.9,93.3,53.8,93.3,53.9C93.3,53.8,93.3,53.8,93.3,53.9z"/>
		<path class="st10" d="M93.3,53.9C93.3,53.9,93.3,53.8,93.3,53.9C93.3,53.8,93.3,53.8,93.3,53.9z"/>
		<path class="st11" d="M72.4,138.6v4.3c0,0,0,0,0,0c5.6-1.2,15.2-0.1,20-10.5c1.5-3.5,2.7-8.1,2.9-14.5c0.1-4.5,1.3-8.7,2.9-12.4
			c-0.2,0.4-0.4,0.8-0.6,1.1c-2.7,5.2-5.2,8.6-7.6,10.8C88.7,135.9,79.7,137.7,72.4,138.6L72.4,138.6z M98.3,105.3
			c0.7-1.5,1.4-2.9,2.1-4.4h0l-0.3,0.7C99.5,102.8,98.9,104,98.3,105.3z"/>
		<path class="st10" d="M93.3,53.8C93.3,53.8,93.3,53.8,93.3,53.8z"/>
		<path class="st12" d="M93.3,53.8C93.3,53.8,93.3,53.8,93.3,53.8z"/>
		<path class="st12" d="M93.3,53.9C93.3,53.9,93.3,53.8,93.3,53.9C93.3,53.8,93.3,53.8,93.3,53.9z"/>
		<path class="st7" d="M73.6,56.2c-10.9-9.8-19.8-24-20.7-39.3c-0.2-3.2,0-19,6.8-10.5c1,1.2,1.8-6-3.5-6.3
			c-2.1-0.1-3.8,1.2-5.1,3.1c-2.3,3.4-3.7,7.4-4.4,11.7c-2.5,15.5,4.4,35,14.3,45.6C65.2,59,69.4,57.6,73.6,56.2z"/>
		<path class="st7" d="M62.5,43.4c-3.3-6.5-1-12.4,0.2-14.7c0.5-1,0.3-1.3-0.7-1.2c-4.8,0.9-6.8,7-8.7,11L62.5,43.4z"/>
		<path class="st13" d="M67.5,135.8c-5.9-3.6-12.8-6.2-12.8-15.7c0.1-16.5,8.7-53.4-1.7-64.8h0l-0.2-0.2l-0.2-0.2l-0.2-0.2l-0.2-0.2
			l-0.1-0.1L52,54.3l-0.1-0.1l-0.1-0.1L51.7,54l-0.1-0.1l0,0l0,0l0,0c0,0-0.1-0.1,0,0c0.1-0.1,0.2-0.1,0.3-0.2h0l0.3-0.2h0l0.3-0.2
			l0,0l0.3-0.2l0,0l0.3-0.2l0,0l0.3-0.2l0,0l0.3-0.2l0,0l0.3-0.2h0c0.1-0.1,0.2-0.1,0.3-0.2h0l0.3-0.2h0l0.3-0.2h0l0.3-0.2l0,0
			c0.1-0.1,0.2-0.1,0.3-0.2l0,0l0.3-0.2h0l0.3-0.2l0,0c0.1-0.1,0.2-0.1,0.3-0.2h0c0.1-0.1,0.2-0.1,0.3-0.2l0,0l0.3-0.2l0,0l0.3-0.2
			l0,0l0.3-0.2h0l0.3-0.1h0l0.3-0.1l0,0l0.3-0.1l0,0l0.3-0.1h0l0.3-0.1l0,0l0.3-0.1h0l0.3-0.1h0c0.1,0,0.2-0.1,0.3-0.1l0,0
			c0.1,0,0.2-0.1,0.3-0.1l0,0l0.3-0.1l0,0c0.1,0,0.2-0.1,0.3-0.1h0c0.1,0,0.2-0.1,0.3-0.1l0,0l0.3-0.1h0l0.3-0.1h0l0.3-0.1l0,0
			c0.1,0,0.2-0.1,0.3-0.1l0,0l0.3-0.1l0,0l0.3-0.1h0l0.3-0.1h0l0.3-0.1h0l0.3-0.1h0c0.1,0,0.2-0.1,0.3-0.1h0l0.3-0.1h0l0.3-0.1h0
			l0.3-0.1l0,0l0.3-0.1l0,0l0.3-0.1h0c0.1,0,0.2,0,0.3-0.1h0l0.3-0.1l0,0l0.3-0.1h0l0.3,0l0,0c0.1,0,0.2,0,0.4,0l0,0
			c0.1,0,0.2,0,0.4,0h0l0.4,0l0,0l0.4,0h0c0.1,0,0.2,0,0.4,0h0l0.4,0l0,0l0.4,0h0c0.1,0,0.2,0,0.4,0h0l0.4,0h0l0.4,0h0l0.4,0h0
			l0.4,0h0l0.4,0l0,0h0v81.6C72.4,133.1,71.1,138,67.5,135.8L67.5,135.8z M51.6,53.9L51.6,53.9L51.6,53.9z"/>
		<path class="st14" d="M86.7,122.7c-5.3-6-14.1,0.6-14.1,0.6s-8.8-6.7-14.1-0.6c-2.4,2.7-1.7,5.9-0.3,8.7c1,2,2.9,3.3,4.9,3.8l0,0
			c1.9,2.1,5.4,3.4,9.5,3.4c4,0,7.6-1.4,9.5-3.4h0c2.1-0.5,3.9-1.8,4.9-3.8C88.5,128.6,89.1,125.4,86.7,122.7L86.7,122.7z"/>
		<path class="st15" d="M72.4,126.9c0.9,0.1,1.7,0.7,1.7,1c0,0,0.2,0.2,0.3,0.4c0.1,0.1,0,0.2,0,0.2c0,0.5,0,0.2,0,0.5v3.4
			c0.5,0.1,0.3,0.2,0.8,0.2h0c1.1,0,2.3-0.3,3.4-0.8c1.1-0.5,2.4,0,2.9,1.1c0.5,1.1,0,2.3-1.1,2.8c-1.7,0.7-3.5,1.1-5.2,1.1h0
			c-1.3,0-1.8-0.2-2.9-0.6l-1.2-0.5L72.4,126.9L72.4,126.9z"/>
		<path class="st16" d="M72.4,126.9c-1.1,0.1-2,1-2,2.1v3.4c-0.5,0.1-1,0.2-1.6,0.2h0c-1.1,0-1.6-0.3-2.7-0.8
			c-1.1-0.5-2.4,0-2.9,1.1c-0.5,1.1,0,2.3,1.1,2.8c1.7,0.7,2.7,1.1,4.5,1.1h0c1.3,0,2.5-0.2,3.6-0.6
			C72.4,136.2,72.4,126.9,72.4,126.9z"/>
		<path class="st17" d="M83.1,119.8L83.1,119.8c-1.4-2.1-4.7-2.9-7.3-1.7l0,0c-2,0.9-4.3,0.9-6.3,0l0,0c-2.6-1.2-5.9-0.4-7.3,1.7
			l0,0c-1.4,2.1-0.4,4.8,2.3,5.9l0,0c1.3,0.6,2.4,1.5,3,2.6c0.8,1.5,2.6,2.5,4.7,2.5h0.5h0h0.5c2.1,0,3.9-1,4.7-2.5
			c0.6-1.1,1.6-2.1,3-2.6l0,0C83.5,124.6,84.5,121.9,83.1,119.8z"/>
		<path class="st18" d="M72.4,118.7c-1,0-2-0.2-2.9-0.7l0,0c-2.6-1.2-5.9-0.4-7.3,1.7l0,0c-1.4,2.1-0.4,4.8,2.3,5.9l0,0
			c1.3,0.6,2.4,1.5,3,2.6c0.8,1.5,2.6,2.5,4.7,2.5l0.3,0V118.7L72.4,118.7z"/>
		<path class="st19" d="M96,82.3c2.1,0,3.8,1.6,3.8,3.6c0,2-1.7,3.6-3.8,3.6s-3.8-1.6-3.8-3.6C92.2,83.9,93.9,82.3,96,82.3z"/>
		<path class="st19" d="M47.9,82.5c2.1,0,3.8,1.6,3.8,3.6c0,2-1.7,3.6-3.8,3.6c-2.1,0-3.8-1.6-3.8-3.6
			C44.1,84.1,45.8,82.5,47.9,82.5z"/>
		<path class="st20" d="M80.2,56.7c-1.7-1.7-3.5-4.9-4.9-7.8c-1.2-2.4-4.4-2.4-5.6,0c-1.5,2.9-3.3,6.1-4.9,7.8
			c-6.5,6.6-1.1,16,7.7,16C81.2,72.7,86.6,63.3,80.2,56.7z"/>
		<path class="st21" d="M72.4,47.1c-1.1,0-2.2,0.6-2.8,1.8c-1.5,2.9-3.3,6.1-4.9,7.8c-6.5,6.6-1.1,16,7.7,16
			C72.4,72.7,72.4,47.1,72.4,47.1z"/>
		<path class="st7" d="M84.8,43.4c3.3-6.5,1-12.4-0.2-14.7c-0.5-1-0.3-1.3,0.7-1.2c4.8,0.9,6.8,7,8.7,11L84.8,43.4z"/>
	</g>
</g>
</svg>
