<?xml version="1.0" encoding="utf-8"?>
<!-- Generator: Adobe Illustrator 23.0.6, SVG Export Plug-In . SVG Version: 6.00 Build 0)  -->
<svg version="1.1" id="Layer_1" xmlns:xodm="http://www.corel.com/coreldraw/odm/2003"
	 xmlns="http://www.w3.org/2000/svg" xmlns:xlink="http://www.w3.org/1999/xlink" x="0px" y="0px" viewBox="0 0 144.9 144.9"
	 style="enable-background:new 0 0 144.9 144.9;" xml:space="preserve">
<style type="text/css">
	.st0{fill-rule:evenodd;clip-rule:evenodd;fill:#FFD6D6;}
	.st1{fill:#BF9930;}
	.st2{fill:#CCA53B;}
	.st3{fill:#AD871F;}
	.st4{fill:#D4AC3E;}
</style>
<g id="Слой_x0020_1">
	<circle class="st0" cx="72.5" cy="72.5" r="72.5"/>
	<path class="st1" d="M113.7,49.9c-4-4-8.7-6.9-14-8.8l-8.3-3c-4.8-1.7-8.1-6.3-8.1-11.4V13.9c0-1-0.8-1.7-1.7-1.7H64.2
		c-1,0-1.7,0.8-1.7,1.7v18.6c0,6.3-4.8,11.5-11,12.1l-10.1,1c-7.9,0.8-15.2,5.4-18.5,12.7c-1.4,2.9-2.1,6.1-2.1,9.3v48.8
		c1.9,0,3.5-1.6,3.5-3.5v-2.8l3.3,3.3c1.4,1.4,3.6,1.4,4.9,0l-8.2-8.2V90.5l2.9,2.4c2.7,2.2,4.4,5.4,4.9,8.9c0.7,4.4,2.9,8.3,6.4,11
		c2.4,1.3,4.5-0.8,3.3-1.8l-1.1-0.9c-2.9-2.3-4.6-5.6-5.1-9.2c-0.7-4.2-2.8-7.9-6.1-10.7L24.3,86v-9.1C37.8,55.2,40.4,59,60.9,59.1
		l-3.8,5.5c-6.6,9.6-10.8,20.8-11.9,32.4l-0.7,2.6c-0.4,1.6-1.2,3.1-2.1,4.6c-1,1.6,1.2,3.9,2.9,2c1.6-1.8,2.2-3.9,2.8-6.3l0.5-2
		l5.3-9.5c0.6,0.1,0.7,0.1,1.3,0.1c0.9,3.5,2.5,6.8,4.7,9.7l1.3,1.8l2.8-2.1l-1.3-1.8c-2.4-3.2-4-6.9-4.6-10.8l-0.5-2.8
		c1.2-1.7,2.5-3.4,3.8-5l1.3-1.5c0.3,3.6,1.2,7.1,2.8,10.2l0.9,1.7c0.9,1.7,2.9,2.4,4.7,1.6l-2.4-4.8c-1.7-3.4-2.6-7.2-2.6-11.1
		v-1.5l10.6-12.4l0.9,0.8c1.5,1.3,2.9,2.7,4.2,4.1l0,0c0,0.1,1.5,6.4-1.6,12.7c-3.5,7.1-6.3,19.4-6.4,20l-0.1,0.3
		c1.8,0.4,3,1.8,3.5,0c0.5-1.9,1.2-4.4,2-7l2.5,3.2c1.2,1.5,3.4,1.7,4.9,0.5l-6.2-7.8c0.9-2.9,1.9-5.7,2.9-7.7
		c0.8-1.6,1.4-3.2,1.7-4.7c0.4-1.6,0.6-3.2,0.6-4.5c2.2,3.4,4,7.2,5.2,11.1l1.4,4.7l3.4,15.4c-0.1,4.7-2.6,9.1-6.6,11.5l-1.2,0.7
		l1.8,3c3.8-2.3,6.7-5.9,8-10.2l1.5-5l2-16c1-8-0.1-16.2-3.2-23.6c-0.3-0.7-0.6-1.4-1-2.1l3.4,1.3c2.1,0.8,2.4,1.1,2.8,3.4l4.5,28.6
		c0.2,1.2,0.7,2.4,1.4,3.5l2.2,3.3c-0.3,1.4-0.6,2.8-0.9,4.2c-0.3,1.5-1.4,4.3-0.3,5.4c0.8,0.9,2.5,0.6,3-1l0.9-4.6l2.1,3.1
		c1.2,1.7,1.2,4,0,5.8l-0.9,1.4l2.9,1.9l0.9-1.4c1.9-2.9,1.9-6.7,0-9.6l-7-10.5c-0.4-0.6-0.7-1.3-0.8-2.1l-1.5-9.3l4.4,2.2l1.6-3.1
		l-6.6-3.3l-2.4-15.1c5.5,3.1,10,7.7,13.1,13.2l2.1,3.7V92c0,1.9,1.6,3.5,3.5,3.5V77.8C125,67.4,121.1,57.3,113.7,49.9L113.7,49.9
		L113.7,49.9z M102.9,57.9l-9.4-3.6c-2.8-3.5-6.5-6.2-10.7-8l-2.3-1l-1.4,3.2l2.3,1c5.9,2.5,10.6,7.2,13,13.2
		c2.9,6.9,3.9,14.4,3,21.8l-0.8,6.1l-1.3-6L94,79.8c-2.6-8.5-7.5-16.1-14.2-21.9L77.5,56c-0.4-0.3-0.8-0.4-1.3-0.4
		c-0.5,0-0.9,0.3-1.2,0.6L58.7,75.3c-3,3.5-5.7,7.4-8,11.4l-0.3,0.5c1.9-7.4,5.2-14.4,9.5-20.7l5.7-8.2c0.4-0.5,0.4-1.2,0.1-1.8
		c-0.3-0.6-0.9-0.9-1.5-0.9l-18.5,0c0,0,0,0,0,0c-11.3,0-16.1,6.3-21.4,14.8v-2.8c0-2,0.3-4,0.9-5.9c2.3-6.9,8.5-11.9,15.8-12.6
		l10.8-1C59.9,47.3,66,40.6,66,32.5V15.7h13.9v11c0,6.6,4.2,12.5,10.4,14.7l8.3,3c4.3,1.5,8.1,3.8,11.5,6.9
		c6.3,5.6,10.2,13.4,11.2,21.7C116.9,66.1,110.5,60.8,102.9,57.9L102.9,57.9L102.9,57.9z"/>
	<path class="st1" d="M110,50c-3.5-3.2-7.6-5.6-12.1-7.2l-8.3-3c-5.5-2-9.2-7.2-9.2-13.1V13.9H63v18.6c0,7.2-5.4,13.1-12.6,13.8
		l-10.8,1c-8,0.8-14.8,6.2-17.3,13.8c-0.7,2.1-1,4.2-1,6.4v8.9l6-9.6c3.7-6,10.2-9.6,17.2-9.6l18.5,0l-5.7,8.2
		c-6.5,9.4-10.5,20.3-11.7,31.7l5.4-9.7c1-1.9,2.2-3.7,3.4-5.5l-0.1-0.5l0.1,0.5c1.4-2,2.8-3.9,4.4-5.7l4.2-4.9v-0.3v0.3l12.1-14.2
		l2.2,1.9c6.5,5.6,11.3,12.9,13.7,21.1l1.4,4.8l3.5,15.6l2-16c1-7.7-0.1-15.5-3.1-22.7c-0.9-2.3-2.2-4.4-3.7-6.2l-0.4-0.2l0.4,0.2
		c-2.7-3.4-6.2-6.1-10.2-7.8l-2.3-1l2.3,1c4.1,1.7,7.6,4.5,10.2,7.8l9.8,3.8c8,3.1,14.6,8.8,18.7,16.3l2.3,4.1V77
		C122,66.7,117.6,56.9,110,50L110,50L110,50z"/>
	<path class="st2" d="M71.7,13.9H63v18.6c0,7.2-5.4,13.1-12.6,13.8l-10.8,1c-8,0.8-14.8,6.2-17.3,13.8c-0.7,2.1-1,4.2-1,6.4
		l-0.5,6.8l0,2.5L28,66.7c3.7-6,9.3-8.2,16.3-8.2l16.6,0.5l-4.7,6.9C49.7,75.3,46.1,86.3,45,97.6l6-10.1c1-1.9,2.2-3.7,3.4-5.5
		l-0.1-0.5l0.1,0.5c1.4-2,2.8-3.9,4.4-5.7l4.2-4.9v-0.3v0.3l8.7-10.1C71.7,61.4,71.7,13.9,71.7,13.9z"/>
	<path class="st3" d="M113.7,49.9c-4-4-8.7-6.9-14-8.8l-8.3-3c-4.8-1.7-8.1-6.3-8.1-11.4V13.9c0-1-0.8-1.7-1.7-1.7h-6.7
		c-0.7,0-1.3,0.4-1.6,1.1l0.8,0h4.4h0.1c2.3,0-5.2,0-2.7,0h0.9h0.6c1,0,1.7,0.8,1.7,1.7v0.6h0.9v11c0,4.5,1.9,8.7,5.1,11.6
		c0.7,0.4,1.4,0.7,2.1,1l8.3,3c4.1,1.5,7.8,3.6,11.1,6.3c1.2,0.8,2.4,1.8,3.5,2.8c6.3,5.6,10.2,13.4,11.2,21.7
		c-0.4-0.7-0.9-1.4-1.4-2c0.5,2.6,0.8,5.2,0.8,7.8l0.9,1.5V92c0,1.9,1.6,3.5,3.5,3.5V77.8C125,67.4,121.1,57.3,113.7,49.9
		L113.7,49.9L113.7,49.9z M93.7,60.8c0.3,0.6,0.6,1.2,0.8,1.8c2.9,6.9,3.9,14.4,3,21.8l-0.8,6.1l-0.4-2L95,98.8l0.5,2.1
		c0,3.4-1.3,6.6-3.6,9c-1.3,1.5-2.7,2.3-4.3,3.2c-1.6,1.2-0.3,3.9,1.8,3c3.8-2.3,6.7-5.9,8-10.2l1.5-5c1.3-10.3,3.4-20.6,1.4-31
		c-0.2-1.1-0.5-2.4-0.8-3.4c-0.2-0.7-1-3.1-1.7-4.9c-0.5-1.2-1.6-2.9-1.7-3.4C96,58.6,93.7,60.8,93.7,60.8z M54.9,88.5l0.2,0
		c0.9,3.5,2.5,6.8,4.7,9.7c0.4,0.6,0.9,1.2,1.3,1.8c0.7,0.5,1.6,0.6,2.1,0.2c0.4-0.3,1.2-1.1,0.6-2.3l-1.3-1.8
		c-2.4-3.2-4-6.9-4.6-10.8l-0.5-2.8c0.4-0.6,3.8-4.9,4.3-5.5c-0.2-1.2,0-2.6-0.1-3.8L57,78.7C53.5,82.8,53.4,83,54.9,88.5z
		 M61.5,77.3l1.1-1.3c0.3,3.6,1.2,7.1,2.8,10.2l0.9,1.7c0.9,1.7,2.9,2.4,4.7,1.6l-2.4-4.8c-1.7-3.4-2.6-7.2-2.6-11.1v-1.5l10.6-12.4
		C74,57.4,63.1,71.5,61.6,73.2v1.5C61.6,75.5,61.4,76.5,61.5,77.3z M20.8,76.6v11.2l3.5,2.9v-0.2l2.9,2.4c2.7,2.2,4.4,5.4,4.9,8.9
		c0.7,4.4,2.9,8.3,6.4,11c4,3,4.5-0.8,3.3-1.8c-1.9-1.6-2.8-2.3-4.3-4.5c-1-1.7-1.7-3.6-2-5.6c-0.7-4.2-2.8-7.9-6.1-10.7L24.3,86
		v-9.1c3.6-5.8,6.5-9.7,9.1-12.4c7-7.3,13-5.3,17.8-5.8C33.6,56,28.5,63.6,20.8,76.6z M20.8,87.6c0,4.9,0,9.9,0,14.8
		c0.6,5.2-0.4,4.3,3.5,7.7c0-0.2,0,0.2,0,0l3.3,3.3c1.4,1.4,3.6,1.4,4.9,0l-8.2-8.2V90.7c-0.4-0.5-0.2-1.1-0.7-1.6
		C23.6,89.2,20.8,87.6,20.8,87.6z M81.7,64.7c-0.1,0.7,0.5,3.2,0.3,5.3c-0.3,3.2-1.4,6.3-1.9,7.4c-0.2,0.4-0.4,0.9-0.6,1.3
		c-0.1,0.2-0.1,0.3-0.2,0.5c-1.1,2.6-2.1,5.8-3.1,8.9l2.7,3.3l0.2-0.7l2.5,3.2c1.2,1.5,3.4,1.7,4.9,0.5l-6.2-7.8
		c0.9-2.9,1.9-5.7,2.9-7.7c0.2-0.4,1-2,1.5-3.8c0.6-2.1,0.9-4.6,1.1-5.1C85,68.5,82.6,66.2,81.7,64.7z M76.3,87.5
		c-0.3,1.1-0.7,2.2-1,3.4c-0.7,2.5-1.4,4.9-1.9,7.4c-0.7,3.3,2.9,2.8,3.1,1.2c0.2-0.7,2-7.2,2.2-8.1c-0.2-0.1-0.3-2.4-0.4-2.6
		C78.4,88.8,76.3,87.5,76.3,87.5z M102.3,61.9l3.2,18.2l3.9,2.6l1.4,0.7c1,0.5,2,1,3,1.5c2.3,0.6,2.7-2.2,1.6-3.1l-6.6-3.3
		l-2.4-15.1C102.3,61.9,106.3,63.4,102.3,61.9z M105.4,79.6l2,12.9c0.2,1.2,0.7,2.4,1.4,3.5l2.2,3.3l-0.2,1l2.7,4.1l0.2-1l2,3.1
		c1.2,1.7,1.2,4,0,5.8c-0.2,0.3-0.8,1.2-0.9,1.4c-1.2,1.4,0.3,4.3,2.9,1.9l0.9-1.4c1.9-2.9,1.9-6.7,0-9.6l-7-10.5
		c-0.4-0.6-0.7-1.3-0.8-2.1l-1.5-9.3l-1.4-2.4L105.4,79.6L105.4,79.6z"/>
	<path class="st3" d="M110,50c-3.5-3.2-7.6-5.6-12.1-7.2l-8.3-3c-5.5-2-9.2-7.2-9.2-13.1V13.9h-1.7c0.2,0.3,0.4,0.7,0.4,1.1v12.8
		c0,5.1,3.2,9.7,8.1,11.4l8.3,3c5.3,1.9,10,4.9,14,8.8l0,0c7,7,10.9,16.5,11.2,26.3l1.4,2.5V77C122,66.7,117.6,56.9,110,50L110,50
		L110,50z M21.4,75.8v0.6l4.1-6.5C24.2,71.6,22.8,73.5,21.4,75.8z M95.2,97.2l0.8,3.5l2-16c1-7.7-0.1-15.5-3.1-22.7
		c-0.1-0.3-0.2-0.5-0.4-0.8l1.6-2.9l-3.7,2.1c0.3,0.7,0.7,1.3,1,2.1c3.1,7.4,4.2,15.6,3.2,23.6L95.2,97.2L95.2,97.2z M75.3,48.4
		l-1-0.4L75.3,48.4L75.3,48.4z"/>
	<path class="st3" d="M20.8,76.7l0,4.8c0.9-2.8,1.7-5.7,2.4-8.5C22.5,74.1,21.7,75.3,20.8,76.7z"/>
	<path class="st4" d="M79,16.2c0-1.2,0-2.8,0-4c-2.6,0-4.2,0-6.8,0c-1.5,0-3,0-4.5,0c-5.8-0.1-5.3-0.6-5.3,5.1v13.9
		c0,7.2-5.4,13.1-12.6,13.8l-10.8,1c-8,0.8-14.8,6.2-17.3,13.8c-0.7,2.1-1,4.2-1,6.4l0,8.2c0.8-2.6,0,0,0,0c0.9-3.5,4.1-7.6,5.2-11
		c2.5-7.6,9.3-13,17.3-13.8l10.8-1c7.1-0.7,12.6-6.7,12.6-13.8c0-5.5,0-11,0-16.5c0-2.9,0-2.2,3.3-2.2C73.2,16.1,75.7,16.2,79,16.2z
		"/>
</g>
</svg>
