<?xml version="1.0" encoding="utf-8"?>
<!-- Generator: Adobe Illustrator 23.0.6, SVG Export Plug-In . SVG Version: 6.00 Build 0)  -->
<svg version="1.1" id="Layer_1" xmlns:xodm="http://www.corel.com/coreldraw/odm/2003"
	 xmlns="http://www.w3.org/2000/svg" xmlns:xlink="http://www.w3.org/1999/xlink" x="0px" y="0px" viewBox="0 0 150 170"
	 style="enable-background:new 0 0 150 170;" xml:space="preserve">
<style type="text/css">
	.st0{fill-rule:evenodd;clip-rule:evenodd;fill:#EAF4FC;}
	.st1{fill-rule:evenodd;clip-rule:evenodd;fill:#ADD42F;}
	.st2{fill:#E0A400;}
	.st3{fill:#FFBB00;}
	.st4{fill:#B3DE3C;}
	.st5{fill:#C7F057;}
	.st6{fill:#EDAF03;}
	.st7{fill:#FFC62B;}
	.st8{fill:#ADD42F;}
	.st9{fill:#BAE543;}
</style>
<g id="Слой_x0020_1">
	<circle class="st0" cx="75" cy="85" r="72.4"/>
	<rect x="78.6" y="53.5" class="st1" width="4.7" height="56.1"/>
	<path class="st2" d="M70.6,132.5c-8.5,5.5-19.9,4.2-26,2.9c-2.2-0.5-3.7-2.4-3.7-4.6c0-0.3,0-0.6,0.1-0.9
		c1.3-6.1,4.6-17.1,13.1-22.7s19.9-4.2,26-2.9c2.2,0.5,3.7,2.4,3.7,4.6c0,0.3,0,0.6-0.1,0.9C82.5,116,79.1,126.9,70.6,132.5
		L70.6,132.5z"/>
	<path class="st3" d="M83.8,117c-2.4,7.1-6.7,15.4-14.1,20.3c-10.5,6.9-24.6,5.2-32.2,3.5c-2.7-0.6-4.6-3-4.6-5.7
		c0-0.4,0-0.8,0.1-1.2c1.6-7.6,5.7-21.1,16.2-28c7-4.5,15.5-5.3,22.7-4.9c-0.8,2.5-1.5,5.1-2.1,7.7c-0.1,0.4-0.1,0.8-0.1,1.2
		c0,2.7,1.9,5.1,4.6,5.7C77.4,116.4,80.6,116.8,83.8,117L83.8,117L83.8,117z"/>
	<path class="st4" d="M78.6,54.4c1.9-27,15.1-37.6,32.4-37.6C118.3,45.2,89.9,55.2,78.6,54.4z"/>
	<path class="st5" d="M78.6,54.4c1.5-32.2,15.1-38.3,32.4-37.6C98.5,26.4,87.2,36.7,78.6,54.4z"/>
	<path class="st6" d="M83.8,117c-2.4,7.1-6.7,15.4-14.1,20.3c-10.5,6.9-24.6,5.2-32.2,3.5c-2.7-0.6-4.6-3-4.6-5.7
		c0-0.4,0-0.8,0.1-1.2c0.1-0.3,0.1-0.5,0.2-0.8c0.8,1,1.9,1.7,3.2,1.9c7.6,1.6,21.7,3.3,32.2-3.5c5.6-3.7,9.4-9.3,12-14.9
		C81.6,116.9,82.7,116.9,83.8,117L83.8,117L83.8,117z"/>
	<path class="st7" d="M35.2,139.8c-1.4-1.1-2.3-2.8-2.3-4.6c0-0.4,0-0.8,0.1-1.2c1.6-7.6,5.7-21.1,16.2-28c7-4.5,15.5-5.3,22.7-4.9
		c-0.5,1.5-0.9,2.9-1.3,4.4c-6.3,0-13.3,1.2-19.1,5c-10.5,6.9-14.7,20.4-16.2,28C35.2,138.9,35.2,139.3,35.2,139.8L35.2,139.8z"/>
	<path class="st8" d="M79.6,83.5c-22.3,3.2-33.2-5.6-36.2-19.7C65.1,52.9,78.2,74.2,79.6,83.5z"/>
	<path class="st9" d="M43.3,63.8c21.8-11,34.9,10.4,36.2,19.7C71.1,68.7,43.3,63.8,43.3,63.8z"/>
</g>
</svg>
