<?xml version="1.0" encoding="utf-8"?>
<!-- Generator: Adobe Illustrator 23.0.6, SVG Export Plug-In . SVG Version: 6.00 Build 0)  -->
<svg version="1.1" id="Layer_1" xmlns:xodm="http://www.corel.com/coreldraw/odm/2003"
	 xmlns="http://www.w3.org/2000/svg" xmlns:xlink="http://www.w3.org/1999/xlink" x="0px" y="0px" viewBox="0 0 144.9 144.9"
	 style="enable-background:new 0 0 144.9 144.9;" xml:space="preserve">
<style type="text/css">
	.st0{fill-rule:evenodd;clip-rule:evenodd;fill:#E2D9FF;}
	.st1{fill:#B3DE3C;}
	.st2{fill:#C0EB49;}
	.st3{fill:#A7D134;}
	.st4{fill:#AD871F;}
	.st5{fill:#BF9930;}
	.st6{fill:#D2FA64;}
</style>
<g id="Слой_x0020_1">
	<g id="_1948537338016">
		<circle class="st0" cx="72.5" cy="72.5" r="72.5"/>
		<path class="st1" d="M75.5,9.4c-11.3,0-20.4,9.1-20.4,20.4v0c0,1.4-1,2.7-2.3,3c-6.5,1.6-11.3,7.4-11.3,14.4c0,0.6,0,1.2,0.1,1.8
			c0.2,1.4-0.6,2.6-1.9,3.1c-8.6,3.4-14.6,11.7-14.6,21.5c0,10.4,6.9,19.2,16.4,22.1c0.1,0.6,1.2,11,10.3,15.3
			c6.8,3.2,13.3,0.9,14.9,0.3c4.9-2,7.7-5.5,8.8-7c1.1,1.5,3.9,5,8.8,7c1.5,0.6,8.1,3,14.9-0.3c9.1-4.3,10.2-14.7,10.3-15.3
			c9.5-2.8,16.4-11.7,16.4-22.1c0-9.8-6.1-18.1-14.6-21.5c-1.3-0.5-2.1-1.8-1.9-3.1c0.1-0.6,0.1-1.2,0.1-1.8c0-7-4.8-12.8-11.3-14.4
			c-1.4-0.3-2.3-1.6-2.3-3v0C95.9,18.5,86.7,9.4,75.5,9.4L75.5,9.4L75.5,9.4z"/>
		<path class="st2" d="M73.2,9.5C63,10.6,55.1,19.3,55.1,29.8v0c0,1.4-1,2.7-2.3,3c-6.5,1.6-11.3,7.4-11.3,14.4c0,0.6,0,1.2,0.1,1.8
			c0.2,1.4-0.6,2.6-1.9,3.1c-8.6,3.4-14.6,11.7-14.6,21.5c0,10.4,6.9,19.2,16.4,22.1c0.1,0.6,1.2,11,10.3,15.3
			c6.8,3.2,13.3,0.9,14.9,0.3c2.9-1.1,5-2.8,6.5-4.3C73.2,107,73.2,9.5,73.2,9.5z"/>
		<path class="st3" d="M111.3,52.2c-1.3-0.5-2.1-1.8-1.9-3.1c0.1-0.6,0.1-1.2,0.1-1.8c0-7-4.8-12.8-11.3-14.4
			c-1.4-0.3-2.3-1.6-2.3-3v0c0-11.3-9.1-20.4-20.4-20.4c-1.9,0-3.7,0.3-5.5,0.8c2,0.6,1.2,5.2,3.2,5.2c4.7,0,11.7,3.8,11.7,14.5v0
			c0,1.4,1,2.7,2.3,3c6.5,1.6,11.3,7.4,11.3,14.4c0,0.6,0,1.2-0.1,1.8c-0.2,1.4,0.6,2.6,1.9,3.1c8.6,3.4,14.6,11.7,14.6,21.5
			c0,10-6.3,18.5-15.2,21.7c-0.7,0.3-1.3,0.9-1.4,1.7c-0.6,3-2.7,10.5-10.1,14.1c-0.7,0.3-1.5,0.6-2.2,0.9c2.7,0.8,7.9,1.7,13.2-0.9
			c9.1-4.3,10.2-14.7,10.3-15.3c9.5-2.8,16.4-11.7,16.4-22.1C125.9,63.9,119.8,55.5,111.3,52.2C111.3,52.2,111.3,52.2,111.3,52.2z"
			/>
		<path class="st4" d="M75.5,92.1l14.5-14.5c1.3-1.3,1.3-3.4,0-4.7c-1.3-1.3-3.4-1.3-4.7,0l-9.8,9.8v-22c0-1.8-1.5-3.3-3.3-3.3
			c-1.8,0-3.3,1.5-3.3,3.3v15.7L59,66.5c-1.3-1.3-3.4-1.3-4.7,0c-1.3,1.3-1.3,3.4,0,4.7l14.5,14.5v59.1c1.2,0.1,2.4,0.1,3.6,0.1
			c1,0,2.1,0,3.1-0.1L75.5,92.1C75.5,92.1,75.5,92.1,75.5,92.1z"/>
		<path class="st5" d="M72.2,57.3L72.2,57.3c-1.8,0-3.3,1.5-3.3,3.3v15.7L59,66.5c-1.3-1.3-3.4-1.3-4.7,0c-1.3,1.3-1.3,3.4,0,4.7
			l14.5,14.5v59.1c1.1,0.1,2.2,0.1,3.3,0.1C72.2,144.9,72.2,57.3,72.2,57.3z"/>
		<path class="st6" d="M73.2,9.5C63,10.6,54.4,19.5,54.4,30v0c0,1.4-1,2.7-2.3,3c-6.5,1.6-11.3,7.4-11.3,14.4c0,0.6,0,1.2,0.1,1.8
			c0.2,1.4-0.6,2.6-1.9,3.1c-8.6,3.4-14.6,11.7-14.6,21.5c0,10.4,6.9,19.2,16.4,22.1c0.1,0.6,1.2,11,10.3,15.3
			c5.6,2.7,11.1,1.5,13.7,0.7c-0.6-0.2-1.1-0.4-1.7-0.7c-9.1-4.3-10.2-14.7-10.3-15.3c-9.5-2.8-16.4-11.7-16.4-22.1
			c0-9.8,6.1-18.1,14.6-21.5c1.3-0.5,2.1-1.8,1.9-3.1c-0.1-0.6-0.1-1.2-0.1-1.8c0-7,4.8-12.8,11.3-14.4c1.4-0.3,2.3-1.6,2.3-3v0
			c0-5.7,0.7-13.6,6.8-14.7C73.2,15.3,73.2,9.5,73.2,9.5z"/>
	</g>
</g>
</svg>
