<?xml version="1.0" encoding="utf-8"?>
<!-- Generator: Adobe Illustrator 23.0.6, SVG Export Plug-In . SVG Version: 6.00 Build 0)  -->
<svg version="1.1" id="Layer_1" xmlns:xodm="http://www.corel.com/coreldraw/odm/2003"
	 xmlns="http://www.w3.org/2000/svg" xmlns:xlink="http://www.w3.org/1999/xlink" x="0px" y="0px" viewBox="0 0 150 170"
	 style="enable-background:new 0 0 150 170;" xml:space="preserve">
<style type="text/css">
	.st0{fill-rule:evenodd;clip-rule:evenodd;fill:#FFEECB;}
	.st1{fill:#FFB700;}
	.st2{fill:#FFC738;}
	.st3{fill:#E0A40B;}
	.st4{fill:#EDAB05;}
	.st5{fill:#F2B203;}
	.st6{fill:#FFBB00;}
	.st7{fill:#FFCA38;}
</style>
<g id="Слой_x0020_1">
	<circle class="st0" cx="75" cy="85" r="72.4"/>
	<path class="st1" d="M59.4,32.1C71,43.7,71,62.7,59.4,74.4C47.7,62.7,47.7,43.7,59.4,32.1z"/>
	<path class="st2" d="M53.2,65.5c-5-11-2.9-24.4,6.1-33.4C64.3,43.1,62.3,56.5,53.2,65.5z"/>
	<path class="st1" d="M39,51.7C50.6,63.3,50.6,82.3,39,94C27.3,82.3,27.3,63.3,39,51.7z"/>
	<path class="st2" d="M32.8,85.1c-5-11-2.9-24.4,6.1-33.4C43.9,62.7,41.9,76.1,32.8,85.1z"/>
	<path class="st1" d="M19.6,71.2c11.7,11.7,11.7,30.6,0,42.3C7.9,101.8,7.9,82.8,19.6,71.2z"/>
	<path class="st2" d="M13.5,104.6c-5-11-2.9-24.4,6.1-33.4C24.5,82.2,22.5,95.6,13.5,104.6z"/>
	<path class="st3" d="M112.7,53.3l-3-3c-7.1,7.1-16.8,11.2-26.9,11.1h-9V48.8c0-9.1,3.6-17.9,10.1-24.3l-3-3
		c-7.3,7.2-11.3,17.1-11.3,27.3v13.6l-57.8,57.8c0.7,1.3,1.5,2.5,2.3,3.8l58.3-58.3h10.6C94.1,65.7,104.8,61.3,112.7,53.3
		L112.7,53.3z"/>
	<path class="st4" d="M22.2,115.2c11.7-11.7,30.6-11.7,42.3,0C52.8,126.9,33.9,126.9,22.2,115.2z"/>
	<path class="st1" d="M25.2,112.6c10.9-8.3,26.2-8.2,37,0.5C51.2,121.5,35.9,121.3,25.2,112.6z"/>
	<path class="st5" d="M99.9,117.8c-6.1,18.7-26.2,28.8-44.8,22.7C61.1,121.8,81.2,111.7,99.9,117.8z"/>
	<path class="st6" d="M56.8,136c7.2-14.8,23.9-22.9,40.1-19C89.7,131.8,73,139.8,56.8,136z"/>
	<path class="st7" d="M61.1,129.2c7.6-9.4,19.7-14.4,31.9-12.9C85.4,125.7,73.4,130.7,61.1,129.2z"/>
	<path class="st1" d="M103.3,32c0,16.5-13.4,29.9-29.9,29.9C73.4,45.4,86.8,32,103.3,32z"/>
	<path class="st2" d="M103.3,32l0,0.1c-2.9,13.5-14.9,23.6-29.2,23.6l0-0.1C77,42.1,89,32,103.3,32z"/>
	<path class="st4" d="M61.4,76.3c11.7-11.7,30.6-11.7,42.3,0C92.1,88,73.1,88,61.4,76.3z"/>
	<path class="st1" d="M64.4,73.7c10.9-8.3,26.2-8.2,37,0.5C90.5,82.5,75.2,82.4,64.4,73.7z"/>
</g>
</svg>
