<?xml version="1.0" encoding="utf-8"?>
<!-- Generator: Adobe Illustrator 23.0.6, SVG Export Plug-In . SVG Version: 6.00 Build 0)  -->
<svg version="1.1" id="Layer_1" xmlns:xodm="http://www.corel.com/coreldraw/odm/2003"
	 xmlns="http://www.w3.org/2000/svg" xmlns:xlink="http://www.w3.org/1999/xlink" x="0px" y="0px" viewBox="0 0 144.9 144.9"
	 style="enable-background:new 0 0 144.9 144.9;" xml:space="preserve">
<style type="text/css">
	.st0{fill-rule:evenodd;clip-rule:evenodd;fill:#99CC99;}
	.st1{fill-rule:evenodd;clip-rule:evenodd;fill:#A66E37;}
	.st2{fill-rule:evenodd;clip-rule:evenodd;fill:#915C27;}
	.st3{fill-rule:evenodd;clip-rule:evenodd;fill:#C08549;}
	.st4{fill-rule:evenodd;clip-rule:evenodd;fill:#DEA164;}
	.st5{fill-rule:evenodd;clip-rule:evenodd;fill:#4B4366;}
	.st6{fill-rule:evenodd;clip-rule:evenodd;fill:#A8733E;}
	.st7{fill-rule:evenodd;clip-rule:evenodd;fill:#E2DFF4;}
	.st8{fill-rule:evenodd;clip-rule:evenodd;fill:#FFFFFF;}
	.st9{fill:#50486B;}
	.st10{fill-rule:evenodd;clip-rule:evenodd;fill:#6E4B29;}
	.st11{fill:#71698C;}
	.st12{fill-rule:evenodd;clip-rule:evenodd;fill:#855A30;}
	.st13{fill-rule:evenodd;clip-rule:evenodd;fill:#CF9255;}
	.st14{fill-rule:evenodd;clip-rule:evenodd;fill:#EDB379;}
</style>
<g id="Слой_x0020_1">
	<g id="_1948688016992">
		<circle class="st0" cx="72.5" cy="72.5" r="72.5"/>
		<path class="st1" d="M42.1,57.4c-3.5-4.2-5.4-15.1-3.3-20.9c0.4-1,1-1.9,1.8-2.3c1-0.5,2.4-0.6,3.9-0.5c6.2,0.3,15.8,4.2,19.1,7.6
			C56.6,46.5,49.1,52.2,42.1,57.4z"/>
		<path class="st2" d="M42.1,57.4c-3.5-4.2-5.4-15.1-3.3-20.9c0.2-0.7,0.6-1.3,1.1-1.7c9.6,2.4,10.9,10.8,10.9,10.8l-0.5,5.7
			C47.6,53.3,44.8,55.4,42.1,57.4z"/>
		<path class="st1" d="M102.3,57.4c3.5-4.2,5.4-15.1,3.3-20.9c-0.4-1-1-1.9-1.8-2.3c-1-0.5-2.4-0.6-3.9-0.5
			C93.7,34,84,37.9,80.7,41.3C87.8,46.5,95.2,52.2,102.3,57.4z"/>
		<path class="st2" d="M102.3,57.4c3.5-4.2,5.4-15.1,3.3-20.9c-0.2-0.7-0.6-1.3-1.1-1.7c-9.6,2.4-10.9,10.8-10.9,10.8l0.5,5.7
			C96.8,53.3,99.6,55.4,102.3,57.4z"/>
		<path class="st3" d="M40.4,66.7c-4.9,4.3-8.1,10.7-8.1,17.7v3c0,12.9,10.6,23.5,23.5,23.5h16.3h16.3c12.9,0,23.5-10.6,23.5-23.5
			v-3c0-7-3.1-13.4-8.1-17.7C101.6,25.6,42.8,25.6,40.4,66.7z"/>
		<path class="st4" d="M40.4,66.7c-4.9,4.3-8.1,10.7-8.1,17.7v3c0,12.9,10.6,23.5,23.5,23.5h16.3V35.9
			C56.9,35.9,41.6,46.2,40.4,66.7z"/>
		<path class="st5" d="M88.2,63.9c2,0,3.7,1.7,3.7,3.7c0,2-1.7,3.7-3.7,3.7c-2,0-3.7-1.7-3.7-3.7C84.5,65.5,86.2,63.9,88.2,63.9z"/>
		<path class="st6" d="M35.5,99c4,7.2,11.8,12.2,20.6,12.2h16.3h16.3c12.9,0,23.5-10.6,23.5-23.5v-3c0-6.7-2.8-12.7-7.3-17
			c1.9,3.4,3,7.3,3,11.4v3c0,12.9-10.6,23.5-23.5,23.5H68H51.7C45.4,105.6,39.7,103.1,35.5,99z"/>
		<path class="st7" d="M72.2,110.7l3.4,0c4.2,0,4.3-8.4,5.6-12.2c-3.2-0.2-5.6-3.6-8.5-3.4c-0.2,0-0.3,0-0.5,0.1
			C72.2,95.1,72.2,110.7,72.2,110.7z"/>
		<path class="st8" d="M72.2,110.7l-3.4,0c-4.2,0-4.3-8.4-5.6-12.2c3.2-0.2,5.6-3.6,8.5-3.4c0.2,0,0.3,0,0.5,0.1
			C72.2,95.1,72.2,110.7,72.2,110.7z"/>
		<path class="st9" d="M72.2,84.6c0.1,0,0.2,0,0.3,0c1.1,0,2.1,1,2,2.1c0,1.9,0,3.2,0.1,4.1c0.1,0.8,0.2,1.4,0.4,1.9
			c0.2,0.6,0.5,1.1,0.9,1.5c0.5,0.5,1.1,0.8,1.7,1c0.3,0.1,0.5,0.2,0.8,0.2c0.9,0.1,1.8-0.1,2.6-0.6c0.9-0.6,1.6-1.5,2.1-2.9
			c0.2-0.6,0.3-1.2,0.4-1.9c0.1-1.1,1.2-2,2.3-1.8c1.1,0.1,2,1.2,1.8,2.3c-0.1,1-0.3,1.9-0.6,2.7c-0.8,2.2-2.1,3.9-3.7,5
			c-1.7,1.1-3.6,1.6-5.4,1.3c-0.6-0.1-1.1-0.2-1.7-0.4c-1.1-0.4-2.3-1-3.3-2c-0.3-0.3-0.5-0.6-0.7-0.9L72.2,84.6L72.2,84.6z"/>
		<path class="st10" d="M74.6,67.9c1.5,0.6,2.7,2,4.2,3.4c2.9,2.6,5.3,6.2,5.5,9.1c0.2,2.7-0.4,4.7-1.9,6.2c-2.9,3-6.4,2.3-10.2,2.3
			V67.6C73.1,67.6,74,67.7,74.6,67.9z"/>
		<path class="st5" d="M56.1,63.9c-2,0-3.7,1.7-3.7,3.7c0,2,1.7,3.7,3.7,3.7c2,0,3.7-1.7,3.7-3.7C59.8,65.5,58.2,63.9,56.1,63.9z"/>
		<path class="st11" d="M72.2,84.6c-0.1,0-0.2,0-0.3,0c-1.1,0-2.1,1-2,2.1c0,1.9,0,3.2-0.1,4.1c-0.1,0.8-0.2,1.4-0.4,1.9
			c-0.2,0.6-0.5,1.1-0.9,1.5c-0.5,0.5-1.1,0.8-1.7,1c-0.3,0.1-0.5,0.2-0.8,0.2c-0.9,0.1-1.8-0.1-2.6-0.6c-0.9-0.6-1.6-1.5-2.1-2.9
			c-0.2-0.6-0.3-1.2-0.4-1.9c-0.1-1.1-1.2-2-2.3-1.8c-1.1,0.1-2,1.2-1.8,2.3c0.1,1,0.3,1.9,0.6,2.7c0.8,2.2,2.1,3.9,3.7,5
			c1.7,1.1,3.6,1.6,5.4,1.3c0.6-0.1,1.1-0.2,1.7-0.4c1.1-0.4,2.3-1,3.3-2c0.3-0.3,0.5-0.6,0.7-0.9L72.2,84.6L72.2,84.6z"/>
		<path class="st12" d="M69.8,67.9c-1.5,0.6-2.7,2-4.2,3.4c-2.9,2.6-5.3,6.2-5.5,9.1c-0.2,2.7,0.4,4.7,1.9,6.2
			c2.9,3,6.4,2.3,10.2,2.3V67.6C71.3,67.6,70.4,67.7,69.8,67.9z"/>
		<circle class="st13" cx="96.7" cy="81.5" r="9.5"/>
		<circle class="st14" cx="46.4" cy="80.9" r="9.5"/>
	</g>
</g>
</svg>
