<svg width="24" height="24" viewBox="0 0 24 24" fill="none" xmlns="http://www.w3.org/2000/svg">
<path d="M11.5934 22.6248H5.33366C3.63247 22.6248 2.25217 21.2394 2.25217 19.5433V4.45671C2.25217 2.75552 3.63757 1.37521 5.33366 1.37521H11.6953C12.0773 1.37521 12.3829 1.06961 12.3829 0.687606C12.3829 0.305603 12.0773 0 11.6953 0H5.33366C2.87356 0 0.876953 2.0017 0.876953 4.45671V19.5433C0.876953 22.0034 2.87865 24 5.33366 24H11.5934C11.9754 24 12.281 23.6944 12.281 23.3124C12.281 22.9304 11.9703 22.6248 11.5934 22.6248Z" fill="#FFAB00"/>
<path d="M22.7827 12.0726L18.4125 7.70246C18.1426 7.43251 17.7097 7.43251 17.4397 7.70246C17.1698 7.97241 17.1698 8.40535 17.4397 8.67529L20.6384 11.8739H6.68761C6.3056 11.8739 6 12.1795 6 12.5615C6 12.9435 6.3056 13.2491 6.68761 13.2491H20.6384L17.4397 16.4478C17.1698 16.7177 17.1698 17.1507 17.4397 17.4206C17.5721 17.553 17.7504 17.6243 17.9236 17.6243C18.0968 17.6243 18.275 17.5581 18.4075 17.4206L22.7776 13.0505C23.0526 12.7755 23.0526 12.3374 22.7827 12.0726Z" fill="#FFAB00"/>
</svg>
