<?xml version="1.0" encoding="utf-8"?>
<!-- Generator: Adobe Illustrator 23.0.6, SVG Export Plug-In . SVG Version: 6.00 Build 0)  -->
<svg version="1.1" id="Layer_1" xmlns:xodm="http://www.corel.com/coreldraw/odm/2003"
	 xmlns="http://www.w3.org/2000/svg" xmlns:xlink="http://www.w3.org/1999/xlink" x="0px" y="0px" viewBox="0 0 79.1 76.8"
	 style="enable-background:new 0 0 79.1 76.8;" xml:space="preserve">
<style type="text/css">
	.st0{fill:#828282;}
</style>
<g id="Слой_x0020_1">
	<g id="_1357927195152">
		<path class="st0" d="M30.7,58.4c2.5,0,4.9,1,6.5,2.7c1.7,1.7,2.7,4,2.7,6.5c0,2.5-1,4.9-2.7,6.5c-1.7,1.7-4,2.7-6.5,2.7
			s-4.9-1-6.5-2.7c-1.7-1.7-2.7-4-2.7-6.5c0-2.5,1-4.9,2.7-6.5C25.8,59.4,28.1,58.4,30.7,58.4z M35.3,62.9c-1.2-1.2-2.8-1.9-4.7-1.9
			c-1.8,0-3.5,0.7-4.7,1.9c-1.2,1.2-1.9,2.8-1.9,4.7s0.7,3.5,1.9,4.7c1.2,1.2,2.8,1.9,4.7,1.9c1.8,0,3.5-0.7,4.7-1.9
			c1.2-1.2,1.9-2.8,1.9-4.7S36.5,64.1,35.3,62.9z"/>
		<path class="st0" d="M62.5,58.4c2.5,0,4.9,1,6.5,2.7c1.7,1.7,2.7,4,2.7,6.5c0,2.5-1,4.9-2.7,6.5c-1.7,1.7-4,2.7-6.5,2.7
			c-2.5,0-4.9-1-6.5-2.7c-1.7-1.7-2.7-4-2.7-6.5c0-2.5,1-4.9,2.7-6.5C57.6,59.4,59.9,58.4,62.5,58.4z M67.1,62.9
			c-1.2-1.2-2.8-1.9-4.7-1.9c-1.8,0-3.5,0.7-4.7,1.9c-1.2,1.2-1.9,2.8-1.9,4.7s0.7,3.5,1.9,4.7c1.2,1.2,2.8,1.9,4.7,1.9
			c1.8,0,3.5-0.7,4.7-1.9c1.2-1.2,1.9-2.8,1.9-4.7S68.3,64.1,67.1,62.9z"/>
		<path class="st0" d="M1.3,2.6C0.6,2.6,0,2,0,1.3S0.6,0,1.3,0h5.4v0l0.6,0c3.1,0,4.4,0,5.4,1c0.7,0.8,0.9,1.8,1.1,3.5
			c0.1,0.9,0.3,2,0.6,3.2l6.8,33.2c0.6,2.8,1.4,5.6,2.8,7.7c1.3,1.9,3.2,3.2,6.1,3.2h42.6c0.7,0,1.3,0.6,1.3,1.3s-0.6,1.3-1.3,1.3
			H30.1c-3.9,0-6.5-1.8-8.3-4.4c-1.7-2.4-2.5-5.6-3.2-8.6L11.8,8.3c-0.3-1.4-0.5-2.5-0.6-3.4C11,3.7,10.9,3,10.8,2.8
			c-0.2-0.2-1.2-0.2-3.5-0.2l-0.6,0v0C6.7,2.6,1.3,2.6,1.3,2.6z"/>
		<path class="st0" d="M13.8,13c-0.7,0-1.3-0.6-1.3-1.3s0.6-1.3,1.3-1.3h59.7c0.9,0,1.3,0,1.7,0c1.8,0,2.7-0.1,3.4,0.8
			c0,0,0.1,0.1,0.1,0.1c0.5,0.7,0.4,1.6,0.1,3.1c-0.1,0.6-0.2,1.2-0.3,2l-2.1,16.1c-0.3,2.3-0.7,4.1-1.6,5.5c-1,1.5-2.5,2.5-5.1,3.1
			c-0.1,0-0.2,0-0.3,0v0H19.6c-0.7,0-1.3-0.6-1.3-1.3s0.6-1.3,1.3-1.3h49.8c1.7-0.4,2.7-1.1,3.3-2c0.7-1,0.9-2.4,1.2-4.3L76,16
			c0.1-0.9,0.2-1.6,0.3-2.1c0.1-0.8,0.4-1,0.3-1.1l0,0c-0.1-0.2-0.3,0.2-1.3,0.2c-0.6,0-1.3,0-1.8,0C73.6,13,13.8,13,13.8,13z"/>
	</g>
</g>
</svg>
