<?xml version="1.0" encoding="utf-8"?>
<!-- Generator: Adobe Illustrator 23.0.3, SVG Export Plug-In . SVG Version: 6.00 Build 0)  -->
<svg version="1.1" id="Слой_1" xmlns="http://www.w3.org/2000/svg" xmlns:xlink="http://www.w3.org/1999/xlink" x="0px" y="0px"
	 viewBox="0 0 1935.63 522.98" style="enable-background:new 0 0 1935.63 522.98;" xml:space="preserve">
<style type="text/css">
	.st0{clip-path:url(#SVGID_2_);}
	.st1{fill:url(#SVGID_3_);}
	.st2{fill:url(#SVGID_4_);}
	.st3{fill:#FFD35F;}
	.st4{fill:none;stroke:#FFE1D7;stroke-miterlimit:10;}
	.st5{fill:#FFECC1;}
	.st6{fill:#8BBDB7;}
</style>
<g>
	<defs>
		<rect id="SVGID_1_" width="1935.63" height="522.98"/>
	</defs>
	<clipPath id="SVGID_2_">
		<use xlink:href="#SVGID_1_"  style="overflow:visible;"/>
	</clipPath>
	<g class="st0">
		
			<linearGradient id="SVGID_3_" gradientUnits="userSpaceOnUse" x1="1616.8943" y1="622.7637" x2="1616.8943" y2="410.0963" gradientTransform="matrix(1 0 0 1 0 -185.1669)">
			<stop  offset="0.3316" style="stop-color:#FFFFFF;stop-opacity:0.9"/>
			<stop  offset="1" style="stop-color:#FFFFFF;stop-opacity:0.1"/>
		</linearGradient>
		<path class="st1" d="M1782.43,340.45h-1.91c-2.98-35.71-32.88-63.77-69.36-63.77c-6.1,0-12.02,0.79-17.67,2.27
			c-9.35-31.25-38.31-54.02-72.6-54.02c-35.51,0-65.3,24.42-73.52,57.38c-9.38-4.77-19.98-7.47-31.22-7.47
			c-37.04,0-67.26,29.19-68.93,65.83c-24.89,2.1-44.44,22.93-44.44,48.36v0c0,26.83,21.75,48.57,48.57,48.57h331.07
			c26.83,0,48.57-21.75,48.57-48.57v0C1831,362.2,1809.25,340.45,1782.43,340.45z"/>
		<linearGradient id="SVGID_4_" gradientUnits="userSpaceOnUse" x1="285.4654" y1="65.0145" x2="285.4654" y2="243.3785">
			<stop  offset="0.3209" style="stop-color:#FFFFFF"/>
			<stop  offset="1" style="stop-color:#FFFFFF;stop-opacity:0.3"/>
		</linearGradient>
		<path class="st2" d="M424.3,161.9h-1.6c-2.5-29.95-27.58-53.48-58.17-53.48c-5.12,0-10.08,0.66-14.82,1.9
			c-7.84-26.21-32.13-45.31-60.89-45.31c-29.78,0-54.76,20.48-61.66,48.12c-7.86-4-16.76-6.27-26.18-6.27
			c-31.07,0-56.41,24.48-57.81,55.21c-20.87,1.76-37.27,19.23-37.27,40.56v0c0,22.5,18.24,40.74,40.74,40.74H424.3
			c22.5,0,40.74-18.24,40.74-40.74v0C465.04,180.14,446.8,161.9,424.3,161.9z"/>
		<g>
			<g>
				<g>
					<path class="st3" d="M-60.6,364.25c7.63-12.68,19.21-21.55,34.71-19c64.51-5.93,55.07-48.8,90.19-62.87
						c33.18-13.28,81.72-15.99,87.54-16.9c7.03-1.1,14.47-1.03,20.98,1.83c6.77,2.98,12.31,8.33,16.83,14.18
						c21.68,28.04,8.27,111.35,59.14,142.51c19.08,11.69-18.92,38.91-31.95,57.1c-4,5.59-7.42,13.17-3.81,19.02
						c-32.13,41.45-67.42,80.46-105.45,116.57c-5.5,5.22-11.57,10.64-19.08,11.65c-13.32,1.8-29.2-9.78-41.89-13.39
						c-15.82-4.5-28.22-12.42-32.41-29.97c-1.95-8.16-1.4-16.92-4.58-24.68c-4.56-11.12-15.62-17.84-24.93-25.45
						c-35.79-29.24-49.61-77.48-55.8-123.29C-72.9,398.45-69.37,378.83-60.6,364.25z"/>
					<path class="st4" d="M147.74,314.17C65.76,486.64,1.42,518.54,1.42,518.54"/>
				</g>
				<path class="st4" d="M89.2,420.78c0,0-21.38-46.21-18.67-89.28"/>
			</g>
			<path class="st5" d="M139.35,530.47c-4.58-58.73,49.34-115.15,108.21-113.25c36.43,1.18,73.99,20.94,107.66,6.97
				c12.24-5.08,22.33-14.17,33.72-20.95c44.21-26.3,108.24-10.51,135.14,33.33c8.35,13.6,14.11,29.99,27.68,38.39
				c8.71,5.39,19.29,6.53,29.21,9.11c51.25,13.34,85.07,73.19,70.05,123.97"/>
		</g>
		<path class="st6" d="M1618.02,394.33c-39.77-8.13-82.72,0.75-116,23.99c-14.67,10.25-27.75,23.25-44.3,30.06
			c-26.75,11-57.51,3.78-84.13-7.51c-26.63-11.29-51.94-26.63-80.28-32.38c-55.33-11.23-111.37,16.08-156.32,50.24
			c-44.95,34.16-84.52,76.21-134.62,102.22c-7.67,3.98-16.79,13.22-10.65,19.31c1.81,1.8,4.45,2.41,6.94,2.92
			c52.7,10.79,106.94,10.76,160.73,10.68c144.68-0.2,289.36-0.4,434.04-0.6c36.8-0.05,73.61-0.1,110.41-0.15
			c27.9-0.04,85.91,11.39,110.75,0.23c18.46-8.29,30.74-42.28,18.3-60.83c-10.18-15.18-45.91-27.03-60.95-39.01
			C1724.25,455.54,1680.32,407.07,1618.02,394.33z"/>
		<path class="st6" d="M1828.91,276.9c0.78,7.11-7.66,12.58-7.36,19.72c0.31,7.45,9.42,10.91,16.85,11.41
			c30.05,2.02,45.37,4.88,62.26,31.8c5.75-29.52,4.56-61.47-21.85-80.07c-12.01-8.46-37.34-22.44-52.28-19.05
			C1793.65,248.17,1827.61,265.09,1828.91,276.9z"/>
	</g>
</g>
</svg>
