<?xml version="1.0" encoding="utf-8"?>
<!-- Generator: Adobe Illustrator 23.0.3, SVG Export Plug-In . SVG Version: 6.00 Build 0)  -->
<svg version="1.1" id="Слой_1" xmlns="http://www.w3.org/2000/svg" xmlns:xlink="http://www.w3.org/1999/xlink" x="0px" y="0px"
	 viewBox="0 0 166.62 212.47" style="enable-background:new 0 0 166.62 212.47;" xml:space="preserve">
<style type="text/css">
	.st0{fill:#EB4025;}
	.st1{fill:#B39D7A;}
	.st2{fill:#A69071;}
	.st3{fill:#C5B08A;}
	.st4{fill:none;stroke:#C5B08A;stroke-miterlimit:10;}
	.st5{opacity:0.78;}
	.st6{fill:url(#SVGID_1_);}
	.st7{fill:url(#SVGID_2_);}
	.st8{fill:url(#SVGID_3_);}
	.st9{fill:url(#SVGID_4_);}
	.st10{fill:url(#SVGID_5_);}
	.st11{fill:url(#SVGID_6_);}
	.st12{fill:url(#SVGID_7_);}
	.st13{fill:url(#SVGID_8_);}
	.st14{fill:url(#SVGID_9_);}
	.st15{fill:url(#SVGID_10_);}
	.st16{fill:url(#SVGID_11_);}
	.st17{opacity:0.69;fill:#FFF8D5;}
	.st18{opacity:0.83;fill:#FFF8D5;}
</style>
<g>
	<rect x="76.28" y="126.42" class="st0" width="22.21" height="26.68"/>
	<g>
		<path class="st1" d="M84.15,211.95L84.15,211.95c-12.96,0-22.78-11.71-20.53-24.47l1.55-8.77h37.8l1.64,8.38
			C107.13,199.97,97.27,211.95,84.15,211.95z"/>
		<path class="st2" d="M104.61,187.09l-1.64-8.38h-1.99l1.36,6.91c2.53,12.88-7.33,24.86-20.46,24.86h0
			c-3.67,0-7.08-0.94-10.05-2.57c3.43,2.52,7.67,4.04,12.33,4.04h0C97.27,211.95,107.13,199.97,104.61,187.09z"/>
		<polygon class="st3" points="103.89,183.39 64.33,183.39 65.29,177.91 102.79,177.79 		"/>
	</g>
	<polygon class="st4" points="102.56,179.35 65.62,179.33 46.79,134.72 117.64,133.57 	"/>
	<line class="st4" x1="84.5" y1="131.55" x2="84.5" y2="180.59"/>
	<g class="st5">
		<path class="st3" d="M89.54,199.21L88,196.99c0,0-2.37-0.4-4,0.52c-1.82-0.93-4-0.52-4-0.52l-1.55,2.22
			c-0.13,0.23,0.02,0.53,0.26,0.53h4.45c-0.01,0.06-0.02,0.12-0.02,0.18c0,0.47,0.38,0.85,0.85,0.85c0.47,0,0.85-0.38,0.85-0.85
			c0-0.06-0.01-0.12-0.02-0.18h4.45C89.52,199.74,89.67,199.44,89.54,199.21z"/>
		<path class="st3" d="M87.77,193.06c-0.04-1.67-1.17-3.07-2.7-3.53c0.28-0.28,0.45-0.66,0.45-1.09c0-0.85-0.69-1.53-1.53-1.53
			c-0.85,0-1.53,0.69-1.53,1.53c0,0.42,0.17,0.81,0.45,1.09c-1.53,0.46-2.66,1.86-2.7,3.53h-0.01v2.73c0.6-0.07,2.31-0.19,3.79,0.56
			c1.34-0.76,3.17-0.63,3.79-0.55L87.77,193.06L87.77,193.06z"/>
	</g>
	<linearGradient id="SVGID_1_" gradientUnits="userSpaceOnUse" x1="106.5238" y1="86.6572" x2="165.8373" y2="86.6572">
		<stop  offset="0.1872" style="stop-color:#F24939"/>
		<stop  offset="1" style="stop-color:#EE3236"/>
	</linearGradient>
	<path class="st6" d="M121.96,18.15c0.07-1.96,1.39-3.64,3.28-4.18c2.44-0.7,10.04-0.01,13.84,2.35
		c75.43,49.97-32.55,143.29-32.55,143.29L121.96,18.15z"/>
	<linearGradient id="SVGID_2_" gradientUnits="userSpaceOnUse" x1="101.5319" y1="83.3487" x2="154.9783" y2="83.3487">
		<stop  offset="0.1872" style="stop-color:#F24939"/>
		<stop  offset="1" style="stop-color:#EE3236"/>
	</linearGradient>
	<path class="st7" d="M112.5,12c0.07-1.96,1.39-3.64,3.28-4.18c2.44-0.7,10.04-0.01,13.84,2.35
		c59.82,36.89-3.55,123.59-14.21,140.93c-0.99,1.62-7.15,8.22-9.04,8.04l-4.83-2.26L112.5,12z"/>
	<linearGradient id="SVGID_3_" gradientUnits="userSpaceOnUse" x1="95.711" y1="80.1328" x2="142.8328" y2="80.1328">
		<stop  offset="0.1872" style="stop-color:#F24939"/>
		<stop  offset="1" style="stop-color:#EE3236"/>
	</linearGradient>
	<path class="st8" d="M95.71,152.06l4.96-144.09c0.07-1.96,1.39-3.64,3.28-4.18c2.44-0.7,10.04-0.01,13.84,2.35
		c59.82,36.89-5.27,130.72-13.51,148.01c-0.82,1.71-2.62,2.73-4.5,2.55h0C97.41,156.48,95.63,154.44,95.71,152.06z"/>
	<linearGradient id="SVGID_4_" gradientUnits="userSpaceOnUse" x1="92.1572" y1="80.3956" x2="127.2022" y2="80.3956">
		<stop  offset="0.1872" style="stop-color:#F24939"/>
		<stop  offset="1" style="stop-color:#EE3236"/>
	</linearGradient>
	<path class="st9" d="M92.17,151.59L97.13,7.51c0.07-1.96,1.39-3.64,3.28-4.18c2.31-0.66,5.65-0.93,9.24,1.06
		c0.38,0.21,0.72,0.48,1.02,0.79c38.8,40.39-1.71,131.29-9.92,148.52c-0.82,1.71-2.62,2.73-4.5,2.55l-1.38,1.72
		C92.49,157.72,92.08,153.97,92.17,151.59z"/>
	<linearGradient id="SVGID_5_" gradientUnits="userSpaceOnUse" x1="86.4701" y1="79.1247" x2="111.8091" y2="79.1247">
		<stop  offset="0.1872" style="stop-color:#F24939"/>
		<stop  offset="1" style="stop-color:#EE3236"/>
	</linearGradient>
	<path class="st10" d="M89.82,156.53L86.47,4.38c0-0.39,3.56-1.92,3.9-2.11c0.02-0.01,0.04-0.02,0.06-0.03
		c5.51-2.99,12.36-0.31,14.52,5.57c19.57,53.18-8.99,149.44-8.99,149.44L89.82,156.53z"/>
	<linearGradient id="SVGID_6_" gradientUnits="userSpaceOnUse" x1="0" y1="87.2878" x2="59.3135" y2="87.2878">
		<stop  offset="0.1872" style="stop-color:#F24939"/>
		<stop  offset="1" style="stop-color:#EE3236"/>
	</linearGradient>
	<path class="st11" d="M43.88,18.78c-0.07-1.96-1.39-3.64-3.28-4.18c-2.44-0.7-10.04-0.01-13.84,2.35
		c-75.43,49.97,32.55,143.29,32.55,143.29L43.88,18.78z"/>
	<linearGradient id="SVGID_7_" gradientUnits="userSpaceOnUse" x1="10.859" y1="84.2681" x2="64.3054" y2="84.2681">
		<stop  offset="0.1872" style="stop-color:#F24939"/>
		<stop  offset="1" style="stop-color:#EE3236"/>
	</linearGradient>
	<path class="st12" d="M53.34,12.63c-0.07-1.96-1.39-3.64-3.28-4.18c-2.44-0.7-10.04-0.01-13.84,2.35
		c-59.82,36.89,3.55,123.59,14.21,140.93c0.99,1.62,6.52,8.8,8.41,8.62l5.46-2.84L53.34,12.63z"/>
	<linearGradient id="SVGID_8_" gradientUnits="userSpaceOnUse" x1="23.0045" y1="80.7633" x2="70.1263" y2="80.7633">
		<stop  offset="0.1872" style="stop-color:#F24939"/>
		<stop  offset="1" style="stop-color:#EE3236"/>
	</linearGradient>
	<path class="st13" d="M70.12,152.7L65.16,8.61c-0.07-1.96-1.39-3.64-3.28-4.18c-2.44-0.7-10.04-0.01-13.84,2.35
		c-59.82,36.89,5.27,130.72,13.51,148.01c0.82,1.71,2.62,2.73,4.5,2.55h0C68.42,157.11,70.21,155.07,70.12,152.7z"/>
	<linearGradient id="SVGID_9_" gradientUnits="userSpaceOnUse" x1="38.6351" y1="80.1767" x2="74.0357" y2="80.1767">
		<stop  offset="0.1872" style="stop-color:#F24939"/>
		<stop  offset="1" style="stop-color:#EE3236"/>
	</linearGradient>
	<path class="st14" d="M73.67,152.22L68.71,8.14c-0.07-1.96-1.39-3.64-3.28-4.18c-2.31-0.66-5.65-0.93-9.24,1.06
		c-0.38,0.21-0.72,0.48-1.02,0.79c-38.8,40.39,1.71,131.29,9.92,148.52c0.82,1.71,2.62,2.73,4.5,2.55h0
		C71.97,156.63,75.11,157.4,73.67,152.22z"/>
	<linearGradient id="SVGID_10_" gradientUnits="userSpaceOnUse" x1="55.0596" y1="79.44" x2="79.6403" y2="79.44">
		<stop  offset="0.1872" style="stop-color:#F24939"/>
		<stop  offset="1" style="stop-color:#EE3236"/>
	</linearGradient>
	<path class="st15" d="M79.64,155.78L79.53,4.06c0-0.39-2.73-0.97-3.07-1.16c-0.02-0.01-0.04-0.02-0.06-0.03
		C70.9-0.12,64.04,2.56,61.88,8.44c-19.57,53.18,9.18,148.81,9.18,148.81L79.64,155.78z"/>
	<linearGradient id="SVGID_11_" gradientUnits="userSpaceOnUse" x1="71.2688" y1="78.2754" x2="95.6974" y2="78.2754">
		<stop  offset="0.1872" style="stop-color:#F24939"/>
		<stop  offset="1" style="stop-color:#EE3236"/>
	</linearGradient>
	<path class="st16" d="M84.32,156.55c-6.38,0-25.17-159.45-1.24-156.51S90.7,156.55,84.32,156.55z"/>
	<path class="st3" d="M105.86,161.15H59.28c-2.26,0-4.37-1.22-5.63-3.26l-4.43-7.21l66.87-0.09l-4.82,7.64
		C109.99,160.06,107.99,161.15,105.86,161.15z"/>
	<path class="st17" d="M65.92,46.23l-2.4,7.08c-0.29,0.87-0.58,1.5-0.86,1.9c-0.28,0.4-0.61,0.71-1,0.92
		c-0.39,0.21-0.88,0.34-1.46,0.4c-0.51,0.05-0.98,0.02-1.42-0.07l-0.13-1.41c0.44,0.13,0.9,0.18,1.36,0.13
		c0.4-0.04,0.72-0.16,0.97-0.38c0.25-0.22,0.46-0.59,0.63-1.12l-4.16-6.68l1.69-0.15l2.77,4.58c0.25,0.43,0.41,0.72,0.47,0.87
		l0.07-0.01c0.02-0.12,0.06-0.3,0.15-0.56l1.68-5.36L65.92,46.23z"/>
	<path class="st17" d="M75.05,55.54l-1.58,0.01l-0.02-3.83c-0.59,0.21-1.12,0.37-1.58,0.46c-0.46,0.09-0.93,0.14-1.39,0.14
		c-0.91,0-1.61-0.21-2.1-0.63c-0.49-0.42-0.74-1.03-0.75-1.81l-0.02-3.9l1.58-0.01l0.02,3.53c0,0.5,0.13,0.87,0.38,1.11
		c0.25,0.24,0.66,0.37,1.22,0.36c0.42,0,0.82-0.04,1.21-0.12c0.39-0.08,0.87-0.21,1.43-0.4l-0.02-4.51l1.58-0.01L75.05,55.54z"/>
	<path class="st17" d="M84.45,55.37L83.5,52.7h-3.67l-0.94,2.67h-1.65l3.59-9.64h1.71l3.59,9.64H84.45z M83.08,51.35l-0.9-2.61
		c-0.07-0.17-0.16-0.45-0.27-0.83c-0.12-0.38-0.2-0.65-0.24-0.83c-0.12,0.54-0.29,1.13-0.52,1.77l-0.87,2.5H83.08z"/>
	<path class="st17" d="M91.94,46.94c-0.9,0-1.61,0.32-2.13,0.96c-0.52,0.64-0.77,1.52-0.77,2.65c0,1.18,0.25,2.07,0.75,2.67
		c0.5,0.6,1.22,0.91,2.16,0.91c0.41,0,0.8-0.04,1.18-0.12s0.78-0.18,1.19-0.31v1.35c-0.75,0.29-1.61,0.43-2.56,0.43
		c-1.41,0-2.48-0.42-3.24-1.28c-0.75-0.85-1.13-2.07-1.13-3.66c0-1,0.18-1.87,0.55-2.62c0.37-0.75,0.89-1.32,1.59-1.72
		c0.69-0.4,1.5-0.6,2.44-0.6c0.98,0,1.89,0.21,2.72,0.62l-0.56,1.31c-0.32-0.15-0.67-0.29-1.03-0.4S92.33,46.94,91.94,46.94z"/>
	<path class="st17" d="M101,55.58l-1.57-0.04l0.22-8.25l-2.82-0.08l0.04-1.35l7.21,0.2l-0.04,1.35l-2.82-0.08L101,55.58z"/>
	<path class="st17" d="M112.93,53.07c-0.05,0.94-0.4,1.64-1.06,2.1c-0.66,0.46-1.58,0.66-2.78,0.6l-2.99-0.15l0.49-9.59l1.57,0.08
		l-0.2,3.9l1.36,0.07c1.22,0.06,2.13,0.35,2.75,0.87C112.69,51.46,112.98,52.17,112.93,53.07z M107.74,54.38l1.32,0.07
		c0.7,0.04,1.25-0.06,1.64-0.29c0.39-0.23,0.6-0.62,0.63-1.17c0.03-0.52-0.14-0.9-0.49-1.16c-0.35-0.26-0.95-0.41-1.81-0.45
		l-1.14-0.06L107.74,54.38z"/>
	<path class="st18" d="M33.1,81.93c0.33,1.9-0.73,3.06-3.16,3.47l-2.75,0.47l-1.62-9.46l5.77-0.99l0.23,1.33l-4.23,0.72l0.43,2.52
		l1.13-0.19C31.38,79.37,32.78,80.08,33.1,81.93z M28.51,84.31l1.11-0.19c0.74-0.13,1.26-0.34,1.57-0.65
		c0.3-0.3,0.41-0.73,0.32-1.27c-0.09-0.52-0.33-0.87-0.71-1.04c-0.39-0.17-1.01-0.18-1.87-0.04l-0.93,0.16L28.51,84.31z"/>
	<path class="st18" d="M43.19,83.06l-5.37,0.78l-1.38-9.5l5.37-0.78L42,74.87l-3.82,0.56l0.38,2.59l3.58-0.52l0.19,1.3l-3.58,0.52
		l0.43,2.98L43,81.74L43.19,83.06z"/>
	<path class="st18" d="M53.21,74.59c0.05,0.62-0.12,1.15-0.5,1.58c-0.38,0.43-0.93,0.73-1.65,0.9l0,0.04
		c0.85,0.03,1.5,0.23,1.97,0.59c0.47,0.36,0.73,0.86,0.78,1.5c0.07,0.89-0.22,1.61-0.88,2.17c-0.66,0.56-1.6,0.88-2.82,0.98
		c-1.27,0.1-2.31,0.01-3.1-0.27l-0.11-1.37c0.44,0.17,0.93,0.28,1.46,0.35c0.53,0.07,1.02,0.08,1.46,0.05
		c1.68-0.13,2.48-0.75,2.39-1.85c-0.04-0.51-0.32-0.87-0.85-1.1c-0.53-0.23-1.28-0.3-2.27-0.22l-1.15,0.09l-0.1-1.26l1.08-0.09
		c1.91-0.15,2.82-0.74,2.74-1.75c-0.03-0.41-0.22-0.71-0.56-0.92c-0.34-0.21-0.81-0.29-1.39-0.25c-0.46,0.04-0.9,0.13-1.31,0.29
		c-0.41,0.15-0.83,0.4-1.25,0.73l-0.8-1c0.93-0.76,2.06-1.19,3.39-1.3c1.01-0.08,1.83,0.07,2.45,0.46
		C52.81,73.32,53.15,73.87,53.21,74.59z"/>
	<path class="st18" d="M64.41,81.06l-1.84,0.14l-4.3-4.56l0.36,4.85l-1.56,0.12l-0.71-9.58l1.57-0.12l0.35,4.64l3.53-4.93l1.72-0.13
		l-3.52,4.91L64.41,81.06z"/>
	<path class="st18" d="M75.99,75.85c0.03,1.56-0.34,2.78-1.11,3.66c-0.77,0.88-1.87,1.33-3.3,1.36c-1.45,0.02-2.57-0.39-3.36-1.23
		c-0.79-0.85-1.2-2.06-1.23-3.65c-0.03-1.58,0.34-2.81,1.11-3.67c0.77-0.86,1.88-1.3,3.32-1.33c1.43-0.02,2.54,0.39,3.33,1.24
		C75.56,73.07,75.97,74.28,75.99,75.85z M68.66,75.97c0.02,1.18,0.27,2.07,0.76,2.68c0.49,0.6,1.2,0.9,2.14,0.88
		c0.93-0.02,1.63-0.33,2.1-0.94c0.46-0.61,0.69-1.52,0.67-2.71c-0.02-1.18-0.27-2.07-0.75-2.67s-1.19-0.89-2.12-0.88
		c-0.94,0.02-1.65,0.33-2.12,0.95C68.87,73.9,68.64,74.79,68.66,75.97z"/>
	<path class="st18" d="M86.18,79.11h3.45v-8.25h1.59v9.6H79.56v-9.6h1.57v8.25h3.45v-8.25h1.59V79.11z"/>
	<path class="st18" d="M98.71,81.13l-1.57-0.06l0.32-8.25l-2.82-0.11l0.05-1.35l7.21,0.28l-0.05,1.35l-2.82-0.11L98.71,81.13z"/>
	<path class="st18" d="M113,76.44c-0.12,1.56-0.61,2.74-1.46,3.54c-0.85,0.8-1.99,1.15-3.41,1.03c-1.44-0.12-2.52-0.63-3.23-1.55
		c-0.71-0.92-1-2.17-0.87-3.75c0.13-1.58,0.61-2.76,1.46-3.55c0.85-0.78,1.99-1.12,3.44-1c1.42,0.11,2.49,0.63,3.2,1.55
		C112.83,73.63,113.12,74.87,113,76.44z M105.69,75.85c-0.09,1.18,0.07,2.09,0.5,2.74c0.43,0.65,1.11,1.01,2.04,1.08
		c0.93,0.07,1.66-0.17,2.18-0.74c0.52-0.56,0.83-1.44,0.93-2.63c0.09-1.17-0.07-2.08-0.49-2.73c-0.42-0.64-1.1-1-2.03-1.08
		c-0.94-0.08-1.67,0.17-2.2,0.74C106.1,73.81,105.78,74.68,105.69,75.85z"/>
	<path class="st18" d="M116.25,71.94l2.84,0.28c1.32,0.13,2.25,0.41,2.8,0.85c0.55,0.44,0.78,1.07,0.7,1.9
		c-0.05,0.56-0.24,1.01-0.57,1.35s-0.76,0.54-1.31,0.58l-0.01,0.07c0.66,0.19,1.13,0.49,1.41,0.89c0.28,0.4,0.39,0.92,0.33,1.56
		c-0.08,0.86-0.45,1.5-1.09,1.93c-0.65,0.43-1.5,0.59-2.57,0.49l-3.45-0.34L116.25,71.94z M117.42,76.04l1.5,0.15
		c0.65,0.06,1.14,0.01,1.46-0.17c0.32-0.18,0.51-0.52,0.55-1.01c0.04-0.45-0.09-0.79-0.39-1.02c-0.31-0.23-0.81-0.38-1.52-0.45
		l-1.35-0.13L117.42,76.04z M117.3,77.31l-0.29,3.03l1.66,0.16c0.65,0.06,1.16-0.01,1.52-0.23c0.36-0.22,0.56-0.6,0.62-1.14
		c0.05-0.5-0.09-0.88-0.4-1.15c-0.32-0.27-0.82-0.44-1.51-0.51L117.3,77.31z"/>
	<path class="st18" d="M132.56,83l-1.57-0.14l0.38-4.31l-4.41-0.39l-0.38,4.31l-1.56-0.14l0.84-9.56l1.56,0.14l-0.34,3.91l4.41,0.39
		l0.34-3.91l1.57,0.14L132.56,83z"/>
	<path class="st18" d="M141.87,84.25l-0.64-2.76l-3.65-0.43l-1.24,2.54l-1.64-0.19l4.69-9.16l1.7,0.2l2.45,9.99L141.87,84.25z
		 M140.97,80.1l-0.59-2.7c-0.04-0.18-0.1-0.47-0.17-0.85c-0.07-0.39-0.12-0.67-0.14-0.85c-0.18,0.52-0.42,1.09-0.72,1.69l-1.15,2.38
		L140.97,80.1z"/>
</g>
</svg>
