<?xml version="1.0" encoding="utf-8"?>
<!-- Generator: Adobe Illustrator 23.0.3, SVG Export Plug-In . SVG Version: 6.00 Build 0)  -->
<svg version="1.1" id="Слой_1" xmlns="http://www.w3.org/2000/svg" xmlns:xlink="http://www.w3.org/1999/xlink" x="0px" y="0px"
	 viewBox="0 0 263.16 170.87" style="enable-background:new 0 0 263.16 170.87;" xml:space="preserve">
<style type="text/css">
	.st0{fill:#F0D2A7;}
	.st1{fill:#FFD267;}
	.st2{fill:#FFB913;}
	.st3{fill:#FFFFFF;}
	.st4{fill:#606060;}
	.st5{fill:#F99440;}
	.st6{fill:#F88B40;}
	.st7{fill:none;stroke:#8B5D04;stroke-width:0.5;stroke-miterlimit:10;}
</style>
<path class="st0" d="M6.55,150.86v19.22c8.78-7.23,80.51-63.39,256.61-120.73C139.74,63.8,33.42,132.31,6.55,150.86z"/>
<path class="st0" d="M126,97.88c2.45,22.46,73.88,31.58,73.88,31.58s-55.75,7.76-87.33-22.41C98.29,93.44,124.55,84.58,126,97.88z"
	/>
<path class="st1" d="M230.58,32.49c-6.07-7.76,7.95-21.59,11.18-21.05c3.23,0.55,1.9,7.2,1.9,7.2s5.46-3.53,7.79-0.53
	s-3.88,6.61-3.88,6.61s6.8,0.54,6.58,4.17S236.65,40.26,230.58,32.49z"/>
<path class="st2" d="M212.6,48L212.6,48c-12.07-0.38-21.55-10.47-21.17-22.54l0.13-4.27c0.38-12.07,10.47-21.55,22.54-21.17l0,0
	c12.07,0.38,21.55,10.47,21.17,22.54l-0.13,4.27C234.77,38.9,224.68,48.38,212.6,48z"/>
<g>
	<circle class="st3" cx="224.78" cy="19.01" r="2.89"/>
	<circle class="st4" cx="224.75" cy="18.99" r="2"/>
	<circle class="st3" cx="225.63" cy="20.4" r="1.01"/>
</g>
<g>
	<circle class="st3" cx="204.26" cy="18.37" r="2.89"/>
	<circle class="st4" cx="204.23" cy="18.35" r="2"/>
	<circle class="st3" cx="205.1" cy="19.76" r="1.01"/>
</g>
<g>
	<polygon class="st5" points="214.66,20.06 224.07,27.39 212.62,29.96 	"/>
	
		<ellipse transform="matrix(0.2046 -0.9788 0.9788 0.2046 145.3815 228.8613)" class="st5" cx="213.51" cy="24.98" rx="5.06" ry="1.26"/>
	<path class="st6" d="M224.08,27.4l-11.53,2.57c0,0-1.04,0.14-0.54-3.89C212.56,28,224.08,27.4,224.08,27.4z"/>
</g>
<path class="st1" d="M194.75,22.25c-7.66-6.2-21.73,7.58-21.24,10.81c0.49,3.24,7.16,2.02,7.16,2.02s-3.63,5.4-0.66,7.78
	c2.97,2.37,6.68-3.76,6.68-3.76s0.43,6.81,4.05,6.65C194.38,45.59,202.41,28.45,194.75,22.25z"/>
<line class="st7" x1="219.63" y1="49.14" x2="219.02" y2="58.01"/>
<circle class="st2" cx="219.68" cy="43.98" r="5.89"/>
<path class="st7" d="M218.97,57.74c0,0,3.56,0.81,1.59,4.76"/>
<path class="st7" d="M218.86,57.72c0,0,3.49-1.07,3.75,3.34"/>
<line class="st7" x1="206.51" y1="48.37" x2="205.9" y2="57.24"/>
<path class="st7" d="M205.85,56.98c0,0,3.56,0.81,1.59,4.76"/>
<path class="st7" d="M205.74,56.96c0,0,3.49-1.07,3.75,3.34"/>
<circle class="st2" cx="207.44" cy="44.1" r="5.89"/>
</svg>
