<?xml version="1.0" encoding="utf-8"?>
<!-- Generator: Adobe Illustrator 23.0.3, SVG Export Plug-In . SVG Version: 6.00 Build 0)  -->
<svg version="1.1" id="Слой_1" xmlns="http://www.w3.org/2000/svg" xmlns:xlink="http://www.w3.org/1999/xlink" x="0px" y="0px"
	 viewBox="0 0 299.66 111.11" style="enable-background:new 0 0 299.66 111.11;" xml:space="preserve">
<style type="text/css">
	.st0{fill:#F0D2A7;}
	.st1{fill:none;stroke:#8B5D04;stroke-width:0.5;stroke-miterlimit:10;}
	.st2{fill:#FF8500;}
	.st3{fill:#DD693C;}
	.st4{fill:#E7723D;}
	.st5{fill:#FFFFFF;}
	.st6{fill:#606060;}
	.st7{fill:#F9C044;}
	.st8{fill:#EDAD2F;}
</style>
<g>
	<path class="st0" d="M6.18,0.12c0,0,149.36,10.34,268.85,90.77C91.84,14.68,0.43,15.44,0.43,15.44L6.18,0.12z"/>
	<path class="st0" d="M139.33,38.42c-12.77,18.64,35.52,72.07,35.52,72.07s-47.37-30.41-51.7-73.87
		C121.19,17.01,146.89,27.38,139.33,38.42z"/>
	<path class="st1" d="M258.43,67.15l-3.45,10.98c0,0,3.32,3,2.3,5.36"/>
	<path class="st1" d="M254.92,78.03c0,0,1.24,2.2,0.22,4.56"/>
	<path class="st1" d="M265.04,70.78l-3.45,10.98c0,0,3.32,3,2.3,5.36"/>
	<path class="st1" d="M261.53,81.67c0,0,1.24,2.2,0.22,4.56"/>
	<path class="st2" d="M274.77,62.25c-6.04,6.84,6.16,20.39,9.17,20.06c3.01-0.33,2.15-6.54,2.15-6.54s4.86,3.56,7.17,0.91
		c2.31-2.65-3.22-6.32-3.22-6.32s6.32-0.13,6.31-3.49C296.34,63.5,280.8,55.41,274.77,62.25z"/>
	<circle class="st3" cx="264.71" cy="67.62" r="5.12"/>
	<path class="st2" d="M238.8,46.24c-3.39-2.8-5.75-11.37-8.8-8.98c-3.05,2.38,1.45,5.65,1.45,5.65s-3.66-0.82-4.36,1.49
		c-0.7,2.31,10.04,4.6,10.04,4.6S242.19,49.03,238.8,46.24z"/>
	<path class="st4" d="M236.69,43.47c5.34,3.68,12.09,3.15,15.09-1.2c2.38-3.46,4.24-8.61,11.16-12.53
		c4.77-2.75,10.64-3.61,16.36-1.88c10.91,3.29,17.11,14.69,13.87,25.46c-0.04,0.15-0.1,0.29-0.14,0.43
		c-0.05,0.18-0.09,0.35-0.15,0.53c-3.17,10.52-19.57,19.58-34.8,14.99c-14.73-4.44-24.35-16.05-22.1-26.32
		C236.21,43.13,236.45,43.3,236.69,43.47z"/>
	<path class="st3" d="M236.01,42.96c-0.31,9.58,8.9,19.69,22.41,23.76c15.23,4.59,31.63-4.47,34.8-14.99
		c0.05-0.18,0.1-0.35,0.15-0.53c0.05-0.15,0.1-0.29,0.14-0.43c0.19-0.62,0.34-1.25,0.47-1.87c-0.1,1.47-0.36,2.94-0.81,4.41
		c-0.04,0.15-0.1,0.29-0.14,0.43c-0.05,0.18-0.09,0.35-0.15,0.53c-3.17,10.52-19.57,19.58-34.8,14.99
		c-14.73-4.44-24.35-16.05-22.1-26.32C235.99,42.94,236,42.95,236.01,42.96z"/>
	<g>
		<circle class="st5" cx="286.82" cy="47.18" r="2.37"/>
		<circle class="st6" cx="286.79" cy="47.2" r="1.64"/>
		<circle class="st5" cx="288.15" cy="47.16" r="0.83"/>
	</g>
	<g>
		<polygon class="st7" points="293.4,51.91 299.55,61.71 288.26,60.26 		"/>
		
			<ellipse transform="matrix(0.5263 -0.8503 0.8503 0.5263 90.0698 273.7184)" class="st7" cx="290.71" cy="56.02" rx="4.91" ry="1.22"/>
		<path class="st8" d="M299.56,61.72l-11.37-1.47c0,0-1-0.22,0.8-3.72C288.85,58.46,299.56,61.72,299.56,61.72z"/>
	</g>
	<path class="st2" d="M260.96,42.11c-5.34-7.39-21.24,1.52-21.59,4.53c-0.34,3.01,5.91,3.54,5.91,3.54s-4.55,3.95-2.47,6.79
		c2.08,2.84,6.88-1.75,6.88-1.75s-1.27,6.19,2.01,6.92C254.98,62.87,266.3,49.5,260.96,42.11z"/>
	<circle class="st4" cx="258.96" cy="67.12" r="5.12"/>
</g>
</svg>
