<?xml version="1.0" encoding="utf-8"?>
<!-- Generator: Adobe Illustrator 23.0.3, SVG Export Plug-In . SVG Version: 6.00 Build 0)  -->
<svg version="1.1" id="Слой_1" xmlns="http://www.w3.org/2000/svg" xmlns:xlink="http://www.w3.org/1999/xlink" x="0px" y="0px"
	 viewBox="0 0 1104.13 120.89" style="enable-background:new 0 0 1104.13 120.89;" xml:space="preserve">
<style type="text/css">
	.st0{fill:#FFE9C4;}
	.st1{fill:#F0D2A7;}
	.st2{fill:#FFD267;}
	.st3{fill:#FFB913;}
	.st4{fill:#FFFFFF;}
	.st5{fill:#606060;}
	.st6{fill:#F99440;}
	.st7{fill:#F88B40;}
	.st8{fill:none;stroke:#8B5D04;stroke-width:0.5;stroke-miterlimit:10;}
</style>
<g>
	<path class="st0" d="M1104.13,0H0v89.25c103.49,14.77,306.8,31.97,545.68-9.8c194.26-33.97,431.18,10.77,558.36,41.45h0.08V0z"/>
	<path class="st1" d="M39.61,94.39c33.12-14.67,66.03-33.82,88.36-57.95C91.95,58.1,49.99,76.58,12.66,90.94
		C21.06,92.1,30.05,93.25,39.61,94.39z"/>
	<path class="st1" d="M62.62,35.95C29.81,68,27.51,92.34,27.51,92.34l-9.61-2.2C17.89,90.14,25.24,53.8,62.62,35.95z"/>
	<g>
		<g>
			<path class="st2" d="M53.78,21.72c-6.13-4.34,1.08-17.5,3.56-17.8s2.96,4.84,2.96,4.84s3.22-3.77,5.57-2.09
				c2.35,1.69-1.39,5.67-1.39,5.67s5.08-1.09,5.71,1.6S59.91,26.06,53.78,21.72z"/>
			<path class="st3" d="M44.06,36.96L44.06,36.96c-8.89,2.36-18.02-2.93-20.38-11.82l-0.84-3.15C20.48,13.1,25.77,3.98,34.66,1.61
				l0,0c8.89-2.36,18.02,2.93,20.38,11.82l0.84,3.15C58.24,25.47,52.95,34.6,44.06,36.96z"/>
			<g>
				<circle class="st4" cx="46.61" cy="13.14" r="2.2"/>
				<circle class="st5" cx="46.59" cy="13.17" r="1.52"/>
				<circle class="st4" cx="47.74" cy="12.65" r="0.77"/>
			</g>
			<g>
				<circle class="st4" cx="31.49" cy="17.16" r="2.2"/>
				<circle class="st5" cx="31.47" cy="17.18" r="1.52"/>
				<circle class="st4" cx="32.63" cy="16.66" r="0.77"/>
			</g>
			<g>
				<polygon class="st6" points="39.45,16.12 47.92,19.41 40.13,23.79 				"/>
				
					<ellipse transform="matrix(0.9964 -0.0849 0.0849 0.9964 -1.5524 3.4414)" class="st6" cx="39.68" cy="19.97" rx="0.96" ry="3.85"/>
				<path class="st7" d="M47.93,19.42l-7.85,4.4c0,0-0.73,0.33-1.24-2.72C39.65,22.38,47.93,19.42,47.93,19.42z"/>
			</g>
			<path class="st2" d="M25.4,22.07c-6.95-2.85-14.2,10.28-13.13,12.53s5.67-0.09,5.67-0.09s-1.47,4.74,1.22,5.82
				c2.68,1.08,4.05-4.21,4.05-4.21S25,41,27.62,40.09S32.34,24.92,25.4,22.07z"/>
			<line class="st8" x1="39.93" y1="38.78" x2="44.4" y2="48.07"/>
			<line class="st8" x1="49.43" y1="36.26" x2="50.92" y2="42.86"/>
			<circle class="st3" cx="39.43" cy="35.24" r="4.48"/>
			<circle class="st3" cx="48.34" cy="32.48" r="4.48"/>
		</g>
		<path class="st8" d="M50.83,42.68c0,0,2.78-0.19,2.2,3.13"/>
		<path class="st8" d="M50.75,42.69c0,0,2.31-1.55,3.46,1.62"/>
		<path class="st8" d="M44.4,48.07c0,0,2.74,0.47,1.4,3.56"/>
		<path class="st8" d="M44.32,48.06c0,0,2.61-0.95,2.98,2.39"/>
	</g>
</g>
</svg>
