<?xml version="1.0" encoding="utf-8"?>
<!-- Generator: Adobe Illustrator 23.0.3, SVG Export Plug-In . SVG Version: 6.00 Build 0)  -->
<svg version="1.1" id="Слой_1" xmlns="http://www.w3.org/2000/svg" xmlns:xlink="http://www.w3.org/1999/xlink" x="0px" y="0px"
	 viewBox="0 0 263.16 121.51" style="enable-background:new 0 0 263.16 121.51;" xml:space="preserve">
<style type="text/css">
	.st0{fill:#F0D2A7;}
	.st1{fill:#FF8500;}
	.st2{fill:#E7723D;}
	.st3{fill:#FFFFFF;}
	.st4{fill:#606060;}
	.st5{fill:#F99440;}
	.st6{fill:#F88B40;}
	.st7{fill:none;stroke:#8B5D04;stroke-width:0.5;stroke-miterlimit:10;}
</style>
<path class="st0" d="M255.23,1.89C241.9,12.53,169.04,66.48,0,121.52C121.42,107.3,226.28,40.77,255.23,20.96V1.89z"/>
<g>
	<path class="st1" d="M34.94,76.01c5.65-9.21-11.34-22.54-14.79-21.55s-1.18,8.08-1.18,8.08s-6.39-3.17-8.55,0.39
		s5.05,6.72,5.05,6.72s-7.35,1.43-6.66,5.36C9.51,78.93,29.28,85.22,34.94,76.01z"/>
	<path class="st2" d="M56.44,90.67L56.44,90.67c13.11-1.91,22.18-14.08,20.28-27.18l-0.67-4.64c-1.91-13.11-14.08-22.18-27.18-20.28
		l0,0c-13.11,1.91-22.18,14.08-20.28,27.18l0.67,4.64C31.16,83.5,43.33,92.58,56.44,90.67z"/>
	<g>
		<circle class="st3" cx="39.58" cy="60.6" r="3.17"/>
		<circle class="st4" cx="39.61" cy="60.57" r="2.19"/>
		<circle class="st3" cx="38.83" cy="62.21" r="1.11"/>
	</g>
	<g>
		<circle class="st3" cx="61.86" cy="57.36" r="3.17"/>
		<circle class="st4" cx="61.89" cy="57.33" r="2.19"/>
		<circle class="st3" cx="61.12" cy="58.98" r="1.11"/>
	</g>
	<g>
		<polygon class="st5" points="50.74,60.49 41.4,69.64 54.18,71.02 		"/>
		
			<ellipse transform="matrix(0.9495 -0.3138 0.3138 0.9495 -17.964 19.8276)" class="st5" cx="52.61" cy="65.72" rx="1.38" ry="5.55"/>
		<path class="st6" d="M41.39,69.65l12.88,1.38c0,0,1.15,0.02,0.11-4.3C54.01,68.88,41.39,69.65,41.39,69.65z"/>
	</g>
	<path class="st1" d="M72.7,60.4c7.58-7.71,24.61,5.56,24.48,9.15c-0.13,3.59-7.55,3.09-7.55,3.09s4.62,5.44,1.68,8.39
		s-7.74-3.27-7.74-3.27s0.38,7.47-3.59,7.75C76,85.79,65.12,68.11,72.7,60.4z"/>
	<line class="st7" x1="48.93" y1="92.79" x2="50.69" y2="102.37"/>
	<circle class="st2" cx="48.23" cy="87.17" r="6.46"/>
	<path class="st7" d="M50.72,102.08c0,0-3.78,1.32-1.14,5.39"/>
	<path class="st7" d="M50.83,102.04c0,0-3.94-0.73-3.67,4.11"/>
	<line class="st7" x1="63.12" y1="90.33" x2="64.89" y2="99.91"/>
	<path class="st7" d="M64.91,99.62c0,0-3.78,1.32-1.14,5.39"/>
	<path class="st7" d="M65.03,99.58c0,0-3.94-0.73-3.67,4.11"/>
	<circle class="st2" cx="61.59" cy="85.78" r="6.46"/>
</g>
</svg>
