<?xml version="1.0" encoding="utf-8"?>
<!-- Generator: Adobe Illustrator 23.0.3, SVG Export Plug-In . SVG Version: 6.00 Build 0)  -->
<svg version="1.1" id="Слой_1" xmlns="http://www.w3.org/2000/svg" xmlns:xlink="http://www.w3.org/1999/xlink" x="0px" y="0px"
	 viewBox="0 0 333 166" style="enable-background:new 0 0 333 166;" xml:space="preserve">
<style type="text/css">
	.st0{fill:url(#SVGID_1_);}
</style>
<linearGradient id="SVGID_1_" gradientUnits="userSpaceOnUse" x1="166.5" y1="3255.4468" x2="166.5" y2="3090.3403" gradientTransform="matrix(1 0 0 -1 0 3255.4468)">
	<stop  offset="0.3316" style="stop-color:#FFFFFF;stop-opacity:0.9"/>
	<stop  offset="1" style="stop-color:#FFFFFF;stop-opacity:0.1"/>
</linearGradient>
<path class="st0" d="M295.01,75.42h-1.48c-2.31,27.72-25.53,49.51-53.85,49.51c-4.74,0-9.33-0.61-13.72-1.76
	c-7.26,24.26-29.74,41.94-56.36,41.94c-27.56,0-50.69-18.96-57.08-44.55c-7.28,3.7-15.51,5.8-24.24,5.8
	c-28.76,0-52.22-22.66-53.51-51.1c-19.32-1.63-34.5-17.8-34.5-37.55v0C0.28,16.88,17.16,0,37.99,0h257.03
	c20.83,0,37.71,16.88,37.71,37.71v0C332.72,58.54,315.84,75.42,295.01,75.42z"/>
</svg>
