<?xml version="1.0" encoding="utf-8"?>
<!-- Generator: Adobe Illustrator 23.0.3, SVG Export Plug-In . SVG Version: 6.00 Build 0)  -->
<svg version="1.1" id="Слой_1" xmlns="http://www.w3.org/2000/svg" xmlns:xlink="http://www.w3.org/1999/xlink" x="0px" y="0px"
	 viewBox="0 0 460.64 160.77" style="enable-background:new 0 0 460.64 160.77;" xml:space="preserve">
<style type="text/css">
	.st0{fill:url(#SVGID_1_);}
</style>
<linearGradient id="SVGID_1_" gradientUnits="userSpaceOnUse" x1="230.0958" y1="-0.1308" x2="230.0958" y2="160.766">
	<stop  offset="0.5455" style="stop-color:#FFFFFF"/>
	<stop  offset="1" style="stop-color:#FFFFFF;stop-opacity:0.3"/>
</linearGradient>
<path class="st0" d="M435.31,111c-3.64,0-7.09,0.79-10.21,2.19c-4.63-14.96-18.58-25.83-35.06-25.83h-8.11
	c1.09-4.52,1.68-9.24,1.68-14.1c0-33.21-26.92-60.13-60.13-60.13c-15.67,0-29.94,6-40.64,15.82c-10.7-9.82-24.97-15.82-40.64-15.82
	c-14.45,0-27.71,5.1-38.08,13.6c-10.51-8.99-24.14-14.43-39.05-14.43c-4.98,0-9.81,0.62-14.43,1.76
	c-11.34-8.88-25.61-14.2-41.13-14.2c-32.7,0-59.89,23.52-65.63,54.56C18.92,59.01,0,80.86,0,107.15c0,29.61,24.01,53.62,53.62,53.62
	c2.36,0,315.34,0,315.34,0h21.08h44.99v-0.01c0.09,0,0.18,0.01,0.28,0.01c13.74,0,24.88-11.14,24.88-24.88
	C460.19,122.14,449.05,111,435.31,111z"/>
</svg>
