<?xml version="1.0" encoding="utf-8"?>
<!-- Generator: Adobe Illustrator 23.0.3, SVG Export Plug-In . SVG Version: 6.00 Build 0)  -->
<svg version="1.1" id="Слой_1" xmlns="http://www.w3.org/2000/svg" xmlns:xlink="http://www.w3.org/1999/xlink" x="0px" y="0px"
	 viewBox="0 0 91.56 47.48" style="enable-background:new 0 0 91.56 47.48;" xml:space="preserve">
<style type="text/css">
	.st0{opacity:0.76;fill:url(#SVGID_1_);}
</style>
<linearGradient id="SVGID_1_" gradientUnits="userSpaceOnUse" x1="45.7021" y1="0" x2="45.7021" y2="47.3538">
	<stop  offset="0.3209" style="stop-color:#FFFFFF"/>
	<stop  offset="1" style="stop-color:#FFFFFF;stop-opacity:0.3"/>
</linearGradient>
<path class="st0" d="M78.36,20.95c0-0.12,0.02-0.23,0.02-0.34C78.37,9.23,69.15,0,57.77,0c-7.39,0-13.85,3.9-17.49,9.75
	C37.02,7.04,32.84,5.4,28.27,5.4c-9.43,0-17.21,6.96-18.54,16.02C4.13,22.95,0,28.06,0,34.15c0,7.29,5.91,13.21,13.21,13.21H78.2
	c7.29,0,13.21-5.91,13.21-13.21C91.4,26.91,85.58,21.04,78.36,20.95z"/>
</svg>
