<?xml version="1.0" encoding="utf-8"?>
<!-- Generator: Adobe Illustrator 23.0.3, SVG Export Plug-In . SVG Version: 6.00 Build 0)  -->
<svg version="1.1" id="Слой_1" xmlns="http://www.w3.org/2000/svg" xmlns:xlink="http://www.w3.org/1999/xlink" x="0px" y="0px"
	 viewBox="0 0 145.06 72.53" style="enable-background:new 0 0 145.06 72.53;" xml:space="preserve">
<style type="text/css">
	.st0{fill:url(#SVGID_1_);}
</style>
<linearGradient id="SVGID_1_" gradientUnits="userSpaceOnUse" x1="72.7234" y1="90" x2="72.7234" y2="17.7643" gradientTransform="matrix(1 0 0 -1 0 90)">
	<stop  offset="0.3209" style="stop-color:#FFFFFF"/>
	<stop  offset="1" style="stop-color:#FFFFFF;stop-opacity:0.3"/>
</linearGradient>
<path class="st0" d="M128.95,39.24h-0.65c-1.01-12.13-11.17-21.66-23.56-21.66c-2.07,0-4.08,0.27-6,0.77C95.56,7.74,85.73,0,74.08,0
	C62.02,0,51.9,8.29,49.11,19.49c-3.19-1.62-6.79-2.54-10.61-2.54c-12.58,0-22.84,9.92-23.41,22.36C6.64,40.02,0,47.1,0,55.74l0,0
	c0,9.11,7.39,16.5,16.5,16.5h112.45c9.11,0,16.5-7.39,16.5-16.5l0,0C145.45,46.62,138.06,39.24,128.95,39.24z"/>
</svg>
