<?xml version="1.0" encoding="utf-8"?>
<!-- Generator: Adobe Illustrator 23.0.3, SVG Export Plug-In . SVG Version: 6.00 Build 0)  -->
<svg version="1.1" id="Слой_1" xmlns="http://www.w3.org/2000/svg" xmlns:xlink="http://www.w3.org/1999/xlink" x="0px" y="0px"
	 viewBox="0 0 178 89" style="enable-background:new 0 0 178 89;" xml:space="preserve">
<style type="text/css">
	.st0{fill:url(#SVGID_1_);}
</style>
<linearGradient id="SVGID_1_" gradientUnits="userSpaceOnUse" x1="88.7234" y1="0" x2="88.7234" y2="88.1277">
	<stop  offset="0.3209" style="stop-color:#FFFFFF"/>
	<stop  offset="1" style="stop-color:#FFFFFF;stop-opacity:0.3"/>
</linearGradient>
<path class="st0" d="M157.32,47.87h-0.79c-1.23-14.8-13.63-26.43-28.74-26.43c-2.53,0-4.98,0.33-7.32,0.94
	C116.59,9.44,104.59,0,90.38,0C75.67,0,63.32,10.12,59.92,23.78c-3.89-1.98-8.28-3.1-12.94-3.1c-15.35,0-27.87,12.1-28.56,27.28
	C8.1,48.83,0,57.46,0,68v0c0,11.12,9.01,20.13,20.13,20.13h137.19c11.12,0,20.13-9.01,20.13-20.13v0
	C177.45,56.88,168.44,47.87,157.32,47.87z"/>
</svg>
