<?xml version="1.0" encoding="utf-8"?>
<!-- Generator: Adobe Illustrator 23.0.3, SVG Export Plug-In . SVG Version: 6.00 Build 0)  -->
<svg version="1.1" id="Слой_1" xmlns="http://www.w3.org/2000/svg" xmlns:xlink="http://www.w3.org/1999/xlink" x="0px" y="0px"
	 viewBox="0 0 129 153" style="enable-background:new 0 0 129 153;" xml:space="preserve">
<style type="text/css">
	.st0{fill:#F77B3E;}
	.st1{fill:#E7723D;}
	.st2{fill:#606060;}
	.st3{fill:#F1F1F1;}
	.st4{fill:#F4F6F6;}
	.st5{fill:#FFFFFF;}
	.st6{fill:#FF8500;}
	.st7{fill:#FC7108;}
</style>
<g>
	<path class="st0" d="M84.68,64.86L84.68,64.86c-6.44,0-12.48,1.71-17.7,4.69c-5.3,3.03-11.7,3.5-17.42,1.37
		C28,62.9,7.06,36.87,3.15,42.99c-5.31,8.33,27.21,44.97,42.57,52.23c2,0.95,3.27,2.93,3.26,5.15c0,0.05,0,0.1,0,0.16v34.85h71.42
		v-34.85C120.39,80.83,104.41,64.86,84.68,64.86z"/>
	<path class="st1" d="M52.77,135.31l-0.03-37.2c0-0.05,0-0.11,0-0.16c0.01-2.22-1.25-4.2-3.26-5.15
		C34.99,85.95,5.25,52.97,6.38,42.26c-1.52-0.53-2.65-0.41-3.3,0.6C-2.23,51.2,30.29,87.84,45.65,95.1c2,0.95,3.27,2.93,3.26,5.15
		c0,0.05,0,0.1,0,0.16l0.11,34.9H52.77z"/>
	<path class="st2" d="M1.78,38.05L1.78,38.05c-1.83,1.2-2.33,3.65-1.13,5.48l1.33,2.03c1.2,1.83,3.65,2.33,5.48,1.13l0,0
		c1.83-1.2,2.33-3.65,1.13-5.48l-1.33-2.03C6.06,37.36,3.61,36.85,1.78,38.05z"/>
	<path class="st3" d="M61.72,135.39h46.2V98.12c0-12.76-10.34-23.1-23.1-23.1h0c-12.76,0-23.1,10.34-23.1,23.1V135.39z"/>
	<g>
		<path class="st4" d="M44.58,58.27c0,0,4.45-16.73,17.45-17.17C72.6,40.74,81.58,57.44,85,71.17c3.42-13.73,12.5-29.13,23.06-30.07
			c11.57-1.03,16.85,17.73,16.85,17.73l-39.94,25.9L44.58,58.27z"/>
		<g>
			<circle class="st5" cx="64.05" cy="55.28" r="3.07"/>
			<circle class="st2" cx="64.03" cy="55.32" r="2.13"/>
			<circle class="st5" cx="65.4" cy="54.2" r="1.08"/>
		</g>
		<g>
			<circle class="st5" cx="101.71" cy="55.28" r="3.07"/>
			<circle class="st2" cx="101.69" cy="55.32" r="2.13"/>
			<circle class="st5" cx="103.05" cy="54.2" r="1.08"/>
		</g>
		<path class="st6" d="M42.77,0.41C59.82,3.48,70.06,14.1,75.38,21.72c1.98,2.84,5.2,4.56,8.67,4.56h0c3.46,0,6.68-1.72,8.67-4.56
			c5.32-7.62,15.56-18.24,32.62-21.31c-0.86,30.46-5.31,38.92-7.29,41.19c2.63,5.99,7.31,16.82,6.87,17.22
			c-1.49-2.85-6.68-17.88-17.11-16.96c-6.7,0.59-12.8,7.01-17.24,15.13c-1.99,3.64-3.34,7.78-4.05,12.1l-0.63,3.8h-2.28l-0.56-3.42
			c-0.82-5.02-2.39-9.8-4.73-14c-4.35-7.82-10.15-13.83-16.55-13.61c-10.14,0.34-17,16.75-17.18,16.39
			c-0.2-0.69,3.67-9.64,6.42-15.86C50.6,42.24,43.85,38.7,42.77,0.41z"/>
		<polygon class="st2" points="84.62,76.17 87.99,71.54 81.17,71.54 		"/>
		<path class="st7" d="M84.18,32.68L84.18,32.68c-3.55,0-6.86-1.78-8.79-4.76C69.56,18.95,57.88,4.24,42.88,0.29
			c17.14,3.08,27.4,13.79,32.69,21.42c1.93,2.78,5.07,4.44,8.45,4.44h0.27c3.39,0,6.54-1.69,8.48-4.48
			c4.28-6.15,11.79-14.29,23.51-18.82c2.82-1.1,5.96-2.09,9.27-2.68c-15.57,5.22-27.04,19.41-32.6,27.79
			C90.99,30.9,87.71,32.68,84.18,32.68z"/>
		<path class="st3" d="M62.63,16.69c-3.13-3.02-7.58-5.93-13.67-7.02c0.17,6.04,0.61,10.45,1.14,13.67
			c0.79,4.77,5.87,7.52,10.31,5.61l0,0C65.34,26.83,66.48,20.41,62.63,16.69z"/>
		<g>
			<path class="st3" d="M105.47,16.69c3.13-3.02,7.58-5.93,13.67-7.02c-0.17,6.04-0.61,10.45-1.14,13.67
				c-0.79,4.77-5.87,7.52-10.31,5.61l0,0C102.77,26.83,101.62,20.41,105.47,16.69z"/>
			<path class="st2" d="M125.55,0.17c-0.1,3.39-0.45,6.74-0.63,9.61c-0.2,0.01-0.4,0.03-0.61,0.03c-1.81,0-0.56-5.16-1.96-6.13
				c-1.72-1.2-5.98,1.45-6.58-0.68C118.69,1.85,122.1,0.79,125.55,0.17z"/>
		</g>
		<path class="st2" d="M42.66,0.2c0.1,3.39,0.35,6.71,0.52,9.58c0.2,0.01,0.4,0.03,0.61,0.03c1.81,0,0.56-5.16,1.96-6.13
			c1.72-1.2,6.16,1.38,6.76-0.75C49.6,1.78,46.11,0.82,42.66,0.2z"/>
	</g>
	<g>
		<path class="st0" d="M91.9,149.07c5.65-3.77,10.79-9.82,14.23-17.44c5.79-12.8,3.48-24.56,3.73-29.66
			c6.97-3.36-1.76-25.28,1.52-24.17c20.76,11.09,19.99,35.19,13.12,50.38C117.4,143.9,103.09,152.91,91.9,149.07z"/>
		<path class="st1" d="M109.97,131.89c5.79-12.8,2.97-31.2,0.41-30.43c-0.26,5.11,2.06,16.86-3.73,29.66
			c-3.44,7.62-8.58,13.66-14.23,17.44c1.08,0.37,2.2,0.62,3.33,0.76C101.39,145.54,106.52,139.5,109.97,131.89z"/>
		<path class="st2" d="M101.25,145.57L101.25,145.57c-1.19-1.83-3.64-2.36-5.47-1.17l-2.03,1.32c-1.83,1.19-2.36,3.64-1.17,5.47l0,0
			c1.19,1.83,3.64,2.36,5.47,1.17l2.03-1.32C101.92,149.85,102.44,147.4,101.25,145.57z"/>
	</g>
</g>
</svg>
