<?xml version="1.0" encoding="utf-8"?>
<!-- Generator: Adobe Illustrator 23.0.3, SVG Export Plug-In . SVG Version: 6.00 Build 0)  -->
<svg version="1.1" id="Слой_1" xmlns="http://www.w3.org/2000/svg" xmlns:xlink="http://www.w3.org/1999/xlink" x="0px" y="0px"
	 viewBox="0 0 145.71 189.96" style="enable-background:new 0 0 145.71 189.96;" xml:space="preserve">
<style type="text/css">
	.st0{clip-path:url(#SVGID_2_);}
	.st1{fill:#F88B40;}
	.st2{fill:none;stroke:#FFFFFF;stroke-miterlimit:10;}
</style>
<g>
	<defs>
		<rect id="SVGID_1_" width="145.53" height="189.96"/>
	</defs>
	<clipPath id="SVGID_2_">
		<use xlink:href="#SVGID_1_"  style="overflow:visible;"/>
	</clipPath>
	<g class="st0">
		<path class="st1" d="M61.26,5.95c-11.29-2.14-23.1-3.2-34.19-0.17S5.66,16.55,2.06,27.47c-4.24,12.88,1.59,27.15,10.29,37.55
			S32.43,83.2,42.04,92.76c1.72,1.71,3.48,3.7,3.64,6.12c0.27,4.33-4.37,7.02-7.4,10.12c-7.67,7.83-5.23,21.93,2.87,29.32
			c8.1,7.39,19.91,9.23,30.85,8.49c6.71-0.46,13.7-1.72,19.98,0.68c16.96,6.46,17.28,33.89,34.09,40.71
			c12.33,5,26.44-5.06,31.36-17.43c8.22-20.65,3.41-48.06,5.57-70c1.38-13.95,3-28.65-4.33-41.34
			C141.46,29.63,92.61,11.9,61.26,5.95z"/>
		<path class="st2" d="M50.17,50.09c87.83,33.19,133.28,82.72,133.28,82.72"/>
	</g>
</g>
</svg>
