<?xml version="1.0" encoding="utf-8"?>
<!-- Generator: Adobe Illustrator 23.0.3, SVG Export Plug-In . SVG Version: 6.00 Build 0)  -->
<svg version="1.1" id="Слой_1" xmlns="http://www.w3.org/2000/svg" xmlns:xlink="http://www.w3.org/1999/xlink" x="0px" y="0px"
	 viewBox="0 0 1917.93 722.07" style="enable-background:new 0 0 1917.93 722.07;" xml:space="preserve">
<style type="text/css">
	.st0{clip-path:url(#SVGID_2_);}
	.st1{fill:#F0D2A7;}
	.st2{fill:none;stroke:#FFE1D7;stroke-miterlimit:10;}
	.st3{fill:#8BBDB7;}
	.st4{fill:#F9C044;}
	.st5{fill:#87B5AF;}
	.st6{fill:#FFE2BA;}
	.st7{fill:#FFE9C4;}
	.st8{fill:#76ABA3;}
	.st9{fill:none;stroke:#FFE9C4;stroke-miterlimit:10;}
	.st10{opacity:0.2;fill:#76ABA3;}
	.st11{fill:#FFD39D;}
	.st12{fill:#F88B40;}
	.st13{fill:#F99D42;}
	.st14{fill:#F77B3E;}
	.st15{fill:#F5683C;}
</style>
<g>
	<defs>
		<rect id="SVGID_1_" x="0.66" width="1917.32" height="722.17"/>
	</defs>
	<clipPath id="SVGID_2_">
		<use xlink:href="#SVGID_1_"  style="overflow:visible;"/>
	</clipPath>
	<g class="st0">
		<g>
			<path class="st1" d="M1697.35,242.57c-1.84-16.14,2.32-31.6,17.52-39.73c8.15-4.37,18.72-4.39,25.21-10.98
				c9.51-9.66,3.99-25.8-2.3-37.81c-6.29-12.01-12.61-27.55-4.01-38.03c8.04-9.79,22.99-8.26,34.29-9.11
				c5.38-0.4,12.96-0.79,17.27-4.54c5.69-4.95,7.13-19.19,8.4-26.51c1.47-8.49,1.82-17.16,3.65-25.58
				c2.89-13.3,9.5-25.78,18.89-35.63c5.39-5.65,11.9-10.56,19.49-12.42c7.88-1.93,16.15-0.42,24.12,1.1
				c24.99,4.75,42.76,26.27,50.88,49.64c4.05,11.67,9.5,25.89,21.76,27.49c4.74,0.62,9.44-0.96,14.03-2.29
				c20.55-6,45.79-6.3,60.03,9.69c16.33,18.34,9.53,46.51,10.34,71.05c0.25,7.54,2.34,16.42,9.39,19.11
				c-0.27,57.55-4.93,115.08-13.9,171.92c-1.3,8.22-2.96,16.99-8.83,22.89c-10.39,10.47-31.94,11-45.41,16.34
				c-16.78,6.65-32.87,8.05-48.24-4.43c-7.15-5.8-12.52-13.79-20.48-18.42c-11.4-6.64-25.52-5.09-38.7-5.49
				c-50.69-1.54-94.95-34.3-130.95-70.02C1709.5,280.55,1699.46,261.11,1697.35,242.57z"/>
			<path class="st2" d="M1845.23,59.78c43.88,204.88,9.19,275.64,9.19,275.64"/>
		</g>
		<g>
			<path class="st3" d="M555.27,383.5c1.84-16.14-2.32-31.6-17.52-39.73c-8.15-4.37-18.72-4.39-25.21-10.98
				c-9.51-9.66-3.99-25.8,2.3-37.81c6.29-12.01,12.61-27.55,4.01-38.03c-8.04-9.79-22.99-8.26-34.29-9.11
				c-5.38-0.4-12.96-0.79-17.27-4.54c-5.69-4.95-7.13-19.19-8.4-26.51c-1.47-8.49-1.82-17.16-3.65-25.58
				c-2.89-13.3-9.5-25.78-18.89-35.63c-5.39-5.65-11.9-10.56-19.49-12.42c-7.88-1.93-16.15-0.42-24.12,1.1
				c-24.99,4.75-42.76,26.27-50.88,49.64c-4.05,11.67-9.5,25.89-21.76,27.49c-4.74,0.62-9.44-0.96-14.03-2.29
				c-20.55-6-45.79-6.3-60.03,9.69c-16.33,18.34-9.53,46.51-10.34,71.05c-0.25,7.54-2.34,16.42-9.39,19.11
				c0.27,57.55,4.93,115.08,13.9,171.92c1.3,8.22,2.96,16.99,8.83,22.89c10.39,10.47,31.94,11,45.41,16.34
				c16.78,6.65,32.87,8.05,48.24-4.43c7.15-5.8,12.52-13.79,20.48-18.42c11.4-6.64,25.52-5.09,38.7-5.49
				c50.69-1.54,94.95-34.3,130.95-70.02C543.12,421.48,553.16,402.05,555.27,383.5z"/>
			<path class="st2" d="M407.39,200.71c-43.88,204.88-9.19,275.64-9.19,275.64"/>
		</g>
		<g>
			<path class="st4" d="M-28.73,417.3c1.23-1.65,2.5-3.26,3.8-4.83c16.19-19.53,45.07-29.5,47.2-57.4
				c1.84-24.22-14.76-46.42-10.85-70.81c2.69-16.78,19.88-27.27,26.69-42.83c7.54-17.24,1.17-37.2,3.18-55.91
				c1.87-17.42,11.51-33.86,25.81-44c22.73-16.12,55.12-14.8,78.99-0.43c23.87,14.37,39.6,39.95,46.38,66.98
				c2.18,8.69,3.68,17.94,9.12,25.07c9.37,12.27,26.71,14.11,41.98,16.36c21.19,3.12,42.39,9.14,59.97,21.37
				s31.17,31.38,33.01,52.71c2.26,26.17-12.81,53-4.65,77.97c6.3,19.3,25.91,35.26,22.63,55.3c-1.18,7.2-5.31,13.56-9.76,19.35
				c-28.69,37.24-72.37,58.08-114.72,75.76c-77.2,32.24-217.03,100.78-274-3.11C-66.26,508.14-55.88,453.58-28.73,417.3z"/>
			<path class="st2" d="M114.18,566.41c0,0,64.66-180.5,0.35-371.63"/>
			<path class="st2" d="M143.83,414.18c0,0,89.69-19.07,118-85.56"/>
			<path class="st2" d="M138.04,301.9c0,0-58.47-20.87-68.36-80.66"/>
		</g>
		<path class="st3" d="M1461.72,447.85c-136.36,62.43-289.92,114.41-439.52,124.88c-190.93,13.35-638.56-59.76-827.23-27.57
			C76.63,565.33-17.72,664.3-20.55,688.55c-2.89,24.79,15.85,48.03,38.52,58.47c22.67,10.44,48.48,10.92,73.44,11.09
			c61.81,0.42,123.63,0.07,185.44-0.29c152.76-0.87,305.51-1.74,458.27-2.61c368.84-2.1,738.27-4.18,1105.85,26.35
			c9.93,0.82,20.39,1.59,29.43-2.63c8.35-3.89,14.29-11.51,19.53-19.1c42.57-61.75,58.88-137.34,73.68-210.87
			c8.72-43.31,17.27-87.42,12.88-131.38c-3.89-38.96,16-93.6-22.88-102.24C1760.58,272.47,1565.33,400.41,1461.72,447.85z"/>
		<path class="st5" d="M1635.16,514.67l-27.8,6.24c1.48-1.74,2.88-3.64,4.18-5.76c7.84-12.83,4.03-33.6-10.53-37.34
			c-12.11-3.11-23.44,6.44-35.44,9.95c-37.6,10.99-80.49-6.99-118.93,3.9c-16.18,4.58-31.44,14.07-48.25,13.71
			c-20.77-0.45-37.8-15.59-56.36-24.92c-41.17-20.68-95.6-10.41-126.4,23.85c-17.75,19.75-33.54,48.98-60.05,47.28
			c-11.32-0.73-21.25-7.46-31.98-11.15c-22.86-7.88-49.01-1.26-68.54,13.01c-19.52,14.27-33.14,35.3-43.1,57.34
			c-3.86,8.53-7.48,17.63-14.6,23.71c-11.38,9.71-28.16,8.97-42.04,14.54c-11.07,4.45-12.09,13.41-17.83,21.97
			c-4.69,6.98-14.04,9.83-7.86,21.27c4.39,8.14,13.63,12.17,22.21,15.6c27.8,11.1,55.94,21.97,85.44,27.05
			c46.81,8.06,95,1.19,141.05-10.43c46.05-11.62,90.83-27.93,136.97-39.19c50-12.21,101.32-18.42,151.22-31.03
			c49.9-12.6,99.4-32.32,137.12-67.33C1623.84,568.21,1641.12,541.55,1635.16,514.67z"/>
		<path class="st6" d="M1778.58,454.93c-51.59,19.67-114.34,48.29-163.53,73.37c-184.28,93.93-372.37,150.45-578.54,167.08
			c-47.59,3.84-96.65,1.51-143.76-6.23c-37.97-6.23-218.74-45.48-269.23-66.26c-56.8-23.37-124.85-49.4-193.02-25.66
			c44.81,3.06,90.77,18.38,145.91,51.32c93.66,55.93,200.24,87.4,307.91,104.94c91.08,14.83,184.99,10.09,277.09,4.23
			c300.44,18.74,789.12-243.21,895.62-231.89c6.79,0.72,14.08-2.17,18.73-7.17c4.31-4.64,5.26-11.45,5.29-17.79
			C2081.66,365.83,1850.23,427.6,1778.58,454.93z"/>
		<g>
			<polygon class="st1" points="112.17,554.11 120.82,582.05 127.15,582.05 133.83,554.11 			"/>
			<ellipse class="st7" cx="123" cy="554.11" rx="10.83" ry="3.86"/>
		</g>
		<g>
			<polygon class="st1" points="346.27,646.28 354.91,674.21 361.25,674.21 367.93,646.28 			"/>
			<ellipse class="st7" cx="357.1" cy="646.28" rx="10.83" ry="3.86"/>
		</g>
		<g>
			<polygon class="st1" points="737.05,590.98 745.69,618.91 752.02,618.91 758.71,590.98 			"/>
			<ellipse class="st7" cx="747.88" cy="590.98" rx="10.83" ry="3.86"/>
		</g>
		<path class="st8" d="M365.32,671.8c-6.88,1.98-13.89,4.55-20.99,3.67c-7.53-0.93-13.98-5.59-20.42-9.59
			c-23.85-14.79-52.27-22.1-80.29-20.67c-28.23,1.44-58.72,11.02-83.28-2.95c-27.66-15.74-34.94-54.9-62.49-70.85
			c-9.28-5.37-20.06-7.54-30.69-8.93c-25.5-3.33-51.34-2.64-77.05-1.93c-3.32,0.09-6.71,0.19-9.84,1.32
			c-6.13,2.22-10.22,7.95-13.52,13.57c-25.53,43.46-27.17,96.48-26.67,146.89c0.11,10.83,0.36,22.04,4.93,31.86
			c6.18,13.28,19.57,22.09,33.64,26.19c14.07,4.1,28.95,4.12,43.61,4.12c146.4-0.05,292.79-0.11,439.19-0.16
			c36.78-0.01,92.57-12.21,55.67-55.79c-24.79-29.27-53.38-51.74-91.93-59.1C405.38,665.68,384.72,666.2,365.32,671.8z"/>
		<g>
			<path class="st8" d="M1864.91,475.13c0.57,0.38,1.13,0.76,1.69,1.15c18.14,12.62,32.16,32.38,34.06,54.39
				c2.33,27.01-13.22,54.68-4.8,80.45c6.5,19.91,26.73,36.38,23.35,57.06c-1.22,7.43-5.48,13.99-10.07,19.96
				c-29.6,38.42-74.67,59.92-118.36,78.17c-79.66,33.26-223.94,103.99-282.72-3.21c-23.03-42-12.32-98.3,15.69-135.73
				c1.27-1.7,2.58-3.36,3.93-4.98c16.7-20.15,46.51-30.44,48.7-59.22c1.9-24.99-15.23-47.9-11.19-73.06
				c2.78-17.31,20.51-28.13,27.54-44.2c7.78-17.79,1.21-38.39,3.28-57.69c1.93-17.97,11.88-34.94,26.63-45.4
				c23.45-16.64,56.87-15.28,81.51-0.44c24.63,14.83,40.86,41.22,47.86,69.11c2.25,8.97,3.8,18.51,9.41,25.86
				c9.66,12.66,27.56,14.56,43.31,16.88c40.37,5.94,110.74,33.36,112.19,82.48c0.15,5.14-0.37,10.37,0.81,15.38
				c3.94,16.73,23.46,23.29,38.62,31.37c19.79,10.55,35.91,28.44,42.75,49.81c6.84,21.36,3.83,46.01-9.31,64.19
				c-18.03,24.94-51.03,34.26-81.79,35.43s-61.65-4.08-92.23-0.7"/>
			<path class="st2" d="M1671.19,781.21c0,0,66.72-186.25,0.36-383.45"/>
			<path class="st2" d="M1701.79,624.14c0,0,92.54-19.68,121.75-88.28"/>
			<path class="st2" d="M1695.81,508.29c0,0-60.33-21.54-70.54-83.23"/>
		</g>
		<path class="st9" d="M116.32,568.64c0,0,11.55,0.45,15.13-1.34"/>
		<path class="st9" d="M740.94,603.84c0,0,11.44,1.66,15.18,0.26"/>
		<path class="st10" d="M207.11,545.07c0,0-61.66,22.98-58.98,29.11s221.74,70.85,254.3,70.47s341.23-22.6,341.62-32.17
			C744.43,602.9,207.11,545.07,207.11,545.07z"/>
		<g>
			<polyline class="st11" points="526.11,624.67 630.25,617.3 610.9,592.42 527.95,597.49 526.11,624.67 			"/>
			<path class="st12" d="M541.78,359.7c0,0,23.5-2.3,23.04-0.46c-0.46,1.84,21.66,120.74,21.66,120.74l21.2,124.42l-95.85,1.38
				L541.78,359.7z"/>
			<path class="st9" d="M319.66,341.73c0,0-165.56,207.46-186.39,218.28c-0.35,0.18-9.47,1.6-19.3,0.93"/>
			<path class="st9" d="M557.44,314.08c0,0,159.31,268.7,181.56,283.41c0.51,0.34,13.06,3.96,18.23,0.45"/>
			<path class="st13" d="M557.44,314.08c0,0,69.14,226.86,166.82,294.93c-38.71,4.61-76.5,9.22-110.6,10.14
				c-47.93-47-44.91-216.85-51.04-215.7c-3.06,16.09-6.1,211.09-36.51,221.23c-45.16,3.69-124.19,10.83-124.19,10.83L557.44,314.08z
				"/>
			<path class="st14" d="M319.66,341.73c0,0,97.69,32.26,237.78-27.65C541.78,456.94,401.92,635.5,401.92,635.5
				s-143.08-23.73-227.88-67.05C247.77,521.45,319.66,341.73,319.66,341.73z"/>
			<path class="st9" d="M557.44,314.08c0,0-163.25,305.65-191.16,340.22c-0.93,1.15-14.3,3.96-17.87,2.17"/>
			<path class="st12" d="M533.45,337.7c0,0-121.44,138.44-182.27,136.05c-45.46-1.53-38.37-103.78-38.37-103.78l-11.34,34.88
				c0,0-26.59,85.88,46.22,93.31C423.46,505.91,533.45,337.7,533.45,337.7z"/>
			<path class="st15" d="M267.54,449.98l-5.4,10.12c0,0-14.85,153.18,144.41,52.64C262.14,579.54,267.54,449.98,267.54,449.98z"/>
		</g>
	</g>
</g>
</svg>
