<?xml version="1.0" encoding="utf-8"?>
<!-- Generator: Adobe Illustrator 23.0.3, SVG Export Plug-In . SVG Version: 6.00 Build 0)  -->
<svg version="1.1" id="Слой_1" xmlns="http://www.w3.org/2000/svg" xmlns:xlink="http://www.w3.org/1999/xlink" x="0px" y="0px"
	 viewBox="0 0 311.28 320.47" style="enable-background:new 0 0 311.28 320.47;" xml:space="preserve">
<style type="text/css">
	.st0{fill:#F9C044;}
	.st1{fill:none;stroke:#FFE1D7;stroke-miterlimit:10;}
	.st2{fill:#F88B40;}
</style>
<g>
	<g>
		<path class="st0" d="M209.6,224.58c0.73-2.14-14.56-5.02-14.14-7.24c1.16-6.07,1.87-12.23,2.14-18.4
			c0.46-10.37,8.3-24.27,0.12-30.66c-3.7-2.89-51.38-26.03-86.77-25.36c-10.84-0.08-21.76-0.16-32.43,1.75
			c-6.59,1.18-13.01,3.11-19.42,5.04c-8.4,2.53-16.79,5.07-25.18,7.63c-6.65,2.02-14.29,4.53-18.69,10.28
			c-4.05,5.29-9.02,11.27-11.37,17.66c-2.97,8.08-4.72,18-0.2,25.86c1.77,3.08,4.4,5.57,7.15,7.81
			c21.35,17.49,50.43,21.32,78.01,22.57c38.82,1.77,108.33,32.21,122.5-3.35C212.43,236.54,208.96,226.45,209.6,224.58z"/>
		<path class="st1" d="M195.74,199.88c0,0-101.4-36-161.4,7.66"/>
		<path class="st1" d="M106.38,186.86c0,0,2.26,8.68-23.79,30.13"/>
	</g>
	<g>
		<path class="st2" d="M311.28,47.69c-2.21-4.87-4.62-9.62-7.23-14.21c-7.98-14.02-22.09-34.85-40.87-32.85
			c-25.13,2.67-28.5,35.15-38.36,52.48c-11.56,20.33-32.1,35.71-37.96,59.14c-5.73,22.88,4.82,46.34,7.41,69.78
			c1.59,14.45,0.13,29.09,1.57,43.55c1.03,10.38,3.56,20.61,7.48,30.28c1.26,3.09,2.68,6.16,4.79,8.75
			c3.61,4.41,21.6,39.95,99.98,55.78c1.14,0.23,2.2-0.05,3.19-0.7V47.69z"/>
		<path class="st1" d="M261.62,59.96c6.94,94,33.19,162.92,48.44,196.04"/>
		<path class="st1" d="M215.15,102.86c22.47,39.32,58.21,39.83,58.21,39.83"/>
	</g>
</g>
</svg>
