<?xml version="1.0" encoding="utf-8"?>
<!-- Generator: Adobe Illustrator 23.0.3, SVG Export Plug-In . SVG Version: 6.00 Build 0)  -->
<svg version="1.1" id="Слой_1" xmlns="http://www.w3.org/2000/svg" xmlns:xlink="http://www.w3.org/1999/xlink" x="0px" y="0px"
	 viewBox="0 0 120 617" style="enable-background:new 0 0 120 617;" xml:space="preserve">
<style type="text/css">
	.st0{clip-path:url(#SVGID_2_);}
	.st1{fill:#8BBDB7;}
	.st2{fill:none;stroke:#FFE1D7;stroke-miterlimit:10;}
	.st3{fill:#76ABA3;}
</style>
<g>
	<defs>
		<rect id="SVGID_1_" width="119.49" height="616.6"/>
	</defs>
	<clipPath id="SVGID_2_">
		<use xlink:href="#SVGID_1_"  style="overflow:visible;"/>
	</clipPath>
	<g class="st0">
		<g>
			<path class="st1" d="M-16.09,235.53c-0.15,0.74,39.26-23.12,38.97-22.4c-1.22,3.04-42.74,48.85-45.1,51.13
				c-18.49,17.87,26.52-26.49,8.04-8.62c-7.09-27.13-21.96-59.67-22.52-87.48c-0.28-13.96-0.15-27.92,0.39-41.87
				c0.94-24.18,1.7-49.76,6.73-73.51C-23.03,21.92,31.89-1.55,71.29,0.73c23.15,1.34,40.93,11.56,40.38,34.41
				c-0.34,14.28-9.32,26.71-17.93,38.09S76.11,97,75.68,111.28c-0.23,7.51,1.98,15.16,0.16,22.46c-4.15,16.64-27.16,24.5-28.49,41.6
				c-1.92,24.75-5.48,44.16-21.45,64.99c-2.39,3.12-5.02,6.19-8.44,8.13c-2.49,1.42-5.28,2.18-7.96,3.18
				c-14.15,5.27-25.39,17.79-29.09,32.43"/>
			<path class="st2" d="M73.53,38.68c-93.06,80.04-148.6,192.26-148.6,192.26"/>
			<path class="st2" d="M-7.66,123.19c0,0,25.53,12.77,59.74-2.04"/>
		</g>
		<g>
			<g>
				<g>
					<path class="st3" d="M119.36,523.84c2.17-13.64-0.79-26.93-13.39-34.41c-6.76-4.02-15.74-4.43-21-10.27
						c-7.72-8.56-2.42-22.07,3.37-32.03c5.79-9.96,11.74-22.93,4.83-32.15c-6.46-8.62-19.22-7.88-28.78-9.02
						c-4.55-0.55-10.98-1.16-14.5-4.51c-4.65-4.42-5.34-16.57-6.14-22.84c-0.93-7.27-0.9-14.64-2.14-21.86
						c-1.95-11.41-7.1-22.25-14.71-30.97c-4.36-5-9.71-9.42-16.09-11.28c-6.62-1.94-13.7-0.96-20.53,0.03
						c-21.41,3.1-37.31,20.71-45.08,40.26c-3.88,9.76-9.04,21.63-19.51,22.53c-4.05,0.35-7.99-1.17-11.83-2.48
						c-17.23-5.87-38.66-7.07-51.35,5.98c-14.56,14.96-9.84,39.15-11.45,59.97c-0.49,6.39-2.61,13.86-8.69,15.88
						c-1.93,48.89-0.13,97.94,5.36,146.56c0.79,7.03,1.88,14.54,6.64,19.78c8.43,9.28,26.72,10.54,37.96,15.58
						c14,6.28,27.62,8.07,41.14-1.96c6.29-4.66,11.16-11.25,18.09-14.88c9.93-5.21,21.87-3.37,33.08-3.21
						c43.12,0.59,81.94-25.57,113.86-54.57C107.61,555.65,116.87,539.52,119.36,523.84z"/>
				</g>
				<path class="st3" d="M0.6,363.03c-44.96,172.39-18.15,233.79-18.15,233.79"/>
			</g>
		</g>
	</g>
</g>
</svg>
