<?xml version="1.0" encoding="utf-8"?>
<!-- Generator: Adobe Illustrator 23.0.3, SVG Export Plug-In . SVG Version: 6.00 Build 0)  -->
<svg version="1.1" id="Слой_1" xmlns="http://www.w3.org/2000/svg" xmlns:xlink="http://www.w3.org/1999/xlink" x="0px" y="0px"
	 viewBox="0 0 230 504" style="enable-background:new 0 0 230 504;" xml:space="preserve">
<style type="text/css">
	.st0{clip-path:url(#SVGID_2_);}
	.st1{fill:#FFE9C4;}
	.st2{fill:#F0D2A7;}
	.st3{fill:none;stroke:#FFFFFF;stroke-miterlimit:10;}
</style>
<g>
	<defs>
		<rect id="SVGID_1_" x="0.98" y="0.09" width="229.02" height="503.91"/>
	</defs>
	<clipPath id="SVGID_2_">
		<use xlink:href="#SVGID_1_"  style="overflow:visible;"/>
	</clipPath>
	<g class="st0">
		<path class="st1" d="M172.87,42.1c-6.68,20-5.09,41.79-1.6,62.59c0.68,4.07,1.43,8.21,0.83,12.29
			c-2.06,13.85-17.72,20.49-31.01,24.89c-13.29,4.39-28.82,11.94-29.75,25.91c-0.73,10.94,8.84,20.35,19.31,23.6
			s21.73,1.96,32.68,1.36c25.39-1.39,50.99,1.18,75.59,7.59c6.85-50.93,13.7-101.86,20.55-152.79c3.69-27.4-0.33-43.46-29.24-45.76
			C203.06-0.37,181.45,16.44,172.87,42.1z"/>
		<g>
			<path class="st2" d="M282.22,525.96c-24.76-20.78-38.61-52.26-44.18-84.11c-5.57-31.85-3.58-67.48-1.64-99.75
				c16.23-11.48,19.62-34.03,19.2-53.9c-0.71-33.37-8.24-66.59-21.98-97.01c-6.72-14.87-16.68-30.47-32.58-34.1
				c-7.07-1.62-14.9-0.71-21.18-4.35c-14.12-8.19-9.44-31.16-20.46-43.21c-6.26-6.84-13.17-9.96-19.99-10.37
				c-0.47-0.07-1.38-0.02-2.45,0.09c-7.88,0.8-15.41,3.94-21.32,9.22c-5,4.47-9.12,10.18-11.76,16.37
				c-8.21,19.26-7.22,41.1-14.02,60.72c-1.78,5.14-4.04,10.24-7.75,14.22c-4.87,5.23-11.74,8.01-18.25,10.97
				c-21.81,9.9-42.81,24.25-53.88,45.5s-9.37,50.4,8.84,65.96c5.47,4.68,12.4,8.29,15.39,14.84c2.26,4.95,1.81,10.69,0.93,16.06
				c-4.3,26.11-17.63,50.25-20.46,76.55c-2.83,26.31,10.7,58.12,37,61.07c19.2,2.15,44.53-9.66,52.83,10.8
				c0.88,2.18,1.38,4.49,1.73,6.81c5.37,36.34,35.33,67.47,71.26,74.67c13.68,2.74,27.79,2.27,41.69,3.49
				c12.26,1.07,24.4,3.49,36.15,7.15l0.97,3.83c1.18-0.77,2.35-1.57,3.51-2.36c1.03,0.35,2.06,0.69,3.08,1.06
				c0.12-1.14,0.21-2.28,0.31-3.42c11.34-7.99,21.99-16.94,31.79-26.77c2.06-2.06,3.78-4.46,4.93-7.13
				C306.04,544.61,292.51,534.6,282.22,525.96z"/>
			<path class="st3" d="M145.71,199.31c16.86,228.2,100.92,369.1,100.92,369.1"/>
			<path class="st3" d="M67.05,271.92c38.03,66.56,98.54,67.42,98.54,67.42"/>
		</g>
	</g>
</g>
</svg>
