<?xml version="1.0" encoding="utf-8"?>
<!-- Generator: Adobe Illustrator 23.0.3, SVG Export Plug-In . SVG Version: 6.00 Build 0)  -->
<svg version="1.1" id="Слой_1" xmlns="http://www.w3.org/2000/svg" xmlns:xlink="http://www.w3.org/1999/xlink" x="0px" y="0px"
	 viewBox="0 0 295.19 545.66" style="enable-background:new 0 0 295.19 545.66;" xml:space="preserve">
<style type="text/css">
	.st0{clip-path:url(#SVGID_2_);}
	.st1{fill:#8BBDB7;}
	.st2{fill:none;stroke:#FFE1D7;stroke-miterlimit:10;}
	.st3{fill:#F9C044;}
</style>
<g>
	<g>
		<defs>
			<polygon id="SVGID_1_" points="0.45,-43.53 308.36,-43.53 306.91,546 0.34,545.64 			"/>
		</defs>
		<clipPath id="SVGID_2_">
			<use xlink:href="#SVGID_1_"  style="overflow:visible;"/>
		</clipPath>
		<g class="st0">
			<g>
				<g>
					<path class="st1" d="M204.26,233.19c5.19-12.8,5.31-26.41-5.27-36.54c-31.72-51.45,5.55-68.43-3.64-102.51
						c-8.68-32.19-33.86-69.92-36.45-74.78c-3.12-5.86-7.34-11.37-13.12-14.62c-6.01-3.38-13.11-4.51-20.01-4.61
						C92.71-0.33,38.07,56.35-13.68,35.86c-19.41-7.69-18.43,35.92-24.7,55.83c-1.92,6.11-5.67,12.92-12.05,13.5
						c-12.92,47.2-22.24,95.38-27.87,143.98c-0.81,7.03-1.45,14.59,2,20.76c6.12,10.95,23.65,16.3,33.46,23.75
						c12.22,9.28,25.08,14.09,40.52,7.38c7.18-3.12,13.41-8.44,20.98-10.41c10.85-2.83,22.06,1.66,32.95,4.34
						c41.87,10.32,85.6-6.41,123.24-27.45C185.64,261.53,198.29,247.9,204.26,233.19z"/>
					<path class="st2" d="M124.88,49.71C42.16,207.5,54.41,273.37,54.41,273.37"/>
				</g>
				<path class="st2" d="M78.16,153.11c0,0,46.45-9.94,77.06-36.1"/>
			</g>
			<g>
				<path class="st3" d="M272.42,392.22c10.54,5.92,18.34,16.49,20.89,28.31c4.05,18.79-5.58,38.97-21.17,50.2
					c-15.6,11.23-34.14,15.06-53.3,16.6c-23.99,1.93-30.39,5.63-49.08,24.64c-24.41,24.84-58.92,37.44-93.5,33.24
					c-32.82-3.99-50.89-20.86-59.37-26.98c-3.86-2.79-8.9-8.45-11.22-12.61c-15.77-28.27-17.12-61.58-16.83-93.19
					c0.52-57.7-4.98-164.97,76.36-172.89C182.58,232.52,161.65,343.84,272.42,392.22z"/>
				<path class="st2" d="M11.14,335.03c0,0,96.89,90,235.53,101.11"/>
				<path class="st2" d="M99.6,395.16c0,0-12.26,62.04,22.21,98.04"/>
				<path class="st2" d="M172.37,421.97c0,0,29.11-31.4,69.7-21.45"/>
			</g>
		</g>
	</g>
</g>
</svg>
