<?xml version="1.0" encoding="utf-8"?>
<!-- Generator: Adobe Illustrator 23.0.3, SVG Export Plug-In . SVG Version: 6.00 Build 0)  -->
<svg version="1.1" id="Слой_1" xmlns="http://www.w3.org/2000/svg" xmlns:xlink="http://www.w3.org/1999/xlink" x="0px" y="0px"
	 viewBox="0 0 1789.17 656.2" style="enable-background:new 0 0 1789.17 656.2;" xml:space="preserve">
<style type="text/css">
	.st0{opacity:0.49;}
	.st1{fill:#8B636C;}
	.st2{fill:#B69CA3;}
	.st3{opacity:0.35;}
	.st4{fill:#A88991;}
	.st5{opacity:0.34;}
	.st6{fill:#EF9349;}
	.st7{fill:#E97446;}
	.st8{opacity:0.46;}
	.st9{fill:#ED8A49;}
	.st10{fill:#F0BC4E;}
	.st11{fill:#F1B34B;}
	.st12{opacity:0.75;}
	.st13{fill:#FDF5D5;}
	.st14{fill:#FFD797;}
	.st15{opacity:0.31;}
	.st16{opacity:0.6;fill:#FFD797;}
</style>
<g>
	<g class="st0">
		<path class="st1" d="M379,355.34l6.42,9.87l10.99-2.68c1.65-0.4,2.4-2.31,1.48-3.73L390,346.66c-0.92-1.41-2.95-1.51-3.99-0.18
			L379,355.34z"/>
		<path class="st1" d="M349.76,374.35l6.42,9.87l-6.91,8.96c-1.04,1.34-3.09,1.26-4.01-0.16l-7.89-12.14
			c-0.92-1.41-0.18-3.31,1.45-3.72L349.76,374.35z"/>
		<path class="st2" d="M381.26,374.83l-14.99,9.74c-5.38,3.5-12.58,1.97-16.07-3.41h0c-3.5-5.38-1.97-12.58,3.41-16.07l14.99-9.74
			c5.38-3.5,12.58-1.97,16.07,3.41v0C388.17,364.14,386.64,371.33,381.26,374.83z"/>
	</g>
	<g class="st3">
		<path class="st2" d="M133.8,473.02v11.78l10.67,3.74c1.6,0.56,3.27-0.63,3.27-2.32v-14.48c0-1.68-1.65-2.87-3.25-2.33
			L133.8,473.02z"/>
		<path class="st2" d="M98.93,473.02v11.78l-10.67,3.74c-1.6,0.56-3.27-0.63-3.27-2.32v-14.48c0-1.68,1.65-2.87,3.25-2.33
			L98.93,473.02z"/>
		<path class="st4" d="M125.08,490.59H107.2c-6.42,0-11.62-5.2-11.62-11.62v0c0-6.42,5.2-11.62,11.62-11.62h17.88
			c6.42,0,11.62,5.2,11.62,11.62v0C136.7,485.39,131.49,490.59,125.08,490.59z"/>
	</g>
	<g class="st5">
		<path class="st6" d="M563.65,546.47l6.89,11.94l13.02-2.45c1.95-0.37,2.95-2.55,1.96-4.27L577.05,537
			c-0.99-1.71-3.36-1.94-4.66-0.46L563.65,546.47z"/>
		<path class="st6" d="M528.29,566.89l6.89,11.94l-8.63,10.05c-1.29,1.51-3.69,1.28-4.68-0.44l-8.48-14.68
			c-0.99-1.71,0-3.88,1.93-4.27L528.29,566.89z"/>
		<path class="st7" d="M565.1,569.4l-18.13,10.47c-6.51,3.76-14.83,1.53-18.59-4.98l0,0c-3.76-6.51-1.53-14.83,4.98-18.59
			l18.13-10.47c6.51-3.76,14.83-1.53,18.59,4.98l0,0C573.83,557.33,571.6,565.65,565.1,569.4z"/>
	</g>
	<g class="st8">
		<path class="st9" d="M241.23,458.33l-9.99,8.12l4.18,11.64c0.63,1.74,2.79,2.35,4.23,1.18l12.29-9.98
			c1.43-1.16,1.3-3.38-0.26-4.36L241.23,458.33z"/>
		<path class="st9" d="M217.19,428.73l-9.99,8.12l-10.54-6.48c-1.58-0.97-1.73-3.21-0.29-4.38l12.29-9.98
			c1.43-1.16,3.57-0.58,4.22,1.15L217.19,428.73z"/>
		<path class="st6" d="M220.3,463.04l-12.32-15.18c-4.42-5.45-3.59-13.45,1.85-17.87l0,0c5.45-4.42,13.45-3.59,17.87,1.85
			l12.32,15.18c4.42,5.45,3.59,13.45-1.85,17.87l0,0C232.72,469.32,224.72,468.49,220.3,463.04z"/>
	</g>
	<g class="st0">
		<path class="st1" d="M1717.55,49.71l6.42,9.87l10.99-2.68c1.65-0.4,2.4-2.31,1.48-3.73l-7.89-12.14
			c-0.92-1.41-2.95-1.51-3.99-0.18L1717.55,49.71z"/>
		<path class="st1" d="M1688.31,68.72l6.42,9.87l-6.91,8.96c-1.04,1.34-3.09,1.26-4.01-0.16l-7.89-12.14
			c-0.92-1.41-0.18-3.31,1.45-3.72L1688.31,68.72z"/>
		<path class="st2" d="M1719.81,69.2l-14.99,9.74c-5.38,3.5-12.58,1.97-16.07-3.41v0c-3.5-5.38-1.97-12.58,3.41-16.07l14.99-9.74
			c5.38-3.5,12.58-1.97,16.07,3.41v0C1726.72,58.51,1725.19,65.7,1719.81,69.2z"/>
	</g>
	<g class="st3">
		<path class="st2" d="M1475.76,151.31v11.78l10.67,3.74c1.6,0.56,3.27-0.63,3.27-2.32v-14.48c0-1.68-1.65-2.87-3.25-2.33
			L1475.76,151.31z"/>
		<path class="st2" d="M1440.89,151.31v11.78l-10.67,3.74c-1.6,0.56-3.27-0.63-3.27-2.32v-14.48c0-1.68,1.65-2.87,3.25-2.33
			L1440.89,151.31z"/>
		<path class="st4" d="M1467.04,168.89h-17.88c-6.42,0-11.62-5.2-11.62-11.62v0c0-6.42,5.2-11.62,11.62-11.62h17.88
			c6.42,0,11.62,5.2,11.62,11.62v0C1478.65,163.69,1473.45,168.89,1467.04,168.89z"/>
	</g>
	<g class="st3">
		<path class="st2" d="M1255.4,385.37v11.78l10.68,3.74c1.6,0.56,3.27-0.63,3.27-2.32v-14.48c0-1.68-1.65-2.87-3.25-2.33
			L1255.4,385.37z"/>
		<path class="st2" d="M1220.52,385.37v11.78l-10.67,3.74c-1.6,0.56-3.27-0.63-3.27-2.32v-14.48c0-1.68,1.65-2.87,3.25-2.33
			L1220.52,385.37z"/>
		<path class="st4" d="M1246.67,402.95h-17.88c-6.42,0-11.62-5.2-11.62-11.62v0c0-6.42,5.2-11.62,11.62-11.62h17.88
			c6.42,0,11.62,5.2,11.62,11.62v0C1258.29,397.75,1253.09,402.95,1246.67,402.95z"/>
	</g>
	<g class="st5">
		<path class="st6" d="M1709.53,192.6l6.89,11.94l13.02-2.45c1.95-0.37,2.95-2.55,1.96-4.27l-8.48-14.68
			c-0.99-1.71-3.36-1.94-4.66-0.46L1709.53,192.6z"/>
		<path class="st6" d="M1674.16,213.02l6.89,11.94l-8.63,10.05c-1.29,1.51-3.69,1.28-4.68-0.44l-8.48-14.68
			c-0.99-1.71,0-3.88,1.93-4.27L1674.16,213.02z"/>
		<path class="st7" d="M1710.97,215.53L1692.84,226c-6.51,3.76-14.83,1.53-18.59-4.98v0c-3.76-6.51-1.53-14.83,4.98-18.59
			l18.13-10.47c6.51-3.76,14.83-1.53,18.59,4.98v0C1719.71,203.45,1717.48,211.77,1710.97,215.53z"/>
	</g>
	<g class="st8">
		<path class="st9" d="M1583.19,136.63l-9.99,8.12l4.18,11.64c0.63,1.74,2.79,2.35,4.23,1.18l12.29-9.98
			c1.43-1.16,1.3-3.38-0.26-4.36L1583.19,136.63z"/>
		<path class="st9" d="M1559.15,107.03l-9.99,8.12l-10.54-6.48c-1.58-0.97-1.73-3.21-0.29-4.38l12.29-9.98
			c1.43-1.16,3.57-0.58,4.22,1.15L1559.15,107.03z"/>
		<path class="st6" d="M1562.26,141.34l-12.32-15.18c-4.42-5.45-3.59-13.45,1.85-17.87v0c5.45-4.42,13.45-3.59,17.87,1.85
			l12.32,15.18c4.42,5.45,3.59,13.45-1.85,17.87v0C1574.68,147.62,1566.68,146.79,1562.26,141.34z"/>
	</g>
	<g class="st8">
		<path class="st9" d="M1313.22,249.94l-9.99,8.12l4.18,11.64c0.63,1.74,2.79,2.35,4.23,1.18l12.29-9.98
			c1.43-1.16,1.3-3.38-0.26-4.36L1313.22,249.94z"/>
		<path class="st9" d="M1289.18,220.33l-9.99,8.12l-10.54-6.48c-1.58-0.97-1.73-3.21-0.29-4.38l12.29-9.98
			c1.43-1.16,3.57-0.58,4.22,1.15L1289.18,220.33z"/>
		<path class="st6" d="M1292.28,254.64l-12.32-15.18c-4.42-5.45-3.59-13.45,1.85-17.87l0,0c5.45-4.42,13.45-3.59,17.87,1.85
			l12.32,15.18c4.42,5.45,3.59,13.45-1.85,17.87v0C1304.71,260.92,1296.71,260.09,1292.28,254.64z"/>
	</g>
	<g class="st0">
		<path class="st1" d="M121.06,146.95l6.42,9.87l10.99-2.68c1.65-0.4,2.4-2.31,1.48-3.73l-7.89-12.14
			c-0.92-1.41-2.95-1.51-3.99-0.18L121.06,146.95z"/>
		<path class="st1" d="M91.82,165.96l6.42,9.87l-6.91,8.96c-1.04,1.34-3.09,1.26-4.01-0.16l-7.89-12.14
			c-0.92-1.41-0.18-3.31,1.45-3.72L91.82,165.96z"/>
		<path class="st2" d="M123.32,166.44l-14.99,9.74c-5.38,3.5-12.58,1.97-16.07-3.41l0,0c-3.5-5.38-1.97-12.58,3.41-16.07l14.99-9.74
			c5.38-3.5,12.58-1.97,16.07,3.41l0,0C130.22,155.75,128.7,162.95,123.32,166.44z"/>
	</g>
	<g class="st3">
		<path class="st2" d="M90.91,312.17v11.78l10.67,3.74c1.6,0.56,3.27-0.63,3.27-2.32v-14.48c0-1.68-1.65-2.87-3.25-2.33
			L90.91,312.17z"/>
		<path class="st2" d="M56.04,312.17v11.78l-10.67,3.74c-1.6,0.56-3.27-0.63-3.27-2.32v-14.48c0-1.68,1.65-2.87,3.25-2.33
			L56.04,312.17z"/>
		<path class="st4" d="M82.18,329.74H64.31c-6.42,0-11.62-5.2-11.62-11.62v0c0-6.42,5.2-11.62,11.62-11.62h17.88
			c6.42,0,11.62,5.2,11.62,11.62v0C93.8,324.54,88.6,329.74,82.18,329.74z"/>
	</g>
	<g class="st8">
		<path class="st9" d="M181.81,342.41l-9.93-8.2l-10.59,6.4c-1.59,0.96-1.75,3.2-0.32,4.38l12.21,10.08
			c1.42,1.17,3.57,0.6,4.23-1.12L181.81,342.41z"/>
		<path class="st9" d="M206.08,312.99l-9.93-8.2l4.27-11.61c0.64-1.74,2.81-2.33,4.24-1.15l12.21,10.08
			c1.42,1.17,1.27,3.39-0.29,4.36L206.08,312.99z"/>
		<path class="st6" d="M173.06,322.81l12.44-15.08c4.47-5.41,12.47-6.18,17.89-1.71l0,0c5.41,4.47,6.18,12.47,1.71,17.89
			l-12.44,15.08c-4.47,5.41-12.47,6.18-17.89,1.71h0C169.36,336.23,168.6,328.23,173.06,322.81z"/>
	</g>
	<g>
		<path class="st10" d="M646.35,590.68v11.78l10.67,3.74c1.6,0.56,3.27-0.63,3.27-2.32V589.4c0-1.68-1.65-2.87-3.25-2.33
			L646.35,590.68z"/>
		<path class="st10" d="M611.47,590.68v11.78l-10.67,3.74c-1.6,0.56-3.27-0.63-3.27-2.32V589.4c0-1.68,1.65-2.87,3.25-2.33
			L611.47,590.68z"/>
		<path class="st11" d="M637.62,608.26h-17.88c-6.42,0-11.62-5.2-11.62-11.62l0,0c0-6.42,5.2-11.62,11.62-11.62h17.88
			c6.42,0,11.62,5.2,11.62,11.62l0,0C649.24,603.06,644.04,608.26,637.62,608.26z"/>
	</g>
	<g>
		<path class="st10" d="M281.88,186.26v11.78l10.67,3.74c1.6,0.56,3.27-0.63,3.27-2.32v-14.48c0-1.68-1.65-2.87-3.25-2.33
			L281.88,186.26z"/>
		<path class="st10" d="M247,186.26v11.78l-10.67,3.74c-1.6,0.56-3.27-0.63-3.27-2.32v-14.48c0-1.68,1.65-2.87,3.25-2.33L247,186.26
			z"/>
		<path class="st11" d="M273.15,203.83h-17.88c-6.42,0-11.62-5.2-11.62-11.62v0c0-6.42,5.2-11.62,11.62-11.62h17.88
			c6.42,0,11.62,5.2,11.62,11.62v0C284.77,198.63,279.57,203.83,273.15,203.83z"/>
	</g>
	<g class="st0">
		<path class="st1" d="M937.97,617.41l6.42,9.87l10.99-2.68c1.65-0.4,2.4-2.31,1.48-3.73l-7.89-12.14
			c-0.92-1.41-2.95-1.51-3.99-0.18L937.97,617.41z"/>
		<path class="st1" d="M908.73,636.41l6.42,9.87l-6.91,8.96c-1.04,1.34-3.09,1.26-4.01-0.16l-7.89-12.14
			c-0.92-1.41-0.18-3.31,1.45-3.72L908.73,636.41z"/>
		<path class="st2" d="M940.23,636.9l-14.99,9.74c-5.38,3.5-12.58,1.97-16.07-3.41l0,0c-3.5-5.38-1.97-12.58,3.41-16.07l14.99-9.74
			c5.38-3.5,12.58-1.97,16.07,3.41l0,0C947.14,626.2,945.61,633.4,940.23,636.9z"/>
	</g>
	<g class="st0">
		<path class="st1" d="M476.62,66.65l6.42,9.87l10.99-2.68c1.65-0.4,2.4-2.31,1.48-3.73l-7.89-12.14c-0.92-1.41-2.95-1.51-3.99-0.18
			L476.62,66.65z"/>
		<path class="st1" d="M447.38,85.66l6.42,9.87l-6.91,8.96c-1.04,1.34-3.09,1.26-4.01-0.16l-7.89-12.14
			c-0.92-1.41-0.18-3.31,1.45-3.72L447.38,85.66z"/>
		<path class="st2" d="M478.88,86.14l-14.99,9.74c-5.38,3.5-12.58,1.97-16.07-3.41l0,0c-3.5-5.38-1.97-12.58,3.41-16.07l14.99-9.74
			c5.38-3.5,12.58-1.97,16.07,3.41v0C485.79,75.45,484.26,82.64,478.88,86.14z"/>
	</g>
	<g class="st3">
		<path class="st2" d="M453.3,226.18v11.78l10.67,3.74c1.6,0.56,3.27-0.63,3.27-2.32V224.9c0-1.68-1.65-2.87-3.25-2.33L453.3,226.18
			z"/>
		<path class="st2" d="M418.43,226.18v11.78l-10.67,3.74c-1.6,0.56-3.27-0.63-3.27-2.32V224.9c0-1.68,1.65-2.87,3.25-2.33
			L418.43,226.18z"/>
		<path class="st4" d="M444.57,243.76H426.7c-6.42,0-11.62-5.2-11.62-11.62v0c0-6.42,5.2-11.62,11.62-11.62h17.88
			c6.42,0,11.62,5.2,11.62,11.62v0C456.19,238.56,450.99,243.76,444.57,243.76z"/>
	</g>
	<g class="st3">
		<path class="st2" d="M600.5,384.61v11.78l10.67,3.74c1.6,0.56,3.27-0.63,3.27-2.32v-14.48c0-1.68-1.65-2.87-3.25-2.33
			L600.5,384.61z"/>
		<path class="st2" d="M565.63,384.61v11.78l-10.67,3.74c-1.6,0.56-3.27-0.63-3.27-2.32v-14.48c0-1.68,1.65-2.87,3.25-2.33
			L565.63,384.61z"/>
		<path class="st4" d="M591.78,402.18H573.9c-6.42,0-11.62-5.2-11.62-11.62v0c0-6.42,5.2-11.62,11.62-11.62h17.88
			c6.42,0,11.62,5.2,11.62,11.62v0C603.4,396.98,598.19,402.18,591.78,402.18z"/>
	</g>
	<g class="st8">
		<path class="st9" d="M537.38,262.1l-9.93-8.2l-10.59,6.4c-1.59,0.96-1.75,3.2-0.32,4.38l12.21,10.08c1.42,1.17,3.57,0.6,4.23-1.12
			L537.38,262.1z"/>
		<path class="st9" d="M561.65,232.69l-9.93-8.2l4.27-11.61c0.64-1.74,2.81-2.33,4.24-1.15l12.21,10.08
			c1.42,1.17,1.27,3.39-0.29,4.36L561.65,232.69z"/>
		<path class="st6" d="M528.63,242.51l12.44-15.08c4.47-5.41,12.47-6.18,17.89-1.71v0c5.41,4.47,6.18,12.47,1.71,17.89l-12.44,15.08
			c-4.47,5.41-12.47,6.18-17.89,1.71l0,0C524.93,255.93,524.16,247.92,528.63,242.51z"/>
	</g>
	<g>
		<path class="st10" d="M637.45,105.95v11.78l10.67,3.74c1.6,0.56,3.27-0.63,3.27-2.32v-14.48c0-1.68-1.65-2.87-3.25-2.33
			L637.45,105.95z"/>
		<path class="st10" d="M602.57,105.95v11.78l-10.67,3.74c-1.6,0.56-3.27-0.63-3.27-2.32v-14.48c0-1.68,1.65-2.87,3.25-2.33
			L602.57,105.95z"/>
		<path class="st11" d="M628.72,123.53h-17.88c-6.42,0-11.62-5.2-11.62-11.62v0c0-6.42,5.2-11.62,11.62-11.62h17.88
			c6.42,0,11.62,5.2,11.62,11.62v0C640.34,118.33,635.14,123.53,628.72,123.53z"/>
	</g>
	<g class="st8">
		<path class="st9" d="M1021.36,553.91l-9.99,8.12l4.18,11.64c0.63,1.74,2.79,2.35,4.23,1.18l12.29-9.98
			c1.43-1.16,1.3-3.38-0.26-4.36L1021.36,553.91z"/>
		<path class="st9" d="M997.32,524.31l-9.99,8.12l-10.54-6.48c-1.58-0.97-1.73-3.21-0.29-4.38l12.29-9.98
			c1.43-1.16,3.57-0.58,4.22,1.15L997.32,524.31z"/>
		<path class="st6" d="M1000.43,558.62l-12.32-15.18c-4.42-5.45-3.59-13.45,1.85-17.87l0,0c5.45-4.42,13.45-3.59,17.87,1.85
			l12.32,15.18c4.42,5.45,3.59,13.45-1.85,17.87v0C1012.85,564.9,1004.85,564.07,1000.43,558.62z"/>
	</g>
	<g class="st8">
		<path class="st9" d="M841.3,571.81l-9.93-8.2l-10.59,6.4c-1.59,0.96-1.75,3.2-0.32,4.38l12.21,10.08c1.42,1.17,3.57,0.6,4.23-1.12
			L841.3,571.81z"/>
		<path class="st9" d="M865.58,542.39l-9.93-8.2l4.27-11.61c0.64-1.74,2.81-2.33,4.24-1.15l12.21,10.08
			c1.42,1.17,1.27,3.39-0.29,4.36L865.58,542.39z"/>
		<path class="st6" d="M832.55,552.21L845,537.14c4.47-5.41,12.47-6.18,17.89-1.71h0c5.41,4.47,6.18,12.47,1.71,17.89l-12.44,15.08
			c-4.47,5.41-12.47,6.18-17.89,1.71l0,0C828.86,565.63,828.09,557.63,832.55,552.21z"/>
	</g>
	<g class="st8">
		<path class="st9" d="M731.01,453.85l-9.93-8.2l-10.59,6.4c-1.59,0.96-1.75,3.2-0.32,4.38l12.21,10.08
			c1.42,1.17,3.57,0.6,4.23-1.12L731.01,453.85z"/>
		<path class="st9" d="M755.28,424.44l-9.93-8.2l4.27-11.61c0.64-1.74,2.81-2.33,4.24-1.15l12.21,10.08
			c1.42,1.17,1.27,3.39-0.29,4.36L755.28,424.44z"/>
		<path class="st6" d="M722.26,434.26l12.44-15.08c4.47-5.41,12.47-6.18,17.89-1.71v0c5.41,4.47,6.18,12.47,1.71,17.89l-12.44,15.08
			c-4.47,5.41-12.47,6.18-17.89,1.71h0C718.56,447.68,717.79,439.67,722.26,434.26z"/>
	</g>
	<g>
		<path class="st10" d="M1026.55,251.49v11.78l10.68,3.74c1.6,0.56,3.27-0.63,3.27-2.32V250.2c0-1.68-1.65-2.87-3.25-2.33
			L1026.55,251.49z"/>
		<path class="st10" d="M991.68,251.49v11.78L981,267c-1.6,0.56-3.27-0.63-3.27-2.32V250.2c0-1.68,1.65-2.87,3.25-2.33
			L991.68,251.49z"/>
		<path class="st11" d="M1017.83,269.06h-17.88c-6.42,0-11.62-5.2-11.62-11.62l0,0c0-6.42,5.2-11.62,11.62-11.62h17.88
			c6.42,0,11.62,5.2,11.62,11.62l0,0C1029.44,263.86,1024.24,269.06,1017.83,269.06z"/>
	</g>
	<g>
		<path class="st10" d="M767.67,316.35l-10.03,6.16l2.4,11.06c0.36,1.66,2.25,2.46,3.69,1.57l12.34-7.58
			c1.43-0.88,1.58-2.91,0.29-3.99L767.67,316.35z"/>
		<path class="st10" d="M749.42,286.63l-10.03,6.16l-8.78-7.14c-1.32-1.07-1.18-3.12,0.26-4l12.34-7.58
			c1.43-0.88,3.31-0.09,3.69,1.55L749.42,286.63z"/>
		<path class="st11" d="M748.13,318.11l-9.36-15.23c-3.36-5.47-1.65-12.62,3.82-15.98v0c5.47-3.36,12.62-1.65,15.98,3.82l9.36,15.23
			c3.36,5.47,1.65,12.62-3.82,15.98l0,0C758.64,325.29,751.49,323.58,748.13,318.11z"/>
	</g>
	<g class="st12">
		<path class="st13" d="M1171.88,544.21l-4.8-10.75l-11.27,0.93c-1.69,0.14-2.73,1.91-2.04,3.45l5.9,13.22
			c0.69,1.54,2.68,1.95,3.92,0.8L1171.88,544.21z"/>
		<path class="st13" d="M1203.73,529.99l-4.8-10.75l8.22-7.77c1.23-1.16,3.25-0.76,3.94,0.79l5.9,13.22
			c0.69,1.54-0.34,3.29-2.01,3.45L1203.73,529.99z"/>
		<path class="st14" d="M1172.68,524.6l16.33-7.29c5.86-2.62,12.73,0.01,15.35,5.87l0,0c2.62,5.86-0.01,12.73-5.87,15.35
			l-16.33,7.29c-5.86,2.62-12.73-0.01-15.35-5.87l0,0C1164.2,534.09,1166.83,527.22,1172.68,524.6z"/>
	</g>
	<g class="st12">
		<path class="st13" d="M1064.8,363.58l2.6-11.49l-9.59-6.01c-1.44-0.9-3.33-0.11-3.71,1.54l-3.19,14.12
			c-0.37,1.64,0.98,3.16,2.65,2.99L1064.8,363.58z"/>
		<path class="st13" d="M1098.81,371.28l2.6-11.49l11.24-1.3c1.68-0.19,3.06,1.33,2.68,2.99l-3.19,14.12
			c-0.37,1.64-2.24,2.43-3.68,1.56L1098.81,371.28z"/>
		<path class="st14" d="M1077.19,348.37l17.44,3.94c6.26,1.42,10.19,7.64,8.77,13.9v0c-1.42,6.26-7.64,10.19-13.9,8.77l-17.44-3.94
			c-6.26-1.42-10.19-7.64-8.77-13.9v0C1064.71,350.88,1070.93,346.95,1077.19,348.37z"/>
	</g>
	<g class="st12">
		<path class="st13" d="M1747.63,340.03l9.24-7.3l-3.68-10.7c-0.55-1.6-2.52-2.18-3.85-1.13l-11.37,8.97
			c-1.32,1.04-1.23,3.07,0.18,3.99L1747.63,340.03z"/>
		<path class="st13" d="M1769.24,367.4l9.24-7.3l9.55,6.06c1.43,0.91,1.54,2.96,0.21,4.01l-11.37,8.97
			c-1.32,1.04-3.28,0.48-3.84-1.1L1769.24,367.4z"/>
		<path class="st14" d="M1766.83,335.99l11.08,14.03c3.98,5.04,3.12,12.34-1.92,16.32v0c-5.04,3.98-12.34,3.12-16.32-1.92
			l-11.08-14.03c-3.98-5.04-3.12-12.34,1.92-16.32l0,0C1755.55,330.09,1762.85,330.95,1766.83,335.99z"/>
	</g>
	<g class="st15">
		<path class="st1" d="M851.78,87.21l6.42,9.87l10.99-2.68c1.65-0.4,2.4-2.31,1.48-3.73l-7.89-12.14c-0.92-1.41-2.95-1.51-3.99-0.18
			L851.78,87.21z"/>
		<path class="st1" d="M822.54,106.22l6.42,9.87l-6.91,8.96c-1.04,1.34-3.09,1.26-4.01-0.16l-7.89-12.14
			c-0.92-1.41-0.18-3.31,1.45-3.72L822.54,106.22z"/>
		<path class="st2" d="M854.04,106.7l-14.99,9.74c-5.38,3.5-12.58,1.97-16.07-3.41v0c-3.5-5.38-1.97-12.58,3.41-16.07l14.99-9.74
			c5.38-3.5,12.58-1.97,16.07,3.41v0C860.95,96.01,859.42,103.2,854.04,106.7z"/>
	</g>
	<g class="st3">
		<path class="st2" d="M876.98,217.21v11.78l10.67,3.74c1.6,0.56,3.27-0.63,3.27-2.32v-14.48c0-1.68-1.65-2.87-3.25-2.33
			L876.98,217.21z"/>
		<path class="st2" d="M842.1,217.21v11.78l-10.67,3.74c-1.6,0.56-3.27-0.63-3.27-2.32v-14.48c0-1.68,1.65-2.87,3.25-2.33
			L842.1,217.21z"/>
		<path class="st4" d="M868.25,234.78h-17.88c-6.42,0-11.62-5.2-11.62-11.62v0c0-6.42,5.2-11.62,11.62-11.62h17.88
			c6.42,0,11.62,5.2,11.62,11.62v0C879.87,229.58,874.67,234.78,868.25,234.78z"/>
	</g>
	<g class="st3">
		<path class="st2" d="M940.46,395.86l8.68,7.96l9.97-5.34c1.49-0.8,1.75-2.84,0.5-3.98l-10.68-9.78c-1.24-1.14-3.23-0.72-3.91,0.82
			L940.46,395.86z"/>
		<path class="st2" d="M916.9,421.57l8.68,7.96l-4.45,10.4c-0.67,1.56-2.67,1.99-3.92,0.85l-10.68-9.78c-1.24-1.14-1-3.16,0.48-3.97
			L916.9,421.57z"/>
		<path class="st4" d="M947.53,414.16l-12.08,13.18c-4.34,4.73-11.68,5.05-16.42,0.72v0c-4.73-4.34-5.05-11.68-0.72-16.42
			l12.08-13.18c4.34-4.73,11.68-5.05,16.42-0.72l0,0C951.54,402.08,951.86,409.43,947.53,414.16z"/>
	</g>
	<g class="st5">
		<path class="st6" d="M1194.8,143.58l6.89,11.94l13.02-2.45c1.95-0.37,2.95-2.55,1.96-4.27l-8.48-14.68
			c-0.99-1.71-3.36-1.94-4.66-0.46L1194.8,143.58z"/>
		<path class="st6" d="M1159.44,164l6.89,11.94l-8.63,10.05c-1.29,1.51-3.69,1.28-4.68-0.44l-8.48-14.68
			c-0.99-1.71,0-3.88,1.93-4.27L1159.44,164z"/>
		<path class="st7" d="M1196.24,166.51l-18.13,10.47c-6.51,3.76-14.83,1.53-18.59-4.98v0c-3.76-6.51-1.53-14.83,4.98-18.59
			l18.13-10.47c6.51-3.76,14.83-1.53,18.59,4.98v0C1204.98,154.43,1202.75,162.75,1196.24,166.51z"/>
	</g>
	<g class="st8">
		<path class="st9" d="M971.64,160.63l-9.99,8.12l4.18,11.64c0.63,1.74,2.79,2.35,4.23,1.18l12.29-9.98
			c1.43-1.16,1.3-3.38-0.26-4.36L971.64,160.63z"/>
		<path class="st9" d="M947.6,131.03l-9.99,8.12l-10.54-6.48c-1.58-0.97-1.73-3.21-0.29-4.38l12.29-9.98
			c1.43-1.16,3.57-0.58,4.22,1.15L947.6,131.03z"/>
		<path class="st6" d="M950.7,165.34l-12.32-15.18c-4.42-5.45-3.59-13.45,1.85-17.87l0,0c5.45-4.42,13.45-3.59,17.87,1.85
			l12.32,15.18c4.42,5.45,3.59,13.45-1.85,17.87v0C963.13,171.62,955.13,170.79,950.7,165.34z"/>
	</g>
	<g class="st12">
		<path class="st13" d="M1427.68,247.09l9.24-7.3l-3.68-10.7c-0.55-1.6-2.52-2.18-3.85-1.13l-11.37,8.97
			c-1.32,1.04-1.23,3.07,0.18,3.99L1427.68,247.09z"/>
		<path class="st13" d="M1449.29,274.47l9.24-7.3l9.55,6.06c1.43,0.91,1.54,2.96,0.21,4.01l-11.37,8.97
			c-1.32,1.04-3.28,0.48-3.84-1.1L1449.29,274.47z"/>
		<path class="st14" d="M1446.89,243.05l11.08,14.03c3.98,5.04,3.12,12.34-1.92,16.32l0,0c-5.04,3.98-12.34,3.12-16.32-1.92
			l-11.08-14.03c-3.98-5.04-3.12-12.34,1.92-16.32v0C1435.6,237.16,1442.91,238.02,1446.89,243.05z"/>
	</g>
	<g class="st12">
		<path class="st13" d="M185.78,19.66l9.24-7.3l-3.68-10.7c-0.55-1.6-2.52-2.18-3.85-1.13L176.13,9.5
			c-1.32,1.04-1.23,3.07,0.18,3.99L185.78,19.66z"/>
		<path class="st13" d="M207.39,47.03l9.24-7.3l9.55,6.06c1.43,0.91,1.54,2.96,0.21,4.01l-11.37,8.97c-1.32,1.04-3.28,0.48-3.84-1.1
			L207.39,47.03z"/>
		<path class="st14" d="M204.99,15.62l11.08,14.03c3.98,5.04,3.12,12.34-1.92,16.32l0,0c-5.04,3.98-12.34,3.12-16.32-1.92
			l-11.08-14.03c-3.98-5.04-3.12-12.34,1.92-16.32l0,0C193.7,9.72,201.01,10.58,204.99,15.62z"/>
	</g>
	<path class="st16" d="M69.88,32.61l-0.31,10.65c-0.03,1.17,0.51,2.27,1.45,2.96l8.59,6.3c2.37,1.74,1.72,5.44-1.1,6.26l-10.22,2.99
		c-1.12,0.33-2.01,1.19-2.37,2.29l-3.33,10.12c-0.92,2.79-4.64,3.32-6.29,0.89l-6.01-8.8c-0.66-0.96-1.75-1.54-2.91-1.55
		l-10.65-0.04c-2.94-0.01-4.59-3.39-2.79-5.71l6.51-8.43c0.71-0.92,0.93-2.14,0.57-3.25l-3.25-10.14c-0.9-2.8,1.8-5.41,4.57-4.42
		l10.03,3.59c1.1,0.39,2.32,0.22,3.27-0.46l8.64-6.23C66.65,27.91,69.97,29.67,69.88,32.61z"/>
	<path class="st16" d="M27.04,388.81l-0.23,7.84c-0.03,0.86,0.37,1.68,1.07,2.18l6.33,4.64c1.75,1.28,1.27,4-0.81,4.61l-7.53,2.2
		c-0.82,0.24-1.48,0.87-1.75,1.69l-2.45,7.45c-0.68,2.06-3.42,2.44-4.64,0.66l-4.42-6.48c-0.48-0.71-1.29-1.14-2.15-1.14l-7.85-0.03
		c-2.16-0.01-3.38-2.49-2.06-4.21l4.8-6.21c0.53-0.68,0.68-1.57,0.42-2.39l-2.4-7.47c-0.66-2.06,1.33-3.98,3.37-3.25l7.39,2.64
		c0.81,0.29,1.71,0.16,2.41-0.34l6.37-4.59C24.66,385.35,27.1,386.65,27.04,388.81z"/>
	<path class="st16" d="M364.82,160.17l-0.23,7.84c-0.03,0.86,0.37,1.68,1.07,2.18l6.33,4.64c1.75,1.28,1.27,4-0.81,4.61l-7.53,2.2
		c-0.82,0.24-1.48,0.87-1.75,1.69l-2.45,7.45c-0.68,2.06-3.42,2.44-4.64,0.66l-4.42-6.48c-0.48-0.71-1.29-1.14-2.15-1.14l-7.85-0.03
		c-2.16-0.01-3.38-2.49-2.06-4.21l4.8-6.21c0.53-0.68,0.68-1.57,0.42-2.39l-2.4-7.47c-0.66-2.06,1.33-3.98,3.37-3.25l7.39,2.64
		c0.81,0.29,1.71,0.16,2.41-0.34l6.37-4.59C362.44,156.71,364.89,158.01,364.82,160.17z"/>
	<path class="st16" d="M860.01,512.9l-0.23,7.84c-0.03,0.86,0.37,1.68,1.07,2.18l6.33,4.64c1.75,1.28,1.27,4-0.81,4.61l-7.53,2.2
		c-0.82,0.24-1.48,0.87-1.75,1.69l-2.45,7.45c-0.68,2.06-3.42,2.44-4.64,0.66l-4.42-6.48c-0.48-0.71-1.29-1.14-2.15-1.14l-7.85-0.03
		c-2.16-0.01-3.38-2.49-2.06-4.21l4.8-6.21c0.53-0.68,0.68-1.57,0.42-2.39l-2.4-7.47c-0.66-2.06,1.33-3.98,3.37-3.25l7.39,2.64
		c0.81,0.29,1.71,0.16,2.41-0.34l6.37-4.59C857.63,509.44,860.08,510.73,860.01,512.9z"/>
	<path class="st16" d="M1487.33,39.54l-0.23,7.84c-0.03,0.86,0.37,1.68,1.07,2.18l6.33,4.64c1.75,1.28,1.27,4-0.81,4.61l-7.53,2.2
		c-0.82,0.24-1.48,0.87-1.75,1.69l-2.45,7.45c-0.68,2.06-3.42,2.44-4.64,0.66l-4.42-6.48c-0.48-0.71-1.29-1.14-2.15-1.14l-7.85-0.03
		c-2.16-0.01-3.38-2.49-2.06-4.21l4.8-6.21c0.53-0.68,0.68-1.57,0.42-2.39l-2.4-7.47c-0.66-2.06,1.33-3.98,3.37-3.25l7.39,2.64
		c0.81,0.29,1.71,0.16,2.41-0.34l6.37-4.59C1484.95,36.08,1487.4,37.37,1487.33,39.54z"/>
</g>
</svg>
