<svg width="87" height="114" viewBox="0 0 87 114" fill="none" xmlns="http://www.w3.org/2000/svg">
<g clip-path="url(#clip0)">
<path fill-rule="evenodd" clip-rule="evenodd" d="M48.2336 54.3047H52.2199V59.8949C52.2199 60.993 51.323 61.8914 50.2268 61.8914C49.1305 61.8914 48.2336 60.993 48.2336 59.8949V54.3047Z" fill="#9ED38F"/>
<path d="M39.6632 51.0105C39.7628 51.1103 39.8625 51.1103 39.9621 51.1103C41.6563 51.9089 43.4501 52.5079 45.2439 52.9072C46.0412 53.1068 46.9381 53.2066 47.7353 53.3065C48.134 53.3065 48.5326 53.4063 48.9312 53.4063C49.7285 53.5061 50.5257 53.5061 51.323 53.4063C51.7216 53.4063 52.1202 53.4063 52.5188 53.3065C54.3127 53.1068 56.1065 52.8073 57.8006 52.3082C58.1993 52.2084 58.5979 52.1086 58.8968 51.9089C59.2955 51.8091 59.6941 51.6094 59.9931 51.5096C60.591 51.31 61.0893 51.0105 61.5876 50.711C62.4845 50.3117 63.2817 49.8126 64.079 49.3135C64.2783 49.2137 64.4776 49.014 64.6769 48.9142C64.9759 48.7145 65.3745 48.4151 65.6735 48.2154C65.8728 48.1156 65.9725 47.9159 66.1718 47.8161C66.4707 47.5166 66.7697 47.317 67.0687 47.0175C67.3676 46.718 67.6666 46.4186 67.9656 46.2189C68.5635 45.62 69.0618 45.021 69.6597 44.4221C69.9587 44.1226 70.158 43.8231 70.457 43.4238C70.6563 43.1243 70.9553 42.725 71.1546 42.4256C71.3539 42.1261 71.6529 41.7268 71.8522 41.3275C72.2508 40.6287 72.6494 39.8301 73.0481 39.0315C73.4467 38.2329 73.7456 37.4343 74.0446 36.6357C74.1443 36.2364 74.3436 35.8371 74.4432 35.4378C74.5429 35.0385 74.6426 34.6392 74.7422 34.2399C74.8419 33.8406 74.9415 33.4413 75.0412 33.042C75.2405 32.2434 75.3401 31.4448 75.3401 30.6462C75.3401 30.4466 75.3401 30.2469 75.3401 30.0473C75.3401 29.4483 75.4398 28.8494 75.3401 28.2504C75.3401 28.0508 75.3401 27.8511 75.3401 27.6515C75.3401 27.2522 75.3401 26.8529 75.2405 26.4536C75.1408 25.2557 74.9415 24.0578 74.6426 22.8599C74.5429 22.2609 74.3436 21.662 74.1443 21.1629C74.0446 20.7636 73.945 20.3643 73.7456 20.0648C73.646 19.6655 73.4467 19.2662 73.347 18.9667C73.048 18.2679 72.7491 17.5692 72.3505 16.8704C71.8522 15.972 71.3539 15.0735 70.756 14.1751C70.5566 13.8756 70.2577 13.4763 70.0584 13.1769C69.9587 13.077 69.859 12.8774 69.7594 12.7776C69.6597 12.5779 69.4604 12.4781 69.3608 12.2784C69.2611 12.1786 69.2611 12.1786 69.1615 12.0788C68.9621 11.8791 68.7628 11.5797 68.5635 11.38C68.3642 11.1804 68.0652 10.8809 67.8659 10.6813L67.7663 10.5814C67.1683 10.0823 66.5704 9.48335 65.9724 8.98423C65.7731 8.78458 65.5738 8.68475 65.3745 8.4851C65.2749 8.38528 65.0755 8.28545 64.9759 8.18563C63.8797 7.38703 62.6838 6.68826 61.4879 6.08931C61.3883 5.98948 61.1889 5.98948 61.0893 5.88966C60.9896 5.88966 60.89 5.78983 60.7903 5.78983L61.7869 3.79333C61.8865 3.79333 61.9862 3.89316 62.0859 3.89316C62.2852 3.99298 62.3848 3.99298 62.4845 4.09281C63.78 4.79158 65.0755 5.49036 66.2714 6.38878C66.4707 6.48861 66.5704 6.58843 66.7697 6.68826C66.969 6.88791 67.1683 6.98773 67.3676 7.18738C68.0652 7.6865 68.6632 8.28545 69.2611 8.8844C69.3608 8.98423 69.4604 8.98423 69.4604 9.08405C69.7594 9.38353 69.9587 9.58318 70.2577 9.88265C70.457 10.0823 70.756 10.3818 70.9553 10.6813C71.0549 10.7811 71.0549 10.7811 71.1546 10.8809C71.3539 11.0805 71.4536 11.2802 71.6529 11.4798C71.7525 11.6795 71.8522 11.7793 72.0515 11.979C72.3505 12.2784 72.5498 12.6777 72.8487 13.077C73.4467 13.9755 74.0446 14.9737 74.5429 15.972C74.9415 16.6707 75.3401 17.4693 75.6391 18.2679C75.8384 18.6672 75.9381 19.0665 76.1374 19.4658C76.2371 19.8651 76.4364 20.2644 76.536 20.6637C76.7353 21.2627 76.9347 21.9615 77.0343 22.5604C77.3333 23.8581 77.5326 25.1559 77.6322 26.4536C77.6322 26.8529 77.7319 27.352 77.7319 27.7513C77.7319 27.951 77.7319 28.1506 77.7319 28.4501C77.7319 29.1489 77.7319 29.7478 77.6322 30.4466C77.6322 30.6462 77.6322 30.8459 77.6322 31.1454C77.5326 32.0438 77.4329 32.9422 77.2336 33.7408C77.134 34.1401 77.0343 34.6392 76.9346 35.0385C76.835 35.4378 76.7353 35.9369 76.6357 36.3362C76.536 36.7355 76.3367 37.2347 76.2371 37.634C75.9381 38.5324 75.5395 39.331 75.1408 40.2294C74.7422 41.028 74.3436 41.9264 73.8453 42.6252C73.646 43.0245 73.347 43.4238 73.1477 43.8231C72.8487 44.2224 72.6494 44.5219 72.3505 44.9212C72.0515 45.3205 71.8522 45.62 71.5532 46.0193C70.9553 46.718 70.3573 47.317 69.7594 48.0158C69.4604 48.3152 69.1615 48.6147 68.7628 48.9142C68.4639 49.2136 68.0652 49.5131 67.7663 49.8126C67.567 49.9124 67.4673 50.1121 67.268 50.2119C66.969 50.5114 66.5704 50.711 66.1718 51.0105C65.9725 51.2101 65.6735 51.31 65.4742 51.5096C64.5773 52.1086 63.6804 52.6077 62.7834 53.007C62.1855 53.3065 61.5876 53.6059 60.9896 53.8056C60.591 54.0052 60.1924 54.1051 59.7938 54.3047C59.3951 54.4045 58.9965 54.6042 58.5979 54.704C56.7044 55.303 54.8109 55.7023 52.8178 55.8021C52.4192 55.8021 51.9209 55.9019 51.5223 55.9019C50.6254 55.9019 49.7285 55.9019 48.9312 55.9019C48.5326 55.9019 48.0343 55.8021 47.6357 55.8021C46.7388 55.7023 45.8419 55.5026 44.945 55.303C43.0515 54.9037 41.0584 54.2049 39.2645 53.3065C39.1649 53.3065 39.0652 53.2066 38.9656 53.2066L39.6632 51.0105Z" fill="#9ED38F"/>
<path fill-rule="evenodd" clip-rule="evenodd" d="M63.8797 0.199593C64.8762 0.698717 65.2749 1.89662 64.8762 2.79504L40.0618 55.7022C39.5635 56.7005 38.3676 57.0998 37.4707 56.7005C36.4742 56.2013 36.0755 55.1033 36.4742 54.105L61.2886 1.19784C61.6872 0.199593 62.8831 -0.299531 63.8797 0.199593Z" fill="#9ED38F"/>
<path d="M69.4605 14.6742C69.6598 14.9737 69.9588 15.2732 70.1581 15.5727C70.3574 15.8721 70.5567 16.2714 70.756 16.5709C71.1547 17.2697 71.5533 17.9685 71.8523 18.6672C72.1512 19.366 72.4502 20.1646 72.7492 20.8634C72.8488 21.2627 73.0481 21.5622 73.1478 21.9615C73.2475 22.3608 73.3471 22.6602 73.4468 23.0595C73.5464 23.4588 73.6461 23.7583 73.6461 24.1576C73.7457 24.8564 73.8454 25.655 73.945 26.4536C73.945 26.8529 74.0447 27.2522 74.0447 27.5517C74.0447 27.951 74.0447 28.3503 74.0447 28.6497C74.0447 28.8494 74.0447 29.049 74.0447 29.2487C74.0447 29.648 74.0447 29.9475 73.945 30.3468C73.8454 31.4448 73.6461 32.5429 73.4468 33.641C73.3471 34.1401 73.1478 34.739 73.0481 35.2382C72.9485 35.6375 72.8488 35.9369 72.6495 36.3362C72.5499 36.6357 72.3505 37.035 72.2509 37.3345C71.653 38.8319 70.8557 40.3292 69.8591 41.7268C69.6598 42.0263 69.4605 42.3257 69.1615 42.6252C68.6633 43.2242 68.2646 43.8231 67.6667 44.3222C67.3677 44.6217 67.1684 44.8214 66.8694 45.1208C65.0756 46.8179 63.0825 48.2154 60.6908 49.4133C59.0963 50.2119 57.5018 50.711 55.8076 51.1103C55.0103 51.31 54.2131 51.4098 53.5155 51.5096C53.1169 51.5096 52.7182 51.6095 52.4193 51.6095C51.622 51.6095 50.9244 51.7093 50.2268 51.6095C49.8282 51.6095 49.5292 51.6094 49.1306 51.5096C47.4365 51.4098 45.842 51.0105 44.2475 50.6112C43.8488 50.5114 43.5499 50.4115 43.1512 50.2119C42.8523 50.1121 42.4536 49.9124 42.1547 49.8126C41.6564 49.613 41.1581 49.4133 40.6598 49.1138C39.8626 48.7145 39.165 48.3152 38.3677 47.8161C38.1684 47.7163 37.9691 47.5166 37.7698 47.4168C37.4708 47.2172 37.1719 47.0175 36.8729 46.718C36.7732 46.6182 36.5739 46.5184 36.4743 46.4186C36.1753 46.2189 35.8763 45.9194 35.5774 45.7198C35.2784 45.4203 34.9794 45.2207 34.7801 44.9212C34.2818 44.4221 33.7835 43.8231 33.2853 43.2242C33.0859 42.9247 32.787 42.6252 32.5877 42.3257C32.3884 42.0263 32.0894 41.7268 31.8901 41.4273C31.6908 41.1278 31.4914 40.8284 31.2921 40.4291C30.8935 39.7303 30.4949 39.0315 30.1959 38.3327C29.8969 37.634 29.598 36.8354 29.299 36.1366C29.1993 35.7373 29.0997 35.4378 28.9004 35.0385C28.8007 34.6392 28.7011 34.3397 28.6014 33.9404C28.5018 33.5411 28.4021 33.1418 28.4021 32.8424C28.3024 32.0438 28.2028 31.345 28.1031 30.5464C28.1031 30.3468 28.1031 30.1471 28.1031 29.9475C28.1031 29.3485 28.0035 28.8494 28.1031 28.2504C28.1031 28.0508 28.1031 27.8511 28.1031 27.6515C28.1031 27.2522 28.1031 26.9527 28.2028 26.5534C28.3024 25.4553 28.5018 24.3573 28.7011 23.2592C28.8007 22.7601 29 22.1611 29.0997 21.662C29.1993 21.2627 29.299 20.9632 29.4983 20.5639C29.598 20.2644 29.7973 19.8651 29.8969 19.5657C30.1959 18.8669 30.4949 18.2679 30.7938 17.669C31.1925 16.8704 31.6908 15.972 32.2887 15.2732C32.488 14.9737 32.6873 14.6742 32.9863 14.3748C33.0859 14.2749 33.1856 14.0753 33.2853 13.9755C33.3849 13.7758 33.5842 13.676 33.6839 13.4763C33.7835 13.3765 33.7835 13.3765 33.8832 13.2767C34.0825 13.077 34.2818 12.8774 34.4811 12.6777C34.6804 12.4781 34.8798 12.2784 35.1787 11.979L35.2784 11.8791C35.7767 11.38 36.3746 10.8809 36.8729 10.4816C37.0722 10.3818 37.2715 10.1821 37.3712 10.0823C37.4708 9.98248 37.6701 9.88265 37.7698 9.78283C38.7664 9.08405 39.8626 8.38528 40.9588 7.88615C41.0585 7.78633 41.2578 7.78633 41.3574 7.6865C41.5567 7.58668 41.756 7.48685 42.055 7.38703C44.1478 6.48861 46.4399 5.88966 48.6323 5.59018C49.031 5.59018 49.4296 5.49036 49.7286 5.49036C49.8282 5.49036 49.9279 5.49036 50.0275 5.49036C50.3265 5.49036 50.5258 5.49036 50.8248 5.49036C51.2234 5.49036 51.5224 5.49036 51.921 5.49036C52.3196 5.49036 52.6186 5.49036 53.0172 5.59018C54.5121 5.69001 56.0069 5.98948 57.4021 6.38878C57.6014 6.38878 57.7011 6.48861 57.9004 6.48861C58.299 6.58843 58.598 6.68826 58.9966 6.8879C59.2956 6.98773 59.6942 7.18738 59.9932 7.2872C60.4914 7.48685 60.9897 7.6865 61.488 7.98598C62.4846 8.4851 63.4811 9.08405 64.378 9.683C64.677 9.88265 64.976 10.0823 65.2749 10.3818C65.3746 10.4816 65.5739 10.5814 65.6736 10.6812C66.0722 11.0805 66.5705 11.38 66.9691 11.7793C67.0688 11.8791 67.2681 12.0788 67.3677 12.1786C67.866 12.6777 68.3643 13.2767 68.8626 13.8756C68.9622 14.0753 69.1615 14.3748 69.4605 14.6742Z" fill="#E8EDF5"/>
<path d="M55.4089 59.1962H45.0447V64.5867H55.4089V59.1962Z" fill="#9ED38F"/>
<path d="M67.866 64.5867H32.787V68.38H67.866V64.5867Z" fill="#9ED38F"/>
<path d="M79.0275 95.0333C80.1237 95.0333 81.1203 95.7321 81.1203 96.6305L81.2199 112.004C81.2199 112.902 80.323 113.701 79.1271 113.701L2.09278 114C0.896907 114 0 113.301 0 112.403L0 97.0298C0 96.1314 0.896907 95.3328 2.09278 95.3328L79.0275 95.0333Z" fill="#61313E"/>
<path d="M79.0275 95.0333C80.1237 95.0333 81.1203 95.7321 81.1203 96.6305L81.2199 112.004C81.2199 112.902 80.323 113.701 79.1271 113.701L2.09278 114C0.896907 114 0 113.301 0 112.403L0 97.0298C0 96.1314 0.896907 95.3328 2.09278 95.3328L79.0275 95.0333Z" fill="#9ED38F"/>
<path d="M79.1272 80.8582C80.2234 80.8582 81.0206 81.3573 81.0206 82.056V93.7356C81.0206 94.4343 80.1237 95.0333 79.1272 95.0333L8.07218 95.3328C6.97596 95.3328 6.17871 94.7338 6.17871 94.1349V82.4554C6.17871 81.7566 7.07562 81.1576 8.07218 81.1576L79.1272 80.8582Z" fill="#A898DB"/>
<path d="M85.3058 66.683C86.2028 66.683 87 67.2819 87 67.8809V79.5604C87 80.2592 86.2028 80.8581 85.3058 80.8581L22.921 81.1576C22.0241 81.1576 21.2268 80.5586 21.2268 79.9597V68.2802C21.2268 67.5814 22.0241 66.9825 22.921 66.9825L85.3058 66.683Z" fill="#F7C1C0"/>
<path d="M21.2268 80.2592C21.2268 80.7583 22.0241 81.1576 22.921 81.1576L85.3058 80.8581C86.2028 80.8581 87 80.4588 87 79.9597V78.1628L21.2268 78.4623V80.2592Z" fill="#E0B1B1"/>
<path d="M34.699 77.4647C37.3409 77.4533 39.4743 75.5223 39.4642 73.1517C39.454 70.781 37.3041 68.8684 34.6623 68.8797C32.0204 68.8911 29.887 70.8221 29.8972 73.1927C29.9073 75.5634 32.0572 77.476 34.699 77.4647Z" fill="#FFE376"/>
<path d="M58.2941 78.3975L26.3044 78.5282L26.315 81.1237L58.3047 80.993L58.2941 78.3975Z" fill="#E0B1B1"/>
<path d="M6.07898 93.9352C6.07898 94.7338 6.97589 95.4326 7.97245 95.3327L79.2267 95.0333C80.323 95.0333 81.1202 94.3345 81.1202 93.5359V90.5411L6.07898 90.9404V93.9352Z" fill="#9B8FCC"/>
<path d="M38.7367 81.0256L22.8914 81.0922L22.9507 95.2673L38.7961 95.2007L38.7367 81.0256Z" fill="#FFE376"/>
<path d="M58.169 80.9542L55.9766 80.9637L56.0378 95.1389L58.2303 95.1294L58.169 80.9542Z" fill="#FFE376"/>
<path d="M38.7564 90.8053L22.911 90.8785L22.9312 95.2708L38.7766 95.1976L38.7564 90.8053Z" fill="#F2D472"/>
<path d="M58.2889 90.7364L56.0964 90.7471L56.1177 95.1394L58.3101 95.1287L58.2889 90.7364Z" fill="#FFE376"/>
<path d="M0.199341 112.403C0.199341 113.301 1.09625 114 2.29212 114L79.3265 113.701C80.4227 113.701 81.4193 113.002 81.4193 112.004V108.609L0.298997 108.909L0.199341 112.403Z" fill="#9ED38F"/>
<path d="M67.6282 95.1278L64.6385 95.1404L64.7165 113.808L67.7062 113.795L67.6282 95.1278Z" fill="#F7C1C0"/>
<path d="M72.4119 95.1277L69.4222 95.1403L69.5002 113.808L72.4899 113.795L72.4119 95.1277Z" fill="#F7C1C0"/>
<path d="M67.5571 108.704L64.6671 108.716L64.6875 113.708L67.5775 113.696L67.5571 108.704Z" fill="#E0B1B1"/>
<path d="M72.4404 108.704L69.4507 108.716L69.471 113.708L72.4607 113.695L72.4404 108.704Z" fill="#E0B1B1"/>
<path d="M55.4089 59.1962H45.0447V61.2925H55.4089V59.1962Z" fill="#9ED38F"/>
<path d="M62.1855 22.9598C62.1855 23.0596 62.1855 23.2592 61.9862 23.3591C61.7869 23.4589 61.3883 23.8582 61.2886 23.7584C61.189 23.7584 60.9896 23.6585 60.89 23.5587C60.7903 23.5587 60.4914 23.5587 60.4914 23.5587C60.4914 23.4589 60.591 23.4589 60.591 23.3591C60.591 23.2592 60.591 23.1594 60.4914 23.1594C60.3917 23.1594 60.0927 23.0596 60.2921 23.0596C60.4914 23.0596 60.591 22.9598 60.591 22.9598C60.591 22.8599 60.3917 22.9598 60.2921 22.9598C60.1924 22.9598 60.0927 22.9598 60.1924 22.8599C60.2921 22.6603 60.3917 22.5605 60.3917 22.5605C60.3917 22.5605 60.591 22.5605 60.591 22.6603C60.591 22.7601 60.7903 23.0596 60.7903 22.8599C60.7903 22.6603 60.89 22.5605 60.89 22.6603C60.89 22.7601 60.89 22.8599 60.9897 22.6603C61.0893 22.5605 61.189 22.5605 61.2886 22.5605C61.3883 22.6603 61.4879 22.6603 61.4879 22.5605C61.4879 22.4607 61.5876 22.261 61.5876 22.3608C61.6872 22.4606 61.7869 22.4607 61.8866 22.5605C61.9862 22.6603 62.1855 22.9598 62.1855 22.9598Z" fill="#9ED38F"/>
<path d="M52.3196 36.2365C52.5189 36.3363 52.6186 36.536 53.1169 36.4362C53.6151 36.3363 54.1134 36.9353 54.4124 37.0351C54.7114 37.0351 55.5086 37.4344 55.6083 37.7339C55.7079 38.0334 55.8076 38.3328 56.2062 38.4327C56.6048 38.5325 57.5017 38.7321 57.8007 38.832C58 38.9318 58.8969 39.2313 58.3986 39.93C57.9004 40.6288 57.8007 40.7286 57.7011 41.3276C57.6014 42.0263 57.6014 42.226 56.8041 42.6253C56.0069 42.9248 56.2062 43.3241 55.9072 43.7234C55.6083 44.1227 55.3093 44.7216 55.11 44.8214C54.811 44.9213 54.811 45.4204 54.512 45.62C54.2131 45.8197 54.0138 45.62 53.8144 45.9195C53.5155 46.6183 53.2165 46.8179 53.1169 47.0176C53.0172 47.2172 52.8179 47.2172 52.9175 47.5167C53.0172 47.8162 53.1169 47.916 52.8179 48.1157C52.6186 48.4151 52.5189 49.2137 52.7182 49.4134C52.9175 49.613 53.4158 49.9125 53.0172 50.0123C52.6186 50.0123 51.4227 49.7129 51.323 48.9143C51.323 48.0158 51.5224 45.9195 51.7217 45.0211C52.0206 44.1227 52.6186 41.8267 51.7217 41.3276C50.9244 40.8284 50.5258 39.6305 50.3265 39.5307C50.1272 39.4309 50.2268 38.9318 50.2268 38.832C50.2268 38.7321 50.2268 38.233 50.4261 38.1332C50.6254 38.0334 50.8248 37.6341 50.8248 37.3346C50.8248 37.0351 51.1237 36.7356 51.2234 36.6358C51.323 36.536 51.5224 36.2365 51.8213 36.2365C52.1203 36.1367 52.3196 36.2365 52.3196 36.2365Z" fill="#9ED38F"/>
<path d="M54.1134 48.8143C54.0138 48.8143 53.9141 48.8143 53.9141 48.8143C53.8145 48.9142 53.8145 49.014 53.8145 49.1138C54.0138 49.2136 54.3127 49.2136 54.4124 49.1138C54.4124 49.1138 54.5121 49.014 54.5121 48.9142C54.5121 48.8143 54.4124 48.8143 54.3127 48.8143C54.2131 48.8143 54.2131 48.8143 54.1134 48.8143Z" fill="#9ED38F"/>
<path d="M51.7217 34.6393C52.0206 34.6393 52.3196 34.7391 52.5189 34.8389C52.2199 34.9388 51.8213 34.9388 51.5223 34.9388C51.5223 34.9388 51.5223 34.8389 51.622 34.8389C51.7216 34.8389 51.7217 34.8389 51.8213 34.8389C51.921 34.8389 51.921 34.7391 51.921 34.7391H51.8213C51.622 34.7391 51.622 34.7391 51.7217 34.6393C51.622 34.6393 51.7217 34.6393 51.7217 34.6393Z" fill="#9ED38F"/>
<path d="M52.9175 34.9387C52.8178 34.9387 52.7182 34.9387 52.6185 34.9387C52.6185 34.9387 52.6185 34.9387 52.7182 35.0385C52.8178 35.0385 52.9175 35.1384 52.9175 35.0385C53.0172 35.0385 53.0172 34.8389 52.9175 34.9387Z" fill="#9ED38F"/>
<path d="M51.024 34.7391H50.9244C50.9244 34.7391 50.9244 34.6393 50.8247 34.6393C50.7251 34.5394 50.6254 34.5394 50.5258 34.5394C50.4261 34.5394 50.3265 34.4396 50.2268 34.4396C50.1271 34.3398 50.0275 34.3398 49.9278 34.3398C49.8282 34.3398 49.7285 34.4396 49.7285 34.3398C49.7285 34.3398 49.7285 34.24 49.8282 34.24C49.9278 34.24 49.9278 34.24 50.0275 34.24C50.1271 34.24 50.1271 34.1401 50.2268 34.1401C50.3265 34.1401 50.4261 34.24 50.5258 34.24C50.6254 34.24 50.6254 34.24 50.7251 34.24C50.9244 34.24 51.024 34.3398 51.1237 34.4396C51.2234 34.5394 51.4227 34.6393 51.5223 34.7391V34.8389H51.4227C51.2234 34.7391 51.1237 34.7391 51.024 34.7391Z" fill="#9ED38F"/>
<path d="M50.7251 34.9387C50.7251 34.8389 50.8248 34.8389 50.9244 34.8389C51.0241 34.8389 51.0241 34.9387 51.0241 35.0385C50.9244 35.1383 50.8248 35.0385 50.7251 34.9387Z" fill="#9ED38F"/>
<path d="M51.0241 36.8354C51.0241 36.6357 50.5258 36.5359 50.4261 36.6357C50.1272 36.9352 49.7285 36.4361 49.8282 36.1366C49.9278 35.8371 50.0275 35.4378 49.6289 35.4378C49.2302 35.4378 48.9313 35.4378 49.0309 35.2382C49.1306 34.9387 49.6289 34.4396 49.3299 34.4396C49.0309 34.4396 48.9313 34.4396 48.6323 34.7391C48.3333 35.0385 47.6357 35.2382 47.4364 34.5394C47.3368 33.8406 47.3368 33.1419 47.5361 33.042C47.8351 33.042 48.0344 32.7426 48.433 32.8424C48.8316 32.9422 48.732 32.7426 48.9313 32.6427C49.1306 32.6427 49.7285 32.4431 49.8282 32.7426C50.0275 33.042 50.1272 33.641 50.2268 33.641C50.3265 33.641 50.6254 33.2417 50.2268 32.7426C49.9278 32.2434 51.1237 31.7443 51.2234 31.4449C51.323 31.2452 51.2234 30.9457 51.4227 30.6463C51.7217 30.3468 52.1203 30.247 52.2199 30.0473C52.2199 29.9475 52.5189 29.3485 52.7182 29.3485C52.9175 29.3485 53.0172 29.7478 53.1168 29.648C53.2165 29.5482 54.2131 29.0491 54.1134 28.8494C54.0138 28.7496 53.7148 28.8494 53.5155 28.7496C53.3162 28.7496 53.2165 28.4501 53.3162 28.2505C53.3162 28.0508 53.5155 27.8512 53.7148 27.8512C53.9141 27.8512 54.1134 27.8512 54.2131 27.7513C54.3127 27.6515 54.9107 27.4519 54.811 27.1524C54.7113 26.8529 54.7113 26.7531 54.4124 26.5534C54.1134 26.3538 53.6151 25.655 53.4158 25.1559C53.2165 24.6568 53.1168 24.4571 53.0172 24.8564C52.9175 25.2557 52.6186 25.5552 52.4192 25.0561C52.2199 24.6568 52.1203 24.2575 51.8213 24.1576C51.5223 24.0578 51.5223 23.958 51.2234 23.8582C50.9244 23.8582 50.6254 23.5587 50.6254 23.958C50.6254 24.3573 50.7251 24.8564 50.6254 25.0561C50.5258 25.2557 51.0241 25.655 50.9244 25.9545C50.7251 26.254 50.3265 26.3538 50.3265 26.5534C50.3265 26.7531 50.7251 27.4519 50.2268 27.352C49.7285 27.1524 50.0275 26.5534 49.9278 26.4536C49.8282 26.3538 49.2302 26.3538 49.0309 26.1541C48.8316 25.9545 48.3333 25.5552 48.0344 25.3555C47.7354 25.1559 47.6357 24.6568 48.0344 24.0578C48.433 23.4589 49.2302 22.8599 49.3299 22.5604C49.4296 22.261 50.2268 22.1611 50.1272 21.9615C50.1272 21.662 50.1272 21.0631 50.0275 20.9632C49.9278 20.8634 49.5292 20.3643 49.4296 20.8634C49.2302 21.3625 49.1306 21.9615 49.0309 21.662C48.8316 21.3625 48.8316 20.7636 48.5327 20.5639C48.2337 20.4641 48.0344 19.965 48.0344 19.5657C48.0344 19.2662 48.3333 19.0666 48.433 18.7671C48.5326 18.4676 48.732 18.268 48.2337 18.1681C47.8351 18.0683 47.7354 18.268 47.6357 18.7671C47.6357 19.1664 47.6357 19.4659 47.5361 19.7653C47.4364 20.0648 47.8351 20.8634 47.6357 21.1629C47.5361 21.4624 47.4364 21.662 46.9381 21.5622C46.4399 21.4624 45.8419 20.9632 45.543 21.2627C45.244 21.4624 44.3471 22.0613 44.1478 21.662C44.0481 21.2627 43.5498 20.8634 43.1512 20.7636C42.7526 20.7636 42.354 20.8634 42.1546 20.6638C42.055 20.5639 41.9553 20.1646 41.756 20.3643C41.4571 20.5639 40.8591 21.1629 40.6598 21.1629C40.3608 21.1629 39.7629 20.7636 38.9656 20.5639C38.1684 20.3643 37.4708 19.6655 36.8729 20.1646C36.1753 20.5639 35.976 20.8634 35.4777 21.0631C35.079 21.2627 35.4777 21.662 35.677 21.9615C35.8763 22.1611 35.7766 22.261 35.4777 22.4606C35.378 22.4606 35.1787 22.261 34.9794 22.4606C34.8797 22.6603 34.9794 22.9597 35.2784 23.0596C35.677 23.1594 36.6735 23.2592 36.1753 23.4589C35.677 23.7583 35.378 24.0578 35.378 24.4571C35.378 24.8564 35.5773 25.0561 35.8763 25.0561C36.1753 25.0561 36.1753 25.3555 36.3746 25.3555C36.5739 25.4554 37.1718 25.4554 36.7732 25.7548C36.4742 26.0543 35.079 26.9527 35.079 27.0526C35.1787 27.2522 37.3711 25.8547 37.4708 25.655C37.5705 25.4554 38.0687 25.0561 38.268 24.9562C38.567 24.8564 38.7663 24.6568 39.3643 24.8564C39.9622 25.0561 40.6598 25.9545 41.0584 26.1541C41.4571 26.4536 42.1546 27.352 42.4536 28.0508C42.7526 28.7496 42.6529 29.4484 42.7526 30.0473C42.8522 30.7461 43.3505 31.6445 43.6495 31.944C43.9485 32.2434 45.0447 34.1401 45.244 34.1401C45.4433 34.1401 45.3436 33.7408 44.945 33.1419C44.5464 32.5429 44.2474 31.8441 44.945 32.7426C45.543 33.5412 46.1409 34.1401 46.1409 34.3398C46.2406 34.6392 47.2371 35.4378 47.7354 35.5377C48.2337 35.5377 49.4296 35.8371 49.4296 36.0368C49.4296 36.2364 50.2268 36.8354 50.4261 36.9352C50.6254 36.9352 50.6254 36.7356 50.7251 36.7356C50.8247 36.7356 50.9244 36.9352 50.9244 37.035L51.0241 36.8354Z" fill="#9ED38F"/>
<path d="M54.3127 28.1507C54.2131 28.2505 54.1134 28.4501 54.1134 28.6498V28.7496C54.2131 28.8494 54.3127 28.8494 54.4124 28.8494C54.6117 28.8494 54.7113 28.9493 54.811 29.0491C54.9107 29.1489 55.11 29.1489 55.2096 29.0491C55.2096 28.9493 55.11 28.7496 55.11 28.6498C55.11 28.55 55.0103 28.4501 55.0103 28.4501C54.9107 28.2505 54.811 28.1507 54.7113 28.0508C54.6117 27.8512 54.3127 27.951 54.3127 28.1507Z" fill="#9ED38F"/>
<path d="M53.0172 17.1699C53.7148 17.0701 53.9141 16.571 54.4124 17.9685C54.9107 19.366 55.3093 19.6655 55.3093 20.3643C55.3093 21.0631 54.9107 21.9615 55.11 22.5604C55.3093 23.1594 56.4055 25.2557 56.8042 24.9562C57.2028 24.7566 57.4021 23.359 57.8007 22.9597C58.1994 22.6603 58.4983 21.8617 59.1959 21.662C59.8935 21.4624 60.7904 21.2627 60.8901 20.1646C60.9897 19.0666 61.2887 16.8704 61.0894 15.2732C60.8901 14.1752 62.1856 13.0771 62.4846 12.578C62.7836 12.0788 62.5842 11.3801 62.086 11.5797C61.5877 11.7794 61.2887 12.2785 61.0894 12.0788C60.9897 11.8792 60.9897 11.1804 60.6908 11.1804C60.3918 11.2802 58.9966 11.7794 59.2956 11.3801C59.5945 11.0806 61.0894 10.9808 60.4915 10.3818C59.7939 9.78286 60.0928 8.78461 58.7973 9.08409C57.6014 9.28374 56.9038 10.1822 56.0069 10.5815C55.11 10.9808 54.3128 11.2802 53.9141 11.6795C53.5155 12.0788 53.0172 12.6778 53.0172 13.0771C53.1169 13.5762 53.6152 13.8757 52.8179 14.275C52.1203 14.6743 51.4227 15.0736 51.921 15.3731C52.5189 15.6725 52.4193 15.972 52.3196 16.1717C52.22 16.3713 52.3196 16.7706 52.6186 16.8704C52.9176 17.1699 53.0172 17.1699 53.0172 17.1699Z" fill="#9ED38F"/>
<path d="M49.1306 18.6672C48.9313 18.9667 48.6323 19.965 48.8316 20.1646C49.0309 20.3643 49.2302 20.7636 49.8282 20.7636C50.4261 20.7636 50.7251 20.6637 50.9244 20.8634C51.1237 21.063 52.2199 21.8616 51.7216 22.3608C51.2234 22.8599 50.2268 23.6585 51.024 23.4588C52.0206 23.2592 52.5189 24.4571 52.8179 24.3573C53.1168 24.2574 53.2165 23.7583 52.9175 23.2592C52.6185 22.7601 52.7182 22.2609 52.9175 22.5604C53.2165 22.8599 54.0137 22.8599 53.2165 22.0613C52.4192 21.1629 52.6185 20.7636 52.2199 20.5639C51.9209 20.2644 51.2234 19.6655 51.024 19.4658C50.7251 19.1664 50.9244 19.2662 50.3264 18.9667C49.8282 18.6672 49.4295 18.6672 49.4295 18.8669C49.4295 19.0665 49.2302 18.8669 49.1306 18.7671C49.2302 18.6672 49.1306 18.6672 49.1306 18.6672Z" fill="#9ED38F"/>
<path d="M52.519 12.8775C52.7183 12.6778 53.4159 11.8792 53.6152 11.4799C53.8145 11.0806 53.9141 10.5815 53.1169 10.3819C52.3196 10.1822 51.3231 10.0824 50.9244 10.282C50.4262 10.4817 48.6324 11.4799 48.6324 11.6796C48.6324 11.8792 48.6324 12.2785 48.8317 12.578C49.031 12.8775 49.1306 13.2768 49.7286 13.177C50.3265 13.0771 50.8248 13.3766 50.1272 13.4764C49.4296 13.5763 48.5327 13.2768 48.433 12.8775C48.3334 12.4782 47.8351 12.2785 47.7354 12.8775C47.6358 13.3766 47.5361 13.9756 47.7354 14.3749C47.9348 14.7742 47.9348 15.1735 48.433 15.3731C48.9313 15.4729 49.3299 15.7724 49.1306 16.0719C48.9313 16.3714 48.732 16.8705 48.3334 16.7707C48.0344 16.6708 47.5361 16.2715 47.5361 16.4712C47.5361 16.6708 47.6358 16.7707 48.0344 17.17C48.3334 17.4694 47.9348 17.9686 48.2337 18.1682C48.5327 18.268 50.3265 18.5675 50.4262 18.3679C50.4262 18.1682 50.7251 17.4694 50.1272 17.4694C49.4296 17.4694 48.8317 17.7689 48.8317 17.4694C48.8317 17.17 48.9313 16.7707 49.4296 16.8705C49.9279 16.9703 50.6255 16.9703 50.6255 16.7707C50.6255 16.571 50.5258 15.9721 50.8248 15.7724C51.1238 15.5728 51.622 14.7742 51.5224 14.4747C51.4227 14.0754 52.519 12.8775 52.519 12.8775Z" fill="#9ED38F"/>
<path d="M42.9519 18.2679C42.8522 18.2679 42.6529 18.3678 42.6529 18.5674C42.5533 18.8669 42.4536 19.4658 42.6529 19.6655C42.8522 19.965 42.9519 20.4641 43.2509 20.0648C43.5498 19.7653 43.4502 19.2662 43.7491 19.1664C43.9484 19.0665 44.8454 18.6672 44.1478 18.3678C43.6495 18.2679 43.1512 18.2679 42.9519 18.2679Z" fill="#9ED38F"/>
<path d="M43.8488 19.2662C43.7492 19.4659 43.6495 19.8652 43.8488 19.8652C43.9485 19.8652 43.8488 20.0648 43.9485 20.2644C43.9485 20.3643 44.2475 20.3643 44.5464 20.3643C44.8454 20.3643 45.244 20.4641 44.7457 20.5639C44.3471 20.6637 43.9485 20.6637 44.2475 20.9632C44.5464 21.1629 44.6461 21.7618 45.0447 21.5622C45.4433 21.3625 45.9416 21.1629 46.1409 21.1629C46.3402 21.1629 47.0378 21.3625 46.7389 20.8634C46.5396 20.3643 46.2406 20.2644 46.1409 19.8652C46.0413 19.4659 46.2406 18.268 45.842 18.5674C45.4433 18.8669 45.4433 19.366 45.1444 19.1664C44.8454 18.9667 44.4468 18.6673 44.2475 18.7671C44.0482 19.0666 43.8488 19.2662 43.8488 19.2662Z" fill="#9ED38F"/>
<path d="M43.7492 16.0718C43.3506 16.2714 42.8523 16.9702 43.0516 17.07C43.3506 17.1699 43.8489 16.8704 44.0482 16.6707C44.9451 15.5727 43.7492 16.0718 43.7492 16.0718Z" fill="#9ED38F"/>
<path d="M44.1478 16.8704C43.9485 17.2697 43.5498 17.7688 44.0481 17.7688C44.4467 17.7688 44.5464 17.9685 44.646 18.0683C44.646 18.1681 45.0447 18.0683 45.4433 17.9685C45.7423 17.8687 46.1409 17.8687 46.2406 17.5692C46.3402 17.2697 46.1409 17.0701 45.9416 16.7706C45.7423 16.4711 45.4433 16.6708 45.244 16.9702C45.0447 17.2697 44.646 17.0701 44.646 16.8704C44.3471 16.7706 44.1478 16.8704 44.1478 16.8704Z" fill="#9ED38F"/>
<path d="M44.646 14.9737V15.0736C44.7457 15.1734 44.8453 15.1734 45.0446 15.2732C45.1443 15.2732 45.2439 15.2732 45.3436 15.1734C45.4432 15.0736 45.3436 14.8739 45.2439 14.8739C45.1443 14.8739 44.945 14.8739 44.8453 14.8739L44.646 14.9737Z" fill="#9ED38F"/>
<path d="M51.1237 22.1612H51.2233C51.323 22.0613 51.4227 21.9615 51.4227 21.8617C51.4227 21.7619 51.4227 21.662 51.323 21.5622C51.2233 21.4624 51.024 21.5622 51.024 21.662C50.9244 21.7619 51.024 21.8617 51.024 22.0613L51.1237 22.1612Z" fill="#9ED38F"/>
<path d="M49.5292 22.7601L49.4295 22.86C49.4295 23.1594 49.1306 23.3591 49.3299 23.5587C49.4295 23.7584 49.8281 23.958 49.9278 23.7584C50.0275 23.5587 50.2268 23.6586 50.3264 23.6586C50.4261 23.6586 50.6254 23.6586 50.4261 23.2593C50.2268 23.0596 50.1271 23.1594 49.8281 22.7601C49.6288 22.7601 49.6288 22.7601 49.5292 22.7601Z" fill="#9ED38F"/>
<path d="M46.8385 18.6673C46.7388 18.6673 46.7388 18.7671 46.7388 18.8669C46.8385 18.9668 46.8385 19.0666 46.6392 19.1664C46.4398 19.2662 46.5395 19.2662 46.7388 19.6655C46.9381 19.965 47.0378 20.2645 47.2371 20.0648C47.4364 19.8652 47.7354 19.4659 47.5361 19.2662C47.3368 19.0666 47.6357 18.4676 47.3368 18.4676C47.1374 18.3678 46.9381 18.6673 46.8385 18.6673Z" fill="#9ED38F"/>
<path d="M45.9415 14.3748C46.0412 14.5744 46.2405 14.6743 46.2405 14.8739C46.2405 15.0736 45.9415 15.1734 46.3402 15.373C46.7388 15.5727 47.0377 15.972 47.1374 15.7723C47.1374 15.5727 47.2371 15.1734 47.0378 14.9737C46.9381 14.7741 46.6391 14.4746 46.4398 14.3748C45.8419 14.0753 45.9415 14.3748 45.9415 14.3748Z" fill="#9ED38F"/>
<path d="M44.646 15.5727C44.5464 15.5727 44.5464 16.0718 44.8453 16.0718C45.1443 16.0718 45.5429 15.5727 45.244 15.4729C44.945 15.3731 44.646 15.5727 44.646 15.5727Z" fill="#9ED38F"/>
<path d="M46.2406 16.7706C46.3403 16.9702 46.3403 17.5692 46.5396 17.5692C46.7389 17.5692 46.7389 17.669 46.8385 17.7688C46.9382 17.8687 47.3368 17.9685 47.3368 17.4694C47.3368 16.9702 47.2372 16.6708 47.0379 16.7706C46.8385 16.8704 46.4399 16.9702 46.4399 16.9702C46.4399 16.7706 46.2406 16.7706 46.2406 16.7706Z" fill="#9ED38F"/>
<path d="M47.2371 14.874C47.3367 15.0736 47.2371 15.5727 47.536 15.5727C47.835 15.5727 47.9347 15.1734 47.6357 14.9738C47.3367 14.7741 47.2371 14.874 47.2371 14.874Z" fill="#9ED38F"/>
<path d="M47.835 17.4694C47.6357 17.669 47.536 17.8687 47.7354 17.9685C47.9347 18.0683 48.2336 18.268 48.134 17.7688C47.9347 17.2697 47.835 17.4694 47.835 17.4694Z" fill="#9ED38F"/>
<path d="M66.4708 45.5202C49.8282 44.3223 40.2612 39.331 35.1787 35.338C29.598 31.0456 27.9038 27.0526 27.9038 26.9527L28.1031 26.8529C28.1031 26.8529 29.7973 30.8459 35.2784 35.1384C40.3609 39.0315 49.9279 44.0228 66.4708 45.2207V45.5202Z" fill="#98DBEB"/>
<path d="M39.0653 48.8144C35.677 38.3328 35.9759 29.2487 39.9622 21.7619C46.0412 10.3818 58.5979 6.68833 58.6976 6.5885L58.7972 6.88798C58.6976 6.88798 46.2406 10.6813 40.2612 21.9615C36.2749 29.4484 35.9759 38.4326 39.3643 48.8144H39.0653Z" fill="#98DBEB"/>
<path d="M42.1546 50.5114L42.0549 50.3117C52.2199 46.6182 59.0962 40.8284 62.3848 33.1419C67.567 21.2627 62.5841 8.78458 62.4845 8.68476L62.7835 8.48511C62.8831 8.58493 67.9656 21.1629 62.6838 33.1419C59.2955 40.9282 52.4192 46.8179 42.1546 50.5114Z" fill="#98DBEB"/>
<path d="M73.9451 29.3485C57.5018 28.0507 48.0344 23.1593 42.9519 19.2661C37.5705 14.9737 35.8763 10.9807 35.8763 10.9807L36.0757 10.8809C36.0757 10.8809 37.6702 14.8739 43.1513 19.0665C48.1341 22.9597 57.6014 27.8511 73.9451 29.1488V29.3485Z" fill="#98DBEB"/>
<path d="M28.5018 95.3328H7.17529V113.9H28.5018V95.3328Z" fill="#F7C1C0"/>
<path d="M28.5018 109.009H7.17529V114H28.5018V109.009Z" fill="#E0B1B1"/>
<path d="M23.3196 95.3328H13.8523V113.9H23.3196V95.3328Z" fill="#FFE376"/>
<path d="M23.3196 109.009H13.8523V114H23.3196V109.009Z" fill="#F2D472"/>
<g opacity="0.39">
<path opacity="0.39" d="M69.4605 14.6742C69.6598 14.9737 69.9588 15.2732 70.1581 15.5727C70.3574 15.8721 70.5567 16.2714 70.756 16.5709C71.1547 17.2697 71.5533 17.9685 71.8523 18.6672C72.1512 19.366 72.4502 20.1646 72.7492 20.8634C72.8488 21.2627 73.0481 21.5622 73.1478 21.9615C73.2475 22.3608 73.3471 22.6602 73.4468 23.0595C73.5464 23.4588 73.6461 23.7583 73.6461 24.1576C73.7457 24.8564 73.8454 25.655 73.945 26.4536C73.945 26.8529 74.0447 27.2522 74.0447 27.5517C74.0447 27.951 74.0447 28.3503 74.0447 28.6497C74.0447 28.8494 74.0447 29.049 74.0447 29.2487C74.0447 29.648 74.0447 29.9475 73.945 30.3468C73.8454 31.4448 73.6461 32.5429 73.4468 33.641C73.3471 34.1401 73.1478 34.739 73.0481 35.2382C72.9485 35.6375 72.8488 35.9369 72.6495 36.3362C72.5499 36.6357 72.3505 37.035 72.2509 37.3345C71.653 38.8319 70.8557 40.3292 69.8591 41.7268C69.6598 42.0263 69.4605 42.3257 69.1615 42.6252C68.6633 43.2242 68.2646 43.8231 67.6667 44.3222C67.3677 44.6217 67.1684 44.8214 66.8694 45.1208C65.0756 46.8179 63.0825 48.2154 60.6908 49.4133C59.0963 50.2119 57.5018 50.711 55.8076 51.1103C55.0103 51.31 54.2131 51.4098 53.5155 51.5096C53.1169 51.5096 52.7182 51.6095 52.4193 51.6095C51.622 51.6095 50.9244 51.7093 50.2268 51.6095C49.8282 51.6095 49.5292 51.6094 49.1306 51.5096C47.4365 51.4098 45.842 51.0105 44.2475 50.6112C43.8488 50.5114 43.5499 50.4115 43.1512 50.2119C42.8523 50.1121 42.4536 49.9124 42.1547 49.8126C41.6564 49.613 41.1581 49.4133 40.6598 49.1138C39.8626 48.7145 39.165 48.3152 38.3677 47.8161C38.1684 47.7163 37.9691 47.5166 37.7698 47.4168C37.4708 47.2172 37.1719 47.0175 36.8729 46.718C36.7732 46.6182 36.5739 46.5184 36.4743 46.4186C36.1753 46.2189 35.8763 45.9194 35.5774 45.7198C35.2784 45.4203 34.9794 45.2207 34.7801 44.9212C34.2818 44.4221 33.7835 43.8231 33.2853 43.2242C33.0859 42.9247 32.787 42.6252 32.5877 42.3257C32.3884 42.0263 32.0894 41.7268 31.8901 41.4273C31.6908 41.1278 31.4914 40.8284 31.2921 40.4291C30.8935 39.7303 30.4949 39.0315 30.1959 38.3327C29.8969 37.634 29.598 36.8354 29.299 36.1366C29.1993 35.7373 29.0997 35.4378 28.9004 35.0385C28.8007 34.6392 28.7011 34.3397 28.6014 33.9404C28.5018 33.5411 28.4021 33.1418 28.4021 32.8424C28.3024 32.0438 28.2028 31.345 28.1031 30.5464C28.1031 30.3468 28.1031 30.1471 28.1031 29.9475C28.1031 29.3485 28.0035 28.8494 28.1031 28.2504C28.1031 28.0508 28.1031 27.8511 28.1031 27.6515C28.1031 27.2522 28.1031 26.9527 28.2028 26.5534C28.3024 25.4553 28.5018 24.3573 28.7011 23.2592C28.8007 22.7601 29 22.1611 29.0997 21.662C29.1993 21.2627 29.299 20.9632 29.4983 20.5639C29.598 20.2644 29.7973 19.8651 29.8969 19.5657C30.1959 18.8669 30.4949 18.2679 30.7938 17.669C31.1925 16.8704 31.6908 15.972 32.2887 15.2732C32.488 14.9737 32.6873 14.6742 32.9863 14.3748C33.0859 14.2749 33.1856 14.0753 33.2853 13.9755C33.3849 13.7758 33.5842 13.676 33.6839 13.4763C33.7835 13.3765 33.7835 13.3765 33.8832 13.2767C34.0825 13.077 34.2818 12.8774 34.4811 12.6777C34.6804 12.4781 34.8798 12.2784 35.1787 11.979L35.2784 11.8791C35.7767 11.38 36.3746 10.8809 36.8729 10.4816C37.0722 10.3818 37.2715 10.1821 37.3712 10.0823C37.4708 9.98248 37.6701 9.88265 37.7698 9.78283C38.7664 9.08405 39.8626 8.38528 40.9588 7.88615C41.0585 7.78633 41.2578 7.78633 41.3574 7.6865C41.5567 7.58668 41.756 7.48685 42.055 7.38703C44.1478 6.48861 46.4399 5.88966 48.6323 5.59018C49.031 5.59018 49.4296 5.49036 49.7286 5.49036C49.8282 5.49036 49.9279 5.49036 50.0275 5.49036C50.3265 5.49036 50.5258 5.49036 50.8248 5.49036C51.2234 5.49036 51.5224 5.49036 51.921 5.49036C52.3196 5.49036 52.6186 5.49036 53.0172 5.59018C54.5121 5.69001 56.0069 5.98948 57.4021 6.38878C57.6014 6.38878 57.7011 6.48861 57.9004 6.48861C58.299 6.58843 58.598 6.68826 58.9966 6.8879C59.2956 6.98773 59.6942 7.18738 59.9932 7.2872C60.4914 7.48685 60.9897 7.6865 61.488 7.98598C62.4846 8.4851 63.4811 9.08405 64.378 9.683C64.677 9.88265 64.976 10.0823 65.2749 10.3818C65.3746 10.4816 65.5739 10.5814 65.6736 10.6812C66.0722 11.0805 66.5705 11.38 66.9691 11.7793C67.0688 11.8791 67.2681 12.0788 67.3677 12.1786C67.866 12.6777 68.3643 13.2767 68.8626 13.8756C68.9622 14.0753 69.1615 14.3748 69.4605 14.6742Z" fill="#98DBEB"/>
</g>
</g>
<defs>
<clipPath id="clip0">
<rect width="87" height="114" fill="white"/>
</clipPath>
</defs>
</svg>
