<svg width="81" height="108" viewBox="0 0 81 108" fill="none" xmlns="http://www.w3.org/2000/svg">
<path d="M20.8239 39.7478C3.32539 24.8622 -1.9796 11.085 0.633305 3.95894C1.50427 1.5044 3.32539 0 5.5424 0C8.1553 0 10.5307 0.950147 12.3518 2.77126C14.9647 5.38416 16.5483 9.65982 16.5483 14.2522H12.8269C12.8269 10.6891 11.6392 7.28446 9.73888 5.38416C8.55119 4.27566 7.20515 3.72141 5.62157 3.72141C4.82979 3.72141 4.35471 4.5132 4.11718 5.22581C2.37524 9.97654 6.09665 22.3284 23.2785 36.9765L20.8239 39.7478Z" fill="#FFE376"/>
<path d="M47.8239 39.7478L45.3694 36.8974C62.5512 22.3284 66.2726 9.97654 64.5307 5.22581C64.2931 4.59238 63.8181 3.72141 63.0263 3.72141C61.4427 3.72141 60.0175 4.27566 58.909 5.38416C57.0087 7.28446 55.821 10.6891 55.821 14.2522H52.0996C52.0996 9.65982 53.6832 5.38416 56.2961 2.77126C58.1964 0.950147 60.4925 0 63.1054 0C65.3225 0 67.1436 1.5044 68.0937 3.95894C70.6274 11.085 65.3225 24.8622 47.8239 39.7478Z" fill="#FFE376"/>
<path d="M39.9851 49.9619C39.9851 53.4457 40.7769 56.7712 42.2022 59.78H26.4456C27.8708 56.8504 28.6626 53.5249 28.6626 49.9619C28.6626 46.478 27.8708 43.1525 26.4456 40.1437H42.2022C40.7769 43.1525 39.9851 46.478 39.9851 49.9619Z" fill="#F2D472"/>
<path d="M12.8269 5.38416V22.8827C12.8269 34.7595 22.4075 44.3402 34.2844 44.3402C46.1612 44.3402 55.7419 34.7595 55.7419 22.8827V5.38416H12.8269Z" fill="#FFE376"/>
<path d="M46.3195 68.4897C46.3195 61.9179 40.9353 56.5337 34.3635 56.5337C27.7916 56.5337 22.4075 61.9179 22.4075 68.4897H46.3195Z" fill="#F2D472"/>
<path d="M57.563 84.959H11.085V90.9766H57.563V84.959Z" fill="#F2D472"/>
<path d="M52.6539 67.2229H16.0732V84.959H52.6539V67.2229Z" fill="#FFE376"/>
<path d="M43.9442 81.6334H24.7037C24.7037 80.2873 23.6744 79.258 22.3284 79.258V72.9237C23.6744 72.9237 24.7037 71.8944 24.7037 70.5483H43.865C43.865 71.8944 44.8944 72.9237 46.2404 72.9237V76.0909V79.258C44.9735 79.258 43.9442 80.3665 43.9442 81.6334Z" fill="#F2D472"/>
<path d="M79.4954 93.5895C79.4954 93.5895 73.3987 100.399 79.8913 105.625H5.30483L4.90894 92.7185L79.4954 93.5895Z" fill="#E8EDF5"/>
<path d="M5.85913 98.0235C5.85913 97.5485 5.85913 96.9942 5.85913 96.3608C5.85913 93.352 8.63039 93.5895 8.63039 93.5895H80.9999V90.1848H7.91778C6.41338 90.1848 5.30488 90.5807 4.59227 91.135C4.51309 91.2141 4.43391 91.2141 4.43391 91.2933L4.35473 91.3725C2.85033 92.6394 -2.53383 98.1819 3.64212 106.1C4.35473 107.129 5.54241 108 7.8386 108H80.9207V104.595H8.63039C8.63039 104.595 5.85913 104.833 5.85913 101.824C5.85913 101.191 5.85913 100.636 5.85913 100.161C5.85913 100.161 5.85913 99.2904 5.85913 98.0235Z" fill="#A898DB"/>
<path d="M30.4046 99.3696C27.7126 98.8945 24.3079 99.132 24.3079 99.132C24.3079 99.132 28.1876 101.27 27.9501 106.1L30.8797 102.853L34.9178 105.229C34.9178 105.15 33.651 100.399 30.4046 99.3696Z" fill="#F7C1C0"/>
<path d="M80.525 83.9296C80.7626 84.6422 80.3667 85.434 79.654 85.6715L66.9854 90.0264C66.2728 90.2639 65.4018 89.868 65.1643 89.1554L48.3784 40.4604C48.1408 39.7478 48.5367 38.956 49.2494 38.7185L61.918 34.3636C62.6306 34.1261 63.5016 34.522 63.7391 35.2346L80.525 83.9296Z" fill="#61313E"/>
<path d="M80.525 83.9296C80.7626 84.6422 80.3667 85.434 79.654 85.6715L66.9854 90.0264C66.2728 90.2639 65.4018 89.868 65.1643 89.1554L48.3784 40.4604C48.1408 39.7478 48.5367 38.956 49.2494 38.7185L61.918 34.3636C62.6306 34.1261 63.5016 34.522 63.7391 35.2346L80.525 83.9296Z" fill="#9ED38F"/>
<path d="M49.2493 38.7977C48.5367 39.0352 48.0616 39.827 48.3783 40.5396L65.2434 89.3138C65.4809 90.0264 66.2727 90.4223 67.0645 90.1848L69.8358 89.2346L52.0205 37.8475L49.2493 38.7977Z" fill="#9ED38F"/>
<path d="M77.3745 74.7647L62.0339 80.0708L62.7069 82.0164L78.0475 76.7103L77.3745 74.7647Z" fill="#F7C1C0"/>
<path d="M78.3996 77.7809L63.0591 83.0854L63.7318 85.0311L79.0724 79.7266L78.3996 77.7809Z" fill="#F7C1C0"/>
<path d="M66.1573 78.6865L62.0415 80.1096L62.6884 81.9804L66.8042 80.5573L66.1573 78.6865Z" fill="#E0B1B1"/>
<path d="M67.1802 81.7018L63.0645 83.125L63.7372 85.0706L67.853 83.6475L67.1802 81.7018Z" fill="#E0B1B1"/>
<path d="M64.7939 38.4113L49.4534 43.7174L54.6819 58.8335L70.0224 53.5273L64.7939 38.4113Z" fill="#F7C1C0"/>
<path d="M53.573 42.3354L49.4573 43.759L54.6858 58.8751L58.8015 57.4515L53.573 42.3354Z" fill="#E0B1B1"/>
<path d="M66.4175 43.1612L51.0769 48.4657L53.4057 55.2006L68.7463 49.8961L66.4175 43.1612Z" fill="#FFE376"/>
<path d="M55.2408 46.9828L51.125 48.4055L53.4531 55.1404L57.5689 53.7177L55.2408 46.9828Z" fill="#F2D472"/>
</svg>
