<svg width="109" height="74" viewBox="0 0 109 74" fill="none" xmlns="http://www.w3.org/2000/svg">
<path d="M40.2085 24.8429C40.0337 24.8429 39.8588 24.8429 39.684 24.8429C38.5477 24.6667 37.4988 24.1381 36.7995 23.1691L29.1074 13.3024C28.4956 12.5977 28.2333 11.6286 28.4081 10.6596C28.4956 9.69053 29.02 8.89767 29.7193 8.281C31.2053 7.04767 33.4779 7.31196 34.6142 8.89767L41.3448 17.6191C42.2189 18.7643 42.0441 20.4381 40.9077 21.3191C39.7714 22.2001 38.1106 22.0239 37.2365 20.8786L30.8556 12.6858C30.6808 12.5096 30.7682 12.1572 30.943 12.0691C31.1179 11.8929 31.4675 11.981 31.5549 12.1572L37.9358 20.3501C38.5477 21.0548 39.5966 21.231 40.2959 20.6143C40.9952 19.9977 41.17 18.9405 40.5581 18.2358L33.8276 9.51434C32.9535 8.3691 31.2927 8.19291 30.1563 9.07386C29.6319 9.51434 29.2822 10.131 29.1948 10.8358C29.1074 11.5405 29.2822 12.2453 29.7193 12.7739L37.4114 22.6405C37.9358 23.3453 38.8099 23.8739 39.684 23.962C40.5581 24.0501 41.5196 23.7858 42.2189 23.2572C43.7049 22.112 43.9671 19.9096 42.8308 18.412L38.2855 12.5096C38.1106 12.3334 38.198 11.981 38.3729 11.8929C38.5477 11.7167 38.8973 11.8048 38.9847 11.981L43.53 17.8834C45.016 19.8215 44.6664 22.5524 42.7434 24.0501C42.1315 24.5786 41.2574 24.8429 40.2085 24.8429Z" fill="#D82426"/>
<path d="M60.2254 66.7762C62.8322 66.7762 64.9455 65.1197 64.9455 63.0762C64.9455 61.0328 62.8322 59.3762 60.2254 59.3762C57.6185 59.3762 55.5052 61.0328 55.5052 63.0762C55.5052 65.1197 57.6185 66.7762 60.2254 66.7762Z" fill="#0F8481"/>
<path d="M109 65.3667H10.7513L12.4121 2.81909H107.689L109 65.3667Z" fill="#A898DB"/>
<path d="M60.2253 66.0714C62.3494 66.0714 64.0713 64.7304 64.0713 63.0762C64.0713 61.4219 62.3494 60.0809 60.2253 60.0809C58.1012 60.0809 56.3793 61.4219 56.3793 63.0762C56.3793 64.7304 58.1012 66.0714 60.2253 66.0714Z" fill="#E0E7F2"/>
<path d="M60.4002 3.08337C60.4002 3.08337 66.1692 -0.176152 74.7354 0.264324C83.3015 0.7048 105.853 3.25956 105.853 3.25956V63.1643C105.853 63.1643 82.34 59.4643 69.316 60.5215C63.4595 60.9619 60.1379 63.1643 60.1379 63.1643C60.1379 63.1643 60.4002 3.61194 60.4002 3.08337Z" fill="#E8EDF5"/>
<path d="M81.903 14.3596L86.7105 23.2572C86.8853 23.6096 87.235 23.7857 87.5846 23.8738L97.5493 24.931C98.5108 25.0191 98.9479 26.1643 98.2486 26.9572L91.3432 34.2691C91.081 34.5334 90.9936 34.9738 91.081 35.3262L93.1788 45.1929C93.3537 46.1619 92.3922 46.9548 91.5181 46.5143L82.5148 42.1096C82.1652 41.9334 81.7282 41.9334 81.4659 42.1096L72.8124 47.131C71.9383 47.6596 70.9768 46.9548 71.0642 45.9858L72.3753 35.9429C72.4627 35.5905 72.2879 35.15 72.0257 34.8857L64.421 28.1905C63.7217 27.5738 64.0714 26.3405 65.0329 26.1643L74.9102 24.3143C75.2598 24.2262 75.6095 23.9619 75.7843 23.6096L79.8926 14.3596C80.1548 13.5667 81.3785 13.4786 81.903 14.3596Z" fill="#FFF1B9"/>
<path d="M60.4001 3.08337C60.4001 3.08337 54.0192 -0.176152 45.4531 0.264324C36.8869 0.7048 14.51 3.25956 14.51 3.25956V63.1643C14.51 63.1643 38.1107 59.3762 51.1347 60.4334C56.9912 60.8738 60.2253 63.1643 60.2253 63.1643C60.2253 63.1643 60.4001 3.43575 60.4001 3.08337Z" fill="#E8EDF5"/>
<path d="M51.1347 60.5214C56.9912 60.9619 60.2253 63.2524 60.2253 63.2524V63.8691H14.51V63.2524C14.51 63.2524 38.0232 59.4643 51.1347 60.5214Z" fill="#E0E7F2"/>
<path d="M74.7354 26.2524L71.676 30.0405L68.6167 26.2524V0H74.7354V26.2524Z" fill="#F7C1C0"/>
<path d="M60.1379 64.75V63.1643C60.1379 63.1643 55.3304 56.2929 14.4226 63.1643V63.781C14.51 63.8691 54.1067 59.9929 60.1379 64.75Z" fill="#E0E7F2"/>
<path d="M52.1837 13.1262H19.8421C19.4924 13.1262 19.3176 12.8619 19.3176 12.5976V7.04761C19.3176 6.69523 19.5799 6.51904 19.8421 6.51904H52.2711C52.6208 6.51904 52.7956 6.78333 52.7956 7.04761V12.5976C52.7956 12.8619 52.5333 13.1262 52.1837 13.1262Z" fill="#9ED38F"/>
<path d="M24.4747 23.4334H19.4923C19.3175 23.4334 19.2301 23.3453 19.2301 23.1691V18.0596C19.2301 17.8834 19.3175 17.7953 19.4923 17.7953H24.4747C24.6495 17.7953 24.7369 17.8834 24.7369 18.0596V23.1691C24.7369 23.2572 24.6495 23.4334 24.4747 23.4334Z" fill="#FFE376"/>
<path d="M51.5718 20.0857H27.4467C27.2719 20.0857 27.1844 19.9976 27.1844 19.8214V18.1476C27.1844 17.9714 27.2719 17.8833 27.4467 17.8833H51.5718C51.7466 17.8833 51.834 17.9714 51.834 18.1476V19.8214C51.834 19.9095 51.7466 20.0857 51.5718 20.0857Z" fill="#FFE376"/>
<path opacity="0.39" d="M46.2398 23.3452H27.4467C27.2719 23.3452 27.1844 23.2571 27.1844 23.0809V21.4071C27.1844 21.2309 27.2719 21.1428 27.4467 21.1428H46.2398C46.4146 21.1428 46.502 21.2309 46.502 21.4071V23.0809C46.4146 23.2571 46.3272 23.3452 46.2398 23.3452Z" fill="#98DBEB"/>
<path d="M24.4747 34.0928H19.4923C19.3175 34.0928 19.2301 34.0047 19.2301 33.8285V28.719C19.2301 28.5428 19.3175 28.4547 19.4923 28.4547H24.4747C24.6495 28.4547 24.7369 28.5428 24.7369 28.719V33.8285C24.7369 34.0047 24.6495 34.0928 24.4747 34.0928Z" fill="#FFEECB"/>
<path d="M48.1628 30.7452H27.4467C27.2719 30.7452 27.1844 30.6571 27.1844 30.4809V28.8071C27.1844 28.6309 27.2719 28.5428 27.4467 28.5428H48.1628C48.3376 28.5428 48.425 28.6309 48.425 28.8071V30.4809C48.3376 30.6571 48.2502 30.7452 48.1628 30.7452Z" fill="#FFEECB"/>
<path opacity="0.39" d="M44.7538 34.0929H27.4467C27.2719 34.0929 27.1844 34.0048 27.1844 33.8286V32.1548C27.1844 31.9786 27.2719 31.8905 27.4467 31.8905H44.7538C44.9286 31.8905 45.016 31.9786 45.016 32.1548V33.8286C45.016 34.0048 44.9286 34.0929 44.7538 34.0929Z" fill="#98DBEB"/>
<path d="M24.4747 44.9286H19.4923C19.3175 44.9286 19.2301 44.8405 19.2301 44.6643V39.5548C19.2301 39.3786 19.3175 39.2905 19.4923 39.2905H24.4747C24.6495 39.2905 24.7369 39.3786 24.7369 39.5548V44.6643C24.7369 44.7524 24.6495 44.9286 24.4747 44.9286Z" fill="#98DBEB"/>
<path d="M51.5718 41.5809H27.4467C27.2719 41.5809 27.1844 41.4928 27.1844 41.3166V39.6428C27.1844 39.4666 27.2719 39.3785 27.4467 39.3785H51.5718C51.7466 39.3785 51.834 39.4666 51.834 39.6428V41.3166C51.834 41.4047 51.7466 41.5809 51.5718 41.5809Z" fill="#98DBEB"/>
<path opacity="0.39" d="M46.2398 44.8404H27.4467C27.2719 44.8404 27.1844 44.7523 27.1844 44.5762V42.9023C27.1844 42.7262 27.2719 42.6381 27.4467 42.6381H46.2398C46.4146 42.6381 46.502 42.7262 46.502 42.9023V44.5762C46.4146 44.7523 46.3272 44.8404 46.2398 44.8404Z" fill="#98DBEB"/>
<path d="M24.4747 55.588H19.4923C19.3175 55.588 19.2301 55.5 19.2301 55.3238V50.2142C19.2301 50.038 19.3175 49.95 19.4923 49.95H24.4747C24.6495 49.95 24.7369 50.038 24.7369 50.2142V55.3238C24.7369 55.5 24.6495 55.588 24.4747 55.588Z" fill="#F7C1C0"/>
<path d="M40.5581 52.2405H27.4467C27.2719 52.2405 27.1844 52.1524 27.1844 51.9762V50.3024C27.1844 50.1262 27.2719 50.0381 27.4467 50.0381H40.5581C40.733 50.0381 40.8204 50.1262 40.8204 50.3024V51.9762C40.733 52.1524 40.6456 52.2405 40.5581 52.2405Z" fill="#F7C1C0"/>
<path opacity="0.39" d="M52.9703 55.5881H27.4467C27.2719 55.5881 27.1844 55.5 27.1844 55.3238V53.65C27.1844 53.4738 27.2719 53.3857 27.4467 53.3857H52.9703C53.1452 53.3857 53.2326 53.4738 53.2326 53.65V55.3238C53.1452 55.5 53.0577 55.5881 52.9703 55.5881Z" fill="#98DBEB"/>
<path d="M60.2253 63.2524C60.2253 63.2524 65.5573 56.5572 105.941 63.2524V63.8691C105.941 63.8691 67.2181 59.8167 60.2253 64.8381V63.2524Z" fill="#E0E7F2"/>
<path d="M45.8901 73.9119L53.8444 74L54.4563 8.10478L46.502 7.92859L45.8901 73.9119ZM48.9495 11.6286C48.9495 10.8357 49.6488 10.131 50.4354 10.2191C51.2221 10.2191 51.9214 10.9238 51.834 11.7167C51.834 12.5095 51.1347 13.2143 50.348 13.1262C49.5613 13.0381 48.9495 12.4214 48.9495 11.6286Z" fill="#FFE376"/>
<path d="M54.3986 7.98025L53.7424 73.8754L56.8892 73.9061L57.5453 8.01094L54.3986 7.98025Z" fill="#FFE376"/>
<path d="M51.0473 14.8881H46.4146V15.6809H51.0473V14.8881Z" fill="#F2D472"/>
<path d="M49.7361 17.0905H46.4146V17.8833H49.7361V17.0905Z" fill="#F2D472"/>
<path d="M51.0473 19.381H46.4146V20.1738H51.0473V19.381Z" fill="#F2D472"/>
<path d="M50.8725 22.4644H46.2397V23.2572H50.8725V22.4644Z" fill="#F2D472"/>
<path d="M49.5613 24.6667H46.2397V25.4596H49.5613V24.6667Z" fill="#F2D472"/>
<path d="M50.8725 26.9573H46.2397V27.7501H50.8725V26.9573Z" fill="#F2D472"/>
<path d="M50.8725 30.5691H46.2397V31.3619H50.8725V30.5691Z" fill="#F2D472"/>
<path d="M49.5613 32.8595H46.2397V33.6524H49.5613V32.8595Z" fill="#F2D472"/>
<path d="M50.8725 35.0619H46.2397V35.8547H50.8725V35.0619Z" fill="#F2D472"/>
<path d="M50.7851 38.3214H46.1523V39.1143H50.7851V38.3214Z" fill="#F2D472"/>
<path d="M49.4739 40.5238H46.1523V41.3167H49.4739V40.5238Z" fill="#F2D472"/>
<path d="M50.7851 42.8143H46.1523V43.6072H50.7851V42.8143Z" fill="#F2D472"/>
<path d="M50.6103 46.3381H45.9775V47.131H50.6103V46.3381Z" fill="#F2D472"/>
<path d="M49.2991 48.5405H45.9775V49.3334H49.2991V48.5405Z" fill="#F2D472"/>
<path d="M50.6103 50.8311H45.9775V51.6239H50.6103V50.8311Z" fill="#F2D472"/>
<path d="M50.6103 55.5881H45.9775V56.381H50.6103V55.5881Z" fill="#F2D472"/>
<path d="M49.2991 57.8787H45.9775V58.6715H49.2991V57.8787Z" fill="#F2D472"/>
<path d="M50.6103 60.1691H45.9775V60.9619H50.6103V60.1691Z" fill="#F2D472"/>
<path d="M50.5229 63.1643H45.8901V63.9572H50.5229V63.1643Z" fill="#F2D472"/>
<path d="M49.2117 65.3667H45.8901V66.1596H49.2117V65.3667Z" fill="#F2D472"/>
<path d="M50.5229 67.6572H45.8901V68.4501H50.5229V67.6572Z" fill="#F2D472"/>
<path d="M57.2319 57.6404L55.4837 55.2619C54.9592 54.5571 54.0851 54.469 53.3858 54.9095L47.6168 59.2262C46.9175 59.7547 46.8301 60.6357 47.2671 61.3404L49.0153 63.719C49.5398 64.4238 50.4139 64.5119 51.1132 64.0714L56.8822 59.7547C57.5815 59.2262 57.6689 58.2571 57.2319 57.6404Z" fill="#F7C1C0"/>
<path d="M77.3361 37.0274L49.6179 57.7772L53.1622 62.5864L80.8804 41.8366L77.3361 37.0274Z" fill="#A898DB"/>
<path d="M56.5326 59.7547L53.211 55.2619C52.8614 54.9095 52.2495 54.8214 51.8125 55.0857L49.8021 56.5833C49.365 56.9357 49.2776 57.5523 49.6272 57.9928L52.9488 62.4857C53.2985 62.9261 53.9103 63.0142 54.3474 62.6619L56.3578 61.1642C56.7074 60.9 56.7948 60.1952 56.5326 59.7547Z" fill="#E8EDF5"/>
<path d="M77.3362 37.0262L80.8326 41.7833L84.9408 35L77.3362 37.0262Z" fill="#E8EDF5"/>
<path d="M82.406 35.7048L84.9409 35L83.6297 37.2905L82.406 35.7048Z" fill="#A898DB"/>
<path d="M79.8051 28.1904L78.931 35.0619C78.931 35.0619 78.931 35.15 78.8436 35.15H76.3087C76.6584 32.1547 76.8332 30.569 76.8332 30.569C76.9206 30.3047 76.9206 30.0404 76.8332 29.8642C76.8332 29.688 76.7458 29.5119 76.7458 29.4238C76.7458 29.3357 76.6584 29.2476 76.5709 29.2476C76.4835 29.1595 76.4835 29.1595 76.4835 29.1595C76.4835 29.0714 76.4835 29.0714 76.5709 28.9833C76.6584 28.9833 76.7458 28.8952 76.8332 28.8952L79.8051 28.1904Z" fill="#A898DB"/>
<path d="M85.9238 31.45C85.5742 31.8023 85.1371 32.0666 84.7001 32.2428C84.2631 32.419 83.826 32.5952 83.389 32.7714C82.9519 32.9476 82.6897 33.0357 82.6023 33.1238H84.0008C84.3505 33.1238 84.6127 33.1238 84.8749 33.0357C85.1371 33.0357 85.312 32.9476 85.4868 32.9476C85.6616 32.9476 85.749 32.8595 85.8364 32.7714C85.9238 32.6833 86.0112 32.6833 86.0987 32.5952L86.1861 32.5071C86.2735 32.5071 86.2735 32.5071 86.2735 32.5071C86.3609 32.5952 86.3609 32.6833 86.4483 32.7714C86.5357 32.9476 86.5357 33.0357 86.5357 33.1238C86.6231 33.9166 86.3609 34.4452 85.8364 34.7095C85.312 34.9738 84.7875 35.15 84.0882 35.0619C84.0882 35.0619 83.826 34.9738 83.389 34.8857C82.9519 34.7976 82.6023 34.7095 82.34 34.7095C82.0778 34.7095 81.7282 34.6214 81.2911 34.6214C80.8541 34.6214 80.5044 34.6214 80.1548 34.7976C80.1548 34.5333 80.1548 34.3571 80.1548 34.1809C80.1548 34.0047 80.2422 33.8285 80.2422 33.6523C80.3296 33.4761 80.3296 33.3881 80.417 33.2119C80.5044 33.0357 80.5044 32.9476 80.6792 32.8595C80.7667 32.6833 80.8541 32.5952 80.9415 32.5952C81.0289 32.5952 81.1163 32.419 81.2911 32.3309C81.4659 32.2428 81.6408 32.1547 81.7282 32.0666C81.8156 31.9785 81.9904 31.8904 82.2526 31.7142C82.5149 31.538 82.6897 31.45 82.8645 31.3619C83.6512 30.9214 84.0882 30.4809 84.0882 30.1285C84.0882 29.9523 84.0882 29.688 84.0008 29.6C83.9134 29.5119 83.7386 29.3357 83.4764 29.3357C83.2141 29.3357 83.0393 29.4238 82.8645 29.5119C82.6897 29.6 82.6023 29.8642 82.6023 30.1285C82.6023 30.2166 82.6023 30.3047 82.6023 30.3928C82.6023 30.4809 82.6023 30.569 82.6023 30.569C82.6023 30.6571 82.6023 30.6571 82.5149 30.6571C82.4274 30.7452 82.34 30.7452 82.1652 30.8333C81.9904 30.9214 81.7282 30.9214 81.5533 30.9214C81.2037 30.9214 80.9415 30.8333 80.6792 30.569C80.417 30.3047 80.417 30.0404 80.417 29.6881C80.5044 29.3357 80.5918 29.0714 80.8541 28.8071C81.1163 28.5428 81.3785 28.3666 81.7282 28.2785C82.0778 28.1904 82.4274 28.1023 82.6897 28.0142C83.0393 27.9261 83.3015 27.9261 83.6512 27.9261C84.1756 27.9261 84.7001 28.0142 85.1371 28.1023C85.5742 28.1904 86.0112 28.4547 86.2735 28.8071C86.6231 29.1595 86.7105 29.6 86.6231 30.0404C86.5357 30.6571 86.2735 31.0976 85.9238 31.45Z" fill="#A898DB"/>
</svg>
