<svg width="83" height="116" viewBox="0 0 83 116" fill="none" xmlns="http://www.w3.org/2000/svg">
<g clip-path="url(#clip0)">
<path d="M80.3909 74.6882L23.0554 74.2036C23.0554 74.2036 24.0869 38.4647 29.5474 27.0161C35.0079 15.5676 62.7352 5.02763 69.8339 20.9587C76.9326 36.8898 80.3909 74.6882 80.3909 74.6882Z" fill="#FCC100"/>
<path d="M65.5263 90.8617H34.7046C26.2105 90.8617 19.3545 84.0168 19.3545 75.5364C19.3545 65.3599 27.606 57.0612 37.8596 57.0612H62.3713C72.5643 57.0612 80.8764 65.3599 80.8764 75.5364C80.8764 84.0168 74.0204 90.8617 65.5263 90.8617Z" fill="#98DBEB"/>
<path d="M49.9942 66.6319C53.9379 66.6319 57.0929 63.9666 57.0929 60.635V57.1217H42.8955V60.635C42.8955 63.906 46.0505 66.6319 49.9942 66.6319Z" fill="#74C9D7"/>
<path d="M50.1153 65.1781C46.7784 65.1781 44.0481 62.4522 44.0481 59.1206V50.5797C44.0481 47.2481 46.7784 44.5222 50.1153 44.5222C53.4523 44.5222 56.1826 47.2481 56.1826 50.5797V59.1206C56.1826 62.5128 53.4523 65.1781 50.1153 65.1781Z" fill="#FFD4CA"/>
<path d="M71.4722 29.9843C71.4722 41.6146 62.0073 51.0642 50.3581 51.0642C38.709 51.0642 27.606 45.3702 27.606 33.7399C27.606 22.1097 40.8932 2.18068 60.7331 14.1744C68.7419 15.0225 71.4722 22.352 71.4722 29.9843Z" fill="#FCC100"/>
<path d="M50.6009 56.0313C60.7875 56.0313 69.0454 46.702 69.0454 35.1937C69.0454 23.6854 60.7875 14.3561 50.6009 14.3561C40.4144 14.3561 32.1565 23.6854 32.1565 35.1937C32.1565 46.702 40.4144 56.0313 50.6009 56.0313Z" fill="#FFE1D7"/>
<path d="M71.3128 39.1067C72.1611 36.1826 70.8137 33.2237 68.3033 32.4977C65.7929 31.7718 63.0701 33.5537 62.2218 36.4778C61.3735 39.4019 62.7209 42.3608 65.2313 43.0868C67.7417 43.8127 70.4645 42.0308 71.3128 39.1067Z" fill="#FFE1D7"/>
<path d="M34.7543 43.8133C37.3491 43.5015 39.1573 40.7985 38.7929 37.7761C38.4285 34.7537 36.0296 32.5563 33.4347 32.8681C30.8399 33.18 29.0317 35.8829 29.3961 38.9053C29.7605 41.9277 32.1594 44.1251 34.7543 43.8133Z" fill="#FFE1D7"/>
<path d="M31.9744 33.013C31.9744 33.013 53.4524 32.165 58.9736 22.8365C62.796 30.7718 69.0453 32.589 69.0453 32.589C69.0453 32.589 68.5599 13.3869 50.6008 13.0235C32.6418 12.66 31.9744 33.013 31.9744 33.013Z" fill="#FCC100"/>
<path d="M26.5745 79.6553C26.5745 79.6553 26.0285 76.7477 27.606 74.7488C29.1835 72.8104 48.538 62.3916 48.538 62.3916C48.538 62.3916 51.3289 63.906 52.1177 64.2694C52.9064 64.6329 53.8165 64.6329 53.8165 64.6329L26.5745 79.6553Z" fill="#E0E7F2"/>
<path d="M27.788 80.4428C27.788 80.4428 29.2441 76.6872 27.6666 74.7488C26.0891 72.8104 5.82451 62.3916 5.82451 62.3916C5.82451 62.3916 3.33694 63.906 2.5482 64.2694C1.75945 64.6329 0.849365 64.6329 0.849365 64.6329L27.788 80.4428Z" fill="#E0E7F2"/>
<path d="M54.1805 64.0271H53.4524L30.7002 77.2323L31.7316 77.3535L54.1805 64.0271Z" fill="#F2D472"/>
<path d="M54.3019 98.6151L30.8217 114.97L30.6396 77.7169L54.1806 64.0271L54.3019 98.6151Z" fill="#FFE376"/>
<path d="M0.182129 63.9666H0.849526L23.6017 77.1718L22.813 77.4141L0.182129 63.9666Z" fill="#F2D472"/>
<path d="M0 98.6151L23.4803 114.91L23.6623 77.6564L0.182018 63.9666L0 98.6151Z" fill="#FFE376"/>
<path d="M22.9949 77.2929L23.4803 77.1112C23.4803 77.1112 25.1791 78.4438 27.3633 78.3833C29.5475 78.3227 30.7003 77.2929 30.7003 77.2929L31.3677 77.3535C31.3677 77.3535 29.9115 78.9284 28.3947 79.2313C26.8779 79.5342 24.1476 78.6256 23.7229 78.5044C23.2376 78.3227 22.9949 77.2929 22.9949 77.2929Z" fill="#F2D472"/>
<path d="M31.3678 114.667C28.8802 116.485 25.5432 116.485 23.0557 114.667C23.0557 102.189 23.0557 89.7712 23.0557 77.2928C25.5432 79.1101 28.8802 79.1101 31.3678 77.2928C31.3678 89.7712 31.3678 102.189 31.3678 114.667Z" fill="#F2D472"/>
<path d="M46.8391 77.5352L51.1469 93.8297L46.9605 95.9498L46.2931 92.3153L41.3786 94.7989L40.4078 99.2814L36.3428 101.341L42.1067 79.9581L46.8391 77.5352ZM42.1673 91.225L45.6863 89.4077L44.2909 82.0177L42.1673 91.225Z" fill="#F7C1C0"/>
</g>
<defs>
<clipPath id="clip0">
<rect width="83" height="116" fill="white"/>
</clipPath>
</defs>
</svg>
