<svg width="112" height="103" viewBox="0 0 112 103" fill="none" xmlns="http://www.w3.org/2000/svg">
<path d="M110.88 88.921H47.0399C46.4426 88.921 45.9199 88.4023 45.9199 87.8095V1.11163C45.9199 0.518827 46.4426 0.00012207 47.0399 0.00012207H110.805C111.477 0.00012207 111.925 0.518827 111.925 1.11163V87.7354C112 88.4023 111.477 88.921 110.88 88.921Z" fill="#E0E7F2"/>
<path d="M103.189 18.0807H55.7759C55.3279 18.0807 54.9546 17.7102 54.9546 17.2656V9.33684C54.9546 8.89223 55.3279 8.52173 55.7759 8.52173H103.264C103.712 8.52173 104.085 8.89223 104.085 9.33684V17.2656C104.011 17.7843 103.637 18.0807 103.189 18.0807Z" fill="#FFE376"/>
<path d="M62.5706 32.9008H55.2532C55.0292 32.9008 54.8799 32.7526 54.8799 32.5303V25.1944C54.8799 24.9721 55.0292 24.8239 55.2532 24.8239H62.5706C62.7946 24.8239 62.9439 24.9721 62.9439 25.1944V32.6044C62.9439 32.7526 62.7946 32.9008 62.5706 32.9008Z" fill="#FFE376"/>
<path d="M102.293 28.0843H66.9012C66.6772 28.0843 66.5278 27.9361 66.5278 27.7138V25.2685C66.5278 25.0462 66.6772 24.8979 66.9012 24.8979H102.293C102.517 24.8979 102.666 25.0462 102.666 25.2685V27.7138C102.666 27.9361 102.517 28.0843 102.293 28.0843Z" fill="#FFE376"/>
<path opacity="0.39" d="M94.3785 32.9008H66.9012C66.6772 32.9008 66.5278 32.7526 66.5278 32.5303V30.085C66.5278 29.8627 66.6772 29.7145 66.9012 29.7145H94.3785C94.6025 29.7145 94.7518 29.8627 94.7518 30.085V32.5303C94.7518 32.6785 94.6025 32.9008 94.3785 32.9008Z" fill="#98DBEB"/>
<path d="M62.5706 48.3879H55.2532C55.0292 48.3879 54.8799 48.2397 54.8799 48.0174V40.6073C54.8799 40.385 55.0292 40.2368 55.2532 40.2368H62.5706C62.7946 40.2368 62.9439 40.385 62.9439 40.6073V48.0174C62.9439 48.2397 62.7946 48.3879 62.5706 48.3879Z" fill="#FFEECB"/>
<path d="M97.2158 43.5713H66.9012C66.6772 43.5713 66.5278 43.4231 66.5278 43.2008V40.7555C66.5278 40.5332 66.6772 40.385 66.9012 40.385H97.2158C97.4398 40.385 97.5892 40.5332 97.5892 40.7555V43.2008C97.5892 43.4231 97.4398 43.5713 97.2158 43.5713Z" fill="#FFEECB"/>
<path opacity="0.39" d="M92.2878 48.3138H66.9012C66.6772 48.3138 66.5278 48.1656 66.5278 47.9433V45.4979C66.5278 45.2756 66.6772 45.1274 66.9012 45.1274H92.2878C92.5118 45.1274 92.6612 45.2756 92.6612 45.4979V47.9433C92.6612 48.1656 92.4372 48.3138 92.2878 48.3138Z" fill="#98DBEB"/>
<path d="M62.5706 63.875H55.2532C55.0292 63.875 54.8799 63.7268 54.8799 63.5045V56.0944C54.8799 55.8721 55.0292 55.7239 55.2532 55.7239H62.5706C62.7946 55.7239 62.9439 55.8721 62.9439 56.0944V63.5045C62.9439 63.7268 62.7946 63.875 62.5706 63.875Z" fill="#98DBEB"/>
<path d="M102.293 59.0584H66.9012C66.6772 59.0584 66.5278 58.9102 66.5278 58.6879V56.2426C66.5278 56.0203 66.6772 55.8721 66.9012 55.8721H102.293C102.517 55.8721 102.666 56.0203 102.666 56.2426V58.6879C102.666 58.9102 102.517 59.0584 102.293 59.0584Z" fill="#98DBEB"/>
<path opacity="0.39" d="M94.3785 63.8749H66.9012C66.6772 63.8749 66.5278 63.7267 66.5278 63.5044V61.0591C66.5278 60.8368 66.6772 60.6886 66.9012 60.6886H94.3785C94.6025 60.6886 94.7518 60.8368 94.7518 61.0591V63.5044C94.7518 63.7267 94.6025 63.8749 94.3785 63.8749Z" fill="#98DBEB"/>
<path d="M62.5706 79.362H55.2532C55.0292 79.362 54.8799 79.2138 54.8799 78.9915V71.5814C54.8799 71.3591 55.0292 71.2109 55.2532 71.2109H62.5706C62.7946 71.2109 62.9439 71.3591 62.9439 71.5814V78.9915C62.9439 79.2138 62.7946 79.362 62.5706 79.362Z" fill="#F7C1C0"/>
<path d="M86.0905 74.5455H66.9012C66.6772 74.5455 66.5278 74.3973 66.5278 74.175V71.7296C66.5278 71.5073 66.6772 71.3591 66.9012 71.3591H86.0905C86.3145 71.3591 86.4638 71.5073 86.4638 71.7296V74.175C86.3892 74.3973 86.2398 74.5455 86.0905 74.5455Z" fill="#F7C1C0"/>
<path opacity="0.39" d="M104.235 79.362H66.9012C66.6772 79.362 66.5278 79.2138 66.5278 78.9915V76.5462C66.5278 76.3239 66.6772 76.1757 66.9012 76.1757H104.309C104.533 76.1757 104.683 76.3239 104.683 76.5462V78.9915C104.608 79.1397 104.459 79.362 104.235 79.362Z" fill="#98DBEB"/>
<path d="M89.9734 103H26.208C25.6107 103 25.088 102.481 25.088 101.889V15.1907C25.088 14.5238 25.6107 14.0792 26.208 14.0792H89.9734C90.5707 14.0792 91.0934 14.5979 91.0934 15.1907V101.814C91.0934 102.481 90.5707 103 89.9734 103Z" fill="#E8EDF5"/>
<path d="M82.2828 32.1598H34.8694C34.4214 32.1598 34.0481 31.7893 34.0481 31.3447V23.4159C34.0481 22.9713 34.4214 22.6008 34.8694 22.6008H82.3574C82.8054 22.6008 83.1788 22.9713 83.1788 23.4159V31.4188C83.1041 31.7893 82.7308 32.1598 82.2828 32.1598Z" fill="#9ED38F"/>
<path d="M41.6641 46.9799H34.3467C34.1227 46.9799 33.9734 46.8317 33.9734 46.6094V39.2735C33.9734 39.0512 34.1227 38.903 34.3467 38.903H41.6641C41.8881 38.903 42.0374 39.0512 42.0374 39.2735V46.6835C42.0374 46.8317 41.8881 46.9799 41.6641 46.9799Z" fill="#FFE376"/>
<path d="M81.3867 42.1634H45.9947C45.7707 42.1634 45.6213 42.0152 45.6213 41.7929V39.3476C45.6213 39.1253 45.7707 38.9771 45.9947 38.9771H81.3867C81.6107 38.9771 81.76 39.1253 81.76 39.3476V41.7929C81.76 42.0152 81.6107 42.1634 81.3867 42.1634Z" fill="#FFE376"/>
<path opacity="0.39" d="M73.472 46.9058H45.9947C45.7707 46.9058 45.6213 46.7576 45.6213 46.5353V44.09C45.6213 43.8677 45.7707 43.7195 45.9947 43.7195H73.472C73.696 43.7195 73.8453 43.8677 73.8453 44.09V46.5353C73.8453 46.7576 73.696 46.9058 73.472 46.9058Z" fill="#98DBEB"/>
<path d="M41.6641 62.467H34.3467C34.1227 62.467 33.9734 62.3188 33.9734 62.0965V54.6864C33.9734 54.4641 34.1227 54.3159 34.3467 54.3159H41.6641C41.8881 54.3159 42.0374 54.4641 42.0374 54.6864V62.0965C42.0374 62.3188 41.8881 62.467 41.6641 62.467Z" fill="#FFEECB"/>
<path d="M76.3093 57.6504H45.9947C45.7707 57.6504 45.6213 57.5022 45.6213 57.2799V54.8346C45.6213 54.6123 45.7707 54.4641 45.9947 54.4641H76.3093C76.5333 54.4641 76.6827 54.6123 76.6827 54.8346V57.2799C76.6827 57.4281 76.5333 57.6504 76.3093 57.6504Z" fill="#FFEECB"/>
<path opacity="0.39" d="M71.3813 62.3929H45.9947C45.7707 62.3929 45.6213 62.2447 45.6213 62.0224V59.577C45.6213 59.3547 45.7707 59.2065 45.9947 59.2065H71.3813C71.6053 59.2065 71.7547 59.3547 71.7547 59.577V62.0224C71.7547 62.2447 71.5307 62.3929 71.3813 62.3929Z" fill="#98DBEB"/>
<path d="M41.6641 77.9541H34.3467C34.1227 77.9541 33.9734 77.8059 33.9734 77.5836V70.1735C33.9734 69.9512 34.1227 69.803 34.3467 69.803H41.6641C41.8881 69.803 42.0374 69.9512 42.0374 70.1735V77.5836C42.0374 77.8059 41.8881 77.9541 41.6641 77.9541Z" fill="#98DBEB"/>
<path d="M81.3867 73.1375H45.9947C45.7707 73.1375 45.6213 72.9893 45.6213 72.767V70.3217C45.6213 70.0994 45.7707 69.9512 45.9947 69.9512H81.3867C81.6107 69.9512 81.76 70.0994 81.76 70.3217V72.767C81.76 72.9893 81.6107 73.1375 81.3867 73.1375Z" fill="#98DBEB"/>
<path opacity="0.39" d="M73.472 77.954H45.9947C45.7707 77.954 45.6213 77.8058 45.6213 77.5835V75.1382C45.6213 74.9159 45.7707 74.7677 45.9947 74.7677H73.472C73.696 74.7677 73.8453 74.9159 73.8453 75.1382V77.5835C73.8453 77.8058 73.696 77.954 73.472 77.954Z" fill="#98DBEB"/>
<path d="M41.6641 93.4411H34.3467C34.1227 93.4411 33.9734 93.2929 33.9734 93.0706V85.6605C33.9734 85.4382 34.1227 85.29 34.3467 85.29H41.6641C41.8881 85.29 42.0374 85.4382 42.0374 85.6605V93.0706C42.0374 93.2929 41.8881 93.4411 41.6641 93.4411Z" fill="#F7C1C0"/>
<path d="M65.184 88.6246H45.9947C45.7707 88.6246 45.6213 88.4764 45.6213 88.2541V85.8087C45.6213 85.5864 45.7707 85.4382 45.9947 85.4382H65.184C65.408 85.4382 65.5573 85.5864 65.5573 85.8087V88.2541C65.4827 88.4764 65.3333 88.6246 65.184 88.6246Z" fill="#F7C1C0"/>
<path opacity="0.39" d="M83.328 93.4411H45.9947C45.7707 93.4411 45.6213 93.2929 45.6213 93.0706V90.6253C45.6213 90.403 45.7707 90.2548 45.9947 90.2548H83.4027C83.6267 90.2548 83.776 90.403 83.776 90.6253V93.0706C83.7013 93.2188 83.552 93.4411 83.328 93.4411Z" fill="#98DBEB"/>
<path d="M8.66132 20.8966L10.6773 18.5254C11.2747 17.8584 11.2 16.821 10.4533 16.3023L4.62932 11.4117C3.95732 10.8189 2.91199 10.893 2.38932 11.634L0.37332 14.0052C-0.224013 14.6721 -0.149347 15.7095 0.59732 16.2282L6.49599 21.1189C7.09332 21.6376 8.13865 21.5635 8.66132 20.8966Z" fill="#F7C1C0"/>
<path d="M6.66865 13.0918L2.61255 17.8392L30.8019 41.5601L34.858 36.8127L6.66865 13.0918Z" fill="#A898DB"/>
<path d="M6.27197 20.6743L10.08 16.2282C10.4533 15.7836 10.3786 15.1167 9.93064 14.7462L7.91464 13.0419C7.46664 12.6714 6.79464 12.7455 6.4213 13.1901L2.6133 17.6362C2.23997 18.0808 2.31464 18.7477 2.76264 19.1182L4.77864 20.7484C5.22664 21.193 5.89864 21.1189 6.27197 20.6743Z" fill="#E8EDF5"/>
<path d="M34.8693 36.8282L30.8373 41.5707L38.7519 44.0901L34.8693 36.8282Z" fill="#E8EDF5"/>
<path d="M37.4827 41.6448L38.8267 44.1642L36.1387 43.275L37.4827 41.6448Z" fill="#A898DB"/>
</svg>
