<svg width="1366" height="622" viewBox="0 0 1366 622" fill="none" xmlns="http://www.w3.org/2000/svg">
<path d="M0 68.4066C0 68.4066 414.934 0 683 0C951.066 0 1366 31.0939 1366 31.0939V548.03C1366 548.03 1141.35 620.231 999 621.878C736.764 624.912 594.54 570.069 332.5 586.12C202.133 594.106 0 615.659 0 615.659V68.4066Z" fill="#E7E5F8"/>
<path d="M0 68.4066C0 68.4066 414.934 0 683 0C951.066 0 1366 31.0939 1366 31.0939V548.03C1366 548.03 1141.35 620.231 999 621.878C736.764 624.912 594.54 570.069 332.5 586.12C202.133 594.106 0 615.659 0 615.659V68.4066Z" fill="url(#paint0_linear)"/>
<path d="M0 68.4066C0 68.4066 414.934 0 683 0C951.066 0 1366 31.0939 1366 31.0939V548.03C1366 548.03 1141.35 620.231 999 621.878C736.764 624.912 594.54 570.069 332.5 586.12C202.133 594.106 0 615.659 0 615.659V68.4066Z" fill="#E7E5F8"/>
<defs>
<linearGradient id="paint0_linear" x1="465.485" y1="594.692" x2="615.384" y2="-107.278" gradientUnits="userSpaceOnUse">
<stop offset="1.24176e-07" stop-color="#E3E0FF"/>
<stop offset="0.6028" stop-color="#CCC2FC"/>
</linearGradient>
</defs>
</svg>
