<?xml version="1.0" encoding="utf-8"?>
<!-- Generator: Adobe Illustrator 23.0.3, SVG Export Plug-In . SVG Version: 6.00 Build 0)  -->
<svg version="1.1" id="Слой_1" xmlns="http://www.w3.org/2000/svg" xmlns:xlink="http://www.w3.org/1999/xlink" x="0px" y="0px"
	 viewBox="0 0 200 200" style="enable-background:new 0 0 200 200;" xml:space="preserve">
<style type="text/css">
	.st0{fill:#F3F3F3;}
	.st1{fill:#FFFFFF;}
	.st2{fill:#E3F5FA;}
</style>
<g>
	<g>
		<circle class="st0" cx="99.5" cy="100.99" r="98.81"/>
	</g>
	<g>
		<circle class="st1" cx="99.5" cy="100.99" r="64.45"/>
	</g>
	<g>
		<path class="st2" d="M99.98,199.98C44.85,199.98,0,155.13,0,100S44.85,0.02,99.98,0.02s99.98,44.85,99.98,99.98
			S155.11,199.98,99.98,199.98z M99.98,36.93c-34.78,0-63.07,28.29-63.07,63.07c0,34.78,28.29,63.07,63.07,63.07
			s63.07-28.29,63.07-63.07C163.05,65.22,134.76,36.93,99.98,36.93z"/>
	</g>
	<g>
		<path class="st0" d="M100.02,199.98c-55.13,0-99.98-44.85-99.98-99.98S44.89,0.02,100.02,0.02v36.91
			c-34.78,0-63.07,28.29-63.07,63.07s28.29,63.07,63.07,63.07s63.07-28.29,63.07-63.07c0-14.36-4.7-27.88-13.58-39.11l28.94-22.91
			C192.34,55.54,200,77.57,200,100C200,155.13,155.15,199.98,100.02,199.98z"/>
	</g>
</g>
</svg>
