<?xml version="1.0" encoding="utf-8"?>
<!-- Generator: Adobe Illustrator 23.0.3, SVG Export Plug-In . SVG Version: 6.00 Build 0)  -->
<svg version="1.1" id="Слой_1" xmlns="http://www.w3.org/2000/svg" xmlns:xlink="http://www.w3.org/1999/xlink" x="0px" y="0px"
	 viewBox="0 0 200 200" style="enable-background:new 0 0 200 200;" xml:space="preserve">
<style type="text/css">
	.st0{fill:#C7EEF6;}
	.st1{fill:#F3F3F3;}
	.st2{fill:#FFFFFF;}
</style>
<g>
	<g>
		<path class="st0" d="M99.99,199.97C44.86,199.97,0,155.11,0,99.98S44.86-0.02,99.99-0.02s99.99,44.86,99.99,99.99
			S155.13,199.97,99.99,199.97z M99.99,36.89c-34.78,0-63.08,28.3-63.08,63.08c0,34.78,28.3,63.08,63.08,63.08
			s63.08-28.3,63.08-63.08C163.07,65.19,134.78,36.89,99.99,36.89z"/>
	</g>
	<g>
		<path class="st1" d="M100.01,200.02c-55.14,0-99.99-44.86-99.99-99.99S44.87,0.03,100.01,0.03v36.91
			c-34.78,0-63.08,28.3-63.08,63.08c0,34.78,28.3,63.08,63.08,63.08s63.08-28.3,63.08-63.08c0-9.31-1.97-18.26-5.87-26.61
			l33.45-15.6c6.19,13.27,9.32,27.47,9.32,42.21C200,155.16,155.14,200.02,100.01,200.02z"/>
	</g>
	<g>
		<circle class="st2" cx="99.87" cy="100.1" r="64.46"/>
	</g>
</g>
</svg>
