<?xml version="1.0" encoding="utf-8"?>
<!-- Generator: Adobe Illustrator 23.0.3, SVG Export Plug-In . SVG Version: 6.00 Build 0)  -->
<svg version="1.1" id="Слой_1" xmlns="http://www.w3.org/2000/svg" xmlns:xlink="http://www.w3.org/1999/xlink" x="0px" y="0px"
	 viewBox="0 0 200 200" style="enable-background:new 0 0 200 200;" xml:space="preserve">
<style type="text/css">
	.st0{fill:#F3F3F3;}
	.st1{fill:#AAE5F2;}
	.st2{fill:#FFFFFF;}
	.percentage{
	text-align:center;
	}
</style>
	<g>
		<g>
			<circle class="st0" cx="100" cy="100" r="98.84"/>
		</g>
		<g>
			<path class="st1" d="M100,200C44.86,200,0,155.14,0,100S44.86,0,100,0s100,44.86,100,100S155.14,200,100,200z M100,36.92
				c-34.78,0-63.09,28.3-63.09,63.08c0,34.79,28.3,63.09,63.09,63.09s63.09-28.3,63.09-63.09C163.09,65.21,134.78,36.92,100,36.92z"
				/>
		</g>
		<g>
			<path class="st0" d="M39.96,80.59L4.84,69.21C18.24,27.85,56.48,0.06,99.98,0.06v36.91C72.53,36.98,48.41,54.5,39.96,80.59z"/>
		</g>
		<g>
			<circle class="st2" cx="100" cy="100" r="64.47"/>
		</g>
	</g>

</svg>
