<?xml version="1.0" encoding="utf-8"?>
<!-- Generator: Adobe Illustrator 23.0.3, SVG Export Plug-In . SVG Version: 6.00 Build 0)  -->
<svg version="1.1" id="Слой_1" xmlns="http://www.w3.org/2000/svg" xmlns:xlink="http://www.w3.org/1999/xlink" x="0px" y="0px"
	 viewBox="0 0 150 96.89" style="enable-background:new 0 0 150 96.89;" xml:space="preserve">
<style type="text/css">
	.st0{fill:url(#SVGID_1_);}
	.st1{fill:#C2DEEA;}
	.st2{fill:#FFEECC;}
	.st3{fill:#F7F7F7;}
	.st4{fill:#80B7B0;}
	.st5{fill:#FFCC8C;}
	.st6{fill:#F77B3E;}
	.st7{fill:#FCDCD7;}
</style>
<g>
	
		<linearGradient id="SVGID_1_" gradientUnits="userSpaceOnUse" x1="7.365760e-03" y1="-4.66" x2="150" y2="-4.66" gradientTransform="matrix(1 0 0 -1 0 43.7872)">
		<stop  offset="0.2622" style="stop-color:#D8F4FD;stop-opacity:0.7"/>
		<stop  offset="0.9966" style="stop-color:#D8F4FD;stop-opacity:0.5"/>
	</linearGradient>
	<path class="st0" d="M122.19,19.07c-1.91,6.2-4.72,12.91-9.35,17.45c-4.34,4.27-10.88,5.23-16.95,5.6
		c-17.41,1.07-35.02-0.87-52.24,1.89c-4.03,0.65-8.19,1.62-11.37,4.18s-5.1,7.11-3.48,10.86c0.8,1.86,2.38,3.37,2.83,5.35
		c0.99,4.35-3.74,7.72-7.88,9.39c-5.36,2.16-11.02,3.8-15.77,7.09c-4.75,3.29-8.55,8.74-7.9,14.48c1.14,0.61,2.31,1.1,3.52,1.52H150
		V1C143.59-1.85,127.86,0.64,122.19,19.07z"/>
	<g>
		<path class="st1" d="M111.72,81.15H67.2c-4.09,0-7.4-3.31-7.4-7.4V44.06c0-4.09,3.31-7.4,7.4-7.4h44.52c4.09,0,7.4,3.31,7.4,7.4
			v29.69C119.12,77.83,115.8,81.15,111.72,81.15z"/>
		<path class="st2" d="M115.5,75.99H63.42V44.06c0-1.8,1.46-3.26,3.26-3.26h45.57c1.8,0,3.26,1.46,3.26,3.26v31.93H115.5z"/>
		<path class="st3" d="M115.96,76.62H59.79l0,0c0-1.22,0.99-2.2,2.2-2.2h51.76C114.97,74.41,115.96,75.4,115.96,76.62L115.96,76.62z
			"/>
		<path class="st1" d="M51.18,76.01h67.93l0,0c0,3.22-2.61,5.84-5.84,5.84H57.01C53.79,81.84,51.18,79.23,51.18,76.01L51.18,76.01z"
			/>
		<path class="st4" d="M100.13,74.11H74.49v-9.66c0-7.08,5.74-12.82,12.82-12.82l0,0c7.08,0,12.82,5.74,12.82,12.82V74.11z"/>
		<circle class="st5" cx="119.46" cy="38.05" r="17.57"/>
		<path class="st5" d="M102.56,40.99l-2.77,11.18c-0.29,1.18,0.83,2.21,1.98,1.83l8.87-2.92L102.56,40.99z"/>
		<g>
			<path class="st6" d="M120,45.65L120,45.65c0.78-0.63,0.9-1.77,0.27-2.55l-6.1-7.54c-0.63-0.78-1.77-0.9-2.55-0.27l0,0
				c-0.78,0.63-0.9,1.77-0.27,2.55l6.1,7.54C118.08,46.15,119.22,46.28,120,45.65z"/>
			<path class="st6" d="M117.94,45.8L117.94,45.8c0.86,0.51,1.97,0.22,2.48-0.64l7.29-12.37c0.51-0.86,0.22-1.97-0.64-2.48l0,0
				c-0.86-0.51-1.97-0.22-2.48,0.64l-7.29,12.37C116.79,44.18,117.08,45.29,117.94,45.8z"/>
		</g>
		<circle class="st7" cx="87.31" cy="45.15" r="8.07"/>
	</g>
</g>
</svg>
