<?xml version="1.0" encoding="utf-8"?>
<!-- Generator: Adobe Illustrator 23.0.3, SVG Export Plug-In . SVG Version: 6.00 Build 0)  -->
<svg version="1.1" id="Слой_1" xmlns="http://www.w3.org/2000/svg" xmlns:xlink="http://www.w3.org/1999/xlink" x="0px" y="0px"
	 viewBox="0 0 150 55.79" style="enable-background:new 0 0 150 55.79;" xml:space="preserve">
<style type="text/css">
	.st0{fill:url(#SVGID_1_);}
	.st1{fill:#FFCC8C;}
	.st2{fill:#B2CED8;}
	.st3{fill:#F2FBFF;}
	.st4{fill:#C2DEEA;}
	.st5{opacity:0.69;fill:#D7F8FF;enable-background:new    ;}
	.st6{fill:#EEBA6E;}
	.st7{fill:#EFF8F7;}
	.st8{fill:#F77B3E;}
</style>
<g>
	
		<linearGradient id="SVGID_1_" gradientUnits="userSpaceOnUse" x1="0" y1="-68.7961" x2="150" y2="-68.7961" gradientTransform="matrix(1 0 0 -1 0 -38.4255)">
		<stop  offset="0.2622" style="stop-color:#D8F4FD;stop-opacity:0.7"/>
		<stop  offset="0.9966" style="stop-color:#D8F4FD;stop-opacity:0.5"/>
	</linearGradient>
	<path class="st0" d="M121.77,55.79c1.43-0.1,2.84-0.11,4.21,0H150v-4.97c-1.05-2.07-2.42-3.96-4.1-5.56
		c-2.01-1.91-4.48-3.51-5.68-6.01c-1.53-3.2-0.6-6.95-0.17-10.47c0.43-3.52-0.04-7.77-3.12-9.51c-1.37-0.77-3-0.89-4.57-0.91
		c-7.97-0.13-17.54,0.63-24.76,4.13c-7.17,3.48-13.2,8.82-19.89,13.08c-11.37,7.24-26.96,9.3-40.06,6.8
		c-3.65-0.7-7.78-2.25-8.85-5.81c-1.48-4.93,3.86-9.04,5.78-13.81c2.04-5.06-0.4-11.48-5.28-13.91c-1.92-0.95-4.07-1.33-6.21-1.5
		c-3.02-0.25-6.03-0.15-9.05,0c-3.68,0.18-7.37,0.44-11.05,0.21C9.17,7.31,2.95,3.63,0,5.47v50.32H121.77z"/>
	<g>
		<g>
			<path class="st1" d="M99.7,42.59l-2.54-1.08c-0.25-0.11-0.53-0.1-0.78,0.01l-2.23,1.02c-0.5,0.23-1.07-0.14-1.07-0.69V1.91
				c0-0.81,0.66-1.47,1.47-1.47h4.74c0.81,0,1.47,0.66,1.47,1.47v39.98C100.75,42.43,100.2,42.8,99.7,42.59z"/>
			<path class="st2" d="M125.41,39.37H97.26c-1.3,0-2.36-1.06-2.36-2.36V4.26c0-1.3,1.06-2.36,2.36-2.36h28.15
				c1.3,0,2.36,1.06,2.36,2.36v32.75C127.77,38.32,126.71,39.37,125.41,39.37z"/>
			<path class="st3" d="M123.43,39.37H95.28c-1.3,0-2.36-1.06-2.36-2.36V4.26c0-1.3,1.06-2.36,2.36-2.36h28.15
				c1.3,0,2.36,1.06,2.36,2.36v32.75C125.79,38.32,124.73,39.37,123.43,39.37z"/>
			<path class="st4" d="M119.59,39.37H91.45c-1.3,0-2.36-1.06-2.36-2.36V4.26c0-1.3,1.06-2.36,2.36-2.36h28.15
				c1.3,0,2.36,1.06,2.36,2.36v32.75C121.96,38.32,120.9,39.37,119.59,39.37z"/>
			<path class="st5" d="M112.98,15.31H98.06c-1.17,0-2.11-0.95-2.11-2.11l0,0c0-1.17,0.95-2.11,2.11-2.11h14.92
				c1.17,0,2.11,0.95,2.11,2.11l0,0C115.1,14.36,114.15,15.31,112.98,15.31z"/>
			<path class="st5" d="M112.98,21.84H98.06c-1.17,0-2.11-0.95-2.11-2.11l0,0c0-1.17,0.95-2.11,2.11-2.11h14.92
				c1.17,0,2.11,0.95,2.11,2.11l0,0C115.1,20.89,114.15,21.84,112.98,21.84z"/>
		</g>
		<g>
			<rect x="76.56" y="35.13" class="st6" width="26.05" height="4.27"/>
			<path class="st6" d="M82.94,35.12c0.48-3.24,3.28-5.74,6.65-5.74s6.17,2.5,6.65,5.74h3.82c-0.5-5.34-5.01-9.53-10.47-9.53
				s-9.97,4.19-10.47,9.53H82.94z"/>
		</g>
		<path class="st7" d="M119.43,10.55h-5.37c-1.05,0-1.9-0.85-1.9-1.9l0,0c0-1.05,0.85-1.9,1.9-1.9h5.37c1.05,0,1.9,0.85,1.9,1.9l0,0
			C121.33,9.7,120.48,10.55,119.43,10.55z"/>
		<path class="st7" d="M126.74,39.41h-19.98c-1.15,0-1.87-1.23-1.32-2.23l8.24-14.95h3.06h3.06l8.24,14.95
			C128.61,38.18,127.88,39.41,126.74,39.41z"/>
		<path class="st7" d="M116.75,25.59L116.75,25.59c-1.69,0-3.06-1.37-3.06-3.06V9.82c0-1.69,1.37-3.06,3.06-3.06l0,0
			c1.69,0,3.06,1.37,3.06,3.06v12.71C119.81,24.22,118.44,25.59,116.75,25.59z"/>
		<path class="st8" d="M124.46,38.2h-15.42c-0.88,0-1.44-0.95-1.02-1.72l6.37-11.54h2.36h2.36l6.37,11.54
			C125.91,37.26,125.35,38.2,124.46,38.2z"/>
	</g>
</g>
</svg>
