<?xml version="1.0" encoding="utf-8"?>
<!-- Generator: Adobe Illustrator 23.0.3, SVG Export Plug-In . SVG Version: 6.00 Build 0)  -->
<svg version="1.1" id="Слой_1" xmlns="http://www.w3.org/2000/svg" xmlns:xlink="http://www.w3.org/1999/xlink" x="0px" y="0px"
	 viewBox="0 0 150 59.62" style="enable-background:new 0 0 150 59.62;" xml:space="preserve">
<style type="text/css">
	.st0{fill:url(#SVGID_1_);}
	.st1{fill:#C2DEEA;}
	.st2{fill:#FFEECC;}
	.st3{fill:#F7F7F7;}
	.st4{fill:#F77B3E;}
	.st5{fill:#F99440;}
	.st6{fill:#80B7B0;}
	.st7{fill:#FFCC8C;}
	.st8{fill:#FFD4A5;}
	.st9{fill:#F9B743;}
	.st10{fill:#F9A642;}
</style>
<g>
	
		<linearGradient id="SVGID_1_" gradientUnits="userSpaceOnUse" x1="3.564463e-04" y1="-66.5604" x2="150" y2="-66.5604" gradientTransform="matrix(1 0 0 -1 0 -30.766)">
		<stop  offset="0.2622" style="stop-color:#D8F4FD;stop-opacity:0.7"/>
		<stop  offset="0.9966" style="stop-color:#D8F4FD;stop-opacity:0.5"/>
	</linearGradient>
	<path class="st0" d="M140.03,34.65c-2.26-4.88-4.78-9.78-8.71-13.45c-6.27-5.85-15.32-7.79-23.89-7.6
		c-3.31,0.08-6.64,0.44-9.75,1.57c-4.36,1.58-8.07,4.58-12.29,6.5s-9.6,2.58-13.21-0.34c-1.75-1.42-2.84-3.5-4.44-5.1
		c-2.6-2.62-6.36-3.77-10.04-4.13c-10.79-1.07-21.97,4.29-27.88,13.38c-1.8,2.77-3.32,6.02-6.27,7.52
		c-2.83,1.44-6.24,0.88-9.38,1.38c-5.79,0.93-10.5,5.65-12.58,11.13c-1.7,4.47-1.88,9.35-1.27,14.12H150v-1.48
		c-0.78-2.08-1.94-4.04-2.93-6.33C144.61,46.13,142.63,40.28,140.03,34.65z"/>
	<g>
		<path class="st1" d="M114.59,42.87H79.41c-4.09,0-7.4-3.31-7.4-7.4V12.79c0-4.09,3.31-7.4,7.4-7.4h35.18c4.09,0,7.4,3.32,7.4,7.4
			v22.68C121.99,39.56,118.68,42.87,114.59,42.87z"/>
		<path class="st2" d="M118.94,38.52H75.06V12.13c0-1.8,1.46-3.26,3.26-3.26h37.37c1.8,0,3.26,1.46,3.26,3.26v26.39H118.94z"/>
		<path class="st3" d="M119.33,39.05H72l0,0c0-1.03,0.83-1.86,1.86-1.86h43.62C118.5,37.19,119.33,38.03,119.33,39.05L119.33,39.05z
			"/>
		<path class="st1" d="M64.74,38.54h57.24l0,0c0,2.72-2.2,4.92-4.92,4.92h-47.4C66.94,43.45,64.74,41.25,64.74,38.54L64.74,38.54z"
			/>
		<g>
			<g>
				<g>
					<path class="st4" d="M92.75,30.85c-4.7,3.38-11.46,5.01-13.24,2.54c-0.48-0.67,3.45-2.67,3.96-3.6
						c-1.08,0.32-3.92-0.04-3.66-0.57c1.19-2.47,3.71-5.3,6.52-7.31c4.7-3.38,9.95-4.11,11.72-1.64
						C99.82,22.74,97.45,27.48,92.75,30.85z"/>
					<path class="st5" d="M93.91,28.29c-3.67,2.63-8.45,4.99-9.84,3.06c-0.38-0.53,2.35-2.65,2.6-3.89
						c-0.84,0.25-3.06-0.03-2.86-0.45c0.93-1.93,2.9-4.13,5.09-5.71c3.67-2.63,7.76-3.21,9.14-1.28
						C99.43,21.96,97.58,25.66,93.91,28.29z"/>
				</g>
				<g>
					<g>
						<path class="st1" d="M101.46,12.76c2.05-2.34,4.35-4.37,7.01-5.93c-0.34-1.23-0.54-1.36-1.71-1.21
							c-3.73,0.47-7.46,0.93-11.19,1.44c-0.36,0.05-0.87,0.34-0.95,0.62c-0.07,0.27,0.25,0.79,0.54,0.99
							c1.87,1.28,3.79,2.5,5.69,3.74C101.03,12.53,101.23,12.63,101.46,12.76z"/>
					</g>
				</g>
				<g>
					<g>
						<path class="st1" d="M106.05,19.6c2.96-0.97,5.72-2.3,8.2-4.14c0.99,0.8,1.04,1.03,0.44,2.04c-1.89,3.25-3.77,6.51-5.69,9.74
							c-0.18,0.31-0.65,0.67-0.94,0.64c-0.27-0.04-0.63-0.53-0.7-0.88c-0.45-2.22-0.83-4.46-1.23-6.7
							C106.09,20.09,106.08,19.87,106.05,19.6z"/>
					</g>
				</g>
				<path class="st6" d="M123.3,0.61c-0.42,0.05-0.84,0.1-1.25,0.16c-4.36,0.65-8.67,1.93-12.79,4.42
					c-2.72,1.65-8.95,7.13-13.25,11.12c-0.67,0.62-0.76,1.64-0.23,2.37l3.35,4.58c0.51,0.7,1.46,0.94,2.24,0.55
					c3-1.48,7.09-3.51,8.05-3.96c7.82-3.67,12.77-9.23,16.21-15.91C124.56,2.44,124.35,2.13,123.3,0.61z"/>
				<g>
					<g>
						<path class="st1" d="M123.93,7c1.26-2.02,2.36-4.17,3.32-6.42c0.09-0.21-0.08-0.44-0.31-0.41c-1.69,0.16-3.27,0.27-4.87,0.51
							c-0.85,0.13-1.7,0.28-2.55,0.46L123.93,7z"/>
					</g>
				</g>
				<g>
					<circle class="st7" cx="116.16" cy="7.79" r="2.08"/>
					<circle class="st7" cx="106.11" cy="14.98" r="2.08"/>
					<circle class="st8" cx="111.1" cy="11.33" r="2.08"/>
				</g>
			</g>
			<path class="st9" d="M102.36,27.4l0.44,1.06c0.03,0.07,0.09,0.12,0.16,0.13l1.12,0.24c0.18,0.04,0.24,0.27,0.1,0.39l-0.87,0.74
				c-0.06,0.05-0.09,0.12-0.08,0.19l0.12,1.14c0.02,0.19-0.18,0.31-0.34,0.21l-0.97-0.6c-0.06-0.04-0.14-0.04-0.21-0.01l-1.05,0.46
				c-0.17,0.08-0.35-0.08-0.31-0.26l0.27-1.11c0.02-0.07,0-0.15-0.05-0.2l-0.76-0.85c-0.12-0.14-0.04-0.36,0.15-0.38l1.14-0.09
				c0.07-0.01,0.14-0.05,0.18-0.11l0.58-0.99C102.05,27.21,102.29,27.23,102.36,27.4z"/>
			<path class="st10" d="M92.5,9.95l0.44,1.06c0.03,0.07,0.09,0.12,0.16,0.13l1.12,0.24c0.18,0.04,0.24,0.27,0.1,0.39l-0.87,0.74
				c-0.06,0.05-0.09,0.12-0.08,0.19l0.12,1.14c0.02,0.19-0.18,0.31-0.34,0.21l-0.97-0.6c-0.06-0.04-0.14-0.04-0.21-0.01l-1.05,0.46
				c-0.17,0.08-0.35-0.08-0.31-0.26l0.27-1.11c0.02-0.07,0-0.15-0.05-0.2l-0.76-0.85c-0.12-0.14-0.04-0.36,0.15-0.38l1.14-0.09
				c0.07-0.01,0.14-0.05,0.18-0.11l0.58-0.99C92.19,9.76,92.43,9.78,92.5,9.95z"/>
			<path class="st10" d="M126.58,9.14l0.44,1.06c0.03,0.07,0.09,0.12,0.16,0.13l1.12,0.24c0.18,0.04,0.24,0.27,0.1,0.39l-0.87,0.74
				c-0.06,0.05-0.09,0.12-0.08,0.19l0.12,1.14c0.02,0.19-0.18,0.31-0.34,0.21l-0.97-0.6c-0.06-0.04-0.14-0.04-0.21-0.01L125,13.09
				c-0.17,0.08-0.35-0.08-0.31-0.26l0.27-1.11c0.02-0.07,0-0.15-0.05-0.2l-0.76-0.85c-0.12-0.14-0.04-0.36,0.15-0.38l1.14-0.09
				c0.07-0.01,0.14-0.05,0.18-0.11l0.58-0.99C126.27,8.95,126.51,8.96,126.58,9.14z"/>
		</g>
	</g>
</g>
</svg>
