<?xml version="1.0" encoding="utf-8"?>
<!-- Generator: Adobe Illustrator 23.0.3, SVG Export Plug-In . SVG Version: 6.00 Build 0)  -->
<svg version="1.1" id="Слой_1" xmlns="http://www.w3.org/2000/svg" xmlns:xlink="http://www.w3.org/1999/xlink" x="0px" y="0px"
	 viewBox="0 0 758.54 731.29" style="enable-background:new 0 0 758.54 731.29;" xml:space="preserve">
<style type="text/css">
	.st0{opacity:0.32;fill:url(#SVGID_1_);}
	.st1{opacity:0.32;fill:url(#SVGID_2_);}
</style>
<linearGradient id="SVGID_1_" gradientUnits="userSpaceOnUse" x1="9.094947e-13" y1="365.6445" x2="758.5406" y2="365.6445">
	<stop  offset="0" style="stop-color:#D4ECF1"/>
	<stop  offset="0.5491" style="stop-color:#C0E3EB"/>
</linearGradient>
<path class="st0" d="M282.82,13.86c-23.12,8.18-46.13,20.15-70.59,18.42c-14.35-1.01-27.95-6.74-42.15-9.04
	c-36.7-5.95-73.17,11.34-104.03,32.09c-21.64,14.55-42.54,31.74-54.54,54.9c-21.39,41.31-9.9,92.08,9.5,134.37
	s46.37,81.8,56.5,127.2c10.69,47.94,1.59,97.72-2.53,146.66c-4.12,48.95-2.05,101.94,26.94,141.59
	c28.32,38.75,76.94,57.06,124.13,65.8c38.34,7.1,79.04,9.02,115.33-5.25c71.19-28,110.15-111.28,182.63-135.76
	c39.58-13.37,83.93-7.02,123.12-21.5c38.34-14.17,67.52-47.25,84.47-84.45c16.95-37.19,22.94-78.4,25.99-119.16
	c6.49-86.7-19.17-202-110.71-225.42C548.07,109.04,525.05,31.17,444.7,10.32C391.65-3.44,334.91-4.58,282.82,13.86z"/>
</svg>
