<?xml version="1.0" encoding="utf-8"?>
<!-- Generator: Adobe Illustrator 23.0.3, SVG Export Plug-In . SVG Version: 6.00 Build 0)  -->
<svg version="1.1" id="Слой_1" xmlns="http://www.w3.org/2000/svg" xmlns:xlink="http://www.w3.org/1999/xlink" x="0px" y="0px"
	 viewBox="0 0 726.04 823.13" style="enable-background:new 0 0 726.04 823.13;" xml:space="preserve">
<style type="text/css">
	.st0{opacity:0.32;fill:url(#SVGID_1_);}
	.st1{opacity:0.32;fill:url(#SVGID_2_);}
</style>
<linearGradient id="SVGID_1_" gradientUnits="userSpaceOnUse" x1="0" y1="411.565" x2="726.0408" y2="411.565">
	<stop  offset="0" style="stop-color:#D4ECF1"/>
	<stop  offset="0.5491" style="stop-color:#C0E3EB"/>
</linearGradient>
<path class="st0" d="M65.22,777.92c55.11,37.3,125.2,42.77,191.72,44.69c31.38,0.91,63.03,1.27,93.89-4.53
	c43.9-8.24,86.37-28.88,130.92-25.57C723.49,846.93,751.7,574.89,710.18,489.5c-20.04-41.21-55.76-73.81-72.35-116.53
	c-28.47-73.33,5.27-159.7-22.92-233.13c-19.1-49.75-64.56-85.7-114.01-105.57C451.46,14.38,397.7,8.44,344.72,2.69
	c-23.29-2.53-47.25-5.01-69.83,1.22c-15.74,4.34-30.03,12.72-43.84,21.44c-26.41,16.69-51.92,35.07-74.28,56.89
	C104.95,132.8,71.93,200.09,51.9,269.66s-27.9,141.98-35.7,213.95C5.65,581.1-32.5,712.07,65.22,777.92z"/>
</svg>
