<?xml version="1.0" encoding="utf-8"?>
<!-- Generator: Adobe Illustrator 23.0.3, SVG Export Plug-In . SVG Version: 6.00 Build 0)  -->
<svg version="1.1" id="Слой_1" xmlns="http://www.w3.org/2000/svg" xmlns:xlink="http://www.w3.org/1999/xlink" x="0px" y="0px"
	 viewBox="0 0 150 137.74" style="enable-background:new 0 0 150 137.74;" xml:space="preserve">
<style type="text/css">
	.st0{fill:#FFB913;}
	.st1{fill:#FFDE5F;}
	.st2{fill:#F7D04C;}
	.st3{fill:#FFB00D;}
	.st4{fill:#FFAB00;}
	.st5{fill:#FF9F00;}
	.st6{fill:#FFFFFF;}
</style>
<g>
	<path class="st0" d="M11.51,31.7l3.74,0.15c0.19,0.01,0.37-0.08,0.48-0.23l2.25-3c0.28-0.38,0.88-0.27,1.01,0.19l1.01,3.61
		c0.05,0.18,0.19,0.33,0.37,0.39l3.55,1.21c0.45,0.15,0.53,0.76,0.13,1.02l-3.12,2.08c-0.16,0.1-0.25,0.28-0.26,0.47l-0.06,3.75
		c-0.01,0.47-0.56,0.74-0.93,0.44l-2.94-2.32c-0.15-0.12-0.34-0.15-0.52-0.1l-3.58,1.1c-0.45,0.14-0.87-0.3-0.71-0.75l1.3-3.51
		c0.07-0.18,0.04-0.37-0.07-0.53l-2.16-3.07C10.74,32.22,11.03,31.68,11.51,31.7z"/>
	<path class="st1" d="M138.56,31.09L136.19,34c-0.12,0.15-0.16,0.34-0.11,0.52l1.06,3.6c0.13,0.46-0.31,0.87-0.76,0.7l-3.5-1.35
		c-0.18-0.07-0.37-0.04-0.53,0.06l-3.09,2.12c-0.39,0.27-0.92-0.03-0.9-0.5l0.2-3.74c0.01-0.19-0.07-0.37-0.22-0.48l-2.97-2.29
		c-0.38-0.29-0.26-0.89,0.2-1.01l3.62-0.96c0.18-0.05,0.33-0.18,0.39-0.36l1.26-3.53c0.16-0.45,0.76-0.52,1.02-0.12l2.04,3.15
		c0.1,0.16,0.28,0.26,0.46,0.26l3.75,0.11C138.6,30.17,138.86,30.72,138.56,31.09z"/>
	<path class="st2" d="M68.94,20.73l-3.31,4.07c-0.17,0.2-0.22,0.48-0.15,0.73l1.48,5.03c0.19,0.64-0.44,1.21-1.06,0.97l-4.89-1.89
		c-0.25-0.1-0.52-0.06-0.74,0.09l-4.33,2.96c-0.55,0.38-1.29-0.04-1.25-0.71l0.28-5.24c0.01-0.26-0.1-0.52-0.31-0.68l-4.15-3.2
		c-0.53-0.41-0.36-1.24,0.28-1.41l5.07-1.35c0.26-0.07,0.46-0.26,0.55-0.51l1.76-4.94c0.22-0.63,1.07-0.72,1.43-0.17l2.85,4.4
		c0.14,0.22,0.39,0.36,0.65,0.37l5.24,0.15C69,19.44,69.36,20.22,68.94,20.73z"/>
	<polygon class="st1" points="112.78,137.74 37.9,137.74 31.26,61.8 118.36,61.8 	"/>
	<polygon class="st0" points="82.82,137.74 66.81,137.74 62.75,79.01 86.87,79.01 	"/>
	<rect x="26.2" y="60.68" class="st2" width="97.22" height="19.29"/>
	<rect x="58.41" y="60.71" class="st3" width="32.79" height="19.48"/>
	<circle class="st1" cx="30.57" cy="48.7" r="2.53"/>
	<circle class="st1" cx="72.96" cy="2.53" r="2.53"/>
	<circle class="st4" cx="131.26" cy="48.6" r="2.53"/>
	<circle class="st2" cx="100.18" cy="19.11" r="3.66"/>
	<circle class="st3" cx="3.63" cy="37.73" r="3.66"/>
	<path class="st0" d="M32.01,37.11l-0.64,0.1c-0.77,0.11-1.49-0.42-1.6-1.19l-2.12-14.3c-0.11-0.77,0.42-1.49,1.19-1.6l0.64-0.1
		c0.77-0.11,1.49,0.42,1.6,1.19l2.12,14.3C33.31,36.28,32.78,37,32.01,37.11z"/>
	<path class="st1" d="M19.64,53.27l-0.32,0.56c-0.39,0.68-1.25,0.91-1.93,0.52l-4.4-2.54c-0.68-0.39-0.91-1.25-0.52-1.93l0.32-0.56
		c0.39-0.68,1.25-0.91,1.93-0.52l4.4,2.54C19.8,51.73,20.03,52.59,19.64,53.27z"/>
	<path class="st2" d="M149.85,34.38l0.14,0.63c0.17,0.76-0.31,1.52-1.07,1.69l-4.96,1.11c-0.76,0.17-1.52-0.31-1.69-1.07l-0.14-0.63
		c-0.17-0.76,0.31-1.52,1.07-1.69l4.96-1.11C148.93,33.14,149.68,33.62,149.85,34.38z"/>
	<path class="st1" d="M116.52,33.99l-0.59-0.27c-0.71-0.32-1.02-1.16-0.69-1.87l6.03-13.14c0.32-0.71,1.16-1.02,1.87-0.69l0.59,0.27
		c0.71,0.32,1.02,1.16,0.69,1.87l-6.03,13.14C118.06,34.01,117.23,34.32,116.52,33.99z"/>
	<path class="st4" d="M78.6,39.41l-0.59-0.27c-0.71-0.32-1.02-1.16-0.69-1.87l6.03-13.14c0.32-0.71,1.16-1.02,1.87-0.69l0.59,0.27
		c0.71,0.32,1.02,1.16,0.69,1.87l-6.03,13.14C80.14,39.43,79.3,39.74,78.6,39.41z"/>
	<path class="st5" d="M75.1,55.85c0,0,34.74-26,37.69-6.56C115.74,68.74,75.1,55.85,75.1,55.85z"/>
	<path class="st6" d="M85.63,54.36c0,0,14.92-10.4,16.68-1.91C104.06,60.95,85.63,54.36,85.63,54.36z"/>
	<path class="st5" d="M75.91,56.33c0,0-34.74-26-37.69-6.56C35.27,69.23,75.91,56.33,75.91,56.33z"/>
	<path class="st6" d="M65.61,54.68c0,0-15.14-10.23-16.9-1.74C46.95,61.43,65.61,54.68,65.61,54.68z"/>
	<path class="st5" d="M76.61,60.76h-3.5c-2.18,0-3.94-1.77-3.94-3.94v-2.17c0-2.18,1.77-3.94,3.94-3.94h3.5
		c2.18,0,3.94,1.77,3.94,3.94v2.17C80.55,58.99,78.79,60.76,76.61,60.76z"/>
	<path class="st5" d="M75.1,60.2c0.87,8.39-12.15,18.95-12.15,18.95l-0.58-4.92l-5.93-0.72c0,0,14.47-8.39,14.76-13.89
		C71.48,54.12,74.23,51.81,75.1,60.2z"/>
	<path class="st5" d="M74.85,60.3c-0.87,8.39,12.15,18.95,12.15,18.95l0.58-4.92l5.93-0.72c0,0-14.47-8.39-14.76-13.89
		C78.47,54.22,75.72,51.91,74.85,60.3z"/>
</g>
</svg>
