<?xml version="1.0" encoding="utf-8"?>
<!-- Generator: Adobe Illustrator 23.0.3, SVG Export Plug-In . SVG Version: 6.00 Build 0)  -->
<svg version="1.1" id="Слой_1" xmlns="http://www.w3.org/2000/svg" xmlns:xlink="http://www.w3.org/1999/xlink" x="0px" y="0px"
	 viewBox="0 0 500 245" style="enable-background:new 0 0 500 245;" xml:space="preserve">
<style type="text/css">
	.st0{opacity:0.32;fill:#BDE1EA;}
	.st1{fill:#89B8B2;}
	.st2{fill:#7DB2AB;}
	.st3{fill:#FDDDD6;}
	.st4{fill:url(#SVGID_1_);}
	.st5{fill:none;stroke:#FFFFFF;stroke-miterlimit:10;}
	.st6{fill:#BDE1EA;}
	.st7{fill:#AFCAD5;}
	.st8{fill:#9ABBC6;}
	.st9{opacity:0.65;fill:#FFFFFF;}
	.st10{opacity:0.47;fill:#FFFFFF;}
	.st11{opacity:0.75;fill:#FFFFFF;}
	.st12{opacity:0.24;fill:#FFFFFF;}
	.st13{opacity:0.76;fill:#FFFFFF;}
	.st14{opacity:0.57;fill:#FFFFFF;}
	.st15{fill:#6C9892;}
	.st16{fill:none;stroke:#FFFFFF;stroke-width:0.1;stroke-miterlimit:10;}
	.st17{opacity:0.31;fill:#FFFFFF;}
	.st18{opacity:0.22;fill:#FFFFFF;}
	.st19{fill:#A2C3CE;}
	.st20{fill:#FFE5C3;}
	.st21{fill:#FCD09E;}
	.st22{fill:#FDF5D5;}
	.st23{fill:#A5C6CA;}
	.st24{opacity:0.54;fill:#9ABBC6;}
	.st25{fill:#EEC293;}
	.st26{fill:#B2DAE0;}
	.st27{fill:none;stroke:#9ABBC6;stroke-width:6;stroke-miterlimit:10;}
	.st28{opacity:0.65;fill:none;stroke:#9ABBC6;stroke-width:0.5;stroke-miterlimit:10;}
	.st29{fill:url(#SVGID_2_);}
	.st30{fill:#F9D19B;}
	.st31{fill:url(#SVGID_3_);}
	.st32{fill:#E7B772;}
	.st33{fill:#F47243;}
	.st34{fill:#9FC4BF;}
	.st35{fill:#F2A342;}
	.st36{fill:#74A69F;}
	.st37{fill:#ED8A49;}
</style>
<g>
	<path class="st0" d="M449.7,113.39c-0.28-13.1-4.79-25.69-9.25-38.02c-4.14-11.44-8.28-22.89-12.42-34.33
		C417.07,10.73,398.5,23.01,372.57,25c-28.67,2.2-57.47,2.74-86.2,1.63c-16.47-0.64-34-1.59-47.97,7.82
		c-2.32,1.56-3.92,4.06-4.01,6.85c-0.15,4.72,3.63,6.43,7.03,7.81c7.35,2.99,14.71,5.97,22.06,8.96c0.79,2.6-2.25,4.64-4.8,5.57
		c-27.78,10.05-60.04,6.02-87.25,15.67c-6.22,2.21-7.61,10.44-2.43,14.52c1.74,1.37,3.4,2.84,4.97,4.41
		c-39.43,2-78.65,8.19-116.78,18.42c-10.47,2.81-22.73,7.98-24.17,18.72c20.96,0.07,41.93,0.14,62.89,0.21
		c7.05,0.02,23.92-3.14,29.94,0.34c4.88,2.82,6.28,11.78,12.61,15.42c16.81,9.65,38.37,7.16,55.59,16.05
		c-6.21,1.79-9.81,9.68-7.08,15.54c6.3,13.56,23.79,6.04,34.8,8.74c-6.89,4.59-7.03,14.88-0.68,20.28
		c6.28,5.34,15.28,5.62,23.53,5.63c18.18,0.03,36.36,0.05,54.54,0.08c11.39,0.02,24.11-0.5,32.04-8.68
		c4.41-4.55,6.55-10.77,8.46-16.81c6.01-18.93,11.04-38.18,15.12-57.62c24.15-0.52,48.3-1.23,72.45-2.19
		c7.31-0.29,15.7-1.18,19.83-7.21C449.39,121.81,449.79,117.49,449.7,113.39z"/>
	<path class="st1" d="M287.79,169.34c-0.01,1.71,0.12,3.59-0.92,4.95c-1.42,1.86-4.17,1.75-6.47,2.18
		c-6.59,1.22-10.7,7.6-14.45,13.15c-1.09,1.62-2.36,3.32-4.24,3.89c-1.92,0.58-3.95-0.19-5.94-0.36
		c-6.94-0.6-12.64,6.41-13.27,13.35c-0.63,6.94,2.36,13.64,5.28,19.97c12.2-3.21,11.64-5.12,17.38-6.72
		c15.45-4.3,29.11-9.99,44.56-14.3c3.83-1.07,7.71-2.16,11.08-4.26c13.19-8.24,17.81-36.43,7.23-48.61
		C314.64,137.16,287.89,150.28,287.79,169.34z"/>
	<g>
		<path class="st2" d="M340.03,190.68c2.12-1.82,2.35-5.05,3.18-7.72c0.9-2.92,1.81-5.84,2.71-8.76c0.35-1.12,0.69-2.36,0.23-3.44
			c-0.52-1.21-1.87-1.81-3.12-2.23c-2.33-0.76-4.75-1.26-6.99-2.25c-2.24-0.98-4.36-2.54-5.35-4.79c-1.2-2.73-0.52-5.87-0.64-8.85
			c-0.11-2.98-1.03-5.87-1.94-8.71c-0.51-1.59-1.05-3.23-2.13-4.51c-1.56-1.84-4.07-2.66-6.49-2.7c-2.42-0.04-4.78,0.6-7.11,1.24
			c-1.28,0.35-2.58,0.71-3.66,1.47c-0.86,0.6-1.52,1.43-2.18,2.25c-1.66,2.05-3.39,4.29-3.55,6.92c-0.09,1.4,0.27,2.89-0.35,4.14
			c-1.07,2.16-4.14,2.16-6.16,3.47c-2.92,1.91-3.07,6.17-2.13,9.53c0.71,2.53,1.81,5.39,0.39,7.6c-0.47,0.73-1.18,1.29-1.61,2.04
			c-1.79,3.09,2.55,9.19,4.82,11.04c0.89,0.72,1.98,1.4,2.21,2.52c0.2,0.95-0.32,1.9-0.95,2.63c-0.64,0.73-1.42,1.34-1.94,2.15
			c-1.15,1.8-0.81,4.19,0.05,6.14c0.12,0.27,0.25,0.55,0.46,0.76c0.25,0.25,0.6,0.39,0.95,0.49c1.57,0.46,3.25,0.26,4.81,0.73
			c1.67,0.5,2.9,1.64,4.67,1.88C318.78,205.16,332.84,196.86,340.03,190.68z"/>
		<line class="st3" x1="307.98" y1="161.62" x2="320.45" y2="202.56"/>
		<line class="st3" x1="321.37" y1="154.55" x2="311.85" y2="174.32"/>
		<line class="st3" x1="328.91" y1="181.89" x2="318.52" y2="197.71"/>
	</g>
	<linearGradient id="SVGID_1_" gradientUnits="userSpaceOnUse" x1="209.7945" y1="191.1699" x2="499.9591" y2="191.1699">
		<stop  offset="0.4439" style="stop-color:#F9D19B"/>
		<stop  offset="1" style="stop-color:#E6BB8A"/>
	</linearGradient>
	<path class="st4" d="M355.72,169.93c-20.83,11.79-44.79,18.47-67.18,27.14c-1.59,0.61-3.24,1.28-4.34,2.58
		c-1.1,1.3-1.4,3.44-0.18,4.63c-11.82,2.17-23.41,5.63-34.49,10.3c-2.25,0.95-4.53,1.98-6.23,3.73c-1.7,1.75-2.71,4.38-1.89,6.68
		c0.49,1.4,1.62,2.8,1.09,4.18c-0.42,1.09-1.68,1.56-2.79,1.9c-5.72,1.79-11.35,3.83-16.88,6.13c-4.23,1.75-8.46,3.7-11.9,6.7
		c-0.34,0.3-0.67,0.61-0.99,0.92c-0.05,0.03-0.09,0.06-0.13,0.09h290.16V139.18c-4.49-1.25-9.19-1.52-13.85-1.66
		C440.79,136.25,395.18,147.58,355.72,169.93z M498.06,207.42c-1.95,0.51-3.91,0.42-5.86,0L498.06,207.42z"/>
	<g>
		<circle class="st5" cx="396.13" cy="88" r="77.99"/>
		<path class="st6" d="M470.64,121.09c4.36-9.97,6.78-20.98,6.77-32.56c-0.06-44.77-36.4-81.01-81.16-80.95
			c-44.77,0.06-81.01,36.4-80.95,81.16c0.02,11.58,2.46,22.59,6.85,32.55L470.64,121.09z"/>
		
			<rect x="323.13" y="125.4" transform="matrix(1 -1.315649e-03 1.315649e-03 1 -0.1756 0.5217)" class="st7" width="146.56" height="16.61"/>
		<polygon class="st8" points="471.36,148.43 471.36,144.42 325.06,144.61 325.06,148.56 332.96,177.02 462.26,177.25 		"/>
		<path class="st6" d="M474.85,141.06L318,141.27c-1.57,0-2.83,1.27-2.83,2.84l0,1.16c0,1.57,1.27,2.83,2.84,2.83l156.85-0.21
			c1.57,0,2.83-1.27,2.83-2.84l0-1.16C477.68,142.33,476.41,141.06,474.85,141.06z"/>
		<path class="st9" d="M341.15,137.79l-8.33,0.01c-1.63,0-2.95-1.32-2.96-2.95l0-1.21c0-1.63,1.32-2.95,2.95-2.96l8.33-0.01
			c1.63,0,2.95,1.32,2.96,2.95l0,1.21C344.11,136.46,342.79,137.79,341.15,137.79z"/>
		<path class="st10" d="M364.45,137.76l-8.33,0.01c-1.63,0-2.95-1.32-2.96-2.95l0-1.21c0-1.63,1.32-2.95,2.95-2.96l8.33-0.01
			c1.63,0,2.95,1.32,2.96,2.95l0,1.21C367.4,136.43,366.08,137.76,364.45,137.76z"/>
		<path class="st11" d="M388.88,137.73l-8.33,0.01c-1.63,0-2.95-1.32-2.96-2.95l0-1.21c0-1.63,1.32-2.95,2.95-2.96l8.33-0.01
			c1.63,0,2.95,1.32,2.96,2.95l0,1.21C391.83,136.4,390.51,137.72,388.88,137.73z"/>
		<path class="st12" d="M412.17,137.7l-8.33,0.01c-1.63,0-2.95-1.32-2.96-2.95l0-1.21c0-1.63,1.32-2.95,2.95-2.96l8.33-0.01
			c1.63,0,2.95,1.32,2.96,2.95l0,1.21C415.13,136.37,413.8,137.69,412.17,137.7z"/>
		<path class="st13" d="M436.33,137.66l-8.33,0.01c-1.63,0-2.95-1.32-2.96-2.95l0-1.21c0-1.63,1.32-2.95,2.95-2.96l8.33-0.01
			c1.63,0,2.95,1.32,2.96,2.95l0,1.21C439.28,136.34,437.96,137.66,436.33,137.66z"/>
		<path class="st14" d="M459.62,137.63l-8.33,0.01c-1.63,0-2.95-1.32-2.96-2.95l0-1.21c0-1.63,1.32-2.95,2.95-2.96l8.33-0.01
			c1.63,0,2.95,1.32,2.96,2.95l0,1.21C462.57,136.31,461.25,137.63,459.62,137.63z"/>
		<path class="st15" d="M406.55,177.19l-20.56,0.03L385.98,164c-0.01-4.71,3.81-8.54,8.52-8.54l3.5,0c4.71-0.01,8.54,3.81,8.54,8.52
			L406.55,177.19z"/>
		<path class="st16" d="M388.15,164.87L388.15,164.87c-0.01-4.2,3.39-7.6,7.59-7.61l0.95,0c4.2-0.01,7.6,3.39,7.61,7.59l0,0"/>
		<path class="st2" d="M462.4,176.72l-131.85,0.17c-0.68,0-1.23,0.55-1.22,1.23l0,0.5c0,0.68,0.55,1.23,1.23,1.22l131.85-0.17
			c0.68,0,1.23-0.55,1.22-1.23l0-0.5C463.62,177.27,463.07,176.72,462.4,176.72z"/>
		<path class="st17" d="M350.98,168.43l-1.48,0c-1.99,0-3.61-1.61-3.61-3.6l-0.01-7.02c0-1.99,1.61-3.61,3.6-3.61l1.48,0
			c1.99,0,3.61,1.61,3.61,3.6l0.01,7.02C354.59,166.81,352.98,168.43,350.98,168.43z"/>
		<path class="st18" d="M368.12,168.41l-1.48,0c-1.99,0-3.61-1.61-3.61-3.6l-0.01-7.02c0-1.99,1.61-3.61,3.6-3.61l1.48,0
			c1.99,0,3.61,1.61,3.61,3.6l0.01,7.02C371.73,166.79,370.11,168.41,368.12,168.41z"/>
		<path class="st18" d="M425.32,168.2l-1.48,0c-1.99,0-3.61-1.61-3.61-3.6l-0.01-7.02c0-1.99,1.61-3.61,3.6-3.61l1.48,0
			c1.99,0,3.61,1.61,3.61,3.6l0.01,7.02C428.93,166.58,427.31,168.2,425.32,168.2z"/>
		<path class="st18" d="M441.93,168.12l-1.48,0c-1.99,0-3.61-1.61-3.61-3.6l-0.01-7.02c0-1.99,1.61-3.61,3.6-3.61l1.48,0
			c1.99,0,3.61,1.61,3.61,3.6l0.01,7.02C445.54,166.5,443.93,168.11,441.93,168.12z"/>
		<line class="st16" x1="396.25" y1="161.25" x2="396.27" y2="177.2"/>
		<g>
			<circle class="st16" cx="397.72" cy="169.43" r="0.43"/>
			<circle class="st16" cx="394.9" cy="169.44" r="0.43"/>
		</g>
		
			<rect x="464.51" y="127.15" transform="matrix(1 -1.315649e-03 1.315649e-03 1 -0.176 0.6146)" class="st19" width="5.14" height="13.89"/>
		<polygon class="st20" points="345.9,50.75 340.46,48.72 353.91,17.48 359.6,20.27 		"/>
		<polygon class="st20" points="351.6,52.77 312.99,38.74 327.81,4.27 364.31,22.76 		"/>
		
			<rect x="315.45" y="2.33" transform="matrix(0.9187 0.3949 -0.3949 0.9187 35.4965 -126.1627)" class="st21" width="17.56" height="41.65"/>
		
			<ellipse transform="matrix(0.3949 -0.9187 0.9187 0.3949 176.5962 321.2944)" class="st21" cx="332.21" cy="26.58" rx="20.8" ry="5.98"/>
		
			<ellipse transform="matrix(0.3949 -0.9187 0.9187 0.3949 173.2224 302.3707)" class="st21" cx="316.16" cy="19.68" rx="20.8" ry="5.98"/>
		
			<ellipse transform="matrix(0.3949 -0.9187 0.9187 0.3949 173.8054 305.6405)" class="st22" cx="318.94" cy="20.87" rx="18.79" ry="10.99"/>
		<polygon class="st20" points="378.27,29.18 384.26,32.14 372.63,60.92 365.9,58.51 		"/>
		<path class="st23" d="M377.93,19.46c-0.7,0-1.39,0.22-1.95,0.64C359.13,32.55,347.27,51.37,343.96,73
			c-0.22,1.46,0.92,2.78,2.4,2.78l31.89-0.04c1.2,0,2.22-0.88,2.39-2.06c3.06-21.32,9.99-40.11,17.14-52.61
			c0.43-0.76-0.11-1.69-0.98-1.69L377.93,19.46z"/>
		<path class="st24" d="M356.11,70.1c-1.48,0-2.62-1.31-2.4-2.78c2.91-19.1,12.5-35.99,26.3-48.26l-0.83,0c-1,0-1.97,0.31-2.77,0.91
			c-16.66,12.45-28.38,31.16-31.65,52.64c-0.22,1.46,0.92,2.78,2.4,2.78l31.89-0.04c1.2,0,2.22-0.88,2.39-2.06
			c0.15-1.08,0.34-2.15,0.53-3.21L356.11,70.1z"/>
		<polygon class="st20" points="378.38,63.23 340.06,48.57 353.58,17.34 390.33,34.98 		"/>
		
			<rect x="376.17" y="28.07" transform="matrix(0.9187 0.3949 -0.3949 0.9187 50.4744 -147.4413)" class="st21" width="14.48" height="41.65"/>
		
			<ellipse transform="matrix(0.3949 -0.9187 0.9187 0.3949 188.7706 390.0655)" class="st21" cx="390.51" cy="51.72" rx="20.8" ry="4.93"/>
		
			<ellipse transform="matrix(0.3949 -0.9187 0.9187 0.3949 185.6755 373.9869)" class="st21" cx="376.76" cy="46.03" rx="20.8" ry="4.93"/>
		
			<ellipse transform="matrix(0.3949 -0.9187 0.9187 0.3949 185.9073 375.0593)" class="st20" cx="377.69" cy="46.39" rx="15.73" ry="8.26"/>
		<polygon class="st25" points="367.79,64.83 359.31,76.36 365.04,76.35 371.84,66.57 		"/>
		<polygon class="st21" points="367.59,63.5 358.32,76.36 364.05,76.35 371.94,65.07 		"/>
		<polygon class="st25" points="376.14,68.31 380.77,79.01 375.39,77.03 372.79,67 		"/>
		<polygon class="st21" points="377.42,64.08 381.7,79.35 376.32,77.37 372.79,64.06 		"/>
		<path class="st25" d="M378.97,69.63l2.15,0.94c0,0,1.35-3.91,1.1-5.46C381.11,67.88,378.97,69.63,378.97,69.63z"/>
		<path class="st6" d="M438.66,19.5l-30.41-5.87c-17.41,12.58-24.48,37.81-27.66,60.04c-0.14,0.99-0.89,1.76-1.83,1.99l0.06,45.54
			l91.77-0.12c4.36-9.97,6.78-20.98,6.77-32.56C477.32,59.31,461.84,33.73,438.66,19.5z"/>
		<path class="st26" d="M444.56,23.4c13.17,14.39,21.22,33.55,21.24,54.6c0.01,6.99-0.87,13.78-2.53,20.26
			c-1.86,7.27-8.49,12.31-16,12.32l-128.69,0.17c1.03,3.67,2.31,7.23,3.82,10.67l148.5-0.2c4.36-9.97,6.78-20.98,6.77-32.56
			C477.64,61.87,464.61,38.13,444.56,23.4z"/>
		<path class="st8" d="M474.03,127.18l-155.25,0.2c-3.07,0-5.57-2.48-5.57-5.55l0-1.62c0-1.29,1.04-2.34,2.34-2.34l161.7-0.21
			c1.29,0,2.34,1.04,2.34,2.34l0,1.62C479.59,124.68,477.1,127.18,474.03,127.18z"/>
		
			<rect x="346.38" y="75.75" transform="matrix(1 -1.315649e-03 1.315649e-03 1 -0.1117 0.4846)" class="st6" width="43.78" height="18.78"/>
		<polygon class="st20" points="378.82,29.41 383.9,31.94 370.82,60.26 364.16,57.83 		"/>
		<path class="st27" d="M377.87,20c-1,0-1.97,0.31-2.77,0.91c-16.66,12.45-28.38,31.16-31.65,52.64c-0.22,1.46,0.92,2.78,2.4,2.78
			l31.89-0.04c1.2,0,2.22-0.88,2.39-2.06c3.06-21.34,5.59-36.3,17.56-52.46c0.66-0.9,0.02-2.17-1.1-2.14L377.87,20z"/>
		<line class="st28" x1="398.98" y1="17.79" x2="399.12" y2="117.23"/>
		<path class="st28" d="M451.09,117.61c4.36-9.97,6.78-20.98,6.77-32.56C457.81,48,432.92,16.8,398.97,7.17l0.02,11.48"/>
		<path class="st28" d="M399.56,7.16c-33.92,9.72-58.73,40.99-58.68,78.04c0.02,11.58,2.46,22.59,6.85,32.55"/>
		
			<ellipse transform="matrix(0.3949 -0.9187 0.9187 0.3949 180.8067 344.9117)" class="st21" cx="352.25" cy="35.19" rx="20.8" ry="4.93"/>
		
			<rect x="351.66" y="17.23" transform="matrix(0.9187 0.3949 -0.3949 0.9187 44.2009 -138.6441)" class="st21" width="14.48" height="41.65"/>
		
			<ellipse transform="matrix(0.3949 -0.9187 0.9187 0.3949 183.5888 360.5165)" class="st21" cx="365.49" cy="40.88" rx="20.8" ry="4.93"/>
		
			<ellipse transform="matrix(0.3949 -0.9187 0.9187 0.3949 180.4471 343.3916)" class="st20" cx="350.92" cy="34.71" rx="16.87" ry="11.17"/>
		<line class="st28" x1="315.43" y1="89.24" x2="477.02" y2="89.03"/>
		<line class="st28" x1="386.68" y1="47.92" x2="466.82" y2="47.94"/>
		<line class="st28" x1="326.25" y1="47.73" x2="337.42" y2="47.75"/>
	</g>
	<linearGradient id="SVGID_2_" gradientUnits="userSpaceOnUse" x1="268.9828" y1="210.0863" x2="407.5463" y2="210.0863">
		<stop  offset="0" style="stop-color:#FFE2C0;stop-opacity:0.1"/>
		<stop  offset="1" style="stop-color:#FFE2C0"/>
	</linearGradient>
	<path class="st29" d="M356.97,244.86c-7.27-6.64-15.23-16.13-15.24-25.9C341.7,193.99,407.55,177,407.55,177l-14.49-1.68
		c0,0-64.22,12.55-87.84,32.16c-14.29,11.87-27.79,27.15-36.23,37.38H356.97z"/>
	<path class="st2" d="M496.24,137.24c-0.88-0.71-0.9-2.01-1.24-3.09c-0.54-1.66,1.03-2.3-0.79-2.55c0.44-0.6-0.25-1.47-0.98-1.48
		c-0.72-0.01-1.33,0.51-1.81,1.04c-0.88,0.96-1.58,2.09-2.07,3.29c-0.13,0.32-0.26,0.66-0.52,0.88c-0.65,0.53-1.64,0.01-2.45,0.2
		c-1.08,0.27-1.43,1.66-1.29,2.77c0.15,1.11,0.57,2.24,0.24,3.31c-0.08,0.25-0.21,0.5-0.42,0.65c-0.5,0.35-1.18,0.05-1.75-0.2
		c-1.79-0.78-3.93-0.85-5.69,0.01c-1.76,0.86-3.06,2.68-3.1,4.64c-0.02,1.08,0.32,2.14,0.47,3.22c0.15,1.07,0.07,2.27-0.64,3.09
		c-0.68,0.77-1.8,1.05-2.44,1.85c-0.43,0.54-0.57,1.25-0.71,1.93c-0.17,0.85-0.33,1.71-0.5,2.56c-0.13-0.41-0.23-0.84-0.3-1.27
		c-0.16-1.07-0.2-2.18-0.55-3.21c-0.1-0.28-0.22-0.55-0.37-0.81c-0.3-1.03-0.92-1.98-1.79-2.6c-1.52-1.09-3.69-1.16-5.29-0.19
		c-1.27,0.77-2.22,2.15-3.68,2.43c-0.63,0.12-1.23,0-1.79-0.26c-0.42-4.91-2.82-9.67-6.79-12.61c-1.15-0.85-2.43-1.58-3.27-2.74
		c-0.75-1.04-1.09-2.35-1.91-3.33c-1.04-1.25-2.84-1.81-4.41-1.37c-1.57,0.44-2.82,1.85-3.06,3.46c-0.1,0.68-0.07,1.44-0.54,1.94
		c-0.49,0.5-1.28,0.48-1.98,0.47c-2.64-0.04-5.29,0.62-7.6,1.9c-1.07,0.59-2.15,1.45-2.31,2.66c-0.3,2.26,2.64,3.6,3.3,5.78
		c0.79,2.62-1.93,4.98-2.36,7.68c-0.36,2.27,0.95,4.47,1.1,6.77c0.03,0.49,0,0.96-0.06,1.44c-0.37-0.11-0.73-0.27-0.96-0.57
		c-0.25-0.31-0.34-0.72-0.42-1.1c-0.63-2.99-1.68-6.36-4.48-7.59c-1.51-0.66-3.26-0.54-4.86-0.11c-1.64,0.44-3.31,1.3-4.05,2.82
		c-0.87,1.77-0.26,3.91,0.65,5.66c1.24,2.39,4.07,6.04,4.49,8.67c0.27,1.69-1.36,3.12-3,3.63c-0.27,0.08-0.55,0.14-0.83,0.2
		c-0.34-3.23,0.61-7.08-1.05-9.93c-1.38-2.35-4.22-3.4-6.91-3.81c-2.3-0.34-4.94-0.22-6.54,1.47c-1.89,1.98-1.58,5.33-3.37,7.4
		c-1.27,1.48-3.32,1.98-4.93,3.08c-2.14,1.47-3.41,4.11-3.25,6.7c0.1,1.55,0.68,3.1,0.38,4.63c-0.32,1.64-1.59,2.9-2.64,4.2
		c-0.06,0.08-0.12,0.16-0.18,0.24c-0.93-0.36-2-0.49-3-0.56c-1.11-0.08-2.23-0.17-3.34-0.25c-0.62-0.05-1.25-0.09-1.85,0.06
		c-2.13,0.52-2.94,3.07-3.33,5.22c-0.05,0.29-0.11,0.6-0.32,0.8c-0.22,0.21-0.55,0.25-0.86,0.24c-0.89-0.02-1.74-0.36-2.63-0.46
		c-1.96-0.24-3.93,0.68-5.33,2.06c-0.53,0.53-0.97,1.13-1.37,1.76c-0.24-0.51-0.54-0.99-0.96-1.41c-0.82-0.81-1.9-1.31-2.71-2.12
		c-3.4-3.4-0.27-9.67-2.7-13.81c-1.38-2.35-4.22-3.4-6.91-3.81c-2.3-0.34-4.94-0.22-6.54,1.47c-1.89,1.98-1.58,5.33-3.37,7.4
		c-1.27,1.48-3.32,1.98-4.93,3.08c-2.14,1.47-3.41,4.11-3.25,6.7c0.1,1.55,0.68,3.1,0.38,4.63c-0.32,1.64-1.59,2.9-2.64,4.2
		c-1.64,2.04-2.86,4.42-3.58,6.94c-0.32-0.15-0.65-0.28-1-0.36c-1.71-0.38-3.65,0.31-4.64,1.75c-0.62,0.89-0.86,2-0.96,3.08
		c-0.15,1.58-0.04,3.22,0.61,4.67c1.18,2.64,4.09,4.73,3.81,7.61c-0.05,0.47-0.2,0.95-0.56,1.25c-0.8,0.67-2.03,0.09-3.04,0.32
		c-1.54,0.35-1.98,2.31-1.99,3.89c0,0.47,0.01,0.94,0.17,1.38c0.39,1.06,1.64,1.89,1.41,2.99c-0.21,1.01-1.5,1.34-2.53,1.25
		c-1.03-0.09-2.16-0.35-3.03,0.21c-0.79,0.51-1.06,1.57-0.91,2.49c0.07,0.4,0.21,0.77,0.37,1.14H500V148.8
		c-0.11-0.17-0.22-0.35-0.3-0.55c-0.29-0.68-0.32-1.53,0.15-2.1c0.05-0.06,0.1-0.09,0.16-0.14v-7.82c-0.05-0.02-0.08-0.06-0.13-0.08
		C498.71,137.62,497.22,138.03,496.24,137.24z M498.58,168.11c0.22-0.1,0.45-0.2,0.65-0.31c0,0.12-0.01,0.24,0,0.37
		c0.02,0.23,0.05,0.45,0.09,0.68C499.08,168.59,498.83,168.35,498.58,168.11z"/>
	<path class="st15" d="M423.11,157.48c-0.52-0.93-1.07-1.88-1.89-2.55c-1.76-1.43-4.47-1.21-6.32,0.09
		c-1.85,1.3-2.94,3.46-3.49,5.66c-0.74,2.97-0.42,6.56,1.99,8.45c1.63,1.28,4.01,1.65,5.14,3.38c1.36,2.09,0.14,4.88,0.51,7.34
		c0.04,0.26,0.1,0.53,0.28,0.74c0.33,0.38,0.91,0.37,1.41,0.37c6.08-0.08,11.86,4.71,12.91,10.7c-0.26-2.98-0.52-5.96-0.78-8.94
		c-0.46-5.19-5.72-7.24-5.67-12.01c0.02-1.87,0.97-2.96,0.5-4.98C427.05,162.99,424.49,159.92,423.11,157.48z"/>
	<path class="st1" d="M325.37,220.76c-2.16-1.76-4.5-3.33-7.08-4.37c-5.05-2.03-10.66-1.92-16.1-1.77
		c-2.57,0.07-5.52,0.32-7.06,2.39c-0.99,1.33-1.12,3.08-1.32,4.73c-0.4,3.41-1.22,6.78-2.43,10c-1.02,2.72-2.45,5.49-4.94,7
		c-1.8,1.09-3.94,1.4-6.01,1.8c-4.28,0.81-8.87,2.26-13,4.4h72.95C337.03,236.03,333.85,227.34,325.37,220.76z"/>
	<g>
		<path class="st30" d="M185.13,244.91c-10.26-26.42-43.63-53.8-70.88-54.34c-5.52-0.11-12.16-0.09-15.08-4.78
			c3.69,1.77,6.85-4.55,4.36-7.8c-2.5-3.25-7.15-3.65-11.25-3.84C54.93,172.39,32.31,163.86,0,150.92v93.99H185.13z"/>
	</g>
	<g>
		<linearGradient id="SVGID_3_" gradientUnits="userSpaceOnUse" x1="-9.094947e-13" y1="206.5663" x2="154.5029" y2="206.5663">
			<stop  offset="0" style="stop-color:#FFE2C0;stop-opacity:0.1"/>
			<stop  offset="1" style="stop-color:#FFE2C0"/>
		</linearGradient>
		<path class="st31" d="M41.34,182.9c4.09,0.19,8.75,0.59,11.25,3.84c0.75,0.98,0.73,2.17,0.35,3.38c-1.15,3.66-4.75,5.98-8.59,5.94
			c-14.79-0.13-29.83,0.31-44.34,1.1v31.63c0.39-0.11,0.77-0.22,1.16-0.33c21.59-5.99,43.8-9.43,66.05-11.79
			c4-0.42,21.97-0.71,36.01-2.83c10.34,7.99,18.5,18.77,22.87,31.06h22.31c2.04-0.41,4.07-0.83,6.1-1.27
			c-7.9-27.74-35.16-48.75-63.99-49.32c-5.52-0.11-12.16-0.09-15.08-4.78c3.69,1.77,6.85-4.55,4.36-7.8
			c-2.49-3.25-7.15-3.65-11.25-3.84c-23.08-1.09-46.06-4.35-68.55-9.68v10.38C13.69,180.79,27.49,182.24,41.34,182.9z"/>
	</g>
	<line class="st3" x1="66.6" y1="210.71" x2="65.32" y2="243.93"/>
	<line class="st3" x1="84.05" y1="208.15" x2="65.91" y2="226.16"/>
	<path class="st32" d="M489.89,225.03c0.41-4.85-5.99-8.26-5.62-13.12c0.19-2.4,2.04-4.38,2.47-6.75c0.41-2.21-0.5-4.5-1.94-6.22
		c-1.45-1.71-3.39-2.93-5.37-4.01c-1.27-0.69-2.6-1.36-3.59-2.42s-1.6-2.61-1.12-3.98c0.45-1.29,1.74-2.12,2.29-3.36
		c0.78-1.75-0.06-3.76-0.94-5.46c-1.44-2.79-3.51-5.86-6.64-6.05c-2.47-0.15-4.96,1.6-7.3,0.79c-2.1-0.73-2.99-3.12-4.35-4.88
		c-2.09-2.72,0.37-4.93-3.16-4.19c0.42-1.4-1.43-2.56-2.79-2.09c-1.34,0.46-2.13,1.82-2.67,3.13c-0.98,2.37-1.54,4.91-1.65,7.47
		c-0.03,0.68-0.03,1.39-0.39,1.97c-0.86,1.41-3.03,1.1-4.4,2.01c-1.83,1.21-1.55,4.02-0.55,5.97c1,1.95,2.55,3.77,2.63,5.96
		c0.02,0.52-0.05,1.06-0.35,1.48c-0.69,0.99-2.15,0.88-3.36,0.8c-3.84-0.25-7.84,1.04-10.52,3.8c-2.69,2.76-3.88,7-2.66,10.65
		c0.68,2.02,2,3.75,3,5.64c0.99,1.89,1.65,4.16,0.86,6.14c-0.74,1.88-2.64,3.14-3.28,5.05c-0.43,1.29-0.23,2.7-0.02,4.04
		c0.48,3.1,0.95,6.21,1.43,9.31c0.27,1.76,4,4.91,8.91,8.21h38.71c1.06-4.82,3.58-9.31,7.15-12.72
		C486.87,230.1,489.63,228.05,489.89,225.03z"/>
	<path class="st33" d="M400.34,230.41c1.8-4.36,2.49-9.97-0.86-13.29c-1.23-1.22-2.86-1.96-4.08-3.18
		c-5.11-5.1-0.4-14.52-4.06-20.76c-2.07-3.53-6.34-5.12-10.38-5.72c-3.46-0.52-7.42-0.33-9.83,2.2c-2.83,2.98-2.37,8.01-5.06,11.12
		c-1.91,2.22-4.99,2.97-7.41,4.63c-3.21,2.21-5.13,6.17-4.88,10.06c0.15,2.33,1.02,4.66,0.56,6.95c-0.49,2.46-2.38,4.36-3.96,6.31
		c-3.69,4.58-5.95,10.3-6.43,16.16h51.91c-0.03-0.41-0.06-0.81-0.06-1.21C395.82,238.98,398.54,234.77,400.34,230.41z"/>
	<path class="st15" d="M438.99,238.18c1.8-2.18,3.7-4.12,4.84-6.76c1.09-2.52,1.41-5.41,0.72-8.07s-2.46-5.06-4.88-6.37
		c-0.69-0.37-1.43-0.66-2.01-1.18c-2.43-2.19-0.48-6.55-2.26-9.3c-1.29-2-4.01-2.38-6.38-2.56c-1.48-0.11-2.96-0.23-4.43-0.34
		c-0.82-0.06-1.66-0.12-2.46,0.07c-2.82,0.7-3.91,4.07-4.42,6.94c-0.07,0.38-0.15,0.79-0.43,1.06c-0.29,0.28-0.73,0.33-1.14,0.32
		c-1.18-0.03-2.31-0.47-3.49-0.62c-2.6-0.32-5.22,0.9-7.07,2.74c-1.86,1.85-3.04,4.26-3.94,6.72c-4.92-0.09-9.45,4.39-9.43,9.31
		c0.01,1.73,0.5,3.42,0.93,5.1c0.81,3.18,1.37,6.41,1.74,9.67h32.79c2.34-1.19,4.82-2.11,7.37-2.69
		C437.44,241.68,437.6,239.88,438.99,238.18z"/>
	<path class="st34" d="M490.34,182.64c-2.1,3.54-0.52,8.34-2.45,11.97c-1.37,2.59-4.2,4.01-6.18,6.17
		c-2.63,2.87-3.62,7.16-2.51,10.9c0.67,2.24,2.03,4.32,2.1,6.65c0.08,2.51-1.35,4.78-2.45,7.04c-2.65,5.43-3.57,11.68-2.6,17.65
		c0.1,0.63,0.23,1.27,0.39,1.89H500v-66.64c-0.19,0.01-0.38,0.01-0.57,0.03C495.94,178.57,492.12,179.64,490.34,182.64z"/>
	<g>
		<line class="st3" x1="373.37" y1="211.14" x2="371.96" y2="243.93"/>
		<line class="st3" x1="373" y1="228.09" x2="356.45" y2="214.48"/>
		<line class="st3" x1="385.32" y1="222.98" x2="372.5" y2="234.89"/>
		<path class="st35" d="M353.86,233.08"/>
	</g>
	<path class="st34" d="M249.99,242.68c-0.09-0.97-0.31-1.95-0.86-2.76c-0.89-1.3-2.62-1.91-4.16-1.57
		c-0.31,0.07-0.61,0.18-0.89,0.32c-0.65-2.26-1.73-4.39-3.21-6.22c-0.94-1.17-2.07-2.29-2.36-3.76c-0.27-1.37,0.25-2.76,0.34-4.15
		c0.15-2.32-1-4.68-2.91-6c-1.44-0.99-3.28-1.44-4.42-2.76c-1.6-1.86-1.33-4.86-3.02-6.63c-1.44-1.51-3.8-1.62-5.86-1.31
		c-2.41,0.36-4.96,1.31-6.19,3.41c-2.18,3.72,0.63,9.33-2.42,12.38c-0.73,0.73-1.7,1.17-2.43,1.9c-0.38,0.37-0.64,0.8-0.86,1.26
		c-0.36-0.56-0.75-1.11-1.23-1.58c-1.25-1.25-3.02-2.06-4.77-1.85c-0.79,0.1-1.56,0.4-2.35,0.42c-0.27,0.01-0.57-0.03-0.77-0.22
		c-0.19-0.18-0.24-0.46-0.29-0.71c-0.34-1.93-1.08-4.21-2.98-4.68c-0.54-0.13-1.11-0.09-1.66-0.05c-1,0.08-1.99,0.15-2.99,0.23
		c-0.9,0.07-1.86,0.19-2.69,0.5c-0.06-0.07-0.11-0.15-0.16-0.22c-0.94-1.17-2.07-2.29-2.36-3.76c-0.27-1.37,0.25-2.76,0.34-4.15
		c0.15-2.32-1-4.68-2.91-6c-1.44-0.99-3.28-1.44-4.42-2.76c-1.6-1.86-1.33-4.86-3.02-6.63c-1.44-1.51-3.8-1.62-5.86-1.31
		c-2.41,0.36-4.96,1.31-6.19,3.41c-1.5,2.55-0.64,6-0.95,8.9c-0.25-0.05-0.5-0.1-0.75-0.18c-1.47-0.46-2.93-1.74-2.69-3.25
		c0.37-2.36,2.91-5.63,4.02-7.77c0.82-1.57,1.36-3.48,0.58-5.07c-0.67-1.37-2.16-2.13-3.63-2.53c-1.43-0.38-3-0.49-4.35,0.1
		c-2.51,1.1-3.46,4.12-4.02,6.8c-0.07,0.35-0.15,0.71-0.37,0.99c-0.21,0.27-0.53,0.41-0.86,0.51c-0.05-0.42-0.09-0.85-0.06-1.29
		c0.13-2.06,1.31-4.03,0.99-6.06c-0.38-2.42-2.82-4.53-2.11-6.88c0.59-1.96,3.22-3.16,2.95-5.18c-0.14-1.08-1.11-1.85-2.07-2.38
		c-2.07-1.15-4.45-1.74-6.81-1.7c-0.63,0.01-1.34,0.03-1.78-0.42c-0.43-0.44-0.4-1.13-0.49-1.73c-0.21-1.44-1.33-2.71-2.74-3.1
		c-1.4-0.39-3.02,0.11-3.95,1.23c-0.74,0.88-1.04,2.05-1.71,2.99c-0.75,1.03-1.9,1.69-2.93,2.45c-3.56,2.63-5.71,6.9-6.08,11.3
		c-0.5,0.23-1.04,0.34-1.6,0.23c-1.31-0.25-2.16-1.48-3.3-2.18c-1.43-0.87-3.37-0.8-4.74,0.17c-0.79,0.56-1.34,1.41-1.61,2.33
		c-0.13,0.23-0.24,0.48-0.33,0.73c-0.31,0.92-0.35,1.91-0.49,2.87c-0.06,0.38-0.15,0.77-0.27,1.14c-0.15-0.77-0.3-1.53-0.45-2.3
		c-0.12-0.61-0.25-1.24-0.63-1.73c-0.57-0.72-1.58-0.97-2.18-1.66c-0.64-0.73-0.71-1.8-0.58-2.77c0.13-0.96,0.44-1.91,0.42-2.88
		c-0.04-1.75-1.2-3.39-2.78-4.16c-1.58-0.77-3.49-0.71-5.1-0.01c-0.51,0.22-1.12,0.49-1.57,0.18c-0.19-0.14-0.31-0.36-0.38-0.58
		c-0.3-0.95,0.08-1.97,0.21-2.96c0.13-0.99-0.18-2.24-1.16-2.48c-0.73-0.18-1.61,0.29-2.2-0.18c-0.24-0.19-0.35-0.5-0.47-0.79
		c-0.44-1.08-1.07-2.09-1.86-2.95c-0.43-0.48-0.98-0.94-1.63-0.93c-0.65,0.01-1.27,0.79-0.88,1.33c-1.63,0.23-0.23,0.8-0.71,2.28
		c-0.31,0.96-0.33,2.13-1.11,2.77c-0.88,0.71-2.21,0.34-3.25,0.79c-1.31,0.57-1.73,2.2-1.92,3.62c-0.11,0.87-0.17,1.86,0.44,2.49
		c0.43,0.45,1.11,0.61,1.5,1.09c0.42,0.51,0.4,1.27,0.13,1.88c-0.26,0.61-0.73,1.1-1.17,1.59c-0.68,0.76-1.33,1.59-1.69,2.54
		c-0.36,0.96-0.39,2.08,0.12,2.97c0.55,0.95,1.65,1.51,2.1,2.51c0.52,1.15,0.02,2.45-0.33,3.72c-0.7-0.91-1.61-1.65-2.69-2.07
		c-1.86-0.73-3.94-0.55-5.92-0.29c-3.41,0.44-4.61,3.17-4.78,6.38l6.35,7.89c-0.7-0.39-1.4-0.78-2.01-1.29
		c-1.74-1.43-2.71-3.66-4.38-5.12c-0.42-1.03-1.07-1.84-2.15-2.22c-1.34-0.46-2.76-0.16-4.08,0.57c-0.55,0.02-1.1,0.06-1.64,0.1
		c-1.05,0.08-2.11,0.16-3.09,0.56c-0.97,0.39-1.86,1.15-2.13,2.17c-0.17,0.63-0.09,1.3-0.15,1.95c-0.17,1.78-1.35,3.3-2.6,4.58
		c-0.93,0.95-1.93,1.85-2.72,2.9c-0.54-0.68-1.14-1.3-1.86-1.78c-2.07-1.34-4.73-1.21-7.18-1.02c-1.05,0.08-2.12,0.16-3.09,0.56
		c-0.97,0.39-1.86,1.15-2.13,2.17c-0.17,0.63-0.09,1.3-0.15,1.95c-0.17,1.78-1.35,3.3-2.6,4.58c-0.63,0.64-1.29,1.26-1.9,1.92
		c-0.66-1.7-0.84-3.7-2.09-5.02c-1.44-1.51-3.8-1.62-5.86-1.31c-2.41,0.36-4.96,1.31-6.19,3.41c-2.18,3.72,0.63,9.33-2.42,12.38
		c-0.73,0.73-1.7,1.17-2.43,1.9c-2,1.98-1.59,5.33-0.51,7.93c1,2.43,2.47,4.78,2.66,7.38h230.56
		C250.06,244.18,250.06,243.42,249.99,242.68z M88.47,198.9c0.03-0.2,0.07-0.4,0.08-0.6c0.01-0.11,0-0.22,0-0.33
		c0.19,0.1,0.39,0.19,0.59,0.28C88.91,198.46,88.69,198.68,88.47,198.9z"/>
	<path class="st36" d="M45.22,229.8c1.54,3.08,3.08,6.15,4.61,9.23c0.94,1.87,1.88,3.95,1.85,5.97H99.1
		c1.42-1.91,2.85-3.82,4.27-5.73c0.82-1.1,1.68-2.32,1.59-3.69c-0.1-1.53-1.34-2.72-2.56-3.66c-2.26-1.74-4.72-3.23-6.8-5.18
		c-2.08-1.95-3.8-4.49-4.01-7.33c-0.26-3.47,1.71-6.65,2.74-9.97c1.04-3.32,1.15-6.84,1.25-10.31c0.06-1.95,0.11-3.96-0.59-5.78
		c-1-2.63-3.44-4.5-6.08-5.49c-2.64-0.98-5.49-1.2-8.29-1.41c-1.54-0.11-3.11-0.22-4.59,0.2c-1.17,0.33-2.23,0.98-3.27,1.62
		c-2.62,1.61-5.39,3.39-6.59,6.22c-0.64,1.5-0.83,3.28-2,4.41c-2.02,1.96-5.38,0.76-8.11,1.42c-3.95,0.96-5.77,5.58-6.04,9.64
		c-0.2,3.05-0.1,6.63-2.52,8.5c-0.8,0.62-1.8,0.96-2.57,1.62c-1.34,1.14-1.78,3.07-1.55,4.81C43.64,226.62,44.43,228.23,45.22,229.8
		z"/>
	<path class="st2" d="M200.03,244.86c1.48-4.53,2.12-9.12-0.15-13.4c-1.28-2.41-3.48-4.22-5.45-6.16c-1.97-1.94-3.82-4.23-4.09-6.93
		c-0.1-0.98,0.03-2-0.24-2.95c-1.25-4.48-10.29-4.82-14.1-5.64c-6.14-1.32-8.08-0.65-12.34,4.84c-2.97,3.82-6.68,7.51-11.43,8.39
		c-1.98,0.37-4.04,0.22-6,0.67c-2.81,0.65-5.3,2.59-6.62,5.16c-0.57,1.11-0.97,2.38-1.93,3.18c-0.73,0.61-1.69,0.87-2.56,1.28
		c-3.95,1.87-5.43,6.62-6.49,10.85c-0.06,0.23-0.11,0.46-0.17,0.7H200.03z"/>
	<path class="st2" d="M87.77,243.32c0.04,0.56,0.02,1.12,0,1.68h44.98c2.59-7.64,8.28-16.55,4.09-24.43
		c-1.28-2.41-3.48-4.22-5.45-6.16c-1.97-1.94-3.82-4.23-4.09-6.93c-0.1-0.99,0.03-2-0.24-2.95c-0.43-1.54-1.82-2.69-3.35-3.28
		c-1.53-0.6-3.21-0.72-4.86-0.84c-3.87-0.28-8.05-0.49-11.3,1.54c-3.35,2.1-4.89,6.11-7.98,8.56c-1.7,1.35-3.79,2.16-5.63,3.33
		c-2.82,1.81-4.95,4.43-7.5,6.58c-0.94,0.79-1.95,1.54-2.68,2.51c-2.2,2.92-1.38,7.02,0.13,10.32
		C85.4,236.54,87.54,239.72,87.77,243.32z"/>
	<path class="st15" d="M148.55,178.63c-1.42,2.08-1.84,4.81-1.12,7.23c0.19,0.65,0.47,1.28,0.6,1.94c0.51,2.59-1.18,5.03-2.27,7.43
		c-1.47,3.24-1.88,7.18-0.17,10.31c0.29,0.52,0.77,1.08,1.35,0.96c0.53-0.11,0.77-0.71,0.96-1.21c1.03-2.81,2.92-5.31,5.35-7.06
		c0.81-0.59,1.72-1.13,2.2-2.02c0.74-1.36,0.24-3.02-0.23-4.5c-0.96-3.07-1.68-6.21-2.15-9.39c-0.07-0.5-0.14-1.01,0-1.49
		c0.63-2.23,4.18-2.08,4.28-4.51C153.71,175.12,151.04,174.99,148.55,178.63z"/>
	<path class="st37" d="M208.4,230.88c4.5-9.12,1.55-21.27-6.63-27.31c-1.46-1.08-3.09-2.01-4.16-3.48
		c-0.96-1.32-1.39-2.98-2.43-4.24c-1.33-1.59-3.62-2.3-5.61-1.74c-1.99,0.56-3.58,2.36-3.89,4.41c-0.13,0.86-0.09,1.84-0.69,2.46
		c-0.62,0.64-1.63,0.61-2.52,0.6c-3.36-0.05-6.73,0.79-9.67,2.42c-1.36,0.75-2.74,1.84-2.94,3.38c-0.38,2.87,3.36,4.58,4.19,7.36
		c1,3.33-2.46,6.33-3,9.77c-0.45,2.89,1.21,5.69,1.41,8.61c0.24,3.63-1.79,6.96-3.26,10.28c-0.22,0.49-0.42,1.01-0.6,1.53h34.17
		c-0.03-0.28-0.07-0.55-0.08-0.83C202.56,239.23,206.25,235.24,208.4,230.88z"/>
</g>
</svg>
