<?xml version="1.0" encoding="utf-8"?>
<!-- Generator: Adobe Illustrator 23.0.3, SVG Export Plug-In . SVG Version: 6.00 Build 0)  -->
<svg version="1.1" id="Слой_1" xmlns="http://www.w3.org/2000/svg" xmlns:xlink="http://www.w3.org/1999/xlink" x="0px" y="0px"
	 viewBox="0 0 500 327.09" style="enable-background:new 0 0 500 327.09;" xml:space="preserve">
<style type="text/css">
	.st0{opacity:0.17;fill:#BDE1EA;enable-background:new    ;}
	.st1{opacity:0.32;fill:#BDE1EA;enable-background:new    ;}
	.st2{fill:#FCDDB6;}
	.st3{fill:#EBCFA6;}
	.st4{fill:#C1D0DA;}
	.st5{fill:#FDF5D5;}
	.st6{fill:#E6EDF5;}
	.st7{fill:#B3C6D4;}
	.st8{fill:#BDE1EA;}
	.st9{fill:#D7EEF7;}
	.st10{opacity:0.69;fill:#D7EEF7;enable-background:new    ;}
	.st11{opacity:0.42;fill:#D7EEF7;enable-background:new    ;}
	.st12{fill:#ADD7E0;}
	.st13{fill:#F0BC4E;}
	.st14{opacity:0.29;}
	.st15{fill:#FFFFFF;}
	.st16{opacity:0.17;}
	.st17{opacity:0.15;}
	.st18{fill:#F1B34B;}
	.st19{fill:#89B8B2;}
	.st20{fill:#6C9892;}
</style>
<g>
	<path class="st0" d="M238.21,0.78c-0.85,18.24,5.03,30.04,25.12,33.31c10.16,1.66,20.52,1.62,30.82,1.59
		c33.71-0.11,67.44-0.24,101.15-0.35c14.31-0.05,29.36,0.08,41.79,7.17c4.06,2.32,7.75,5.33,12.08,7.11
		c4.47,1.84,9.39,2.25,14.21,2.56c12.19,0.79,24.41,1.09,36.62,0.9V0.78H238.21z"/>
	<path class="st1" d="M294.9,125.68c-24.13,4.81-48.38,6.01-72.56,3.58c-13.87-1.39-28.63-3.49-40.38,17.14
		c-1.95,3.43-3.3,8.9-3.37,15.03c-0.12,10.35,3.05,14.1,5.93,17.13c6.19,6.55,12.38,13.1,18.58,19.65
		c0.67,5.7-1.89,10.18-4.04,12.21c-23.39,22.03-50.54,13.19-73.45,34.35c-5.24,4.83-6.41,22.89-2.04,31.85
		c1.47,3,2.86,6.24,4.18,9.66c-33.2,4.39-66.2,17.96-98.31,40.4c-0.15,0.1-0.28,0.21-0.42,0.3h330.76c0.07-2.51,0.08-5.02,0.07-7.5
		c-0.14-16.81,76.95-22.87,140.17-30.42V107.35C423.01,101.57,309.43,122.77,294.9,125.68z"/>
	<path class="st2" d="M499.88,287.59H158.99c-5.98,0-10.82-4.84-10.82-10.82v-3.21c0-5.98,4.84-10.82,10.82-10.82h340.89V287.59z"/>
	<rect x="165.22" y="287.63" class="st3" width="334.65" height="39.31"/>
	<path class="st4" d="M429.12,260.25h-156.7c-3.85,0-6.97-3.12-6.97-6.97V139.23c0-3.85,3.13-6.97,6.97-6.97h156.7
		c3.85,0,6.97,3.13,6.97,6.97v114.04C436.1,257.12,432.98,260.25,429.12,260.25z"/>
	<path class="st5" d="M425.68,245.41H275.87v-98.16c0-1.7,1.38-3.07,3.07-3.07h143.67c1.7,0,3.07,1.38,3.07,3.07L425.68,245.41
		L425.68,245.41z"/>
	<path class="st6" d="M427.01,247.2H265.43v-2.73c0-2,1.61-3.61,3.61-3.61H423.4c2,0,3.61,1.61,3.61,3.61L427.01,247.2L427.01,247.2
		z"/>
	<path class="st7" d="M240.66,245.45h195.41v10.35c0,3.55-2.88,6.43-6.43,6.43H248.01c-4.06,0-7.35-3.29-7.35-7.35V245.45z"/>
	<g>
		<path class="st8" d="M291.42,207.01h-57.66c-6.07,0-10.98-4.92-10.98-10.98v-56.8l22.76-22.66h45.88
			c6.07,0,10.98,4.92,10.98,10.98v68.47C302.41,202.09,297.49,207.01,291.42,207.01z"/>
		<g>
			<path class="st9" d="M287.59,143.82H237.6c-1.83,0-3.31-1.48-3.31-3.31v-5c0-1.83,1.48-3.31,3.31-3.31h49.99
				c1.83,0,3.31,1.48,3.31,3.31v5C290.89,142.34,289.41,143.82,287.59,143.82z"/>
			<path class="st10" d="M287.59,163.62H237.6c-1.83,0-3.31-1.48-3.31-3.31v-5c0-1.83,1.48-3.31,3.31-3.31h49.99
				c1.83,0,3.31,1.48,3.31,3.31v5C290.89,162.14,289.41,163.62,287.59,163.62z"/>
			<path class="st11" d="M287.59,184.21H237.6c-1.83,0-3.31-1.48-3.31-3.31v-5c0-1.83,1.48-3.31,3.31-3.31h49.99
				c1.83,0,3.31,1.48,3.31,3.31v5C290.89,182.73,289.41,184.21,287.59,184.21z"/>
		</g>
		<path class="st12" d="M242.19,139.22h-19.34v-13.07c0-5.3,4.3-9.61,9.61-9.61h13.07v19.34
			C245.54,137.73,244.04,139.22,242.19,139.22z"/>
	</g>
	<g>
		<path class="st13" d="M386.3,205.7h-64.33c-6.76,0-12.26-5.48-12.26-12.26v-63.38l25.39-25.27h51.19
			c6.76,0,12.26,5.48,12.26,12.26v76.4C398.56,200.22,393.06,205.7,386.3,205.7z"/>
		<g>
			<g class="st14">
				<path class="st15" d="M382.63,135.2h-56.99c-1.71,0-3.08-1.38-3.08-3.08v-6.8c0-1.71,1.38-3.08,3.08-3.08h56.99
					c1.71,0,3.08,1.38,3.08,3.08v6.8C385.71,133.82,384.33,135.2,382.63,135.2z"/>
			</g>
			<g class="st16">
				<path class="st15" d="M382.63,157.29h-56.99c-1.71,0-3.08-1.38-3.08-3.08v-6.8c0-1.71,1.38-3.08,3.08-3.08h56.99
					c1.71,0,3.08,1.38,3.08,3.08v6.8C385.71,155.91,384.33,157.29,382.63,157.29z"/>
			</g>
			<g class="st17">
				<path class="st15" d="M382.63,180.26h-56.99c-1.71,0-3.08-1.38-3.08-3.08v-6.8c0-1.71,1.38-3.08,3.08-3.08h56.99
					c1.71,0,3.08,1.38,3.08,3.08v6.8C385.71,178.89,384.33,180.26,382.63,180.26z"/>
			</g>
		</g>
		<path class="st18" d="M331.77,130.07h-21.96v-15.69c0-5.3,4.3-9.61,9.61-9.61h15.69v21.97
			C335.11,128.58,333.61,130.07,331.77,130.07z"/>
	</g>
	<g>
		<path class="st19" d="M448.3,233.41h-53.72c-5.65,0-10.23-4.58-10.23-10.23v-52.92l21.2-21.1h42.75c5.65,0,10.23,4.58,10.23,10.23
			v63.79C458.53,228.83,453.96,233.41,448.3,233.41z"/>
		<g>
			<g class="st14">
				<path class="st15" d="M444.73,174.54h-46.57c-1.71,0-3.08-1.38-3.08-3.08v-4.66c0-1.71,1.38-3.08,3.08-3.08h46.57
					c1.71,0,3.08,1.38,3.08,3.08v4.66C447.81,173.15,446.43,174.54,444.73,174.54z"/>
			</g>
			<g class="st16">
				<path class="st15" d="M444.73,192.98h-46.57c-1.71,0-3.08-1.38-3.08-3.08v-4.66c0-1.71,1.38-3.08,3.08-3.08h46.57
					c1.71,0,3.08,1.38,3.08,3.08v4.66C447.81,191.61,446.43,192.98,444.73,192.98z"/>
			</g>
			<g class="st17">
				<path class="st15" d="M444.73,212.17h-46.57c-1.71,0-3.08-1.38-3.08-3.08v-4.66c0-1.71,1.38-3.08,3.08-3.08h46.57
					c1.71,0,3.08,1.38,3.08,3.08v4.66C447.81,210.79,446.43,212.17,444.73,212.17z"/>
			</g>
		</g>
		<path class="st20" d="M402.22,170.26h-17.79v-11.52c0-5.3,4.3-9.61,9.61-9.61h11.52v17.79
			C405.56,168.76,404.06,170.26,402.22,170.26z"/>
	</g>
</g>
</svg>
