<?xml version="1.0" encoding="utf-8"?>
<!-- Generator: Adobe Illustrator 23.0.3, SVG Export Plug-In . SVG Version: 6.00 Build 0)  -->
<svg version="1.1" id="Слой_1" xmlns="http://www.w3.org/2000/svg" xmlns:xlink="http://www.w3.org/1999/xlink" x="0px" y="0px"
	 viewBox="0 0 500 328.45" style="enable-background:new 0 0 500 328.45;" xml:space="preserve">
<style type="text/css">
	.st0{opacity:0.21;fill:#BDE1EA;enable-background:new    ;}
	.st1{fill:#AFCAD5;}
	.st2{fill:#C0DBE6;}
	.st3{fill:#7DB2AB;}
	.st4{fill:#74A69F;}
	.st5{fill:#B69CA3;}
	.st6{fill:#8B636C;}
	.st7{fill:#FCDDB6;}
	.st8{fill:#EBCFA6;}
	.st9{fill:#FFE5C3;}
	.st10{fill:#ADD7E0;}
	.st11{opacity:0.4;fill:#A2C0C9;enable-background:new    ;}
	.st12{fill:#A2C0C9;}
	.st13{fill:#9DB9BF;}
	.st14{fill:#BDE1EA;}
	.st15{fill:#AECCD3;}
</style>
<g>
	<path class="st0" d="M500.04,4.3c-10.51-10.82-24.08,3.48-40.67,6.79c-28.67,5.72-57.47,7.14-86.21,4.25
		c-16.47-1.66-34.01-4.14-47.97,20.37c-2.32,4.07-3.92,10.58-4.01,17.85c-0.15,12.3,3.63,16.76,7.04,20.36
		c7.36,7.78,14.71,15.57,22.07,23.35c0.79,6.78-2.25,12.1-4.8,14.51c-27.78,26.18-60.04,15.67-87.25,40.81
		c-6.22,5.75-7.61,27.2-2.44,37.83c1.74,3.58,3.4,7.41,4.97,11.48c-39.43,5.21-78.65,21.34-116.77,47.99
		c-12.62,8.82-23.33,25.08-23.34,40.24c-0.39,2.69,0.55,8.55,1.24,8.55c1.59,5.18,4.76,10.02,9.95,14.1
		c8.12,6.38,18.24,9.56,28.12,12.6c9.37,2.89,26.16-7.9,35.53-5.01c0,0-5.5-21.11,19.98-20.89c94.86,0.83,189.75,1.64,284.55-7.24
		L500.04,4.3L500.04,4.3z"/>
	<g>
		<rect x="263.97" y="168.86" class="st1" width="23.2" height="92.94"/>
		<rect x="263.97" y="178.76" class="st2" width="23.2" height="9.79"/>
	</g>
	<g>
		<rect x="240.79" y="171.77" class="st2" width="23.2" height="90.02"/>
		<rect x="240.79" y="194.76" class="st1" width="23.2" height="9.79"/>
	</g>
	<g>
		<rect x="217.65" y="168.86" class="st3" width="23.2" height="92.94"/>
		<rect x="217.65" y="178.77" class="st4" width="23.2" height="9.79"/>
	</g>
	<g>
		
			<rect x="139.4" y="205.18" transform="matrix(0.5265 -0.8502 0.8502 0.5265 -96.9821 259.4283)" class="st5" width="90.03" height="23.2"/>
		
			<rect x="182.43" y="200.47" transform="matrix(0.5265 -0.8502 0.8502 0.5265 -91.5944 259.6775)" class="st6" width="9.79" height="23.2"/>
	</g>
	<path class="st7" d="M500.1,287.79H145.25c-4.82,0-8.72-3.9-8.72-8.72v-8.25c0-4.82,3.9-8.72,8.72-8.72H500.1V287.79z"/>
	<rect x="154.17" y="287.83" class="st8" width="345.93" height="40.63"/>
	<path class="st9" d="M313.24,120.08l-11.66-3.7c-1.22-0.39-1.91-1.69-1.52-2.92l7.61-24.02c0.39-1.22,1.69-1.91,2.92-1.52
		l11.66,3.7c1.22,0.39,1.91,1.69,1.52,2.92l-7.61,24.02C315.78,119.79,314.46,120.47,313.24,120.08z"/>
	<g>
		<g>
			
				<rect x="329.98" y="79.5" transform="matrix(0.302 -0.9533 0.9533 0.302 131.6669 408.7672)" class="st10" width="30" height="69.94"/>
			
				<rect x="338.45" y="91.06" transform="matrix(0.302 -0.9533 0.9533 0.302 118.0847 413.3452)" class="st11" width="5.73" height="69.94"/>
		</g>
		
			<rect x="294.42" y="100.06" transform="matrix(0.302 -0.9533 0.9533 0.302 118.8116 370.6287)" class="st12" width="36.18" height="8.24"/>
		
			<rect x="303.94" y="113.07" transform="matrix(0.302 -0.9533 0.9533 0.302 103.4978 375.7683)" class="st13" width="8.83" height="8.27"/>
	</g>
	<g>
		<g>
			
				<rect x="385.95" y="108.86" transform="matrix(0.302 -0.9533 0.9533 0.302 153.2873 472.8958)" class="st14" width="27.26" height="45.82"/>
			
				<rect x="393.64" y="119.37" transform="matrix(0.302 -0.9533 0.9533 0.302 140.9441 477.0554)" class="st11" width="5.21" height="45.82"/>
		</g>
	</g>
	<g>
		<g>
			
				<rect x="428.43" y="126.11" transform="matrix(0.302 -0.9533 0.9533 0.302 169.3933 520.6508)" class="st14" width="23.63" height="37.08"/>
			
				<rect x="435.1" y="135.22" transform="matrix(0.302 -0.9533 0.9533 0.302 158.6923 524.2623)" class="st11" width="4.51" height="37.08"/>
		</g>
	</g>
	<g>
		
			<rect x="361.37" y="121.27" transform="matrix(0.302 -0.9533 0.9533 0.302 145.3269 449.2653)" class="st12" width="36.18" height="8.24"/>
		
			<rect x="370.91" y="134.29" transform="matrix(0.302 -0.9533 0.9533 0.302 130.016 454.4135)" class="st13" width="8.83" height="8.27"/>
	</g>
	<g>
		
			<rect x="407.13" y="135.07" transform="matrix(0.302 -0.9533 0.9533 0.302 162.5633 500.4017)" class="st12" width="31.74" height="8.24"/>
		
			<rect x="415.49" y="146.49" transform="matrix(0.302 -0.9533 0.9533 0.302 149.1228 504.9132)" class="st13" width="7.75" height="8.27"/>
	</g>
	<polygon class="st14" points="402.1,165.38 391.86,163.79 393.78,142.75 405.41,144.31 	"/>
	
		<rect x="391.16" y="136" transform="matrix(0.2963 -0.9551 0.9551 0.2963 143.1604 483.8636)" class="st12" width="17.56" height="17.56"/>
	
		<rect x="395.2" y="140.04" transform="matrix(0.2963 -0.9551 0.9551 0.2963 143.1604 483.8636)" class="st13" width="9.49" height="9.49"/>
	<path class="st14" d="M418.96,166.4h-40.72v-5.06c0-1.55,1.26-2.81,2.81-2.81h35.1c1.55,0,2.81,1.26,2.81,2.81V166.4z"/>
	<polygon class="st15" points="448.25,261.89 435.3,261.94 394.78,183.62 403.39,179.17 	"/>
	<polygon class="st15" points="349.24,261.89 362.19,261.94 402.71,183.62 394.1,179.17 	"/>
	<path class="st12" d="M417.23,181.06h-37.3c-0.94,0-1.71-0.77-1.71-1.71v-13.56h40.72v13.56
		C418.94,180.3,418.17,181.06,417.23,181.06z"/>
	<path class="st12" d="M402.96,262.07h-8.49c-0.33,0-0.6-0.27-0.6-0.6v-85.36c0-0.33,0.27-0.6,0.6-0.6h8.49c0.33,0,0.6,0.27,0.6,0.6
		v85.35C403.56,261.8,403.29,262.07,402.96,262.07z"/>
</g>
</svg>
