<?xml version="1.0" encoding="utf-8"?>
<!-- Generator: Adobe Illustrator 23.0.3, SVG Export Plug-In . SVG Version: 6.00 Build 0)  -->
<svg version="1.1" id="Слой_1" xmlns="http://www.w3.org/2000/svg" xmlns:xlink="http://www.w3.org/1999/xlink" x="0px" y="0px"
	 viewBox="0 0 300 300" style="enable-background:new 0 0 300 300;" xml:space="preserve">
<style type="text/css">
	.st0{fill:#F4F4F4;}
	.st1{fill:#FFFFFF;}
	.st2{fill:#FFDA96;}
	.st3{fill:#F4E5C3;}
	.st4{fill:#FFF2D7;}
	.st5{fill:#F4F4F4;stroke:#F4F4F4;stroke-width:0.2;stroke-miterlimit:10;}
	.st6{fill:none;stroke:#F4F4F4;stroke-width:20;stroke-miterlimit:10;}
</style>
<g>
	<g>
		<circle class="st0" cx="150" cy="150" r="140.98"/>
	</g>
	<g>
		<circle class="st1" cx="150" cy="150" r="41.57"/>
	</g>
	<g>
		<path class="st2" d="M149.78,300c-28.9,0-58.09-8.31-83.78-25.68C-2.56,228-20.65,134.54,25.68,65.99
			C72-2.56,165.46-20.65,234.01,25.67c68.55,46.32,86.64,139.78,40.32,208.33l0,0C245.36,276.87,197.98,300,149.78,300z
			 M150.2,18.12c-42.38,0-84.04,20.33-109.5,58.02C-0.03,136.41,15.87,218.58,76.14,259.3c60.27,40.72,142.43,24.82,183.16-35.44h0
			c40.73-60.27,24.83-142.43-35.44-183.16C201.27,25.44,175.6,18.12,150.2,18.12z"/>
	</g>
	<g>
		<path class="st3" d="M149.82,271.23c-23.36,0-46.95-6.72-67.72-20.75c-26.84-18.14-45.01-45.64-51.17-77.44
			c-6.15-31.8,0.44-64.1,18.58-90.94s45.64-45.01,77.44-51.17c31.8-6.15,64.1,0.44,90.94,18.58
			c55.41,37.44,70.02,112.97,32.58,168.38C227.08,252.54,188.78,271.23,149.82,271.23z M150.22,46.83c-6.58,0-13.21,0.63-19.81,1.91
			c-27.05,5.23-50.44,20.69-65.86,43.52c-15.43,22.83-21.04,50.29-15.8,77.34s20.69,50.44,43.52,65.86
			c22.83,15.43,50.29,21.04,77.34,15.8c27.05-5.23,50.44-20.69,65.86-43.51s21.04-50.29,15.8-77.34
			c-5.23-27.05-20.69-50.44-43.51-65.86C190.49,52.88,170.59,46.83,150.22,46.83z"/>
	</g>
	<g>
		<path class="st4" d="M149.86,242.13c-17.75,0-35.68-5.11-51.46-15.77C56.3,197.91,45.19,140.51,73.64,98.4
			c28.45-42.11,85.85-53.21,127.96-24.76c42.1,28.45,53.21,85.85,24.76,127.96l0,0C208.57,227.92,179.47,242.13,149.86,242.13z
			 M150.11,75.99c-23.78,0-47.16,11.41-61.45,32.56c-22.85,33.82-13.93,79.93,19.89,102.79c33.82,22.85,79.93,13.93,102.79-19.89
			c22.85-33.82,13.93-79.93-19.89-102.79C178.77,80.1,164.37,75.99,150.11,75.99z"/>
	</g>
	<g>
		<path class="st5" d="M112.89,295.42c-16.71-4.26-32.49-11.36-46.9-21.1C-2.56,228-20.65,134.54,25.68,65.99L40.7,76.14
			C-0.03,136.41,15.87,218.58,76.14,259.3c12.68,8.57,26.55,14.81,41.23,18.56L112.89,295.42z"/>
	</g>
	<g>
		<path class="st5" d="M141.86,270.9c-21.28-1.42-41.93-8.52-59.7-20.53c-19.03-12.86-33.95-30.73-43.14-51.68
			c-8.93-20.37-12.12-42.78-9.2-64.79l17.98,2.38c-5.17,39.06,11.89,77.02,44.51,99.07c15.12,10.21,32.67,16.25,50.76,17.46
			L141.86,270.9z"/>
	</g>
	<g>
		<path class="st6" d="M104.14,219.38"/>
	</g>
	<g>
		<path class="st6" d="M200.8,215.88"/>
	</g>
	<g>
		<path class="st5" d="M187.69,213.79c-28.05,16.58-63.14,13.01-87.32-8.87c-2.99-2.7-5.72-5.61-8.19-8.7l-13.98,11.56
			c3.03,3.76,6.37,7.29,10.01,10.59c14.87,13.46,33.26,21.56,53.18,23.42c19.25,1.8,38.97-2.59,55.53-12.38L187.69,213.79z"/>
	</g>
	<g>
		<path class="st1" d="M149.8,253.15c-19.84,0-39.87-5.71-57.51-17.62c-22.79-15.4-38.23-38.76-43.45-65.77s0.38-54.44,15.78-77.23
			c15.4-22.79,38.76-38.23,65.77-43.45c27.01-5.23,54.44,0.38,77.23,15.78c47.06,31.8,59.47,95.95,27.67,143l0,0
			C215.41,237.28,182.89,253.15,149.8,253.15z M150.09,58.1c-29.6,0-58.68,14.2-76.46,40.51c-28.44,42.09-17.34,99.46,24.75,127.9
			c42.09,28.44,99.46,17.34,127.9-24.75l0,0c28.44-42.09,17.34-99.46-24.75-127.9C185.76,63.21,167.83,58.1,150.09,58.1z"/>
	</g>
	<g>
		<path class="st1" d="M149.8,281.96c-25.42,0-51.1-7.31-73.71-22.59C15.79,218.62-0.12,136.4,40.63,76.09
			C81.38,15.79,163.6-0.12,223.91,40.63c60.31,40.75,76.22,122.97,35.47,183.28l0,0C233.89,261.61,192.21,281.96,149.8,281.96z
			 M150.18,28.92c-38.91,0-77.16,18.67-100.54,53.27c-18.11,26.81-24.71,59.06-18.56,90.83s24.29,59.23,51.1,77.35
			c55.34,37.39,130.78,22.8,168.17-32.54l4.51,3.05l-4.51-3.05c37.39-55.34,22.79-130.78-32.54-168.17
			C197.08,35.63,173.51,28.92,150.18,28.92z"/>
	</g>
	<g>
		<path class="st1" d="M149.85,224.22c-14.66,0-28.98-4.35-41.39-12.74c-16.42-11.1-27.54-27.93-31.31-47.38
			c-3.77-19.46,0.27-39.22,11.37-55.64s27.93-27.54,47.38-31.31c19.46-3.77,39.22,0.27,55.64,11.37s27.54,27.93,31.31,47.38
			c3.77,19.46-0.27,39.22-11.37,55.64c-11.1,16.42-27.93,27.54-47.38,31.31C159.35,223.77,154.58,224.22,149.85,224.22z
			 M150.13,86.66c-4.04,0-8.11,0.39-12.16,1.17c-16.61,3.21-30.97,12.7-40.44,26.72c-9.47,14.01-12.92,30.88-9.7,47.48
			c3.21,16.61,12.7,30.97,26.72,40.44c10.84,7.33,23.16,10.84,35.36,10.84c20.35,0,40.34-9.76,52.56-27.85
			c19.55-28.93,11.92-68.37-17.01-87.92C174.86,90.37,162.64,86.66,150.13,86.66z"/>
	</g>
</g>
</svg>
