<?xml version="1.0" encoding="utf-8"?>
<!-- Generator: Adobe Illustrator 23.0.3, SVG Export Plug-In . SVG Version: 6.00 Build 0)  -->
<svg version="1.1" id="Слой_1" xmlns="http://www.w3.org/2000/svg" xmlns:xlink="http://www.w3.org/1999/xlink" x="0px" y="0px"
	 viewBox="0 0 150 141.07" style="enable-background:new 0 0 150 141.07;" xml:space="preserve">
<style type="text/css">
	.st0{fill:#FFB913;}
	.st1{fill:#FFDE5F;}
	.st2{fill:#FFB00D;}
	.st3{fill:#F7D04C;}
	.st4{fill:#D3D3D3;}
	.st5{clip-path:url(#SVGID_2_);}
	.st6{fill:#FFC72C;}
	.st7{clip-path:url(#SVGID_4_);}
	.st8{fill:#FFAB00;}
</style>
<g>
	<g>
		<path class="st0" d="M39.57,74.36l2.85,0.88c0.14,0.04,0.26,0.16,0.3,0.3l0.89,2.85c0.11,0.36,0.59,0.44,0.81,0.13l1.72-2.44
			c0.09-0.12,0.23-0.2,0.38-0.19l2.98,0.03c0.38,0,0.6-0.43,0.37-0.73l-1.79-2.39c-0.09-0.12-0.12-0.28-0.07-0.42l0.95-2.83
			c0.12-0.36-0.22-0.7-0.58-0.58l-2.82,0.96c-0.14,0.05-0.3,0.02-0.42-0.07l-2.39-1.78c-0.3-0.23-0.73-0.01-0.73,0.37l0.04,2.98
			c0,0.15-0.07,0.29-0.19,0.38l-2.43,1.73C39.14,73.77,39.21,74.25,39.57,74.36z"/>
		<circle class="st1" cx="63.01" cy="50.78" r="2.12"/>
		<circle class="st2" cx="40.36" cy="38.69" r="3.84"/>
		<circle class="st1" cx="36.44" cy="54.26" r="1.74"/>
		<path class="st0" d="M61.63,60.72l-0.69-0.1c-0.8-0.12-1.55,0.44-1.67,1.25l-2.15,15c-0.12,0.8,0.44,1.55,1.25,1.67l0.69,0.1
			c0.8,0.12,1.55-0.44,1.67-1.25l2.15-15C62.99,61.58,62.43,60.83,61.63,60.72z"/>
		<path class="st3" d="M55.66,54.44l-0.18-0.67c-0.21-0.79-1.01-1.26-1.8-1.05l-9.46,2.48c-0.79,0.21-1.26,1.01-1.05,1.8l0.18,0.67
			c0.21,0.79,1.01,1.26,1.8,1.05l9.46-2.48C55.4,56.03,55.87,55.23,55.66,54.44z"/>
		<path class="st1" d="M54,46.1l0.26-0.64c0.3-0.75-0.07-1.61-0.82-1.91l-4.95-1.98c-0.75-0.3-1.61,0.07-1.91,0.82l-0.26,0.64
			c-0.3,0.75,0.07,1.61,0.82,1.91l4.95,1.98C52.84,47.23,53.7,46.86,54,46.1z"/>
		<path class="st4" d="M58.92,52.19L58.92,52.19c0.7,1.35,2.36,1.87,3.71,1.17l19.3-10.02c1.35-0.7,1.87-2.36,1.17-3.71l0,0
			c-0.7-1.35-2.36-1.87-3.71-1.17l-19.3,10.02C58.74,49.18,58.22,50.84,58.92,52.19z"/>
		<g>
			<path class="st1" d="M64.76,37.89l9.25,17.82c0.9,1.74,3.04,2.41,4.78,1.51l51.84-26.9c1.74-0.9,2.41-3.04,1.51-4.78l-9.25-17.82
				c-0.9-1.74-3.04-2.41-4.78-1.51l-51.84,26.9C64.53,34.01,63.86,36.15,64.76,37.89z"/>
			<g>
				<defs>
					<path id="SVGID_1_" d="M64.68,37.74l9.37,18.05c0.87,1.67,2.93,2.33,4.6,1.46l52.06-27.02c1.67-0.87,2.33-2.93,1.46-4.6
						L122.8,7.58c-0.87-1.67-2.93-2.33-4.6-1.46L66.13,33.14C64.46,34.01,63.81,36.07,64.68,37.74z"/>
				</defs>
				<clipPath id="SVGID_2_">
					<use xlink:href="#SVGID_1_"  style="overflow:visible;"/>
				</clipPath>
				<g class="st5">
					
						<rect x="91.74" y="20.82" transform="matrix(-0.0804 -0.9968 0.9968 -0.0804 99.8147 143.9035)" class="st3" width="49.1" height="10.18"/>
					
						<rect x="71.96" y="26.26" transform="matrix(-0.0804 -0.9968 0.9968 -0.0804 72.8949 129.9439)" class="st3" width="48.85" height="10.18"/>
					
						<rect x="55.03" y="34.86" transform="matrix(-0.0804 -0.9968 0.9968 -0.0804 42.9256 119.5034)" class="st3" width="43.12" height="10.18"/>
				</g>
			</g>
			<path class="st0" d="M112.66,1.81l18.39,35.45c0.46,0.88,1.72,0.89,2.19,0.01l16.62-31.12c0.41-0.77-0.08-1.7-0.94-1.81
				L113.9,0.01C112.92-0.11,112.2,0.92,112.66,1.81z"/>
		</g>
	</g>
	<g>
		<circle class="st1" cx="24.31" cy="125.63" r="1.81"/>
		<circle class="st1" cx="1.48" cy="124.39" r="1.48"/>
		<path class="st6" d="M21.4,133.68l-0.15-0.05c-0.77-0.26-1.61,0.15-1.87,0.92l-1.48,4.36c-0.26,0.77,0.15,1.61,0.92,1.87
			l0.15,0.05c0.77,0.26,1.61-0.15,1.87-0.92l1.48-4.36C22.58,134.77,22.17,133.94,21.4,133.68z"/>
		<path class="st1" d="M17.56,127.33l-0.01-0.16c-0.06-0.81-0.76-1.42-1.57-1.36l-7.89,0.57c-0.81,0.06-1.42,0.76-1.36,1.57
			l0.01,0.16c0.06,0.81,0.76,1.42,1.57,1.36l7.89-0.57C17.01,128.85,17.62,128.14,17.56,127.33z"/>
		<path class="st3" d="M17.6,120.11l0.09-0.13c0.43-0.69,0.23-1.6-0.46-2.03l-9.6-6.08c-0.69-0.43-1.6-0.23-2.03,0.46l-0.09,0.13
			c-0.43,0.69-0.23,1.6,0.46,2.03l9.6,6.08C16.26,121,17.17,120.8,17.6,120.11z"/>
		<path class="st4" d="M20.66,126.17L20.66,126.17c0.38,1.24,1.68,1.94,2.92,1.56l17.76-5.38c1.24-0.38,1.94-1.68,1.56-2.92l0,0
			c-0.38-1.24-1.68-1.94-2.92-1.56l-17.76,5.38C20.99,123.62,20.29,124.93,20.66,126.17z"/>
		<path class="st0" d="M27.95,115.59l4.67,15.4c0.57,1.87,2.54,2.93,4.42,2.36l46.69-14.14c1.87-0.57,2.93-2.54,2.36-4.42
			l-4.67-15.4c-0.57-1.87-2.54-2.93-4.42-2.36l-46.69,14.14C28.44,111.74,27.38,113.71,27.95,115.59z"/>
		<g>
			<defs>
				<path id="SVGID_3_" d="M27.9,115.43l4.74,15.65c0.55,1.8,2.45,2.82,4.26,2.28l46.94-14.22c1.81-0.55,2.82-2.45,2.28-4.26
					l-4.74-15.65c-0.55-1.8-2.45-2.82-4.26-2.28l-46.94,14.22C28.37,111.72,27.35,113.63,27.9,115.43z"/>
			</defs>
			<clipPath id="SVGID_4_">
				<use xlink:href="#SVGID_3_"  style="overflow:visible;"/>
			</clipPath>
			<g class="st7">
				
					<rect x="51.95" y="108.77" transform="matrix(0.1039 -0.9946 0.9946 0.1039 -47.1754 173.8604)" class="st1" width="41.89" height="8.69"/>
				
					<rect x="34.51" y="110.21" transform="matrix(0.1039 -0.9946 0.9946 0.1039 -64.3321 157.7088)" class="st1" width="41.68" height="8.69"/>
				
					<rect x="19" y="114.33" transform="matrix(0.1039 -0.9946 0.9946 0.1039 -84.5157 143.5399)" class="st1" width="36.79" height="8.69"/>
			</g>
		</g>
		<path class="st8" d="M73.62,92.32l9.88,32.61c0.25,0.81,1.3,1.02,1.83,0.35l18.81-23.5c0.46-0.58,0.2-1.44-0.5-1.66l-28.69-9.11
			C74.14,90.76,73.38,91.51,73.62,92.32z"/>
	</g>
</g>
</svg>
