<?xml version="1.0" encoding="utf-8"?>
<!-- Generator: Adobe Illustrator 23.0.0, SVG Export Plug-In . SVG Version: 6.00 Build 0)  -->
<svg version="1.1" id="Слой_1" xmlns="http://www.w3.org/2000/svg" xmlns:xlink="http://www.w3.org/1999/xlink" x="0px" y="0px"
	 viewBox="0 0 443.44 210.39" style="enable-background:new 0 0 443.44 210.39;" xml:space="preserve">
<style type="text/css">
	.st0{opacity:0.15;fill:#C8E1EA;}
	.st1{fill:#C8DBE6;}
	.st2{fill:#B7CAD4;}
	.st3{fill:#8EB2AB;}
	.st4{fill:#84A59F;}
	.st5{fill:#F4DDB7;}
	.st6{fill:#E4CFA7;}
	.st7{fill:#C5D0DA;}
	.st8{fill:#FCF6D6;}
	.st9{fill:#E8EDF5;}
	.st10{fill:#B8C6D3;}
	.st11{fill:#FFFFFF;}
	.st12{fill:#98B8B2;}
	.st13{fill:#E3BC57;}
	.st14{fill:#AF9CA2;}
	.st15{fill:#DDEEF2;}
	.st16{fill:#DADFE0;}
	.st17{fill:#D1BAC2;}
	.st18{fill:#F2E094;}
	.st19{fill:#9BCEC4;}
	.st20{fill:#8FC1CC;}
	.st21{fill:#EAF6F9;}
	.st22{fill:#E9E9E9;}
	.st23{fill:#E0D3D7;}
	.st24{fill:#BDE0D9;}
	.st25{fill:#C8E1EA;}
	.st26{fill:#F5FDFF;}
	.st27{fill:#E3841F;}
	.st28{fill:#ECB831;}
	.st29{fill:#E7ECF4;}
	.st30{fill:#F2D06E;}
	.st31{fill:#EAC468;}
	.st32{fill:#ABC2CA;}
	.st33{fill:#CAD7EA;}
	.st34{fill:#AAC4BF;}
	.st35{fill:#F2D1C9;}
	.st36{fill:#FFBA31;}
	.st37{fill:#81636B;}
	.st38{fill:#F5DDD6;}
	.st39{fill:#A3BBC6;}
	.st40{fill:#EFCCC5;}
	.st41{fill:#EACAC3;}
	.st42{fill:#D4C59F;}
</style>
<g>
	<path class="st0" d="M443.44,210.39V14.27c0,0-60.29-56.68-136.89,55.91S197.79,96.22,139.57,121.5s-48.33,87.98-91.15,60.51
		c-40.6-26.04-48.26-23.75-48.26-23.75L0,210.35L443.44,210.39z"/>
	<path class="st5" d="M443.44,182.16H200.06c-4.92,0-8.91-3.99-8.91-8.91v0c0-4.92,3.99-8.91,8.91-8.91h243.37V182.16z"/>
	<rect x="203.39" y="182.19" class="st6" width="240.05" height="28.2"/>
	<g>
		<path class="st29" d="M398.17,114.99H285.27c-3.34,0-6.04-2.91-6.04-6.52V30.25c0-3.61,2.7-6.52,6.04-6.52h113
			c3.34,0,6.04,2.91,6.04,6.52v78.22C404.2,112.08,401.51,114.99,398.17,114.99z"/>
		<path class="st30" d="M404.2,43.8H279.23V26.14c0-2.98,2.7-5.38,6.04-5.38h113c3.34,0,6.04,2.4,6.04,5.38V43.8H404.2z"/>
		<g>
			<circle class="st31" cx="304.62" cy="27.86" r="4.22"/>
			<path class="st32" d="M304.62,29.88L304.62,29.88c-1.25,0-2.21-0.96-2.21-2.21v-8.93c0-1.25,0.96-2.21,2.21-2.21l0,0
				c1.25,0,2.21,0.96,2.21,2.21v8.83C306.83,28.82,305.87,29.88,304.62,29.88z"/>
		</g>
		<g>
			<circle class="st31" cx="379.11" cy="27.86" r="4.22"/>
			<path class="st32" d="M379.11,29.88L379.11,29.88c-1.25,0-2.21-0.96-2.21-2.21v-8.93c-0.1-1.25,0.96-2.21,2.21-2.21l0,0
				c1.25,0,2.21,0.96,2.21,2.21v8.83C381.31,28.82,380.35,29.88,379.11,29.88z"/>
		</g>
		<path class="st17" d="M296.24,61.27h-7.77c-1.34,0-2.4-1.06-2.4-2.4V51.1c0-1.34,1.06-2.4,2.4-2.4h7.77c1.34,0,2.4,1.06,2.4,2.4
			v7.77C298.64,60.22,297.58,61.27,296.24,61.27z"/>
		<path class="st17" d="M312.84,61.27h-7.77c-1.34,0-2.4-1.06-2.4-2.4V51.1c0-1.34,1.06-2.4,2.4-2.4h7.77c1.34,0,2.4,1.06,2.4,2.4
			v7.77C315.24,60.22,314.09,61.27,312.84,61.27z"/>
		<path class="st17" d="M329.06,61.27h-7.77c-1.34,0-2.4-1.06-2.4-2.4V51.1c0-1.34,1.06-2.4,2.4-2.4h7.77c1.34,0,2.4,1.06,2.4,2.4
			v7.77C331.46,60.22,330.41,61.27,329.06,61.27z"/>
		<path class="st17" d="M345.29,61.27h-7.77c-1.34,0-2.4-1.06-2.4-2.4V51.1c0-1.34,1.06-2.4,2.4-2.4h7.77c1.34,0,2.4,1.06,2.4,2.4
			v7.77C347.69,60.22,346.53,61.27,345.29,61.27z"/>
		<path class="st33" d="M296.24,77.5h-7.77c-1.34,0-2.4-1.06-2.4-2.4v-7.77c0-1.34,1.06-2.4,2.4-2.4h7.77c1.34,0,2.4,1.06,2.4,2.4
			v7.77C298.64,76.44,297.58,77.5,296.24,77.5z"/>
		<path class="st33" d="M312.84,77.5h-7.77c-1.34,0-2.4-1.06-2.4-2.4v-7.77c0-1.34,1.06-2.4,2.4-2.4h7.77c1.34,0,2.4,1.06,2.4,2.4
			v7.77C315.24,76.44,314.09,77.5,312.84,77.5z"/>
		<path class="st33" d="M329.06,77.5h-7.77c-1.34,0-2.4-1.06-2.4-2.4v-7.77c0-1.34,1.06-2.4,2.4-2.4h7.77c1.34,0,2.4,1.06,2.4,2.4
			v7.77C331.46,76.44,330.41,77.5,329.06,77.5z"/>
		<path class="st33" d="M345.29,77.5h-7.77c-1.34,0-2.4-1.06-2.4-2.4v-7.77c0-1.34,1.06-2.4,2.4-2.4h7.77c1.34,0,2.4,1.06,2.4,2.4
			v7.77C347.69,76.44,346.53,77.5,345.29,77.5z"/>
		<path class="st33" d="M296.05,93.91h-7.77c-1.34,0-2.4-1.06-2.4-2.4v-7.77c0-1.34,1.06-2.4,2.4-2.4h7.77c1.34,0,2.4,1.06,2.4,2.4
			v7.77C298.45,92.76,297.39,93.91,296.05,93.91z"/>
		<path class="st33" d="M312.65,93.91h-7.77c-1.34,0-2.4-1.06-2.4-2.4v-7.77c0-1.34,1.06-2.4,2.4-2.4h7.77c1.34,0,2.4,1.06,2.4,2.4
			v7.77C315.05,92.76,313.9,93.91,312.65,93.91z"/>
		<path class="st33" d="M328.87,93.91h-7.77c-1.34,0-2.4-1.06-2.4-2.4v-7.77c0-1.34,1.06-2.4,2.4-2.4h7.77c1.34,0,2.4,1.06,2.4,2.4
			v7.77C331.27,92.76,330.22,93.91,328.87,93.91z"/>
		<path class="st33" d="M345.09,93.91h-7.77c-1.34,0-2.4-1.06-2.4-2.4v-7.77c0-1.34,1.06-2.4,2.4-2.4h7.77c1.34,0,2.4,1.06,2.4,2.4
			v7.77C347.49,92.76,346.34,93.91,345.09,93.91z"/>
		<path class="st17" d="M361.32,61.27h-7.77c-1.34,0-2.4-1.06-2.4-2.4V51.1c0-1.34,1.06-2.4,2.4-2.4h7.77c1.34,0,2.4,1.06,2.4,2.4
			v7.77C363.71,60.22,362.66,61.27,361.32,61.27z"/>
		<path class="st17" d="M377.92,61.27h-7.77c-1.34,0-2.4-1.06-2.4-2.4V51.1c0-1.34,1.06-2.4,2.4-2.4h7.77c1.34,0,2.4,1.06,2.4,2.4
			v7.77C380.22,60.22,379.17,61.27,377.92,61.27z"/>
		<path class="st33" d="M361.32,77.5h-7.77c-1.34,0-2.4-1.06-2.4-2.4v-7.77c0-1.34,1.06-2.4,2.4-2.4h7.77c1.34,0,2.4,1.06,2.4,2.4
			v7.77C363.71,76.44,362.66,77.5,361.32,77.5z"/>
		<path class="st33" d="M377.92,77.5h-7.77c-1.34,0-2.4-1.06-2.4-2.4v-7.77c0-1.34,1.06-2.4,2.4-2.4h7.77c1.34,0,2.4,1.06,2.4,2.4
			v7.77C380.22,76.44,379.17,77.5,377.92,77.5z"/>
		<path class="st33" d="M361.51,93.91h-7.77c-1.34,0-2.4-1.06-2.4-2.4v-7.77c0-1.34,1.06-2.4,2.4-2.4h7.77c1.34,0,2.4,1.06,2.4,2.4
			v7.77C363.91,92.76,362.85,93.91,361.51,93.91z"/>
		<path class="st33" d="M378.02,93.91h-7.77c-1.34,0-2.4-1.06-2.4-2.4v-7.77c0-1.34,1.06-2.4,2.4-2.4h7.77c1.34,0,2.4,1.06,2.4,2.4
			v7.77C380.42,92.76,379.36,93.91,378.02,93.91z"/>
		<path class="st17" d="M394.62,61.46h-7.77c-1.34,0-2.4-1.06-2.4-2.4v-7.77c0-1.34,1.06-2.4,2.4-2.4h7.77c1.34,0,2.4,1.06,2.4,2.4
			v7.77C397.02,60.4,395.97,61.46,394.62,61.46z"/>
		<path class="st33" d="M394.62,77.68h-7.77c-1.34,0-2.4-1.06-2.4-2.4V67.5c0-1.34,1.06-2.4,2.4-2.4h7.77c1.34,0,2.4,1.06,2.4,2.4
			v7.77C397.02,76.62,395.97,77.68,394.62,77.68z"/>
		<path class="st33" d="M394.43,94.09h-7.77c-1.34,0-2.4-1.06-2.4-2.4v-7.77c0-1.34,1.06-2.4,2.4-2.4h7.77c1.34,0,2.4,1.06,2.4,2.4
			v7.77C396.83,92.94,395.78,94.09,394.43,94.09z"/>
		<g>
			<path class="st33" d="M296.05,109.2h-7.77c-1.34,0-2.4-1.06-2.4-2.4v-7.77c0-1.34,1.06-2.4,2.4-2.4h7.77c1.34,0,2.4,1.06,2.4,2.4
				v7.77C298.45,108.05,297.39,109.2,296.05,109.2z"/>
			<path class="st33" d="M312.65,109.2h-7.77c-1.34,0-2.4-1.06-2.4-2.4v-7.77c0-1.34,1.06-2.4,2.4-2.4h7.77c1.34,0,2.4,1.06,2.4,2.4
				v7.77C315.05,108.05,313.9,109.2,312.65,109.2z"/>
			<path class="st33" d="M328.87,109.2h-7.77c-1.34,0-2.4-1.06-2.4-2.4v-7.77c0-1.34,1.06-2.4,2.4-2.4h7.77c1.34,0,2.4,1.06,2.4,2.4
				v7.77C331.27,108.05,330.22,109.2,328.87,109.2z"/>
			<path class="st33" d="M345.09,109.2h-7.77c-1.34,0-2.4-1.06-2.4-2.4v-7.77c0-1.34,1.06-2.4,2.4-2.4h7.77c1.34,0,2.4,1.06,2.4,2.4
				v7.77C347.49,108.05,346.34,109.2,345.09,109.2z"/>
			<path class="st33" d="M361.51,109.2h-7.77c-1.34,0-2.4-1.06-2.4-2.4v-7.77c0-1.34,1.06-2.4,2.4-2.4h7.77c1.34,0,2.4,1.06,2.4,2.4
				v7.77C363.91,108.05,362.85,109.2,361.51,109.2z"/>
			<path class="st33" d="M378.02,109.2h-7.77c-1.34,0-2.4-1.06-2.4-2.4v-7.77c0-1.34,1.06-2.4,2.4-2.4h7.77c1.34,0,2.4,1.06,2.4,2.4
				v7.77C380.42,108.05,379.36,109.2,378.02,109.2z"/>
			<path class="st33" d="M394.43,109.38h-7.77c-1.34,0-2.4-1.06-2.4-2.4v-7.77c0-1.34,1.06-2.4,2.4-2.4h7.77
				c1.34,0,2.4,1.06,2.4,2.4v7.77C396.83,108.23,395.78,109.38,394.43,109.38z"/>
		</g>
	</g>
	<g>
		<g>
			<path class="st34" d="M400.59,162.74h-32.87c-7.85,0-14.22-6.37-14.22-14.22v0c0-10.77,8.73-19.5,19.5-19.5h22.31
				c10.77,0,19.5,8.73,19.5,19.5v0C414.81,156.38,408.44,162.74,400.59,162.74z"/>
			<g>
				<path class="st35" d="M384.15,137.12L384.15,137.12c-3.34,0-6.04-2.71-6.04-6.04v-8.55c0-3.34,2.71-6.04,6.04-6.04h0
					c3.34,0,6.04,2.71,6.04,6.04v8.55C390.2,134.42,387.49,137.12,384.15,137.12z"/>
				<g>
					<g>
						<path class="st36" d="M372.91,103.75c-0.05,1.15-0.15,2.23-0.28,3.18c-0.99,6.93,0.51,14.89,0.87,21.87
							c0.39,7.59,0.77,15.18,1.16,22.77c0.16,3.22,0.26,6.72-1.6,9.36c-0.54,0.78-1.27,1.46-2.17,1.75c-1.95,0.62-3.9-0.71-5.7-1.69
							c-2.28-1.25-4.84-2.01-7.43-2.2c-3.98-0.29-8.73,0.43-11.27-2.64c-3.03-3.66-0.11-9.3-1.38-13.87
							c-0.67-2.43-2.47-4.36-3.92-6.43c-1.44-2.07-2.59-4.7-1.73-7.07c1.41-3.88,7.2-4.71,8.57-8.6c0.42-1.18,0.34-2.47,0.26-3.72
							c-0.65-10.48-4.92-33.6,12.56-33.6C370.93,82.86,373.26,95.37,372.91,103.75z"/>
						<path class="st14" d="M363.38,88.81c0,0-12.03,2.23-11.78,6.32c0.25,4.09,13.14,8.68,13.14,8.68l3.22-13.14L363.38,88.81z"/>
						<path class="st14" d="M367.06,85.44c0,0-1.79-12.1,2.16-13.19c3.95-1.09,12.47,9.62,12.47,9.62l-11.39,7.31L367.06,85.44z"/>
						<circle class="st37" cx="367.48" cy="89.43" r="4.22"/>
					</g>
					<g>
						<path class="st36" d="M398.42,126.35c-0.09,10.94,2.79,21.89,8.25,31.38c5.72-1.35,11.44-2.7,17.16-4.06
							c0.67-0.16,1.35-0.33,1.89-0.75c1.91-1.5,0.57-4.47-0.08-6.81c-1.96-7.05,4.21-14.44,2.33-21.51
							c-0.77-2.88-2.79-5.27-3.78-8.08c-1.52-4.34-0.41-9.11-0.7-13.69c-0.51-7.96-6.73-19.97-16.03-19.97
							c-7.09,0-12.83,9.37-12.83,20.92c0,11.55-1.3,17.57,12.46,21.66c1.12-10.97,8.37-10.97,13.2-21.66
							c1.65-3.65,1.47-7.28,0.23-10.47"/>
						<path class="st14" d="M404.92,88.81c0,0,12.03,2.23,11.78,6.32c-0.25,4.09-13.14,8.68-13.14,8.68l-3.22-13.14L404.92,88.81z"
							/>
						<path class="st14" d="M401.24,85.44c0,0,1.79-12.1-2.16-13.19c-3.95-1.09-12.47,9.62-12.47,9.62L398,89.18L401.24,85.44z"/>
						<circle class="st37" cx="400.83" cy="89.43" r="4.22"/>
					</g>
					<circle class="st36" cx="384.42" cy="101.98" r="21.01"/>
					<ellipse class="st38" cx="384.65" cy="107.18" rx="18.41" ry="20.83"/>
					
						<ellipse transform="matrix(0.2782 -0.9605 0.9605 0.2782 183.8361 464.1282)" class="st38" cx="400.74" cy="109.74" rx="5.54" ry="4.71"/>
					
						<ellipse transform="matrix(0.9928 -0.1195 0.1195 0.9928 -10.5488 44.8065)" class="st38" cx="368.18" cy="110.33" rx="4.71" ry="5.54"/>
					<path class="st36" d="M366.05,105c0,0,13.33,0.2,18.78-9.1c3.84,7.93,18.13,8.68,18.13,8.68s-0.4-17.85-18.32-18.22
						C366.73,85.98,366.05,105,366.05,105z"/>
				</g>
			</g>
		</g>
		<path class="st39" d="M419.57,164.39h-66c-2.74,0-4.97-2.22-4.97-4.97v-0.41c0-1.2,0.97-2.17,2.17-2.17h71.59
			c1.2,0,2.17,0.97,2.17,2.17v0.41C424.53,162.17,422.31,164.39,419.57,164.39z"/>
		<path class="st2" d="M417.89,164.39h-62.65c-2.02,0-3.66-1.64-3.66-3.66v-42.92c0-2.02,1.64-3.66,3.66-3.66h62.65
			c2.02,0,3.66,1.64,3.66,3.66v42.92C421.56,162.75,419.92,164.39,417.89,164.39z"/>
		<circle class="st38" cx="354.45" cy="138.44" r="5.72"/>
		<circle class="st38" cx="420.2" cy="138.73" r="5.72"/>
	</g>
	<g>
		<circle class="st26" cx="365.28" cy="123.01" r="11.49"/>
		<g>
			<path class="st18" d="M364.59,127.45L364.59,127.45c-0.56,0.56-1.47,0.56-2.04,0l-3.42-3.42c-0.56-0.56-0.56-1.47,0-2.04l0,0
				c0.56-0.56,1.47-0.56,2.04,0l3.42,3.42C365.15,125.97,365.15,126.89,364.59,127.45z"/>
			<path class="st18" d="M362.54,127.45L362.54,127.45c0.56,0.56,1.47,0.56,2.04,0l6.85-6.85c0.56-0.56,0.56-1.47,0-2.04l0,0
				c-0.56-0.56-1.47-0.56-2.04,0l-6.85,6.85C361.98,125.97,361.98,126.89,362.54,127.45z"/>
		</g>
	</g>
	<g>
		<g>
			<path class="st40" d="M388.62,110.15c2.4,1.56,5.44,1.33,7.38-0.81c0.54-0.59-0.34-1.48-0.88-0.88
				c-1.58,1.74-3.93,1.88-5.86,0.61C388.57,108.63,387.94,109.71,388.62,110.15L388.62,110.15z"/>
		</g>
	</g>
	<g>
		<g>
			<path class="st40" d="M375.59,110.41c2.4,1.56,5.44,1.33,7.38-0.81c0.54-0.59-0.34-1.48-0.88-0.88
				c-1.58,1.74-3.93,1.88-5.86,0.61C375.55,108.89,374.92,109.97,375.59,110.41L375.59,110.41z"/>
		</g>
	</g>
	<g>
		<g>
			<path class="st41" d="M291.42,114.24c2.4,1.56,5.44,1.33,7.38-0.81c0.54-0.59-0.34-1.48-0.88-0.88
				c-1.58,1.74-3.93,1.88-5.86,0.61C291.38,112.72,290.75,113.8,291.42,114.24L291.42,114.24z"/>
		</g>
	</g>
	<g>
		<g>
			<path class="st41" d="M278.31,114.04c2.29,1.86,5.31,1.97,7.54-0.01c0.6-0.54-0.28-1.42-0.88-0.88
				c-1.71,1.51-4.09,1.38-5.77,0.01C278.58,112.65,277.69,113.53,278.31,114.04L278.31,114.04z"/>
		</g>
	</g>
	<g>
		<circle class="st23" cx="252.47" cy="149.85" r="10.04"/>
		<g>
			<path class="st21" d="M250.27,152.98c0,0.34-0.27,0.61-0.61,0.61h-1.68c-0.34,0-0.61-0.27-0.61-0.61v-4.78
				c0-0.34,0.27-0.61,0.61-0.61h1.68c0.34,0,0.61,0.27,0.61,0.61V152.98z"/>
			<path class="st21" d="M251.5,153.59c-0.34,0-0.61-0.27-0.61-0.61v-4.78c0-0.76,2.41-2.15,2.54-2.9c0.08-0.48-0.03-1.71,0.31-1.71
				c0.56,0,1.29,0.22,1.29,1.47c0,1.1-0.72,2.54-0.72,2.54h2.92c0.46,0,0.83,0.37,0.83,0.83c0,0.4-0.28,0.73-0.65,0.81
				c0.19,0.15,0.31,0.39,0.31,0.65c0,0.4-0.28,0.73-0.65,0.81c0.19,0.15,0.31,0.39,0.31,0.65c0,0.4-0.28,0.73-0.65,0.81
				c0.19,0.15,0.31,0.39,0.31,0.65c0,0.46-0.37,0.83-0.83,0.83L251.5,153.59z"/>
		</g>
	</g>
	<g>
		<path class="st1" d="M305.91,161.24h-33.72c-6.24,0-11.29-5.06-11.29-11.29v0c0-10.87,8.81-19.68,19.68-19.68h16.96
			c10.87,0,19.68,8.81,19.68,19.68v0C317.2,156.18,312.15,161.24,305.91,161.24z"/>
		<g>
			<path class="st35" d="M289.32,136.45h-1.13c-2.75,0-4.99-2.23-4.99-4.99v-5.06c0-2.75,2.23-4.99,4.99-4.99h1.13
				c2.75,0,4.99,2.23,4.99,4.99v5.06C294.31,134.22,292.08,136.45,289.32,136.45z"/>
			<g>
				<path class="st42" d="M308.3,108.1c0,10.66-8.64,19.3-19.3,19.3c-10.66,0-19.3-8.64-19.3-19.3s10.62-25.54,28.78-14.5
					C305.83,94.34,308.3,101.08,308.3,108.1z"/>
				<ellipse class="st38" cx="289.21" cy="112.88" rx="16.91" ry="19.13"/>
				
					<ellipse transform="matrix(0.2782 -0.9605 0.9605 0.2782 108.7313 375.1671)" class="st38" cx="304" cy="115.24" rx="5.08" ry="4.33"/>
				
					<ellipse transform="matrix(0.9928 -0.1195 0.1195 0.9928 -11.8746 33.5971)" class="st38" cx="274.09" cy="115.77" rx="4.33" ry="5.08"/>
				<path class="st42" d="M272.13,110.88c0,0,19.69-0.76,24.7-9.3c3.53,7.29,9.2,8.92,9.2,8.92s-0.43-17.63-16.89-17.97
					C272.69,92.18,272.13,110.88,272.13,110.88z"/>
			</g>
		</g>
		<path class="st39" d="M317.87,164.27h-57.67c-2.4,0-4.34-1.94-4.34-4.34v-0.36c0-1.05,0.85-1.9,1.9-1.9h62.55
			c1.05,0,1.9,0.85,1.9,1.9v0.36C322.21,162.33,320.27,164.27,317.87,164.27z"/>
		<path class="st19" d="M316.41,164.27h-54.74c-1.77,0-3.2-1.43-3.2-3.2v-37.5c0-1.77,1.43-3.2,3.2-3.2h54.74
			c1.77,0,3.2,1.43,3.2,3.2v37.5C319.61,162.84,318.18,164.27,316.41,164.27z"/>
	</g>
	<g>
		<circle class="st8" cx="263.91" cy="128.33" r="10.04"/>
		<g>
			<path class="st7" d="M263.3,132.21L263.3,132.21c-0.49,0.49-1.29,0.49-1.78,0l-2.99-2.99c-0.49-0.49-0.49-1.29,0-1.78l0,0
				c0.49-0.49,1.29-0.49,1.78,0l2.99,2.99C263.8,130.92,263.8,131.72,263.3,132.21z"/>
			<path class="st7" d="M261.52,132.21L261.52,132.21c0.49,0.49,1.29,0.49,1.78,0l5.98-5.98c0.49-0.49,0.49-1.29,0-1.78l0,0
				c-0.49-0.49-1.29-0.49-1.78,0l-5.98,5.98C261.03,130.92,261.03,131.72,261.52,132.21z"/>
		</g>
	</g>
</g>
</svg>
