<?xml version="1.0" encoding="utf-8"?>
<!-- Generator: Adobe Illustrator 23.0.3, SVG Export Plug-In . SVG Version: 6.00 Build 0)  -->
<svg version="1.1" id="Слой_1" xmlns="http://www.w3.org/2000/svg" xmlns:xlink="http://www.w3.org/1999/xlink" x="0px" y="0px"
	 viewBox="0 0 652.6 313.67" style="enable-background:new 0 0 652.6 313.67;" xml:space="preserve">
<style type="text/css">
	.st0{fill:#9EC3BE;}
	.st1{fill:url(#SVGID_1_);}
	.st2{fill:url(#SVGID_2_);}
	.st3{fill:url(#SVGID_3_);}
	.st4{fill:url(#SVGID_4_);}
	.st5{fill:url(#SVGID_5_);}
	.st6{fill:#FFFFFF;}
	.st7{clip-path:url(#SVGID_7_);}
	.st8{opacity:0.43;fill:url(#SVGID_8_);}
	.st9{opacity:0.63;fill:url(#SVGID_9_);}
	.st10{opacity:0.69;fill:url(#SVGID_10_);}
	.st11{opacity:0.54;fill:url(#SVGID_11_);}
	.st12{opacity:0.43;fill:url(#SVGID_12_);}
	.st13{opacity:0.68;fill:url(#SVGID_13_);}
	.st14{opacity:0.49;fill:url(#SVGID_14_);}
	.st15{opacity:0.78;fill:url(#SVGID_15_);}
	.st16{opacity:0.74;fill:url(#SVGID_16_);}
	.st17{fill:url(#SVGID_17_);}
	.st18{fill:url(#SVGID_18_);}
	.st19{fill:url(#SVGID_19_);}
	.st20{fill:url(#SVGID_20_);}
	.st21{fill:url(#SVGID_21_);}
	.st22{fill:url(#SVGID_22_);}
	.st23{fill:url(#SVGID_23_);}
	.st24{fill:url(#SVGID_24_);}
	.st25{opacity:0.65;fill:#FFFFFF;}
	.st26{opacity:0.42;fill:#FFFFFF;}
	.st27{fill:#F1AC4C;}
	.st28{fill:#314448;}
	.st29{fill:url(#SVGID_25_);}
	.st30{fill:#EFBB4E;}
	.st31{fill:#FF8400;}
	.st32{clip-path:url(#SVGID_27_);}
	.st33{fill:#E76344;}
	.st34{fill:#F67B3E;}
	.st35{clip-path:url(#SVGID_29_);}
	.st36{fill:#DD4C43;}
	.st37{fill:#FD706C;}
	.st38{fill:#6C9791;}
	.st39{fill:#9ABCB6;}
	.st40{fill:#D3D3D3;}
	.st41{fill:#FFDFD6;}
	.st42{fill:url(#SVGID_30_);}
	.st43{fill:#AEC9D4;}
	.st44{fill:#808080;}
	.st45{fill:url(#SVGID_31_);}
	.st46{fill:#EAEAEA;}
	.st47{opacity:0.42;clip-path:url(#SVGID_33_);}
	.st48{opacity:0.68;fill:#D3D3D3;}
	.st49{opacity:0.39;}
	.st50{clip-path:url(#SVGID_35_);}
	.st51{opacity:0.18;}
	.st52{opacity:0.08;}
	.st53{clip-path:url(#SVGID_37_);}
	.st54{fill:#BCE0E9;}
	.st55{fill:#9CB8BE;}
	.st56{clip-path:url(#SVGID_38_);}
	.st57{opacity:0.75;}
	.st58{fill:#F0B24B;}
	.st59{fill:#EFA24B;}
	.st60{clip-path:url(#SVGID_40_);}
	.st61{fill:#FFCC72;}
	.st62{clip-path:url(#SVGID_42_);}
	.st63{fill:#EC8949;}
	.st64{clip-path:url(#SVGID_43_);}
	.st65{fill:#606060;}
	.st66{fill:#C4A987;}
	.st67{fill:#EACEA5;}
	.st68{fill:#B1977A;}
	.st69{clip-path:url(#SVGID_44_);}
	.st70{fill:#CCB68F;}
	.st71{fill:url(#SVGID_46_);}
	.st72{fill:url(#SVGID_47_);}
	.st73{fill:#FFEFAD;}
	.st74{fill:#FFF9E5;}
	.st75{fill:none;stroke:#B1977A;stroke-width:0.25;stroke-miterlimit:10;}
	.st76{fill:#E87446;}
	.st77{clip-path:url(#SVGID_49_);}
	.st78{fill:none;stroke:#FFE8C3;stroke-miterlimit:10;}
	.st79{fill:url(#SVGID_50_);}
	.st80{fill:url(#SVGID_51_);}
	.st81{fill:#E7F9FF;}
	.st82{fill:#BFBFBF;}
	.st83{fill:#A7A7A7;}
	.st84{fill:#C0C0C0;}
	.st85{fill:#A1BFC8;}
	.st86{fill:#A9CEC9;}
	.st87{fill:#76A09A;}
	.st88{fill:#7FAAA3;}
	.st89{fill:#8AB2AC;}
	.st90{fill:#93BAB5;}
	.st91{opacity:0.57;}
	.st92{fill:#FCF4D4;}
	.st93{fill:#E86A46;}
	.st94{fill:#8A636C;}
	.st95{fill:#B59BA2;}
	.st96{fill:url(#SVGID_52_);}
	.st97{fill:url(#SVGID_54_);}
	.st98{fill:url(#SVGID_55_);}
	.st99{fill:url(#SVGID_56_);}
	.st100{fill:url(#SVGID_58_);}
	.st101{clip-path:url(#SVGID_60_);}
	.st102{fill:#B5D9D5;}
	.st103{fill:#C0E4E0;}
	.st104{clip-path:url(#SVGID_62_);}
	.st105{clip-path:url(#SVGID_64_);}
	.st106{opacity:0.69;}
	.st107{fill:url(#SVGID_65_);}
	.st108{fill:url(#SVGID_66_);}
	.st109{opacity:0.5;}
	.st110{fill:url(#SVGID_67_);}
	.st111{fill:url(#SVGID_68_);}
	.st112{opacity:0.71;}
	.st113{fill:url(#SVGID_69_);}
	.st114{fill:url(#SVGID_70_);}
	.st115{fill:url(#SVGID_71_);}
	.st116{fill:url(#SVGID_72_);}
	.st117{fill:url(#SVGID_73_);}
	.st118{fill:url(#SVGID_74_);}
	.st119{opacity:0.47;}
	.st120{fill:url(#SVGID_75_);}
	.st121{fill:url(#SVGID_76_);}
	.st122{opacity:0.49;}
	.st123{fill:url(#SVGID_77_);}
	.st124{fill:url(#SVGID_78_);}
	.st125{opacity:0.56;}
	.st126{fill:url(#SVGID_79_);}
	.st127{fill:url(#SVGID_80_);}
	.st128{clip-path:url(#SVGID_82_);}
	.st129{fill:url(#SVGID_83_);}
	.st130{fill:url(#SVGID_84_);}
	.st131{opacity:0.54;}
	.st132{fill:url(#SVGID_85_);}
	.st133{fill:url(#SVGID_86_);}
	.st134{opacity:0.63;}
	.st135{fill:url(#SVGID_87_);}
	.st136{fill:url(#SVGID_88_);}
	.st137{fill:url(#SVGID_89_);}
	.st138{fill:url(#SVGID_90_);}
	.st139{clip-path:url(#SVGID_92_);}
	.st140{clip-path:url(#SVGID_94_);}
	.st141{fill:#535353;}
	.st142{fill:#F0F0F0;}
	.st143{fill:#E1E1E1;}
	.st144{clip-path:url(#SVGID_96_);}
	.st145{fill:url(#SVGID_97_);}
	.st146{clip-path:url(#SVGID_98_);}
	.st147{clip-path:url(#SVGID_99_);}
	.st148{clip-path:url(#SVGID_101_);}
	.st149{fill:url(#SVGID_102_);}
	.st150{fill:url(#SVGID_103_);}
	.st151{fill:url(#SVGID_104_);}
	.st152{fill:url(#SVGID_105_);}
	.st153{clip-path:url(#SVGID_107_);}
	.st154{clip-path:url(#SVGID_109_);}
	.st155{fill:#CBEEF8;}
	.st156{clip-path:url(#SVGID_110_);}
	.st157{fill:url(#SVGID_112_);}
	.st158{clip-path:url(#SVGID_113_);}
	.st159{fill:url(#SVGID_114_);}
	.st160{clip-path:url(#SVGID_116_);}
	.st161{clip-path:url(#SVGID_117_);}
	.st162{clip-path:url(#SVGID_118_);}
	.st163{clip-path:url(#SVGID_119_);}
	.st164{fill:#B4D8DC;}
	.st165{clip-path:url(#SVGID_120_);}
	.st166{fill:#5D8681;}
	.st167{fill:url(#SVGID_121_);}
	.st168{clip-path:url(#SVGID_122_);}
	.st169{fill:#DDF3F7;}
	.st170{fill:#E4A96F;}
	.st171{fill:url(#SVGID_123_);}
	.st172{fill:#EAB278;}
	.st173{fill:url(#SVGID_124_);}
	.st174{fill:url(#SVGID_125_);}
	.st175{fill:#DA9D6B;}
	.st176{opacity:0.74;fill:#DA9D6B;}
	.st177{opacity:0.5;fill:#DA9D6B;}
	.st178{opacity:0.39;fill:#DA9D6B;}
	.st179{opacity:0.36;fill:#DA9D6B;}
	.st180{opacity:0.68;fill:#DA9D6B;}
	.st181{opacity:0.86;fill:#DA9D6B;}
	.st182{opacity:0.62;fill:#DA9D6B;}
	.st183{opacity:0.63;fill:#DA9D6B;}
	.st184{fill:url(#SVGID_126_);}
	.st185{fill:url(#SVGID_127_);}
	.st186{clip-path:url(#SVGID_128_);}
	.st187{fill:url(#SVGID_130_);}
	.st188{fill:url(#SVGID_131_);}
	.st189{fill:url(#SVGID_132_);}
	.st190{fill:url(#SVGID_133_);}
	.st191{clip-path:url(#SVGID_135_);}
	.st192{clip-path:url(#SVGID_137_);}
	.st193{clip-path:url(#SVGID_140_);}
	.st194{fill:#8D8D8D;}
	.st195{clip-path:url(#SVGID_142_);}
	.st196{fill:url(#SVGID_144_);}
	.st197{clip-path:url(#SVGID_146_);}
	.st198{clip-path:url(#SVGID_149_);}
</style>
<g>
	<defs>
		<rect id="SVGID_93_" width="652.6" height="313.66"/>
	</defs>
	<clipPath id="SVGID_1_">
		<use xlink:href="#SVGID_93_"  style="overflow:visible;"/>
	</clipPath>
	<g style="clip-path:url(#SVGID_1_);">
		<path class="st6" d="M649.48,317.32c4.98-8.44-23.83-68.83-30.86-72.9c-7.03-4.07-36.29-4.08-36.29-4.08s22.17-67.23-39.47-148.01
			c-127.35-124.34-321.01,84.9-356.09,98.46c-35.09,13.55-65.67-1.45-113.98,17.57c-23.98,9.44-35.7,33.69-59.55,53.26
			c-6.79,5.57-7.37,15.76-5.61,26.03c3.13,18.2,18.81,31.57,37.28,31.75C164.01,320.54,645.12,324.71,649.48,317.32z"/>
		<path class="st6" d="M121.09,218.62L121.09,218.62c-5.32,2.54-11.7,0.28-14.24-5.04l-6.8-14.25c-2.54-5.32-0.28-11.7,5.04-14.24
			l0,0c5.32-2.54,11.7-0.28,14.24,5.04l6.8,14.25C128.67,209.7,126.41,216.08,121.09,218.62z"/>
		<circle class="st6" cx="537.61" cy="85.31" r="19.77"/>
		<path class="st141" d="M16.74,257.29c1.57-0.15,2.81,1.32,2.38,2.84c-1.15,4.08-3.82,11.31-9.21,16.52
			c-5.57,5.39-5.07-5.91-4.29-13.08c0.34-3.08,2.79-5.5,5.88-5.79L16.74,257.29z"/>
		<g>
			<path class="st142" d="M295.38,246.79c6.59,3.24,13.55,5.54,20.65,7.11c7.1,1.59,14.36,2.31,21.62,2.71
				c7.26,0.43,14.56,0.49,21.88,0.47c3.66,0,7.33,0,11,0.04l5.52,0.07l5.53,0.16c7.38,0.28,14.81,0.8,22.19,2.02
				c1.86,0.3,3.86,0.67,5.9,1.52c1.02,0.43,2.06,0.99,3.02,1.76c0.95,0.8,1.81,1.67,2.49,3.09c0.63,1.35,0.77,2.82,0.6,4.19
				c-0.18,1.37-0.71,2.67-1.55,3.82c-0.44,0.56-0.94,1.1-1.56,1.54c-0.15,0.12-0.31,0.22-0.47,0.31l-0.25,0.15l-0.12,0.07
				c0.16-0.15-0.62,0.49,0.67-0.51c1.02-0.88,1.04-3.15-0.31-4.06c-1.51-0.96-2.45-0.42-2-0.56l0.28-0.03
				c0.19-0.01,0.38-0.04,0.57-0.03c1.51-0.02,2.91,0.42,4.11,1.15c1.2,0.73,2.24,1.78,2.92,3.15c0.7,1.35,0.89,3.07,0.56,4.53
				c-0.31,1.48-1.04,2.75-2.01,3.78c-0.98,1.02-2.25,1.83-3.75,2.2l-0.57,0.11l-0.14,0.02c-0.31-0.04-0.05,0.25,1.35-0.59
				c0.94-0.77,1.4-2.08,0.78-3.45c-0.86-1.54-2.3-1.59-1.74-1.48c0.33,0.09,0.61,0.19,0.89,0.3c0.55,0.21,1.05,0.44,1.56,0.7
				c1,0.52,1.98,1.14,2.93,2.06c0.47,0.46,0.95,1,1.35,1.71c0.21,0.33,0.38,0.75,0.53,1.16c0.13,0.43,0.25,0.95,0.27,1.28
				c0.16,1.47-0.12,2.91-0.67,4.17c-0.56,1.26-1.38,2.37-2.46,3.25c-0.27,0.22-0.55,0.43-0.85,0.62l-0.23,0.14l-0.11,0.07
				c-0.15,0.09,0.26-0.15,0.38-0.27c0.38-0.31,0.71-0.8,0.85-1.34c0.14-0.54,0.12-1.1-0.08-1.62c-0.19-0.52-0.57-0.99-1.03-1.29
				c-0.23-0.15-0.47-0.26-0.7-0.33c-0.3-0.08-0.42-0.09-0.28-0.06l0.55,0.12c0.36,0.09,0.73,0.17,1.06,0.33
				c1.39,0.54,2.51,1.46,3.34,2.45c0.84,1,1.47,2.1,1.88,3.23c0.42,1.14,0.7,2.31,0.77,3.51c0.08,1.2,0.02,2.44-0.31,3.67
				c-0.13,0.62-0.39,1.22-0.64,1.82c-0.3,0.59-0.63,1.2-0.97,1.63c-0.66,0.96-1.46,1.81-2.31,2.57c-1.71,1.5-3.65,2.53-5.55,3.3
				c-1.92,0.78-3.83,1.29-5.7,1.73c-1.89,0.43-3.68,0.74-5.5,1.09c-1.82,0.33-3.63,0.71-5.46,1c-7.29,1.24-14.61,2.26-21.95,3.05
				c-14.69,1.46-29.41,2.29-44.12,2.42c-14.71,0.24-29.39-0.1-44.05-0.49c-7.32-0.27-14.68-0.34-22.03-1.09
				c-3.67-0.38-7.33-0.91-10.93-1.74c-3.59-0.84-7.12-1.96-10.48-3.43c3.47,1.19,7.05,2,10.65,2.54c3.6,0.56,7.24,0.85,10.88,0.97
				c7.28,0.25,14.59-0.04,21.93-0.2c7.33-0.15,14.65-0.28,21.97-0.5c7.32-0.21,14.63-0.39,21.93-0.74
				c7.3-0.32,14.59-0.77,21.86-1.28c7.28-0.52,14.52-1.26,21.75-2.11c7.22-0.91,14.43-1.89,21.58-3.18c1.79-0.3,3.57-0.68,5.35-1.02
				c1.78-0.35,3.59-0.68,5.28-1.08c3.36-0.8,6.56-1.9,8.66-3.76c0.52-0.46,1-0.95,1.37-1.5c0.23-0.29,0.31-0.5,0.45-0.72
				c0.08-0.25,0.22-0.48,0.27-0.77c0.3-1.08,0.2-2.46-0.23-3.62c-0.42-1.17-1.21-2.09-1.86-2.3c-0.08-0.06-0.17-0.05-0.25-0.08
				c-0.04-0.01-0.08-0.02-0.12-0.04c0.09,0.01-0.1-0.01-0.45-0.1c-0.29-0.09-0.58-0.21-0.86-0.4c-0.56-0.36-1.01-0.93-1.24-1.56
				c-0.23-0.62-0.27-1.31-0.1-1.96c0.17-0.65,0.57-1.24,1.03-1.63c0.16-0.16,0.63-0.42,0.53-0.37l0.03-0.02l0.07-0.04
				c0.09-0.05,0.18-0.12,0.26-0.19c0.35-0.27,0.64-0.67,0.83-1.08c0.18-0.42,0.26-0.84,0.22-1.19c-0.01-0.14-0.02-0.05,0-0.07
				c-0.02-0.01,0-0.03-0.05-0.08c-0.04-0.09-0.17-0.26-0.35-0.43c-0.36-0.36-0.93-0.76-1.55-1.08c-0.31-0.16-0.64-0.32-0.95-0.43
				c-0.15-0.06-0.3-0.11-0.41-0.14c0.51,0.09-1,0.03-1.88-1.56c-0.65-1.42-0.17-2.79,0.82-3.6c1.45-0.87,1.77-0.58,1.52-0.63
				l0.02-0.01c0.03-0.01,0.07-0.01,0.1-0.01c0.57-0.08,1.37-0.89,1.48-1.55c0.06-0.33,0.05-0.54-0.08-0.82
				c-0.12-0.28-0.4-0.61-0.76-0.83c-0.35-0.23-0.77-0.35-1.1-0.36c-0.04-0.01-0.08,0.01-0.12,0l-0.06,0
				c0.4-0.14-0.61,0.42-2.16-0.57c-1.4-0.95-1.38-3.3-0.32-4.21c1.32-1.04,0.61-0.42,0.81-0.6l0.02-0.02l0.05-0.03
				c0.03-0.02,0.07-0.03,0.1-0.06c0.14-0.08,0.27-0.23,0.4-0.37c0.53-0.65,0.71-1.77,0.4-2.39c-0.09-0.25-0.49-0.78-0.94-1.15
				c-0.46-0.39-1.04-0.73-1.7-1.02c-1.33-0.59-2.95-0.97-4.7-1.27l-5.32-0.86c-1.77-0.3-3.58-0.43-5.37-0.68l-2.69-0.32l-2.71-0.23
				c-1.81-0.14-3.61-0.34-5.43-0.43c-14.51-0.96-29.24-0.9-43.94-2.47c-7.33-0.84-14.68-1.93-21.78-4.03
				c-1.8-0.42-3.52-1.11-5.28-1.69l-2.61-0.9c-0.85-0.35-1.7-0.73-2.54-1.1l-2.52-1.12l-1.26-0.56l-1.21-0.67L295.38,246.79z"/>
		</g>
		<g>
			<path class="st142" d="M484.79,271.17c4.98,4.45,9.38,9.3,13.62,14.28c4.21,4.99,8.21,10.15,12.01,15.44
				c1.9,2.67,3.66,5.24,5.58,7.41c0.96,1.09,1.97,2.07,3.04,2.92c1.07,0.84,2.23,1.54,3.58,2.18c2.67,1.26,5.89,2.39,8.86,3.73
				c3.01,1.33,6,2.71,8.92,4.33c-3.34-0.16-6.61-0.57-9.87-1.03c-1.62-0.24-3.24-0.5-4.86-0.78c-1.61-0.28-3.28-0.6-5-1.1
				c-1.7-0.49-3.49-1.22-5.11-2.22c-1.64-0.97-3.06-2.18-4.37-3.42c-1.3-1.26-2.43-2.6-3.51-3.93c-1.05-1.35-2.02-2.69-2.98-4
				c-3.79-5.29-7.4-10.73-10.78-16.32C490.6,283.04,487.41,277.31,484.79,271.17z"/>
		</g>
		<g>
			<path class="st143" d="M51.85,246.78c1.33,1.28,2.48,2.42,3.62,3.43c1.14,1.01,2.25,1.82,3.4,2.39c0.56,0.32,1.17,0.48,1.78,0.71
				c0.32,0.06,0.64,0.12,0.97,0.21c0.16,0.06,0.33,0.06,0.51,0.07l0.53,0.05c0.72,0.15,1.47,0.03,2.29,0.09
				c0.81-0.01,1.64-0.12,2.61-0.06c-0.28,0.37-0.59,0.7-0.92,1.02c-0.33,0.32-0.66,0.66-1.06,0.9c-0.8,0.46-1.61,0.99-2.58,1.18
				c-0.48,0.1-0.95,0.28-1.45,0.28c-0.5,0.03-1.01,0.01-1.52,0c-0.51-0.06-1.01-0.2-1.51-0.31c-0.51-0.1-0.95-0.38-1.43-0.57
				c-1.84-0.92-3.23-2.43-4.1-4.07C52.12,250.45,51.63,248.64,51.85,246.78z"/>
		</g>
	</g>
</g>
</svg>
