<?xml version="1.0" encoding="utf-8"?>
<!-- Generator: Adobe Illustrator 23.0.3, SVG Export Plug-In . SVG Version: 6.00 Build 0)  -->
<svg version="1.1" id="Слой_1" xmlns="http://www.w3.org/2000/svg" xmlns:xlink="http://www.w3.org/1999/xlink" x="0px" y="0px"
	 viewBox="0 0 244.27 182.3" style="enable-background:new 0 0 244.27 182.3;" xml:space="preserve">
<style type="text/css">
	.st0{fill:#9EC3BE;}
	.st1{fill:url(#SVGID_1_);}
	.st2{fill:url(#SVGID_2_);}
	.st3{fill:url(#SVGID_3_);}
	.st4{fill:url(#SVGID_4_);}
	.st5{fill:url(#SVGID_5_);}
	.st6{fill:#FFFFFF;}
	.st7{clip-path:url(#SVGID_7_);}
	.st8{opacity:0.43;fill:url(#SVGID_8_);}
	.st9{opacity:0.63;fill:url(#SVGID_9_);}
	.st10{opacity:0.69;fill:url(#SVGID_10_);}
	.st11{opacity:0.54;fill:url(#SVGID_11_);}
	.st12{opacity:0.43;fill:url(#SVGID_12_);}
	.st13{opacity:0.68;fill:url(#SVGID_13_);}
	.st14{opacity:0.49;fill:url(#SVGID_14_);}
	.st15{opacity:0.78;fill:url(#SVGID_15_);}
	.st16{opacity:0.74;fill:url(#SVGID_16_);}
	.st17{fill:url(#SVGID_17_);}
	.st18{fill:url(#SVGID_18_);}
	.st19{fill:url(#SVGID_19_);}
	.st20{fill:url(#SVGID_20_);}
	.st21{fill:url(#SVGID_21_);}
	.st22{fill:url(#SVGID_22_);}
	.st23{fill:url(#SVGID_23_);}
	.st24{fill:url(#SVGID_24_);}
	.st25{opacity:0.65;fill:#FFFFFF;}
	.st26{opacity:0.42;fill:#FFFFFF;}
	.st27{fill:#F1AC4C;}
	.st28{fill:#314448;}
	.st29{fill:url(#SVGID_25_);}
	.st30{fill:#EFBB4E;}
	.st31{fill:#FF8400;}
	.st32{clip-path:url(#SVGID_27_);}
	.st33{fill:#E76344;}
	.st34{fill:#F67B3E;}
	.st35{clip-path:url(#SVGID_29_);}
	.st36{fill:#DD4C43;}
	.st37{fill:#FD706C;}
	.st38{fill:#6C9791;}
	.st39{fill:#9ABCB6;}
	.st40{fill:#D3D3D3;}
	.st41{fill:#FFDFD6;}
	.st42{fill:url(#SVGID_30_);}
	.st43{fill:#AEC9D4;}
	.st44{fill:#808080;}
	.st45{fill:url(#SVGID_31_);}
	.st46{fill:#EAEAEA;}
	.st47{opacity:0.42;clip-path:url(#SVGID_33_);}
	.st48{opacity:0.68;fill:#D3D3D3;}
	.st49{opacity:0.39;}
	.st50{clip-path:url(#SVGID_35_);}
	.st51{opacity:0.18;}
	.st52{opacity:0.08;}
	.st53{clip-path:url(#SVGID_37_);}
	.st54{fill:#BCE0E9;}
	.st55{fill:#9CB8BE;}
	.st56{clip-path:url(#SVGID_38_);}
	.st57{opacity:0.75;}
	.st58{fill:#F0B24B;}
	.st59{fill:#EFA24B;}
	.st60{clip-path:url(#SVGID_40_);}
	.st61{fill:#FFCC72;}
	.st62{clip-path:url(#SVGID_42_);}
	.st63{fill:#EC8949;}
	.st64{clip-path:url(#SVGID_43_);}
	.st65{fill:#606060;}
	.st66{fill:#C4A987;}
	.st67{fill:#EACEA5;}
	.st68{fill:#B1977A;}
	.st69{clip-path:url(#SVGID_44_);}
	.st70{fill:#CCB68F;}
	.st71{fill:url(#SVGID_46_);}
	.st72{fill:url(#SVGID_47_);}
	.st73{fill:#FFEFAD;}
	.st74{fill:#FFF9E5;}
	.st75{fill:none;stroke:#B1977A;stroke-width:0.25;stroke-miterlimit:10;}
	.st76{fill:#E87446;}
	.st77{clip-path:url(#SVGID_49_);}
	.st78{fill:none;stroke:#FFE8C3;stroke-miterlimit:10;}
	.st79{fill:url(#SVGID_50_);}
	.st80{fill:url(#SVGID_51_);}
	.st81{fill:#E7F9FF;}
	.st82{fill:#BFBFBF;}
	.st83{fill:#A7A7A7;}
	.st84{fill:#C0C0C0;}
	.st85{fill:#A1BFC8;}
	.st86{fill:#A9CEC9;}
	.st87{fill:#76A09A;}
	.st88{fill:#7FAAA3;}
	.st89{fill:#8AB2AC;}
	.st90{fill:#93BAB5;}
	.st91{opacity:0.57;}
	.st92{fill:#FCF4D4;}
	.st93{fill:#E86A46;}
	.st94{fill:#8A636C;}
	.st95{fill:#B59BA2;}
	.st96{fill:url(#SVGID_52_);}
	.st97{fill:url(#SVGID_54_);}
	.st98{fill:url(#SVGID_55_);}
	.st99{fill:url(#SVGID_56_);}
	.st100{fill:url(#SVGID_58_);}
	.st101{clip-path:url(#SVGID_60_);}
	.st102{fill:#B5D9D5;}
	.st103{fill:#C0E4E0;}
	.st104{clip-path:url(#SVGID_62_);}
	.st105{clip-path:url(#SVGID_64_);}
	.st106{opacity:0.69;}
	.st107{fill:url(#SVGID_65_);}
	.st108{fill:url(#SVGID_66_);}
	.st109{opacity:0.5;}
	.st110{fill:url(#SVGID_67_);}
	.st111{fill:url(#SVGID_68_);}
	.st112{opacity:0.71;}
	.st113{fill:url(#SVGID_69_);}
	.st114{fill:url(#SVGID_70_);}
	.st115{fill:url(#SVGID_71_);}
	.st116{fill:url(#SVGID_72_);}
	.st117{fill:url(#SVGID_73_);}
	.st118{fill:url(#SVGID_74_);}
	.st119{opacity:0.47;}
	.st120{fill:url(#SVGID_75_);}
	.st121{fill:url(#SVGID_76_);}
	.st122{opacity:0.49;}
	.st123{fill:url(#SVGID_77_);}
	.st124{fill:url(#SVGID_78_);}
	.st125{opacity:0.56;}
	.st126{fill:url(#SVGID_79_);}
	.st127{fill:url(#SVGID_80_);}
	.st128{clip-path:url(#SVGID_82_);}
	.st129{fill:url(#SVGID_83_);}
	.st130{fill:url(#SVGID_84_);}
	.st131{opacity:0.54;}
	.st132{fill:url(#SVGID_85_);}
	.st133{fill:url(#SVGID_86_);}
	.st134{opacity:0.63;}
	.st135{fill:url(#SVGID_87_);}
	.st136{fill:url(#SVGID_88_);}
	.st137{fill:url(#SVGID_89_);}
	.st138{fill:url(#SVGID_90_);}
	.st139{clip-path:url(#SVGID_92_);}
	.st140{clip-path:url(#SVGID_94_);}
	.st141{fill:#535353;}
	.st142{fill:#F0F0F0;}
	.st143{fill:#E1E1E1;}
	.st144{clip-path:url(#SVGID_96_);}
	.st145{fill:url(#SVGID_97_);}
	.st146{clip-path:url(#SVGID_98_);}
	.st147{clip-path:url(#SVGID_99_);}
	.st148{clip-path:url(#SVGID_101_);}
	.st149{fill:url(#SVGID_102_);}
	.st150{fill:url(#SVGID_103_);}
	.st151{fill:url(#SVGID_104_);}
	.st152{fill:url(#SVGID_105_);}
	.st153{clip-path:url(#SVGID_107_);}
	.st154{clip-path:url(#SVGID_109_);}
	.st155{fill:#CBEEF8;}
	.st156{clip-path:url(#SVGID_110_);}
	.st157{fill:url(#SVGID_112_);}
	.st158{clip-path:url(#SVGID_113_);}
	.st159{fill:url(#SVGID_114_);}
	.st160{clip-path:url(#SVGID_116_);}
	.st161{clip-path:url(#SVGID_117_);}
	.st162{clip-path:url(#SVGID_118_);}
	.st163{clip-path:url(#SVGID_119_);}
	.st164{fill:#B4D8DC;}
	.st165{clip-path:url(#SVGID_120_);}
	.st166{fill:#5D8681;}
	.st167{fill:url(#SVGID_121_);}
	.st168{clip-path:url(#SVGID_122_);}
	.st169{fill:#DDF3F7;}
	.st170{fill:#E4A96F;}
	.st171{fill:url(#SVGID_123_);}
	.st172{fill:#EAB278;}
	.st173{fill:url(#SVGID_124_);}
	.st174{fill:url(#SVGID_125_);}
	.st175{fill:#DA9D6B;}
	.st176{opacity:0.74;fill:#DA9D6B;}
	.st177{opacity:0.5;fill:#DA9D6B;}
	.st178{opacity:0.39;fill:#DA9D6B;}
	.st179{opacity:0.36;fill:#DA9D6B;}
	.st180{opacity:0.68;fill:#DA9D6B;}
	.st181{opacity:0.86;fill:#DA9D6B;}
	.st182{opacity:0.62;fill:#DA9D6B;}
	.st183{opacity:0.63;fill:#DA9D6B;}
	.st184{fill:url(#SVGID_126_);}
	.st185{fill:url(#SVGID_127_);}
	.st186{clip-path:url(#SVGID_128_);}
	.st187{fill:url(#SVGID_130_);}
	.st188{fill:url(#SVGID_131_);}
	.st189{fill:url(#SVGID_132_);}
	.st190{fill:url(#SVGID_133_);}
	.st191{clip-path:url(#SVGID_135_);}
	.st192{clip-path:url(#SVGID_137_);}
	.st193{clip-path:url(#SVGID_140_);}
	.st194{fill:#8D8D8D;}
	.st195{clip-path:url(#SVGID_142_);}
	.st196{fill:url(#SVGID_144_);}
	.st197{clip-path:url(#SVGID_146_);}
	.st198{clip-path:url(#SVGID_149_);}
</style>
<linearGradient id="SVGID_1_" gradientUnits="userSpaceOnUse" x1="122.1341" y1="182.2978" x2="122.1341" y2="0">
	<stop  offset="0.063" style="stop-color:#CBEEF8;stop-opacity:0.5"/>
	<stop  offset="0.9517" style="stop-color:#CBEEF8"/>
</linearGradient>
<path class="st1" d="M212.55,92.53c0.1-8.89,0.21-17.78,0.31-26.67c0.05-3.95-0.2-8.53-3.38-10.87c-3.17-2.34-7.97-1.08-10.62,1.84
	c-2.64,2.92-3.56,7-3.95,10.92c-1.46,14.72,3.17,29.28,5.18,43.94c0.56,4.1,0.92,8.3,0.18,12.38c-1.74,9.6-9.36,17.74-9.41,27.49
	c0-4.93-0.97-9.85-2.83-14.41c-1.8-4.39-4.4-8.43-6.18-12.83c-3.72-9.22-3.62-19.46-5.26-29.26c-1.85-11.03-5.98-21.68-12.06-31.06
	c-1-1.55-2.09-3.09-3.58-4.19c-4.13-3.03-10.33-1.57-14,2.02c-3.67,3.59-5.33,8.72-6.5,13.71c-2.53,0.52-4.45,2.5-6.58,3.96
	c-2.13,1.46-5.15,2.39-7.17,0.78c-1.38-1.1-1.78-2.99-2.1-4.73c-1.03-5.74-2.07-11.48-3.1-17.21c-0.41-2.26-0.87-4.63-2.37-6.37
	c-2.28-2.65-6.18-3.01-9.67-3.18c-4.76-0.23-9.52-0.47-14.28-0.7c-1.39-0.07-2.88-0.11-4.03,0.67c-1,0.68-1.54,1.84-2,2.96
	c-4.63,11.1-7.04,23.54-4.17,35.21c0.99,4.01,2.57,7.85,3.64,11.84c2.05,7.67,2.12,15.73,1.76,23.67
	c-0.82,18.24-3.82,36.3-6.82,54.3c-0.27,1.64-0.61,3.41-1.83,4.54c-1.89,1.76-5.17,1.08-6.93-0.82c-1.76-1.89-2.35-4.58-2.67-7.15
	c-1.36-11.08,1.02-22.57-1.97-33.33c-3.09-11.13-11.69-20.49-12.86-31.98c-0.7-6.81,1.33-13.7,0.47-20.5
	c-0.86-6.79-6.58-13.99-13.26-12.48c-3.35,0.76-5.88,3.49-7.85,6.3c-4.92,7.02-7.81,15.44-8.24,24
	c-5.82-12.93-9.85-26.67-11.93-40.7c-0.37-2.49-0.67-5.08,0.07-7.48c0.56-1.82,1.69-3.43,2.23-5.25c1.24-4.16-0.78-8.64-3.58-11.95
	s-6.39-5.89-9.18-9.21c-3.57-4.26-5.72-9.69-6.02-15.24c-0.14-2.55,0.37-5.54,2.61-6.76c0.96-0.52,2.08-0.61,3.16-0.7
	c49.15-3.86,98.34-7.71,147.64-8.03c15.4-0.1,31.05,0.19,45.76,4.77c10.15,3.16,26.13-3.06,36.49-0.57
	c8.81,2.12,10.25,11.86,6.97,23.38c-3.09,10.83-9.91,21.61-14.67,31.82C222.85,70.45,217.7,81.49,212.55,92.53z"/>
</svg>
