<?xml version="1.0" encoding="utf-8"?>
<!-- Generator: Adobe Illustrator 23.0.3, SVG Export Plug-In . SVG Version: 6.00 Build 0)  -->
<svg version="1.1" id="Слой_1" xmlns="http://www.w3.org/2000/svg" xmlns:xlink="http://www.w3.org/1999/xlink" x="0px" y="0px"
	 viewBox="0 0 175.61 310.21" style="enable-background:new 0 0 175.61 310.21;" xml:space="preserve">
<style type="text/css">
	.st0{fill:#9EC3BE;}
	.st1{fill:url(#SVGID_1_);}
	.st2{fill:url(#SVGID_2_);}
	.st3{fill:url(#SVGID_3_);}
	.st4{fill:url(#SVGID_4_);}
	.st5{fill:url(#SVGID_5_);}
	.st6{fill:#FFFFFF;}
	.st7{clip-path:url(#SVGID_7_);}
	.st8{opacity:0.43;fill:url(#SVGID_8_);}
	.st9{opacity:0.63;fill:url(#SVGID_9_);}
	.st10{opacity:0.69;fill:url(#SVGID_10_);}
	.st11{opacity:0.54;fill:url(#SVGID_11_);}
	.st12{opacity:0.43;fill:url(#SVGID_12_);}
	.st13{opacity:0.68;fill:url(#SVGID_13_);}
	.st14{opacity:0.49;fill:url(#SVGID_14_);}
	.st15{opacity:0.78;fill:url(#SVGID_15_);}
	.st16{opacity:0.74;fill:url(#SVGID_16_);}
	.st17{fill:url(#SVGID_17_);}
	.st18{fill:url(#SVGID_18_);}
	.st19{fill:url(#SVGID_19_);}
	.st20{fill:url(#SVGID_20_);}
	.st21{fill:url(#SVGID_21_);}
	.st22{fill:url(#SVGID_22_);}
	.st23{fill:url(#SVGID_23_);}
	.st24{fill:url(#SVGID_24_);}
	.st25{opacity:0.65;fill:#FFFFFF;}
	.st26{opacity:0.42;fill:#FFFFFF;}
	.st27{fill:#F1AC4C;}
	.st28{fill:#314448;}
	.st29{fill:url(#SVGID_25_);}
	.st30{fill:#EFBB4E;}
	.st31{fill:#FF8400;}
	.st32{clip-path:url(#SVGID_27_);}
	.st33{fill:#E76344;}
	.st34{fill:#F67B3E;}
	.st35{clip-path:url(#SVGID_29_);}
	.st36{fill:#DD4C43;}
	.st37{fill:#FD706C;}
	.st38{fill:#6C9791;}
	.st39{fill:#9ABCB6;}
	.st40{fill:#D3D3D3;}
	.st41{fill:#FFDFD6;}
	.st42{fill:url(#SVGID_30_);}
	.st43{fill:#AEC9D4;}
	.st44{fill:#808080;}
	.st45{fill:url(#SVGID_31_);}
	.st46{fill:#EAEAEA;}
	.st47{opacity:0.42;clip-path:url(#SVGID_33_);}
	.st48{opacity:0.68;fill:#D3D3D3;}
	.st49{opacity:0.39;}
	.st50{clip-path:url(#SVGID_35_);}
	.st51{opacity:0.18;}
	.st52{opacity:0.08;}
	.st53{clip-path:url(#SVGID_37_);}
	.st54{fill:#BCE0E9;}
	.st55{fill:#9CB8BE;}
	.st56{clip-path:url(#SVGID_38_);}
	.st57{opacity:0.75;}
	.st58{fill:#F0B24B;}
	.st59{fill:#EFA24B;}
	.st60{clip-path:url(#SVGID_40_);}
	.st61{fill:#FFCC72;}
	.st62{clip-path:url(#SVGID_42_);}
	.st63{fill:#EC8949;}
	.st64{clip-path:url(#SVGID_43_);}
	.st65{fill:#606060;}
	.st66{fill:#C4A987;}
	.st67{fill:#EACEA5;}
	.st68{fill:#B1977A;}
	.st69{clip-path:url(#SVGID_44_);}
	.st70{fill:#CCB68F;}
	.st71{fill:url(#SVGID_46_);}
	.st72{fill:url(#SVGID_47_);}
	.st73{fill:#FFEFAD;}
	.st74{fill:#FFF9E5;}
	.st75{fill:none;stroke:#B1977A;stroke-width:0.25;stroke-miterlimit:10;}
	.st76{fill:#E87446;}
	.st77{clip-path:url(#SVGID_49_);}
	.st78{fill:none;stroke:#FFE8C3;stroke-miterlimit:10;}
	.st79{fill:url(#SVGID_50_);}
	.st80{fill:url(#SVGID_51_);}
	.st81{fill:#E7F9FF;}
	.st82{fill:#BFBFBF;}
	.st83{fill:#A7A7A7;}
	.st84{fill:#C0C0C0;}
	.st85{fill:#A1BFC8;}
	.st86{fill:#A9CEC9;}
	.st87{fill:#76A09A;}
	.st88{fill:#7FAAA3;}
	.st89{fill:#8AB2AC;}
	.st90{fill:#93BAB5;}
	.st91{opacity:0.57;}
	.st92{fill:#FCF4D4;}
	.st93{fill:#E86A46;}
	.st94{fill:#8A636C;}
	.st95{fill:#B59BA2;}
	.st96{fill:url(#SVGID_52_);}
	.st97{fill:url(#SVGID_54_);}
	.st98{fill:url(#SVGID_55_);}
	.st99{fill:url(#SVGID_56_);}
	.st100{fill:url(#SVGID_58_);}
	.st101{clip-path:url(#SVGID_60_);}
	.st102{fill:#B5D9D5;}
	.st103{fill:#C0E4E0;}
	.st104{clip-path:url(#SVGID_62_);}
	.st105{clip-path:url(#SVGID_64_);}
	.st106{opacity:0.69;}
	.st107{fill:url(#SVGID_65_);}
	.st108{fill:url(#SVGID_66_);}
	.st109{opacity:0.5;}
	.st110{fill:url(#SVGID_67_);}
	.st111{fill:url(#SVGID_68_);}
	.st112{opacity:0.71;}
	.st113{fill:url(#SVGID_69_);}
	.st114{fill:url(#SVGID_70_);}
	.st115{fill:url(#SVGID_71_);}
	.st116{fill:url(#SVGID_72_);}
	.st117{fill:url(#SVGID_73_);}
	.st118{fill:url(#SVGID_74_);}
	.st119{opacity:0.47;}
	.st120{fill:url(#SVGID_75_);}
	.st121{fill:url(#SVGID_76_);}
	.st122{opacity:0.49;}
	.st123{fill:url(#SVGID_77_);}
	.st124{fill:url(#SVGID_78_);}
	.st125{opacity:0.56;}
	.st126{fill:url(#SVGID_79_);}
	.st127{fill:url(#SVGID_80_);}
	.st128{clip-path:url(#SVGID_82_);}
	.st129{fill:url(#SVGID_83_);}
	.st130{fill:url(#SVGID_84_);}
	.st131{opacity:0.54;}
	.st132{fill:url(#SVGID_85_);}
	.st133{fill:url(#SVGID_86_);}
	.st134{opacity:0.63;}
	.st135{fill:url(#SVGID_87_);}
	.st136{fill:url(#SVGID_88_);}
	.st137{fill:url(#SVGID_89_);}
	.st138{fill:url(#SVGID_90_);}
	.st139{clip-path:url(#SVGID_92_);}
	.st140{clip-path:url(#SVGID_94_);}
	.st141{fill:#535353;}
	.st142{fill:#F0F0F0;}
	.st143{fill:#E1E1E1;}
	.st144{clip-path:url(#SVGID_96_);}
	.st145{fill:url(#SVGID_97_);}
	.st146{clip-path:url(#SVGID_98_);}
	.st147{clip-path:url(#SVGID_99_);}
	.st148{clip-path:url(#SVGID_101_);}
	.st149{fill:url(#SVGID_102_);}
	.st150{fill:url(#SVGID_103_);}
	.st151{fill:url(#SVGID_104_);}
	.st152{fill:url(#SVGID_105_);}
	.st153{clip-path:url(#SVGID_107_);}
	.st154{clip-path:url(#SVGID_109_);}
	.st155{fill:#CBEEF8;}
	.st156{clip-path:url(#SVGID_110_);}
	.st157{fill:url(#SVGID_112_);}
	.st158{clip-path:url(#SVGID_113_);}
	.st159{fill:url(#SVGID_114_);}
	.st160{clip-path:url(#SVGID_116_);}
	.st161{clip-path:url(#SVGID_117_);}
	.st162{clip-path:url(#SVGID_118_);}
	.st163{clip-path:url(#SVGID_119_);}
	.st164{fill:#B4D8DC;}
	.st165{clip-path:url(#SVGID_120_);}
	.st166{fill:#5D8681;}
	.st167{fill:url(#SVGID_121_);}
	.st168{clip-path:url(#SVGID_122_);}
	.st169{fill:#DDF3F7;}
	.st170{fill:#E4A96F;}
	.st171{fill:url(#SVGID_123_);}
	.st172{fill:#EAB278;}
	.st173{fill:url(#SVGID_124_);}
	.st174{fill:url(#SVGID_125_);}
	.st175{fill:#DA9D6B;}
	.st176{opacity:0.74;fill:#DA9D6B;}
	.st177{opacity:0.5;fill:#DA9D6B;}
	.st178{opacity:0.39;fill:#DA9D6B;}
	.st179{opacity:0.36;fill:#DA9D6B;}
	.st180{opacity:0.68;fill:#DA9D6B;}
	.st181{opacity:0.86;fill:#DA9D6B;}
	.st182{opacity:0.62;fill:#DA9D6B;}
	.st183{opacity:0.63;fill:#DA9D6B;}
	.st184{fill:url(#SVGID_126_);}
	.st185{fill:url(#SVGID_127_);}
	.st186{clip-path:url(#SVGID_128_);}
	.st187{fill:url(#SVGID_130_);}
	.st188{fill:url(#SVGID_131_);}
	.st189{fill:url(#SVGID_132_);}
	.st190{fill:url(#SVGID_133_);}
	.st191{clip-path:url(#SVGID_135_);}
	.st192{clip-path:url(#SVGID_137_);}
	.st193{clip-path:url(#SVGID_140_);}
	.st194{fill:#8D8D8D;}
	.st195{clip-path:url(#SVGID_142_);}
	.st196{fill:url(#SVGID_144_);}
	.st197{clip-path:url(#SVGID_146_);}
	.st198{clip-path:url(#SVGID_149_);}
</style>
<g>
	<defs>
		<rect id="SVGID_63_" width="175.4" height="310.21"/>
	</defs>
	<clipPath id="SVGID_1_">
		<use xlink:href="#SVGID_63_"  style="overflow:visible;"/>
	</clipPath>
	<g style="clip-path:url(#SVGID_1_);">
		<g>
			<path class="st85" d="M199.1,272.96c-17.12-1.36-34.18-3.67-51.03-7.2c-8.41-1.8-16.75-4-24.97-6.62
				c-8.21-2.63-16.3-5.69-24.1-9.44c-7.77-3.78-15.34-8.12-22.15-13.56c-3.44-2.67-6.66-5.63-9.62-8.84
				c-2.97-3.21-5.67-6.68-7.97-10.42c-4.59-7.48-7.48-16.13-7.83-24.98c-0.4-8.84,1.61-17.69,5.3-25.66
				c3.73-7.97,9.08-15.09,15.39-21.14c6.31-6.05,13.6-11.06,21.48-14.82c3.94-1.88,8.03-3.44,12.23-4.65
				c1.05-0.31,2.11-0.56,3.17-0.84l3.09-0.79l3.05-0.88l3.01-0.99c7.98-2.8,15.57-6.73,22.33-11.81c3.37-2.55,6.53-5.38,9.41-8.48
				c2.89-3.12,5.59-6.42,8.11-9.85c5.07-6.85,9.32-14.29,13.1-21.96c7.59-15.35,12.91-31.74,18.37-48.01
				c-4.81,16.47-9.84,32.96-17.04,48.64c-3.66,7.8-7.86,15.39-12.89,22.44c-2.51,3.53-5.2,6.93-8.09,10.15
				c-2.91,3.24-6.12,6.22-9.56,8.9c-6.87,5.37-14.66,9.54-22.87,12.43l-3.1,1.04l-3.13,0.92l-3.15,0.82
				c-1.02,0.28-2.04,0.53-3.05,0.83c-4.05,1.19-7.99,2.72-11.79,4.55c-7.6,3.67-14.62,8.55-20.67,14.42
				c-6.05,5.86-11.13,12.74-14.66,20.34c-3.56,7.57-5.5,15.93-5.16,24.27c0.29,8.34,2.96,16.52,7.3,23.69
				c2.18,3.59,4.75,6.93,7.6,10.04c2.84,3.11,5.95,6,9.28,8.61l1.24,1l1.28,0.94l2.57,1.87c1.77,1.17,3.5,2.4,5.33,3.48
				c3.58,2.29,7.35,4.29,11.13,6.23c15.28,7.59,31.72,12.75,48.37,16.7c8.34,1.98,16.75,3.63,25.21,5.06l6.35,1.01
				c2.12,0.34,4.25,0.6,6.37,0.91C190.57,271.95,194.84,272.41,199.1,272.96z"/>
		</g>
		<g class="st106">
			
				<radialGradient id="SVGID_2_" cx="-7390.6724" cy="-465.0339" r="14.9362" gradientTransform="matrix(-0.9877 -0.1564 -0.1564 0.9877 -7311.0239 -454.2076)" gradientUnits="userSpaceOnUse">
				<stop  offset="0.1285" style="stop-color:#FFCC72"/>
				<stop  offset="1" style="stop-color:#FCF4D4;stop-opacity:0.2"/>
			</radialGradient>
			<circle class="st2" cx="61.39" cy="242.75" r="14.94"/>
			<g>
				
					<radialGradient id="SVGID_3_" cx="-7286.1831" cy="-995.5158" r="8.9035" gradientTransform="matrix(-0.9266 -0.3761 -0.3761 0.9266 -7062.0498 -1579.4678)" gradientUnits="userSpaceOnUse">
					<stop  offset="0.2458" style="stop-color:#FCF4D4"/>
					<stop  offset="0.9832" style="stop-color:#FFCC72"/>
				</radialGradient>
				<path class="st3" d="M61.87,234.29l2.86-7.04l5.77,2.34l-2.86,7.04c1.71,1.93,2.3,4.74,1.26,7.3c-1.46,3.59-5.55,5.32-9.15,3.87
					c-3.59-1.46-5.32-5.55-3.87-9.15C56.92,236.08,59.29,234.48,61.87,234.29z"/>
				<path class="st85" d="M62.6,232.29l5.89,2.39c0.59,0.24,1.27-0.05,1.51-0.64l0.79-1.94c0.9-2.22-0.17-4.75-2.39-5.65h0
					c-2.22-0.9-4.75,0.17-5.65,2.39l-0.79,1.94C61.72,231.37,62.01,232.05,62.6,232.29z"/>
			</g>
		</g>
		<g class="st109">
			
				<radialGradient id="SVGID_4_" cx="-7436.2168" cy="-444.3299" r="14.9362" gradientTransform="matrix(-0.9877 -0.1564 -0.1564 0.9877 -7311.0239 -454.2076)" gradientUnits="userSpaceOnUse">
				<stop  offset="0.1285" style="stop-color:#FFCC72"/>
				<stop  offset="1" style="stop-color:#FCF4D4;stop-opacity:0.2"/>
			</radialGradient>
			<circle class="st4" cx="103.14" cy="270.32" r="14.94"/>
			<g>
				
					<radialGradient id="SVGID_5_" cx="-7335.2334" cy="-985.6637" r="8.9035" gradientTransform="matrix(-0.9266 -0.3761 -0.3761 0.9266 -7062.0498 -1579.4678)" gradientUnits="userSpaceOnUse">
					<stop  offset="0.2458" style="stop-color:#FCF4D4"/>
					<stop  offset="0.9832" style="stop-color:#FFCC72"/>
				</radialGradient>
				<path class="st5" d="M103.61,261.86l2.86-7.04l5.77,2.34l-2.86,7.04c1.71,1.93,2.3,4.74,1.26,7.3
					c-1.46,3.59-5.55,5.32-9.15,3.87c-3.59-1.46-5.32-5.55-3.87-9.15C98.66,263.66,101.03,262.05,103.61,261.86z"/>
				<path class="st85" d="M104.35,259.87l5.89,2.39c0.59,0.24,1.27-0.05,1.51-0.64l0.79-1.94c0.9-2.22-0.17-4.75-2.39-5.65h0
					c-2.22-0.9-4.75,0.17-5.65,2.39l-0.79,1.94C103.47,258.95,103.75,259.63,104.35,259.87z"/>
			</g>
		</g>
		<g class="st112">
			
				<radialGradient id="SVGID_7_" cx="-5746.6733" cy="-3466.991" r="14.9362" gradientTransform="matrix(-0.4834 -0.8754 -0.8754 0.4834 -5779.6978 -3162.2122)" gradientUnits="userSpaceOnUse">
				<stop  offset="0.1285" style="stop-color:#FFCC72"/>
				<stop  offset="1" style="stop-color:#FCF4D4;stop-opacity:0.2"/>
			</radialGradient>
			<circle style="fill:url(#SVGID_7_);" cx="33.16" cy="192.64" r="14.94"/>
			<g>
				
					<radialGradient id="SVGID_8_" cx="-5005.0723" cy="-3547.1841" r="8.9035" gradientTransform="matrix(-0.2726 -0.9621 -0.9621 0.2726 -4738.8921 -3657.1084)" gradientUnits="userSpaceOnUse">
					<stop  offset="0.2458" style="stop-color:#FCF4D4"/>
					<stop  offset="0.9832" style="stop-color:#FFCC72"/>
				</radialGradient>
				<path style="fill:url(#SVGID_8_);" d="M40.12,187.81l7.31-2.07l1.7,5.99l-7.31,2.07c-0.47,2.54-2.33,4.72-4.98,5.48
					c-3.73,1.06-7.61-1.11-8.67-4.84s1.11-7.61,4.84-8.67C35.66,185.01,38.39,185.9,40.12,187.81z"/>
				<path class="st85" d="M42.15,187.17l1.73,6.12c0.17,0.62,0.82,0.98,1.44,0.8l2.02-0.57c2.31-0.65,3.65-3.05,2.99-5.36h0
					c-0.65-2.31-3.05-3.65-5.36-2.99l-2.02,0.57C42.33,185.91,41.97,186.55,42.15,187.17z"/>
			</g>
		</g>
		<g>
			
				<radialGradient id="SVGID_9_" cx="-2751.5823" cy="-4149.2061" r="14.9362" gradientTransform="matrix(0.3017 -0.9534 -0.9534 -0.3017 -3073.7441 -3730.3313)" gradientUnits="userSpaceOnUse">
				<stop  offset="0.1285" style="stop-color:#FFCC72"/>
				<stop  offset="1" style="stop-color:#FCF4D4;stop-opacity:0.2"/>
			</radialGradient>
			<circle style="fill:url(#SVGID_9_);" cx="52" cy="144.82" r="14.94"/>
			<g>
				
					<radialGradient id="SVGID_10_" cx="-1933.2979" cy="-3533.408" r="8.9035" gradientTransform="matrix(0.5098 -0.8603 -0.8603 -0.5098 -1998.0658 -3316.6711)" gradientUnits="userSpaceOnUse">
					<stop  offset="0.2458" style="stop-color:#FCF4D4"/>
					<stop  offset="0.9832" style="stop-color:#FFCC72"/>
				</radialGradient>
				<path style="fill:url(#SVGID_10_);" d="M60.3,146.55l6.53,3.87l-3.17,5.35l-6.53-3.87c-2.17,1.41-5.03,1.56-7.4,0.16
					c-3.34-1.98-4.44-6.28-2.46-9.62s6.28-4.44,9.62-2.46C59.26,141.39,60.49,143.98,60.3,146.55z"/>
				<path class="st85" d="M62.16,147.58l-3.24,5.47c-0.33,0.55-0.14,1.27,0.41,1.59l1.8,1.07c2.06,1.22,4.72,0.54,5.95-1.52l0,0
					c1.22-2.06,0.54-4.72-1.52-5.95l-1.8-1.07C63.2,146.84,62.49,147.02,62.16,147.58z"/>
			</g>
		</g>
		<g>
			
				<radialGradient id="SVGID_11_" cx="-842.2228" cy="-3241.5723" r="14.9362" gradientTransform="matrix(0.7568 -0.6536 -0.6536 -0.7568 -1386.8555 -2891.2712)" gradientUnits="userSpaceOnUse">
				<stop  offset="0.1285" style="stop-color:#FFCC72"/>
				<stop  offset="1" style="stop-color:#FCF4D4;stop-opacity:0.2"/>
			</radialGradient>
			<circle style="fill:url(#SVGID_11_);" cx="94.54" cy="112.49" r="14.94"/>
			<g>
				
					<radialGradient id="SVGID_12_" cx="-279.0848" cy="-2216.9612" r="8.9035" gradientTransform="matrix(0.8852 -0.4653 -0.4653 -0.8852 -687.8163 -1975.0056)" gradientUnits="userSpaceOnUse">
					<stop  offset="0.2458" style="stop-color:#FCF4D4"/>
					<stop  offset="0.9832" style="stop-color:#FFCC72"/>
				</radialGradient>
				<path style="fill:url(#SVGID_12_);" d="M100.71,118.31l3.53,6.72l-5.51,2.9l-3.53-6.72c-2.58,0.06-5.1-1.3-6.39-3.75
					c-1.8-3.43-0.48-7.68,2.95-9.48c3.43-1.8,7.68-0.48,9.48,2.95C102.52,113.37,102.22,116.22,100.71,118.31z"/>
				<path class="st85" d="M101.75,120.16l-5.63,2.96c-0.57,0.3-0.79,1-0.49,1.57l0.98,1.86c1.12,2.12,3.74,2.94,5.86,1.82h0
					c2.12-1.12,2.94-3.74,1.82-5.86l-0.98-1.86C103.02,120.08,102.32,119.86,101.75,120.16z"/>
			</g>
		</g>
		<g class="st119">
			
				<radialGradient id="SVGID_13_" cx="-1225.6162" cy="-3593.2981" r="14.9362" gradientTransform="matrix(0.6565 -0.7543 -0.7543 -0.6565 -1770.6775 -3190.5129)" gradientUnits="userSpaceOnUse">
				<stop  offset="0.1285" style="stop-color:#FFCC72"/>
				<stop  offset="1" style="stop-color:#FCF4D4;stop-opacity:0.2"/>
			</radialGradient>
			<circle style="fill:url(#SVGID_13_);" cx="135.23" cy="93" r="14.94"/>
			<g>
				
					<radialGradient id="SVGID_14_" cx="-572.8662" cy="-2646.3726" r="8.9035" gradientTransform="matrix(0.8103 -0.5861 -0.5861 -0.8103 -948.7966 -2382.6082)" gradientUnits="userSpaceOnUse">
					<stop  offset="0.2458" style="stop-color:#FCF4D4"/>
					<stop  offset="0.9832" style="stop-color:#FFCC72"/>
				</radialGradient>
				<path style="fill:url(#SVGID_14_);" d="M142.16,97.89l4.45,6.15l-5.04,3.65l-4.45-6.15c-2.55,0.43-5.24-0.57-6.85-2.8
					c-2.27-3.14-1.57-7.53,1.57-9.8s7.53-1.57,9.8,1.57C143.26,92.74,143.36,95.6,142.16,97.89z"/>
				<path class="st85" d="M143.46,99.57l-5.15,3.73c-0.52,0.38-0.64,1.1-0.26,1.62l1.23,1.7c1.4,1.94,4.12,2.38,6.06,0.97l0,0
					c1.94-1.4,2.38-4.12,0.97-6.06l-1.23-1.7C144.7,99.31,143.98,99.19,143.46,99.57z"/>
			</g>
		</g>
		<g class="st122">
			
				<radialGradient id="SVGID_15_" cx="-1179.2023" cy="-3589.4587" r="14.9362" gradientTransform="matrix(0.6565 -0.7543 -0.7543 -0.6565 -1770.6775 -3190.5129)" gradientUnits="userSpaceOnUse">
				<stop  offset="0.1285" style="stop-color:#FFCC72"/>
				<stop  offset="1" style="stop-color:#FCF4D4;stop-opacity:0.2"/>
			</radialGradient>
			<circle style="fill:url(#SVGID_15_);" cx="162.81" cy="55.46" r="14.94"/>
			<g>
				
					<radialGradient id="SVGID_16_" cx="-528.5275" cy="-2632.1221" r="8.9035" gradientTransform="matrix(0.8103 -0.5861 -0.5861 -0.8103 -948.7966 -2382.6082)" gradientUnits="userSpaceOnUse">
					<stop  offset="0.2458" style="stop-color:#FCF4D4"/>
					<stop  offset="0.9832" style="stop-color:#FFCC72"/>
				</radialGradient>
				<path style="fill:url(#SVGID_16_);" d="M169.73,60.35l4.45,6.15l-5.04,3.65L164.69,64c-2.55,0.43-5.24-0.57-6.85-2.8
					c-2.27-3.14-1.57-7.53,1.57-9.8c3.14-2.27,7.53-1.57,9.8,1.57C170.83,55.2,170.94,58.07,169.73,60.35z"/>
				<path class="st85" d="M171.03,62.03l-5.15,3.73c-0.52,0.38-0.64,1.1-0.26,1.62l1.23,1.7c1.4,1.94,4.12,2.38,6.06,0.97h0
					c1.94-1.4,2.38-4.12,0.97-6.06l-1.23-1.7C172.28,61.78,171.55,61.66,171.03,62.03z"/>
			</g>
		</g>
		<g class="st125">
			
				<radialGradient id="SVGID_17_" cx="-7481.5747" cy="-439.4942" r="14.9362" gradientTransform="matrix(-0.9877 -0.1564 -0.1564 0.9877 -7311.0239 -454.2076)" gradientUnits="userSpaceOnUse">
				<stop  offset="0.1285" style="stop-color:#FFCC72"/>
				<stop  offset="1" style="stop-color:#FCF4D4;stop-opacity:0.2"/>
			</radialGradient>
			<circle class="st17" cx="147.18" cy="282.2" r="14.94"/>
			<g>
				
					<radialGradient id="SVGID_18_" cx="-7380.5078" cy="-991.2253" r="8.9035" gradientTransform="matrix(-0.9266 -0.3761 -0.3761 0.9266 -7062.0498 -1579.4678)" gradientUnits="userSpaceOnUse">
					<stop  offset="0.2458" style="stop-color:#FCF4D4"/>
					<stop  offset="0.9832" style="stop-color:#FFCC72"/>
				</radialGradient>
				<path class="st18" d="M147.65,273.73l2.86-7.04l5.77,2.34l-2.86,7.04c1.71,1.93,2.3,4.74,1.26,7.3
					c-1.46,3.59-5.55,5.32-9.15,3.87c-3.59-1.46-5.32-5.55-3.87-9.15C142.7,275.53,145.08,273.93,147.65,273.73z"/>
				<path class="st85" d="M148.39,271.74l5.89,2.39c0.59,0.24,1.27-0.05,1.51-0.64l0.79-1.94c0.9-2.22-0.17-4.75-2.39-5.65l0,0
					c-2.22-0.9-4.75,0.17-5.65,2.39l-0.79,1.94C147.51,270.82,147.8,271.5,148.39,271.74z"/>
			</g>
		</g>
	</g>
</g>
</svg>
