<?xml version="1.0" encoding="utf-8"?>
<!-- Generator: Adobe Illustrator 23.0.3, SVG Export Plug-In . SVG Version: 6.00 Build 0)  -->
<svg version="1.1" id="Слой_1" xmlns="http://www.w3.org/2000/svg" xmlns:xlink="http://www.w3.org/1999/xlink" x="0px" y="0px"
	 viewBox="0 0 153.94 157.4" style="enable-background:new 0 0 153.94 157.4;" xml:space="preserve">
<style type="text/css">
	.st0{fill:#9EC3BE;}
	.st1{fill:url(#SVGID_1_);}
	.st2{fill:url(#SVGID_2_);}
	.st3{fill:url(#SVGID_3_);}
	.st4{fill:url(#SVGID_4_);}
	.st5{fill:url(#SVGID_5_);}
	.st6{fill:#FFFFFF;}
	.st7{clip-path:url(#SVGID_7_);}
	.st8{opacity:0.43;fill:url(#SVGID_8_);}
	.st9{opacity:0.63;fill:url(#SVGID_9_);}
	.st10{opacity:0.69;fill:url(#SVGID_10_);}
	.st11{opacity:0.54;fill:url(#SVGID_11_);}
	.st12{opacity:0.43;fill:url(#SVGID_12_);}
	.st13{opacity:0.68;fill:url(#SVGID_13_);}
	.st14{opacity:0.49;fill:url(#SVGID_14_);}
	.st15{opacity:0.78;fill:url(#SVGID_15_);}
	.st16{opacity:0.74;fill:url(#SVGID_16_);}
	.st17{fill:url(#SVGID_17_);}
	.st18{fill:url(#SVGID_18_);}
	.st19{fill:url(#SVGID_19_);}
	.st20{fill:url(#SVGID_20_);}
	.st21{fill:url(#SVGID_21_);}
	.st22{fill:url(#SVGID_22_);}
	.st23{fill:url(#SVGID_23_);}
	.st24{fill:url(#SVGID_24_);}
	.st25{opacity:0.65;fill:#FFFFFF;}
	.st26{opacity:0.42;fill:#FFFFFF;}
	.st27{fill:#F1AC4C;}
	.st28{fill:#314448;}
	.st29{fill:url(#SVGID_25_);}
	.st30{fill:#EFBB4E;}
	.st31{fill:#FF8400;}
	.st32{clip-path:url(#SVGID_27_);}
	.st33{fill:#E76344;}
	.st34{fill:#F67B3E;}
	.st35{clip-path:url(#SVGID_29_);}
	.st36{fill:#DD4C43;}
	.st37{fill:#FD706C;}
	.st38{fill:#6C9791;}
	.st39{fill:#9ABCB6;}
	.st40{fill:#D3D3D3;}
	.st41{fill:#FFDFD6;}
	.st42{fill:url(#SVGID_30_);}
	.st43{fill:#AEC9D4;}
	.st44{fill:#808080;}
	.st45{fill:url(#SVGID_31_);}
	.st46{fill:#EAEAEA;}
	.st47{opacity:0.42;clip-path:url(#SVGID_33_);}
	.st48{opacity:0.68;fill:#D3D3D3;}
	.st49{opacity:0.39;}
	.st50{clip-path:url(#SVGID_35_);}
	.st51{opacity:0.18;}
	.st52{opacity:0.08;}
	.st53{clip-path:url(#SVGID_37_);}
	.st54{fill:#BCE0E9;}
	.st55{fill:#9CB8BE;}
	.st56{clip-path:url(#SVGID_38_);}
	.st57{opacity:0.75;}
	.st58{fill:#F0B24B;}
	.st59{fill:#EFA24B;}
	.st60{clip-path:url(#SVGID_40_);}
	.st61{fill:#FFCC72;}
	.st62{clip-path:url(#SVGID_42_);}
	.st63{fill:#EC8949;}
	.st64{clip-path:url(#SVGID_43_);}
	.st65{fill:#606060;}
	.st66{fill:#C4A987;}
	.st67{fill:#EACEA5;}
	.st68{fill:#B1977A;}
	.st69{clip-path:url(#SVGID_44_);}
	.st70{fill:#CCB68F;}
	.st71{fill:url(#SVGID_46_);}
	.st72{fill:url(#SVGID_47_);}
	.st73{fill:#FFEFAD;}
	.st74{fill:#FFF9E5;}
	.st75{fill:none;stroke:#B1977A;stroke-width:0.25;stroke-miterlimit:10;}
	.st76{fill:#E87446;}
	.st77{clip-path:url(#SVGID_49_);}
	.st78{fill:none;stroke:#FFE8C3;stroke-miterlimit:10;}
	.st79{fill:url(#SVGID_50_);}
	.st80{fill:url(#SVGID_51_);}
	.st81{fill:#E7F9FF;}
	.st82{fill:#BFBFBF;}
	.st83{fill:#A7A7A7;}
	.st84{fill:#C0C0C0;}
	.st85{fill:#A1BFC8;}
	.st86{fill:#A9CEC9;}
	.st87{fill:#76A09A;}
	.st88{fill:#7FAAA3;}
	.st89{fill:#8AB2AC;}
	.st90{fill:#93BAB5;}
	.st91{opacity:0.57;}
	.st92{fill:#FCF4D4;}
	.st93{fill:#E86A46;}
	.st94{fill:#8A636C;}
	.st95{fill:#B59BA2;}
	.st96{fill:url(#SVGID_52_);}
	.st97{fill:url(#SVGID_54_);}
	.st98{fill:url(#SVGID_55_);}
	.st99{fill:url(#SVGID_56_);}
	.st100{fill:url(#SVGID_58_);}
	.st101{clip-path:url(#SVGID_60_);}
	.st102{fill:#B5D9D5;}
	.st103{fill:#C0E4E0;}
	.st104{clip-path:url(#SVGID_62_);}
	.st105{clip-path:url(#SVGID_64_);}
	.st106{opacity:0.69;}
	.st107{fill:url(#SVGID_65_);}
	.st108{fill:url(#SVGID_66_);}
	.st109{opacity:0.5;}
	.st110{fill:url(#SVGID_67_);}
	.st111{fill:url(#SVGID_68_);}
	.st112{opacity:0.71;}
	.st113{fill:url(#SVGID_69_);}
	.st114{fill:url(#SVGID_70_);}
	.st115{fill:url(#SVGID_71_);}
	.st116{fill:url(#SVGID_72_);}
	.st117{fill:url(#SVGID_73_);}
	.st118{fill:url(#SVGID_74_);}
	.st119{opacity:0.47;}
	.st120{fill:url(#SVGID_75_);}
	.st121{fill:url(#SVGID_76_);}
	.st122{opacity:0.49;}
	.st123{fill:url(#SVGID_77_);}
	.st124{fill:url(#SVGID_78_);}
	.st125{opacity:0.56;}
	.st126{fill:url(#SVGID_79_);}
	.st127{fill:url(#SVGID_80_);}
	.st128{clip-path:url(#SVGID_82_);}
	.st129{fill:url(#SVGID_83_);}
	.st130{fill:url(#SVGID_84_);}
	.st131{opacity:0.54;}
	.st132{fill:url(#SVGID_85_);}
	.st133{fill:url(#SVGID_86_);}
	.st134{opacity:0.63;}
	.st135{fill:url(#SVGID_87_);}
	.st136{fill:url(#SVGID_88_);}
	.st137{fill:url(#SVGID_89_);}
	.st138{fill:url(#SVGID_90_);}
	.st139{clip-path:url(#SVGID_92_);}
	.st140{clip-path:url(#SVGID_94_);}
	.st141{fill:#535353;}
	.st142{fill:#F0F0F0;}
	.st143{fill:#E1E1E1;}
	.st144{clip-path:url(#SVGID_96_);}
	.st145{fill:url(#SVGID_97_);}
	.st146{clip-path:url(#SVGID_98_);}
	.st147{clip-path:url(#SVGID_99_);}
	.st148{clip-path:url(#SVGID_101_);}
	.st149{fill:url(#SVGID_102_);}
	.st150{fill:url(#SVGID_103_);}
	.st151{fill:url(#SVGID_104_);}
	.st152{fill:url(#SVGID_105_);}
	.st153{clip-path:url(#SVGID_107_);}
	.st154{clip-path:url(#SVGID_109_);}
	.st155{fill:#CBEEF8;}
	.st156{clip-path:url(#SVGID_110_);}
	.st157{fill:url(#SVGID_112_);}
	.st158{clip-path:url(#SVGID_113_);}
	.st159{fill:url(#SVGID_114_);}
	.st160{clip-path:url(#SVGID_116_);}
	.st161{clip-path:url(#SVGID_117_);}
	.st162{clip-path:url(#SVGID_118_);}
	.st163{clip-path:url(#SVGID_119_);}
	.st164{fill:#B4D8DC;}
	.st165{clip-path:url(#SVGID_120_);}
	.st166{fill:#5D8681;}
	.st167{fill:url(#SVGID_121_);}
	.st168{clip-path:url(#SVGID_122_);}
	.st169{fill:#DDF3F7;}
	.st170{fill:#E4A96F;}
	.st171{fill:url(#SVGID_123_);}
	.st172{fill:#EAB278;}
	.st173{fill:url(#SVGID_124_);}
	.st174{fill:url(#SVGID_125_);}
	.st175{fill:#DA9D6B;}
	.st176{opacity:0.74;fill:#DA9D6B;}
	.st177{opacity:0.5;fill:#DA9D6B;}
	.st178{opacity:0.39;fill:#DA9D6B;}
	.st179{opacity:0.36;fill:#DA9D6B;}
	.st180{opacity:0.68;fill:#DA9D6B;}
	.st181{opacity:0.86;fill:#DA9D6B;}
	.st182{opacity:0.62;fill:#DA9D6B;}
	.st183{opacity:0.63;fill:#DA9D6B;}
	.st184{fill:url(#SVGID_126_);}
	.st185{fill:url(#SVGID_127_);}
	.st186{clip-path:url(#SVGID_128_);}
	.st187{fill:url(#SVGID_130_);}
	.st188{fill:url(#SVGID_131_);}
	.st189{fill:url(#SVGID_132_);}
	.st190{fill:url(#SVGID_133_);}
	.st191{clip-path:url(#SVGID_135_);}
	.st192{clip-path:url(#SVGID_137_);}
	.st193{clip-path:url(#SVGID_140_);}
	.st194{fill:#8D8D8D;}
	.st195{clip-path:url(#SVGID_142_);}
	.st196{fill:url(#SVGID_144_);}
	.st197{clip-path:url(#SVGID_146_);}
	.st198{clip-path:url(#SVGID_149_);}
</style>
<g>
	<defs>
		<rect id="SVGID_81_" x="-0.02" width="153.96" height="157.4"/>
	</defs>
	<clipPath id="SVGID_1_">
		<use xlink:href="#SVGID_81_"  style="overflow:visible;"/>
	</clipPath>
	<g style="clip-path:url(#SVGID_1_);">
		<g>
			<path class="st85" d="M144.61,21.78c-8.92-4.11-19-5.18-28.49-3.43c-4.75,0.84-9.38,2.33-13.68,4.47
				c-4.28,2.17-8.26,4.93-11.65,8.28c-3.39,3.34-6.23,7.22-8.55,11.44c-2.36,4.19-4.3,8.64-6.19,13.14
				c-1.89,4.5-3.77,9.06-5.94,13.52c-2.18,4.46-4.79,8.77-7.77,12.76c-6.01,7.97-13.44,14.8-21.63,20.39
				c-8.21,5.58-17.1,10.09-26.33,13.56c-9.22,3.53-18.75,6.1-28.33,8.23c-9.6,2.05-19.25,3.77-28.94,5.28
				c9.55-2.18,19.15-4.18,28.59-6.71c9.46-2.46,18.81-5.31,27.82-8.98c8.99-3.68,17.66-8.15,25.57-13.72
				c7.93-5.52,15.1-12.15,20.85-19.85c2.89-3.84,5.4-7.93,7.54-12.26c2.15-4.33,4-8.84,5.97-13.34c1.97-4.5,4.01-9.02,6.52-13.33
				c1.24-2.16,2.61-4.26,4.14-6.25l1.16-1.48l1.27-1.4c0.85-0.93,1.68-1.88,2.64-2.69C103.86,15.54,127.25,12.45,144.61,21.78z"/>
		</g>
		
			<radialGradient id="SVGID_2_" cx="50.2297" cy="263.6098" r="14.9362" gradientTransform="matrix(0.999 -0.0446 0.0446 0.999 12.9956 -169.4739)" gradientUnits="userSpaceOnUse">
			<stop  offset="0.1285" style="stop-color:#FFCC72"/>
			<stop  offset="1" style="stop-color:#FCF4D4;stop-opacity:0.2"/>
		</radialGradient>
		<circle class="st2" cx="74.93" cy="91.63" r="14.94"/>
		
			<radialGradient id="SVGID_3_" cx="103.9072" cy="206.2019" r="14.9362" gradientTransform="matrix(0.999 -0.0446 0.0446 0.999 12.9956 -169.4739)" gradientUnits="userSpaceOnUse">
			<stop  offset="0.1285" style="stop-color:#FFCC72"/>
			<stop  offset="1" style="stop-color:#FCF4D4;stop-opacity:0.2"/>
		</radialGradient>
		<circle class="st3" cx="126" cy="31.89" r="14.94"/>
		<g class="st131">
			
				<radialGradient id="SVGID_4_" cx="10.813" cy="293.5412" r="14.9362" gradientTransform="matrix(0.999 -0.0446 0.0446 0.999 12.9956 -169.4739)" gradientUnits="userSpaceOnUse">
				<stop  offset="0.1285" style="stop-color:#FFCC72"/>
				<stop  offset="1" style="stop-color:#FCF4D4;stop-opacity:0.2"/>
			</radialGradient>
			<circle class="st4" cx="36.89" cy="123.29" r="14.94"/>
			<g>
				
					<radialGradient id="SVGID_5_" cx="-751.52" cy="2037.7385" r="8.9035" gradientTransform="matrix(0.8588 -0.5123 0.5123 0.8588 -363.1617 -2016.3524)" gradientUnits="userSpaceOnUse">
					<stop  offset="0.1284" style="stop-color:#FCF4D4"/>
					<stop  offset="0.9832" style="stop-color:#FFCC72"/>
				</radialGradient>
				<path class="st5" d="M36.48,114.64l-3.89-6.52l-5.34,3.19l3.89,6.52c-1.4,2.17-1.55,5.03-0.14,7.4c1.99,3.33,6.3,4.42,9.63,2.43
					s4.42-6.3,2.43-9.63C41.65,115.67,39.06,114.44,36.48,114.64z"/>
				<path class="st85" d="M35.45,112.79l-5.46,3.26c-0.55,0.33-1.26,0.15-1.59-0.4l-1.07-1.8c-1.23-2.06-0.55-4.72,1.5-5.95l0,0
					c2.06-1.23,4.72-0.55,5.95,1.5l1.07,1.8C36.18,111.74,36,112.46,35.45,112.79z"/>
			</g>
		</g>
		<g class="st134">
			
				<radialGradient id="SVGID_7_" cx="72.7802" cy="222.1913" r="14.9362" gradientTransform="matrix(0.999 -0.0446 0.0446 0.999 12.9956 -169.4739)" gradientUnits="userSpaceOnUse">
				<stop  offset="0.1285" style="stop-color:#FFCC72"/>
				<stop  offset="1" style="stop-color:#FCF4D4;stop-opacity:0.2"/>
			</radialGradient>
			<circle style="fill:url(#SVGID_7_);" cx="95.61" cy="49.25" r="14.94"/>
			<g>
				
					<radialGradient id="SVGID_8_" cx="-3135.0801" cy="3482.1016" r="8.9035" gradientTransform="matrix(0.2747 -0.9615 0.9615 0.2747 -2396.1121 -3922.8479)" gradientUnits="userSpaceOnUse">
					<stop  offset="0.2458" style="stop-color:#FCF4D4"/>
					<stop  offset="0.9832" style="stop-color:#FFCC72"/>
				</radialGradient>
				<path style="fill:url(#SVGID_8_);" d="M89.01,44.34l-7.3-2.09L80,48.23l7.3,2.09c0.47,2.54,2.32,4.73,4.97,5.49
					c3.73,1.07,7.61-1.09,8.68-4.82c1.07-3.73-1.09-7.61-4.82-8.68C93.48,41.55,90.75,42.43,89.01,44.34z"/>
				<path class="st85" d="M86.99,43.69l-1.75,6.11c-0.18,0.62-0.82,0.97-1.44,0.8l-2.02-0.58c-2.3-0.66-3.64-3.06-2.98-5.37v0
					c0.66-2.3,3.06-3.64,5.37-2.98l2.02,0.58C86.81,42.43,87.16,43.07,86.99,43.69z"/>
			</g>
		</g>
		<g>
			
				<radialGradient id="SVGID_9_" cx="-119.7049" cy="1159.5807" r="8.9035" gradientTransform="matrix(0.963 -0.2697 0.2697 0.963 -73.1885 -1121.8872)" gradientUnits="userSpaceOnUse">
				<stop  offset="0.2458" style="stop-color:#FCF4D4"/>
				<stop  offset="0.9832" style="stop-color:#FFCC72"/>
			</radialGradient>
			<path style="fill:url(#SVGID_9_);" d="M126.48,23.42l-2.05-7.31l-5.99,1.68l2.05,7.31c-1.92,1.73-2.81,4.45-2.07,7.11
				c1.05,3.73,4.92,5.91,8.65,4.87c3.73-1.05,5.91-4.92,4.87-8.65C131.19,25.77,129.01,23.91,126.48,23.42z"/>
			<path class="st85" d="M125.97,21.36l-6.12,1.71c-0.62,0.17-1.26-0.19-1.43-0.81l-0.57-2.02c-0.65-2.31,0.7-4.7,3.01-5.35l0,0
				c2.31-0.65,4.7,0.7,5.35,3.01l0.57,2.02C126.95,20.55,126.59,21.19,125.97,21.36z"/>
		</g>
		<g>
			
				<radialGradient id="SVGID_10_" cx="-1402.1631" cy="2729.4949" r="8.9035" gradientTransform="matrix(0.7028 -0.7114 0.7114 0.7028 -885.2611 -2828.0723)" gradientUnits="userSpaceOnUse">
				<stop  offset="0.2458" style="stop-color:#FCF4D4"/>
				<stop  offset="0.9832" style="stop-color:#FFCC72"/>
			</radialGradient>
			<path style="fill:url(#SVGID_10_);" d="M71.39,83.41l-5.4-5.34l-4.37,4.43l5.4,5.34c-0.81,2.45-0.24,5.26,1.73,7.2
				c2.76,2.73,7.2,2.7,9.93-0.06c2.73-2.76,2.7-7.2-0.06-9.93C76.64,83.11,73.83,82.57,71.39,83.41z"/>
			<path class="st85" d="M69.92,81.87l-4.47,4.52c-0.45,0.46-1.19,0.46-1.64,0.01l-1.49-1.47c-1.71-1.68-1.72-4.43-0.04-6.14l0,0
				c1.68-1.71,4.43-1.72,6.14-0.04l1.49,1.47C70.37,80.68,70.37,81.41,69.92,81.87z"/>
		</g>
	</g>
</g>
</svg>
