<?xml version="1.0" encoding="utf-8"?>
<!-- Generator: Adobe Illustrator 23.0.3, SVG Export Plug-In . SVG Version: 6.00 Build 0)  -->
<svg version="1.1" id="Слой_1" xmlns="http://www.w3.org/2000/svg" xmlns:xlink="http://www.w3.org/1999/xlink" x="0px" y="0px"
	 viewBox="0 0 239.38 257.17" style="enable-background:new 0 0 239.38 257.17;" xml:space="preserve">
<style type="text/css">
	.st0{fill:#9EC3BE;}
	.st1{fill:url(#SVGID_1_);}
	.st2{fill:url(#SVGID_2_);}
	.st3{fill:url(#SVGID_3_);}
	.st4{fill:url(#SVGID_4_);}
	.st5{fill:url(#SVGID_5_);}
	.st6{fill:#FFFFFF;}
	.st7{clip-path:url(#SVGID_7_);}
	.st8{opacity:0.43;fill:url(#SVGID_8_);}
	.st9{opacity:0.63;fill:url(#SVGID_9_);}
	.st10{opacity:0.69;fill:url(#SVGID_10_);}
	.st11{opacity:0.54;fill:url(#SVGID_11_);}
	.st12{opacity:0.43;fill:url(#SVGID_12_);}
	.st13{opacity:0.68;fill:url(#SVGID_13_);}
	.st14{opacity:0.49;fill:url(#SVGID_14_);}
	.st15{opacity:0.78;fill:url(#SVGID_15_);}
	.st16{opacity:0.74;fill:url(#SVGID_16_);}
	.st17{fill:url(#SVGID_17_);}
	.st18{fill:url(#SVGID_18_);}
	.st19{fill:url(#SVGID_19_);}
	.st20{fill:url(#SVGID_20_);}
	.st21{fill:url(#SVGID_21_);}
	.st22{fill:url(#SVGID_22_);}
	.st23{fill:url(#SVGID_23_);}
	.st24{fill:url(#SVGID_24_);}
	.st25{opacity:0.65;fill:#FFFFFF;}
	.st26{opacity:0.42;fill:#FFFFFF;}
	.st27{fill:#F1AC4C;}
	.st28{fill:#314448;}
	.st29{fill:url(#SVGID_25_);}
	.st30{fill:#EFBB4E;}
	.st31{fill:#FF8400;}
	.st32{clip-path:url(#SVGID_27_);}
	.st33{fill:#E76344;}
	.st34{fill:#F67B3E;}
	.st35{clip-path:url(#SVGID_29_);}
	.st36{fill:#DD4C43;}
	.st37{fill:#FD706C;}
	.st38{fill:#6C9791;}
	.st39{fill:#9ABCB6;}
	.st40{fill:#D3D3D3;}
	.st41{fill:#FFDFD6;}
	.st42{fill:url(#SVGID_30_);}
	.st43{fill:#AEC9D4;}
	.st44{fill:#808080;}
	.st45{fill:url(#SVGID_31_);}
	.st46{fill:#EAEAEA;}
	.st47{opacity:0.42;clip-path:url(#SVGID_33_);}
	.st48{opacity:0.68;fill:#D3D3D3;}
	.st49{opacity:0.39;}
	.st50{clip-path:url(#SVGID_35_);}
	.st51{opacity:0.18;}
	.st52{opacity:0.08;}
	.st53{clip-path:url(#SVGID_37_);}
	.st54{fill:#BCE0E9;}
	.st55{fill:#9CB8BE;}
	.st56{clip-path:url(#SVGID_38_);}
	.st57{opacity:0.75;}
	.st58{fill:#F0B24B;}
	.st59{fill:#EFA24B;}
	.st60{clip-path:url(#SVGID_40_);}
	.st61{fill:#FFCC72;}
	.st62{clip-path:url(#SVGID_42_);}
	.st63{fill:#EC8949;}
	.st64{clip-path:url(#SVGID_43_);}
	.st65{fill:#606060;}
	.st66{fill:#C4A987;}
	.st67{fill:#EACEA5;}
	.st68{fill:#B1977A;}
	.st69{clip-path:url(#SVGID_44_);}
	.st70{fill:#CCB68F;}
	.st71{fill:url(#SVGID_46_);}
	.st72{fill:url(#SVGID_47_);}
	.st73{fill:#FFEFAD;}
	.st74{fill:#FFF9E5;}
	.st75{fill:none;stroke:#B1977A;stroke-width:0.25;stroke-miterlimit:10;}
	.st76{fill:#E87446;}
	.st77{clip-path:url(#SVGID_49_);}
	.st78{fill:none;stroke:#FFE8C3;stroke-miterlimit:10;}
	.st79{fill:url(#SVGID_50_);}
	.st80{fill:url(#SVGID_51_);}
	.st81{fill:#E7F9FF;}
	.st82{fill:#BFBFBF;}
	.st83{fill:#A7A7A7;}
	.st84{fill:#C0C0C0;}
	.st85{fill:#A1BFC8;}
	.st86{fill:#A9CEC9;}
	.st87{fill:#76A09A;}
	.st88{fill:#7FAAA3;}
	.st89{fill:#8AB2AC;}
	.st90{fill:#93BAB5;}
	.st91{opacity:0.57;}
	.st92{fill:#FCF4D4;}
	.st93{fill:#E86A46;}
	.st94{fill:#8A636C;}
	.st95{fill:#B59BA2;}
	.st96{fill:url(#SVGID_52_);}
	.st97{fill:url(#SVGID_54_);}
	.st98{fill:url(#SVGID_55_);}
	.st99{fill:url(#SVGID_56_);}
	.st100{fill:url(#SVGID_58_);}
	.st101{clip-path:url(#SVGID_60_);}
	.st102{fill:#B5D9D5;}
	.st103{fill:#C0E4E0;}
	.st104{clip-path:url(#SVGID_62_);}
	.st105{clip-path:url(#SVGID_64_);}
	.st106{opacity:0.69;}
	.st107{fill:url(#SVGID_65_);}
	.st108{fill:url(#SVGID_66_);}
	.st109{opacity:0.5;}
	.st110{fill:url(#SVGID_67_);}
	.st111{fill:url(#SVGID_68_);}
	.st112{opacity:0.71;}
	.st113{fill:url(#SVGID_69_);}
	.st114{fill:url(#SVGID_70_);}
	.st115{fill:url(#SVGID_71_);}
	.st116{fill:url(#SVGID_72_);}
	.st117{fill:url(#SVGID_73_);}
	.st118{fill:url(#SVGID_74_);}
	.st119{opacity:0.47;}
	.st120{fill:url(#SVGID_75_);}
	.st121{fill:url(#SVGID_76_);}
	.st122{opacity:0.49;}
	.st123{fill:url(#SVGID_77_);}
	.st124{fill:url(#SVGID_78_);}
	.st125{opacity:0.56;}
	.st126{fill:url(#SVGID_79_);}
	.st127{fill:url(#SVGID_80_);}
	.st128{clip-path:url(#SVGID_82_);}
	.st129{fill:url(#SVGID_83_);}
	.st130{fill:url(#SVGID_84_);}
	.st131{opacity:0.54;}
	.st132{fill:url(#SVGID_85_);}
	.st133{fill:url(#SVGID_86_);}
	.st134{opacity:0.63;}
	.st135{fill:url(#SVGID_87_);}
	.st136{fill:url(#SVGID_88_);}
	.st137{fill:url(#SVGID_89_);}
	.st138{fill:url(#SVGID_90_);}
	.st139{clip-path:url(#SVGID_92_);}
	.st140{clip-path:url(#SVGID_94_);}
	.st141{fill:#535353;}
	.st142{fill:#F0F0F0;}
	.st143{fill:#E1E1E1;}
	.st144{clip-path:url(#SVGID_96_);}
	.st145{fill:url(#SVGID_97_);}
	.st146{clip-path:url(#SVGID_98_);}
	.st147{clip-path:url(#SVGID_99_);}
	.st148{clip-path:url(#SVGID_101_);}
	.st149{fill:url(#SVGID_102_);}
	.st150{fill:url(#SVGID_103_);}
	.st151{fill:url(#SVGID_104_);}
	.st152{fill:url(#SVGID_105_);}
	.st153{clip-path:url(#SVGID_107_);}
	.st154{clip-path:url(#SVGID_109_);}
	.st155{fill:#CBEEF8;}
	.st156{clip-path:url(#SVGID_110_);}
	.st157{fill:url(#SVGID_112_);}
	.st158{clip-path:url(#SVGID_113_);}
	.st159{fill:url(#SVGID_114_);}
	.st160{clip-path:url(#SVGID_116_);}
	.st161{clip-path:url(#SVGID_117_);}
	.st162{clip-path:url(#SVGID_118_);}
	.st163{clip-path:url(#SVGID_119_);}
	.st164{fill:#B4D8DC;}
	.st165{clip-path:url(#SVGID_120_);}
	.st166{fill:#5D8681;}
	.st167{fill:url(#SVGID_121_);}
	.st168{clip-path:url(#SVGID_122_);}
	.st169{fill:#DDF3F7;}
	.st170{fill:#E4A96F;}
	.st171{fill:url(#SVGID_123_);}
	.st172{fill:#EAB278;}
	.st173{fill:url(#SVGID_124_);}
	.st174{fill:url(#SVGID_125_);}
	.st175{fill:#DA9D6B;}
	.st176{opacity:0.74;fill:#DA9D6B;}
	.st177{opacity:0.5;fill:#DA9D6B;}
	.st178{opacity:0.39;fill:#DA9D6B;}
	.st179{opacity:0.36;fill:#DA9D6B;}
	.st180{opacity:0.68;fill:#DA9D6B;}
	.st181{opacity:0.86;fill:#DA9D6B;}
	.st182{opacity:0.62;fill:#DA9D6B;}
	.st183{opacity:0.63;fill:#DA9D6B;}
	.st184{fill:url(#SVGID_126_);}
	.st185{fill:url(#SVGID_127_);}
	.st186{clip-path:url(#SVGID_128_);}
	.st187{fill:url(#SVGID_130_);}
	.st188{fill:url(#SVGID_131_);}
	.st189{fill:url(#SVGID_132_);}
	.st190{fill:url(#SVGID_133_);}
	.st191{clip-path:url(#SVGID_135_);}
	.st192{clip-path:url(#SVGID_137_);}
	.st193{clip-path:url(#SVGID_140_);}
	.st194{fill:#8D8D8D;}
	.st195{clip-path:url(#SVGID_142_);}
	.st196{fill:url(#SVGID_144_);}
	.st197{clip-path:url(#SVGID_146_);}
	.st198{clip-path:url(#SVGID_149_);}
</style>
<g>
	<defs>
		<rect id="SVGID_141_" x="0.09" y="-0.71" width="240.51" height="257.87"/>
	</defs>
	<clipPath id="SVGID_1_">
		<use xlink:href="#SVGID_141_"  style="overflow:visible;"/>
	</clipPath>
	<g style="clip-path:url(#SVGID_1_);">
		<g>
			<path class="st28" d="M46.64,168.8c0,0-8.51-9.79-40.41-14.52c-3.36-0.5-6.41,2.2-6.23,5.59c1.4,26.25,42.88,49.26,42.88,49.26
				L46.64,168.8z"/>
			<path class="st6" d="M40.81,169.87c-4.11-2.35-11.78-5.54-25.1-7.52c-2.48-0.37-4.64,1.64-4.49,4.15
				c0.67,11.32,11.62,21.79,20.32,28.38c4.61,3.5,11.28,0.53,11.81-5.23l1.18-12.66C44.79,174.09,43.34,171.31,40.81,169.87z"/>
			<linearGradient id="SVGID_2_" gradientUnits="userSpaceOnUse" x1="121.0621" y1="287.0966" x2="121.0621" y2="45.7562">
				<stop  offset="0.3407" style="stop-color:#314448"/>
				<stop  offset="0.7363" style="stop-color:#465B5E"/>
			</linearGradient>
			<path class="st2" d="M173.8,287.1H68.32c-16.73,0-30.07-13.95-29.34-30.66l6.08-138.13c1.79-40.57,35.2-72.55,75.82-72.55h0
				c40.54,0,73.92,31.86,75.81,72.35l6.45,138.25C203.92,273.1,190.56,287.1,173.8,287.1z"/>
			<path class="st6" d="M181.98,276.57H60.05V173.7c0-27.5,22.29-49.79,49.79-49.79h22.35c27.5,0,49.79,22.29,49.79,49.79V276.57z"
				/>
			<path class="st6" d="M152.94,83.83c-10.89-1.08-20.76,3.57-26.96,11.28c-2.55,3.17-7.37,3.17-9.92,0
				c-6.2-7.72-16.07-12.36-26.96-11.28c-14.75,1.46-26.47,13.65-27.41,28.44c-1.13,17.8,12.97,32.58,30.53,32.58
				c13.28,0,24.58-8.46,28.81-20.29c4.23,11.83,15.53,20.29,28.81,20.29c17.55,0,31.65-14.79,30.53-32.58
				C179.41,97.48,167.68,85.29,152.94,83.83z"/>
			<g>
				<circle class="st28" cx="88.46" cy="112.36" r="5.03"/>
				<circle cx="88.42" cy="112.42" r="3.48"/>
				<circle class="st6" cx="86.79" cy="110.71" r="1.76"/>
			</g>
			<g>
				<circle class="st28" cx="148.83" cy="112.36" r="5.03"/>
				<circle cx="148.8" cy="112.42" r="3.48"/>
				<circle class="st6" cx="147.17" cy="110.71" r="1.76"/>
			</g>
			<g>
				<path class="st30" d="M109.38,116.12l2.3,3.63l9.26,1.76l6.56-2.46l1.95-2.93c0,0-6.12-0.65-9.44-5.04
					c-0.26-0.34-0.77-0.36-1.06-0.04C115.83,114.51,109.38,116.12,109.38,116.12z"/>
				<path class="st27" d="M119.42,120.2c-4.1,0-7.73-1.61-10.04-4.08c0.42,5.3,4.75,9.48,10.04,9.48s9.62-4.17,10.04-9.48
					C127.16,118.59,123.52,120.2,119.42,120.2z"/>
			</g>
			<path class="st31" d="M197.32,117.11c-32.46,15.46-72.21,21.18-107.53,15.04c-15.21-2.64-32.07-7.04-45.06-13.53
				c-7.03-3.51-6.47,43.91-3.56,47.02c60.32,30.82,123.85,14.01,158.9-2.69C205.15,160.54,204.41,113.74,197.32,117.11z"/>
			<g>
				<defs>
					<path id="SVGID_145_" d="M197.24,117.21c-32.46,15.46-72.21,21.18-107.53,15.04c-15.21-2.64-32.07-7.04-45.06-13.53
						c-7.03-3.51-6.47,43.91-3.56,47.02c60.32,30.82,123.85,14.01,158.9-2.69C205.07,160.64,204.33,113.83,197.24,117.21z"/>
				</defs>
				<use xlink:href="#SVGID_145_"  style="overflow:visible;fill:#FF8400;"/>
				<clipPath id="SVGID_3_">
					<use xlink:href="#SVGID_145_"  style="overflow:visible;"/>
				</clipPath>
				<g style="clip-path:url(#SVGID_3_);">
					<circle class="st33" cx="42.93" cy="163.83" r="5.16"/>
					<circle class="st33" cx="54.03" cy="135.69" r="5.16"/>
					<circle class="st33" cx="72.63" cy="157.26" r="5.16"/>
					<circle class="st33" cx="97.32" cy="141.79" r="5.16"/>
					<circle class="st33" cx="96.7" cy="173.83" r="5.16"/>
					<circle class="st33" cx="124.52" cy="158.04" r="5.16"/>
					<circle class="st33" cx="156.1" cy="168.99" r="5.16"/>
					<circle class="st33" cx="154.53" cy="137.72" r="5.16"/>
					<circle class="st33" cx="179.7" cy="148.67" r="5.16"/>
					<circle class="st33" cx="199.71" cy="123.81" r="5.16"/>
					<circle class="st33" cx="200.18" cy="163.52" r="5.16"/>
				</g>
			</g>
			<g>
				<path class="st28" d="M192.7,205.88c0,0,13.73,0.45,41.29,17.42c2.34,1.44,5.33-0.23,5.38-2.98
					c0.43-26.77-40.79-54.52-40.79-54.52L192.7,205.88z"/>
			</g>
			<path class="st31" d="M82.7,55.15c50.3,16.09,76.09-0.51,76.09-0.51s-11.49-36.77-37.79-45.96
				C119.21,27.83,83.72,47.49,82.7,55.15z"/>
			<g>
				<g>
					<path class="st33" d="M81.56,57.1c19.04,5.97,39.23,9.06,59.08,5.85c6.98-1.13,14.79-3.01,20.86-6.87
						c5.42-3.44,0.41-12.1-5.05-8.63c-4.93,3.13-11.16,4.6-17.51,5.7c-18.28,3.18-37.23-0.21-54.72-5.69
						C78.06,45.52,75.43,55.18,81.56,57.1L81.56,57.1z"/>
				</g>
			</g>
			<circle class="st33" cx="123.55" cy="7.91" r="7.91"/>
		</g>
		<g>
			<path class="st34" d="M82.24,124.52c9.59-2.89,18.93-0.31,23.93,2.74c2.29,1.39,3.39,4.01,3.11,6.68
				c-3.27,60.22-3.04,86.44-3.04,86.44l-39.31-1.25c0,0-0.92-81.93,14.18-94.03C81.44,124.83,81.83,124.64,82.24,124.52z"/>
			<g>
				<defs>
					<path id="SVGID_148_" d="M82.18,124.43c9.59-2.89,18.93-0.31,23.93,2.74c2.29,1.39,3.39,4.01,3.11,6.68
						c-3.27,60.22-3.04,86.44-3.04,86.44l-39.31-1.25c0,0-0.92-81.93,14.18-94.03C81.38,124.74,81.78,124.56,82.18,124.43z"/>
				</defs>
				<clipPath id="SVGID_4_">
					<use xlink:href="#SVGID_148_"  style="overflow:visible;"/>
				</clipPath>
				<g style="clip-path:url(#SVGID_4_);">
					<circle class="st33" cx="78.4" cy="206.8" r="5.16"/>
					<circle class="st33" cx="91.57" cy="149.95" r="5.16"/>
					<circle class="st33" cx="105.44" cy="208.29" r="5.16"/>
					<circle class="st33" cx="81.33" cy="126.7" r="5.16"/>
					<circle class="st33" cx="69.57" cy="171.95" r="5.16"/>
					<circle class="st33" cx="95.59" cy="183.98" r="5.16"/>
				</g>
			</g>
			<path class="st34" d="M71.78,227.87L71.78,227.87c-2.72,0-4.92-2.2-4.92-4.92v-7.03c0-2.72,2.2-4.92,4.92-4.92h0
				c2.72,0,4.92,2.2,4.92,4.92v7.03C76.7,225.67,74.5,227.87,71.78,227.87z"/>
			<path class="st34" d="M81.62,228.34L81.62,228.34c-2.72,0-4.92-2.2-4.92-4.92v-7.03c0-2.72,2.2-4.92,4.92-4.92h0
				c2.72,0,4.92,2.2,4.92,4.92v7.03C86.55,226.14,84.34,228.34,81.62,228.34z"/>
			<path class="st34" d="M91.47,228.81L91.47,228.81c-2.72,0-4.92-2.2-4.92-4.92v-7.03c0-2.72,2.2-4.92,4.92-4.92h0
				c2.72,0,4.92,2.2,4.92,4.92v7.03C96.4,226.61,94.19,228.81,91.47,228.81z"/>
			<path class="st34" d="M101.28,228.58L101.28,228.58c-2.72,0-4.92-2.2-4.92-4.92v-4.26c0-2.72,2.2-4.92,4.92-4.92h0
				c2.72,0,4.92,2.2,4.92,4.92v4.26C106.2,226.37,104,228.58,101.28,228.58z"/>
		</g>
	</g>
</g>
</svg>
