<?xml version="1.0" encoding="utf-8"?>
<!-- Generator: Adobe Illustrator 23.0.3, SVG Export Plug-In . SVG Version: 6.00 Build 0)  -->
<svg version="1.1" id="Слой_1" xmlns="http://www.w3.org/2000/svg" xmlns:xlink="http://www.w3.org/1999/xlink" x="0px" y="0px"
	 viewBox="0 0 1082.4 617.9" style="enable-background:new 0 0 1082.4 617.9;" xml:space="preserve">
<style type="text/css">
	.st0{clip-path:url(#SVGID_2_);}
	.st1{fill:#D4ECF6;}
	.st2{fill:url(#SVGID_3_);}
	.st3{fill:url(#SVGID_4_);}
	.st4{fill:url(#SVGID_5_);}
	.st5{fill:#FFFFFF;}
	.st6{fill:url(#SVGID_6_);}
	.st7{fill:url(#SVGID_8_);}
	.st8{fill:url(#SVGID_9_);}
	.st9{clip-path:url(#SVGID_10_);}
	.st10{fill:url(#SVGID_11_);}
	.st11{fill:#CDDCDF;}
	.st12{fill:url(#SVGID_12_);}
	.st13{fill:#A7C1BC;}
	.st14{fill:#B2CCC7;}
	.st15{fill:#BED7D3;}
	.st16{fill:#6A8480;}
	.st17{fill:#79958F;}
	.st18{fill:#829E98;}
	.st19{fill:#8BA7A1;}
	.st20{fill:#94AFAA;}
	.st21{fill:#9DB8B3;}
	.st22{fill:url(#SVGID_13_);}
	.st23{fill:#C9E2DE;}
	.st24{clip-path:url(#SVGID_14_);}
	.st25{fill:#EFEFEF;}
	.st26{fill:#EBF8FF;}
	.st27{fill:url(#SVGID_15_);}
	.st28{fill:url(#SVGID_16_);}
	.st29{fill:url(#SVGID_17_);}
	.st30{fill:url(#SVGID_19_);}
	.st31{fill:url(#SVGID_20_);}
	.st32{fill:url(#SVGID_21_);}
	.st33{fill:#CA6347;}
	.st34{clip-path:url(#SVGID_23_);}
	.st35{fill:#BF4D45;}
	.st36{clip-path:url(#SVGID_25_);}
	.st37{fill:#A4A4A4;}
	.st38{fill:#8B8B8B;}
	.st39{fill:url(#SVGID_26_);}
	.st40{opacity:0.43;fill:url(#SVGID_27_);}
	.st41{opacity:0.63;fill:url(#SVGID_28_);}
	.st42{opacity:0.69;fill:url(#SVGID_29_);}
	.st43{opacity:0.54;fill:url(#SVGID_30_);}
	.st44{opacity:0.43;fill:url(#SVGID_31_);}
	.st45{opacity:0.68;fill:url(#SVGID_32_);}
	.st46{opacity:0.49;fill:url(#SVGID_33_);}
	.st47{opacity:0.78;fill:url(#SVGID_34_);}
	.st48{opacity:0.74;fill:url(#SVGID_35_);}
	.st49{fill:url(#SVGID_36_);}
	.st50{fill:url(#SVGID_37_);}
	.st51{fill:url(#SVGID_38_);}
	.st52{fill:url(#SVGID_39_);}
	.st53{fill:url(#SVGID_40_);}
	.st54{fill:url(#SVGID_41_);}
	.st55{fill:url(#SVGID_42_);}
	.st56{fill:url(#SVGID_43_);}
	.st57{fill:#F0CA77;}
	.st58{fill:#CC6A49;}
	.st59{fill:#7F636B;}
	.st60{fill:#DBA052;}
	.st61{fill:#E2F2F6;}
	.st62{fill:#D3A672;}
	.st63{fill:url(#SVGID_44_);}
	.st64{fill:#DAAF7A;}
	.st65{fill:url(#SVGID_45_);}
	.st66{fill:url(#SVGID_46_);}
	.st67{fill:#C99B6D;}
	.st68{opacity:0.74;fill:#C99B6D;}
	.st69{opacity:0.5;fill:#C99B6D;}
	.st70{opacity:0.39;fill:#C99B6D;}
	.st71{opacity:0.36;fill:#C99B6D;}
	.st72{opacity:0.68;fill:#C99B6D;}
	.st73{opacity:0.86;fill:#C99B6D;}
	.st74{opacity:0.62;fill:#C99B6D;}
	.st75{opacity:0.63;fill:#C99B6D;}
	.st76{fill:url(#SVGID_47_);}
	.st77{fill:url(#SVGID_48_);}
	.st78{fill:none;}
</style>
<g>
	<defs>
		<rect id="SVGID_1_" width="1082.4" height="618.5"/>
	</defs>
	<clipPath id="SVGID_2_">
		<use xlink:href="#SVGID_1_"  style="overflow:visible;"/>
	</clipPath>
	<g class="st0">
		<rect x="0.3" y="0.1" class="st1" width="1082.4" height="618.5"/>
		<linearGradient id="SVGID_3_" gradientUnits="userSpaceOnUse" x1="830.3218" y1="57.2798" x2="830.3218" y2="284.6337">
			<stop  offset="0.2321" style="stop-color:#CDDCDF"/>
			<stop  offset="0.9888" style="stop-color:#AAC1C9"/>
		</linearGradient>
		<polygon class="st2" points="751.5,133.8 807.3,57.3 862.5,86 919.1,86.3 991.9,177.5 782.6,284.6 668.7,198.3 701.4,158.4 		"/>
		<linearGradient id="SVGID_4_" gradientUnits="userSpaceOnUse" x1="805.5659" y1="53.6087" x2="805.5659" y2="157.0635">
			<stop  offset="0.2943" style="stop-color:#FFFFFF"/>
			<stop  offset="0.9888" style="stop-color:#EBF8FF;stop-opacity:0.4"/>
		</linearGradient>
		<path class="st3" d="M758.2,116.7c-2.7,4.8-5.5,9.7-9.5,13.4c-6.4,6-15.2,8.5-23,12.4c-4.9,2.5-9.4,5.6-13.5,9.2
			c-2.2,2-0.5,5.7,2.4,5.2c18.9-2.8,36.8-11.8,50.2-25.3c0.8-0.8,1.8-1.3,2.9-1.3c0.9,0,1.7,0.3,2.2,0.8c2,1.9,5.1,2,6.9-0.1
			c6.3-7.4,12.6-14.8,18.8-22.2c4.8-5.7,10.8-11.9,18.3-11.4c3.4,0.2,6.5,1.8,9.7,2.7c3.3,0.9,7.2,1,9.6-1.4
			c1.2-1.2,1.8-2.8,2.8-4.2c2.3-3.2,6.5-4.5,10.4-4.6c3.9-0.1,7.8,0.9,11.6,1.6c12.7,2.2,26,0.8,37.9-4.1c2.1-0.8,4.5-2.6,3.8-4.7
			c-12.2-2-24.9,0.8-37-1.8c-10.6-2.3-19.8-8.4-29.2-13.9c-7.8-4.5-17.1-11-26-13.1c-8.3-2-11.8,4.7-16.1,10.7
			C779.6,81.4,768.5,98.8,758.2,116.7z"/>
		<linearGradient id="SVGID_5_" gradientUnits="userSpaceOnUse" x1="979.3071" y1="171.3398" x2="1247.6105" y2="171.3398">
			<stop  offset="0.2321" style="stop-color:#CDDCDF"/>
			<stop  offset="0.9888" style="stop-color:#AAC1C9"/>
		</linearGradient>
		<polygon class="st4" points="1164.9,134.2 1109,57.7 1053.8,86.4 1006.5,95.3 979.3,175.8 1133.7,285 1247.6,198.6 1215,158.8 		
			"/>
		<g>
			<path class="st5" d="M609.1,147.8c-51.7,10.8-87.2,56.4-122.7,95.5c-56.8,62.5-124.7,114.9-199.5,154.1
				c-8.3,4.3-17.7,9.8-19.2,19c-2.2,13.3,13.1,22.4,26.3,25.3c33.8,7.2,68.9,0,102-9.6c126.3-36.5,241.3-106.7,368.7-139.2
				c6.2-1.6,12.8-3.2,17.4-7.7c11.4-10.9,15.6-48.1,9.5-62.4c-6.4-14.9-26-23.3-38.9-31.5C710.5,164.6,661,137,609.1,147.8z"/>
			<path class="st5" d="M1025.7,104.9c-20.6-13.8-44.1-24.9-68.9-24.8c-22.5,0.1-44.2,9.5-62.5,22.7c-18.3,13.1-33.7,29.9-48.9,46.5
				c-27.7,30.3-55.4,60.5-83.2,90.8c-14.3,15.6-28.7,31.4-40.2,49.2c-2.1,3.3-4.2,6.9-3.8,10.7c0.8,8.3,11.2,11.3,19.6,12.3
				c125.2,14,250.3,28,375.5,42c0.6-56.3,1.2-112.7,1.8-169c0.1-6,0-12.5-3.4-17.4c-7.3-10.5-24.6-18.4-35.2-25.8
				C1059.4,129.9,1043.2,116.5,1025.7,104.9z"/>
		</g>
		<linearGradient id="SVGID_6_" gradientUnits="userSpaceOnUse" x1="764.1005" y1="94.7371" x2="1054.6691" y2="365.0903">
			<stop  offset="0.2043" style="stop-color:#FFFFFF"/>
			<stop  offset="0.6659" style="stop-color:#EBF8FF;stop-opacity:0.4"/>
		</linearGradient>
		<path class="st6" d="M1025.9,105c-20.6-13.8-44.1-24.9-68.9-24.8c-22.5,0.1-44.2,9.5-62.5,22.7s-33.7,29.9-48.9,46.5
			c-27.7,30.3-55.4,60.5-83.2,90.8c-14.3,15.6-28.7,31.4-40.2,49.2c-2.1,3.3-4.2,6.9-3.8,10.7c0.8,8.3,11.2,11.3,19.6,12.3
			c125.2,14,250.3,28,375.5,42c0.6-56.3,1.2-112.7,1.8-169c0.1-6,0-12.5-3.4-17.4c-7.3-10.5-24.6-18.4-35.2-25.8
			C1059.5,130.1,1043.3,116.7,1025.9,105z"/>
		<linearGradient id="SVGID_8_" gradientUnits="userSpaceOnUse" x1="989.694" y1="345.303" x2="989.694" y2="138.044">
			<stop  offset="0.6659" style="stop-color:#EBF8FF;stop-opacity:0.4"/>
			<stop  offset="1" style="stop-color:#D4ECF6;stop-opacity:0.4"/>
		</linearGradient>
		<path class="st7" d="M952.6,80.6c7.2,7.3,15.6,11.8,24.2,17.3c4.3,2.8,8.6,5.7,12.8,9.6c2.1,1.9,4.1,4.1,5.8,6.5
			c1.8,2.4,3.4,5.2,4.6,8.2c1.2,3,2,6.2,2.3,9.5c0.3,3.3,0.2,6.5-0.2,9.5c-0.9,6.1-2.7,11.5-4.5,16.4c-1.9,4.9-3.9,9.4-5.4,13.7
			c-1.5,4.2-2.6,8.1-2.7,11.2c-0.1,1.6,0.1,2.9,0.4,4.2c0.1,0.7,0.4,1.3,0.6,1.9c0.3,0.6,0.6,1.2,1,1.9c1.6,2.6,4.6,5.6,8.2,8.9
			c1.8,1.7,3.8,3.5,5.7,5.6c1,1,1.9,2.1,2.9,3.1l2.6,3.3c3.4,4.5,6.3,9.3,8.6,14.3l0.9,1.9c0.3,0.6,0.5,1.3,0.8,1.9
			c0.5,1.3,1,2.6,1.5,3.9c0.8,2.6,1.7,5.2,2.2,7.9c0.6,2.6,1.1,5.3,1.4,8c0.2,1.3,0.2,2.7,0.3,4c0.1,1.3,0.2,2.7,0.2,4
			c0.1,5.3-0.5,10.7-1.6,15.8c-1.1,5.1-2.9,10.1-5.2,14.6c0-5.1,0-10.1-0.6-14.9c-0.1-1.2-0.4-2.4-0.5-3.6c-0.2-1.2-0.3-2.4-0.6-3.6
			c-0.3-1.2-0.5-2.3-0.7-3.5l-0.9-3.4c-1.3-4.5-2.8-8.9-4.8-13.1c-0.9-2.1-2.1-4.1-3.1-6.1l-1.8-2.9c-0.3-0.5-0.6-1-0.9-1.4l-1-1.4
			c-2.5-3.8-5.3-7.2-8.3-10.4l-2.3-2.3L992,219l-1.2-1.1l-1.3-1.1l-2.8-2.3c-3.9-3.2-8.5-6.9-12.5-12.6c-0.5-0.7-1-1.5-1.4-2.2
			c-0.5-0.8-0.9-1.6-1.2-2.4c-0.8-1.7-1.4-3.3-1.9-5.1c-1-3.5-1.3-7.2-1.2-10.6c0.3-6.9,2.3-12.7,4.3-17.8c2.1-5.1,4.4-9.6,6.4-13.9
			c2-4.3,3.7-8.3,4.7-12c1-3.8,1.2-7.1,0.5-10.6c-0.4-1.7-0.9-3.5-1.8-5.3c-0.9-1.8-2-3.6-3.2-5.4c-2.5-3.6-5.8-7.2-9.1-10.9
			c-3.3-3.7-6.9-7.5-10-11.6C957,90,954.2,85.5,952.6,80.6z"/>
		<linearGradient id="SVGID_9_" gradientUnits="userSpaceOnUse" x1="891.5919" y1="262.0138" x2="1115.5485" y2="262.0138">
			<stop  offset="0.2321" style="stop-color:#CDDCDF"/>
			<stop  offset="0.9888" style="stop-color:#AAC1C9"/>
		</linearGradient>
		<path class="st8" d="M891.6,263.3l70.5-28.3l55.9,23l97.6-73.3c0,0-19.4,150.7-18.7,154.5c0.8,3.8-191.5-40.6-191.5-40.6
			L891.6,263.3z"/>
		<g>
			<g>
				<defs>
					<path id="SVGID_7_" d="M609.3,147.6c-51.7,10.8-87.2,56.4-122.7,95.5C429.8,305.6,361.9,358,287.1,397.1
						c-8.3,4.3-17.7,9.8-19.2,19c-2.2,13.3,13.1,22.4,26.3,25.3c33.8,7.2,68.9,0,102-9.6C522.6,395.4,637.5,325.1,765,292.7
						c6.2-1.6,12.8-3.2,17.4-7.7c11.4-10.9,15.6-48.1,9.5-62.4c-6.4-14.9-26-23.3-38.9-31.5C710.7,164.3,661.3,136.8,609.3,147.6z"
						/>
				</defs>
				<clipPath id="SVGID_10_">
					<use xlink:href="#SVGID_7_"  style="overflow:visible;"/>
				</clipPath>
				<g class="st9">
				</g>
			</g>
		</g>
		<linearGradient id="SVGID_11_" gradientUnits="userSpaceOnUse" x1="541.148" y1="160.923" x2="419.1362" y2="380.8111">
			<stop  offset="0" style="stop-color:#D4ECF6;stop-opacity:0.5"/>
			<stop  offset="0.7686" style="stop-color:#D4ECF6;stop-opacity:0.6"/>
		</linearGradient>
		<path class="st10" d="M629.7,144.5c-7.4,6.2-16.7,13.9-24.2,19.9c-7.5,6-15.1,11.8-22.7,17.6c-3.9,2.9-7.6,5.6-10.5,8.6
			c-2.9,2.9-5,6-5.3,8.6c-0.2,1.3-0.1,2.5,0.3,3.8c0.4,1.3,1.1,2.7,2.1,4.3c2,3.1,5.1,6.5,8.3,10.8c1.6,2.2,3.2,4.5,4.6,7.4
			c1.4,2.9,2.5,6.3,2.8,10.1c0.2,3.7-0.4,7.6-1.8,11.1c-1.4,3.5-3.5,6.4-5.7,8.9c-2.3,2.5-4.7,4.5-7.2,6.1c-2.5,1.7-5.1,3.1-7.7,4.2
			c-2.6,1.2-5.3,2.1-8,2.9c-2.5,0.7-5,1.4-7.5,1.9c-19.8,4.3-38.1,5.5-50.9,14.3c-3.2,2.1-6,4.5-8.2,7.2c-2.2,2.7-3.7,5.5-4.6,8.5
			c-0.9,3-1.2,7.2-1.7,12.2c-0.1,1.3-0.3,2.6-0.4,4c-0.2,1.4-0.4,2.8-0.7,4.2c-0.5,2.7-1.2,5.5-2.1,8.1c-1.7,5.3-4,10.4-6.8,15.1
			c-2.8,4.8-6.2,9.1-10.1,13.1c-1.9,2-4,3.8-6.1,5.6c-1.1,0.8-2.2,1.7-3.3,2.5l-3.4,2.3c-4.6,2.9-9.5,5.3-14.4,7.2
			c-9.9,3.8-19.9,5.7-29.7,6.8c-9.8,1.2-19.4,1.6-28.9,2.2c-9.5,0.5-18.8,1.3-28,2.9c-9.2,1.7-18.3,4.3-26.8,8.8
			c3.6-3.3,7.6-6,11.8-8.5c4.3-2.4,8.7-4.5,13.3-6.2c9.2-3.5,18.8-5.7,28.3-7.7l14.1-2.8c4.7-0.9,9.3-1.8,13.8-2.9
			c4.5-1.1,8.9-2.2,13.2-3.6c4.3-1.4,8.3-3,12.2-4.9c3.9-1.9,7.5-4,10.8-6.5c0.8-0.7,1.6-1.3,2.4-1.9c0.8-0.6,1.5-1.3,2.3-2
			c1.5-1.4,2.9-2.8,4.2-4.4c2.6-3.1,4.9-6.5,6.8-10c1.9-3.6,3.4-7.3,4.4-11.2c0.5-1.9,0.9-3.9,1.3-5.8c0.1-1,0.3-1.9,0.4-2.9
			c0.1-1,0.2-2.1,0.3-3.2c0.3-4.5,0.4-9.9,2-16.1c1.6-6.2,4.8-11.9,8.6-16.7c3.9-4.7,8.4-8.6,13.1-11.8c4.8-3.1,9.8-5.5,15-7.5
			c1.3-0.5,2.6-0.9,3.9-1.3c1.3-0.4,2.6-0.8,3.8-1.1c2.5-0.7,5.1-1.3,7.6-1.8c5-1,9.9-1.7,14.6-2.5c4.7-0.7,9.3-1.4,13.7-2.2
			c2.2-0.4,4.4-0.9,6.4-1.3c1.9-0.4,3.7-1,5.5-1.7c1.8-0.7,3.4-1.5,5-2.4c1.5-0.9,2.9-1.8,3.9-2.8c1-1,1.8-2,2.3-2.9
			c0.5-0.9,0.6-1.8,0.8-2.9c0.1-1-0.1-2.2-0.7-3.7c-0.5-1.5-1.4-3.2-2.6-4.9c-1.1-1.8-2.4-3.7-3.8-5.8c-1.4-2.1-2.8-4.4-4.1-7
			c-1.3-2.6-2.5-5.6-3.1-9.1c-0.6-3.4-0.3-7.1,0.7-10.4c1-3.3,2.8-6.2,4.7-8.6c1.9-2.4,4.1-4.3,6.2-5.9c4.3-3.3,8.8-5.7,12.9-8
			c8.4-4.6,38.1-24.2,46.6-28.7C626.4,144.3,630.3,144.3,629.7,144.5z"/>
		<polygon class="st11" points="-12,453.1 43.4,434.9 76.2,412.7 103.6,366.6 95.3,417.7 95,493.4 -8.9,533.6 		"/>
		<linearGradient id="SVGID_12_" gradientUnits="userSpaceOnUse" x1="48.2727" y1="425.1522" x2="285.4642" y2="425.1522">
			<stop  offset="0.3467" style="stop-color:#CDDCDF"/>
			<stop  offset="0.9888" style="stop-color:#AAC1C9"/>
		</linearGradient>
		<polygon class="st12" points="167.4,400.3 103.6,366.6 88.1,404.2 84.3,432.5 48.3,483.9 118.7,469.5 226,444 285.5,401.2 
			234.4,366.4 198.6,399 		"/>
		<g>
			<path class="st13" d="M253,426.8c4.4,0.8,9.1-1,12.2-4.8c-0.8,2.1-1.9,4.1-3.1,5.8c1.8,0.5,3.8-0.2,5.3-1.4
				c1.6-1.2,2.8-2.9,4.1-4.6l0.2,3.8c1.6-0.2,3.2-1.1,4.3-2.5c-0.4,1.1-0.9,2.2-1.3,3.3c-0.1,0.4-0.3,0.8,0,1.2
				c0.3,0.5,0.9,0.5,1.2,0.2c1.2-1,2.2-2.4,2.9-3.9c0.1,1.1,1,2,1.9,2.1c0.9,0.1,1.8-0.6,2.1-1.7c0.3,1.1,1.3,1.9,2.2,1.8
				c1-0.1,1.7-1.2,1.7-2.4c0.3,2.4,2.6,4.2,4.5,3.4c0.1-0.8,0.1-1.6,0.2-2.4c-0.2,1.5,0.3,3.2,1.2,4.3c0.3,0.4,0.7,0.7,1.2,0.6
				c1.1,0,1.4-1.4,1.3-2.5c-0.1-1-0.3-1.9-0.1-2.9c0.5,3.7,4.2,5.6,7.3,5.7c0.3,0,0.6-0.2,0.7-0.5c0.2-0.6-0.3-1-0.7-1.4
				c-1.1-1-1.8-2.5-2-4.1c0.8,1.8,2.4,3,4.1,3.2c0.1-1.2,0-2.5-0.2-3.7l5.2,5.1c0.2,0.2,0.5,0.3,0.8,0.3c0.6-0.2,0.6-1.1,0.5-1.7
				c-0.3-1.6-0.7-3.1-1.3-4.6c1.1,1.6,2.5,2.8,4.2,3.3c0.1-0.8,0-1.6-0.2-2.4c0.8,1,1.7,2,2.8,2.2c1.1,0.2,2.4-1,2.1-2.3
				c-0.5-0.2,3.7,2.3,6.1,2.3c0.5,0,0.7-0.8,0.2-1.1c-1.1-0.7-2.6-1.8-2.9-3.2c2.6,1.8,5.4,3,8.3,3.6c-0.4-1.1-1.1-2.1-2-2.8l6.9,1
				c0.6,0.1,1.2-0.2,1.5-0.8c0.6-1.1-0.2-2-0.9-2.6c-2.2-1.8-5-2.2-7.4-3.6c-3.3-1.9-5.7-5.5-7.8-9c-0.3-0.5-0.7-1.1-1.2-1.4
				c-0.5-0.3-1-0.2-1.5-0.2c-9.7,0.5-17.4-5.8-29.2,0.9c-3.6,2.1-7.9-1.9-12-1.7c-2.2,0.1-4.8,0.9-6.2,3.1c-1.3,1.9-2.1,4-3.5,5.9
				C262.6,418.9,258.3,423.5,253,426.8z"/>
			<path class="st13" d="M314,390c-2,1.1,14.5,18.6,13.9,19.3c-0.7,0.7-8.8-3.7-8.8-3.7s2.3,2.7,1.9,3.3c-0.3,0.6-4.8-2.6-4.8-2.6
				s1.1,1.5,0.8,2.1c-0.3,0.6-3.5-2.2-3.5-2.2s0.8,2.2,0.4,2.5c-0.4,0.2-2.3-2.3-2.3-2.3s0,2.8-0.8,2.9s-1.6-2.4-1.6-2.4
				s-0.9,3.7-1.8,3.7c-0.9,0-2.5-3.9-2.5-3.9s-1.6,8.6-3,8.5c-1.4-0.1-1.5-9.9-1.5-9.9s-2.9,7.3-3.7,7c-0.8-0.3-0.6-2.9-0.6-2.9
				s-1.8,2.2-2.5,1.9s-1.5-4.8-1.5-4.8s-2.1,7.4-2.9,7.1c-0.8-0.3-0.5-5-0.5-5s-6.6,9-7.7,7.9c-1.1-1.1,2.5-9.5,2.5-9.5
				s-2.9,4.6-3.6,4.3c-0.7-0.2-0.1-4.4-0.1-4.4s-3.2,4.9-3.9,4.3c-0.7-0.5,0.5-5.7,0.5-5.7s-3.6,4.3-4.1,3.8s0.4-2.9,0.4-2.9
				s-8.7,4.2-9,2.5c2.2-3.2,17.3-22.5,17.3-22.5l27.1-3.2C308.1,383.4,316.1,388.9,314,390z"/>
			<path class="st14" d="M281.2,380.2c0,0-14.9,16.1-14.2,16.7c0.6,0.6,7.5-3.6,7.5-3.6s-1.8,2.4-1.5,2.8s4-2.4,4-2.4
				s-0.9,1.3-0.6,1.7c0.3,0.4,3-2,3-2s-0.6,1.9-0.2,2.1c0.4,0.2,1.9-2,1.9-2s0.1,2.3,0.9,2.3c0.7,0.1,1.3-2.1,1.3-2.1s1,3,1.8,3
				s2-3.3,2-3.3s1.9,7.1,3.1,6.9s0.8-8.3,0.8-8.3s2.9,5.9,3.6,5.6c0.7-0.3,0.3-2.4,0.3-2.4s1.7,1.8,2.3,1.4c0.6-0.3,1-4,1-4
				s2.3,6,3,5.7c0.7-0.3,0.2-4.1,0.2-4.1s6.3,7.1,7.2,6.1c0.9-0.9-2.7-7.7-2.7-7.7s2.8,3.6,3.4,3.4c0.6-0.2-0.2-3.7-0.2-3.7
				s3.1,3.8,3.6,3.4c0.6-0.5-0.8-4.7-0.8-4.7s3.4,3.4,3.8,2.9c0.4-0.5-0.5-2.4-0.5-2.4s7.8,3,8.1,1.6c-2.1-2.5-17.8-15.7-17.8-15.7
				l-22.6-3.1L281.2,380.2z"/>
			<path class="st15" d="M293.7,348.7c-4,13.2-17.1,29.3-19.3,33c-0.2,0.3,0,0.8,0.3,0.7c5.3-0.1,8.7-2.9,9.8-4c0,0,0.1,0,0.1,0.1
				c-1,1.5-4.1,6.1-2.9,6.5c1.4,0.4,5-3.3,5.5-3.9c0,0,0.1,0,0.1,0c-0.1,0.6-0.4,3,0,3.4c0.4,0.4,2.8-2.8,3.2-3.3c0,0,0.1,0,0.1,0
				c0.1,0.6,0.6,4.6,1.7,4.3c1.1-0.2,1.8-4.2,1.9-5.2c0,0,0.1,0,0.1,0c0.2,0.7,0.9,3.2,1.7,3.1c0.8-0.1,0.8-2.6,0.8-3.4
				c0,0,0.1-0.1,0.1,0c0.4,1,2,5,2.8,4.8c0.8-0.3,0.7-2.6,0.7-3.3c0,0,0-0.1,0.1,0c0.5,0.7,2.9,4.4,3.7,4.3c0.8-0.1-0.5-3.6-0.8-4.5
				c0,0,0-0.1,0.1-0.1c0.9,1.1,6.3,6.9,7.8,5.9c0,0,0,0,0,0c0.4-2.5-3.5-7.4-4.5-8.6c0,0,0-0.1,0-0.1c1.1,0.7,5.2,3.5,8.1,2.8
				c0.2-0.1,0.3-0.4,0.2-0.6c-2.3-2.8-15.8-17.6-20.5-32.1C294.3,348.4,293.8,348.4,293.7,348.7z"/>
		</g>
		<g>
			<path class="st16" d="M515.7,338.7c4.3,0.8,8.9-1,11.9-4.6c-0.8,2.1-1.8,4-3.1,5.7c1.8,0.5,3.7-0.2,5.2-1.4
				c1.5-1.2,2.8-2.8,4-4.4l0.2,3.7c1.6-0.2,3.1-1.1,4.2-2.4c-0.4,1.1-0.8,2.1-1.2,3.2c-0.1,0.4-0.3,0.7,0,1.1
				c0.3,0.4,0.8,0.5,1.2,0.2c1.2-1,2.1-2.3,2.8-3.8c0.1,1,0.9,1.9,1.8,2c0.9,0.1,1.8-0.6,2-1.6c0.3,1.1,1.2,1.9,2.2,1.7
				c0.9-0.1,1.7-1.2,1.7-2.3c0.2,2.4,2.5,4.1,4.4,3.4c0.1-0.8,0.1-1.6,0.2-2.4c-0.2,1.5,0.3,3.1,1.2,4.2c0.3,0.4,0.7,0.6,1.2,0.6
				c1,0,1.4-1.4,1.3-2.4c-0.1-0.9-0.3-1.9-0.1-2.8c0.5,3.7,4.1,5.5,7.1,5.5c0.3,0,0.6-0.2,0.7-0.5c0.2-0.6-0.3-1-0.6-1.4
				c-1-1-1.7-2.4-1.9-4c0.8,1.7,2.3,3,4,3.1c0.1-1.2,0-2.4-0.2-3.6l5.1,4.9c0.2,0.2,0.5,0.3,0.8,0.3c0.6-0.2,0.6-1,0.5-1.7
				c-0.3-1.6-0.7-3.1-1.3-4.5c1,1.6,2.5,2.7,4.1,3.2c0.1-0.8,0-1.6-0.2-2.3c0.8,1,1.6,2,2.7,2.2c1.1,0.2,2.4-1,2.1-2.3
				c-0.5-0.2,3.6,2.2,5.9,2.2c0.5,0,0.7-0.8,0.2-1.1c-1.1-0.6-2.5-1.8-2.9-3.1c2.5,1.7,5.3,2.9,8.1,3.5c-0.4-1.1-1.1-2.1-1.9-2.7
				l6.7,0.9c0.6,0.1,1.1-0.2,1.4-0.8c0.6-1-0.2-2-0.9-2.6c-2.2-1.7-4.9-2.1-7.2-3.5c-3.2-1.9-5.5-5.3-7.7-8.8
				c-0.3-0.5-0.7-1.1-1.2-1.3c-0.5-0.3-1-0.2-1.5-0.2c-9.5,0.5-17-5.7-28.5,0.8c-3.5,2-7.8-1.9-11.7-1.7c-2.2,0.1-4.7,0.9-6.1,3
				c-1.2,1.9-2,3.9-3.4,5.7C525.1,331,521,335.5,515.7,338.7z"/>
			<path class="st17" d="M575.3,302.9c-2,1.1,14.2,18.1,13.5,18.8c-0.6,0.7-8.6-3.6-8.6-3.6s2.2,2.6,1.9,3.2s-4.7-2.5-4.7-2.5
				s1.1,1.5,0.8,2s-3.5-2.2-3.5-2.2s0.8,2.2,0.4,2.4s-2.3-2.2-2.3-2.2s0,2.7-0.8,2.8s-1.6-2.4-1.6-2.4s-0.9,3.6-1.7,3.6
				c-0.8,0-2.5-3.8-2.5-3.8s-1.5,8.4-2.9,8.3s-1.5-9.6-1.5-9.6s-2.8,7.2-3.6,6.8c-0.8-0.3-0.5-2.8-0.5-2.8s-1.8,2.2-2.5,1.9
				c-0.7-0.3-1.4-4.6-1.4-4.6s-2.1,7.2-2.9,6.9c-0.8-0.3-0.5-4.9-0.5-4.9s-6.4,8.8-7.6,7.7c-1.1-1,2.4-9.3,2.4-9.3s-2.9,4.4-3.5,4.2
				c-0.6-0.2-0.1-4.3-0.1-4.3s-3.1,4.7-3.8,4.2c-0.7-0.5,0.5-5.5,0.5-5.5s-3.5,4.2-4,3.7c-0.5-0.5,0.4-2.8,0.4-2.8s-8.5,4.1-8.8,2.4
				c2.2-3.1,16.9-22,16.9-22l26.4-3.1C569.5,296.4,577.3,301.8,575.3,302.9z"/>
			<path class="st18" d="M543.3,293.3c0,0-14.5,15.8-13.9,16.3s7.3-3.5,7.3-3.5s-1.8,2.3-1.5,2.8c0.3,0.5,3.9-2.3,3.9-2.3
				s-0.9,1.3-0.6,1.7c0.3,0.4,2.9-2,2.9-2s-0.6,1.8-0.2,2s1.9-2,1.9-2s0.1,2.2,0.9,2.3s1.2-2,1.2-2s1,2.9,1.7,2.9
				c0.7-0.1,1.9-3.3,1.9-3.3s1.8,6.9,3,6.7s0.8-8.1,0.8-8.1s2.9,5.8,3.5,5.5c0.7-0.3,0.3-2.4,0.3-2.4s1.7,1.7,2.3,1.4
				c0.6-0.3,1-3.9,1-3.9s2.2,5.8,2.9,5.6c0.7-0.3,0.2-4,0.2-4s6.1,6.9,7.1,6c0.9-0.9-2.6-7.5-2.6-7.5s2.7,3.5,3.3,3.3
				c0.6-0.2-0.2-3.6-0.2-3.6s3,3.7,3.6,3.3s-0.8-4.5-0.8-4.5s3.3,3.3,3.7,2.8c0.4-0.5-0.5-2.3-0.5-2.3s7.6,2.9,7.9,1.5
				c-2.1-2.4-17.4-15.4-17.4-15.4l-22-3L543.3,293.3z"/>
			<path class="st19" d="M555.5,262.6c-3.9,12.9-16.7,28.6-18.8,32.2c-0.2,0.3,0,0.7,0.3,0.7c5.2-0.1,8.5-2.8,9.5-3.9
				c0,0,0.1,0,0.1,0.1c-1,1.5-4,6-2.8,6.3c1.3,0.3,4.8-3.2,5.4-3.8c0,0,0.1,0,0.1,0c-0.1,0.6-0.4,2.9,0,3.3c0.4,0.4,2.8-2.7,3.1-3.2
				c0,0,0.1,0,0.1,0c0.1,0.6,0.6,4.4,1.7,4.2c1-0.2,1.7-4.1,1.9-5c0,0,0.1,0,0.1,0c0.2,0.7,0.8,3.1,1.6,3c0.8-0.1,0.8-2.5,0.8-3.3
				c0,0,0.1-0.1,0.1,0c0.4,0.9,2,4.9,2.7,4.7c0.8-0.3,0.7-2.6,0.6-3.2c0,0,0-0.1,0.1,0c0.4,0.7,2.8,4.3,3.6,4.2
				c0.8-0.1-0.5-3.5-0.8-4.4c0,0,0-0.1,0.1-0.1c0.9,1,6.1,6.7,7.6,5.7c0,0,0,0,0,0c0.4-2.4-3.4-7.2-4.4-8.3c0,0,0-0.1,0-0.1
				c1,0.7,5.1,3.4,7.9,2.7c0.2-0.1,0.3-0.4,0.1-0.6c-2.2-2.8-15.4-17.2-20-31.3C556,262.2,555.6,262.2,555.5,262.6z"/>
		</g>
		<g>
			<path class="st16" d="M1018.8,322.1c4.9,0.9,10.1-1.1,13.6-5.3c-0.9,2.4-2.1,4.6-3.5,6.5c2,0.6,4.2-0.2,5.9-1.6s3.1-3.2,4.5-5.1
				l0.2,4.2c1.8-0.2,3.5-1.2,4.8-2.8c-0.5,1.2-0.9,2.4-1.4,3.6c-0.2,0.4-0.3,0.9,0,1.3c0.3,0.5,1,0.5,1.4,0.2
				c1.3-1.1,2.4-2.6,3.2-4.3c0.2,1.2,1.1,2.2,2.1,2.3c1,0.1,2-0.7,2.3-1.9c0.3,1.2,1.4,2.1,2.5,2c1.1-0.2,1.9-1.4,1.9-2.7
				c0.3,2.7,2.9,4.7,5,3.8c0.1-0.9,0.1-1.8,0.2-2.7c-0.2,1.7,0.3,3.5,1.3,4.8c0.4,0.4,0.8,0.7,1.3,0.7c1.2,0,1.6-1.6,1.5-2.8
				c-0.1-1.1-0.3-2.2-0.1-3.2c0.5,4.2,4.7,6.2,8.2,6.3c0.3,0,0.7-0.2,0.8-0.6c0.2-0.6-0.3-1.2-0.7-1.6c-1.2-1.1-2-2.8-2.2-4.5
				c0.9,2,2.7,3.4,4.5,3.6c0.1-1.4,0-2.8-0.3-4.1l5.8,5.6c0.3,0.3,0.6,0.4,0.9,0.3c0.7-0.2,0.7-1.2,0.6-1.9
				c-0.3-1.8-0.8-3.5-1.5-5.1c1.2,1.8,2.8,3.1,4.7,3.6c0.1-0.9,0.1-1.8-0.2-2.6c0.9,1.1,1.9,2.3,3.1,2.5c1.3,0.2,2.7-1.1,2.4-2.6
				c-0.5-0.2,4.1,2.5,6.8,2.5c0.6,0,0.8-0.9,0.2-1.2c-1.2-0.7-2.9-2-3.3-3.6c2.8,2,6,3.3,9.2,4c-0.4-1.3-1.2-2.4-2.2-3.1l7.6,1.1
				c0.6,0.1,1.3-0.2,1.6-0.9c0.6-1.2-0.2-2.3-1-2.9c-2.5-2-5.6-2.4-8.3-4c-3.7-2.1-6.3-6.1-8.7-10c-0.4-0.6-0.8-1.2-1.3-1.5
				c-0.5-0.3-1.1-0.3-1.7-0.2c-10.9,0.5-19.4-6.5-32.5,1c-4,2.3-8.8-2.2-13.3-1.9c-2.5,0.1-5.3,1-6.9,3.5c-1.4,2.1-2.3,4.5-3.9,6.5
				C1029.5,313.3,1024.8,318.4,1018.8,322.1z"/>
			<path class="st17" d="M1086.8,281.1c-2.3,1.2,16.2,20.7,15.4,21.5c-0.7,0.8-9.8-4.2-9.8-4.2s2.5,3,2.2,3.7s-5.3-2.9-5.3-2.9
				s1.2,1.7,0.9,2.3c-0.4,0.6-3.9-2.5-3.9-2.5s0.9,2.5,0.4,2.7s-2.6-2.5-2.6-2.5s0,3.1-0.9,3.2c-0.9,0.1-1.8-2.7-1.8-2.7
				s-1,4.1-2,4.1c-1,0-2.8-4.3-2.8-4.3s-1.8,9.6-3.3,9.5c-1.6-0.1-1.7-11-1.7-11s-3.2,8.2-4.1,7.8c-0.9-0.4-0.6-3.2-0.6-3.2
				s-2,2.5-2.8,2.1c-0.8-0.4-1.6-5.3-1.6-5.3s-2.4,8.2-3.3,7.9c-0.9-0.3-0.6-5.5-0.6-5.5s-7.4,10-8.6,8.8
				c-1.3-1.2,2.8-10.6,2.8-10.6s-3.3,5.1-4,4.8c-0.7-0.2-0.1-4.9-0.1-4.9s-3.6,5.4-4.3,4.8c-0.7-0.6,0.6-6.3,0.6-6.3s-4,4.8-4.6,4.2
				c-0.5-0.6,0.5-3.2,0.5-3.2s-9.6,4.6-10.1,2.8c2.5-3.5,19.3-25.1,19.3-25.1l30.2-3.6C1080.1,273.7,1089.1,279.9,1086.8,281.1z"/>
			<path class="st18" d="M1050.3,270.3c0,0-16.6,18-15.9,18.6c0.7,0.6,8.4-4,8.4-4s-2.1,2.6-1.7,3.2c0.4,0.5,4.5-2.7,4.5-2.7
				s-1,1.4-0.6,1.9c0.4,0.5,3.3-2.3,3.3-2.3s-0.6,2.1-0.2,2.3c0.4,0.2,2.1-2.2,2.1-2.2s0.2,2.5,1,2.6c0.8,0.1,1.4-2.3,1.4-2.3
				s1.1,3.4,2,3.3c0.8-0.1,2.2-3.7,2.2-3.7s2.1,7.9,3.4,7.7c1.4-0.2,0.9-9.2,0.9-9.2s3.3,6.6,4,6.2c0.8-0.4,0.4-2.7,0.4-2.7
				s1.9,2,2.6,1.6c0.7-0.4,1.2-4.5,1.2-4.5s2.5,6.7,3.3,6.4s0.2-4.6,0.2-4.6s7,7.9,8.1,6.8c1.1-1.1-3-8.6-3-8.6s3.1,4,3.8,3.8
				s-0.2-4.1-0.2-4.1s3.4,4.3,4.1,3.8c0.6-0.5-0.9-5.2-0.9-5.2s3.8,3.8,4.2,3.2c0.4-0.5-0.6-2.6-0.6-2.6s8.7,3.3,9,1.7
				c-2.4-2.8-19.8-17.5-19.8-17.5l-25.2-3.4L1050.3,270.3z"/>
			<path class="st19" d="M1064.2,235.2c-4.4,14.7-19.1,32.7-21.4,36.7c-0.2,0.4,0,0.8,0.4,0.8c5.9-0.1,9.7-3.2,10.9-4.4
				c0,0,0.1,0,0.1,0.1c-1.2,1.7-4.6,6.8-3.2,7.2c1.5,0.4,5.5-3.6,6.2-4.3c0,0,0.1,0,0.1,0c-0.1,0.6-0.4,3.4,0,3.8
				c0.4,0.4,3.1-3.1,3.6-3.6c0,0,0.1,0,0.1,0c0.1,0.7,0.7,5.1,1.9,4.8c1.2-0.3,2-4.7,2.1-5.7c0-0.1,0.1-0.1,0.1,0
				c0.2,0.8,1,3.6,1.9,3.5c0.9-0.1,0.9-2.9,0.9-3.7c0-0.1,0.1-0.1,0.1,0c0.4,1.1,2.3,5.6,3.1,5.3c0.9-0.3,0.8-2.9,0.7-3.6
				c0,0,0-0.1,0.1,0c0.5,0.8,3.2,4.9,4.1,4.8c0.9-0.1-0.5-4-0.9-5c0,0,0-0.1,0.1-0.1c1,1.2,7,7.7,8.7,6.6c0,0,0,0,0,0
				c0.4-2.8-3.9-8.2-5-9.5c0,0,0-0.1,0-0.1c1.2,0.8,5.8,3.8,9.1,3.1c0.3-0.1,0.4-0.4,0.2-0.7c-2.5-3.1-17.6-19.6-22.8-35.7
				C1064.8,234.8,1064.3,234.8,1064.2,235.2z"/>
		</g>
		<g>
			<path class="st19" d="M567.8,318.1c4.3,0.8,8.9-1,11.9-4.6c-0.8,2.1-1.8,4-3.1,5.7c1.8,0.5,3.7-0.2,5.2-1.4
				c1.5-1.2,2.8-2.8,4-4.4l0.2,3.7c1.6-0.2,3.1-1.1,4.2-2.4c-0.4,1.1-0.8,2.1-1.2,3.2c-0.1,0.4-0.3,0.7,0,1.1
				c0.3,0.4,0.8,0.5,1.2,0.2c1.2-1,2.1-2.3,2.8-3.8c0.1,1,0.9,1.9,1.8,2c0.9,0.1,1.8-0.6,2-1.6c0.3,1.1,1.2,1.9,2.2,1.7
				c0.9-0.1,1.7-1.2,1.7-2.3c0.2,2.4,2.5,4.1,4.4,3.4c0.1-0.8,0.1-1.6,0.2-2.4c-0.2,1.5,0.3,3.1,1.2,4.2c0.3,0.4,0.7,0.6,1.2,0.6
				c1,0,1.4-1.4,1.3-2.4c-0.1-0.9-0.3-1.9-0.1-2.8c0.5,3.7,4.1,5.5,7.1,5.5c0.3,0,0.6-0.2,0.7-0.5c0.2-0.6-0.3-1-0.6-1.4
				c-1-1-1.7-2.4-1.9-4c0.8,1.7,2.3,3,4,3.1c0.1-1.2,0-2.4-0.2-3.6l5.1,4.9c0.2,0.2,0.5,0.3,0.8,0.3c0.6-0.2,0.6-1,0.5-1.7
				c-0.3-1.6-0.7-3.1-1.3-4.5c1,1.6,2.5,2.7,4.1,3.2c0.1-0.8,0-1.6-0.2-2.3c0.8,1,1.6,2,2.7,2.2c1.1,0.2,2.4-1,2.1-2.3
				c-0.5-0.2,3.6,2.2,5.9,2.2c0.5,0,0.7-0.8,0.2-1.1c-1.1-0.6-2.5-1.8-2.9-3.1c2.5,1.7,5.3,2.9,8.1,3.5c-0.4-1.1-1.1-2.1-1.9-2.7
				l6.7,0.9c0.6,0.1,1.1-0.2,1.4-0.8c0.6-1-0.2-2-0.9-2.6c-2.2-1.7-4.9-2.1-7.2-3.5c-3.2-1.9-5.5-5.3-7.7-8.8
				c-0.3-0.5-0.7-1.1-1.2-1.3c-0.5-0.3-1-0.2-1.5-0.2c-9.5,0.5-17-5.7-28.5,0.8c-3.5,2-7.8-1.9-11.7-1.7c-2.2,0.1-4.7,0.9-6.1,3
				c-1.2,1.9-2,3.9-3.4,5.7C577.2,310.3,573,314.8,567.8,318.1z"/>
			<path class="st20" d="M627.4,282.2c-2,1.1,14.2,18.1,13.5,18.8c-0.6,0.7-8.6-3.6-8.6-3.6s2.2,2.6,1.9,3.2s-4.7-2.5-4.7-2.5
				s1.1,1.5,0.8,2s-3.5-2.2-3.5-2.2s0.8,2.2,0.4,2.4c-0.4,0.2-2.3-2.2-2.3-2.2s0,2.7-0.8,2.8c-0.8,0.1-1.6-2.4-1.6-2.4
				s-0.9,3.6-1.7,3.6c-0.8,0-2.5-3.8-2.5-3.8s-1.5,8.4-2.9,8.3c-1.4-0.1-1.5-9.6-1.5-9.6s-2.8,7.2-3.6,6.8c-0.8-0.3-0.5-2.8-0.5-2.8
				s-1.8,2.2-2.5,1.9c-0.7-0.3-1.4-4.6-1.4-4.6s-2.1,7.2-2.9,6.9s-0.5-4.9-0.5-4.9s-6.4,8.8-7.6,7.7s2.4-9.3,2.4-9.3
				s-2.9,4.4-3.5,4.2c-0.6-0.2-0.1-4.3-0.1-4.3s-3.1,4.7-3.8,4.2c-0.7-0.5,0.5-5.5,0.5-5.5s-3.5,4.2-4,3.7c-0.5-0.5,0.4-2.8,0.4-2.8
				s-8.5,4.1-8.8,2.4c2.2-3.1,16.9-22,16.9-22l26.4-3.1C621.6,275.7,629.4,281.1,627.4,282.2z"/>
			<path class="st21" d="M595.4,272.7c0,0-14.5,15.8-13.9,16.3s7.3-3.5,7.3-3.5s-1.8,2.3-1.5,2.8c0.3,0.5,3.9-2.3,3.9-2.3
				s-0.9,1.3-0.6,1.7c0.3,0.4,2.9-2,2.9-2s-0.6,1.8-0.2,2s1.9-2,1.9-2s0.1,2.2,0.9,2.3c0.7,0.1,1.2-2,1.2-2s1,2.9,1.7,2.9
				c0.7-0.1,1.9-3.3,1.9-3.3s1.8,6.9,3,6.7c1.2-0.2,0.8-8.1,0.8-8.1s2.9,5.8,3.5,5.5c0.7-0.3,0.3-2.4,0.3-2.4s1.7,1.7,2.3,1.4
				c0.6-0.3,1-3.9,1-3.9s2.2,5.8,2.9,5.6c0.7-0.3,0.2-4,0.2-4s6.1,6.9,7.1,6c0.9-0.9-2.6-7.5-2.6-7.5s2.7,3.5,3.3,3.3
				s-0.2-3.6-0.2-3.6s3,3.7,3.6,3.3c0.5-0.5-0.8-4.5-0.8-4.5s3.3,3.3,3.7,2.8c0.4-0.5-0.5-2.3-0.5-2.3s7.6,2.9,7.9,1.5
				c-2.1-2.4-17.4-15.4-17.4-15.4l-22-3L595.4,272.7z"/>
			<path class="st13" d="M607.6,241.9c-3.9,12.9-16.7,28.6-18.8,32.2c-0.2,0.3,0,0.7,0.3,0.7c5.2-0.1,8.5-2.8,9.5-3.9
				c0,0,0.1,0,0.1,0.1c-1,1.5-4,6-2.8,6.3c1.3,0.3,4.8-3.2,5.4-3.8c0,0,0.1,0,0.1,0c-0.1,0.6-0.4,2.9,0,3.3c0.4,0.4,2.8-2.7,3.1-3.2
				c0,0,0.1,0,0.1,0c0.1,0.6,0.6,4.4,1.7,4.2c1-0.2,1.7-4.1,1.9-5c0,0,0.1,0,0.1,0c0.2,0.7,0.8,3.1,1.6,3c0.8-0.1,0.8-2.5,0.8-3.3
				c0,0,0.1-0.1,0.1,0c0.4,0.9,2,4.9,2.7,4.7c0.8-0.3,0.7-2.6,0.6-3.2c0,0,0-0.1,0.1,0c0.4,0.7,2.8,4.3,3.6,4.2
				c0.8-0.1-0.5-3.5-0.8-4.4c0,0,0-0.1,0.1-0.1c0.9,1,6.1,6.7,7.6,5.7c0,0,0,0,0,0c0.4-2.4-3.4-7.2-4.4-8.3c0,0,0-0.1,0-0.1
				c1,0.7,5.1,3.4,7.9,2.7c0.2-0.1,0.3-0.4,0.1-0.6c-2.2-2.8-15.4-17.2-20-31.3C608.1,241.5,607.7,241.5,607.6,241.9z"/>
		</g>
		<linearGradient id="SVGID_13_" gradientUnits="userSpaceOnUse" x1="540.2341" y1="264.8446" x2="540.2341" y2="680.0032">
			<stop  offset="0.3519" style="stop-color:#FFFFFF"/>
			<stop  offset="0.9888" style="stop-color:#EBF8FF;stop-opacity:0.4"/>
		</linearGradient>
		<path class="st22" d="M-3.5,507.5c0,0,115.2-57.3,252-81.8c39.6-7.1,88.4,6.1,140.6-13.8c52.2-19.9,232.8-145.5,417.2-147.1
			c105.3-0.9,277.8,57.8,277.8,57.8l-0.9,299.7L1.8,680L-3.5,507.5z"/>
		<g>
			<path class="st20" d="M312.7,426.8c4.3,0.8,8.9-1,11.9-4.6c-0.8,2.1-1.8,4-3.1,5.7c1.8,0.5,3.7-0.2,5.2-1.4s2.8-2.8,4-4.4
				l0.2,3.7c1.6-0.2,3.1-1.1,4.2-2.4c-0.4,1.1-0.8,2.1-1.2,3.2c-0.1,0.4-0.3,0.7,0,1.1c0.3,0.4,0.8,0.5,1.2,0.2
				c1.2-1,2.1-2.3,2.8-3.8c0.1,1,0.9,1.9,1.8,2c0.9,0.1,1.8-0.6,2-1.6c0.3,1.1,1.2,1.9,2.2,1.7c0.9-0.1,1.7-1.2,1.7-2.3
				c0.2,2.4,2.5,4.1,4.4,3.4c0.1-0.8,0.1-1.6,0.2-2.4c-0.2,1.5,0.3,3.1,1.2,4.2c0.3,0.4,0.7,0.6,1.2,0.6c1,0,1.4-1.4,1.3-2.4
				c-0.1-0.9-0.3-1.9-0.1-2.8c0.5,3.7,4.1,5.5,7.1,5.5c0.3,0,0.6-0.2,0.7-0.5c0.2-0.6-0.3-1-0.6-1.4c-1-1-1.7-2.4-1.9-4
				c0.8,1.7,2.3,3,4,3.1c0.1-1.2,0-2.4-0.2-3.6l5.1,4.9c0.2,0.2,0.5,0.3,0.8,0.3c0.6-0.2,0.6-1,0.5-1.7c-0.3-1.6-0.7-3.1-1.3-4.5
				c1,1.6,2.5,2.7,4.1,3.2c0.1-0.8,0-1.6-0.2-2.3c0.8,1,1.6,2,2.7,2.2c1.1,0.2,2.4-1,2.1-2.3c-0.5-0.2,3.6,2.2,5.9,2.2
				c0.5,0,0.7-0.8,0.2-1.1c-1.1-0.6-2.5-1.8-2.9-3.1c2.5,1.7,5.3,2.9,8.1,3.5c-0.4-1.1-1.1-2.1-1.9-2.7l6.7,0.9
				c0.6,0.1,1.1-0.2,1.4-0.8c0.6-1-0.2-2-0.9-2.6c-2.2-1.7-4.9-2.1-7.2-3.5c-3.2-1.9-5.5-5.3-7.7-8.8c-0.3-0.5-0.7-1.1-1.2-1.3
				c-0.5-0.3-1-0.2-1.5-0.2c-9.5,0.5-17-5.7-28.5,0.8c-3.5,2-7.8-1.9-11.7-1.7c-2.2,0.1-4.7,0.9-6.1,3c-1.2,1.9-2,3.9-3.4,5.7
				C322.1,419.1,317.9,423.6,312.7,426.8z"/>
			<path class="st21" d="M372.3,390.9c-2,1.1,14.2,18.1,13.5,18.8s-8.6-3.6-8.6-3.6s2.2,2.6,1.9,3.2c-0.3,0.6-4.7-2.5-4.7-2.5
				s1.1,1.5,0.8,2s-3.5-2.2-3.5-2.2s0.8,2.2,0.4,2.4c-0.4,0.2-2.3-2.2-2.3-2.2s0,2.7-0.8,2.8c-0.8,0.1-1.6-2.4-1.6-2.4
				s-0.9,3.6-1.7,3.6c-0.8,0-2.5-3.8-2.5-3.8s-1.5,8.4-2.9,8.3c-1.4-0.1-1.5-9.6-1.5-9.6s-2.8,7.2-3.6,6.8c-0.8-0.3-0.5-2.8-0.5-2.8
				s-1.8,2.2-2.5,1.9c-0.7-0.3-1.4-4.6-1.4-4.6s-2.1,7.2-2.9,6.9s-0.5-4.9-0.5-4.9s-6.4,8.8-7.6,7.7c-1.1-1,2.4-9.3,2.4-9.3
				s-2.9,4.4-3.5,4.2c-0.6-0.2-0.1-4.3-0.1-4.3s-3.1,4.7-3.8,4.2c-0.7-0.5,0.5-5.5,0.5-5.5s-3.5,4.2-4,3.7c-0.5-0.5,0.4-2.8,0.4-2.8
				s-8.5,4.1-8.8,2.4c2.2-3.1,16.9-22,16.9-22l26.4-3.1C366.4,384.4,374.3,389.8,372.3,390.9z"/>
			<path class="st13" d="M340.3,381.4c0,0-14.5,15.8-13.9,16.3c0.6,0.6,7.3-3.5,7.3-3.5s-1.8,2.3-1.5,2.8c0.3,0.5,3.9-2.3,3.9-2.3
				s-0.9,1.3-0.6,1.7c0.3,0.4,2.9-2,2.9-2s-0.6,1.8-0.2,2c0.4,0.2,1.9-2,1.9-2s0.1,2.2,0.9,2.3c0.7,0.1,1.2-2,1.2-2s1,2.9,1.7,2.9
				s1.9-3.3,1.9-3.3s1.8,6.9,3,6.7s0.8-8.1,0.8-8.1s2.9,5.8,3.5,5.5s0.3-2.4,0.3-2.4s1.7,1.7,2.3,1.4c0.6-0.3,1-3.9,1-3.9
				s2.2,5.8,2.9,5.6c0.7-0.3,0.2-4,0.2-4s6.1,6.9,7.1,6c0.9-0.9-2.6-7.5-2.6-7.5s2.7,3.5,3.3,3.3s-0.2-3.6-0.2-3.6s3,3.7,3.6,3.3
				c0.5-0.5-0.8-4.5-0.8-4.5s3.3,3.3,3.7,2.8c0.4-0.5-0.5-2.3-0.5-2.3s7.6,2.9,7.9,1.5c-2.1-2.4-17.4-15.4-17.4-15.4l-22-3
				L340.3,381.4z"/>
			<path class="st14" d="M352.4,350.6c-3.9,12.9-16.7,28.6-18.8,32.2c-0.2,0.3,0,0.7,0.3,0.7c5.2-0.1,8.5-2.8,9.5-3.9
				c0,0,0.1,0,0.1,0.1c-1,1.5-4,6-2.8,6.3c1.3,0.3,4.8-3.2,5.4-3.8c0,0,0.1,0,0.1,0c-0.1,0.6-0.4,2.9,0,3.3c0.4,0.4,2.8-2.7,3.1-3.2
				c0,0,0.1,0,0.1,0c0.1,0.6,0.6,4.4,1.7,4.2c1-0.2,1.7-4.1,1.9-5c0,0,0.1,0,0.1,0c0.2,0.7,0.8,3.1,1.6,3c0.8-0.1,0.8-2.5,0.8-3.3
				c0,0,0.1-0.1,0.1,0c0.4,0.9,2,4.9,2.7,4.7c0.8-0.3,0.7-2.6,0.6-3.2c0,0,0-0.1,0.1,0c0.4,0.7,2.8,4.3,3.6,4.2
				c0.8-0.1-0.5-3.5-0.8-4.4c0,0,0-0.1,0.1-0.1c0.9,1,6.1,6.7,7.6,5.7c0,0,0,0,0,0c0.4-2.4-3.4-7.2-4.4-8.3c0,0,0-0.1,0-0.1
				c1,0.7,5.1,3.4,7.9,2.7c0.2-0.1,0.3-0.4,0.1-0.6c-2.2-2.8-15.4-17.2-20-31.3C353,350.2,352.6,350.2,352.4,350.6z"/>
		</g>
		<g>
			<path class="st13" d="M194.9,439.9c5,0.8,10.2-1.3,13.6-5.6c-0.9,2.4-2,4.6-3.4,6.6c2.1,0.5,4.2-0.3,5.9-1.7s3.1-3.3,4.5-5.2
				l0.2,4.2c1.8-0.2,3.5-1.3,4.8-2.9c-0.5,1.2-0.9,2.5-1.4,3.7c-0.2,0.4-0.3,0.9,0,1.3c0.3,0.5,1,0.5,1.4,0.2
				c1.3-1.2,2.4-2.7,3.2-4.4c0.2,1.2,1.1,2.2,2.1,2.3c1,0.1,2-0.7,2.3-1.9c0.3,1.2,1.5,2.1,2.5,1.9s1.9-1.4,1.9-2.7
				c0.3,2.7,3,4.7,5.1,3.8c0.1-0.9,0.1-1.8,0.2-2.7c-0.2,1.7,0.4,3.5,1.4,4.8c0.4,0.4,0.9,0.7,1.4,0.7c1.2-0.1,1.6-1.6,1.5-2.8
				c-0.1-1.1-0.4-2.2-0.1-3.2c0.6,4.2,4.8,6.2,8.3,6.2c0.3,0,0.7-0.2,0.8-0.6c0.2-0.6-0.3-1.2-0.8-1.6c-1.2-1.1-2-2.8-2.3-4.5
				c0.9,2,2.7,3.4,4.6,3.5c0.1-1.4,0-2.8-0.3-4.1l5.9,5.6c0.3,0.2,0.6,0.4,0.9,0.3c0.7-0.2,0.7-1.2,0.5-1.9
				c-0.3-1.8-0.9-3.5-1.6-5.1c1.2,1.8,2.9,3.1,4.8,3.6c0.1-0.9,0-1.8-0.3-2.6c0.9,1.1,1.9,2.3,3.2,2.4s2.7-1.2,2.3-2.7
				c-0.5-0.2,4.2,2.5,6.9,2.5c0.6,0,0.8-0.9,0.2-1.2c-1.2-0.7-2.9-2-3.3-3.5c2.9,2,6.1,3.3,9.4,3.9c-0.5-1.3-1.3-2.4-2.3-3.1l7.7,1
				c0.6,0.1,1.3-0.2,1.6-0.9c0.6-1.2-0.2-2.3-1-2.9c-2.5-2-5.7-2.4-8.4-3.9c-3.7-2.1-6.4-6-9-9.9c-0.4-0.6-0.8-1.2-1.3-1.5
				c-0.5-0.3-1.1-0.3-1.7-0.2c-10.9,0.7-19.7-6.2-32.7,1.5c-4,2.4-8.9-2-13.4-1.7c-2.5,0.2-5.3,1.1-6.9,3.6
				c-1.4,2.2-2.2,4.5-3.8,6.6C205.5,430.9,200.8,436.1,194.9,439.9z"/>
			<path class="st14" d="M262.7,397.6c-2.3,1.3,16.6,20.6,15.9,21.4c-0.7,0.8-9.9-4-9.9-4s2.6,3,2.2,3.7c-0.4,0.7-5.4-2.8-5.4-2.8
				s1.3,1.6,0.9,2.3s-4-2.4-4-2.4s0.9,2.5,0.5,2.7c-0.4,0.3-2.6-2.5-2.6-2.5s0.1,3.1-0.9,3.2s-1.8-2.7-1.8-2.7s-0.9,4.2-1.9,4.2
				c-1,0-2.9-4.3-2.9-4.3s-1.6,9.7-3.2,9.6s-1.9-11-1.9-11s-3.1,8.3-4,7.9c-0.9-0.4-0.7-3.2-0.7-3.2s-2,2.6-2.8,2.2
				c-0.8-0.4-1.7-5.3-1.7-5.3s-2.3,8.3-3.2,8c-0.9-0.3-0.7-5.6-0.7-5.6s-7.2,10.2-8.5,9s2.6-10.7,2.6-10.7s-3.2,5.2-3.9,4.9
				c-0.7-0.2-0.2-4.9-0.2-4.9s-3.5,5.5-4.3,4.9c-0.8-0.6,0.5-6.4,0.5-6.4s-4,4.9-4.5,4.3c-0.5-0.6,0.4-3.2,0.4-3.2s-9.6,4.8-10.1,3
				c2.5-3.6,19-25.6,19-25.6l30.3-4.1C255.9,390.2,265,396.3,262.7,397.6z"/>
			<path class="st15" d="M225.7,387.2c0,0-16.4,18.4-15.7,19c0.7,0.6,8.3-4.2,8.3-4.2s-2,2.7-1.7,3.2c0.4,0.5,4.5-2.8,4.5-2.8
				s-1,1.5-0.6,2c0.4,0.5,3.3-2.3,3.3-2.3s-0.6,2.1-0.2,2.3c0.4,0.2,2.1-2.3,2.1-2.3s0.2,2.6,1,2.6c0.8,0.1,1.4-2.4,1.4-2.4
				s1.2,3.4,2,3.3c0.9-0.1,2.2-3.8,2.2-3.8s2.2,7.9,3.6,7.7c1.4-0.2,0.8-9.3,0.8-9.3s3.4,6.6,4.2,6.2s0.3-2.7,0.3-2.7
				s1.9,1.9,2.6,1.6c0.7-0.4,1.1-4.5,1.1-4.5s2.7,6.7,3.4,6.4c0.8-0.3,0.1-4.7,0.1-4.7s7.2,7.8,8.2,6.7c1-1.1-3.2-8.6-3.2-8.6
				s3.2,4,3.9,3.7c0.6-0.3-0.2-4.1-0.2-4.1s3.5,4.3,4.2,3.7c0.6-0.5-1-5.2-1-5.2s3.9,3.7,4.3,3.2s-0.6-2.6-0.6-2.6s8.8,3.2,9.1,1.6
				c-2.4-2.8-20.3-17.3-20.3-17.3l-25.4-3.1L225.7,387.2z"/>
			<path class="st23" d="M239.2,351.6c-4.2,14.9-18.7,33.2-21,37.4c-0.2,0.4,0,0.8,0.4,0.8c6-0.2,9.7-3.4,10.9-4.6
				c0,0,0.1,0,0.1,0.1c-1.1,1.7-4.5,7-3.1,7.3c1.5,0.4,5.5-3.8,6.1-4.4c0,0,0.1,0,0.1,0c-0.1,0.6-0.4,3.4,0.1,3.8
				c0.4,0.4,3.1-3.2,3.5-3.7c0,0,0.1,0,0.1,0c0.1,0.7,0.8,5.1,2,4.8c1.2-0.3,1.9-4.8,2-5.8c0-0.1,0.1-0.1,0.1,0
				c0.2,0.8,1,3.6,1.9,3.4c0.9-0.1,0.9-2.9,0.8-3.8c0-0.1,0.1-0.1,0.1,0c0.4,1.1,2.4,5.6,3.2,5.3c0.9-0.3,0.7-3,0.7-3.7
				c0,0,0-0.1,0.1,0c0.5,0.8,3.3,4.9,4.2,4.7c0.9-0.1-0.6-4-1-5c0,0,0-0.1,0.1-0.1c1.1,1.2,7.2,7.6,8.8,6.5c0,0,0,0,0,0
				c0.4-2.8-4.1-8.2-5.2-9.5c0,0,0-0.1,0-0.1c1.2,0.8,5.9,3.8,9.2,3c0.3-0.1,0.4-0.5,0.2-0.7c-2.6-3.1-18-19.4-23.6-35.6
				C239.8,351.2,239.3,351.2,239.2,351.6z"/>
		</g>
		<path class="st5" d="M232.6,392"/>
		<g>
			<g>
				<g>
					<defs>
						<path id="SVGID_18_" d="M788.4,540.4l-39.7-21.2c13.9-26,34.6-47.6,60-62.7c10.9-6.5,22.1-11.4,32.9-16.1
							c12.1-5.3,23.6-10.4,33.3-17c13.3-9,25.2-25.6,21.1-38.5c-1.4-4.4-4.7-9.1-10-14.2c-13.1-12.5-30.7-20.8-49.4-29.5
							c-11-5.1-22.4-10.5-33.4-16.9c-10.5-6.2-22.5-12.2-31.2-26.7c-10.8-18,13.2-40.9,24-56.7l11.8,23.6c0,0,0,0,0,0
							c-0.3,0.7-14.3,1.8-12.4,5c-7.7,31.7,168,58.7,173.1,131.7c4.6,37.1-41.1,40.8-68.5,59.4c-13.2,9-27.1,15.1-40.6,21
							c-10,4.4-19.5,8.6-28,13.6C813.6,505.9,798.3,522,788.4,540.4z"/>
					</defs>
					<clipPath id="SVGID_14_">
						<use xlink:href="#SVGID_18_"  style="overflow:visible;"/>
					</clipPath>
					<g class="st24">
					</g>
				</g>
			</g>
		</g>
		<path class="st25" d="M560.2,402.7c0,0,0.5,0,1,0s1,0,1,0s-0.5,0-1,0S560.2,402.7,560.2,402.7z"/>
		<ellipse class="st26" cx="818.4" cy="482" rx="286.9" ry="93.8"/>
		<linearGradient id="SVGID_15_" gradientUnits="userSpaceOnUse" x1="818.4216" y1="586.216" x2="818.4216" y2="398.5564">
			<stop  offset="0" style="stop-color:#8BCFEC;stop-opacity:0.7"/>
			<stop  offset="1" style="stop-color:#D4ECF6;stop-opacity:0.3"/>
		</linearGradient>
		<ellipse class="st27" cx="818.4" cy="492.4" rx="286.9" ry="93.8"/>
		<g>
			<linearGradient id="SVGID_16_" gradientUnits="userSpaceOnUse" x1="614.3152" y1="449.0671" x2="720.0174" y2="449.0671">
				<stop  offset="0.3519" style="stop-color:#FFFFFF"/>
				<stop  offset="0.9888" style="stop-color:#EBF8FF;stop-opacity:0.4"/>
			</linearGradient>
			<path class="st28" d="M614.3,449.1c8.8-0.6,17.6-0.9,26.4-1.2c4.4-0.1,8.8-0.2,13.2-0.3l13.2-0.1l13.2,0.1
				c4.4,0.1,8.8,0.1,13.2,0.2c8.8,0.2,17.6,0.5,26.4,1.2c-8.8,0.6-17.6,1-26.4,1.2c-4.4,0.1-8.8,0.2-13.2,0.2l-13.2,0.1l-13.2-0.1
				c-4.4-0.1-8.8-0.1-13.2-0.3C631.9,450,623.1,449.7,614.3,449.1z"/>
		</g>
		<g>
			<linearGradient id="SVGID_17_" gradientUnits="userSpaceOnUse" x1="690.911" y1="434.5139" x2="796.6131" y2="434.5139">
				<stop  offset="0.3519" style="stop-color:#FFFFFF"/>
				<stop  offset="0.9888" style="stop-color:#EBF8FF;stop-opacity:0.4"/>
			</linearGradient>
			<path class="st29" d="M690.9,434.5c8.8-0.6,17.6-0.9,26.4-1.2c4.4-0.1,8.8-0.2,13.2-0.3l13.2-0.1l13.2,0.1
				c4.4,0.1,8.8,0.1,13.2,0.2c8.8,0.2,17.6,0.5,26.4,1.2c-8.8,0.6-17.6,1-26.4,1.2c-4.4,0.1-8.8,0.2-13.2,0.2l-13.2,0.1l-13.2-0.1
				c-4.4-0.1-8.8-0.1-13.2-0.3C708.5,435.5,699.7,435.1,690.9,434.5z"/>
		</g>
		<g>
			<linearGradient id="SVGID_19_" gradientUnits="userSpaceOnUse" x1="894.6556" y1="444.0883" x2="1000.3578" y2="444.0883">
				<stop  offset="0.3519" style="stop-color:#FFFFFF"/>
				<stop  offset="0.9888" style="stop-color:#EBF8FF;stop-opacity:0.4"/>
			</linearGradient>
			<path class="st30" d="M894.7,444.1c8.8-0.6,17.6-0.9,26.4-1.2c4.4-0.1,8.8-0.2,13.2-0.3l13.2-0.1l13.2,0.1
				c4.4,0.1,8.8,0.1,13.2,0.2c8.8,0.2,17.6,0.5,26.4,1.2c-8.8,0.6-17.6,1-26.4,1.2c-4.4,0.1-8.8,0.2-13.2,0.2l-13.2,0.1l-13.2-0.1
				c-4.4-0.1-8.8-0.1-13.2-0.3C912.3,445,903.5,444.7,894.7,444.1z"/>
		</g>
		
			<linearGradient id="SVGID_20_" gradientUnits="userSpaceOnUse" x1="335.8758" y1="197.5454" x2="335.8758" y2="284.6908" gradientTransform="matrix(0.9969 7.920557e-02 -7.920557e-02 0.9969 -210.565 141.4206)">
			<stop  offset="0.2943" style="stop-color:#FFFFFF"/>
			<stop  offset="0.9888" style="stop-color:#EBF8FF;stop-opacity:0.4"/>
		</linearGradient>
		<path class="st31" d="M64.7,414.8c-2.6,3.8-5.2,7.7-8.8,10.6c-5.8,4.6-13.4,6.1-20.2,8.9c-4.3,1.8-8.3,4.1-11.9,6.9
			c-2,1.5-0.8,4.7,1.7,4.5c16-1.1,31.7-7.4,43.8-17.9c0.7-0.6,1.6-1,2.5-0.9c0.8,0.1,1.4,0.4,1.8,0.8c1.6,1.8,4.2,2,5.8,0.4
			c5.8-5.8,11.5-11.6,17.3-17.4c4.4-4.5,9.9-9.3,16.1-8.4c2.8,0.4,5.3,2,8,2.9c2.7,1,6,1.3,8.1-0.6c1.1-0.9,1.7-2.3,2.7-3.3
			c2.2-2.5,5.7-3.4,9-3.2c3.3,0.2,6.5,1.3,9.7,2.1c10.5,2.7,21.7,2.4,32.1-0.9c1.8-0.6,3.9-1.9,3.5-3.7c-10.1-2.5-20.9-1-30.9-4
			c-8.7-2.6-16.1-8.4-23.6-13.6c-6.2-4.3-13.7-10.4-20.9-12.7c-6.8-2.2-10.2,3.1-14.2,7.9C85,386.6,74.5,400.4,64.7,414.8z"/>
		<linearGradient id="SVGID_21_" gradientUnits="userSpaceOnUse" x1="962.0599" y1="246.4713" x2="1044.6809" y2="246.4713">
			<stop  offset="0.5722" style="stop-color:#AAC1C9"/>
			<stop  offset="1" style="stop-color:#CDDCDF"/>
		</linearGradient>
		<polygon class="st32" points="962.1,235 1018,258 1044.7,238 1020.8,242.9 		"/>
		<g>
			<g>
				<path class="st33" d="M987.1,334.1L987.1,334.1c-2.2-0.2-3.8-2.1-3.7-4.4l3.9-44.5c0.2-2.2,2.1-3.8,4.4-3.7l0,0
					c2.2,0.2,3.8,2.1,3.7,4.4l-3.9,44.5C991.3,332.7,989.3,334.3,987.1,334.1z"/>
				<g>
					<defs>
						<path id="SVGID_22_" d="M987.1,334.2L987.1,334.2c-2.2-0.2-3.8-2.1-3.7-4.4l3.9-44.5c0.2-2.2,2.1-3.8,4.4-3.7l0,0
							c2.2,0.2,3.8,2.1,3.7,4.4l-3.9,44.5C991.3,332.8,989.3,334.4,987.1,334.2z"/>
					</defs>
					<clipPath id="SVGID_23_">
						<use xlink:href="#SVGID_22_"  style="overflow:visible;"/>
					</clipPath>
					<g class="st34">
						
							<rect x="978.6" y="293" transform="matrix(0.7659 -0.6429 0.6429 0.7659 42.098 705.4541)" class="st35" width="22.6" height="3.8"/>
						
							<rect x="980.1" y="300" transform="matrix(0.7659 -0.6429 0.6429 0.7659 37.9875 708.0521)" class="st35" width="22.6" height="3.8"/>
					</g>
				</g>
			</g>
			<g>
				<path class="st33" d="M978.3,334.2L978.3,334.2c2.2-0.2,3.9-2.1,3.7-4.3l-3.1-44.5c-0.2-2.2-2.1-3.9-4.3-3.7l0,0
					c-2.2,0.2-3.9,2.1-3.7,4.3l3.1,44.5C974.1,332.6,976.1,334.3,978.3,334.2z"/>
				<g>
					<defs>
						<path id="SVGID_24_" d="M978.3,334.2L978.3,334.2c2.2-0.2,3.9-2.1,3.7-4.3l-3.1-44.5c-0.2-2.2-2.1-3.9-4.3-3.7l0,0
							c-2.2,0.2-3.9,2.1-3.7,4.3l3.1,44.5C974.1,332.7,976.1,334.4,978.3,334.2z"/>
					</defs>
					<clipPath id="SVGID_25_">
						<use xlink:href="#SVGID_24_"  style="overflow:visible;"/>
					</clipPath>
					<g class="st36">
						
							<rect x="964.8" y="293" transform="matrix(-0.7549 -0.6559 0.6559 -0.7549 1519.5529 1157.6875)" class="st35" width="22.6" height="3.8"/>
						
							<rect x="963.2" y="299.9" transform="matrix(-0.7549 -0.6559 0.6559 -0.7549 1512.1531 1168.757)" class="st35" width="22.6" height="3.8"/>
					</g>
				</g>
			</g>
			<g>
				
					<rect x="997.8" y="293.8" transform="matrix(0.9991 4.311821e-02 -4.311821e-02 0.9991 14.4672 -42.7707)" class="st37" width="1.8" height="40.4"/>
				<path class="st38" d="M999.6,299.3l-0.5,0c-0.7,0-1.2-0.6-1.2-1.3l0.2-4.7c0-0.7,0.6-1.2,1.3-1.2l0.5,0c0.7,0,1.2,0.6,1.2,1.3
					l-0.2,4.7C1000.9,298.8,1000.3,299.3,999.6,299.3z"/>
				<g>
					<path class="st33" d="M1003.5,298.7c0,0-0.1,0-0.1,0c-0.2-0.1-0.9-0.3-2.2-4.7c-0.2-0.5-0.5-0.9-1-1.1l-0.2-0.1
						c-0.2-0.1-0.3-0.2-0.3-0.5c0-0.2,0-0.4,0.2-0.5l0.3-0.3c0.4-0.3,0.9-0.4,1.3-0.3c0.5,0.1,0.8,0.5,1,0.9
						c2.2,5.8,1.7,6.2,1.4,6.4C1003.7,298.7,1003.6,298.7,1003.5,298.7z M1000.3,292.2L1000.3,292.2c0.7,0.3,1.3,0.9,1.5,1.6
						c0.8,2.7,1.4,3.8,1.7,4.1c0-0.4-0.3-2-1.6-5.5c-0.1-0.3-0.3-0.4-0.6-0.5c-0.3-0.1-0.5,0-0.7,0.2L1000.3,292.2z M1000.2,292.3
						L1000.2,292.3C1000.2,292.3,1000.2,292.3,1000.2,292.3z"/>
				</g>
			</g>
			<g>
				
					<rect x="965.1" y="293.8" transform="matrix(-0.9991 4.311821e-02 -4.311821e-02 -0.9991 1944.647 586.0211)" class="st37" width="1.8" height="40.4"/>
				<path class="st38" d="M965.1,299.3l0.5,0c0.7,0,1.2-0.6,1.2-1.3l-0.2-4.7c0-0.7-0.6-1.2-1.3-1.2l-0.5,0c-0.7,0-1.2,0.6-1.2,1.3
					l0.2,4.7C963.8,298.8,964.4,299.3,965.1,299.3z"/>
				<g>
					<path class="st33" d="M960.9,298.6c-0.3-0.2-0.8-0.6,1.4-6.4c0.2-0.5,0.5-0.8,1-0.9c0.5-0.1,1,0,1.3,0.3l0.3,0.3
						c0.2,0.1,0.2,0.3,0.2,0.5c0,0.2-0.2,0.4-0.3,0.5l-0.2,0.1c-0.5,0.2-0.9,0.6-1,1.1c-1.4,4.4-2,4.6-2.2,4.7c0,0-0.1,0-0.1,0
						C961.1,298.7,961,298.7,960.9,298.6z M964.2,292.1c-0.2-0.2-0.5-0.2-0.7-0.2c-0.3,0.1-0.5,0.3-0.6,0.5
						c-1.4,3.5-1.7,5.1-1.6,5.5c0.3-0.3,0.8-1.4,1.7-4.1c0.2-0.7,0.7-1.3,1.4-1.6l0.1,0L964.2,292.1z M964.6,292.3L964.6,292.3
						C964.6,292.3,964.6,292.3,964.6,292.3z"/>
				</g>
			</g>
		</g>
		<path class="st5" d="M953.5,323.4c4.2,1.6,8.9,1.3,13.4,1.6s9.4,1.6,12,5.2c1.1,1.5,1.9,3.5,3.7,3.9c1.8,0.4,3.4-1,4.8-2.1
			c4.3-3.3,10-4.5,15.2-3.1c2.3,0.6,4.8,2.2,4.6,4.5c-0.1,1.3-1.1,2.4-2.1,3.2c-3.5,2.7-8,3.9-12.4,4.1c-4.4,0.2-8.8-0.6-13.2-1.4
			c-6.9-1.2-13.8-2.4-20.7-3.7c-1.3-0.2-2.6-0.5-3.7-1.1c-2-1.1-3.1-3.3-4-5.3c-1.6-3.5-3.8-7.5-4.3-11.3
			C948.9,318.5,950.8,322.4,953.5,323.4z"/>
		<path class="st5" d="M985.1,328.7c2.5,0.3,4.9,1.3,7.1,2.5c0.2,0.5,0.1,1.1-0.2,1.5s-0.8,0.7-1.2,1c-3.3,1.8-7.2,1.9-10.9,1.8
			c-1,0-2.2-0.1-2.9-0.8c-0.7-0.7-1-2.1-0.7-3c0.3-1.1,1-1.4,2.1-1.8C980.4,328.8,982.8,328.4,985.1,328.7z"/>
		<g>
			<g>
				<linearGradient id="SVGID_26_" gradientUnits="userSpaceOnUse" x1="267.6566" y1="71.9156" x2="801.2136" y2="71.9156">
					<stop  offset="0" style="stop-color:#EBF8FF;stop-opacity:0.4"/>
					<stop  offset="1" style="stop-color:#FFFFFF;stop-opacity:0.5"/>
				</linearGradient>
				<path class="st39" d="M789.9,102.8C779.7,91.8,764,88.1,749,87.4s-29.9,1.3-44.7-0.6c-33.3-4.3-67.1-3.2-97-42.7
					c-7.3-9.6,0.8-57.4-10-62.9c-11-5.7-29.1-7.7-41.4-9.2C460.6-39.6,363.8-5.5,267.7-3.5c24.8,11.6,52.9,12.5,80,16.2
					s55.7,11.6,73.2,32.6c11.6,14,17,32.1,27.4,47c21,29.8,60,42,96.5,42.9c36.5,0.8,72.6-7.6,109-10c21.1-1.4,42.4-0.6,63.4,2.1
					c12.3,1.6,24.8,4,35.7,10c10.3,5.6,18.9,14.6,22.2,25.9c3.1,10.6,5.9,15.6,15.3,4.7C804.9,151.3,804.9,118.9,789.9,102.8z"/>
				<linearGradient id="SVGID_27_" gradientUnits="userSpaceOnUse" x1="496.7676" y1="112.8431" x2="510.4052" y2="112.8431">
					<stop  offset="0" style="stop-color:#FFFFFF"/>
					<stop  offset="1" style="stop-color:#FFFFFF"/>
				</linearGradient>
				<path class="st40" d="M510.4,107.1c-1.8,4-2.8,6-4.6,9.9c-0.6,1.2-1.1,2.1-1.6,2.6c-0.5,0.5-1.1,0.8-1.8,1
					c-0.7,0.2-1.5,0.2-2.5,0c-0.9-0.1-1.6-0.4-2.4-0.7c0-1.1,0-1.6,0-2.7c0.6,0.4,1.3,0.6,2.2,0.8c0.6,0.1,1,0,1.4-0.2
					c0.3-0.2,0.6-0.6,0.9-1.2c-2.1-4.6-3.1-7-5.2-11.6c1.3,0.3,2,0.4,3.3,0.6c1.5,3.6,2.2,5.4,3.7,8.9c0,0,0.1,0,0.1,0
					c0.1-0.2,0.1-0.3,0.2-0.5c1.2-2.9,1.8-4.4,3.1-7.3C508.5,106.8,509.1,106.9,510.4,107.1z"/>
				<linearGradient id="SVGID_28_" gradientUnits="userSpaceOnUse" x1="510.9945" y1="115.26" x2="523.2141" y2="115.26">
					<stop  offset="0" style="stop-color:#FFFFFF"/>
					<stop  offset="1" style="stop-color:#FFFFFF"/>
				</linearGradient>
				<path class="st41" d="M523.2,123.3c-1.3-0.1-1.9-0.2-3.2-0.3c0-2.3,0-3.5,0-5.8c-1,0.3-1.9,0.4-2.6,0.5c-0.7,0.1-1.4,0.1-2,0
					c-1.4-0.2-2.5-0.6-3.3-1.4c-0.8-0.8-1.2-1.8-1.2-3c0-2.5,0-3.7,0-6.2c1.3,0.2,1.9,0.2,3.2,0.4c0,2.1,0,3.2,0,5.3
					c0,0.7,0.2,1.3,0.5,1.7c0.3,0.4,0.9,0.6,1.7,0.7c0.6,0.1,1.1,0.1,1.7,0c0.6-0.1,1.2-0.2,2-0.4c0-2.7,0-4,0-6.7
					c1.3,0.1,1.9,0.2,3.2,0.3C523.2,114.4,523.2,117.4,523.2,123.3z"/>
				<linearGradient id="SVGID_29_" gradientUnits="userSpaceOnUse" x1="524.5691" y1="116.4895" x2="538.9821" y2="116.4895">
					<stop  offset="0" style="stop-color:#FFFFFF"/>
					<stop  offset="1" style="stop-color:#FFFFFF"/>
				</linearGradient>
				<path class="st42" d="M535.6,124.1c-0.4-1.4-0.6-2.2-1.1-3.6c-2.2-0.1-3.3-0.1-5.4-0.3c-0.4,1.4-0.6,2.1-1.1,3.5
					c-1.4-0.1-2-0.1-3.4-0.2c2.1-5.8,3.2-8.8,5.3-14.6c1.5,0.1,2.3,0.1,3.9,0.2c2.1,6.1,3.2,9.1,5.3,15.2
					C537.6,124.1,536.9,124.1,535.6,124.1z M533.7,117.8c-1-3.3-1.6-5.1-1.7-5.5c-0.1-0.4-0.2-0.8-0.3-1c-0.2,0.9-0.9,3-1.9,6.4
					C531.4,117.7,532.2,117.7,533.7,117.8z"/>
				<linearGradient id="SVGID_30_" gradientUnits="userSpaceOnUse" x1="539.6735" y1="116.8183" x2="551.0363" y2="116.8183">
					<stop  offset="0" style="stop-color:#FFFFFF"/>
					<stop  offset="1" style="stop-color:#FFFFFF"/>
				</linearGradient>
				<path class="st43" d="M546.7,111.8c-1.2,0-2.1,0.4-2.8,1.3s-1,2.1-1,3.7c0,3.3,1.2,5,3.7,5c1,0,2.3-0.3,3.8-0.8
					c0,1.1,0,1.6,0,2.7c-1.2,0.5-2.6,0.8-4.1,0.8c-2.2,0-3.8-0.7-5-2c-1.1-1.3-1.7-3.2-1.7-5.7c0-1.6,0.3-2.9,0.8-4.1
					c0.6-1.2,1.4-2,2.4-2.6c1.1-0.6,2.3-0.9,3.7-0.9c1.4,0,2.9,0.4,4.4,1c-0.4,1-0.6,1.5-1,2.6c-0.6-0.3-1.1-0.5-1.7-0.7
					C547.8,111.9,547.2,111.8,546.7,111.8z"/>
				<linearGradient id="SVGID_31_" gradientUnits="userSpaceOnUse" x1="551.6661" y1="116.6554" x2="562.9275" y2="116.6554">
					<stop  offset="0" style="stop-color:#FFFFFF"/>
					<stop  offset="1" style="stop-color:#FFFFFF"/>
				</linearGradient>
				<path class="st44" d="M558.9,124.1c-1.3,0-1.9,0-3.2,0.1c0-4.9,0-7.4,0-12.3c-1.6,0-2.4,0-4,0.1c0-1.1,0-1.6,0-2.6
					c4.5,0,6.8-0.1,11.3-0.3c0,1.1,0,1.6,0,2.6c-1.6,0.1-2.4,0.1-4,0.1C558.9,116.8,558.9,119.2,558.9,124.1z"/>
				<linearGradient id="SVGID_32_" gradientUnits="userSpaceOnUse" x1="564.7003" y1="116.4233" x2="575.2064" y2="116.4233">
					<stop  offset="0" style="stop-color:#FFFFFF"/>
					<stop  offset="1" style="stop-color:#FFFFFF"/>
				</linearGradient>
				<path class="st45" d="M575.2,118.8c0,3.1-2.1,4.8-6.2,5c-1.7,0.1-2.6,0.1-4.3,0.2c0-6,0-8.9,0-14.9c1.3,0,1.9-0.1,3.2-0.1
					c0,2.3,0,3.4,0,5.7c0.5,0,0.7,0,1.2-0.1c1.9-0.1,3.4,0.2,4.5,0.9C574.7,116.2,575.2,117.3,575.2,118.8z M567.9,121.2
					c0.4,0,0.6,0,1.1,0c1.1-0.1,1.8-0.3,2.3-0.6c0.5-0.4,0.7-0.9,0.7-1.6c0-0.7-0.3-1.2-0.8-1.4c-0.5-0.3-1.4-0.4-2.6-0.3
					c-0.3,0-0.5,0-0.8,0C567.9,118.8,567.9,119.6,567.9,121.2z"/>
				<linearGradient id="SVGID_33_" gradientUnits="userSpaceOnUse" x1="582.4144" y1="115.1531" x2="592.9202" y2="115.1531">
					<stop  offset="0" style="stop-color:#FFFFFF"/>
					<stop  offset="1" style="stop-color:#FFFFFF"/>
				</linearGradient>
				<path class="st46" d="M585.6,113.5c0.5,0,0.7-0.1,1.2-0.1c1.9-0.1,3.4,0.1,4.5,0.8c1.1,0.7,1.6,1.8,1.6,3.2
					c0,3.1-2.1,4.8-6.2,5.1c-1.7,0.1-2.6,0.2-4.3,0.3c0-6,0-8.9,0-14.9c3.8-0.3,5.7-0.4,9.4-0.7c0,1,0,1.6,0,2.6
					c-2.5,0.2-3.8,0.3-6.3,0.5C585.6,111.7,585.6,112.3,585.6,113.5z M585.6,120.1c0.4,0,0.6,0,1.1-0.1c1.1-0.1,1.8-0.3,2.3-0.7
					c0.5-0.4,0.7-0.9,0.7-1.6c0-0.7-0.3-1.2-0.8-1.4c-0.5-0.3-1.4-0.3-2.6-0.3c-0.3,0-0.5,0-0.8,0.1
					C585.6,117.7,585.6,118.5,585.6,120.1z"/>
				<linearGradient id="SVGID_34_" gradientUnits="userSpaceOnUse" x1="595.2233" y1="114.1415" x2="603.8119" y2="114.1415">
					<stop  offset="0" style="stop-color:#FFFFFF"/>
					<stop  offset="1" style="stop-color:#FFFFFF"/>
				</linearGradient>
				<path class="st47" d="M603.8,121.2c-3.4,0.3-5.2,0.5-8.6,0.8c0-6,0-8.9,0-14.9c3.4-0.3,5.2-0.4,8.6-0.8c0,1,0,1.6,0,2.6
					c-2.2,0.2-3.3,0.3-5.4,0.5c0,1.3,0,2,0,3.3c2-0.2,3-0.3,5-0.4c0,1,0,1.6,0,2.6c-2,0.2-3,0.3-5,0.4c0,1.5,0,2.3,0,3.8
					c2.2-0.2,3.3-0.3,5.4-0.5C603.8,119.7,603.8,120.2,603.8,121.2z"/>
				<linearGradient id="SVGID_35_" gradientUnits="userSpaceOnUse" x1="605.4828" y1="113.114" x2="617.162" y2="113.114">
					<stop  offset="0" style="stop-color:#FFFFFF"/>
					<stop  offset="1" style="stop-color:#FFFFFF"/>
				</linearGradient>
				<path class="st48" d="M616.7,108.6c0,1-0.3,1.8-1,2.5c-0.7,0.7-1.6,1.2-2.8,1.5c0,0,0,0,0,0.1c1.4,0,2.4,0.3,3.1,0.8
					s1.1,1.3,1.1,2.3c0,1.4-0.6,2.5-1.7,3.4c-1.1,0.9-2.7,1.4-4.6,1.6c-2.2,0.2-3.9,0.1-5.3-0.3c0-1.1,0-1.6,0-2.7
					c0.6,0.2,1.4,0.4,2.2,0.5c0.9,0.1,1.7,0.1,2.4,0c2.5-0.2,3.8-1.1,3.8-2.5c0-0.7-0.4-1.1-1.2-1.4c-0.8-0.3-2-0.3-3.6-0.2
					c-0.6,0.1-0.8,0.1-1.4,0.1c0-1,0-1.5,0-2.5c0.5,0,0.8-0.1,1.3-0.1c1.6-0.1,2.7-0.4,3.4-0.8s1.1-0.9,1.1-1.6
					c0-0.5-0.2-0.9-0.7-1.2c-0.5-0.3-1.1-0.3-2-0.3c-1.4,0.1-2.8,0.7-4.1,1.6c-0.6-0.8-0.8-1.2-1.4-2c0.8-0.6,1.8-1.1,2.7-1.5
					c1-0.3,2-0.6,3.2-0.7c1.6-0.2,2.9,0.1,3.9,0.7C616.2,106.6,616.7,107.5,616.7,108.6z"/>
				<linearGradient id="SVGID_36_" gradientUnits="userSpaceOnUse" x1="619.4144" y1="111.7548" x2="631.5732" y2="111.7548">
					<stop  offset="0" style="stop-color:#FFFFFF"/>
					<stop  offset="1" style="stop-color:#FFFFFF"/>
				</linearGradient>
				<path class="st49" d="M631.6,118.6c-1.4,0.1-2.2,0.2-3.6,0.3c-2.2-2.8-3.2-4.2-5.4-7.1c0,3,0,4.5,0,7.6
					c-1.3,0.1-1.9,0.2-3.2,0.3c0-6,0-8.9,0-14.9c1.3-0.1,1.9-0.2,3.2-0.3c0,2.9,0,4.3,0,7.2c2.1-3.1,3.2-4.6,5.3-7.7
					c1.3-0.1,2-0.2,3.4-0.3c-2.2,3.1-3.3,4.6-5.4,7.7C628.1,114.3,629.3,115.7,631.6,118.6z"/>
				<linearGradient id="SVGID_37_" gradientUnits="userSpaceOnUse" x1="632.2646" y1="110.4643" x2="646.4634" y2="110.4643">
					<stop  offset="0" style="stop-color:#FFFFFF"/>
					<stop  offset="1" style="stop-color:#FFFFFF"/>
				</linearGradient>
				<path class="st50" d="M646.5,109.9c0,2.5-0.6,4.4-1.8,5.8c-1.2,1.4-3,2.2-5.3,2.4c-2.3,0.2-4-0.3-5.3-1.5
					c-1.2-1.2-1.8-3.1-1.8-5.5s0.6-4.4,1.8-5.9c1.2-1.4,3-2.2,5.3-2.4c2.3-0.2,4,0.3,5.3,1.5C645.9,105.5,646.5,107.4,646.5,109.9z
					 M635.6,110.8c0,1.7,0.3,2.9,0.9,3.7s1.6,1.1,2.8,1c2.5-0.2,3.8-2,3.8-5.3c0-3.4-1.3-4.9-3.8-4.7c-1.3,0.1-2.2,0.6-2.8,1.5
					S635.6,109.1,635.6,110.8z"/>
				<linearGradient id="SVGID_38_" gradientUnits="userSpaceOnUse" x1="649.0317" y1="109.0941" x2="667.7896" y2="109.0941">
					<stop  offset="0" style="stop-color:#FFFFFF"/>
					<stop  offset="1" style="stop-color:#FFFFFF"/>
				</linearGradient>
				<path class="st51" d="M660,113.8c1.9-0.1,2.8-0.2,4.6-0.3c0-4.9,0-7.4,0-12.3c1.3-0.1,1.9-0.1,3.2-0.2c0,6,0,8.9,0,14.9
					c-7.5,0.4-11.3,0.6-18.8,1.2c0-6,0-8.9,0-14.9c1.3-0.1,1.9-0.1,3.2-0.2c0,4.9,0,7.4,0,12.3c1.9-0.1,2.8-0.2,4.6-0.3
					c0-4.9,0-7.4,0-12.3c1.3-0.1,1.9-0.1,3.2-0.2C660,106.4,660,108.8,660,113.8z"/>
				<linearGradient id="SVGID_39_" gradientUnits="userSpaceOnUse" x1="669.5723" y1="108.1495" x2="680.8335" y2="108.1495">
					<stop  offset="0" style="stop-color:#FFFFFF"/>
					<stop  offset="1" style="stop-color:#FFFFFF"/>
				</linearGradient>
				<path class="st52" d="M676.8,115.6c-1.3,0-1.9,0.1-3.2,0.1c0-4.9,0-7.4,0-12.3c-1.6,0.1-2.4,0.1-4,0.2c0-1.1,0-1.6,0-2.6
					c4.5-0.2,6.8-0.3,11.3-0.4c0,1.1,0,1.6,0,2.6c-1.6,0-2.4,0.1-4,0.1C676.8,108.2,676.8,110.7,676.8,115.6z"/>
				<linearGradient id="SVGID_40_" gradientUnits="userSpaceOnUse" x1="681.9432" y1="107.9502" x2="696.1418" y2="107.9502">
					<stop  offset="0" style="stop-color:#FFFFFF"/>
					<stop  offset="1" style="stop-color:#FFFFFF"/>
				</linearGradient>
				<path class="st53" d="M696.1,108c0,2.5-0.6,4.4-1.8,5.7c-1.2,1.3-3,1.9-5.3,1.9c-2.3,0-4-0.6-5.3-2c-1.2-1.3-1.8-3.2-1.8-5.7
					c0-2.5,0.6-4.4,1.8-5.7c1.2-1.3,3-2,5.3-2c2.3,0,4,0.7,5.3,2C695.5,103.6,696.1,105.5,696.1,108z M685.3,108
					c0,1.7,0.3,2.9,0.9,3.8c0.6,0.8,1.6,1.3,2.8,1.3c2.5,0,3.8-1.7,3.8-5c0-3.4-1.3-5.1-3.8-5.1c-1.3,0-2.2,0.4-2.8,1.3
					C685.6,105,685.3,106.3,685.3,108z"/>
				<linearGradient id="SVGID_41_" gradientUnits="userSpaceOnUse" x1="698.7101" y1="108.2147" x2="709.7667" y2="108.2147">
					<stop  offset="0" style="stop-color:#FFFFFF"/>
					<stop  offset="1" style="stop-color:#FFFFFF"/>
				</linearGradient>
				<path class="st54" d="M698.7,100.6c1.9,0.1,2.8,0.1,4.6,0.2c2.1,0.1,3.6,0.5,4.6,1.1c1,0.7,1.4,1.6,1.4,3c0,0.9-0.2,1.6-0.6,2.2
					c-0.4,0.5-1,0.9-1.7,0.9c0,0,0,0.1,0,0.1c0.9,0.3,1.6,0.7,2,1.3c0.4,0.6,0.6,1.4,0.6,2.3c0,1.4-0.5,2.4-1.5,3.1
					c-1,0.7-2.3,1-4,0.9c-2.2-0.1-3.3-0.1-5.6-0.2C698.7,109.6,698.7,106.6,698.7,100.6z M701.9,106.7c0.7,0,1.1,0,1.8,0.1
					c0.9,0,1.5-0.1,1.9-0.3c0.4-0.2,0.6-0.7,0.6-1.3c0-0.6-0.2-1-0.6-1.3c-0.4-0.3-1.1-0.4-2-0.5c-0.7,0-1,0-1.7-0.1
					C701.9,104.7,701.9,105.3,701.9,106.7z M701.9,109.2c0,1.6,0,2.3,0,3.9c0.8,0,1.2,0,2.1,0.1c0.9,0,1.5-0.1,1.9-0.4
					c0.4-0.3,0.6-0.8,0.6-1.5c0-1.2-0.9-1.9-2.7-2C703,109.2,702.7,109.2,701.9,109.2z"/>
				<linearGradient id="SVGID_42_" gradientUnits="userSpaceOnUse" x1="712.2233" y1="109.3771" x2="724.4432" y2="109.3771">
					<stop  offset="0" style="stop-color:#FFFFFF"/>
					<stop  offset="1" style="stop-color:#FFFFFF"/>
				</linearGradient>
				<path class="st55" d="M724.4,117.4c-1.3-0.2-1.9-0.2-3.2-0.4c0-2.6,0-3.9,0-6.4c-2.4-0.3-3.5-0.4-5.9-0.6c0,2.6,0,3.9,0,6.4
					c-1.3-0.1-1.9-0.2-3.2-0.3c0-6,0-8.9,0-14.9c1.3,0.1,1.9,0.1,3.2,0.3c0,2.3,0,3.5,0,5.8c2.4,0.2,3.5,0.3,5.9,0.6
					c0-2.3,0-3.5,0-5.8c1.3,0.1,1.9,0.2,3.2,0.4C724.4,108.5,724.4,111.5,724.4,117.4z"/>
			</g>
			<linearGradient id="SVGID_43_" gradientUnits="userSpaceOnUse" x1="725.808" y1="111.5953" x2="740.2212" y2="111.5953">
				<stop  offset="0" style="stop-color:#FFFFFF"/>
				<stop  offset="1" style="stop-color:#FFFFFF"/>
			</linearGradient>
			<path class="st56" d="M736.8,119.2c-0.4-1.5-0.6-2.2-1.1-3.7c-2.2-0.4-3.3-0.5-5.4-0.9c-0.4,1.4-0.6,2-1.1,3.4
				c-1.4-0.2-2-0.3-3.4-0.5c2.1-5.7,3.2-8.6,5.3-14.3c1.5,0.2,2.3,0.3,3.9,0.6c2.1,6.3,3.2,9.5,5.3,15.9
				C738.9,119.6,738.2,119.5,736.8,119.2z M735,112.7c-1-3.4-1.6-5.3-1.7-5.7c-0.1-0.4-0.2-0.8-0.3-1c-0.2,0.8-0.9,2.9-1.9,6.2
				C732.6,112.3,733.4,112.5,735,112.7z"/>
		</g>
		<g>
			<path class="st13" d="M833.3,248.3c2.8,1.6-21.2,25.2-20.4,26.3c0.9,1.1,12.5-4.8,12.5-4.8s-3.3,3.7-2.9,4.5
				c0.4,0.8,6.8-3.4,6.8-3.4s-1.6,2-1.2,2.8s5.1-2.9,5.1-2.9s-1.2,3.1-0.7,3.4c0.5,0.4,3.4-3,3.4-3s-0.2,3.9,1,4.1s2.4-3.3,2.4-3.3
				s1.1,5.2,2.3,5.2s3.7-5.3,3.7-5.3s1.8,12.1,3.7,12.1s2.7-13.7,2.7-13.7s3.7,10.4,4.8,10c1.2-0.4,0.9-4,0.9-4s2.4,3.2,3.5,2.8
				c1-0.5,2.3-6.6,2.3-6.6s2.6,10.4,3.7,10.1c1.1-0.3,1-6.9,1-6.9s8.8,12.9,10.4,11.4c1.7-1.4-3-13.4-3-13.4s3.9,6.5,4.8,6.2
				s0.3-6.2,0.3-6.2s4.3,7,5.2,6.3s-0.5-7.9-0.5-7.9s4.9,6.2,5.6,5.5c0.7-0.7-0.4-4-0.4-4s11.9,6.2,12.5,3.9
				c-3-4.5-23.1-32.3-23.1-32.3l-37.7-5.8C842,239.3,830.5,246.7,833.3,248.3z"/>
			<path class="st14" d="M877.6,229.5c0,0,20,23.3,19.1,24.1c-0.9,0.8-10.3-5.4-10.3-5.4s2.5,3.4,2,4.1s-5.5-3.5-5.5-3.5
				s1.2,1.9,0.7,2.5s-4.1-3-4.1-3s0.7,2.6,0.2,2.9s-2.6-2.9-2.6-2.9s-0.3,3.2-1.4,3.2c-1,0-1.7-3-1.7-3s-1.5,4.2-2.6,4
				c-1.1-0.1-2.6-4.8-2.6-4.8s-3,9.8-4.7,9.5c-1.7-0.3-0.7-11.6-0.7-11.6s-4.4,8.1-5.4,7.6c-1-0.5-0.3-3.4-0.3-3.4s-2.5,2.4-3.3,1.9
				c-0.9-0.5-1.2-5.7-1.2-5.7s-3.5,8.2-4.4,7.8c-0.9-0.4,0-5.8,0-5.8s-9.1,9.6-10.4,8.2s4.2-10.7,4.2-10.7s-4.1,4.9-4.9,4.6
				c-0.8-0.3,0.4-5.1,0.4-5.1s-4.5,5.2-5.3,4.5s1.3-6.5,1.3-6.5s-5,4.5-5.5,3.8c-0.5-0.7,0.9-3.3,0.9-3.3s-11.1,3.7-11.4,1.8
				c3.1-3.4,25.7-21.1,25.7-21.1l31.7-3.2L877.6,229.5z"/>
			<path class="st15" d="M861.6,181.2c4.9,18.7,22.5,41.9,25.3,47.1c0.2,0.5-0.1,1-0.5,1c-7.5-0.4-12-4.5-13.4-6
				c0-0.1-0.1,0-0.1,0.1c1.4,2.2,5.5,8.8,3.7,9.2c-1.9,0.4-6.8-4.8-7.5-5.7c0,0-0.1,0-0.1,0.1c0.1,0.8,0.4,4.2-0.2,4.7
				c-0.6,0.5-3.8-4-4.3-4.7c0,0-0.1,0-0.1,0c-0.1,0.9-1.1,6.3-2.6,6c-1.5-0.4-2.2-6-2.4-7.3c0-0.1-0.1-0.1-0.1,0
				c-0.3,1-1.4,4.5-2.5,4.2c-1.1-0.2-1-3.7-0.9-4.7c0-0.1-0.1-0.1-0.1,0c-0.6,1.3-3.1,6.9-4.2,6.5c-1.1-0.4-0.8-3.7-0.8-4.6
				c0-0.1-0.1-0.1-0.1,0c-0.7,1-4.2,6-5.4,5.8c-1.1-0.2,0.9-5,1.4-6.2c0-0.1,0-0.1-0.1-0.1c-1.4,1.4-9.1,9.4-11.2,7.8c0,0,0,0,0,0
				c-0.4-3.5,5.3-10.1,6.7-11.7c0-0.1,0-0.1-0.1-0.1c-1.5,1-7.5,4.6-11.5,3.5c-0.3-0.1-0.4-0.6-0.2-0.9c3.3-3.8,23-23.8,30.3-43.9
				C860.8,180.7,861.4,180.7,861.6,181.2z"/>
		</g>
		<g>
			<path class="st14" d="M689.1,252.7c2.7,1.3-17.6,24.8-16.7,25.7s11.1-5.3,11.1-5.3s-2.8,3.6-2.3,4.4c0.5,0.7,6-3.6,6-3.6
				s-1.4,2-0.9,2.7c0.5,0.7,4.4-3.1,4.4-3.1s-0.9,2.9-0.3,3.2s2.9-3.1,2.9-3.1s0.1,3.6,1.2,3.7c1.1,0.1,1.9-3.2,1.9-3.2
				s1.4,4.7,2.5,4.7s3-5.1,3-5.1s2.6,11,4.4,10.8c1.8-0.2,1.4-12.8,1.4-12.8s4.2,9.3,5.2,8.8c1-0.5,0.5-3.8,0.5-3.8s2.5,2.8,3.4,2.3
				s1.6-6.2,1.6-6.2s3.2,9.4,4.2,9c1-0.4,0.4-6.5,0.4-6.5s9.1,11.2,10.5,9.7c1.4-1.4-3.8-12.1-3.8-12.1s4,5.7,4.9,5.4
				c0.8-0.3-0.1-5.7-0.1-5.7s4.4,6.1,5.3,5.4s-1-7.3-1-7.3s4.9,5.3,5.5,4.6c0.6-0.7-0.7-3.7-0.7-3.7s11.4,4.8,11.8,2.7
				c-3.1-3.9-23.7-28-23.7-28l-35.1-2.5C696.4,243.8,686.4,251.4,689.1,252.7z"/>
			<path class="st15" d="M728.4,232c0,0,20.1,19.9,19.4,20.7c-0.8,0.8-9.9-4.2-9.9-4.2s2.5,3,2.1,3.6c-0.4,0.6-5.4-2.8-5.4-2.8
				s1.2,1.6,0.8,2.2c-0.4,0.6-4-2.4-4-2.4s0.8,2.4,0.4,2.6c-0.5,0.2-2.6-2.5-2.6-2.5s0,3-1,3.1s-1.8-2.6-1.8-2.6s-1.1,4-2.1,3.9
				s-2.8-4.2-2.8-4.2s-2,9.2-3.6,9.1c-1.6-0.1-1.5-10.6-1.5-10.6s-3.4,7.8-4.3,7.4c-0.9-0.4-0.6-3.1-0.6-3.1s-2.1,2.4-2.9,2
				s-1.6-5.1-1.6-5.1s-2.6,7.8-3.5,7.5s-0.5-5.3-0.5-5.3s-7.7,9.5-9,8.3c-1.3-1.2,3-10.1,3-10.1s-3.4,4.8-4.2,4.6
				c-0.7-0.2,0-4.7,0-4.7s-3.8,5.1-4.5,4.6c-0.7-0.6,0.7-6.1,0.7-6.1s-4.2,4.6-4.7,4c-0.5-0.6,0.5-3.1,0.5-3.1s-9.9,4.3-10.3,2.5
				c2.6-3.3,22-21.4,22-21.4l28.9-5.3L728.4,232z"/>
			<path class="st23" d="M710,188.8c5.9,16.8,23.9,36.8,26.8,41.4c0.3,0.4,0,1-0.4,1c-6.9,0.2-11.4-3.2-12.8-4.5c0,0-0.1,0-0.1,0.1
				c1.4,1.9,5.7,7.7,4.1,8.2c-1.7,0.5-6.6-3.9-7.4-4.7c0,0-0.1,0-0.1,0.1c0.1,0.7,0.7,3.9,0.2,4.4c-0.5,0.5-3.8-3.4-4.3-4
				c0,0-0.1,0-0.1,0c-0.1,0.8-0.5,5.9-1.9,5.7c-1.4-0.2-2.5-5.4-2.8-6.5c0-0.1-0.1-0.1-0.1,0c-0.2,0.9-0.9,4.2-2,4.1
				c-1-0.1-1.2-3.3-1.2-4.3c0-0.1-0.1-0.1-0.1,0c-0.4,1.3-2.3,6.6-3.3,6.3c-1-0.3-1.1-3.4-1-4.2c0-0.1-0.1-0.1-0.1,0
				c-0.5,0.9-3.4,5.9-4.5,5.7c-1.1-0.1,0.4-4.7,0.8-5.8c0-0.1,0-0.1-0.1-0.1c-1.1,1.4-7.7,9.3-9.7,8.1c0,0,0,0,0,0
				c-0.7-3.2,4.1-9.7,5.3-11.3c0-0.1,0-0.1-0.1-0.1c-1.3,1-6.5,4.8-10.3,4.1c-0.3-0.1-0.4-0.5-0.2-0.8c2.8-3.8,19.3-23.6,24.5-42.6
				C709.2,188.4,709.8,188.3,710,188.8z"/>
		</g>
		<g>
			<g>
				<path class="st5" d="M698.4,211c1.6,2.7,3.9,5.1,6.3,7.1c2.5,2,5.2,3.6,8.2,4.7c0.7,0.3,1.5,0.5,2.3,0.8
					c0.7,0.3,1.5,0.4,2.3,0.6c0.8,0.2,1.5,0.4,2.3,0.5l2.4,0.3c0.4,0,0.8,0.1,1.2,0.1l1.2,0l2.4,0.1c1.6,0,3.2-0.1,4.8-0.2
					c-1.6,0.2-3.2,0.4-4.8,0.5l-2.4,0l-1.2,0c-0.4,0-0.8-0.1-1.2-0.1l-2.4-0.3c-0.8-0.1-1.6-0.3-2.4-0.5c-0.8-0.2-1.6-0.3-2.3-0.6
					c-0.8-0.3-1.5-0.5-2.3-0.8c-3-1.2-5.8-2.8-8.3-4.9c-1.2-1-2.4-2.2-3.4-3.4C700.1,213.8,699.1,212.5,698.4,211z"/>
			</g>
			<g>
				<path class="st5" d="M728.7,224.7c-1,2-2.3,3.8-3.7,5.5c-1.5,1.7-3,3.3-4.7,4.7c-3.4,2.8-7.3,5.1-11.4,6.7c-1,0.4-2.1,0.7-3.2,1
					c-0.5,0.2-1,0.4-1.6,0.5l-1.6,0.4c-1.1,0.2-2.2,0.5-3.3,0.7l-3.3,0.4c-0.6,0-1.1,0.1-1.7,0.1l-1.7,0l-3.3,0
					c-2.2-0.1-4.4-0.4-6.6-0.6c2.2,0.1,4.4,0.3,6.6,0.4l3.3-0.1l1.7,0c0.6,0,1.1-0.1,1.6-0.2l3.3-0.4c1.1-0.1,2.2-0.5,3.2-0.7
					l1.6-0.4c0.5-0.1,1-0.3,1.6-0.5c1-0.4,2.1-0.7,3.1-1.1c4.1-1.6,7.9-3.8,11.4-6.6C723.4,231.8,726.5,228.5,728.7,224.7z"/>
			</g>
			<g>
				<path class="st5" d="M682.5,244.1c1.3,2.4,3,4.5,4.8,6.6c1.8,2,3.8,3.9,5.9,5.6c4.2,3.4,9,6.2,14,8.1c5.1,2,10.4,3.2,15.8,3.7
					c5.4,0.5,10.9,0.4,16.3-0.1c-5.4,0.8-10.9,1-16.3,0.5c-5.5-0.4-10.8-1.7-16-3.6c-5.1-2-9.9-4.8-14.1-8.3
					C688.8,253.1,685.1,248.9,682.5,244.1z"/>
			</g>
			<circle class="st57" cx="700.4" cy="215.6" r="1.3"/>
			<circle class="st58" cx="706.2" cy="220.9" r="1.3"/>
			<circle class="st58" cx="721.2" cy="226.3" r="1.3"/>
			<circle class="st59" cx="713" cy="224.3" r="1.3"/>
			<circle class="st59" cx="722.5" cy="233.6" r="1.3"/>
			<circle class="st58" cx="715.7" cy="239.1" r="1.3"/>
			<circle class="st59" cx="706.7" cy="243.3" r="1.3"/>
			<circle class="st58" cx="697.4" cy="245.2" r="1.3"/>
			<circle class="st59" cx="687.8" cy="253.2" r="1.3"/>
			<circle class="st58" cx="698" cy="261.6" r="1.3"/>
		</g>
		<g>
			<g>
				<path class="st5" d="M870.5,201c-0.8,1.4-1.7,2.8-2.8,4c-1.1,1.2-2.2,2.4-3.5,3.5c-2.5,2.1-5.4,3.9-8.4,5.1
					c-0.8,0.3-1.6,0.5-2.3,0.8l-1.2,0.4l-1.2,0.3c-0.8,0.2-1.6,0.4-2.4,0.5l-2.4,0.3l-1.2,0.1l-1.2,0l-2.5,0
					c-1.6-0.1-3.3-0.3-4.9-0.5c1.6,0.1,3.3,0.2,4.9,0.2l2.4-0.1l1.2,0l1.2-0.2l2.4-0.3c0.8-0.2,1.6-0.4,2.4-0.5l1.2-0.3l1.2-0.4
					c0.8-0.3,1.5-0.5,2.3-0.8c3-1.2,5.8-2.9,8.3-4.9C866.5,206.2,868.8,203.8,870.5,201z"/>
			</g>
			<g>
				<path class="st5" d="M839.5,215.2c2.2,3.8,5.3,7.1,8.7,9.9c3.4,2.8,7.3,5,11.4,6.6c1,0.4,2.1,0.7,3.1,1.1c0.5,0.2,1,0.4,1.6,0.5
					l1.6,0.4c1.1,0.2,2.1,0.5,3.2,0.7l3.3,0.4c0.5,0.1,1.1,0.2,1.6,0.2l1.7,0l3.3,0.1c2.2,0,4.4-0.2,6.6-0.4
					c-2.2,0.2-4.4,0.5-6.6,0.6l-3.3,0l-1.7,0c-0.6,0-1.1-0.1-1.7-0.1l-3.3-0.4c-1.1-0.1-2.2-0.4-3.3-0.7l-1.6-0.4
					c-0.5-0.1-1.1-0.3-1.6-0.5c-1.1-0.3-2.1-0.7-3.2-1c-4.1-1.6-8-3.9-11.4-6.7c-1.7-1.4-3.3-3-4.7-4.7
					C841.8,219,840.5,217.2,839.5,215.2z"/>
			</g>
			<g>
				<path class="st5" d="M885.6,234.6c-2.6,4.8-6.3,9-10.5,12.5c-4.2,3.5-9,6.3-14.1,8.3c-5.1,1.9-10.5,3.2-16,3.6
					c-5.5,0.5-10.9,0.2-16.3-0.5c5.4,0.6,10.9,0.7,16.3,0.1c5.4-0.5,10.8-1.7,15.8-3.7c5.1-2,9.8-4.7,14-8.1
					c2.1-1.7,4.1-3.6,5.9-5.6C882.6,239.1,884.3,237,885.6,234.6z"/>
			</g>
			<circle class="st57" cx="867.8" cy="206.2" r="1.3"/>
			<circle class="st58" cx="862" cy="211.4" r="1.3"/>
			<circle class="st58" cx="847" cy="216.8" r="1.3"/>
			<circle class="st59" cx="855.2" cy="214.8" r="1.3"/>
			<circle class="st59" cx="845.7" cy="224.1" r="1.3"/>
			<circle class="st58" cx="852.5" cy="229.6" r="1.3"/>
			<circle class="st59" cx="861.5" cy="233.9" r="1.3"/>
			<circle class="st60" cx="870.8" cy="235.7" r="1.3"/>
			<circle class="st59" cx="880.4" cy="243.7" r="1.3"/>
			<circle class="st58" cx="858.7" cy="257.5" r="1.3"/>
			<circle class="st60" cx="844.6" cy="260.1" r="1.3"/>
		</g>
		<g>
			<path class="st61" d="M759.9,196.6c-3.2,3.6-7.8,5.4-11.5,8.4c-4.7,3.8-8,9.4-13.4,12.1c-2.5,1.3-5.4,1.8-7.9,3.1
				c-2.5,1.3-4.8,3.7-4.5,6.5c0.3,3.9,5.3,5.9,9.1,4.9s6.7-4,9.7-6.5c8.2-6.6,18.8-10.2,26-18c3.9-4.2,6.6-9.3,10.6-13.4
				c0.9-0.9,2-1.8,3.3-1.9c1.6-0.1,2.9,1.2,4.3,2.2c3,2.2,6.9,3,10,5.1c5.9,4,8.2,11.7,13.7,16.3c4.3,3.6,10.2,4.8,14.6,8.2
				c2.4,1.9,4.3,4.5,6.6,6.5c2.3,2,5.5,3.6,8.5,2.8c2.4-0.6,4.2-2.5,5.5-4.6c1.1-1.7,1.8-4,0.6-5.6c-0.4-0.5-1-0.9-1.6-1.2
				c-3.5-1.8-8-1.1-11.3-3.2c-2.1-1.3-3.4-3.4-4.9-5.3c-3.3-4.1-7.7-7.5-12.6-9.5c-3.7-1.6-7.7-2.5-10.8-5c-2-1.6-3.4-3.7-5.1-5.6
				c-5.6-5.9-15-8.5-22.8-9.8C766.9,181.6,764.7,191.1,759.9,196.6z"/>
			<path class="st62" d="M839.1,238.8H727.6c-0.9,0-1.7-0.8-1.7-1.7v-3.3c0-0.9,0.8-1.7,1.7-1.7h111.4c0.9,0,1.7,0.8,1.7,1.7v3.3
				C840.8,238,840,238.8,839.1,238.8z"/>
			<polygon class="st62" points="727.3,234.6 784.2,186.1 839.1,234.6 			"/>
			<linearGradient id="SVGID_44_" gradientUnits="userSpaceOnUse" x1="783.3626" y1="191.099" x2="783.3626" y2="273.0564">
				<stop  offset="0" style="stop-color:#DDB267"/>
				<stop  offset="0.9836" style="stop-color:#EECD9D"/>
			</linearGradient>
			<polygon class="st63" points="832.4,273.1 734.3,273.1 734.3,234.8 784.1,191.1 832.4,234.8 			"/>
			<rect x="734.1" y="235" class="st62" width="99.2" height="3.7"/>
			<g>
				<path class="st64" d="M758.8,263.6h-15c-0.5,0-1-0.4-1-1v-18c0-0.5,0.4-1,1-1h15c0.5,0,1,0.4,1,1v18
					C759.8,263.2,759.4,263.6,758.8,263.6z"/>
				<radialGradient id="SVGID_45_" cx="751.41" cy="254.2479" r="8.3961" gradientUnits="userSpaceOnUse">
					<stop  offset="0" style="stop-color:#F9F3D3"/>
					<stop  offset="0.9836" style="stop-color:#F3D592"/>
				</radialGradient>
				<path class="st65" d="M757.7,263.6h-12.7c-0.5,0-1-0.4-1-1v-16.9c0-0.5,0.4-1,1-1h12.7c0.5,0,1,0.4,1,1v16.9
					C758.7,263.2,758.3,263.6,757.7,263.6z"/>
				<rect x="750.5" y="243.7" class="st64" width="1.4" height="19.9"/>
				
					<rect x="750.4" y="242.5" transform="matrix(3.635143e-11 -1 1 3.635143e-11 500.3909 1001.8016)" class="st64" width="1.4" height="16.3"/>
				
					<rect x="750.5" y="248.7" transform="matrix(3.635143e-11 -1 1 3.635143e-11 494.2632 1008.0569)" class="st64" width="1.4" height="16.3"/>
				<path class="st62" d="M760.1,263.6h-17.6c-0.1,0-0.3-0.1-0.3-0.3v-0.7c0-0.1,0.1-0.3,0.3-0.3h17.6c0.1,0,0.3,0.1,0.3,0.3v0.7
					C760.4,263.5,760.3,263.6,760.1,263.6z"/>
			</g>
			<g>
				<path class="st64" d="M821.8,263.6h-15c-0.5,0-1-0.4-1-1v-18c0-0.5,0.4-1,1-1h15c0.5,0,1,0.4,1,1v18
					C822.8,263.2,822.3,263.6,821.8,263.6z"/>
				<radialGradient id="SVGID_46_" cx="814.3994" cy="254.2479" r="8.3961" gradientUnits="userSpaceOnUse">
					<stop  offset="0" style="stop-color:#F9F3D3"/>
					<stop  offset="0.9836" style="stop-color:#F3D592"/>
				</radialGradient>
				<path class="st66" d="M820.7,263.6h-12.7c-0.5,0-1-0.4-1-1v-16.9c0-0.5,0.4-1,1-1h12.7c0.5,0,1,0.4,1,1v16.9
					C821.7,263.2,821.3,263.6,820.7,263.6z"/>
				<rect x="813.5" y="243.7" class="st64" width="1.4" height="19.9"/>
				
					<rect x="813.4" y="242.5" transform="matrix(3.635143e-11 -1 1 3.635143e-11 563.3802 1064.791)" class="st64" width="1.4" height="16.3"/>
				
					<rect x="813.5" y="248.7" transform="matrix(3.635143e-11 -1 1 3.635143e-11 557.2526 1071.0463)" class="st64" width="1.4" height="16.3"/>
				<path class="st62" d="M823.1,263.6h-17.6c-0.1,0-0.3-0.1-0.3-0.3v-0.7c0-0.1,0.1-0.3,0.3-0.3h17.6c0.1,0,0.3,0.1,0.3,0.3v0.7
					C823.4,263.5,823.3,263.6,823.1,263.6z"/>
			</g>
			<polygon class="st62" points="790.9,251.4 774.4,251.4 771.8,165.2 793.5,165.2 			"/>
			<path class="st67" d="M794.8,170.6h-24.4c-0.5,0-0.8-0.4-0.8-0.8V166c0-0.5,0.4-0.8,0.8-0.8h24.4c0.5,0,0.8,0.4,0.8,0.8v3.7
				C795.7,170.2,795.3,170.6,794.8,170.6z"/>
			<rect x="769.9" y="257.7" class="st62" width="25.5" height="15.3"/>
			<path class="st61" d="M796.4,198.6c1.3,1,2.8,1.7,4.2,2.7c3.7,2.7,5.7,7.3,9.6,9.7c0.9,0.5,1.8,0.9,2.7,1.4
				c6.9,3.8,10.3,12,17,16.2c1,0.6,2,1.1,2.8,1.8c0.7,0.6,1.2,1.2,2,1.6c1,0.5,2.2,0.5,3.4,0.5c1.2-0.1,2.6-0.2,3.4-1.2
				c0.8-1.1,0.4-2.6-0.5-3.6c-0.8-1-2.1-1.6-3.1-2.4c-2.2-1.6-4-3.7-5.8-5.7c-5.3-5.8-11.7-10.7-18.8-14.2c-1-0.5-2-1-3-1.6
				c-1-0.6-1.8-1.4-2.7-2.1c-1.6-1.3-3.3-2.6-5.1-3.7c-1.3-0.8-2.7-1.5-4.1-2.1c-1.2,0-4.4-3.2-5.1-1.6
				C792.7,195.5,795.6,197.9,796.4,198.6z"/>
			<path class="st61" d="M722.4,226.3c0.6,2,2.1,3.7,3.9,4.7s4.1,1.1,6.1,0.5c4.1-1.3,6.4-5.7,10.2-7.8c1.8-1,3.9-1.6,5.4-3
				c2.2-2.2,2.4-5.8,4.7-7.9c1.6-1.5,3.9-1.9,5.8-3c1.7-0.9,3.1-2.4,3.9-4.1c0.4-0.7,0.6-1.5,1.1-2.1c1.1-1.4,3-1.9,4.6-2.6
				c1.6-0.7,3.3-2.1,3.1-3.9c-2.5,0.2-4.3,2.4-6.1,4.2c-1.8,1.9-3.8,3.5-6,4.9c-2.2,1.3-4.5,2.4-6.5,3.9c-1.7,1.3-3.1,3-4.6,4.4
				c-3,2.8-6.7,4.9-9.9,7.4c-2.2,1.8-4.2,3.8-6.2,5.8c-1.4,1.4-2.7,2.8-4.1,4.2"/>
			<path class="st62" d="M833.3,273.2H733.1c-0.5,0-0.9-0.4-0.9-0.9v-1.9c0-0.5,0.4-0.9,0.9-0.9h100.2c0.5,0,0.9,0.4,0.9,0.9v1.9
				C834.2,272.7,833.8,273.2,833.3,273.2z"/>
			<rect x="769.9" y="262" class="st68" width="5.9" height="2.5"/>
			<rect x="772.6" y="264.5" class="st69" width="5.9" height="2.5"/>
			<rect x="772.8" y="259.5" class="st70" width="5.9" height="2.5"/>
			
				<rect x="773.7" y="226.5" transform="matrix(0.9995 -3.219551e-02 3.219551e-02 0.9995 -6.9283 25.1224)" class="st71" width="5.9" height="2.5"/>
			
				<rect x="776.8" y="228.8" transform="matrix(0.9993 -3.754243e-02 3.754243e-02 0.9993 -8.0873 29.4349)" class="st72" width="5.9" height="2.5"/>
			
				<rect x="780" y="231.3" transform="matrix(0.9993 -3.754243e-02 3.754243e-02 0.9993 -8.1774 29.5588)" class="st70" width="5.9" height="2.5"/>
			
				<rect x="776.7" y="223.8" transform="matrix(0.9991 -4.133072e-02 4.133072e-02 0.9991 -8.6356 32.4163)" class="st73" width="5.9" height="2.5"/>
			
				<rect x="783.9" y="190.9" transform="matrix(0.9997 2.356692e-02 -2.356692e-02 0.9997 4.7479 -18.4901)" class="st68" width="5.9" height="2.5"/>
			
				<rect x="786.9" y="188.5" transform="matrix(0.9997 2.356692e-02 -2.356692e-02 0.9997 4.6915 -18.5608)" class="st74" width="5.9" height="2.5"/>
			
				<rect x="772.1" y="176.7" transform="matrix(0.9999 -1.608820e-02 1.608820e-02 0.9999 -2.7619 12.4929)" class="st68" width="5.9" height="2.5"/>
			
				<rect x="775" y="174.1" transform="matrix(0.9999 -1.608820e-02 1.608820e-02 0.9999 -2.7206 12.5388)" class="st74" width="5.9" height="2.5"/>
			
				<rect x="773.6" y="221.4" transform="matrix(0.9996 -2.683403e-02 2.683403e-02 0.9996 -5.6953 20.9169)" class="st75" width="5.9" height="2.5"/>
			<path class="st67" d="M795.2,257.7h-25.1c-0.1,0-0.2-0.1-0.2-0.3l4.2-10.6c0-0.1,0.1-0.1,0.2-0.1l16.7,0c0.1,0,0.1,0,0.2,0.1
				l4.2,10.6C795.4,257.6,795.3,257.7,795.2,257.7z"/>
		</g>
		<linearGradient id="SVGID_47_" gradientUnits="userSpaceOnUse" x1="807.574" y1="280.5844" x2="913.0894" y2="280.5844">
			<stop  offset="0.3519" style="stop-color:#FFFFFF"/>
			<stop  offset="0.9888" style="stop-color:#FFFFFF"/>
		</linearGradient>
		<path class="st76" d="M809.9,269.7c3.8-4.8,10.7-5.8,16.7-5.2c6.1,0.6,12.1,2.4,18.2,1.9c4.6-0.4,9-2.1,13.6-2.8
			c12.1-2,24.3,2.5,35.8,7c4.9,1.9,10,3.9,13.8,7.5c3.9,3.6,6.3,9.2,4.6,14.2c-11.8,0-23.7,0.1-35.5,0.1c-5.9,0-11.8,0-17.5,1.2
			c-7.4,1.5-14.5,4.8-22.1,4.6C826.8,297.9,799.6,282.7,809.9,269.7z"/>
		
			<linearGradient id="SVGID_48_" gradientUnits="userSpaceOnUse" x1="-3313.7292" y1="283.6482" x2="-3204.3923" y2="283.6482" gradientTransform="matrix(-1 0 0 1 -2542.3501 0)">
			<stop  offset="0.3519" style="stop-color:#FFFFFF"/>
			<stop  offset="0.9888" style="stop-color:#FFFFFF"/>
		</linearGradient>
		<path class="st77" d="M765.4,272.5c-0.4-0.2-0.7-0.4-1.1-0.8c-1.5-1.2-2.9-2.3-4.7-3c-3.5-1.4-7.4-1.6-11.1-1.2
			c-6.1,0.6-12.1,2.4-18.2,1.9c-4.6-0.4-9-2.1-13.6-2.8c-12.1-2-24.3,2.5-35.8,7c-4.9,1.9-10,3.9-13.8,7.5
			c-3.9,3.6-6.3,9.2-4.6,14.2c11.8,0,23.7,0.1,35.5,0.1c5.9,0,11.8,0,17.5,1.2c7.4,1.5,14.5,4.8,22.1,4.6c5.4-0.1,11-2.7,15.6-5.3
			c2.8-1.6,5.7-3.4,8-5.7c2.3-2.3,3.8-5.4,6.3-7.7c1.6-1.5,3.6-3,3.8-5.2c0.1-0.9-0.1-1.9-0.3-2.8c-0.1-0.4-0.2-0.8-0.5-1
			c-0.3-0.3-0.9-0.4-1.3-0.4C767.5,273,766.5,273,765.4,272.5z"/>
		<rect class="st78" width="1080" height="617.9"/>
	</g>
</g>
</svg>
