<?xml version="1.0" encoding="utf-8"?>
<!-- Generator: Adobe Illustrator 23.0.3, SVG Export Plug-In . SVG Version: 6.00 Build 0)  -->
<svg version="1.1" id="Слой_1" xmlns="http://www.w3.org/2000/svg" xmlns:xlink="http://www.w3.org/1999/xlink" x="0px" y="0px"
	 viewBox="0 0 1888.98 905.68" style="enable-background:new 0 0 1888.98 905.68;" xml:space="preserve">
<style type="text/css">
	.st0{fill:#9EC3BE;}
	.st1{fill:url(#SVGID_1_);}
	.st2{fill:url(#SVGID_2_);}
	.st3{fill:url(#SVGID_3_);}
	.st4{fill:url(#SVGID_4_);}
	.st5{fill:url(#SVGID_5_);}
	.st6{fill:#FFFFFF;}
	.st7{clip-path:url(#SVGID_7_);}
	.st8{opacity:0.43;fill:url(#SVGID_8_);}
	.st9{opacity:0.63;fill:url(#SVGID_9_);}
	.st10{opacity:0.69;fill:url(#SVGID_10_);}
	.st11{opacity:0.54;fill:url(#SVGID_11_);}
	.st12{opacity:0.43;fill:url(#SVGID_12_);}
	.st13{opacity:0.68;fill:url(#SVGID_13_);}
	.st14{opacity:0.49;fill:url(#SVGID_14_);}
	.st15{opacity:0.78;fill:url(#SVGID_15_);}
	.st16{opacity:0.74;fill:url(#SVGID_16_);}
	.st17{fill:url(#SVGID_17_);}
	.st18{fill:url(#SVGID_18_);}
	.st19{fill:url(#SVGID_19_);}
	.st20{fill:url(#SVGID_20_);}
	.st21{fill:url(#SVGID_21_);}
	.st22{fill:url(#SVGID_22_);}
	.st23{fill:url(#SVGID_23_);}
	.st24{fill:url(#SVGID_24_);}
	.st25{opacity:0.65;fill:#FFFFFF;}
	.st26{opacity:0.42;fill:#FFFFFF;}
	.st27{fill:#F1AC4C;}
	.st28{fill:#314448;}
	.st29{fill:url(#SVGID_25_);}
	.st30{fill:#EFBB4E;}
	.st31{fill:#FF8400;}
	.st32{clip-path:url(#SVGID_27_);}
	.st33{fill:#E76344;}
	.st34{fill:#F67B3E;}
	.st35{clip-path:url(#SVGID_29_);}
	.st36{fill:#DD4C43;}
	.st37{fill:#FD706C;}
	.st38{fill:#6C9791;}
	.st39{fill:#9ABCB6;}
	.st40{fill:#D3D3D3;}
	.st41{fill:#FFDFD6;}
	.st42{fill:url(#SVGID_30_);}
	.st43{fill:#AEC9D4;}
	.st44{fill:#808080;}
	.st45{fill:url(#SVGID_31_);}
	.st46{fill:#EAEAEA;}
	.st47{opacity:0.42;clip-path:url(#SVGID_33_);}
	.st48{opacity:0.68;fill:#D3D3D3;}
	.st49{opacity:0.39;}
	.st50{clip-path:url(#SVGID_35_);}
	.st51{opacity:0.18;}
	.st52{opacity:0.08;}
	.st53{clip-path:url(#SVGID_37_);}
	.st54{fill:#BCE0E9;}
	.st55{fill:#9CB8BE;}
	.st56{clip-path:url(#SVGID_38_);}
	.st57{opacity:0.75;}
	.st58{fill:#F0B24B;}
	.st59{fill:#EFA24B;}
	.st60{clip-path:url(#SVGID_40_);}
	.st61{fill:#FFCC72;}
	.st62{clip-path:url(#SVGID_42_);}
	.st63{fill:#EC8949;}
	.st64{clip-path:url(#SVGID_43_);}
	.st65{fill:#606060;}
	.st66{fill:#C4A987;}
	.st67{fill:#EACEA5;}
	.st68{fill:#B1977A;}
	.st69{clip-path:url(#SVGID_44_);}
	.st70{fill:#CCB68F;}
	.st71{fill:url(#SVGID_46_);}
	.st72{fill:url(#SVGID_47_);}
	.st73{fill:#FFEFAD;}
	.st74{fill:#FFF9E5;}
	.st75{fill:none;stroke:#B1977A;stroke-width:0.25;stroke-miterlimit:10;}
	.st76{fill:#E87446;}
	.st77{clip-path:url(#SVGID_49_);}
	.st78{fill:none;stroke:#FFE8C3;stroke-miterlimit:10;}
	.st79{fill:url(#SVGID_50_);}
	.st80{fill:url(#SVGID_51_);}
	.st81{fill:#E7F9FF;}
	.st82{fill:#BFBFBF;}
	.st83{fill:#A7A7A7;}
	.st84{fill:#C0C0C0;}
	.st85{fill:#A1BFC8;}
	.st86{fill:#A9CEC9;}
	.st87{fill:#76A09A;}
	.st88{fill:#7FAAA3;}
	.st89{fill:#8AB2AC;}
	.st90{fill:#93BAB5;}
	.st91{opacity:0.57;}
	.st92{fill:#FCF4D4;}
	.st93{fill:#E86A46;}
	.st94{fill:#8A636C;}
	.st95{fill:#B59BA2;}
	.st96{fill:url(#SVGID_52_);}
	.st97{fill:url(#SVGID_54_);}
	.st98{fill:url(#SVGID_55_);}
	.st99{fill:url(#SVGID_56_);}
	.st100{fill:url(#SVGID_58_);}
	.st101{clip-path:url(#SVGID_60_);}
	.st102{fill:#B5D9D5;}
	.st103{fill:#C0E4E0;}
	.st104{clip-path:url(#SVGID_62_);}
	.st105{clip-path:url(#SVGID_64_);}
	.st106{opacity:0.69;}
	.st107{fill:url(#SVGID_65_);}
	.st108{fill:url(#SVGID_66_);}
	.st109{opacity:0.5;}
	.st110{fill:url(#SVGID_67_);}
	.st111{fill:url(#SVGID_68_);}
	.st112{opacity:0.71;}
	.st113{fill:url(#SVGID_69_);}
	.st114{fill:url(#SVGID_70_);}
	.st115{fill:url(#SVGID_71_);}
	.st116{fill:url(#SVGID_72_);}
	.st117{fill:url(#SVGID_73_);}
	.st118{fill:url(#SVGID_74_);}
	.st119{opacity:0.47;}
	.st120{fill:url(#SVGID_75_);}
	.st121{fill:url(#SVGID_76_);}
	.st122{opacity:0.49;}
	.st123{fill:url(#SVGID_77_);}
	.st124{fill:url(#SVGID_78_);}
	.st125{opacity:0.56;}
	.st126{fill:url(#SVGID_79_);}
	.st127{fill:url(#SVGID_80_);}
	.st128{clip-path:url(#SVGID_82_);}
	.st129{fill:url(#SVGID_83_);}
	.st130{fill:url(#SVGID_84_);}
	.st131{opacity:0.54;}
	.st132{fill:url(#SVGID_85_);}
	.st133{fill:url(#SVGID_86_);}
	.st134{opacity:0.63;}
	.st135{fill:url(#SVGID_87_);}
	.st136{fill:url(#SVGID_88_);}
	.st137{fill:url(#SVGID_89_);}
	.st138{fill:url(#SVGID_90_);}
	.st139{clip-path:url(#SVGID_92_);}
	.st140{clip-path:url(#SVGID_94_);}
	.st141{fill:#535353;}
	.st142{fill:#F0F0F0;}
	.st143{fill:#E1E1E1;}
	.st144{clip-path:url(#SVGID_96_);}
	.st145{fill:url(#SVGID_97_);}
	.st146{clip-path:url(#SVGID_98_);}
	.st147{clip-path:url(#SVGID_99_);}
	.st148{clip-path:url(#SVGID_101_);}
	.st149{fill:url(#SVGID_102_);}
	.st150{fill:url(#SVGID_103_);}
	.st151{fill:url(#SVGID_104_);}
	.st152{fill:url(#SVGID_105_);}
	.st153{clip-path:url(#SVGID_107_);}
	.st154{clip-path:url(#SVGID_109_);}
	.st155{fill:#CBEEF8;}
	.st156{clip-path:url(#SVGID_110_);}
	.st157{fill:url(#SVGID_112_);}
	.st158{clip-path:url(#SVGID_113_);}
	.st159{fill:url(#SVGID_114_);}
	.st160{clip-path:url(#SVGID_116_);}
	.st161{clip-path:url(#SVGID_117_);}
	.st162{clip-path:url(#SVGID_118_);}
	.st163{clip-path:url(#SVGID_119_);}
	.st164{fill:#B4D8DC;}
	.st165{clip-path:url(#SVGID_120_);}
	.st166{fill:#5D8681;}
	.st167{fill:url(#SVGID_121_);}
	.st168{clip-path:url(#SVGID_122_);}
	.st169{fill:#DDF3F7;}
	.st170{fill:#E4A96F;}
	.st171{fill:url(#SVGID_123_);}
	.st172{fill:#EAB278;}
	.st173{fill:url(#SVGID_124_);}
	.st174{fill:url(#SVGID_125_);}
	.st175{fill:#DA9D6B;}
	.st176{opacity:0.74;fill:#DA9D6B;}
	.st177{opacity:0.5;fill:#DA9D6B;}
	.st178{opacity:0.39;fill:#DA9D6B;}
	.st179{opacity:0.36;fill:#DA9D6B;}
	.st180{opacity:0.68;fill:#DA9D6B;}
	.st181{opacity:0.86;fill:#DA9D6B;}
	.st182{opacity:0.62;fill:#DA9D6B;}
	.st183{opacity:0.63;fill:#DA9D6B;}
	.st184{fill:url(#SVGID_126_);}
	.st185{fill:url(#SVGID_127_);}
	.st186{clip-path:url(#SVGID_128_);}
	.st187{fill:url(#SVGID_130_);}
	.st188{fill:url(#SVGID_131_);}
	.st189{fill:url(#SVGID_132_);}
	.st190{fill:url(#SVGID_133_);}
	.st191{clip-path:url(#SVGID_135_);}
	.st192{clip-path:url(#SVGID_137_);}
	.st193{clip-path:url(#SVGID_140_);}
	.st194{fill:#8D8D8D;}
	.st195{clip-path:url(#SVGID_142_);}
	.st196{fill:url(#SVGID_144_);}
	.st197{clip-path:url(#SVGID_146_);}
	.st198{clip-path:url(#SVGID_149_);}
</style>
<g>
	<defs>
		<rect id="SVGID_48_" x="-2.47" y="33.99" width="1891.93" height="869.22"/>
	</defs>
	<clipPath id="SVGID_1_">
		<use xlink:href="#SVGID_48_"  style="overflow:visible;"/>
	</clipPath>
	<g style="clip-path:url(#SVGID_1_);">
		<path class="st6" d="M1903.27,609.58c-9.35-47.48-12.88-96.09-10.5-144.42c0.45-9.11,0.6-19.56-6.14-25.71
			c-3.64-3.33-8.62-4.67-13.4-5.88c-85.13-21.67-175.03-38.1-260.2-16.61c-57.19,14.44-108.66,45.11-161.17,71.98
			c-104.41,52.21-212.44,89.47-325.77,115.49c-21.81-12.66-43.06-26.37-63.65-41.28c-40.31-29.18-77.45-62.53-117.63-91.89
			c-61.39-44.85-130.49-80.4-204.73-96.82s-153.89-12.89-223.77,17.05c-45.18,19.36-85.09,48.99-124.52,78.34
			c-75.11,55.91-160.25,107.5-229.3,170.64c-49.78,45.52-10.66,130.21,33.85,168.31c22.53,19.28,49.76,32.05,76.63,44.59
			c42.21,19.7,84.42,39.4,126.63,59.1c23.75,11.09,47.75,22.26,73.36,27.83c26.01,5.67,52.91,5.39,79.53,4.98
			c181.64-2.83,363.11-11.05,544.46-21.89c0.68,4.18,1.74,8.4,4.71,11.32c3.58,3.53,9,4.25,14.01,4.74
			c159.37,15.47,319.27-13.86,479.16-22.47c71.68-3.86,143.52-3.55,215.31-3.23c54.12,0.24,108.24,0.47,162.36,0.71
			C1970.63,809.99,1923.45,712.11,1903.27,609.58z"/>
		<path class="st78" d="M297.33,766.55c0,0,11.55,0.45,15.13-1.34"/>
		<path class="st78" d="M63.21,674.38c0,0,11.55,0.45,15.13-1.34"/>
		<linearGradient id="SVGID_2_" gradientUnits="userSpaceOnUse" x1="1515.1482" y1="406.8915" x2="1515.1482" y2="943.8864">
			<stop  offset="0.478" style="stop-color:#FFFFFF"/>
			<stop  offset="0.6659" style="stop-color:#E7F9FF;stop-opacity:0.4"/>
		</linearGradient>
		<path class="st2" d="M1451.87,488.93c52.51-26.86,103.98-57.54,161.17-71.98c85.17-21.5,175.07-5.06,260.2,16.61
			c4.78,1.22,9.76,2.56,13.4,5.88c6.73,6.15,6.59,16.6,6.14,25.71c-2.38,48.33,1.16,96.95,10.5,144.42
			c20.18,102.53,67.35,200.41,69.24,304.89c-54.12-0.24-108.24-0.47-162.36-0.71c-71.79-0.31-143.62-0.63-215.31,3.23
			c-159.89,8.61-319.79,37.94-479.16,22.47c-5.01-0.49-10.42-1.2-14.01-4.74c-3.46-3.41-4.33-8.58-5.02-13.38
			c-9.7-67.17-19.4-134.34-29.09-201.51c-8.79-60.88-28.94-96.29,38.52-110.92C1226.73,582.74,1341.32,544.2,1451.87,488.93z"/>
		<linearGradient id="SVGID_3_" gradientUnits="userSpaceOnUse" x1="881.8198" y1="364.7179" x2="881.8198" y2="945.4775">
			<stop  offset="0.2043" style="stop-color:#FFFFFF"/>
			<stop  offset="0.6659" style="stop-color:#E7F9FF;stop-opacity:0.4"/>
		</linearGradient>
		<path class="st3" d="M391.8,469.83c39.43-29.35,79.34-58.98,124.52-78.34c69.88-29.94,149.53-33.47,223.77-17.05
			c74.24,16.42,143.33,51.97,204.73,96.82c40.18,29.35,77.32,62.71,117.63,91.89c160.55,116.23,360.9,159.76,554.88,200.53
			c2.32,37.44,4.64,74.89,6.96,112.33c0.19,3.09,0.27,6.54-1.79,8.86c-2.02,2.28-5.38,2.66-8.41,2.88
			c-353.48,26-707.19,52.01-1061.59,57.54c-26.62,0.41-53.51,0.69-79.53-4.98c-25.61-5.58-49.61-16.75-73.36-27.83
			c-42.21-19.7-84.42-39.4-126.63-59.1c-26.87-12.54-54.11-25.31-76.63-44.59c-44.51-38.09-83.63-122.79-33.85-168.31
			C231.55,577.33,316.69,525.74,391.8,469.83z"/>
		<g>
			<path class="st81" d="M649.32,365.07c-12.12,8.94-23.06,18.82-32.61,29.63c-4.74,5.43-9.18,11.04-13.18,16.89
				c-1,1.46-1.99,2.92-2.94,4.41l-1.44,2.21l-1.38,2.25c-1.86,2.99-3.47,5.95-4.94,8.97c-1.48,3.01-2.8,6.03-3.87,9.04
				c-1.1,3.01-1.95,6-2.51,8.92c-0.6,2.92-0.87,5.75-0.84,8.41c-0.04,1.34,0.15,2.61,0.24,3.87c0.24,1.22,0.37,2.44,0.74,3.57
				l0.21,0.86c0.08,0.28,0.21,0.55,0.3,0.83c0.22,0.54,0.36,1.1,0.6,1.63c0.26,0.53,0.51,1.06,0.75,1.59
				c0.21,0.54,0.58,1.04,0.85,1.56l0.42,0.77c0.15,0.26,0.35,0.51,0.52,0.76c0.36,0.5,0.65,1.02,1.04,1.52l1.18,1.5
				c0.37,0.5,0.88,0.99,1.3,1.49c1.78,2,3.82,3.99,6.18,5.96c1.11,0.99,2.42,1.97,3.64,2.97c1.31,1,2.57,1.99,3.97,3
				c2.71,2.01,5.64,4.04,8.66,6.19c3.01,2.14,6.16,4.38,9.43,6.88c6.68,5.12,13,10.81,18.88,17.16c5.84,6.37,11.29,13.38,15.88,21.3
				c1.1,2.02,2.26,4,3.29,6.09c0.99,2.13,2.04,4.21,2.93,6.42l1.28,3.35c0.41,1.13,0.87,2.22,1.19,3.41l1.04,3.51
				c0.34,1.17,0.69,2.34,0.93,3.57c1.1,4.82,1.88,9.82,2.09,14.92l0.09,3.84c0,0.64,0.04,1.28,0,1.92l-0.12,1.93
				c-0.2,2.57-0.29,5.15-0.75,7.69c-1.46,10.28-5.16,19.87-9.81,28.41c-9.54,16.99-23.12,29.77-37.5,39.58
				c-7.13,4.8-14.37,8.91-21.46,12.58c-7.12,3.66-14.08,6.89-20.8,10.02l-9.87,4.58c-3.21,1.5-6.32,3.09-9.48,4.62
				c-6.28,3.15-12.51,6.44-18.73,9.89c-24.86,13.77-49.21,29.74-74.11,45.83l-18.55,11.96c-6.04,3.9-11.8,7.84-17.25,11.94
				c-2.71,2.06-5.34,4.17-7.87,6.34l-1.87,1.65l-1.79,1.72c-1.18,1.17-2.43,2.27-3.59,3.47c-4.68,4.78-8.97,10.04-13.03,15.6
				c-4.04,5.58-7.57,11.6-10.93,17.81c-3.32,6.24-6.14,12.81-8.85,19.52c-2.57,6.75-4.85,13.7-6.86,20.79
				c-1.99,7.11-3.61,14.36-5.18,21.75c-1.08-7.46-1.59-15.02-1.73-22.65c0.01-7.61,0.37-15.29,1.32-22.97
				c0.97-7.67,2.47-15.34,4.5-22.95c0.5-1.91,1.11-3.78,1.69-5.67c0.3-0.94,0.58-1.89,0.9-2.83l1.02-2.8
				c0.7-1.86,1.31-3.76,2.11-5.6l2.35-5.54c3.37-7.3,7.3-14.45,11.95-21.23c1.15-1.7,2.41-3.33,3.64-4.99l1.87-2.48l1.95-2.4
				c2.63-3.17,5.38-6.19,8.19-9.08c5.61-5.81,11.51-11.1,17.32-16.13c5.87-5,11.55-9.72,17.31-14.46
				c23.01-18.99,46.99-37.69,73.27-54.18c6.53-4.17,13.31-8.04,20.13-11.87c3.44-1.88,6.9-3.74,10.37-5.5l10.18-5.12
				c6.67-3.29,13.13-6.43,19.16-9.68c6.08-3.19,11.72-6.5,16.91-10.01l1.91-1.33c0.65-0.44,1.27-0.88,1.85-1.33l1.79-1.33l1.72-1.39
				c1.17-0.91,2.23-1.9,3.34-2.85c1.04-1,2.14-1.96,3.12-2.98c2.06-1.99,3.89-4.1,5.61-6.23c1.72-2.13,3.15-4.34,4.52-6.51
				c5.24-8.91,6.93-17.38,5.33-27.23c-0.83-4.89-2.56-10.02-5.07-15.16c-2.53-5.12-5.77-10.25-9.6-15.15
				c-3.8-4.92-8.14-9.63-12.84-14.05c-2.42-2.29-5.09-4.64-7.9-7.11c-2.8-2.46-5.69-5.04-8.66-7.81c-1.47-1.35-2.98-2.83-4.46-4.28
				c-1.5-1.54-2.97-3.01-4.45-4.69c-2.94-3.22-5.84-6.81-8.47-10.78c-0.65-1.02-1.32-1.97-1.92-3.04l-1.79-3.21
				c-0.58-1.08-1.09-2.25-1.62-3.37c-0.26-0.57-0.53-1.13-0.77-1.71l-0.67-1.78c-0.42-1.2-0.92-2.35-1.25-3.6l-0.99-3.7
				c-0.3-1.24-0.49-2.52-0.72-3.78c-0.1-0.63-0.23-1.26-0.3-1.89l-0.17-1.9c-0.28-2.53-0.24-5.03-0.21-7.51
				c0.19-2.45,0.36-4.9,0.81-7.24c0.19-1.18,0.39-2.36,0.68-3.49c0.28-1.14,0.53-2.29,0.85-3.4l1.03-3.28
				c0.34-1.09,0.78-2.12,1.18-3.17c1.64-4.17,3.55-8.1,5.74-11.74c2.17-3.66,4.48-7.14,7.01-10.38c2.5-3.24,5.16-6.37,7.87-9.24
				l2.02-2.16l2.08-2.1c1.36-1.42,2.81-2.76,4.25-4.09c5.78-5.32,11.81-10.29,18.23-14.65C621.05,376.34,634.9,369.44,649.32,365.07
				z"/>
		</g>
		<g>
			<path class="st82" d="M1289.38,664.66H1042.7l-22.96-96.4c-0.8-3.35-0.03-6.82,2.1-9.53c2.13-2.7,5.33-4.25,8.78-4.25h223.69
				c5.2,0,9.68,3.53,10.88,8.6L1289.38,664.66z M1050.84,654.35h225.5l-21.17-88.88c-0.09-0.4-0.45-0.68-0.86-0.68h-223.69
				c-0.35,0-0.57,0.18-0.69,0.33c-0.12,0.15-0.25,0.41-0.17,0.75L1050.84,654.35z"/>
		</g>
		<g>
			<path class="st83" d="M1299.99,683.7h-258.18l-24.07-101.08c-0.99-4.15,2.16-8.13,6.42-8.13h244.61c3.06,0,5.71,2.1,6.42,5.07
				L1299.99,683.7z"/>
		</g>
		<g>
			<path class="st83" d="M1317.8,702.38h-253.17c-12.84,0-23.25-10.41-23.25-23.25v0c0-2.57,2.08-4.65,4.65-4.65h253.17
				c12.84,0,23.25,10.41,23.25,23.25v0C1322.45,700.3,1320.37,702.38,1317.8,702.38z"/>
		</g>
		<g>
			<path class="st61" d="M1290.34,674.49h-240.79l-19.97-85.04c-0.69-2.94,1.54-5.75,4.56-5.75h231.17c2.17,0,4.06,1.49,4.56,3.61
				L1290.34,674.49z"/>
		</g>
		<g>
			<path class="st30" d="M1321.75,693.08h-253.59c-10.27,0-18.6-8.33-18.6-18.6l0,0h253.59
				C1313.42,674.49,1321.75,682.81,1321.75,693.08L1321.75,693.08z"/>
		</g>
		<g>
			<path class="st83" d="M1328,702.38h-22.15c-2.56,0-4.63-2.07-4.63-4.63l0,0c0-2.56,2.07-4.63,4.63-4.63H1328
				c2.56,0,4.63,2.07,4.63,4.63l0,0C1332.62,700.31,1330.55,702.38,1328,702.38z"/>
		</g>
		<g>
			<path class="st83" d="M1271.57,583.97H1026.3l23.99-100.73c1.13-4.75,5.33-8.07,10.21-8.07h223.69c3.23,0,6.24,1.45,8.24,3.99
				c2,2.54,2.72,5.8,1.97,8.94L1271.57,583.97z M1037.61,575.04h226.91l21.2-89c0.15-0.64-0.12-1.11-0.29-1.34
				c-0.18-0.22-0.57-0.6-1.23-0.6H1060.5c-0.73,0-1.36,0.5-1.53,1.21L1037.61,575.04z"/>
		</g>
		<g>
			<path class="st84" d="M1184.87,488.35h-32.91c-4.86,0-8.81-3.94-8.81-8.81v-2.21c0-4.86,3.94-8.81,8.81-8.81h32.91
				c4.86,0,8.81,3.94,8.81,8.81v2.21C1193.68,484.41,1189.73,488.35,1184.87,488.35z"/>
		</g>
		<g>
			<g>
				<path class="st84" d="M1171.85,478.44c0-9.03,0-18.07,0-27.1c-1.15,1.15-2.29,2.29-3.44,3.44c6.96,0,13.92,0,20.88,0
					c2.04,0,3.19-1.59,3.44-3.44c0.68-5.08-0.15-10.68-2.22-15.33c-4.5-10.08-14.96-12.25-25.02-10.87c-4.36,0.6-2.5,7.22,1.83,6.63
					c7.51-1.03,15.05,0.87,17.59,8.69c1.12,3.47,1.45,7.18,0.96,10.89c1.15-1.15,2.29-2.29,3.44-3.44c-6.96,0-13.92,0-20.88,0
					c-1.86,0-3.44,1.57-3.44,3.44c0,9.04,0,18.07,0,27.1C1164.98,482.86,1171.85,482.87,1171.85,478.44L1171.85,478.44z"/>
			</g>
		</g>
		<g>
			<path class="st85" d="M125.99,537.7c20.28,1.87,40.61,3.12,60.94,4.19c20.33,1.08,40.68,1.89,61.03,2.47
				c20.35,0.56,40.7,1.01,61.06,1.16c10.18,0.14,20.35,0.09,30.53,0.14c10.18-0.06,20.35-0.05,30.53-0.2
				c40.7-0.41,81.39-1.55,122.04-3.48c40.65-1.94,81.27-4.52,121.81-7.96c162.13-13.76,323.41-39.12,480.94-79.71
				c19.72-4.94,39.3-10.43,58.91-15.79l29.27-8.53l7.32-2.13c2.44-0.72,4.86-1.5,7.29-2.24l14.56-4.51l14.56-4.51
				c4.85-1.5,9.66-3.15,14.49-4.73c9.65-3.2,19.33-6.3,28.94-9.59l28.78-10.06c2.4-0.85,4.8-1.66,7.19-2.53l7.15-2.64l14.3-5.27
				l14.3-5.27l14.21-5.53l14.2-5.55l7.1-2.77l3.55-1.39l3.52-1.46l28.17-11.65c2.34-0.98,4.71-1.92,7.03-2.94l6.98-3.06l13.96-6.11
				l13.96-6.11c4.64-2.08,9.23-4.26,13.84-6.38c9.21-4.3,18.47-8.49,27.64-12.87l27.4-13.37l6.85-3.34l6.77-3.49l13.55-6.99
				l13.55-6.99l3.38-1.75l3.34-1.83l6.69-3.65l26.76-14.62c17.57-10.23,35.33-20.14,52.58-30.89l13.03-7.93l6.51-3.97l6.41-4.13
				l25.65-16.51l3.2-2.07l3.15-2.15l6.3-4.29l12.6-8.59l12.61-8.59l12.38-8.91c33.3-23.38,65.22-48.66,96.56-74.61l23.24-19.79
				l2.91-2.47l2.84-2.55l5.66-5.12l11.33-10.23l11.35-10.22c3.76-3.43,7.38-7.01,11.08-10.51L1945.9,0l-21.61,21.59
				c-3.62,3.58-7.17,7.24-10.85,10.76l-11.13,10.47l-11.15,10.46l-5.58,5.23l-2.8,2.61l-2.86,2.53l-22.91,20.25l-5.73,5.06
				c-1.92,1.67-3.9,3.28-5.85,4.92l-11.75,9.78l-11.76,9.78c-1.97,1.61-3.89,3.3-5.91,4.85l-6.01,4.72l-24.06,18.89
				c-1.99,1.6-4.05,3.1-6.09,4.62l-6.14,4.56l-12.28,9.11l-12.3,9.1l-12.54,8.76l-12.54,8.76l-6.27,4.38l-3.14,2.19l-3.19,2.11
				l-25.53,16.87l-6.38,4.22l-6.48,4.06l-12.97,8.11c-17.18,11.02-34.93,21.09-52.47,31.51l-26.73,14.91l-6.68,3.73l-3.34,1.86
				l-3.38,1.79l-13.54,7.14l-13.54,7.14l-6.77,3.56l-6.85,3.42l-27.39,13.66c-2.27,1.16-4.58,2.24-6.89,3.32l-6.93,3.25l-13.85,6.51
				c-4.62,2.16-9.22,4.37-13.87,6.48l-13.99,6.21l-13.99,6.21l-6.99,3.11c-2.33,1.04-4.7,1.99-7.05,2.99l-28.23,11.85l-3.53,1.48
				l-3.56,1.41l-7.11,2.82l-14.23,5.64l-14.24,5.62l-14.33,5.37l-14.33,5.37l-7.17,2.67c-2.39,0.89-4.81,1.7-7.21,2.56l-28.88,10.15
				c-9.65,3.32-19.36,6.45-29.04,9.68c-4.85,1.58-9.67,3.25-14.54,4.77l-14.61,4.56l-14.61,4.56c-2.44,0.75-4.87,1.53-7.31,2.26
				l-7.34,2.15l-29.37,8.62c-19.67,5.41-39.31,10.97-59.1,15.94c-39.53,10.1-79.28,19.39-119.26,27.54
				c-39.97,8.2-80.09,15.61-120.37,22.06c-40.29,6.4-80.71,11.91-121.22,16.67c-40.51,4.77-81.11,8.64-121.77,11.71
				c-40.66,3.06-81.38,5.41-122.12,6.85c-40.74,1.44-81.51,2.13-122.27,2.01c-10.19-0.01-20.38-0.18-30.57-0.27
				c-10.19-0.2-20.38-0.31-30.56-0.6c-20.37-0.47-40.74-1.19-61.09-2.15C207.16,544.9,166.48,542.22,125.99,537.7z"/>
		</g>
		<path class="st0" d="M544.33,608.76C595.92,743.87,758.6,906.61,785.14,943.6c2.32,3.23,0.01,7.71-3.9,7.71
			c-64.38,0.1-105.3-28.12-118.62-38.93c-0.43-0.35-0.98,0.23-0.62,0.66c13.03,15.33,51.48,62.27,36.56,65.78
			c-16.41,3.86-60.58-32.69-67.63-38.64c-0.33-0.27-0.8,0.01-0.73,0.43c1.07,5.88,5.28,30.81,0.96,34.65
			c-4.52,4.01-34.7-27.86-39.44-32.92c-0.26-0.27-0.68-0.12-0.73,0.25c-0.77,6.65-5.98,46.84-19.32,44.66
			c-12.88-2.11-22.34-43.2-24.32-52.52c-0.1-0.47-0.74-0.47-0.87,0c-1.95,7.26-9.61,33.18-19.34,32.12
			c-9.59-1.05-10.36-26.56-10.38-34.33c0-0.5-0.66-0.64-0.85-0.18c-4.27,9.86-23.15,52-32.65,49.44
			c-9.34-2.51-9.06-26.98-8.83-33.36c0.02-0.45-0.54-0.65-0.81-0.28c-5.29,7.42-33.15,45.72-43.37,44.6
			c-9.85-1.08,4.83-36.99,8.8-46.28c0.2-0.46-0.36-0.87-0.71-0.52c-11.03,10.96-73.9,72.13-92.23,61.92
			c-0.13-0.07-0.22-0.2-0.25-0.34c-5.52-25.32,40.55-76.4,52.01-88.63c0.37-0.39-0.1-1-0.55-0.72
			c-12.74,7.86-62.16,36.47-97.18,30.22c-2.82-0.5-3.96-4.06-2.01-6.21c26.72-29.42,185.64-183.46,238.15-333.3
			C537.63,605.03,542.88,604.96,544.33,608.76z"/>
		<path class="st0" d="M763.97,659.75c51.91,108.09,214.97,238.53,241.6,268.15c2.33,2.59,0.03,6.16-3.89,6.15
			c-64.38-0.07-105.37-22.72-118.71-31.39c-0.43-0.28-0.98,0.18-0.62,0.52c13.07,12.28,51.63,49.88,36.72,52.65
			c-16.4,3.05-60.65-26.27-67.72-31.04c-0.33-0.22-0.8,0-0.72,0.34c1.08,4.7,5.36,24.63,1.04,27.69
			c-4.51,3.2-34.77-22.35-39.52-26.4c-0.26-0.22-0.68-0.1-0.73,0.2c-0.75,5.31-5.87,37.42-19.21,35.64
			c-12.89-1.72-22.44-34.57-24.45-42.03c-0.1-0.38-0.74-0.38-0.87,0c-1.93,5.8-9.53,26.5-19.27,25.62
			c-9.59-0.86-10.43-21.25-10.46-27.46c0-0.4-0.66-0.51-0.85-0.15c-4.25,7.87-23.02,41.5-32.53,39.43
			c-9.35-2.03-9.13-21.58-8.91-26.68c0.02-0.36-0.55-0.52-0.81-0.23c-5.28,5.92-33.04,36.46-43.26,35.54
			c-9.85-0.88,4.74-29.55,8.69-36.96c0.2-0.37-0.36-0.69-0.72-0.41c-11,8.73-73.72,57.46-92.08,49.26
			c-0.13-0.06-0.22-0.16-0.25-0.28c-5.58-20.25,40.36-60.96,51.79-70.7c0.37-0.31-0.1-0.8-0.55-0.58
			c-12.72,6.25-62.07,28.99-97.11,23.91c-2.83-0.41-3.97-3.25-2.02-4.96c26.65-23.45,185.2-146.16,237.34-265.78
			C757.26,656.75,762.51,656.7,763.97,659.75z"/>
		<path class="st86" d="M1526.86,652.85c51.91,108.09,214.97,238.53,241.6,268.15c2.33,2.59,0.03,6.16-3.89,6.15
			c-64.38-0.07-105.37-22.72-118.71-31.39c-0.43-0.28-0.98,0.18-0.62,0.52c13.07,12.28,51.63,49.88,36.72,52.65
			c-16.4,3.05-60.65-26.27-67.72-31.04c-0.33-0.22-0.8,0-0.72,0.34c1.08,4.7,5.36,24.63,1.04,27.69
			c-4.51,3.2-34.77-22.35-39.52-26.4c-0.26-0.22-0.68-0.1-0.73,0.2c-0.75,5.31-5.87,37.42-19.21,35.64
			c-12.89-1.72-22.44-34.57-24.45-42.03c-0.1-0.38-0.74-0.38-0.87,0c-1.93,5.8-9.53,26.5-19.27,25.62
			c-9.59-0.86-10.43-21.25-10.46-27.46c0-0.4-0.66-0.51-0.85-0.15c-4.25,7.87-23.02,41.5-32.53,39.43
			c-9.35-2.03-9.13-21.58-8.91-26.68c0.02-0.36-0.55-0.52-0.81-0.23c-5.28,5.92-33.04,36.46-43.26,35.54
			c-9.85-0.88,4.74-29.55,8.69-36.96c0.2-0.37-0.36-0.69-0.72-0.41c-11,8.73-73.72,57.46-92.08,49.26
			c-0.13-0.06-0.22-0.16-0.25-0.28c-5.58-20.25,40.36-60.96,51.79-70.7c0.36-0.31-0.1-0.8-0.55-0.58
			c-12.72,6.25-62.07,28.99-97.11,23.91c-2.82-0.41-3.97-3.25-2.02-4.96c26.65-23.45,185.2-146.16,237.34-265.78
			C1520.15,649.86,1525.4,649.81,1526.86,652.85z"/>
		<g>
			<path class="st88" d="M584.47,1029.94c-49.5,10.47-102.66-8.75-139.01-50.26c9.55,23.67,22,45.64,36.82,64.98
				c-20.42,6.27-42.37-1.05-60.29-14.25c-17.93-13.2-32.54-31.84-46.92-50.26l-0.77,42.67c-18.33-1.7-36.07-11.36-49.19-26.79
				c5.08,12.12,10.17,24.25,15.25,36.37c1.69,4.03,3.45,8.56,0.67,13.02c-3.22,5.17-9.49,5.77-13.9,2.12
				c-13.59-11.24-25.15-25.99-33.69-42.95c-1.36,12.1-10.22,22.41-20.33,23.66c-10.11,1.25-20.48-6.68-23.8-18.2
				c-2.63,12.66-13.72,21.95-24.5,20.52c-10.79-1.43-19.87-13.38-20.08-26.42c-2.22,27.26-28,47.96-49.78,39.96
				c-0.94-9.13-1.89-18.26-2.83-27.38c2.27,17.27-2.21,35.73-12.17,48.63c-3.5,4.53-8.26,7.67-13.4,7.6
				c-12.03-0.15-16.19-15.31-15.77-27.84c0.36-10.78,2.78-21.87,0.06-32.14c-4.35,42.25-46.15,64.25-80.92,65.97
				c-3.35,0.17-6.71-1.89-8.11-5.55c-2.43-6.34,2.86-11.75,7.04-15.89c11.58-11.46,19.25-28.47,20.9-46.36
				c-8.53,20.33-26.07,34.81-44.92,37.06c-1.65-13.8-1.08-27.99,1.68-41.55l-56.99,58.28c-2.56,2.61-5.98,4.03-9.24,3.11
				c-6.82-1.91-7.11-11.8-6.05-19.34c2.53-18.01,7.16-35.61,13.71-52.11c-11.45,18.23-27.95,31.8-46.22,38.04
				c-1.6-8.82-0.94-18.22,1.85-26.62c-8.44,11.59-18.33,23.37-31.01,25.6s-27.45-10.73-24.54-25.71
				c5.23-2.06-40.91,26.47-67.77,27.4c-5.85,0.2-7.96-9.13-2.77-12.39c12.22-7.66,28.34-21.13,32.05-36.9
				c-28.31,20.79-59.8,35.3-92.39,42.58c4.06-12.96,11.75-24.25,21.52-31.6l-77.03,12.69c-6.45,1.06-13.11-1.88-16.85-8.26
				c-6.83-11.67,1.2-23.06,9.25-29.85c24.58-20.73,55.84-26.05,82.62-42.37c36.51-22.25,62.23-63.22,85.9-103.36
				c3.58-6.06,7.37-12.39,12.92-15.66c5.22-3.08,11.27-3.04,17.08-2.89c109.91,2.87,149.89-220.1,284.2-147.99
				c41.23,22.14,153.07-19.2,198.27-17.77c15.58,0.49,26.38,55.48,44.97,120.41c27.03,94.46,82.72,178.68,160.68,238.47
				C554.61,1011.13,569.17,1021,584.47,1029.94z"/>
			<path class="st89" d="M-70.19,632.33c24,9.71-140.23,225.64-131.9,233.06c8.33,7.43,93.89-52.51,93.89-52.51
				s-22.24,33.18-17.74,39.43c4.5,6.25,50.35-34.57,50.35-34.57s-10.73,18.02-6.25,23.91c4.48,5.89,36.94-29.16,36.94-29.16
				s-6.11,25.73-1.34,27.93s23.2-28.12,23.2-28.12s3.2,30.89,12.73,31.26s15.08-28.97,15.08-28.97s14.57,40.46,24.26,39.18
				s23.54-46.46,23.54-46.46s28.18,94.73,43.79,91.9s5.31-112.46,5.31-112.46s41.2,78.55,49.91,73.86s2.67-33.16,2.67-33.16
				s22.89,22.99,30.73,18.18c7.84-4.8,10.81-55.02,10.81-55.02s32.81,79.92,41.44,75.97S237,810.21,237,810.21
				s84.85,92.46,96.37,79.14c11.51-13.32-39.47-103.22-39.47-103.22s38.27,47.46,45.37,44.18c7.09-3.28-4.32-49.48-4.32-49.48
				s41.96,50.48,48.8,43.92s-12.81-62.75-12.81-62.75s45.92,43.95,50.59,37.19c4.67-6.76-8.15-31.61-8.15-31.61
				s102.03,36.04,104.33,17.01c-28.95-32.6-221.53-231-221.53-231l-307.36-2.91C-11.17,550.66-94.19,622.62-70.19,632.33z"/>
			<path class="st90" d="M265.26,466.81c0,0,186.09,162.75,179.8,169.91c-6.29,7.16-88.35-30.99-88.35-30.99
				s23.59,24.34,20.49,30.05S329,613.9,329,613.9s11.64,13.4,8.5,18.8c-3.13,5.4-35.85-19.16-35.85-19.16s8.62,20.31,4.75,22.73
				c-3.86,2.42-23.78-20.08-23.78-20.08s1.19,25.74-7.04,27.27c-8.23,1.53-16.83-21.82-16.83-21.82s-7.47,35.05-16.05,35.24
				c-8.59,0.19-26.43-35.07-26.43-35.07s-12.32,81.29-26.25,80.98c-13.94-0.31-19.06-91.53-19.06-91.53s-25.71,69.7-33.89,66.98
				c-8.17-2.72-6.58-26.85-6.58-26.85s-16.94,21.79-24.37,18.86c-7.43-2.93-16.46-43.72-16.46-43.72s-18.25,69.74-26.25,67.61
				s-7.04-46.26-7.04-46.26S-5.5,734.6-17.22,725.16s21.04-89.7,21.04-89.7s-27.16,43.83-33.75,42.05s-2.6-41.12-2.6-41.12
				s-29.98,46.78-36.77,42.28s3.07-53.1,3.07-53.1s-34.26,41.94-39.19,36.99c-4.93-4.94,3.02-26.97,3.02-26.97
				s-84.04,42.66-88.49,27.35c20.97-30.45,180.32-197.76,180.32-197.76l249.27-62L265.26,466.81z"/>
			<path class="st0" d="M80.07,115.04c60.73,143.47,227.53,307.9,255.72,346.13c2.46,3.34,0.74,8.43-2.91,8.76
				c-59.95,5.49-100.72-21.96-114.13-32.67c-0.43-0.35-0.89,0.34-0.51,0.77c13.58,15.68,53.79,63.81,40.23,68.9
				c-14.92,5.6-59.49-30.69-66.62-36.62c-0.33-0.27-0.75,0.07-0.64,0.53c1.55,6.35,7.81,33.26,4.15,37.82
				c-3.83,4.77-34.93-27.58-39.82-32.72c-0.26-0.28-0.65-0.08-0.65,0.34c-0.09,7.34-1.18,51.73-13.8,50.46
				c-12.2-1.23-24.86-45.38-27.59-55.41c-0.14-0.51-0.74-0.45-0.81,0.07c-1.13,8.11-5.83,37.1-15,36.75
				c-9.03-0.35-12.15-28.19-12.89-36.68c-0.05-0.54-0.67-0.64-0.81-0.13c-3.05,11.14-16.68,58.81-25.77,56.81
				c-8.94-1.96-10.97-28.75-11.35-35.75c-0.03-0.5-0.57-0.66-0.78-0.24c-4.23,8.56-26.58,52.78-36.21,52.41
				c-9.27-0.36,1.03-40.87,3.85-51.36c0.14-0.52-0.42-0.92-0.71-0.5c-9.25,12.9-62.06,85.07-80.09,75.43
				c-0.13-0.07-0.22-0.2-0.27-0.36c-7.52-27.23,30.59-86.95,40.12-101.29c0.3-0.46-0.19-1.08-0.58-0.74
				c-11.13,9.67-54.47,45.08-87.68,41.17c-2.68-0.32-4.07-4.11-2.45-6.62c22.13-34.41,155.68-216.17,190.52-384.46
				C73.48,111.52,78.36,111,80.07,115.04z"/>
			<g class="st91">
				<path class="st6" d="M208.82,314.12c-6.85,17.05-16.25,32.96-26.56,48.14c-10.51,15.07-22.24,29.28-35.07,42.43
					c-25.66,26.32-55.72,48.25-88.29,65.27l-1.52,0.82l-1.55,0.75l-3.11,1.49l-6.22,2.98c-2.08,0.98-4.13,2.02-6.23,2.94l-6.36,2.66
					l-6.36,2.66c-2.12,0.89-4.23,1.8-6.4,2.54l-12.96,4.69c-1.08,0.38-2.15,0.8-3.25,1.16l-3.29,1.01l-6.59,2.02l-6.59,2.02
					c-1.1,0.32-2.19,0.7-3.3,0.97l-3.34,0.84l-13.36,3.37l-3.34,0.83l-3.38,0.67l-6.76,1.35l-6.76,1.35
					c-2.25,0.43-4.49,0.95-6.77,1.24l-13.63,2.03l-6.81,1.01l-6.85,0.69l-13.71,1.37l-3.43,0.33l-3.44,0.18l-6.88,0.34l-13.75,0.68
					c-9.18,0.14-18.36,0.09-27.54,0.14c9.18-0.14,18.36-0.17,27.53-0.39l13.74-0.8l6.87-0.4l3.43-0.21l3.42-0.36l13.69-1.41
					l6.84-0.71l6.8-1.03l13.6-2.07c2.28-0.29,4.51-0.82,6.76-1.26l6.74-1.37l6.74-1.37l3.37-0.68l3.33-0.84l13.33-3.4l3.33-0.85
					c1.11-0.27,2.2-0.66,3.29-0.98l6.57-2.03l6.57-2.03l3.28-1.02c1.09-0.36,2.16-0.78,3.24-1.16l12.92-4.72
					c2.17-0.74,4.27-1.66,6.38-2.55l6.33-2.68l6.33-2.68c2.1-0.92,4.14-1.97,6.21-2.95l6.19-2.99l3.1-1.49l1.55-0.75l1.51-0.82
					c32.54-16.87,62.58-38.65,88.28-64.85c12.85-13.08,24.6-27.24,35.15-42.24C192.29,346.92,201.83,331.11,208.82,314.12z"/>
			</g>
			<g class="st91">
				<path class="st6" d="M-149.37,488.64c3.54,5.28,7.42,10.32,11.4,15.28c3.99,4.95,8.12,9.78,12.38,14.49
					c8.52,9.43,17.49,18.45,26.83,27.07c18.66,17.25,38.79,32.89,60.06,46.79c21.26,13.91,43.67,26.05,66.89,36.36
					c11.6,5.18,23.43,9.82,35.42,14.02c11.99,4.18,24.11,8.01,36.4,11.23c49.07,13.25,100.07,18.76,150.87,18.06
					c25.41-0.42,50.79-2.4,75.99-5.67c25.21-3.24,50.25-7.82,75.02-13.55c-24.73,5.89-49.75,10.63-74.96,14.03
					c-25.21,3.35-50.61,5.37-76.04,5.85c-50.85,0.81-101.94-4.59-151.14-17.76c-12.3-3.25-24.44-7.12-36.44-11.33
					c-12-4.24-23.84-8.92-35.45-14.13C4.62,619.01-17.8,606.8-39.06,592.83c-21.26-13.97-41.4-29.67-60.03-46.99
					c-9.29-8.68-18.22-17.77-26.68-27.26c-4.23-4.75-8.34-9.6-12.29-14.58C-142.01,499.02-145.86,493.95-149.37,488.64z"/>
			</g>
			<g class="st91">
				<path class="st6" d="M409.44,659.36c-2.82,7.31-6.12,14.42-9.57,21.46c-3.46,7.03-7.12,13.96-10.96,20.79
					c-7.69,13.66-16.04,26.94-24.94,39.84c-17.86,25.76-37.95,49.97-59.87,72.39c-21.91,22.43-45.67,43.03-70.9,61.65
					c-12.6,9.33-25.62,18.08-38.94,26.35l-4.99,3.11l-5.06,2.99c-3.39,1.97-6.72,4.05-10.16,5.92l-10.27,5.74l-10.4,5.49l-2.6,1.37
					l-2.63,1.31l-5.27,2.61l-5.27,2.61c-1.76,0.86-3.55,1.66-5.32,2.49c-3.56,1.64-7.1,3.33-10.68,4.92l-10.78,4.69
					c-1.79,0.8-3.6,1.55-5.42,2.27l-5.45,2.21c-3.63,1.48-7.26,2.97-10.94,4.31l-11,4.14l-11.1,3.87c-1.85,0.64-3.7,1.3-5.56,1.92
					l-5.6,1.79c-3.74,1.18-7.46,2.42-11.2,3.56c-7.53,2.17-15.01,4.51-22.61,6.44c-3.79,1-7.57,2.04-11.37,3l-11.43,2.74l-5.72,1.36
					l-5.75,1.23l-11.5,2.45c-30.74,6.14-61.84,10.42-93.07,13.04c-31.24,2.58-62.6,3.49-93.93,2.95c31.33,0.38,62.68-0.7,93.89-3.44
					c31.21-2.7,62.28-7.01,92.98-13.21l11.48-2.47l5.74-1.24l5.71-1.37l11.42-2.76c3.79-0.97,7.57-2.01,11.35-3.02
					c7.59-1.94,15.06-4.3,22.58-6.47c3.74-1.15,7.46-2.39,11.18-3.58l5.59-1.8c1.86-0.62,3.7-1.29,5.55-1.93l11.08-3.89l10.98-4.16
					c3.68-1.35,7.29-2.85,10.92-4.33l5.44-2.22c1.82-0.73,3.62-1.48,5.41-2.28l10.76-4.7c3.57-1.59,7.1-3.29,10.65-4.94
					c1.77-0.83,3.55-1.64,5.31-2.5l5.26-2.61l5.26-2.61l2.63-1.31l2.6-1.37l10.39-5.46l10.26-5.71c3.44-1.86,6.77-3.93,10.15-5.89
					l5.06-2.98l4.99-3.1c13.31-8.23,26.34-16.94,38.93-26.24c25.23-18.55,49-39.08,70.92-61.45c21.93-22.35,42.04-46.5,59.94-72.2
					c8.96-12.84,17.37-26.07,25.13-39.68c3.88-6.81,7.58-13.71,11.07-20.72C403.25,673.75,406.58,666.65,409.44,659.36z"/>
			</g>
			<circle class="st61" cx="191.54" cy="369.12" r="15.4"/>
			<circle class="st92" cx="131.27" cy="435.97" r="15.4"/>
			<circle class="st94" cx="58.23" cy="483.73" r="15.4"/>
			<circle class="st93" cx="124.6" cy="674.63" r="15.4"/>
			<circle class="st92" cx="329.99" cy="679.72" r="15.4"/>
			<circle class="st61" cx="228.65" cy="684.3" r="15.4"/>
			<circle class="st93" cx="352.26" cy="782.41" r="15.4"/>
			<circle class="st61" cx="265.64" cy="870.38" r="15.4"/>
			
				<radialGradient id="SVGID_4_" cx="-7960.4058" cy="1149.7081" r="46.9608" gradientTransform="matrix(-0.9942 0.1077 0.1077 0.9942 -7707.8271 393.0081)" gradientUnits="userSpaceOnUse">
				<stop  offset="0.2043" style="stop-color:#FCF4D4;stop-opacity:0.7"/>
				<stop  offset="0.6659" style="stop-color:#FCF4D4;stop-opacity:0"/>
			</radialGradient>
			<circle class="st4" cx="330.1" cy="678.57" r="46.96"/>
			
				<radialGradient id="SVGID_5_" cx="-7789.0176" cy="886.1758" r="46.9608" gradientTransform="matrix(-0.9942 0.1077 0.1077 0.9942 -7707.8271 393.0081)" gradientUnits="userSpaceOnUse">
				<stop  offset="0.2043" style="stop-color:#FCF4D4;stop-opacity:0.7"/>
				<stop  offset="0.6659" style="stop-color:#FCF4D4;stop-opacity:0"/>
			</radialGradient>
			<circle class="st5" cx="131.33" cy="435.03" r="46.96"/>
			
				<radialGradient id="SVGID_7_" cx="-7760.4531" cy="1392.0474" r="46.9608" gradientTransform="matrix(-0.9942 0.1077 0.1077 0.9942 -7707.8271 393.0081)" gradientUnits="userSpaceOnUse">
				<stop  offset="0.1991" style="stop-color:#E86A46"/>
				<stop  offset="0.6659" style="stop-color:#E86A46;stop-opacity:0"/>
			</radialGradient>
			<circle style="fill:url(#SVGID_7_);" cx="157.42" cy="941.04" r="46.96"/>
		</g>
		
			<linearGradient id="SVGID_8_" gradientUnits="userSpaceOnUse" x1="-7026.3462" y1="681.1068" x2="-7026.3462" y2="525.0118" gradientTransform="matrix(-1 0 0 1 -5885.4907 0)">
			<stop  offset="0.3407" style="stop-color:#314448"/>
			<stop  offset="0.7363" style="stop-color:#465B5E"/>
		</linearGradient>
		<path style="fill:url(#SVGID_8_);" d="M1130.37,681.11h20.98c23.68,0,42.57-19.74,41.53-43.4l-2.9-65.77
			c-1.16-26.24-22.77-46.92-49.04-46.92h0c-26.22,0-47.81,20.61-49.03,46.8l-3.07,65.79
			C1087.74,661.29,1106.65,681.11,1130.37,681.11z"/>
		<path class="st6" d="M1140.86,674.3L1140.86,674.3c21.78,0,39.43-17.65,39.43-39.43v-19.88c0-21.78-17.65-39.43-39.43-39.43l0,0
			c-21.78,0-39.43,17.65-39.43,39.43v19.88C1101.43,656.65,1119.08,674.3,1140.86,674.3z"/>
		<path class="st6" d="M1120.21,549.64c7.04-0.7,13.43,2.31,17.44,7.3c1.65,2.05,4.77,2.05,6.42,0c4.01-4.99,10.39-7.99,17.44-7.3
			c9.54,0.94,17.12,8.83,17.73,18.4c0.73,11.51-8.39,21.07-19.74,21.07c-8.59,0-15.9-5.47-18.63-13.12
			c-2.73,7.65-10.04,13.12-18.63,13.12c-11.35,0-20.47-9.56-19.74-21.07C1103.09,558.47,1110.67,550.58,1120.21,549.64z"/>
		<g>
			<circle class="st28" cx="1161.91" cy="568.09" r="3.25"/>
			<circle cx="1161.93" cy="568.13" r="2.25"/>
			<circle class="st6" cx="1162.99" cy="567.02" r="1.14"/>
		</g>
		<g>
			<circle class="st28" cx="1122.86" cy="568.09" r="3.25"/>
			<circle cx="1122.89" cy="568.13" r="2.25"/>
			<circle class="st6" cx="1123.94" cy="567.02" r="1.14"/>
		</g>
		<g>
			<path class="st30" d="M1148.38,570.52l-1.49,2.35l-5.99,1.14l-4.25-1.59l-1.26-1.9c0,0,3.96-0.42,6.11-3.26
				c0.17-0.22,0.5-0.23,0.68-0.03C1144.21,569.48,1148.38,570.52,1148.38,570.52z"/>
			<path class="st27" d="M1141.89,573.16c2.65,0,5-1.04,6.49-2.64c-0.27,3.43-3.07,6.13-6.49,6.13s-6.22-2.7-6.49-6.13
				C1136.88,572.12,1139.23,573.16,1141.89,573.16z"/>
		</g>
		<path class="st31" d="M1091.5,571.16c20.99,10,46.7,13.7,69.55,9.73c9.84-1.71,20.74-4.55,29.14-8.75
			c4.55-2.27,4.18,28.4,2.3,30.41c-39.02,19.93-80.1,9.06-102.78-1.74C1086.44,599.25,1086.92,568.98,1091.5,571.16z"/>
		<g>
			<defs>
				<path id="SVGID_59_" d="M1091.55,571.23c20.99,10,46.7,13.7,69.55,9.73c9.84-1.71,20.74-4.55,29.14-8.75
					c4.55-2.27,4.18,28.4,2.3,30.41c-39.02,19.93-80.1,9.06-102.78-1.74C1086.49,599.32,1086.97,569.04,1091.55,571.23z"/>
			</defs>
			<use xlink:href="#SVGID_59_"  style="overflow:visible;fill:#FF8400;"/>
			<clipPath id="SVGID_9_">
				<use xlink:href="#SVGID_59_"  style="overflow:visible;"/>
			</clipPath>
			<g style="clip-path:url(#SVGID_9_);">
				<circle class="st33" cx="1191.36" cy="601.38" r="3.34"/>
				<circle class="st33" cx="1184.18" cy="583.18" r="3.34"/>
				<circle class="st33" cx="1172.15" cy="597.13" r="3.34"/>
				<circle class="st33" cx="1156.18" cy="587.12" r="3.34"/>
				<circle class="st33" cx="1156.58" cy="607.85" r="3.34"/>
				<circle class="st33" cx="1138.59" cy="597.64" r="3.34"/>
				<circle class="st33" cx="1118.17" cy="604.71" r="3.34"/>
				<circle class="st33" cx="1119.18" cy="584.5" r="3.34"/>
				<circle class="st33" cx="1102.9" cy="591.57" r="3.34"/>
				<circle class="st33" cx="1089.96" cy="575.5" r="3.34"/>
				<circle class="st33" cx="1089.66" cy="601.18" r="3.34"/>
			</g>
		</g>
		<path class="st31" d="M1165.64,531.09c-32.53,10.4-49.21-0.33-49.21-0.33s7.43-23.78,24.44-29.72
			C1142.02,513.42,1164.98,526.13,1165.64,531.09z"/>
		<g>
			<g>
				<path class="st33" d="M1164.19,524.41c-11.08,3.44-23.03,5.67-34.61,3.65c-4.09-0.71-7.9-1.68-10.75-3.48
					c-5.46-3.45-10.48,5.2-5.05,8.63c4.11,2.6,9.36,3.88,14.08,4.65c13.11,2.13,26.39,0.09,38.98-3.81
					C1172.97,532.15,1170.36,522.49,1164.19,524.41L1164.19,524.41z"/>
			</g>
		</g>
		<circle class="st33" cx="1139.22" cy="500.54" r="5.12"/>
		<path class="st27" d="M1154.57,674.31v-5.8c0-0.62,0.8-0.87,1.16-0.36l1.06,1.53c0.84,1.21,2.66,1.08,3.31-0.24l1.71-3.47
			c0.29-0.59,1.13-0.61,1.45-0.03l1.98,3.62c0.69,1.26,2.46,1.35,3.27,0.17l1.09-1.58c0.35-0.51,1.16-0.26,1.16,0.36v5.8v3.95v0.05
			c0,4.48-3.63,8.11-8.11,8.11l0,0c-4.48,0-8.11-3.63-8.11-8.11v-4H1154.57z"/>
		<path class="st27" d="M1115.89,674.31v-5.8c0-0.62,0.8-0.87,1.16-0.36l1.06,1.53c0.84,1.21,2.66,1.08,3.31-0.24l1.71-3.47
			c0.29-0.59,1.13-0.61,1.45-0.03l1.98,3.62c0.69,1.26,2.46,1.35,3.27,0.17l1.09-1.58c0.35-0.51,1.16-0.26,1.16,0.36v5.8v3.95v0.05
			c0,4.48-3.63,8.11-8.11,8.11h0c-4.48,0-8.11-3.63-8.11-8.11v-4H1115.89z"/>
		<g>
			<path class="st83" d="M1298.52,648.43H1062.1c-6.55,0-8.33-1.36-8.92-1.81l-23.97-18.3l5.42-7.1l23.53,17.97
				c0.6,0.13,1.98,0.31,3.93,0.31h231.29l-12.09-9.11l2.87-9.17l23.27,17.77c1.68,1.28,2.34,3.37,1.68,5.32
				C1308.13,647.23,1305.06,648.43,1298.52,648.43z"/>
		</g>
		<g>
			<path class="st28" d="M1099.7,627.13c0,0-8.43,2.8-22.4,18.4c-1.18,1.32-3.35,0.84-3.88-0.86
				c-5.19-16.52,17.16-42.63,17.16-42.63L1099.7,627.13z"/>
		</g>
		<g>
			<path class="st28" d="M1185.02,630.57c0,0,8.74,1.58,24.79,15.03c1.36,1.14,3.44,0.35,3.72-1.4
				c2.79-17.09-23.04-39.76-23.04-39.76L1185.02,630.57z"/>
		</g>
		<g>
			<path class="st86" d="M1569.83,780.5c21.01,10.72-145.18,193.59-138.21,201c6.97,7.4,89.37-40.19,89.37-40.19
				s-22.82,28.34-19.23,34.37c3.59,6.03,48.43-27.37,48.43-27.37s-11.17,15.5-7.57,21.2s35.84-23.52,35.84-23.52
				s-7.59,22.86-3.44,25.24c4.16,2.38,23.29-23.67,23.29-23.67s0.45,28.28,9.06,29.38c8.61,1.1,15.99-25.09,15.99-25.09
				s10.01,37.87,18.9,37.48s25.06-40.28,25.06-40.28s18.04,88.2,32.43,86.87c14.4-1.33,13.76-101.63,13.76-101.63
				s31.14,74.55,39.42,70.99s5.06-29.88,5.06-29.88s18.95,22.68,26.44,18.94s14.18-49.06,14.18-49.06s23.42,75.12,31.56,72.23
				c8.14-2.9,4.27-51.18,4.27-51.18s69.65,90.64,81.15,79.47c11.51-11.17-27.61-96.79-27.61-96.79s30.96,46.11,37.65,43.69
				c6.7-2.42,0.01-45.24,0.01-45.24s34.06,49.14,40.79,43.73c6.73-5.41-6.63-57.96-6.63-57.96s38.18,43.53,42.95,37.77
				s-4.88-29.33-4.88-29.33s89.72,40.82,93.32,23.73c-23.68-31.88-182.66-227.22-182.66-227.22l-278.67-27.08
				C1629.87,711.09,1548.82,769.78,1569.83,780.5z"/>
			<path class="st102" d="M1886.7,623.98c0,0,155.92,162.47,149.64,168.47c-6.27,6-77.7-35.14-77.7-35.14s19.47,23.97,16.2,28.89
				s-41.99-23.68-41.99-23.68s9.49,13.08,6.22,17.74c-3.27,4.65-31.01-20.24-31.01-20.24s6.21,19.12,2.51,21
				c-3.7,1.89-19.98-20.11-19.98-20.11s-0.97,23.45-8.56,24.18c-7.59,0.74-13.53-21.14-13.53-21.14s-9.56,31.21-17.37,30.7
				c-7.81-0.51-21.19-33.92-21.19-33.92s-17.64,72.79-30.26,71.4c-12.62-1.39-10.02-84.57-10.02-84.57s-28.87,61.2-36.07,58.08
				s-3.84-24.88-3.84-24.88s-17.11,18.43-23.62,15.17c-6.51-3.25-11.46-40.98-11.46-40.98s-22.1,61.83-29.19,59.27
				c-7.09-2.57-2.71-42.53-2.71-42.53s-63.03,73.77-72.91,64.27c-9.88-9.5,26.22-79.72,26.22-79.72s-28.13,37.61-33.97,35.47
				s0.91-37.52,0.91-37.52s-30.92,40.06-36.72,35.44c-5.8-4.62,7-47.94,7-47.94s-34.42,35.33-38.5,30.45
				c-4.08-4.88,4.88-24.23,4.88-24.23s-79.65,32.03-82.47,17.79c21.45-25.96,179.34-165.11,179.34-165.11l231.11-36.44
				L1886.7,623.98z"/>
			<path class="st103" d="M1749.14,277.44c43.7,135.01,181.98,297.47,204.53,334.4c1.97,3.23,0,7.71-3.34,7.72
				c-54.84,0.21-89.65-27.93-100.97-38.72c-0.37-0.35-0.83,0.23-0.53,0.66c11.08,15.3,43.74,62.17,31.03,65.71
				c-13.98,3.89-51.54-32.58-57.54-38.52c-0.28-0.27-0.68,0.01-0.62,0.43c0.9,5.88,4.45,30.8,0.76,34.65
				c-3.86,4.02-29.51-27.8-33.53-32.85c-0.22-0.27-0.58-0.12-0.62,0.26c-0.67,6.65-5.18,46.85-16.54,44.69
				c-10.97-2.09-18.95-43.15-20.63-52.47c-0.08-0.47-0.63-0.47-0.74,0c-1.67,7.27-8.24,33.2-16.53,32.15
				c-8.16-1.03-8.78-26.54-8.78-34.31c0-0.5-0.56-0.63-0.73-0.18c-3.66,9.87-19.81,52.04-27.9,49.5
				c-7.95-2.49-7.67-26.96-7.46-33.34c0.02-0.45-0.46-0.65-0.69-0.28c-4.52,7.43-28.32,45.78-37.02,44.68
				c-8.39-1.06,4.18-37,7.58-46.3c0.17-0.46-0.31-0.87-0.61-0.51c-9.42,10.97-63.07,72.26-78.67,62.08
				c-0.11-0.07-0.19-0.2-0.21-0.34c-4.66-25.31,34.67-76.47,44.45-88.72c0.31-0.39-0.08-1-0.47-0.72
				c-10.87,7.89-53.01,36.58-82.83,30.39c-2.4-0.5-3.37-4.05-1.7-6.2c22.81-29.47,158.45-183.78,203.44-333.71
				C1743.44,273.72,1747.91,273.64,1749.14,277.44z"/>
		</g>
		<g>
			<path class="st34" d="M1108.33,575.62c6.1-1.84,12.04-0.2,15.22,1.74c1.45,0.89,2.16,2.55,1.98,4.25
				c-2.08,38.31-1.93,54.99-1.93,54.99l-25.01-0.8c0,0-0.58-52.12,9.02-59.82C1107.82,575.82,1108.07,575.7,1108.33,575.62z"/>
			<g>
				<defs>
					<path id="SVGID_61_" d="M1108.3,575.57c6.1-1.84,12.04-0.2,15.22,1.74c1.45,0.89,2.16,2.55,1.98,4.25
						c-2.08,38.31-1.93,54.99-1.93,54.99l-25.01-0.8c0,0-0.58-52.12,9.02-59.82C1107.79,575.76,1108.04,575.65,1108.3,575.57z"/>
				</defs>
				<clipPath id="SVGID_10_">
					<use xlink:href="#SVGID_61_"  style="overflow:visible;"/>
				</clipPath>
				<g style="clip-path:url(#SVGID_10_);">
					<circle class="st33" cx="1105.89" cy="627.97" r="3.28"/>
					<circle class="st33" cx="1114.27" cy="591.8" r="3.28"/>
					<circle class="st33" cx="1123.09" cy="628.92" r="3.28"/>
					<circle class="st33" cx="1107.75" cy="577.01" r="3.28"/>
					<circle class="st33" cx="1100.27" cy="605.8" r="3.28"/>
					<circle class="st33" cx="1116.83" cy="613.45" r="3.28"/>
				</g>
			</g>
			<path class="st34" d="M1101.68,641.38L1101.68,641.38c-1.73,0-3.13-1.4-3.13-3.13v-4.47c0-1.73,1.4-3.13,3.13-3.13l0,0
				c1.73,0,3.13,1.4,3.13,3.13v4.47C1104.81,639.97,1103.41,641.38,1101.68,641.38z"/>
			<path class="st34" d="M1107.94,641.68L1107.94,641.68c-1.73,0-3.13-1.4-3.13-3.13v-4.47c0-1.73,1.4-3.13,3.13-3.13l0,0
				c1.73,0,3.13,1.4,3.13,3.13v4.47C1111.07,640.27,1109.67,641.68,1107.94,641.68z"/>
			<path class="st34" d="M1114.21,641.97L1114.21,641.97c-1.73,0-3.13-1.4-3.13-3.13v-4.47c0-1.73,1.4-3.13,3.13-3.13l0,0
				c1.73,0,3.13,1.4,3.13,3.13v4.47C1117.34,640.57,1115.94,641.97,1114.21,641.97z"/>
			<path class="st34" d="M1120.45,641.82L1120.45,641.82c-1.73,0-3.13-1.4-3.13-3.13v-2.71c0-1.73,1.4-3.13,3.13-3.13l0,0
				c1.73,0,3.13,1.4,3.13,3.13v2.71C1123.58,640.42,1122.18,641.82,1120.45,641.82z"/>
		</g>
	</g>
</g>
</svg>
