<?xml version="1.0" encoding="utf-8"?>
<!-- Generator: Adobe Illustrator 23.0.3, SVG Export Plug-In . SVG Version: 6.00 Build 0)  -->
<svg version="1.1" id="Слой_1" xmlns="http://www.w3.org/2000/svg" xmlns:xlink="http://www.w3.org/1999/xlink" x="0px" y="0px"
	 viewBox="0 0 248.23 514.72" style="enable-background:new 0 0 248.23 514.72;" xml:space="preserve">
<style type="text/css">
	.st0{fill:#9EC3BE;}
	.st1{fill:url(#SVGID_1_);}
	.st2{fill:url(#SVGID_2_);}
	.st3{fill:url(#SVGID_3_);}
	.st4{fill:url(#SVGID_4_);}
	.st5{fill:url(#SVGID_5_);}
	.st6{fill:#FFFFFF;}
	.st7{clip-path:url(#SVGID_7_);}
	.st8{opacity:0.43;fill:url(#SVGID_8_);}
	.st9{opacity:0.63;fill:url(#SVGID_9_);}
	.st10{opacity:0.69;fill:url(#SVGID_10_);}
	.st11{opacity:0.54;fill:url(#SVGID_11_);}
	.st12{opacity:0.43;fill:url(#SVGID_12_);}
	.st13{opacity:0.68;fill:url(#SVGID_13_);}
	.st14{opacity:0.49;fill:url(#SVGID_14_);}
	.st15{opacity:0.78;fill:url(#SVGID_15_);}
	.st16{opacity:0.74;fill:url(#SVGID_16_);}
	.st17{fill:url(#SVGID_17_);}
	.st18{fill:url(#SVGID_18_);}
	.st19{fill:url(#SVGID_19_);}
	.st20{fill:url(#SVGID_20_);}
	.st21{fill:url(#SVGID_21_);}
	.st22{fill:url(#SVGID_22_);}
	.st23{fill:url(#SVGID_23_);}
	.st24{fill:url(#SVGID_24_);}
	.st25{opacity:0.65;fill:#FFFFFF;}
	.st26{opacity:0.42;fill:#FFFFFF;}
	.st27{fill:#F1AC4C;}
	.st28{fill:#314448;}
	.st29{fill:url(#SVGID_25_);}
	.st30{fill:#EFBB4E;}
	.st31{fill:#FF8400;}
	.st32{clip-path:url(#SVGID_27_);}
	.st33{fill:#E76344;}
	.st34{fill:#F67B3E;}
	.st35{clip-path:url(#SVGID_29_);}
	.st36{fill:#DD4C43;}
	.st37{fill:#FD706C;}
	.st38{fill:#6C9791;}
	.st39{fill:#9ABCB6;}
	.st40{fill:#D3D3D3;}
	.st41{fill:#FFDFD6;}
	.st42{fill:url(#SVGID_30_);}
	.st43{fill:#AEC9D4;}
	.st44{fill:#808080;}
	.st45{fill:url(#SVGID_31_);}
	.st46{fill:#EAEAEA;}
	.st47{opacity:0.42;clip-path:url(#SVGID_33_);}
	.st48{opacity:0.68;fill:#D3D3D3;}
	.st49{opacity:0.39;}
	.st50{clip-path:url(#SVGID_35_);}
	.st51{opacity:0.18;}
	.st52{opacity:0.08;}
	.st53{clip-path:url(#SVGID_37_);}
	.st54{fill:#BCE0E9;}
	.st55{fill:#9CB8BE;}
	.st56{clip-path:url(#SVGID_38_);}
	.st57{opacity:0.75;}
	.st58{fill:#F0B24B;}
	.st59{fill:#EFA24B;}
	.st60{clip-path:url(#SVGID_40_);}
	.st61{fill:#FFCC72;}
	.st62{clip-path:url(#SVGID_42_);}
	.st63{fill:#EC8949;}
	.st64{clip-path:url(#SVGID_43_);}
	.st65{fill:#606060;}
	.st66{fill:#C4A987;}
	.st67{fill:#EACEA5;}
	.st68{fill:#B1977A;}
	.st69{clip-path:url(#SVGID_44_);}
	.st70{fill:#CCB68F;}
	.st71{fill:url(#SVGID_46_);}
	.st72{fill:url(#SVGID_47_);}
	.st73{fill:#FFEFAD;}
	.st74{fill:#FFF9E5;}
	.st75{fill:none;stroke:#B1977A;stroke-width:0.25;stroke-miterlimit:10;}
	.st76{fill:#E87446;}
	.st77{clip-path:url(#SVGID_49_);}
	.st78{fill:none;stroke:#FFE8C3;stroke-miterlimit:10;}
	.st79{fill:url(#SVGID_50_);}
	.st80{fill:url(#SVGID_51_);}
	.st81{fill:#E7F9FF;}
	.st82{fill:#BFBFBF;}
	.st83{fill:#A7A7A7;}
	.st84{fill:#C0C0C0;}
	.st85{fill:#A1BFC8;}
	.st86{fill:#A9CEC9;}
	.st87{fill:#76A09A;}
	.st88{fill:#7FAAA3;}
	.st89{fill:#8AB2AC;}
	.st90{fill:#93BAB5;}
	.st91{opacity:0.57;}
	.st92{fill:#FCF4D4;}
	.st93{fill:#E86A46;}
	.st94{fill:#8A636C;}
	.st95{fill:#B59BA2;}
	.st96{fill:url(#SVGID_52_);}
	.st97{fill:url(#SVGID_54_);}
	.st98{fill:url(#SVGID_55_);}
	.st99{fill:url(#SVGID_56_);}
	.st100{fill:url(#SVGID_58_);}
	.st101{clip-path:url(#SVGID_60_);}
	.st102{fill:#B5D9D5;}
	.st103{fill:#C0E4E0;}
	.st104{clip-path:url(#SVGID_62_);}
	.st105{clip-path:url(#SVGID_64_);}
	.st106{opacity:0.69;}
	.st107{fill:url(#SVGID_65_);}
	.st108{fill:url(#SVGID_66_);}
	.st109{opacity:0.5;}
	.st110{fill:url(#SVGID_67_);}
	.st111{fill:url(#SVGID_68_);}
	.st112{opacity:0.71;}
	.st113{fill:url(#SVGID_69_);}
	.st114{fill:url(#SVGID_70_);}
	.st115{fill:url(#SVGID_71_);}
	.st116{fill:url(#SVGID_72_);}
	.st117{fill:url(#SVGID_73_);}
	.st118{fill:url(#SVGID_74_);}
	.st119{opacity:0.47;}
	.st120{fill:url(#SVGID_75_);}
	.st121{fill:url(#SVGID_76_);}
	.st122{opacity:0.49;}
	.st123{fill:url(#SVGID_77_);}
	.st124{fill:url(#SVGID_78_);}
	.st125{opacity:0.56;}
	.st126{fill:url(#SVGID_79_);}
	.st127{fill:url(#SVGID_80_);}
	.st128{clip-path:url(#SVGID_82_);}
	.st129{fill:url(#SVGID_83_);}
	.st130{fill:url(#SVGID_84_);}
	.st131{opacity:0.54;}
	.st132{fill:url(#SVGID_85_);}
	.st133{fill:url(#SVGID_86_);}
	.st134{opacity:0.63;}
	.st135{fill:url(#SVGID_87_);}
	.st136{fill:url(#SVGID_88_);}
	.st137{fill:url(#SVGID_89_);}
	.st138{fill:url(#SVGID_90_);}
	.st139{clip-path:url(#SVGID_92_);}
	.st140{clip-path:url(#SVGID_94_);}
	.st141{fill:#535353;}
	.st142{fill:#F0F0F0;}
	.st143{fill:#E1E1E1;}
	.st144{clip-path:url(#SVGID_96_);}
	.st145{fill:url(#SVGID_97_);}
	.st146{clip-path:url(#SVGID_98_);}
	.st147{clip-path:url(#SVGID_99_);}
	.st148{clip-path:url(#SVGID_101_);}
	.st149{fill:url(#SVGID_102_);}
	.st150{fill:url(#SVGID_103_);}
	.st151{fill:url(#SVGID_104_);}
	.st152{fill:url(#SVGID_105_);}
	.st153{clip-path:url(#SVGID_107_);}
	.st154{clip-path:url(#SVGID_109_);}
	.st155{fill:#CBEEF8;}
	.st156{clip-path:url(#SVGID_110_);}
	.st157{fill:url(#SVGID_112_);}
	.st158{clip-path:url(#SVGID_113_);}
	.st159{fill:url(#SVGID_114_);}
	.st160{clip-path:url(#SVGID_116_);}
	.st161{clip-path:url(#SVGID_117_);}
	.st162{clip-path:url(#SVGID_118_);}
	.st163{clip-path:url(#SVGID_119_);}
	.st164{fill:#B4D8DC;}
	.st165{clip-path:url(#SVGID_120_);}
	.st166{fill:#5D8681;}
	.st167{fill:url(#SVGID_121_);}
	.st168{clip-path:url(#SVGID_122_);}
	.st169{fill:#DDF3F7;}
	.st170{fill:#E4A96F;}
	.st171{fill:url(#SVGID_123_);}
	.st172{fill:#EAB278;}
	.st173{fill:url(#SVGID_124_);}
	.st174{fill:url(#SVGID_125_);}
	.st175{fill:#DA9D6B;}
	.st176{opacity:0.74;fill:#DA9D6B;}
	.st177{opacity:0.5;fill:#DA9D6B;}
	.st178{opacity:0.39;fill:#DA9D6B;}
	.st179{opacity:0.36;fill:#DA9D6B;}
	.st180{opacity:0.68;fill:#DA9D6B;}
	.st181{opacity:0.86;fill:#DA9D6B;}
	.st182{opacity:0.62;fill:#DA9D6B;}
	.st183{opacity:0.63;fill:#DA9D6B;}
	.st184{fill:url(#SVGID_126_);}
	.st185{fill:url(#SVGID_127_);}
	.st186{clip-path:url(#SVGID_128_);}
	.st187{fill:url(#SVGID_130_);}
	.st188{fill:url(#SVGID_131_);}
	.st189{fill:url(#SVGID_132_);}
	.st190{fill:url(#SVGID_133_);}
	.st191{clip-path:url(#SVGID_135_);}
	.st192{clip-path:url(#SVGID_137_);}
	.st193{clip-path:url(#SVGID_140_);}
	.st194{fill:#8D8D8D;}
	.st195{clip-path:url(#SVGID_142_);}
	.st196{fill:url(#SVGID_144_);}
	.st197{clip-path:url(#SVGID_146_);}
	.st198{clip-path:url(#SVGID_149_);}
</style>
<g>
	<defs>
		<rect id="SVGID_106_" x="0.06" width="248.17" height="514.72"/>
	</defs>
	<clipPath id="SVGID_1_">
		<use xlink:href="#SVGID_106_"  style="overflow:visible;"/>
	</clipPath>
	<g style="clip-path:url(#SVGID_1_);">
		<path class="st86" d="M-87.66,330.74c12.73,6.5-88.01,117.35-83.78,121.84c4.23,4.49,54.18-24.36,54.18-24.36
			s-13.83,17.18-11.66,20.83c2.18,3.66,29.36-16.59,29.36-16.59s-6.77,9.4-4.59,12.85c2.18,3.45,21.72-14.26,21.72-14.26
			s-4.6,13.86-2.08,15.3c2.52,1.44,14.12-14.35,14.12-14.35s0.27,17.14,5.49,17.81c5.22,0.67,9.69-15.21,9.69-15.21
			s6.07,22.96,11.46,22.72c5.39-0.24,15.19-24.42,15.19-24.42s10.93,53.46,19.66,52.66c8.73-0.8,8.34-61.6,8.34-61.6
			s18.88,45.19,23.9,43.03c5.02-2.16,3.07-18.11,3.07-18.11s11.49,13.75,16.03,11.48s8.59-29.74,8.59-29.74s14.2,45.54,19.13,43.78
			c4.93-1.76,2.59-31.02,2.59-31.02s42.22,54.95,49.19,48.17c6.97-6.77-16.74-58.68-16.74-58.68s18.77,27.95,22.82,26.48
			c4.06-1.46,0.01-27.42,0.01-27.42s20.65,29.79,24.73,26.51c4.08-3.28-4.02-35.13-4.02-35.13s23.14,26.39,26.04,22.89
			c2.89-3.49-2.96-17.78-2.96-17.78s54.39,24.74,56.57,14.38c-14.35-19.33-110.72-137.74-110.72-137.74l-168.92-16.41
			C-51.26,288.66-100.4,324.24-87.66,330.74z"/>
		<path class="st102" d="M104.42,235.86c0,0,94.51,98.49,90.71,102.12c-3.8,3.64-47.1-21.3-47.1-21.3s11.81,14.53,9.82,17.52
			c-1.99,2.99-25.46-14.36-25.46-14.36s5.76,7.93,3.77,10.75c-1.98,2.82-18.8-12.27-18.8-12.27s3.76,11.59,1.52,12.73
			s-12.11-12.19-12.11-12.19s-0.59,14.21-5.19,14.66s-8.2-12.81-8.2-12.81s-5.8,18.92-10.53,18.61s-12.85-20.56-12.85-20.56
			s-10.69,44.12-18.34,43.28s-6.08-51.26-6.08-51.26s-17.5,37.1-21.87,35.21s-2.33-15.08-2.33-15.08s-10.37,11.17-14.32,9.2
			s-6.95-24.84-6.95-24.84s-13.4,37.48-17.7,35.93c-4.3-1.56-1.64-25.78-1.64-25.78s-38.21,44.72-44.2,38.96
			s15.89-48.33,15.89-48.33s-17.05,22.8-20.59,21.5c-3.54-1.3,0.55-22.75,0.55-22.75s-18.74,24.29-22.26,21.48
			c-3.52-2.8,4.25-29.06,4.25-29.06s-20.87,21.42-23.34,18.46s2.96-14.69,2.96-14.69s-48.28,19.42-49.99,10.78
			c13-15.74,108.71-100.09,108.71-100.09l140.1-22.09L104.42,235.86z"/>
		<path class="st103" d="M21.03,25.79c26.49,81.84,110.32,180.32,123.98,202.71c1.19,1.96,0,4.67-2.02,4.68
			c-33.24,0.13-54.34-16.93-61.21-23.47c-0.22-0.21-0.51,0.14-0.32,0.4c6.71,9.28,26.52,37.69,18.81,39.83
			c-8.48,2.36-31.24-19.75-34.88-23.35c-0.17-0.17-0.41,0.01-0.38,0.26c0.54,3.57,2.7,18.67,0.46,21
			c-2.34,2.44-17.89-16.85-20.33-19.92c-0.13-0.17-0.35-0.07-0.38,0.16c-0.4,4.03-3.14,28.4-10.02,27.09
			c-6.65-1.27-11.49-26.16-12.5-31.81c-0.05-0.29-0.38-0.28-0.45,0c-1.01,4.4-5,20.13-10.02,19.49c-4.95-0.63-5.32-16.09-5.32-20.8
			c0-0.3-0.34-0.38-0.44-0.11c-2.22,5.98-12.01,31.54-16.91,30.01c-4.82-1.51-4.65-16.34-4.52-20.21c0.01-0.27-0.28-0.39-0.42-0.17
			c-2.74,4.5-17.16,27.75-22.44,27.08c-5.08-0.64,2.53-22.43,4.59-28.06c0.1-0.28-0.19-0.52-0.37-0.31
			c-5.71,6.65-38.23,43.8-47.69,37.63c-0.07-0.04-0.11-0.12-0.13-0.21c-2.82-15.34,21.02-46.35,26.95-53.78
			c0.19-0.24-0.05-0.61-0.28-0.44c-6.59,4.78-32.13,22.17-50.21,18.42c-1.46-0.3-2.04-2.45-1.03-3.76
			C-92.61,210.3-10.39,116.76,16.88,25.87C17.58,23.54,20.29,23.49,21.03,25.79z"/>
	</g>
</g>
</svg>
