<?xml version="1.0" encoding="utf-8"?>
<!-- Generator: Adobe Illustrator 23.0.3, SVG Export Plug-In . SVG Version: 6.00 Build 0)  -->
<svg version="1.1" id="Слой_1" xmlns="http://www.w3.org/2000/svg" xmlns:xlink="http://www.w3.org/1999/xlink" x="0px" y="0px"
	 viewBox="0 0 211.91 562.21" style="enable-background:new 0 0 211.91 562.21;" xml:space="preserve">
<style type="text/css">
	.st0{fill:#9EC3BE;}
	.st1{fill:url(#SVGID_1_);}
	.st2{fill:url(#SVGID_2_);}
	.st3{fill:url(#SVGID_3_);}
	.st4{fill:url(#SVGID_4_);}
	.st5{fill:url(#SVGID_5_);}
	.st6{fill:#FFFFFF;}
	.st7{clip-path:url(#SVGID_7_);}
	.st8{opacity:0.43;fill:url(#SVGID_8_);}
	.st9{opacity:0.63;fill:url(#SVGID_9_);}
	.st10{opacity:0.69;fill:url(#SVGID_10_);}
	.st11{opacity:0.54;fill:url(#SVGID_11_);}
	.st12{opacity:0.43;fill:url(#SVGID_12_);}
	.st13{opacity:0.68;fill:url(#SVGID_13_);}
	.st14{opacity:0.49;fill:url(#SVGID_14_);}
	.st15{opacity:0.78;fill:url(#SVGID_15_);}
	.st16{opacity:0.74;fill:url(#SVGID_16_);}
	.st17{fill:url(#SVGID_17_);}
	.st18{fill:url(#SVGID_18_);}
	.st19{fill:url(#SVGID_19_);}
	.st20{fill:url(#SVGID_20_);}
	.st21{fill:url(#SVGID_21_);}
	.st22{fill:url(#SVGID_22_);}
	.st23{fill:url(#SVGID_23_);}
	.st24{fill:url(#SVGID_24_);}
	.st25{opacity:0.65;fill:#FFFFFF;}
	.st26{opacity:0.42;fill:#FFFFFF;}
	.st27{fill:#F1AC4C;}
	.st28{fill:#314448;}
	.st29{fill:url(#SVGID_25_);}
	.st30{fill:#EFBB4E;}
	.st31{fill:#FF8400;}
	.st32{clip-path:url(#SVGID_27_);}
	.st33{fill:#E76344;}
	.st34{fill:#F67B3E;}
	.st35{clip-path:url(#SVGID_29_);}
	.st36{fill:#DD4C43;}
	.st37{fill:#FD706C;}
	.st38{fill:#6C9791;}
	.st39{fill:#9ABCB6;}
	.st40{fill:#D3D3D3;}
	.st41{fill:#FFDFD6;}
	.st42{fill:url(#SVGID_30_);}
	.st43{fill:#AEC9D4;}
	.st44{fill:#808080;}
	.st45{fill:url(#SVGID_31_);}
	.st46{fill:#EAEAEA;}
	.st47{opacity:0.42;clip-path:url(#SVGID_33_);}
	.st48{opacity:0.68;fill:#D3D3D3;}
	.st49{opacity:0.39;}
	.st50{clip-path:url(#SVGID_35_);}
	.st51{opacity:0.18;}
	.st52{opacity:0.08;}
	.st53{clip-path:url(#SVGID_37_);}
	.st54{fill:#BCE0E9;}
	.st55{fill:#9CB8BE;}
	.st56{clip-path:url(#SVGID_38_);}
	.st57{opacity:0.75;}
	.st58{fill:#F0B24B;}
	.st59{fill:#EFA24B;}
	.st60{clip-path:url(#SVGID_40_);}
	.st61{fill:#FFCC72;}
	.st62{clip-path:url(#SVGID_42_);}
	.st63{fill:#EC8949;}
	.st64{clip-path:url(#SVGID_43_);}
	.st65{fill:#606060;}
	.st66{fill:#C4A987;}
	.st67{fill:#EACEA5;}
	.st68{fill:#B1977A;}
	.st69{clip-path:url(#SVGID_44_);}
	.st70{fill:#CCB68F;}
	.st71{fill:url(#SVGID_46_);}
	.st72{fill:url(#SVGID_47_);}
	.st73{fill:#FFEFAD;}
	.st74{fill:#FFF9E5;}
	.st75{fill:none;stroke:#B1977A;stroke-width:0.25;stroke-miterlimit:10;}
	.st76{fill:#E87446;}
	.st77{clip-path:url(#SVGID_49_);}
	.st78{fill:none;stroke:#FFE8C3;stroke-miterlimit:10;}
	.st79{fill:url(#SVGID_50_);}
	.st80{fill:url(#SVGID_51_);}
	.st81{fill:#E7F9FF;}
	.st82{fill:#BFBFBF;}
	.st83{fill:#A7A7A7;}
	.st84{fill:#C0C0C0;}
	.st85{fill:#A1BFC8;}
	.st86{fill:#A9CEC9;}
	.st87{fill:#76A09A;}
	.st88{fill:#7FAAA3;}
	.st89{fill:#8AB2AC;}
	.st90{fill:#93BAB5;}
	.st91{opacity:0.57;}
	.st92{fill:#FCF4D4;}
	.st93{fill:#E86A46;}
	.st94{fill:#8A636C;}
	.st95{fill:#B59BA2;}
	.st96{fill:url(#SVGID_52_);}
	.st97{fill:url(#SVGID_54_);}
	.st98{fill:url(#SVGID_55_);}
	.st99{fill:url(#SVGID_56_);}
	.st100{fill:url(#SVGID_58_);}
	.st101{clip-path:url(#SVGID_60_);}
	.st102{fill:#B5D9D5;}
	.st103{fill:#C0E4E0;}
	.st104{clip-path:url(#SVGID_62_);}
	.st105{clip-path:url(#SVGID_64_);}
	.st106{opacity:0.69;}
	.st107{fill:url(#SVGID_65_);}
	.st108{fill:url(#SVGID_66_);}
	.st109{opacity:0.5;}
	.st110{fill:url(#SVGID_67_);}
	.st111{fill:url(#SVGID_68_);}
	.st112{opacity:0.71;}
	.st113{fill:url(#SVGID_69_);}
	.st114{fill:url(#SVGID_70_);}
	.st115{fill:url(#SVGID_71_);}
	.st116{fill:url(#SVGID_72_);}
	.st117{fill:url(#SVGID_73_);}
	.st118{fill:url(#SVGID_74_);}
	.st119{opacity:0.47;}
	.st120{fill:url(#SVGID_75_);}
	.st121{fill:url(#SVGID_76_);}
	.st122{opacity:0.49;}
	.st123{fill:url(#SVGID_77_);}
	.st124{fill:url(#SVGID_78_);}
	.st125{opacity:0.56;}
	.st126{fill:url(#SVGID_79_);}
	.st127{fill:url(#SVGID_80_);}
	.st128{clip-path:url(#SVGID_82_);}
	.st129{fill:url(#SVGID_83_);}
	.st130{fill:url(#SVGID_84_);}
	.st131{opacity:0.54;}
	.st132{fill:url(#SVGID_85_);}
	.st133{fill:url(#SVGID_86_);}
	.st134{opacity:0.63;}
	.st135{fill:url(#SVGID_87_);}
	.st136{fill:url(#SVGID_88_);}
	.st137{fill:url(#SVGID_89_);}
	.st138{fill:url(#SVGID_90_);}
	.st139{clip-path:url(#SVGID_92_);}
	.st140{clip-path:url(#SVGID_94_);}
	.st141{fill:#535353;}
	.st142{fill:#F0F0F0;}
	.st143{fill:#E1E1E1;}
	.st144{clip-path:url(#SVGID_96_);}
	.st145{fill:url(#SVGID_97_);}
	.st146{clip-path:url(#SVGID_98_);}
	.st147{clip-path:url(#SVGID_99_);}
	.st148{clip-path:url(#SVGID_101_);}
	.st149{fill:url(#SVGID_102_);}
	.st150{fill:url(#SVGID_103_);}
	.st151{fill:url(#SVGID_104_);}
	.st152{fill:url(#SVGID_105_);}
	.st153{clip-path:url(#SVGID_107_);}
	.st154{clip-path:url(#SVGID_109_);}
	.st155{fill:#CBEEF8;}
	.st156{clip-path:url(#SVGID_110_);}
	.st157{fill:url(#SVGID_112_);}
	.st158{clip-path:url(#SVGID_113_);}
	.st159{fill:url(#SVGID_114_);}
	.st160{clip-path:url(#SVGID_116_);}
	.st161{clip-path:url(#SVGID_117_);}
	.st162{clip-path:url(#SVGID_118_);}
	.st163{clip-path:url(#SVGID_119_);}
	.st164{fill:#B4D8DC;}
	.st165{clip-path:url(#SVGID_120_);}
	.st166{fill:#5D8681;}
	.st167{fill:url(#SVGID_121_);}
	.st168{clip-path:url(#SVGID_122_);}
	.st169{fill:#DDF3F7;}
	.st170{fill:#E4A96F;}
	.st171{fill:url(#SVGID_123_);}
	.st172{fill:#EAB278;}
	.st173{fill:url(#SVGID_124_);}
	.st174{fill:url(#SVGID_125_);}
	.st175{fill:#DA9D6B;}
	.st176{opacity:0.74;fill:#DA9D6B;}
	.st177{opacity:0.5;fill:#DA9D6B;}
	.st178{opacity:0.39;fill:#DA9D6B;}
	.st179{opacity:0.36;fill:#DA9D6B;}
	.st180{opacity:0.68;fill:#DA9D6B;}
	.st181{opacity:0.86;fill:#DA9D6B;}
	.st182{opacity:0.62;fill:#DA9D6B;}
	.st183{opacity:0.63;fill:#DA9D6B;}
	.st184{fill:url(#SVGID_126_);}
	.st185{fill:url(#SVGID_127_);}
	.st186{clip-path:url(#SVGID_128_);}
	.st187{fill:url(#SVGID_130_);}
	.st188{fill:url(#SVGID_131_);}
	.st189{fill:url(#SVGID_132_);}
	.st190{fill:url(#SVGID_133_);}
	.st191{clip-path:url(#SVGID_135_);}
	.st192{clip-path:url(#SVGID_137_);}
	.st193{clip-path:url(#SVGID_140_);}
	.st194{fill:#8D8D8D;}
	.st195{clip-path:url(#SVGID_142_);}
	.st196{fill:url(#SVGID_144_);}
	.st197{clip-path:url(#SVGID_146_);}
	.st198{clip-path:url(#SVGID_149_);}
</style>
<g>
	<defs>
		<rect id="SVGID_100_" width="209.87" height="562.21"/>
	</defs>
	<clipPath id="SVGID_1_">
		<use xlink:href="#SVGID_100_"  style="overflow:visible;"/>
	</clipPath>
	<g style="clip-path:url(#SVGID_1_);">
		<path class="st87" d="M295.7,401.05c-11.85,6.36,85.02,108.64,81.13,112.94c-3.89,4.3-51.41-21.86-51.41-21.86
			s13.34,15.88,11.36,19.36c-1.97,3.48-27.93-15.03-27.93-15.03s6.55,8.7,4.56,11.99c-1.98,3.29-20.7-12.99-20.7-12.99
			s4.6,12.94,2.25,14.35c-2.34,1.4-13.55-13.22-13.55-13.22s0.08,16.12-4.82,16.85s-9.4-14.11-9.4-14.11s-5.26,21.7-10.33,21.58
			c-5.07-0.12-14.75-22.67-14.75-22.67s-9.25,50.48-17.47,49.89c-8.22-0.59-9.03-57.76-9.03-57.76s-16.88,42.86-21.64,40.92
			c-4.76-1.93-3.23-16.97-3.23-16.97s-10.53,13.15-14.85,11.11c-4.32-2.04-8.66-27.8-8.66-27.8s-12.47,43.09-17.14,41.54
			s-3.03-29.12-3.03-29.12s-38.63,52.48-45.32,46.24c-6.69-6.23,14.6-55.49,14.6-55.49s-17.1,26.64-20.95,25.34
			s-0.54-25.78-0.54-25.78s-18.84,28.41-22.74,25.4c-3.9-3,3.1-33.11,3.1-33.11s-21.25,25.26-24.04,22.03
			c-2.79-3.23,2.44-16.77,2.44-16.77S2.96,522.23,0.71,512.53c13.12-18.45,101.45-131.65,101.45-131.65l158.51-18.7
			C260.67,362.19,307.55,394.69,295.7,401.05z"/>
		<path class="st88" d="M9.18,434.52c20.92,2.11,42.03-8.21,55.19-26.99c-2.89,10.21-7.05,19.84-12.31,28.5
			c8.72,1.68,17.46-2.33,24.28-8.59s12.02-14.61,17.14-22.87l2.23,17.6c7.5-1.52,14.39-6.31,19.13-13.27
			c-1.56,5.24-3.12,10.47-4.67,15.71c-0.52,1.74-1.04,3.69,0.31,5.41c1.56,1.99,4.18,1.96,5.84,0.25c5.11-5.25,9.23-11.87,12-19.25
			c1.1,4.94,5.22,8.8,9.46,8.86c4.23,0.06,8.16-3.68,9.02-8.59c1.65,5.11,6.65,8.46,11.04,7.38c4.39-1.07,7.61-6.42,7.11-11.82
			c2.14,11.17,13.72,18.56,22.36,14.28c-0.02-3.81-0.04-7.63-0.06-11.44c-0.17,7.24,2.51,14.67,7.21,19.55
			c1.65,1.72,3.76,2.8,5.88,2.54c4.96-0.6,6-7.05,5.27-12.21c-0.63-4.44-2.13-8.91-1.46-13.28c3.69,17.26,21.95,24.48,36.39,23.64
			c1.39-0.08,2.69-1.08,3.1-2.65c0.72-2.73-1.71-4.73-3.62-6.25c-5.3-4.22-9.23-10.9-10.71-18.22c4.43,8.02,12.33,13.22,20.22,13.3
			c0.07-5.78-0.81-11.61-2.55-17.09l26.16,21.53c1.17,0.97,2.65,1.4,3.96,0.87c2.73-1.09,2.41-5.2,1.63-8.26
			c-1.85-7.33-4.55-14.39-8-20.92c5.55,7.02,12.97,11.89,20.8,13.65c0.26-3.72-0.43-7.57-1.96-10.92c4.01,4.41,8.62,8.84,13.96,9.19
			s10.86-5.66,8.99-11.72c-2.25-0.62,18.09,9.11,29.23,8.29c2.43-0.18,2.88-4.13,0.59-5.24c-5.39-2.62-12.66-7.46-14.9-13.81
			c12.63,7.32,26.29,11.91,40.08,13.46c-2.26-5.17-5.94-9.49-10.31-12.1l32.4,1.8c2.71,0.15,5.33-1.36,6.59-4.17
			c2.3-5.13-1.53-9.47-5.16-11.92c-11.09-7.47-24.24-8.26-36.03-13.81c-16.08-7.56-28.55-23.34-40.12-38.86
			c-1.75-2.35-3.6-4.79-6.04-5.89c-2.29-1.04-4.79-0.75-7.18-0.43c-45.29,6.11-71.79-84.24-124.06-48.43
			c-16.05,10.99-64.11-1.08-82.72,1.53c-6.42,0.9-8.42,24.11-13.19,51.77c-6.94,40.24-26.18,77.54-55.72,105.73
			C20.68,425.41,15.1,430.14,9.18,434.52z"/>
		<path class="st89" d="M261.89,240.91c-9.48,5.09,68.05,86.96,64.94,90.4c-3.11,3.44-41.15-17.5-41.15-17.5s10.68,12.71,9.1,15.5
			s-22.35-12.03-22.35-12.03s5.24,6.97,3.65,9.6c-1.59,2.63-16.57-10.4-16.57-10.4s3.68,10.36,1.8,11.48s-10.85-10.58-10.85-10.58
			s0.06,12.91-3.86,13.49c-3.92,0.58-7.53-11.3-7.53-11.3s-4.21,17.37-8.27,17.28c-4.06-0.1-11.81-18.14-11.81-18.14
			s-7.4,40.41-13.98,39.94s-7.23-46.23-7.23-46.23s-13.51,34.3-17.32,32.75c-3.81-1.55-2.59-13.58-2.59-13.58
			s-8.43,10.52-11.89,8.89s-6.93-22.25-6.93-22.25s-9.98,34.49-13.72,33.25c-3.74-1.25-2.43-23.31-2.43-23.31s-30.92,42-36.28,37.01
			c-5.35-4.99,11.69-44.42,11.69-44.42s-13.69,21.32-16.77,20.28c-3.08-1.04-0.43-20.64-0.43-20.64s-15.08,22.74-18.2,20.33
			c-3.12-2.4,2.48-26.5,2.48-26.5s-17.01,20.22-19.24,17.63s1.95-13.43,1.95-13.43s-40.55,19.46-42.35,11.7
			c10.5-14.77,81.2-105.37,81.2-105.37l126.87-14.96C233.85,209.81,271.38,235.82,261.89,240.91z"/>
		<path class="st90" d="M115.87,187.53c0,0-69.61,75.58-66.69,78.26c2.92,2.68,35.12-16.76,35.12-16.76s-8.66,11.12-7.12,13.33
			c1.54,2.22,18.94-11.2,18.94-11.2s-4.21,6.06-2.67,8.15s13.96-9.52,13.96-9.52s-2.65,8.78-0.95,9.61s8.93-9.36,8.93-9.36
			s0.66,10.69,4.13,10.95c3.47,0.27,5.98-9.77,5.98-9.77s4.65,14.15,8.21,13.84c3.56-0.3,9.35-15.67,9.35-15.67
			s8.73,33.04,14.47,32.29c5.74-0.75,3.78-38.67,3.78-38.67s13.75,27.65,17,26.16c3.26-1.49,1.52-11.39,1.52-11.39
			s7.98,8.25,10.92,6.7c2.94-1.54,4.84-18.8,4.84-18.8s10.66,28,13.87,26.76c3.21-1.24,0.84-19.43,0.84-19.43
			s29.44,33.06,33.86,28.63c4.42-4.43-12.71-36.12-12.71-36.12s13.19,16.9,15.83,15.86c2.64-1.03-0.76-17.11-0.76-17.11
			S261,262.26,263.6,260.1c2.6-2.16-3.64-21.8-3.64-21.8s16.04,15.8,17.85,13.53c1.81-2.26-2.45-11.01-2.45-11.01
			s36.64,13.87,37.79,7.34c-10.03-11.64-83.36-73.64-83.36-73.64L124,160.06L115.87,187.53z"/>
		<path class="st0" d="M176.65,33.89c-18.67,62-80.23,137.41-90.17,154.47c-0.87,1.49,0.07,3.52,1.6,3.49
			c25.02-0.42,40.63-13.58,45.7-18.61c0.16-0.16,0.38,0.1,0.25,0.3c-4.91,7.09-19.37,28.77-13.54,30.27
			c6.41,1.64,23.21-15.35,25.89-18.11c0.12-0.13,0.31,0,0.29,0.19c-0.35,2.69-1.74,14.09-0.02,15.81c1.8,1.8,13.2-12.96,14.99-15.3
			c0.1-0.13,0.26-0.06,0.29,0.11c0.37,3.03,2.8,21.32,7.96,20.23c4.99-1.05,8.24-19.87,8.92-24.13c0.03-0.22,0.28-0.22,0.34-0.01
			c0.83,3.3,4.07,15.07,7.84,14.51c3.71-0.55,3.76-12.19,3.68-15.73c0-0.23,0.25-0.29,0.33-0.09c1.76,4.47,9.52,23.55,13.19,22.32
			c3.61-1.21,3.25-12.37,3.09-15.28c-0.01-0.21,0.21-0.3,0.31-0.13c2.13,3.35,13.35,20.62,17.31,20.04
			c3.82-0.56-2.25-16.84-3.89-21.05c-0.08-0.21,0.13-0.4,0.27-0.24c4.4,4.92,29.45,32.37,36.47,27.58c0.05-0.03,0.08-0.09,0.09-0.16
			c1.89-11.59-16.53-34.56-21.11-40.06c-0.15-0.18,0.03-0.46,0.21-0.33c5.03,3.5,24.53,16.19,38.07,13.09
			c1.09-0.25,1.5-1.88,0.72-2.85c-10.68-13.23-74.01-82.36-95.94-150.33C179.21,32.14,177.17,32.14,176.65,33.89z"/>
		<g class="st91">
			<path class="st6" d="M132.36,121.91c3.69,6.68,8.38,12.76,13.39,18.48c5.05,5.7,10.56,10.99,16.46,15.79
				c11.8,9.61,25.15,17.27,39.33,22.76c1.77,0.7,3.57,1.29,5.36,1.95c0.9,0.31,1.79,0.65,2.69,0.94l2.73,0.82
				c1.83,0.52,3.63,1.15,5.48,1.59l5.54,1.37c7.43,1.64,14.94,2.92,22.53,3.59c1.9,0.16,3.79,0.41,5.69,0.51l5.71,0.27l2.85,0.14
				l2.86,0l5.71,0c1.91,0.05,3.81-0.12,5.71-0.18l5.71-0.25c3.8-0.3,7.6-0.67,11.4-1c-3.79,0.41-7.58,0.87-11.38,1.24l-5.71,0.37
				c-1.91,0.1-3.81,0.31-5.72,0.3l-5.73,0.08l-2.87,0.03l-2.86-0.1l-5.73-0.2c-1.91-0.07-3.81-0.3-5.72-0.44
				c-7.63-0.56-15.18-1.87-22.66-3.47l-5.58-1.36c-1.86-0.44-3.68-1.06-5.52-1.58l-2.75-0.82c-0.91-0.29-1.81-0.63-2.71-0.94
				c-1.8-0.65-3.62-1.23-5.4-1.94c-14.24-5.6-27.69-13.31-39.46-23.1C150.03,146.96,139.61,135.37,132.36,121.91z"/>
		</g>
		<g class="st91">
			<path class="st6" d="M288.18,177.99c-4.95,9.35-11.29,17.9-18.11,25.97c-6.94,7.99-14.54,15.4-22.69,22.15
				c-16.32,13.5-34.88,24.22-54.59,31.97c-2.46,0.97-4.99,1.78-7.48,2.68c-1.25,0.43-2.49,0.9-3.75,1.29l-3.81,1.13l-3.81,1.13
				c-1.27,0.38-2.53,0.77-3.83,1.05l-7.72,1.87c-10.34,2.22-20.8,3.99-31.36,4.81l-3.95,0.35c-1.32,0.11-2.63,0.26-3.96,0.29
				l-7.93,0.31l-3.96,0.15l-3.97-0.03l-7.93-0.08l-1.98-0.03l-1.98-0.12l-3.96-0.25l-7.91-0.49c-5.26-0.51-10.51-1.12-15.76-1.68
				c5.26,0.47,10.52,1.01,15.78,1.43l7.91,0.37l3.96,0.18l1.98,0.09l1.98,0l7.92,0.03l3.96,0.01l3.95-0.18l7.91-0.35
				c1.32-0.03,2.63-0.19,3.94-0.31l3.94-0.37c10.52-0.88,20.94-2.7,31.23-4.96l7.68-1.9c1.29-0.29,2.54-0.69,3.81-1.07l3.79-1.14
				l3.79-1.14c1.26-0.4,2.49-0.87,3.73-1.31c2.47-0.91,4.98-1.73,7.43-2.7c19.66-7.61,38.2-18.18,54.53-31.55
				c8.17-6.68,15.77-14.04,22.75-21.96C276.62,195.7,283.09,187.26,288.18,177.99z"/>
		</g>
		<g class="st91">
			<path class="st6" d="M64.91,273.55c6.25,11.44,14.21,21.84,22.73,31.65c8.59,9.77,17.96,18.85,28.03,27.08
				c20.12,16.49,42.98,29.54,67.21,38.93c3.02,1.2,6.11,2.21,9.16,3.33c1.53,0.53,3.05,1.12,4.6,1.61l4.67,1.41l4.67,1.41
				c1.56,0.47,3.11,0.96,4.69,1.32l9.47,2.34c12.69,2.79,25.54,5.03,38.5,6.1l4.86,0.45c1.62,0.14,3.24,0.34,4.86,0.38l9.75,0.43
				l4.87,0.21l4.88-0.02l9.76-0.04l2.44,0l2.44-0.11l4.88-0.23l9.75-0.47c6.49-0.53,12.96-1.2,19.45-1.79
				c-6.47,0.67-12.95,1.42-19.43,2.04l-9.75,0.59l-4.88,0.29l-2.44,0.14l-2.44,0.03l-9.77,0.09l-4.89,0.04l-4.88-0.19l-9.77-0.38
				c-1.63-0.03-3.25-0.22-4.87-0.36l-4.87-0.43c-13-1.02-25.88-3.21-38.63-5.95l-9.51-2.31c-1.59-0.35-3.15-0.83-4.71-1.3
				l-4.69-1.39l-4.69-1.39c-1.56-0.49-3.08-1.07-4.62-1.59l-4.62-1.62c-1.53-0.56-3.1-1.03-4.59-1.68
				c-24.28-9.53-47.16-22.72-67.27-39.35c-10.05-8.3-19.42-17.44-27.97-27.27C78.86,295.58,71.02,285.07,64.91,273.55z"/>
		</g>
		<circle class="st61" cx="141.96" cy="143.87" r="6.4"/>
		<circle class="st92" cx="169.86" cy="168.79" r="6.4"/>
		<circle class="st94" cx="202.17" cy="185.26" r="6.4"/>
		<circle class="st93" cx="183.3" cy="267.11" r="6.4"/>
		<circle class="st92" cx="98.66" cy="278.41" r="6.4"/>
		<circle class="st61" cx="140.74" cy="275.76" r="6.4"/>
		<g class="st91">
			<path class="st6" d="M260.13,366.76c-4.95,9.35-11.29,17.9-18.11,25.97c-6.94,7.99-14.54,15.4-22.69,22.15
				c-16.32,13.5-34.88,24.22-54.59,31.97c-2.46,0.97-4.99,1.78-7.48,2.68c-1.25,0.43-2.49,0.9-3.75,1.29l-3.81,1.13l-3.81,1.13
				c-1.27,0.38-2.53,0.77-3.83,1.05l-7.72,1.87c-10.34,2.22-20.8,3.99-31.36,4.81l-3.95,0.35c-1.32,0.11-2.63,0.26-3.96,0.29
				l-7.93,0.31l-3.96,0.15l-3.97-0.03l-7.93-0.08l-1.98-0.03l-1.98-0.12l-3.96-0.24l-7.91-0.49c-5.26-0.51-10.51-1.12-15.76-1.68
				c5.26,0.47,10.52,1.01,15.78,1.43l7.91,0.37l3.96,0.18l1.98,0.09l1.98,0l7.92,0.03l3.96,0.01l3.95-0.17l7.91-0.35
				c1.32-0.03,2.63-0.19,3.94-0.31l3.94-0.37c10.52-0.88,20.94-2.7,31.23-4.96l7.68-1.9c1.29-0.29,2.54-0.69,3.81-1.07l3.79-1.14
				l3.79-1.14c1.26-0.4,2.49-0.87,3.73-1.31c2.47-0.91,4.98-1.73,7.43-2.7c19.66-7.61,38.2-18.18,54.53-31.55
				c8.17-6.68,15.77-14.04,22.75-21.96C248.58,384.47,255.05,376.04,260.13,366.76z"/>
		</g>
		<circle class="st94" cx="155.25" cy="455.88" r="6.4"/>
		<circle class="st95" cx="70.61" cy="467.18" r="6.4"/>
		<circle class="st61" cx="112.69" cy="464.53" r="6.4"/>
		<circle class="st61" cx="195.67" cy="438.24" r="6.4"/>
		<circle class="st93" cx="94.05" cy="321.84" r="6.4"/>
		<circle class="st61" cx="133.78" cy="354.31" r="6.4"/>
		<circle class="st93" cx="181.97" cy="377.48" r="6.4"/>
		<radialGradient id="SVGID_2_" cx="98.557" cy="277.9403" r="19.5183" gradientUnits="userSpaceOnUse">
			<stop  offset="0.2043" style="stop-color:#FCF4D4;stop-opacity:0.7"/>
			<stop  offset="0.6659" style="stop-color:#FCF4D4;stop-opacity:0"/>
		</radialGradient>
		<circle class="st2" cx="98.56" cy="277.94" r="19.52"/>
		<radialGradient id="SVGID_3_" cx="169.791" cy="168.4084" r="19.5183" gradientUnits="userSpaceOnUse">
			<stop  offset="0.2043" style="stop-color:#FCF4D4;stop-opacity:0.7"/>
			<stop  offset="0.6659" style="stop-color:#FCF4D4;stop-opacity:0"/>
		</radialGradient>
		<circle class="st3" cx="169.79" cy="168.41" r="19.52"/>
		<radialGradient id="SVGID_4_" cx="181.6633" cy="378.6637" r="19.5183" gradientUnits="userSpaceOnUse">
			<stop  offset="0.1991" style="stop-color:#E86A46"/>
			<stop  offset="0.6659" style="stop-color:#E86A46;stop-opacity:0"/>
		</radialGradient>
		<circle class="st4" cx="181.66" cy="378.66" r="19.52"/>
		<radialGradient id="SVGID_5_" cx="155.174" cy="455.8977" r="19.5183" gradientUnits="userSpaceOnUse">
			<stop  offset="0.1991" style="stop-color:#8A636C"/>
			<stop  offset="0.6659" style="stop-color:#8A636C;stop-opacity:0"/>
		</radialGradient>
		<circle class="st5" cx="155.17" cy="455.9" r="19.52"/>
	</g>
</g>
</svg>
